<?xml version="1.0" encoding="utf-8"?>
<!-- Generator: Adobe Illustrator 21.1.0, SVG Export Plug-In . SVG Version: 6.00 Build 0)  -->
<svg version="1.1" id="Layer_1" xmlns="http://www.w3.org/2000/svg" xmlns:xlink="http://www.w3.org/1999/xlink" x="0px" y="0px"
	 viewBox="0 0 1320 670" style="enable-background:new 0 0 1320 670;" xml:space="preserve">
<style type="text/css">
	.st0{fill:#51C3F0;}
	.st1{fill:#FFCE08;}
	.st2{fill:#ED3766;}
	.st3{fill:#FFF8CE;}
	.st4{fill:#FFF8CD;}
	.st5{fill:#EE3766;}
</style>
<title>yg-beatles-170816-0918-wireframes-index</title>
<path class="st0" d="M321.2,194.3c0.7,0,1.4-0.1,2.2-0.1l2.1-0.1h2.1l0,0h2.1l2.1,0.1l2.1,0.1l2.1,0.1l2.1,0.2l2.1,0.2l2.1,0.2
	l2.1,0.3l2.1,0.3l2.1,0.4l2,0.4l2.1,0.4l10.9-51.9c-1-0.2-2-0.4-3-0.6l-2.9-0.5c-1-0.2-2-0.3-3-0.5s-2-0.3-3-0.4l-3-0.4
	c-1-0.1-2-0.2-3-0.3s-2-0.2-3-0.3l-3-0.2c-1-0.1-2-0.1-3-0.2s-2-0.1-3.1-0.1l-3-0.1c-1,0-2,0-3,0l0,0c-1,0-2,0-3,0l-3,0.1
	c-1,0-2.1,0.1-3.1,0.1s-2,0.1-3,0.2l3.6,52.9L321.2,194.3z M312.9,195l2.1-0.2l2.1-0.2l-4.5-52.8c-1,0.1-2,0.2-3,0.3s-2,0.2-3,0.3
	l-3,0.4l7.3,52.5L312.9,195z M227.2,246.7c0.4-0.6,0.8-1.1,1.2-1.7s0.9-1.2,1.3-1.8s0.8-1.1,1.3-1.6l1.3-1.6
	c0.4-0.6,0.9-1.1,1.3-1.6l-41-34c-0.6,0.8-1.3,1.6-1.9,2.4s-1.2,1.5-1.8,2.3s-1.2,1.6-1.8,2.4s-1.2,1.7-1.9,2.5s-1.1,1.6-1.7,2.4
	s-1.2,1.7-1.7,2.5l44.3,29.6C226.3,247.9,226.7,247.3,227.2,246.7L227.2,246.7z M218.5,261.2c0.3-0.6,0.6-1.3,1-1.9s0.6-1.2,1-1.8
	s0.7-1.2,1-1.8s0.7-1.3,1.1-1.9s0.7-1.2,1.1-1.8l-45.3-28.1c-0.5,0.9-1.1,1.7-1.6,2.6c-0.5,0.9-1.1,1.8-1.6,2.7s-1,1.7-1.4,2.6
	s-0.9,1.7-1.4,2.6s-1,1.8-1.4,2.7s-0.9,1.8-1.4,2.7l48,23.3C217.9,262.5,218.2,261.8,218.5,261.2L218.5,261.2z M214.2,270.8
	c0.3-0.6,0.5-1.3,0.8-1.9s0.6-1.3,0.8-1.9l-48.7-21.6c-0.4,0.9-0.8,1.8-1.2,2.7s-0.8,1.8-1.1,2.8s-0.8,1.9-1.1,2.9l49.8,19.1
	C213.7,272.1,213.9,271.4,214.2,270.8L214.2,270.8z M211.3,278.8c0.2-0.7,0.4-1.4,0.7-2l-50.4-17.3c-0.3,1-0.6,1.9-1,2.9
	s-0.6,1.8-0.9,2.7l51,15.6C210.9,280,211.1,279.4,211.3,278.8L211.3,278.8z M208,290.9c0.1-0.7,0.3-1.4,0.5-2.1s0.3-1.4,0.5-2
	l-51.7-13c-0.2,1-0.5,1.9-0.7,2.9s-0.4,2.1-0.7,3.1s-0.4,1.9-0.6,2.9l52.4,10.3C207.8,292.3,207.9,291.6,208,290.9z M206.6,299.2
	c0.1-0.7,0.2-1.4,0.3-2s0.2-1.4,0.4-2.1l-52.5-9.4c-0.2,1-0.4,2.1-0.5,3.1s-0.3,1.9-0.4,2.9s-0.3,2.1-0.4,3.1l52.9,6.6
	C206.4,300.6,206.5,299.9,206.6,299.2L206.6,299.2z M167.7,389c0.4,0.9,0.9,1.8,1.3,2.7s0.9,1.8,1.3,2.7s0.9,1.8,1.4,2.7
	s0.9,1.8,1.4,2.6s1,1.8,1.5,2.7l46.4-26.1c-0.4-0.6-0.7-1.3-1.1-1.9s-0.6-1.2-1-1.8s-0.6-1.3-1-1.9s-0.6-1.3-0.9-1.9
	s-0.6-1.3-0.9-1.9s-0.6-1.3-0.8-1.9s-0.6-1.3-0.8-1.9l-49.3,20.4c0.4,0.9,0.8,1.8,1.2,2.8C166.9,387.1,167.3,388.1,167.7,389z
	 M157.7,360.5c0.2,1,0.5,1.9,0.8,2.9s0.6,2,0.8,2.9s0.6,2,0.9,2.9s0.6,1.9,0.9,2.9s0.6,1.8,0.9,2.7s0.7,2,1.1,2.9l50-18.6
	c-0.3-0.7-0.5-1.3-0.7-2c-0.2-0.6-0.4-1.3-0.7-1.9s-0.4-1.4-0.7-2s-0.4-1.4-0.6-2s-0.4-1.4-0.6-2s-0.4-1.3-0.6-2s-0.3-1.4-0.5-2
	s-0.3-1.4-0.5-2l-52,11.6c0.2,1,0.4,2,0.7,2.9C157.1,358.6,157.4,359.6,157.7,360.5L157.7,360.5z M155,348.7c0.2,1,0.4,2.1,0.6,3.1
	l52.2-10.8c-0.1-0.7-0.3-1.4-0.4-2.1L155,348.7z M238.4,400c-0.5-0.5-1-1-1.4-1.5s-0.9-1-1.4-1.5s-0.9-1-1.4-1.6s-0.9-1.1-1.4-1.7
	s-0.9-1-1.3-1.6l-41.8,33c0.6,0.8,1.2,1.5,1.8,2.3s1.3,1.5,2,2.4c0.7,0.8,1.3,1.5,1.9,2.3c0.6,0.7,1.3,1.5,2,2.2s1.4,1.5,2.1,2.2
	L238.4,400z M180.8,412.7c0.6,0.9,1.1,1.7,1.7,2.6s1.1,1.6,1.7,2.4s1.1,1.6,1.7,2.4l43-31.5c-0.4-0.5-0.8-1.1-1.2-1.7
	s-0.8-1.1-1.2-1.7s-0.8-1.2-1.2-1.8s-0.8-1.2-1.1-1.8s-0.8-1.2-1.1-1.8l-45.5,27.7c0.5,0.9,1.1,1.7,1.6,2.6S180.3,411.9,180.8,412.7
	L180.8,412.7z M264.4,421.2L237,466.7c0.9,0.5,1.7,1,2.6,1.5l26.7-46L264.4,421.2z M219.6,454.7c0.8,0.6,1.6,1.2,2.4,1.9l32-42.5
	l-1.7-1.3L219.6,454.7z M241.3,403.1l-37.6,37.7c0.7,0.7,1.4,1.4,2.1,2.1l36.9-38.4L241.3,403.1z M305.6,436.8L296,489
	c1,0.2,2,0.3,3,0.5l8.6-52.3L305.6,436.8z M275.5,484c1,0.3,1.9,0.6,2.9,0.9l14.9-50.9l-2-0.6L275.5,484z M283.3,430.5L264.1,480
	c0.9,0.4,1.9,0.7,2.8,1.1l18.4-49.8L283.3,430.5z M277.5,428.1l-21.7,48.5c0.9,0.4,1.8,0.8,2.7,1.2l20.9-48.8L277.5,428.1z
	 M273.7,426.3l-1.9-1l-24.2,47.3c0.9,0.5,1.8,0.9,2.8,1.4l2.8,1.3l22.6-48.1L273.7,426.3z M345.4,437.5l-2.1,0.3l-2.1,0.2l-2.1,0.2
	l-2.1,0.2l4.1,52.9c1-0.1,2.1-0.2,3.1-0.3l3-0.3c1-0.1,2-0.2,3-0.4s2-0.3,3-0.4l2.9-0.5l-8.6-52.3L345.4,437.5z M361.8,433.9l-2,0.6
	l-2,0.5l-2,0.5l-2.1,0.5l-2,0.4l10.4,52l2.9-0.6c1-0.2,2-0.4,3-0.7l2.9-0.7c1-0.2,1.9-0.5,2.9-0.8l2.9-0.8c1-0.3,1.9-0.6,2.9-0.9
	l-15.9-50.7L361.8,433.9z M367.8,432l-2,0.7l16.6,50.4l2.9-1c1-0.3,1.9-0.7,2.8-1l-18.4-49.8L367.8,432z M379.5,427.2l22.6,48.1
	c0.9-0.4,1.8-0.9,2.8-1.3l-23.4-47.7L379.5,427.2z M390.6,421.2l27.4,45.5c0.9-0.5,1.7-1,2.5-1.6l-28.2-45L390.6,421.2z
	 M334.9,438.6l-2.1,0.1l-2.1,0.1l1.4,53c1,0,2-0.1,3-0.1l3-0.1L334.9,438.6z M436.1,372.7c-0.3,0.6-0.6,1.2-1,1.8l46.9,25.3
	c0.5-0.9,0.9-1.7,1.4-2.6s0.9-1.8,1.4-2.7L437,370.8C436.7,371.4,436.4,372,436.1,372.7z M438.9,367l48.6,22
	c0.4-0.9,0.8-1.8,1.2-2.7L439.7,365C439.4,365.7,439.1,366.3,438.9,367L438.9,367z M405.2,222l33.8-41.1c-0.8-0.6-1.5-1.2-2.3-1.9
	l-33.1,41.7C404.1,221.1,404.7,221.6,405.2,222z M408.4,224.8c0.5,0.5,1,0.9,1.6,1.4l35.9-39.3c-0.7-0.7-1.5-1.4-2.3-2
	s-1.5-1.3-2.3-2l-34.5,40.5L408.4,224.8z M416,232l38.5-36.8c-0.7-0.7-1.4-1.4-2.1-2.1l-37.9,37.4C415,231.1,415.5,231.6,416,232
	L416,232z M362.9,199.3l2,0.6l2,0.7l17-50.3c-1-0.3-1.9-0.6-2.9-0.9l-2.8-0.9c-1-0.3-1.9-0.6-2.9-0.9s-2-0.5-2.9-0.8
	s-1.9-0.5-2.9-0.7l-12.7,51.5l2,0.5l2,0.6L362.9,199.3z M386.7,151.3l-17.9,50l2,0.7l2,0.8l1.9,0.8l1.9,0.8l21.3-48.6
	c-0.9-0.4-1.8-0.8-2.7-1.2l-2.8-1.1c-1-0.4-1.9-0.7-2.9-1.1L386.7,151.3z M384.2,208l1.8,1l1.9,1l1.8,1.1l1.8,1.1
	c0.6,0.4,1.2,0.8,1.8,1.1l1.7,1.1l1.8,1.2l30.2-43.8c-0.8-0.6-1.7-1.2-2.6-1.7c-0.8-0.5-1.6-1.1-2.5-1.6s-1.7-1.1-2.6-1.6
	s-1.7-1-2.6-1.5s-1.7-1-2.6-1.5s-1.8-1-2.7-1.5s-1.8-0.9-2.6-1.4l-2.7-1.4l-23.8,47.5L384.2,208z M559.8,351.8l-52.5-8
	c-0.1,1-0.3,2-0.5,3l52.4,8.9C559.4,354.4,559.7,353.1,559.8,351.8z M363.3,494.6l10.5,52.3c1.3-0.3,2.6-0.5,3.9-0.8l-11.4-52.1
	C365.3,494.2,364.3,494.4,363.3,494.6z M361.7,138c1,0.2,2.1,0.4,3.1,0.6l3,0.7c1,0.2,2.1,0.5,3.1,0.7l3,0.8c1,0.3,2,0.5,3,0.8
	l14.5-51.3c-1.3-0.4-2.6-0.7-3.9-1.1s-2.6-0.7-3.9-1s-2.7-0.7-4-1s-2.6-0.6-3.9-0.8s-2.7-0.5-4-0.8s-2.6-0.5-3.9-0.7l-9.1,52.5
	L361.7,138z M369.8,547.6l-9.6-52.4l-3.1,0.5l8.7,52.6C367.1,548.1,368.5,547.8,369.8,547.6L369.8,547.6z M351,496.6
	c-1,0.1-2.1,0.2-3.1,0.4l6,53c1.4-0.2,2.7-0.3,4-0.5s2.7-0.4,4-0.6l-7.8-52.7C353,496.3,352,496.5,351,496.6z M341.6,497.6
	c-1,0.1-2.1,0.1-3.1,0.2l3.2,53.2c1.3-0.1,2.7-0.2,4-0.2s2.8-0.2,4.1-0.4l-5-53C343.7,497.4,342.6,497.5,341.6,497.6L341.6,497.6z
	 M343.2,135.5c1,0.1,2.1,0.2,3.1,0.3s2.1,0.2,3.1,0.4l3.1,0.4c1,0.1,2.1,0.3,3.1,0.4l8.2-52.7c-1.3-0.2-2.7-0.4-4-0.6
	s-2.7-0.4-4-0.5s-2.7-0.3-4-0.5s-2.7-0.2-4-0.4s-2.7-0.2-4-0.3s-2.7-0.2-4-0.2l-2.8,53.2c1,0.1,2.1,0.1,3.1,0.2L343.2,135.5z
	 M333.6,551.3c1.4,0,2.7-0.1,4-0.2l-2.3-53.2c-1,0-2.1,0.1-3.1,0.1L333.6,551.3z M333.8,135l1.8-53.3c-1.3,0-2.7-0.1-4-0.1
	c-1.3,0-2.7-0.1-4-0.1v53.3c1,0,2.1,0,3.1,0L333.8,135z M327.6,551.4h2.1l-0.5-53.3h-1.6l0,0H326c-1,0-2.1,0-3.1,0l-1.4,53.3
	c1.3,0,2.7,0,4,0L327.6,551.4z M418.6,388.3l-41.8-33c-0.2,0.3-0.4,0.5-0.6,0.8l41.3,33.6C417.8,389.2,418.2,388.7,418.6,388.3
	L418.6,388.3z M384.9,291c0.1,0.3,0.3,0.6,0.4,1s0.3,0.7,0.4,1l49.3-19.9c-0.2-0.6-0.5-1.2-0.8-1.8s-0.5-1.2-0.8-1.8
	s-0.5-1.2-0.8-1.8s-0.6-1.2-0.9-1.8L384,289.1c0.2,0.3,0.3,0.7,0.5,1L384.9,291z M436.5,276.8c-0.2-0.6-0.5-1.2-0.7-1.8l-49.7,19
	c0.1,0.3,0.3,0.6,0.4,1L436.5,276.8z M443,326c0.1-0.7,0.1-1.3,0.1-2c0-0.7,0.1-1.4,0.1-2l-53.1-2.5c0,0.4,0,0.7-0.1,1.1
	s0,0.7-0.1,1.1s0,0.7-0.1,1l52.9,5.2C442.9,327.3,443,326.6,443,326z M443.3,312c0-0.6,0-1.3-0.1-1.9s-0.1-1.4-0.1-2
	s-0.1-1.3-0.2-1.9s-0.1-1.4-0.2-2s-0.1-1.3-0.2-1.9l-52.8,6.6c0,0.3,0.1,0.7,0.1,1s0.1,0.7,0.1,1.1s0.1,0.7,0.1,1s0.1,0.7,0.1,1.1
	s0,0.7,0,1s0,0.7,0,1.1l53.3-1.1C443.4,313.3,443.4,312.6,443.3,312L443.3,312z M441.8,335.9c0.1-0.6,0.2-1.3,0.3-1.9s0.2-1.4,0.3-2
	s0.2-1.3,0.2-1.9l-52.8-6.2c0,0.4-0.1,0.7-0.1,1s-0.1,0.7-0.1,1.1s-0.1,0.7-0.2,1s-0.1,0.7-0.2,1l52.3,9.8
	C441.6,337.1,441.7,336.5,441.8,335.9L441.8,335.9z M387.8,299.2c0.1,0.4,0.2,0.7,0.3,1s0.2,0.7,0.3,1s0.2,0.7,0.2,1
	s0.2,0.7,0.2,1.1s0.1,0.7,0.2,1s0.1,0.7,0.2,1s0.1,0.7,0.2,1.1s0.1,0.7,0.1,1l52.7-7.4c-0.1-0.6-0.2-1.3-0.3-1.9s-0.2-1.4-0.3-2
	s-0.2-1.3-0.4-1.9s-0.3-1.3-0.4-1.9s-0.3-1.4-0.5-2s-0.3-1.3-0.5-1.9s-0.3-1.3-0.5-1.9s-0.4-1.3-0.5-1.9s-0.4-1.3-0.6-1.9
	s-0.4-1.2-0.6-1.8l-50.6,16.4c0.1,0.3,0.2,0.6,0.3,1S387.7,298.8,387.8,299.2L387.8,299.2z M440.6,341.8l-51.9-11.6
	c-0.1,0.3-0.2,0.7-0.2,1l51.7,12.5C440.4,343,440.5,342.4,440.6,341.8L440.6,341.8z M437.4,353.3c0.2-0.7,0.4-1.3,0.6-1.9
	c0.2-0.6,0.4-1.3,0.6-1.9s0.4-1.3,0.6-1.9L388,333.2l-0.3,1c-0.1,0.4-0.2,0.7-0.3,1s-0.2,0.7-0.4,1s-0.2,0.6-0.3,1l50.1,17.7
	C437.1,354.5,437.3,353.9,437.4,353.3L437.4,353.3z M413.4,394.3l1.3-1.5l-40.1-35.1c-0.2,0.3-0.5,0.5-0.7,0.8l-0.7,0.8l38.9,36.4
	L413.4,394.3z M357.6,261.4l1,0.5l26.3-46.4l-1.8-1L357.6,261.4z M377.8,211.9l-1.8-0.9l-1.8-0.8l-1.8-0.8l-1.8-0.8l-19.7,49.5
	l1,0.4l1,0.4l1,0.4l1,0.5l1,0.5l1,0.5l24.7-47.2l-1.8-0.9L377.8,211.9z M345.7,256.4l1,0.3l1,0.4l1,0.3l18-50.2l-1.9-0.7l-1.9-0.6
	l-1.9-0.6l-1.9-0.6l-14.5,51.3L345.7,256.4z M406.5,401.4c0.5-0.5,1-0.9,1.5-1.4l1.4-1.4l0.2-0.2c0.4-0.4,0.8-0.9,1.2-1.3
	l-38.2-37.1c-0.3,0.3-0.5,0.5-0.8,0.8s-0.5,0.5-0.8,0.7l-0.8,0.8l-0.8,0.7l35.6,39.6C405.5,402.3,406,401.9,406.5,401.4z
	 M347.5,202.1l-2-0.3l-8.2,52.7l1.1,0.2l1,0.2l1.1,0.2l10.9-52.2l-2-0.4L347.5,202.1z M399.7,225.7l-1.6-1.2l-1.6-1.2l-1.7-1.2
	l-1.6-1.1l-1.7-1.1l-1.6-1.1l-1.7-1.1l-1.7-1l-27.1,45.9l0.9,0.5l0.9,0.6l0.9,0.6l0.9,0.6l0.9,0.6l0.9,0.6l0.8,0.6l0.9,0.7
	c0.3,0.2,0.6,0.4,0.8,0.7l0.8,0.7l34.6-40.5c-0.5-0.4-1-0.9-1.6-1.3L399.7,225.7z M409.6,234.5l-0.9-0.9c-0.5-0.5-0.9-0.9-1.4-1.4
	l-1.5-1.4l-1.5-1.3L369,269.4l0.8,0.7c0.3,0.2,0.5,0.5,0.8,0.7l0.8,0.7l0.8,0.8l0.7,0.8l38.5-36.8c-0.5-0.5-0.9-0.9-1.4-1.4
	L409.6,234.5z M380.3,282.5l0.6,0.9l0.6,0.9c0.2,0.3,0.4,0.6,0.6,1s0.4,0.6,0.5,0.9l0.5,0.9l47-24.9c-0.3-0.6-0.6-1.1-0.9-1.7
	c-0.3-0.6-0.6-1.1-1-1.7s-0.7-1.2-1-1.8s-0.7-1.1-1-1.7s-0.7-1.1-1-1.7s-0.7-1.1-1.1-1.6s-0.8-1.1-1.2-1.7l-43.7,30.4
	c0.2,0.3,0.4,0.6,0.6,0.9S380.1,282.2,380.3,282.5L380.3,282.5z M419.3,245.5L418,244c-0.4-0.5-0.8-1-1.3-1.6l-41,34
	c0.2,0.3,0.5,0.6,0.7,0.9l0.6,0.8c0.2,0.3,0.5,0.6,0.7,0.8s0.4,0.6,0.6,0.9l43.2-31.1c-0.4-0.6-0.8-1.1-1.2-1.7
	S419.6,246,419.3,245.5L419.3,245.5z M412.9,237.9L373.6,274l0.7,0.8l0.7,0.8l40.4-34.7c-0.4-0.5-0.9-1-1.3-1.5L412.9,237.9z
	 M341.5,255.3l1.1,0.2l12.7-51.8l-2-0.5L341.5,255.3z M371.5,423.9l1.8-0.8l1.8-0.8l1.8-0.8l-22.8-48.2l-1,0.4l-1,0.4l-1,0.4l-1,0.4
	l19.3,49.7L371.5,423.9z M340.6,431.7l2-0.2l-6.9-52.9l-1.1,0.1l-1.1,0.1l5,53.1L340.6,431.7z M380.6,419.7c0.6-0.3,1.2-0.6,1.8-0.9
	l1.7-1l1.8-1l1.7-1l1.7-1l1.7-1.1l1.6-1.1l1.6-1.1l-30.6-43.6c-0.3,0.2-0.6,0.4-0.9,0.6l-0.9,0.6l-0.9,0.6c-0.3,0.2-0.6,0.4-0.9,0.6
	l-0.9,0.5l-1,0.5l-0.9,0.5l-1,0.5l-1,0.5l23.5,47.9L380.6,419.7z M397.5,409.1l1.6-1.2c0.5-0.4,1-0.8,1.6-1.3l1.5-1.3l1.5-1.3
	l-34.9-40.2l-0.8,0.7l-0.8,0.7l-0.9,0.7l-0.9,0.7l-0.9,0.6l31.3,43.1L397.5,409.1z M360.2,427.8l1.9-0.6l1.9-0.6l1.9-0.7l1.9-0.7
	l-18.4-50l-1,0.4l-1,0.4l-1,0.3c-0.4,0.1-0.7,0.2-1,0.3l-1,0.3l14,51.4L360.2,427.8z M331.5,379l3.2,53.2l2-0.1l-4.3-53.1L331.5,379
	z M339,378.1l-1.1,0.2l8.7,52.6l2-0.3l2-0.4L339.9,378L339,378.1z M335.5,200.7l-2-0.1l-2-0.1l-1.8,53.3h1.1l1.1,0.1l1.1,0.1l1,0.1
	l5.5-53l-2-0.2L335.5,200.7z M330.5,432.5l2-0.1l-2.3-53.2h-1.1L330.5,432.5z M308.9,376.4l-1-0.3l-1-0.4l-1-0.4l-1-0.4l-1-0.4
	l-1-0.4l-1-0.4l-1-0.4l-1-0.5l-23.5,47.9l1.8,0.9l1.8,0.8l1.8,0.8l1.8,0.8l1.9,0.8l1.9,0.7l1.9,0.7l1.9,0.7l1.9,0.6
	c0.6,0.2,1.3,0.4,1.9,0.6l15-51.2C309.6,376.6,309.3,376.5,308.9,376.4L308.9,376.4z M132.9,459l-43,31.5c1,1.4,2.1,2.8,3.2,4.2
	l42.4-32.2C134.6,461.4,133.7,460.2,132.9,459z M121.3,441.8l-45.5,27.7c0.9,1.5,1.8,2.9,2.7,4.3l45-28.5
	C122.8,444.2,122.1,443,121.3,441.8z M125.8,448.9l-44.5,29.2c1,1.5,1.9,2.9,2.9,4.3l44-30C127.4,451.3,126.6,450.1,125.8,448.9
	L125.8,448.9z M213.1,298.1l52.5,8.4c0.1-0.4,0.1-0.7,0.2-1.1l-52.4-9.4C213.3,296.8,213.2,297.4,213.1,298.1z M298,371.8l-0.9-0.5
	l-25.9,46.6l1.7,1L298,371.8z M212.1,306c-0.1,0.6-0.1,1.3-0.2,1.9s-0.1,1.4-0.1,2l53.1,3c0-0.4,0.1-0.7,0.1-1.1s0-0.7,0.1-1
	s0.1-0.7,0.1-1.1l-52.8-5.8C212.2,304.7,212.2,305.4,212.1,306z M143.2,472.2l-40.7,34.4c1.1,1.3,2.2,2.5,3.3,3.8l40.1-35.1
	C145,474.3,144.1,473.3,143.2,472.2z M279.7,356.9l-0.7-0.8l-0.6-0.8l-0.7-0.9l-0.7-0.9l-0.6-0.9c-0.2-0.3-0.4-0.6-0.6-0.9l-0.6-0.9
	l-0.6-0.9c-0.2-0.3-0.4-0.6-0.6-0.9s-0.4-0.6-0.5-0.9L227.5,375c0.3,0.6,0.7,1.1,1,1.7s0.7,1.1,1.1,1.7s0.7,1.1,1.1,1.7
	s0.8,1.1,1.1,1.7s0.7,1.1,1.1,1.6s0.8,1,1.1,1.6s0.8,1.1,1.2,1.7s0.8,1.1,1.2,1.6l1.2,1.5c0.4,0.5,0.9,1.1,1.3,1.6L279.7,356.9z
	 M138,465.8l-41.8,33c1,1.3,2,2.5,3.1,3.8l41.3-33.6C139.7,467.9,138.8,466.9,138,465.8z M358.7,555.7c-1.4,0.2-2.8,0.3-4.1,0.5
	s-2.7,0.3-4.1,0.4l5,53c1.7-0.2,3.3-0.3,5-0.5s3.4-0.4,5.1-0.6s3.4-0.5,5-0.7l-7.8-52.7C361.4,555.3,360,555.5,358.7,555.7z
	 M436.2,357l-49.8-18.6c-0.1,0.3-0.3,0.7-0.4,1s-0.3,0.7-0.4,1s-0.3,0.7-0.4,1l-0.4,1c-0.1,0.3-0.3,0.7-0.4,1l48.1,22.8
	c0.3-0.6,0.6-1.2,0.8-1.8s0.5-1.2,0.8-1.8s0.5-1.2,0.8-1.8s0.5-1.3,0.8-1.9S435.9,357.6,436.2,357z M540,431
	c-0.7,1.2-1.4,2.5-2.1,3.7l46.4,26.1c0.8-1.5,1.7-3,2.5-4.6L540,431z M304.8,610.1c1.7,0.1,3.4,0.2,5,0.3l3.2-53.2
	c-1.4-0.1-2.8-0.2-4.1-0.3L304.8,610.1z M166.4,496c-1-0.9-2.1-1.9-3.1-2.8c-1-1-2-1.9-3-2.9s-2-1.9-2.9-2.9l-0.4-0.4
	c-0.9-0.9-1.7-1.8-2.6-2.6s-1.9-2-2.9-3s-1.9-2-2.8-3.1l-39.5,35.7c1.1,1.3,2.3,2.5,3.5,3.7s2.3,2.5,3.5,3.7s2.1,2.2,3.1,3.2
	l0.5,0.5c1.2,1.2,2.4,2.3,3.6,3.5c1.2,1.2,2.5,2.3,3.7,3.5c1.2,1.1,2.5,2.3,3.8,3.4s2.5,2.3,3.8,3.4s2.5,2.2,3.8,3.2l34.2-40.8
	c-1-0.9-2.1-1.8-3.1-2.6S167.4,497,166.4,496z M324.9,379.1l-1.1-0.1l-1.1-0.1l-1.1-0.1l-1.1-0.1l-1.1-0.1l-1.1-0.1l-1-0.2l-1.1-0.2
	l-1.1-0.2l-1-0.2l-11.4,52.1l1.9,0.4l2,0.4l2,0.3l1.9,0.3l2,0.3l2,0.2l2,0.2l2,0.2l2,0.1l2,0.1L324.9,379.1z M333.8,557.6
	c-1.4,0-2.7,0-4.1,0h-2.1l0,0h-2.1l-0.4,53.3c0.9,0,1.7,0,2.6,0s1.7,0,2.6,0c1.7,0,3.4,0,5-0.1s3.4-0.1,5-0.2l-2.3-53.2
	C336.5,557.5,335.2,557.6,333.8,557.6L333.8,557.6z M222,364.4c0.3,0.6,0.6,1.2,0.9,1.8s0.6,1.2,0.9,1.8s0.6,1.2,0.9,1.8l47.2-24.5
	l-0.5-1c-0.2-0.3-0.3-0.6-0.5-1s-0.3-0.6-0.4-1s-0.3-0.6-0.4-1s-0.3-0.6-0.4-1l-49.2,20.4c0.3,0.6,0.5,1.2,0.8,1.8
	C221.4,363.1,221.7,363.8,222,364.4z M256.2,407.9l1.6,1.2l1.6,1.2l1.7,1.2l1.6,1.1l1.6,1.1c0.6,0.4,1.1,0.7,1.7,1.1l1.7,1
	l27.5-45.6l-0.9-0.6l-0.9-0.6c-0.3-0.2-0.6-0.4-0.9-0.6s-0.6-0.4-0.9-0.6l-0.9-0.6l-0.9-0.6c-0.3-0.2-0.6-0.5-0.9-0.7l-0.9-0.7
	l-0.8-0.7l-0.8-0.7l-0.8-0.7l-0.8-0.7l-0.8-0.7l-0.8-0.7c-0.3-0.3-0.5-0.5-0.8-0.8l-0.8-0.8c-0.2-0.3-0.5-0.5-0.7-0.8
	s-0.5-0.5-0.7-0.8l-40.1,35l1.3,1.5c0.4,0.5,0.9,1,1.4,1.5s0.9,1,1.4,1.5s0.8,0.9,1.2,1.3l0.2,0.2l1.4,1.4l1.4,1.4l1.5,1.4l1.5,1.3
	l1.5,1.3l1.5,1.3L256.2,407.9z M286.1,269.4l0.8-0.7c0.3-0.2,0.5-0.5,0.8-0.7s0.6-0.4,0.8-0.7l0.9-0.7l0.8-0.6l-31.7-42.8l-1.6,1.2
	l-1.6,1.2l-1.5,1.2c-0.5,0.4-1,0.9-1.6,1.3l-1.5,1.3l-1.5,1.3l35.9,39.3L286.1,269.4z M246.5,233.6l-0.9,0.9L245,235
	c-0.5,0.5-0.9,0.9-1.4,1.4s-0.9,1-1.4,1.5l-1.3,1.5l39.8,35.4l0.7-0.8l0.7-0.8l0.7-0.8l0.8-0.8l0.8-0.7l-36.6-38.7L246.5,233.6z
	 M235.9,245.5c-0.4,0.5-0.8,1-1.2,1.6s-0.8,1.1-1.2,1.7l-1.1,1.6c-0.4,0.6-0.8,1.1-1.1,1.7c-0.4,0.6-0.7,1.1-1.1,1.6
	c-0.4,0.6-0.7,1.1-1.1,1.7s-0.7,1.1-1,1.7s-0.7,1.2-1.1,1.8l46.2,26.5c0.2-0.3,0.4-0.7,0.6-1l0.6-0.9l0.6-0.9
	c0.2-0.3,0.4-0.6,0.6-0.9s0.4-0.6,0.6-0.9l0.6-0.9c0.2-0.3,0.4-0.6,0.6-0.9s0.4-0.6,0.7-0.8l0.6-0.8L237.1,244L235.9,245.5z
	 M326.5,253.7h1.1l0,0v-53.3l0,0h-2h-2l1.8,53.3L326.5,253.7z M307.7,202.1l-1.9,0.4l10,52.4l1-0.2l1.1-0.2l-8.2-52.7L307.7,202.1z
	 M322.2,254l1.1-0.1l1.1-0.1l-2.8-53.2l-2,0.1l-2,0.1l-2,0.2l5.5,53L322.2,254z M266.9,217.6l-1.7,1.1l-1.6,1.1l-1.7,1.1l-1.6,1.1
	l30.9,43.4l0.9-0.6l0.9-0.6l0.9-0.6l0.9-0.6l0.9-0.5l0.9-0.5c0.3-0.2,0.6-0.4,1-0.5l0.9-0.5l-24.7-47.2l-1.7,0.9l-1.8,1l-1.7,1
	L266.9,217.6z M302.4,259l1-0.4l1-0.4l1-0.4l1-0.4l1-0.4l1-0.4l1-0.3l-15.4-51l-1.9,0.6l-1.9,0.6l-1.9,0.7l-1.9,0.7l-1.9,0.7
	l-1.8,0.8l-1.8,0.8l-1.8,0.8l22.2,48.5L302.4,259z M320,254.2l-6.4-52.9l-2,0.3l7.3,52.8L320,254.2z M214.6,290.2l51.8,12
	c0.1-0.4,0.2-0.7,0.2-1l-51.6-12.9C215,288.9,214.8,289.5,214.6,290.2L214.6,290.2z M267.4,334.3c-0.1-0.4-0.2-0.7-0.3-1l-51.2,14.2
	c0.2,0.7,0.4,1.3,0.6,1.9c0.2,0.6,0.4,1.3,0.6,1.9s0.4,1.3,0.6,1.9l50.4-16.9c-0.1-0.4-0.2-0.7-0.4-1S267.5,334.6,267.4,334.3
	L267.4,334.3z M216.7,282.5l50.8,15.6c0.1-0.3,0.2-0.6,0.3-1l-50.6-16.4C217.1,281.3,216.9,281.9,216.7,282.5z M223.2,265.8
	c-0.3,0.6-0.6,1.2-0.9,1.8s-0.6,1.2-0.8,1.8s-0.5,1.2-0.8,1.8l49,20.7c0.1-0.3,0.3-0.6,0.4-1s0.3-0.6,0.4-1s0.3-0.7,0.5-1
	s0.3-0.6,0.5-1l-47.5-24C223.8,264.6,223.5,265.2,223.2,265.8z M213.8,294.2l52.2,10.2c0.1-0.3,0.1-0.7,0.2-1l-52-11.1
	C214.1,292.9,213.9,293.5,213.8,294.2z M254.6,150c0.9-0.4,1.9-0.8,2.8-1.2l2.9-1.2c1-0.4,2-0.8,3-1.1s1.9-0.7,2.9-1.1s2-0.7,2.9-1
	l-17.1-50.5c-1.3,0.4-2.5,0.9-3.8,1.3s-2.5,0.9-3.8,1.4s-2.6,1-3.8,1.5s-2.5,1-3.7,1.5s-2.5,1-3.7,1.6s-2.4,1.1-3.6,1.6l22.2,48.4
	C252.7,150.8,253.7,150.4,254.6,150z M243.3,155.4c0.9-0.5,1.8-1,2.8-1.4c0.9-0.5,1.9-0.9,2.9-1.4l-23.1-48
	c-1.2,0.6-2.5,1.2-3.7,1.8s-2.4,1.2-3.6,1.8s-2.4,1.2-3.5,1.9l25.5,46.8C241.5,156.4,242.4,155.9,243.3,155.4z M209.7,519.8
	c1.2,0.7,2.4,1.4,3.6,2l25.9-46.6c-0.9-0.5-1.9-1-2.8-1.6L209.7,519.8z M164.6,485.8c1,0.9,2,1.9,3,2.8l36.2-39
	c-0.8-0.7-1.5-1.4-2.3-2.1L164.6,485.8z M148.1,468.2c0.9,1,1.7,2,2.6,3c0.9,1,1.8,2,2.6,3s1.8,2,2.8,3s1.9,2,2.8,2.9s1.9,2,2.9,3
	l37.6-37.7L199,445c-0.6-0.6-1.3-1.3-1.9-2s-1.4-1.5-2.2-2.3s-1.4-1.5-2.1-2.3s-1.4-1.5-2-2.3s-1.3-1.5-2-2.3s-1.4-1.6-2.1-2.5
	L145.4,465C146.3,466.1,147.2,467.1,148.1,468.2L148.1,468.2z M128.9,442c0.7,1.1,1.5,2.3,2.2,3.4s1.5,2.3,2.3,3.4l44-30
	c-0.6-0.9-1.2-1.8-1.8-2.7c-0.6-0.9-1.2-1.8-1.7-2.6c-0.6-0.9-1.1-1.8-1.7-2.7s-1.1-1.8-1.6-2.7l-45.9,26.9c0.7,1.1,1.3,2.3,2,3.5
	S128.1,440.9,128.9,442z"/>
<path class="st1" d="M453.6,447.5l36.9,38.4c1-0.9,1.9-1.8,2.8-2.8l-37.5-37.7C455,446,454.3,446.7,453.6,447.5z"/>
<path class="st1" d="M472.3,426.5c-0.6,0.8-1.3,1.7-1.9,2.5s-1.3,1.6-1.9,2.4l41.2,33.7c0.8-1,1.6-2,2.5-3s1.7-2.2,2.5-3.2
	s1.7-2.2,2.5-3.4L474.2,424C473.6,424.8,472.9,425.6,472.3,426.5z"/>
<path class="st1" d="M476,421.4l43.5,30.7c0.8-1.1,1.5-2.2,2.2-3.2l-44-30C477.2,419.7,476.6,420.6,476,421.4z"/>
<path class="st1" d="M482.9,410.9c-0.5,0.9-1.1,1.8-1.7,2.7s-1.1,1.8-1.7,2.6l44.5,29.2c0.7-1.1,1.5-2.3,2.2-3.4
	c0.7-1.1,1.5-2.3,2.2-3.5s1.4-2.3,2-3.5l-45.9-26.9C484,409.1,483.5,410,482.9,410.9z"/>
<path class="st1" d="M491.8,394.4c-0.5,0.9-0.9,1.9-1.4,2.8s-1,1.9-1.4,2.8s-0.9,1.8-1.4,2.7l46.8,25.2c0.6-1.2,1.2-2.3,1.8-3.5
	s1.2-2.4,1.8-3.7s1.2-2.4,1.8-3.6s1.2-2.4,1.7-3.7l-48.4-22C492.7,392.5,492.3,393.5,491.8,394.4z"/>
<path class="st1" d="M500,374.2c-0.3,1-0.6,1.9-1,2.8s-0.7,2-1.1,3s-0.7,1.9-1.1,2.9s-0.8,2-1.2,3l49.2,20.3
	c0.5-1.3,1.1-2.6,1.6-3.9s1-2.5,1.4-3.7s1-2.6,1.4-3.9s0.9-2.4,1.3-3.7s0.8-2.6,1.3-3.9l-50.7-16C500.6,372.2,500.3,373.2,500,374.2
	z"/>
<path class="st1" d="M506.3,349.8c-0.2,1.1-0.4,2.1-0.6,3.2s-0.4,2-0.6,3l51.9,11.6c0.3-1.3,0.6-2.6,0.8-3.9s0.5-2.8,0.8-4.1
	s0.5-2.6,0.7-3.9l-52.4-8.9C506.6,347.8,506.5,348.8,506.3,349.8z"/>
<path class="st1" d="M508.5,334.4c-0.1,1.1-0.2,2.1-0.4,3.2s-0.2,2-0.4,3l52.7,7.1c0.2-1.3,0.3-2.6,0.5-3.9s0.3-2.8,0.5-4.1
	s0.2-2.6,0.3-3.9l-53-4.4C508.6,332.4,508.6,333.4,508.5,334.4z"/>
<path class="st1" d="M509,328.2l53,3.4c0.1-1.4,0.2-2.8,0.2-4.1l-53-2.5C509.1,326,509,327.1,509,328.2z"/>
<path class="st1" d="M562.5,315.5l-53.1,0.2c0,0.2,0,0.5,0,0.7c0,0.8,0,1.5,0,2.3l53.1,0.7c0-1,0-2,0-3
	C562.5,316.1,562.5,315.9,562.5,315.5z"/>
<path class="st1" d="M475.1,210.3c0.6,0.8,1.2,1.7,1.8,2.5s1.2,1.8,1.8,2.6s1.1,1.7,1.7,2.5s1.1,1.8,1.7,2.6s1.1,1.8,1.6,2.7
	s1.1,1.9,1.7,2.8s1,1.8,1.5,2.7s1,1.8,1.5,2.7s1,1.9,1.5,2.8s0.9,1.9,1.4,2.8s0.9,1.9,1.4,2.9s0.9,1.9,1.3,2.8s0.8,1.9,1.2,2.8
	l49-20.7c-0.5-1.2-1.1-2.4-1.6-3.7s-1.1-2.4-1.7-3.6s-1.2-2.5-1.8-3.7s-1.2-2.4-1.8-3.6s-1.3-2.4-1.9-3.6s-1.2-2.3-1.9-3.5
	s-1.3-2.3-1.9-3.5s-1.4-2.4-2.1-3.6s-1.4-2.3-2.1-3.5s-1.4-2.3-2.1-3.4s-1.4-2.2-2.2-3.3s-1.5-2.3-2.3-3.4s-1.5-2.2-2.3-3.2
	s-1.6-2.3-2.5-3.4s-1.6-2.1-2.5-3.2l-42.1,32.6c0.6,0.8,1.3,1.6,1.9,2.5S474.5,209.4,475.1,210.3z"/>
<path class="st1" d="M500.5,260.3c0.3,0.9,0.6,1.9,0.9,2.8s0.6,2,0.9,3s0.6,2,0.8,3s0.5,2,0.8,3s0.5,2,0.7,3s0.5,2.1,0.7,3.2
	l52-11.1c-0.3-1.4-0.6-2.8-0.9-4.1s-0.6-2.6-1-3.9s-0.7-2.6-1-3.9s-0.7-2.6-1.1-3.9s-0.8-2.6-1.2-3.9s-0.8-2.4-1.2-3.7
	s-0.8-2.6-1.3-3.9l-50.3,17.3C499.9,258.3,500.2,259.3,500.5,260.3z"/>
<path class="st1" d="M507.5,290.7c0.1,1.1,0.3,2.1,0.4,3.2s0.2,2,0.3,3l52.8-5.7c-0.1-1.3-0.3-2.6-0.5-3.9s-0.4-2.8-0.5-4.1
	s-0.4-2.6-0.6-3.9l-52.5,8.4C507.2,288.7,507.4,289.7,507.5,290.7z"/>
<path class="st1" d="M509.2,309.4c0,1.1,0.1,2.1,0.1,3.2l53.1-1.1c0-1.4-0.1-2.8-0.1-4.1s-0.1-2.6-0.2-3.9l-53.1,3
	C509.1,307.3,509.1,308.4,509.2,309.4z"/>
<path class="st1" d="M503,318.7c0-0.7,0-1.5,0-2.2c0-0.2,0-0.5,0-0.7c0-1,0-2.1,0-3.1c0-1-0.1-2.1-0.1-3.1l-53.2,2.1
	c0,0.7,0,1.4,0.1,2.2s0,1.4,0,2.1c0,0.2,0,0.3,0,0.5c0,0.5,0,1,0,1.5c0,0.7,0,1.4,0,2.1l53.3,1.6C503,320.7,503,319.7,503,318.7z"/>
<path class="st1" d="M502.4,330.9c0.1-1,0.1-2.1,0.2-3.1s0.1-2,0.2-3.1l-53.2-2.5c0,0.7-0.1,1.4-0.1,2.1s-0.1,1.4-0.1,2.2
	s-0.1,1.4-0.2,2l53,5.2C502.3,332.8,502.4,331.8,502.4,330.9z"/>
<path class="st1" d="M501.5,339.8c0.1-1,0.2-1.9,0.4-2.9l-52.9-6.2c-0.1,0.7-0.2,1.4-0.2,2s-0.2,1.4-0.3,2.1l52.7,8
	C501.2,341.8,501.4,340.8,501.5,339.8z"/>
<path class="st1" d="M448.5,299.1c0.1,0.7,0.2,1.4,0.3,2.1s0.2,1.4,0.2,2l53-5.7c-0.1-1-0.2-1.9-0.3-2.9c-0.1-1-0.3-2.1-0.4-3.1
	s-0.3-1.9-0.4-2.9s-0.3-2.1-0.5-3.1l-52.5,9.4c0.1,0.7,0.2,1.4,0.4,2.1S448.4,298.5,448.5,299.1z"/>
<path class="st1" d="M497.8,273.8c-0.2-1-0.5-2-0.8-2.9c-0.3-1-0.5-2-0.8-2.9s-0.6-2-0.9-2.9l-51,15.6c0.2,0.7,0.4,1.3,0.6,2
	c0.2,0.7,0.4,1.4,0.6,2s0.4,1.4,0.5,2s0.3,1.3,0.5,2s0.3,1.4,0.5,2.1l52.1-11.1c-0.2-1-0.4-2.1-0.7-3.1S498,274.8,497.8,273.8z"/>
<path class="st1" d="M496.7,363.4c0.3-1,0.5-1.9,0.8-2.9s0.5-2,0.7-2.9s0.5-1.9,0.7-2.9s0.4-1.9,0.6-2.9s0.4-2,0.6-3.1
	s0.4-2,0.5-2.9l-52.6-8.9c-0.1,0.7-0.2,1.3-0.4,2c-0.1,0.7-0.3,1.4-0.4,2.2s-0.3,1.4-0.4,2s-0.3,1.4-0.5,2s-0.3,1.4-0.5,2
	s-0.4,1.4-0.5,2s-0.4,1.4-0.6,2l51.1,15.1C496.1,365.4,496.4,364.4,496.7,363.4z"/>
<path class="st1" d="M441.7,272.8c0.2,0.6,0.5,1.3,0.7,1.9s0.5,1.4,0.7,2l50.4-17.3c-0.3-1-0.7-1.9-1-2.9c-0.3-0.9-0.7-1.9-1-2.8
	s-0.7-1.9-1.1-2.9s-0.8-1.9-1.1-2.8s-0.8-1.8-1.2-2.7l-48.7,21.6c0.3,0.6,0.6,1.3,0.8,1.9s0.5,1.3,0.8,1.9S441.4,272.1,441.7,272.8z
	"/>
<path class="st1" d="M491,380.6c0.4-0.9,0.7-1.9,1-2.8s0.7-1.9,1-2.9s0.6-1.8,1-2.7s0.6-1.9,0.9-2.9l-50.9-16
	c-0.2,0.7-0.4,1.3-0.6,2c-0.2,0.6-0.4,1.3-0.7,1.9s-0.5,1.4-0.7,2s-0.5,1.3-0.7,1.9s-0.5,1.3-0.8,2l49.3,20.4
	C490.2,382.5,490.6,381.6,491,380.6z"/>
<path class="st1" d="M484.1,237.1c-0.5-0.9-0.9-1.8-1.4-2.7s-0.9-1.7-1.4-2.6s-1-1.7-1.4-2.6s-1.1-1.8-1.6-2.7l-45.8,27.3
	c0.4,0.6,0.8,1.3,1.1,1.9c0.4,0.6,0.7,1.2,1,1.8s0.6,1.2,1,1.8s0.7,1.2,1,1.9s0.6,1.3,0.9,1.9l48-23.3
	C485.1,238.9,484.6,238,484.1,237.1z"/>
<path class="st2" d="M157.5,154.2L196,191c0.7-0.7,1.4-1.5,2.2-2.2l-37.9-37.4C159.3,152.3,158.4,153.2,157.5,154.2z M139.3,175.8
	l42.6,31.9c0.6-0.8,1.3-1.6,1.9-2.5s1.2-1.6,1.9-2.4s1.3-1.6,2-2.5s1.4-1.6,2.1-2.4l-40.4-34.7c-0.9,1.1-1.8,2.1-2.7,3.2
	c-0.9,1-1.7,2.1-2.6,3.2s-1.6,2-2.4,3.1S140.1,174.7,139.3,175.8z M134.5,182.4l43.7,30.4c0.6-0.8,1.2-1.7,1.8-2.5l-43.2-31.1
	C136,180.2,135.3,181.3,134.5,182.4L134.5,182.4z M130,189.1c-0.7,1.1-1.4,2.3-2.1,3.4l45.2,28.1c0.6-0.9,1.1-1.8,1.6-2.6
	s1.1-1.7,1.7-2.6l-44.2-29.6C131.4,186.9,130.7,188,130,189.1z M117.9,210.2c-0.6,1.2-1.2,2.4-1.8,3.6l47.9,23.2
	c0.5-0.9,0.9-1.9,1.4-2.8c0.5-0.9,1-1.9,1.5-2.8l-47-24.9C119.2,207.8,118.5,209,117.9,210.2z M112.7,221.2
	c-0.5,1.2-1.1,2.4-1.6,3.7s-1,2.5-1.5,3.7l49.3,19.9c0.4-1,0.8-1.9,1.2-2.9s0.8-1.9,1.2-2.8s0.9-1.9,1.3-2.8l-48.3-22.4
	C113.8,218.8,113.2,220,112.7,221.2L112.7,221.2z M106.7,236.1c-0.5,1.3-0.9,2.6-1.4,3.9c-0.4,1.3-0.9,2.6-1.3,3.9l50.6,16.4
	c0.3-1,0.7-2,1-3s0.7-2,1.1-3s0.7-1.9,1.1-2.9l-49.7-19C107.6,233.7,107.1,234.9,106.7,236.1L106.7,236.1z M153.7,263.1l-50.8-15.5
	c-0.4,1.3-0.8,2.6-1.2,3.9l51.1,14.7C153.1,265.2,153.4,264.2,153.7,263.1L153.7,263.1z M99.6,259.3l51.6,12.9c0.3-1,0.5-2,0.8-3
	l-51.3-13.8C100.3,256.7,99.9,258,99.6,259.3z M149.1,281.5c0.2-1,0.4-2,0.6-3l-52-11.1c-0.3,1.3-0.5,2.6-0.8,3.9
	c-0.2,1.3-0.5,2.6-0.7,3.9l52.3,9.3C148.7,283.5,148.9,282.5,149.1,281.5z M423.8,530.9l-21.8-48.6c-0.9,0.4-1.9,0.8-2.8,1.2l21,49
	C421.3,532,422.5,531.4,423.8,530.9z M397.3,540.9c1.3-0.4,2.5-0.8,3.8-1.2L384.4,489c-1,0.3-1.9,0.6-2.9,0.9s-2,0.6-3,0.9
	l14.9,51.2C394.7,541.7,396,541.3,397.3,540.9L397.3,540.9z M385.6,544.2c1.3-0.3,2.6-0.7,3.9-1l-14.1-51.4c-1,0.3-2,0.5-3,0.8
	s-2,0.5-3,0.7l12.3,51.9C383,544.8,384.3,544.5,385.6,544.2L385.6,544.2z M501.9,368.2l51,15.1c0.4-1.3,0.8-2.6,1.1-3.9l-51.2-14.2
	C502.5,366.1,502.2,367.1,501.9,368.2L501.9,368.2z M456.9,188.8c0.7,0.7,1.4,1.4,2.1,2.2s1.4,1.5,2.1,2.3s1.4,1.5,2.1,2.3
	s1.4,1.5,2,2.3s1.4,1.6,2.1,2.4l41-34c-0.9-1.1-1.8-2.1-2.7-3.2c-0.9-1-1.8-2-2.6-3s-1.8-2-2.7-3s-1.8-2-2.8-3s-1.9-1.9-2.8-2.9
	s-2-2-2.9-2.9l-37.2,38.1c0.5,0.5,1,0.9,1.5,1.4L456.9,188.8z M180,221.4l44.8,28.9c0.4-0.6,0.7-1.2,1.1-1.7l-44.3-29.6
	C181.1,219.7,180.5,220.5,180,221.4z M220.8,177.2l32.3,42.2l1.6-1.2l-31.6-42.8C222.4,176,221.6,176.6,220.8,177.2L220.8,177.2z
	 M168.3,242.6c-0.4,0.9-0.8,1.8-1.2,2.7l48.7,21.6c0.3-0.6,0.6-1.3,0.9-1.9c0.3-0.6,0.6-1.3,0.9-1.9l-48-23.3
	C169.2,240.7,168.7,241.6,168.3,242.6L168.3,242.6z M212.6,274.7c0.2-0.6,0.5-1.3,0.7-1.9l-49.8-19.1c-0.4,0.9-0.7,1.8-1,2.8
	s-0.7,1.9-1,2.9l50.4,17.4C212.2,276,212.4,275.4,212.6,274.7L212.6,274.7z M210.6,280.7l-51-15.6c-0.3,1-0.6,1.9-0.9,2.9l51.2,14.7
	C210.3,282,210.5,281.3,210.6,280.7L210.6,280.7z M209.5,284.8L158,270.9c-0.3,1-0.5,1.9-0.8,2.9l51.7,13
	C209.2,286.1,209.3,285.4,209.5,284.8L209.5,284.8z M207.6,293l-52.3-10.3c-0.2,1-0.4,1.9-0.6,2.9l52.5,9.4
	C207.4,294.3,207.5,293.6,207.6,293L207.6,293z M206.3,301.3l-52.9-6.6c-0.1,1-0.2,1.9-0.3,2.9l53,5.7
	C206.1,302.7,206.2,302,206.3,301.3L206.3,301.3z M205.8,305.5l-53.1-4.8c-0.1,1-0.2,1.9-0.2,2.9l53.2,3.9
	C205.7,306.8,205.8,306.2,205.8,305.5L205.8,305.5z M152.1,318.7c0,1,0,2.1,0.1,3.1s0.1,1.9,0.1,2.9l53.2-2.5c0-0.7-0.1-1.4-0.1-2
	s0-1.4,0-2.1L152.1,318.7z M214.9,451c0.8,0.7,1.5,1.3,2.3,1.9l33.5-41.4l-1.6-1.4L214.9,451z M244.3,406l-36.2,39
	c0.7,0.7,1.5,1.3,2.2,2l35.6-39.6C245.4,407,244.8,406.5,244.3,406L244.3,406z M238.3,400l-38.8,36.4c0.7,0.7,1.4,1.5,2.1,2.2
	l38.2-37.1C239.3,401.1,238.8,400.5,238.3,400L238.3,400z M383.3,425.3l24.2,47.3c0.9-0.5,1.8-0.9,2.6-1.4s1.8-1,2.6-1.4
	s1.8-1,2.7-1.5s1.7-1,2.6-1.5l-27.4-45.5l-1.8,1.1l-1.9,1.1l-1.8,1L383.3,425.3z M373.8,429.7l-2,0.8L391,480c1-0.4,1.9-0.7,2.9-1.1
	c0.9-0.4,1.9-0.8,2.8-1.1l-20.9-48.8L373.8,429.7z M347.4,437.1l8.6,52.3c1-0.2,2-0.3,3-0.5l-9.5-52.2L347.4,437.1z M478.3,226.5
	c-0.5-0.9-1.1-1.7-1.6-2.6L431.4,252c0.4,0.6,0.7,1.2,1.1,1.8L478.3,226.5z M378.5,205.3l1.9,0.9c0.6,0.3,1.3,0.6,1.9,1l23.8-47.5
	c-0.9-0.5-1.8-0.9-2.8-1.4s-1.9-0.9-2.8-1.3s-1.8-0.8-2.7-1.2l-21.3,48.6L378.5,205.3z M386.7,151.3c-0.9-0.3-1.9-0.7-2.8-1
	l-17,50.3l2,0.7L386.7,151.3z M375.8,276.4l41-34l-1.3-1.6l-40.4,34.7C375.3,275.9,375.6,276.1,375.8,276.4z M282.2,79.5
	c1.3-0.2,2.7-0.5,4-0.7s2.8-0.5,4.1-0.7l-8.2-52.7c-1.7,0.3-3.4,0.5-5,0.8s-3.3,0.6-4.9,0.9s-3.4,0.6-5.1,1l10.9,52.2
	C279.4,80,280.8,79.8,282.2,79.5z M211.7,314l53.1,1.1c0-0.4,0-0.7,0-1.1l-53.1-2.1C211.7,312.6,211.7,313.3,211.7,314z
	 M267.3,299.1l-51.1-14.7c-0.2,0.6-0.4,1.3-0.5,1.9l51.4,13.8C267.1,299.8,267.2,299.5,267.3,299.1L267.3,299.1z M268.6,295
	l-50-18.2c-0.2,0.7-0.5,1.3-0.7,1.9l50.3,17.3C268.4,295.7,268.5,295.4,268.6,295L268.6,295z M269.4,293L220,273.1
	c-0.3,0.6-0.5,1.3-0.8,1.9l49.8,19L269.4,293z M272.1,287.2l-47-24.9c-0.3,0.6-0.6,1.2-0.9,1.8l47.5,24.1
	C271.8,287.8,271.9,287.5,272.1,287.2L272.1,287.2z M437.8,280.7c-0.2-0.6-0.4-1.3-0.6-1.9s-0.4-1.3-0.7-1.9l-50,18.2
	c0.1,0.4,0.2,0.7,0.4,1s0.2,0.7,0.4,1L437.8,280.7z M379,280.7l43.7-30.4c-0.4-0.5-0.7-1.1-1.1-1.6l-43.2,31.1L379,280.7z
	 M279.3,276.4l-41-34c-0.4,0.5-0.9,1-1.3,1.6l41.6,33.3L279.3,276.4z M402.8,228.2l-34.6,40.5l0.8,0.7l35.2-39.9L402.8,228.2z
	 M383.5,288.1L431,264c-0.3-0.6-0.6-1.2-0.9-1.8l-47,24.9L383.5,288.1z M443.4,320l-53.1-1.6c0,0.4,0,0.7,0,1l53.1,2.5
	C443.3,321.2,443.4,320.6,443.4,320z M448.6,525.3c-1.2,0.7-2.5,1.4-3.7,2.1s-2.4,1.3-3.6,2l25.1,47c1.5-0.8,2.9-1.6,4.4-2.4
	c1.5-0.8,3-1.7,4.5-2.5s2.9-1.7,4.3-2.6l-27.5-45.6C450.9,523.9,449.8,524.6,448.6,525.3L448.6,525.3z M430.1,535l22.6,48.2
	c1.6-0.7,3.1-1.5,4.6-2.2l-23.5-47.8C432.6,533.7,431.4,534.3,430.1,535L430.1,535z M494.9,490.4c-1,1-2,1.9-3,2.9s-2,1.9-3.1,2.8
	s-2.1,1.9-3.1,2.8l34.9,40.2c1.3-1.1,2.5-2.2,3.8-3.4s2.5-2.3,3.8-3.4s2.5-2.3,3.7-3.5s2.4-2.3,3.6-3.5l-37.6-37.8
	C496.8,488.5,495.8,489.4,494.9,490.4L494.9,490.4z M469.5,511.7l31.3,43.1c1.3-1,2.7-2,4-2.9l-32-42.5
	C471.6,510,470.6,510.9,469.5,511.7L469.5,511.7z M500.8,484.5l38.2,37c1.2-1.2,2.4-2.4,3.5-3.7l-38.9-36.4
	C502.7,482.5,501.7,483.5,500.8,484.5L500.8,484.5z M422.6,538.3c-1.3,0.5-2.5,1.1-3.8,1.6l20.1,49.3c1.5-0.6,3.1-1.3,4.6-1.9
	s3.1-1.3,4.6-2l-21.8-48.6C425.1,537.2,423.8,537.8,422.6,538.3z M511.9,472.2l40.7,34.4c1.1-1.3,2.2-2.7,3.3-4L514.6,469
	C513.7,470.1,512.8,471.1,511.9,472.2z M391.2,549.2c-1.3,0.4-2.6,0.7-4,1.1l13.2,51.6c1.6-0.4,3.2-0.8,4.9-1.3s3.3-0.9,4.9-1.4
	l-14.9-51.2C393.9,548.5,392.5,548.8,391.2,549.2L391.2,549.2z M264.9,318.4c0-0.4,0-0.7,0-1.1l-53.1,0.7c0,0.7,0,1.4,0,2
	L264.9,318.4z M529.3,448.9c-0.8,1.2-1.6,2.4-2.4,3.5l44,30c1-1.4,1.9-2.9,2.9-4.3s1.9-2.9,2.8-4.3l-45-28.5
	C530.8,446.6,530.1,447.7,529.3,448.9z M561.1,377c-0.3,1.3-0.7,2.7-1.1,4l51.3,14.3c0.5-1.6,0.9-3.2,1.3-4.9s0.8-3.3,1.2-4.9
	L562.1,373C561.8,374.4,561.5,375.7,561.1,377z M563.9,365c-0.3,1.3-0.6,2.7-0.9,4l52,11.6c0.4-1.6,0.7-3.2,1.1-4.9s0.7-3.5,1-5.2
	l-52.4-9.8C564.5,362.2,564.2,363.6,563.9,365L563.9,365z M565.4,356.8l52.5,8.9c0.3-1.6,0.5-3.3,0.8-4.9l-52.7-8
	C565.9,354.1,565.7,355.4,565.4,356.8L565.4,356.8z M568.3,332c-0.1,1.4-0.2,2.8-0.3,4.2s-0.2,2.7-0.4,4s-0.3,2.8-0.5,4.2l52.9,6.2
	c0.2-1.7,0.4-3.5,0.6-5.2s0.3-3.2,0.4-4.9s0.3-3.5,0.4-5.2L568.3,332z M519.7,462.5l42.4,32.2c1.1-1.4,2.1-2.8,3.2-4.2l-43-31.5
	C521.4,460.2,520.6,461.4,519.7,462.5L519.7,462.5z M557.7,389c-0.4,1.3-0.9,2.7-1.3,4c-0.4,1.3-0.9,2.5-1.3,3.8s-1,2.7-1.4,4
	l49.9,18.6c0.6-1.6,1.2-3.2,1.8-4.9c0.5-1.5,1.1-3.1,1.6-4.6s1.1-3.2,1.6-4.9s1-3.2,1.5-4.9L558.9,385
	C558.5,386.4,558.1,387.7,557.7,389L557.7,389z M375,553c-1.4,0.3-2.7,0.5-4.1,0.8s-2.8,0.5-4.1,0.7l8.7,52.6c1.7-0.3,3.4-0.5,5-0.8
	s3.4-0.6,5-1s3.3-0.7,4.9-1l-11.3-52C377.7,552.5,376.4,552.8,375,553z M547.3,416.2c-0.6,1.3-1.2,2.5-1.8,3.8s-1.2,2.5-1.8,3.7
	s-1.3,2.5-1.9,3.8l47.3,24.5c0.8-1.5,1.6-3,2.3-4.6s1.5-3.1,2.2-4.6c0.7-1.5,1.5-3.1,2.2-4.6s1.4-3.1,2-4.6L549,412.4
	C548.5,413.6,547.9,414.9,547.3,416.2z M399.2,546.9l15.8,50.9c1.6-0.5,3.1-1,4.7-1.5L403,545.7
	C401.8,546.1,400.5,546.5,399.2,546.9z M328.1,379.2l0.5,53.3h2l-1.4-53.3H328.1z M234.5,93.8c1.3-0.5,2.5-1.1,3.8-1.6l-19.7-49.5
	c-1.6,0.6-3.1,1.3-4.7,1.9c-1.6,0.7-3.1,1.3-4.6,2l21.4,48.8C231.9,94.9,233.2,94.3,234.5,93.8z M197.7,113c1.2-0.8,2.4-1.5,3.6-2.2
	l-27.9-45.4c-1.5,0.9-2.9,1.8-4.4,2.7s-2.7,1.8-4.1,2.7l29.4,44.4C195.4,114.5,196.5,113.8,197.7,113z M141.8,162.3l-41-34
	c-1.1,1.3-2.2,2.6-3.2,4l41.6,33.3C140.1,164.5,141,163.4,141.8,162.3L141.8,162.3z M184,122.5l-31.7-42.8c-1.3,1-2.6,2-3.9,3
	l32.4,42.3C181.8,124.1,182.9,123.3,184,122.5z M261.9,84.2L247.4,33c-1.6,0.5-3.3,1-4.9,1.4l15.4,51
	C259.2,85,260.5,84.6,261.9,84.2L261.9,84.2z M218.9,357l49.8-18.6c-0.1-0.3-0.2-0.7-0.4-1s-0.2-0.6-0.3-1l-50.4,16.9
	c0.2,0.6,0.4,1.2,0.6,1.8S218.7,356.4,218.9,357z M280.4,357.8l-0.7-0.8L239,391.3l1.3,1.5L280.4,357.8z M226.9,97.1l-22.2-48.4
	c-1.6,0.7-3.1,1.4-4.7,2.2l23.1,48C224.4,98.3,225.7,97.7,226.9,97.1z M295,427.9l1.9,0.5L311,377l-1-0.3L295,427.9z M322.5,22
	c-1.7,0-3.3,0-5,0.1c-1.7,0.1-3.5,0.1-5.2,0.2l2.8,53.2c1.4-0.1,2.8-0.1,4.2-0.2s2.7-0.1,4.1-0.1L322.5,22z M322.5,432.4l2,0.1
	l1.4-53.3h-1.1L322.5,432.4z M298,371.8l-25.1,47l1.8,0.9l24.3-47.4L298,371.8z M134.2,172l-42.7-31.9c-1.1,1.4-2.1,2.8-3.1,4.3
	l43.2,31.1C132.5,174.3,133.4,173.2,134.2,172z M100.8,234l-50.1-18.2c-0.6,1.6-1.2,3.3-1.7,4.9L99.3,238
	C99.8,236.6,100.3,235.3,100.8,234z M138.4,542.3c1.3,1.1,2.6,2.1,3.9,3.2l33.5-41.4c-1.1-0.9-2.1-1.7-3.2-2.6L138.4,542.3z
	 M295.2,370.2l-27.5,45.6l1.7,1l26.7-46.1L295.2,370.2z"/>
<path class="st3" d="M5,492.3v-99.5h23.4c10.8,0,19.3,3.5,25.6,10.4c6.3,6.9,9.5,16.4,9.7,28.5v20.9c0,12.5-3.2,22.2-9.5,29.3
	c-6.4,7-15.3,10.5-26.7,10.5H5z M12.8,400.2v84.9h15.1c8.9,0,15.8-2.7,20.6-8.2c4.9-5.5,7.4-13.3,7.5-23.6v-20.8
	c0-10.2-2.4-18.1-7.1-23.8s-11.6-8.5-20.7-8.5H12.8z"/>
<path class="st3" d="M123,464.5H85.6l-8.5,27.8H69l31.7-99.5h7.3l31.7,99.5h-8.1L123,464.5z M87.9,457.2h32.8l-16.4-53.4L87.9,457.2
	z"/>
<path class="st3" d="M158.1,492.3h-7.8v-99.5h7.8V492.3z"/>
<path class="st3" d="M185.3,485.1h41v7.2h-48.9v-99.5h7.9L185.3,485.1z"/>
<path class="st3" d="M245.2,446.9l24.8-54.1h9l-30,62.1v37.5h-7.8v-37.5l-29.9-62.1h9.2L245.2,446.9z"/>
<path class="st3" d="M35.9,578.5H12.7v41.4H4.8v-99.5h27.3c9.1,0,16.1,2.6,21.1,7.8s7.5,12.4,7.5,21.6c0.1,6-1.5,11.8-4.7,16.9
	c-2.9,4.7-7.3,8.2-12.5,10.1L64.2,619v0.9h-8.3L35.9,578.5z M12.7,571.2h20.8c5.9,0,10.6-2,14.1-6c3.5-4,5.3-9.2,5.3-15.5
	c0-7-1.8-12.4-5.5-16.2s-8.8-5.8-15.3-5.8H12.7L12.7,571.2z"/>
<path class="st3" d="M138.7,619.9h-7.9v-47.7H84.1v47.7h-7.8v-99.5h7.8V565h46.8v-44.7h7.9V619.9z"/>
<path class="st3" d="M179.6,574.5l24.8-54.1h9l-29.9,62.1v37.5h-7.8v-37.5l-29.9-62.1h9.2L179.6,574.5z"/>
<path class="st3" d="M280.5,527.7h-28.3v92.2h-7.9v-92.2h-28.2v-7.4h64.4V527.7z"/>
<path class="st3" d="M353.3,619.9h-7.9v-47.7h-46.8v47.7h-7.8v-99.5h7.8V565h46.8v-44.7h7.9V619.9z"/>
<path class="st3" d="M381.7,520.3l30.1,87.6l30.3-87.6h10.3v99.5h-7.8v-43.1l0.7-43.4l-30.5,86.5h-6l-30.4-86.1l0.7,42.7v43.4h-7.8
	v-99.5H381.7z"/>
<path class="st4" d="M325.7,340c-0.2,0-0.3-0.1-0.4-0.2c-0.1-0.2-0.3-0.4-0.4-0.6c-0.2-0.2-0.2-0.5,0-0.7c0.2-0.2,0.5-0.2,0.7,0
	c0,0,0,0,0,0c0.2,0.2,0.4,0.5,0.5,0.8c0.1,0.2,0,0.5-0.2,0.7C325.9,340,325.8,340,325.7,340z"/>
<path class="st4" d="M332.1,341c-0.1,0.9-0.5,1.7-0.9,2.5c-0.5,0.7-1,1.4-1.6,2c-0.6,0.6-1.2,1.1-1.8,1.6c-0.7,0.5-1.4,0.9-2.2,1.1
	l0,0l-0.3,0.1c-0.2,0.1-0.4,0-0.5-0.2l-3.3-5.3c-0.6-0.9-1.2-1.9-1.5-2.9c-0.2-0.6-0.1-1.2,0.1-1.8c0.2-0.6,0.7-1.2,1.3-1.5
	c0.3-0.1,0.5,0,0.7,0.3s0,0.5-0.3,0.7l0,0l0,0c-0.7,0.4-1,1.3-0.8,2.1c0.3,0.9,0.8,1.8,1.4,2.6l3.3,5.3l-0.8-0.1l0,0
	c0.2-0.9,0.6-1.6,1.2-2.3c0.5-0.6,1.1-1.1,1.8-1.6c0.6-0.5,1.2-1,1.7-1.5s1.1-1,1.7-1.6l0,0c0.2-0.2,0.5-0.2,0.7,0
	C332,340.6,332.1,340.8,332.1,341L332.1,341z"/>
<path class="st4" d="M340.9,347.2c-0.1,0-0.2,0-0.2,0c-2.1-1-2.7-2.5-3.5-4.3c-0.3-0.6-0.5-1.2-0.9-1.9c-0.1-0.2,0-0.5,0.2-0.7
	c0.2-0.1,0.5,0,0.7,0.2c0.4,0.7,0.6,1.3,0.9,2c0.7,1.6,1.3,2.9,3,3.8c0.2,0.1,0.4,0.4,0.2,0.7C341.2,347.1,341,347.2,340.9,347.2
	L340.9,347.2z"/>
<path class="st4" d="M334.1,344.5c-0.3,0-0.5,0-0.8-0.1c-0.7-0.3-1.1-1-1.1-1.7c0-0.9,0.8-1.6,1.7-1.6c0.7,0,1.3,0.5,1.5,1.1
	c0.2,0.4,0.2,0.8,0,1.2v0.1c0.1,0.2,0.1,0.5-0.1,0.7C334.9,344.4,334.5,344.5,334.1,344.5z M333.9,342.1c-0.2,0-0.3,0.1-0.4,0.1
	c-0.2,0.1-0.3,0.3-0.3,0.5c0,0.3,0.2,0.6,0.5,0.8c0.2,0.1,0.5,0.1,0.7,0c0-0.1,0-0.3,0.1-0.4c0.2-0.4,0-0.8-0.4-1c0,0,0,0,0,0
	L333.9,342.1z"/>
<path class="st4" d="M334.2,342.4c1.8,5.4,3.7,10.9,5.5,16.5l1.3,4.2l0.6,2.1c0.3,0.7,0.4,1.5,0.3,2.3c-0.2,0.8-0.6,1.5-1.3,2.1
	c-0.6,0.5-1.2,0.9-1.9,1.2c-1.2,0.6-2.5,1.3-2.9,2.4c-0.1,0.3-0.4,0.4-0.6,0.3c-0.1,0-0.3-0.1-0.3-0.3c-0.7-1.7-2-3.1-3.6-4l0,0l0,0
	c-0.2-0.1-0.2-0.3-0.2-0.5c0.5-1.9,0.8-3.9,1-5.8s0.5-3.9,0.7-5.9s0.4-3.9,0.5-5.9s0.3-4,0.4-5.9l0,0l0.4,0.5
	c-0.4-0.1-0.7-0.3-0.8-0.7c-0.1-0.3-0.1-0.6,0-0.9c0.1-0.2,0.1-0.4,0.2-0.6l0.1-0.3V343c0,0,0-0.1,0.1-0.1
	C333.8,342.7,333.9,342.5,334.2,342.4z M334.2,343.4c0.1,0.1,0.3,0,0.4-0.1c0-0.1,0,0,0,0v0.1l-0.1,0.3c-0.1,0.2-0.1,0.4-0.2,0.5
	c0,0.1,0,0.2,0,0.3c0,0,0,0,0.1,0.1h0.1c0.2,0.1,0.4,0.3,0.3,0.5l0,0c-0.5,1.9-0.8,3.9-1.1,5.8s-0.5,3.9-0.7,5.9s-0.4,3.9-0.5,5.9
	s-0.3,4-0.4,5.9l-0.2-0.5l0,0c1.8,1,3.3,2.6,4.1,4.5H335c0.3-0.8,0.8-1.4,1.5-1.9c0.6-0.4,1.3-0.8,1.9-1.1c1.2-0.6,2.5-1.4,2.7-2.5
	c0.1-0.6,0-1.3-0.3-1.9l-0.6-2l-1.2-4C337.2,354.2,335.8,348.9,334.2,343.4z"/>
<path class="st4" d="M323,339.1c-1.9,0.5-3.8,1-5.7,1.4c-0.9,0.2-2,0.4-2.7,0.7c-0.3,0.1-0.6,0.3-0.8,0.5c-0.2,0.2-0.5,0.5-0.6,0.9
	c-0.4,0.8-0.8,1.7-1.1,2.5c-0.3,0.9-0.6,1.8-1,2.6c-0.2,0.4-0.5,0.8-0.7,1.3c-0.2,0.4-0.4,0.9-0.5,1.4c-0.3,0.9-0.5,1.9-0.7,2.8
	c0,0.3-0.3,0.5-0.6,0.4s-0.5-0.3-0.4-0.6c0.1-1,0.1-2,0.2-3l0.1-1.5c0-0.5,0-1,0.1-1.6c0.2-1,0.5-2,0.9-2.9c0.4-1,0.9-1.9,1.4-2.8
	c0.3-0.5,0.8-1,1.2-1.4c0.5-0.4,1.1-0.7,1.8-0.8c1-0.2,2-0.3,3.1-0.4c2-0.2,3.9-0.3,5.9-0.4c0.3,0,0.5,0.1,0.6,0.4
	C323.5,338.8,323.3,339,323,339.1L323,339.1L323,339.1z"/>
<path class="st4" d="M345.9,337.2c1.1,0,2.1-0.3,3.3-0.4c1.2-0.1,2.5,0.1,3.6,0.5c2.2,0.9,4.2,2.2,5.8,4c0.4,0.5,0.8,1,1.2,1.5
	c0.3,0.5,0.6,1.1,0.8,1.8c0.4,1.2,0.7,2.4,0.8,3.6c0.2,1.1,0.3,2.3,0.3,3.5c0,0.5,0,1.1-0.1,1.6s-0.2,1.1-1.2,1.7l0,0
	c-0.3,0.2-0.7,0.2-1,0c-1-0.5-1.3-1.1-1.3-1.7c0-0.6,0-1.1,0-1.7c0-1.1,0.2-2.2,0.3-3.3c0.1-1,0.1-2-0.2-3c-0.2-0.9-0.7-1.8-1.3-2.6
	c-1.3-1.7-2.9-3-4.8-4c-0.9-0.5-1.9-0.7-2.9-0.7c-1,0-2.2,0.2-3.4,0.1c-0.3,0-0.5-0.2-0.5-0.5S345.6,337.1,345.9,337.2L345.9,337.2z
	"/>
<path class="st4" d="M335.2,341c-3.5,0-7.1-0.4-10.5-1.2c-3.4-0.8-5.4-1.8-7-5.2c-2.8-6-0.8-20.6,4.6-24.9c1.2-0.9,2.6-1.4,4.1-1.7
	c3.9-1,8.8-2.3,13.3-1.1c3.4,0.9,6.1,3.1,8.8,5.5c5.5,4.7,7.9,11.1,6.6,17.1c-0.1,0.3-0.3,0.5-0.6,0.4c-0.3-0.1-0.5-0.3-0.4-0.6
	c1.2-5.7-1.1-11.7-6.2-16.1c-2.6-2.3-5.3-4.4-8.4-5.3c-4.2-1.2-9,0.1-12.8,1.1c-1.3,0.3-2.6,0.8-3.8,1.5c-5,3.9-7,18-4.4,23.7
	c1.4,3.1,3.2,4,6.3,4.7c3.6,0.9,7.4,1.2,11.1,1.2c4.8-0.1,8.4-1,11.2-2.9c3.4-2.3,5.3-6.3,4.5-9.7c-0.1-0.3,0.1-0.5,0.4-0.6
	c0.3-0.1,0.5,0.1,0.6,0.4c0.9,3.8-1.2,8.2-4.9,10.8c-2.9,2-6.8,3-11.7,3L335.2,341z"/>
<path class="st4" d="M326,328.2c-0.2,0-0.4,0-0.6,0c-1.3-0.1-2.5-1-3-2.2h-0.2c-1.7,0-3.2-3.2-3.5-4c-0.1-0.3-0.2-0.5-0.2-0.8
	c-0.1-0.5-0.3-0.9-0.5-1.3c-0.3-0.5-0.9-0.9-1.3-0.7c-0.3,0.1-0.5,0-0.6-0.3c-0.1-0.3,0-0.5,0.3-0.6c1-0.3,2.1,0.2,2.5,1.2
	c0.3,0.5,0.4,1,0.6,1.5c0.1,0.3,0.1,0.5,0.2,0.8c0.3,0.8,0.7,1.6,1.2,2.2c-0.2-1.4,0-2.9,0.6-4.2c0.5-1.4,1.7-2.4,3.1-2.5
	c2.2,0,4.3,1.2,5.5,3.1c1.2,1.6,1.4,3.8,0.4,5.6C329.6,327.3,327.9,328.2,326,328.2z M323.2,321.1h0.1c0.3,0.1,0.4,0.3,0.4,0.6
	c0,0,0,0,0,0c-0.4,1.2-0.5,2.5-0.3,3.7c0.3,1,1.1,1.6,2.1,1.7c1.7,0.2,3.3-0.5,4.2-1.9c0.7-1.5,0.6-3.2-0.4-4.5
	c-1-1.6-2.7-2.6-4.6-2.6c-1.1,0.1-2,0.9-2.3,1.9c-0.8,1.9-0.9,3.3-0.3,4.4c0-1,0.2-2,0.5-2.9C322.8,321.3,323,321.1,323.2,321.1
	L323.2,321.1z"/>
<path class="st4" d="M346,325c-1.7,0.2-3.5,0.1-5.2-0.2c-0.9-0.2-1.8-0.5-2.6-1c-0.8-0.5-1.5-1.2-2.1-2c-0.6-0.8-1-1.9-1.1-2.9
	c0-0.6,0.1-1.3,0.4-1.8c0.2-0.3,0.3-0.5,0.6-0.8c0.2-0.2,0.4-0.4,0.7-0.5c0.9-0.6,2-0.9,3.1-0.8c1,0,2,0.2,2.9,0.6
	c0.9,0.4,1.8,0.9,2.5,1.5c0.4,0.4,0.8,0.8,1.1,1.3c0.3,0.6,0.5,1.2,0.5,1.8c0,2.1-1.2,4-3,5c-0.8,0.5-1.7,0.7-2.7,0.8
	c-0.9,0-1.8-0.3-2.6-0.8c-1.4-1.2-2.2-2.8-2.4-4.7c0-0.3,0.2-0.5,0.4-0.6s0.5,0.2,0.6,0.4c0,0,0,0.1,0,0.1c-0.2,1.6,0.5,3.2,1.8,4.1
	c0.6,0.4,1.4,0.6,2.1,0.5c0.7-0.1,1.4-0.5,1.9-1.1c0.8-1.1,1.2-2.4,1.2-3.8c0-0.2,0-0.4-0.1-0.6c-0.1-0.2-0.3-0.4-0.5-0.6
	c-0.5-0.4-1.1-0.8-1.8-1c-1.3-0.5-2.8-0.7-3.7-0.1c-0.1,0.1-0.2,0.1-0.3,0.2c0,0.1-0.2,0.1-0.2,0.2c-0.1,0.2-0.2,0.4-0.2,0.6
	c0,0.6,0.2,1.2,0.6,1.7c0.4,0.6,0.8,1.1,1.4,1.6c0.6,0.4,1.3,0.8,2,1c1.6,0.4,3.2,0.7,4.8,0.8c0.3,0,0.5,0.2,0.5,0.5
	S346.3,325.1,346,325L346,325z"/>
<path class="st4" d="M333.6,329.4c-1,0-2-0.4-2.6-1.2c-0.3-0.1-0.5-0.3-0.6-0.6c-0.3-1.1,1.4-3.9,2.4-4.5c0.1,0,0.1,0,0.2,0
	c1.7-0.4,3.5,0.7,3.9,2.4c0.4,1.7-0.7,3.5-2.4,3.9c-0.2,0-0.4,0.1-0.5,0.1L333.6,329.4z M331.4,327.2c0.1,0,0.3,0.1,0.3,0.2
	c0.7,1,2.1,1.3,3.1,0.5c1-0.7,1.3-2.1,0.5-3.1c-0.5-0.7-1.3-1-2.1-0.9C332.3,324.8,331.7,326,331.4,327.2L331.4,327.2z"/>
<path class="st4" d="M326.6,329.9c0.6-0.9,1.6-1.5,2.6-1.8l0,0c0.3-0.1,0.5,0.1,0.6,0.4c0,0.1,0,0.2,0,0.3l-1.6,4.1l0,0
	c-0.1,0.1-0.2,0.2-0.3,0.1c-0.1,0-0.2-0.1-0.2-0.2c0.1-1.6,0.8-3,1.9-4.1l0,0c0.2-0.2,0.5-0.2,0.7,0c0.1,0.1,0.1,0.2,0.1,0.4l0,0
	c-0.1,1.2,0,2.3,0.4,3.4h-1l0.7-2.6c0-0.3,0.2-0.5,0.5-0.5s0.5,0.2,0.5,0.5c0.2,0.6,0.5,1.2,0.9,1.8l-0.9,0.1
	c0.2-0.5,0.3-0.9,0.4-1.4l0,0c0-0.3,0.2-0.5,0.5-0.5c0.3,0,0.5,0.2,0.5,0.5c0.1,0.2,0.2,0.3,0.4,0.4l-0.6,0.4l0.2-1l0,0
	c0.1-0.3,0.3-0.4,0.6-0.3c0.1,0,0.2,0.1,0.2,0.2c0.2,0.3,0.4,0.6,0.5,1c0.1,0.3,0.1,0.6,0.2,0.9s0.1,0.6,0.2,0.8
	c0,0.2,0.1,0.4,0.2,0.6l-0.8,0.2c0.1-0.2,0.1-0.5,0.1-0.8l0.1-0.8c0-0.3,0.1-0.6,0.1-0.8c0-0.2,0-0.4,0-0.6
	c-0.2-0.2-0.1-0.5,0.1-0.7c0.2-0.2,0.5-0.1,0.7,0.1l0,0l0.8,0.8l-0.8,0.2c0.1-0.4,0.2-0.9,0.1-1.3l0,0c0-0.3,0.2-0.5,0.5-0.5
	c0.1,0,0.3,0,0.4,0.1c0.5,0.5,1,1.1,1.4,1.7c0.3,0.5,0.7,1,1.2,1.3l-0.7,0.5l-0.2-1.7c0-0.3-0.1-0.6-0.1-0.8c0-0.2-0.1-0.5-0.2-0.7
	l0,0c-0.1-0.3,0-0.5,0.3-0.6c0.2-0.1,0.5,0,0.6,0.2c0.2,0.4,0.6,0.8,1.1,0.9l-0.5,0.7l-1.2-2.6c-0.1-0.3,0-0.5,0.2-0.7
	c0.2-0.1,0.4-0.1,0.5,0.1l3.3,2.4c0.2,0.2,0.3,0.5,0.1,0.7c-0.2,0.2-0.5,0.3-0.7,0.1l0,0l-3.3-2.4l0.8-0.6l1.2,2.6
	c0.1,0.3,0,0.5-0.2,0.7c-0.1,0-0.2,0.1-0.3,0c-0.8-0.1-1.5-0.7-1.9-1.4l0.9-0.4c0.1,0.3,0.2,0.6,0.3,0.9c0.1,0.3,0.1,0.6,0.1,0.9
	l0.2,1.7l0,0c0,0.3-0.1,0.5-0.4,0.6c-0.1,0-0.2,0-0.3-0.1c-0.4-0.2-0.7-0.5-0.9-0.8c-0.2-0.3-0.5-0.6-0.7-0.9
	c-0.4-0.5-0.8-1.1-1.2-1.5l0.8-0.4c0,0.5,0,1.1-0.2,1.6c-0.1,0.3-0.3,0.4-0.6,0.4c-0.1,0-0.2-0.1-0.2-0.1l-0.8-0.8l0.8-0.6
	c0.1,0.2,0.1,0.4,0.1,0.6c0,0.2,0,0.3,0,0.5c0,0.3,0,0.6-0.1,0.9l-0.1,0.9c0,0.3-0.1,0.6-0.2,0.9l0,0c-0.1,0.3-0.3,0.4-0.6,0.4
	c-0.1,0-0.2-0.1-0.3-0.2c-0.2-0.3-0.4-0.6-0.5-1c-0.1-0.3-0.1-0.6-0.2-0.9s-0.1-0.6-0.2-0.8c0-0.2-0.1-0.4-0.2-0.6l0.8-0.2l-0.2,1
	c-0.1,0.3-0.3,0.4-0.6,0.4l0,0c-0.5-0.2-0.8-0.5-1-1l1-0.1c-0.1,0.6-0.2,1.1-0.5,1.7c-0.1,0.3-0.4,0.4-0.7,0.3
	c-0.1,0-0.2-0.1-0.2-0.2c-0.4-0.6-0.8-1.3-1-2h1l-0.7,2.6c0,0.3-0.2,0.5-0.5,0.5s-0.5-0.2-0.5-0.5c-0.4-1.2-0.6-2.6-0.4-3.9l0.8,0.4
	l0,0c-1.1,0.8-1.9,2-2.1,3.4l-0.5-0.1l0,0l1.2-4.2l0.6,0.6l0,0c-0.8,0.2-1.6,0.7-2.1,1.4c-0.2,0.2-0.5,0.3-0.7,0.1
	C326.6,330.5,326.6,330.2,326.6,329.9L326.6,329.9z"/>
<path class="st4" d="M330,320.3L330,320.3c-0.3,0-0.5-0.3-0.4-0.6c0.2-1.9,2-3.2,3.9-3c0.4,0,0.7,0.2,1.1,0.3
	c0.8,0.5,1.5,1.1,2.1,1.9c0.2,0.2,0.1,0.5-0.1,0.7c-0.2,0.2-0.5,0.1-0.7-0.1c-0.5-0.7-1.1-1.2-1.8-1.6c-1.2-0.6-2.7-0.1-3.3,1.1
	c-0.1,0.2-0.2,0.5-0.2,0.8C330.4,320.1,330.2,320.3,330,320.3z"/>
<path class="st4" d="M342.3,320.6c-0.3,0-0.5-0.2-0.5-0.5c0-0.1,0-0.2,0.1-0.3c1.4-1.4,3.1-2.5,5-3.3c1.1-0.5,2.2-1.1,3.3-1.8
	c0.2-0.2,0.5-0.2,0.7,0.1c0.2,0.2,0.2,0.5-0.1,0.7c0,0,0,0-0.1,0.1c-1.1,0.7-2.2,1.4-3.4,1.9c-1.8,0.7-3.4,1.8-4.7,3.1
	C342.6,320.5,342.5,320.6,342.3,320.6z"/>
<path class="st4" d="M341.1,316c-0.3,0-0.6,0-0.9-0.1c-0.3-0.1-0.6-0.2-0.9-0.3c-0.3-0.1-0.7-0.2-1-0.3c-0.5-0.1-1,0-1.3,0.4
	c-0.2,0.2-0.5,0.3-0.7,0.1c-0.1-0.1-0.2-0.2-0.2-0.4v-1.3h-0.2c-0.3-0.1-0.4-0.3-0.4-0.6c0.1-0.3,0.3-0.4,0.6-0.4l0.6,0.1
	c0.2,0,0.4,0.2,0.4,0.5v0.8c0.5-0.2,0.9-0.2,1.4-0.1c0.4,0.1,0.8,0.2,1.1,0.3c0.3,0.1,0.5,0.2,0.8,0.2c0.9,0.2,1.9,0,2.7-0.5
	c0.2-0.2,0.5-0.1,0.7,0.1s0.1,0.5-0.1,0.7c0,0,0,0,0,0C342.8,315.8,341.9,316,341.1,316z"/>
<path class="st4" d="M321.5,318c-0.3,0-0.5-0.2-0.5-0.5c0-0.1,0-0.2,0.1-0.3c0.5-0.7,1.1-1.3,1.8-1.9c0.8-0.6,1.7-0.9,2.7-0.8
	c1.1,0.2,1.9,1,2,2.1c0,0.3-0.2,0.5-0.5,0.5c0,0,0,0,0,0c-0.3,0-0.5-0.2-0.5-0.4c0,0,0,0,0,0c-0.1-0.6-0.6-1.1-1.2-1.2
	c-0.7-0.1-1.4,0.1-2,0.6c-0.6,0.5-1.1,1.1-1.6,1.7C321.7,317.9,321.6,318,321.5,318z"/>
<path class="st4" d="M342.2,347.8c-0.3,0-0.5-0.2-0.5-0.5c0-0.1,0.1-0.3,0.2-0.4l9.8-9.2c0.2-0.2,0.5-0.1,0.7,0.1
	c0.2,0.2,0.1,0.5,0,0.7l-9.8,9.2C342.5,347.7,342.4,347.8,342.2,347.8z"/>
<path class="st4" d="M350.5,312c2.2-2.1,5.1-3.2,8.1-3.2c1.5,0,3,0.5,4.3,1.4c1.2,0.9,2.2,2,3,3.3c0.9,1.3,1.4,2.8,1.6,4.3
	c0.2,1.7-0.2,3.4-1.1,4.9c-0.9,1.5-2.1,2.6-3.6,3.4c-1.6,0.8-3.4,0.8-4.9-0.1c-0.3-0.2-0.4-0.5-0.2-0.8c0-0.1,0.1-0.1,0.1-0.2l0,0
	c0.9-0.9,1.9-1.8,3-2.5c1-0.6,1.9-1.3,2.7-2c0.9-0.7,1.6-1.7,1.9-2.8c0.3-1.2,0.2-2.6-0.4-3.7c-0.6-1.2-1.6-2.1-2.8-2.7
	c-1.2-0.5-2.4-0.8-3.7-0.9c-2.7-0.1-5.2,0.8-7.4,2.3l0,0c-0.2,0.2-0.5,0.1-0.7-0.1C350.3,312.4,350.3,312.2,350.5,312L350.5,312z"/>
<path class="st4" d="M317.9,314c-2.7-0.1-5.3,0.6-7.6,1.8c-1.1,0.6-2,1.5-2.6,2.6c-0.5,1.1-0.9,2.3-0.9,3.5
	c-0.2,2.3,0.4,4.7,1.9,6.6c0.8,1,1.8,1.8,3,2.3c1.2,0.6,2.5,0.7,3.8,0.4c0.3-0.1,0.6,0.1,0.6,0.4s-0.1,0.6-0.4,0.6h-0.1
	c-1.4,0.1-2.9-0.1-4.3-0.4c-1.4-0.4-2.8-1-4-1.9c-1.2-1-2.2-2.2-2.7-3.7c-0.5-1.5-0.6-3.1-0.3-4.6c0.8-2.9,2.7-5.4,5.5-6.8
	c2.6-1.1,5.4-1.7,8.2-1.7c0.3,0,0.5,0.2,0.5,0.5C318.4,313.7,318.2,314,317.9,314L317.9,314z"/>
<path class="st4" d="M317.9,335.5c-1.4-0.1-2.6-1-3.1-2.4c-0.4-1.3-0.6-2.8-0.4-4.2l0.8-11.6c0-1.2,0.3-2.4,0.9-3.4
	c0.7-1.2,2.3-1.7,3.5-1c0.2,0.2,0.3,0.5,0.1,0.7c-0.2,0.2-0.5,0.3-0.7,0.1c-0.8-0.3-1.7,0-2.1,0.7c-0.5,0.9-0.7,1.9-0.7,2.9
	l-0.8,11.6c-0.2,1.2-0.1,2.5,0.3,3.7c0.4,1.1,1.4,1.8,2.5,1.7c0.3,0,0.5,0.1,0.6,0.4c0,0.3-0.1,0.5-0.4,0.6
	C318.2,335.4,318.1,335.4,317.9,335.5z"/>
<path class="st4" d="M354.6,329.7L354.6,329.7c-0.3,0-0.5-0.2-0.5-0.5s0.2-0.5,0.5-0.5l0,0c1-0.1,1.9-0.9,2.1-1.9
	c0.2-1.1,0.1-2.3-0.2-3.4c-0.5-2.6-1.5-5-2.9-7.2c-1.4-2.2-3.6-3.7-6.1-4.3c-0.3,0-0.5-0.3-0.4-0.6c0-0.3,0.3-0.5,0.6-0.4
	c2.8,0.6,5.2,2.3,6.7,4.7c1.5,2.3,2.5,4.9,3.1,7.6c0.4,1.3,0.5,2.6,0.2,3.9C357.3,328.5,356.1,329.6,354.6,329.7z"/>
<path class="st4" d="M318,314.8c-0.3,0-0.5-0.2-0.5-0.5c-0.3-3-0.3-6,0.1-8.9c0.4-3.1,1.9-5.9,4.3-7.9c2.2-1.6,4.8-2.5,7.5-2.6
	c10.6-0.6,20,6.9,21.6,17.4c0,0.3-0.1,0.5-0.4,0.6c-0.3,0-0.5-0.1-0.6-0.4c-1.6-10-10.5-17.2-20.7-16.6c-2.5,0.1-4.9,0.9-6.9,2.4
	c-2.1,1.9-3.5,4.5-3.9,7.3c-0.4,2.9-0.4,5.8-0.1,8.7C318.4,314.5,318.2,314.8,318,314.8L318,314.8z"/>
<path class="st4" d="M350.2,311.6c0.1-2.5-0.2-5-1.1-7.4c-0.8-2.4-2-4.6-3.7-6.5c-1.7-1.9-3.8-3.3-6.2-4.2c-2.4-0.9-4.9-1.4-7.4-1.4
	c-1.3,0-2.5,0-3.8,0.2c-0.6,0.1-1.2,0.2-1.8,0.3c-0.6,0.2-1.1,0.4-1.7,0.8c-2.1,1.5-3.9,3.2-5.5,5.1c-1.5,2-2.3,4.4-2.4,6.9
	c-0.1,2.5,0.2,5,0.7,7.5c0.1,0.3-0.1,0.5-0.4,0.6s-0.5-0.1-0.6-0.4l0,0c-0.5-2.5-0.7-5.1-0.6-7.7c0.1-2.6,1.1-5.2,2.7-7.3
	c0.9-1,1.8-1.9,2.7-2.8c0.9-0.9,2-1.7,3.1-2.4c0.6-0.3,1.2-0.6,1.8-0.8c0.6-0.2,1.3-0.3,1.9-0.3c1.3-0.2,2.6-0.2,3.9-0.2
	c2.6,0.1,5.1,0.6,7.5,1.5c2.4,0.9,4.6,2.4,6.4,4.3c1.7,2,3,4.2,3.9,6.6c1,2.4,1.5,5,1.5,7.6c0,0.3-0.2,0.5-0.5,0.5
	S350.2,312,350.2,311.6L350.2,311.6L350.2,311.6z"/>
<path class="st4" d="M316.2,313.6c-0.3,0-0.5-0.2-0.5-0.5c0-0.1,0-0.2,0.1-0.2c-0.1-0.1-0.3-0.2-0.4-0.2l-6.3-1.1
	c-0.3,0-0.5-0.3-0.5-0.5s0.3-0.5,0.5-0.5l2.6-0.1c-0.4-0.6-0.6-1.4-0.5-2.1c0.1-0.2,0.3-0.4,0.5-0.4l2.7,0.3
	c-0.1-0.3,0.1-0.5,0.4-0.6c0.1,0,0.2,0,0.3,0.1l6.4,3.6c0.2,0.1,0.3,0.5,0.2,0.7c-0.1,0.2-0.4,0.3-0.6,0.2l-5.3-2.9
	c-0.1,0.1-0.2,0.1-0.4,0.1l-3.3-0.4c0.1,0.6,0.5,1.2,1.1,1.4c0.3,0.1,0.4,0.4,0.3,0.6c0,0.1-0.1,0.2-0.2,0.3l2.1,0.4
	c0.5,0.1,1,0.4,1.2,0.9c0.1,0.3,0,0.6-0.2,0.8C316.5,313.5,316.4,313.6,316.2,313.6z"/>
<path class="st4" d="M350.1,311.3l8.9-5.2c0.2-0.1,0.5,0,0.7,0.2c0.1,0.2,0,0.5-0.2,0.6l-2.8,1.8c-0.2,0.1-0.5,0.1-0.7-0.2
	c0-0.1-0.1-0.2-0.1-0.3l-0.1-4.5l1,0.1l0,0c-0.7,1.5-2.2,2.5-3.9,2.5c-0.8-0.1-1.6-0.4-2.2-0.9c-0.6-0.5-1.1-1.3-1.3-2.1l0,0
	l0.9,0.2l-3.1,5.6c-0.1,0.2-0.4,0.3-0.7,0.2c-0.1-0.1-0.2-0.2-0.2-0.3l-0.8-3.1h1c-0.1,0.4-0.1,0.8,0,1.2c0.2,0.4,0.4,0.8,0.7,1.2
	c0.3,0.4,0.6,0.9,0.8,1.5c0.2,0.6,0.2,1.2,0,1.8c-0.1,0.3-0.3,0.4-0.6,0.4s-0.4-0.3-0.4-0.6l0,0c0.1-0.4,0.1-0.8,0-1.2
	c-0.2-0.4-0.4-0.8-0.7-1.2c-0.3-0.4-0.6-0.9-0.8-1.5c-0.2-0.6-0.2-1.2,0-1.8c0-0.3,0.2-0.5,0.5-0.5s0.5,0.2,0.5,0.5l0.8,3.1
	l-0.9-0.1l3.1-5.6l0,0c0.1-0.2,0.4-0.3,0.7-0.2c0.1,0.1,0.2,0.2,0.3,0.4l0,0c0.1,1.4,1.2,2.4,2.5,2.6c0.7,0.1,1.4-0.1,1.9-0.6
	c0.5-0.4,0.9-1,1-1.6l0,0l0,0c0-0.3,0.3-0.5,0.6-0.4c0.3,0,0.5,0.3,0.4,0.6l0.1,4.5l-0.8-0.4l2.8-1.8l0.5,0.9l-8.9,5.2
	c-0.2,0.1-0.5,0.1-0.7-0.2C349.8,311.8,349.9,311.5,350.1,311.3L350.1,311.3z"/>
<path class="st3" d="M981.2,194.3c0.7,0,1.4-0.1,2.2-0.1l2.1-0.1h2.1l0,0h2.1l2.1,0.1l2.1,0.1l2.1,0.1l2.1,0.2l2.1,0.2l2.1,0.2
	l2.1,0.3l2.1,0.3l2.1,0.4l2,0.4l2.1,0.4l10.9-51.9c-1-0.2-2-0.4-3-0.6l-2.9-0.5c-1-0.2-2-0.3-3-0.5s-2-0.3-3-0.4l-3-0.4
	c-1-0.1-2-0.2-3-0.3s-2-0.2-3-0.3l-3-0.2c-1-0.1-2-0.1-3-0.2s-2-0.1-3.1-0.1l-3-0.1c-1,0-2,0-3,0l0,0c-1,0-2,0-3,0l-3,0.1
	c-1,0-2.1,0.1-3.1,0.1s-2,0.1-3,0.2l3.7,52.9L981.2,194.3z M972.9,195l2.1-0.2l2.1-0.2l-4.5-52.8c-1,0.1-2,0.2-3,0.3s-2,0.2-3,0.3
	l-3,0.4l7.3,52.5L972.9,195z M887.2,246.7c0.4-0.6,0.8-1.1,1.2-1.7s0.8-1.2,1.3-1.8s0.8-1.1,1.3-1.6l1.3-1.6
	c0.4-0.6,0.9-1.1,1.3-1.6l-41-34c-0.7,0.8-1.3,1.6-1.9,2.4s-1.2,1.5-1.8,2.3s-1.2,1.6-1.8,2.4s-1.2,1.7-1.8,2.5s-1.1,1.6-1.7,2.4
	s-1.2,1.7-1.7,2.5l44.3,29.6C886.3,247.9,886.7,247.3,887.2,246.7L887.2,246.7z M878.5,261.2c0.3-0.6,0.7-1.3,1-1.9s0.6-1.2,1-1.8
	s0.7-1.2,1-1.8s0.7-1.3,1.1-1.9s0.7-1.2,1.1-1.8l-45.3-28.1c-0.5,0.9-1.1,1.7-1.6,2.6c-0.5,0.9-1.1,1.8-1.6,2.7s-1,1.7-1.5,2.6
	s-0.9,1.7-1.4,2.6s-1,1.8-1.4,2.7s-0.9,1.8-1.3,2.7l48,23.3C877.9,262.5,878.2,261.8,878.5,261.2L878.5,261.2z M874.2,270.8
	c0.3-0.6,0.5-1.3,0.8-1.9s0.5-1.3,0.8-1.9l-48.7-21.6c-0.4,0.9-0.8,1.8-1.2,2.7s-0.8,1.8-1.1,2.8s-0.8,1.9-1.1,2.9l49.8,19.1
	C873.7,272.1,873.9,271.4,874.2,270.8L874.2,270.8z M871.3,278.8c0.2-0.7,0.4-1.4,0.7-2l-50.4-17.3c-0.3,1-0.7,1.9-1,2.9
	s-0.6,1.8-0.9,2.7l51,15.6C870.9,280,871.1,279.4,871.3,278.8L871.3,278.8z M868,290.9c0.2-0.7,0.3-1.4,0.5-2.1s0.3-1.4,0.5-2
	l-51.7-13c-0.2,1-0.5,1.9-0.7,2.9s-0.5,2.1-0.7,3.1s-0.4,1.9-0.6,2.9l52.4,10.3C867.8,292.3,867.9,291.6,868,290.9z M866.5,299.2
	c0.1-0.7,0.2-1.4,0.3-2s0.2-1.4,0.4-2.1l-52.5-9.4c-0.2,1-0.3,2.1-0.5,3.1s-0.3,1.9-0.4,2.9s-0.3,2.1-0.4,3.1l52.9,6.6
	C866.4,300.6,866.5,299.9,866.5,299.2L866.5,299.2z M827.7,389c0.4,0.9,0.8,1.8,1.3,2.7s0.9,1.8,1.3,2.7s0.9,1.8,1.4,2.7
	s0.9,1.8,1.4,2.6s1,1.8,1.5,2.7l46.4-26.1c-0.3-0.6-0.7-1.3-1-1.9s-0.6-1.2-1-1.8s-0.7-1.3-1-1.9s-0.6-1.3-0.9-1.9s-0.6-1.3-0.9-1.9
	s-0.6-1.3-0.8-1.9s-0.5-1.3-0.8-1.9l-49.3,20.4c0.4,0.9,0.8,1.8,1.2,2.8C826.9,387.1,827.3,388.1,827.7,389z M817.7,360.5
	c0.2,1,0.5,1.9,0.8,2.9s0.5,2,0.8,2.9s0.6,2,0.9,2.9s0.6,1.9,0.9,2.9s0.6,1.8,1,2.7s0.7,2,1,2.9l50-18.6c-0.3-0.7-0.5-1.3-0.7-2
	c-0.2-0.6-0.5-1.3-0.7-1.9s-0.4-1.4-0.7-2s-0.4-1.4-0.6-2s-0.4-1.4-0.6-2s-0.4-1.3-0.5-2s-0.3-1.4-0.5-2s-0.3-1.4-0.5-2l-52,11.6
	c0.2,1,0.4,2,0.7,2.9C817.2,358.6,817.4,359.6,817.7,360.5L817.7,360.5z M815,348.7c0.2,1,0.4,2.1,0.6,3.1l52.2-10.8
	c-0.1-0.7-0.3-1.4-0.4-2.1L815,348.7z M898.3,400c-0.5-0.5-1-1-1.4-1.5s-0.9-1-1.4-1.5s-0.9-1-1.3-1.6s-0.9-1.1-1.4-1.7
	s-0.8-1-1.3-1.6l-41.8,33c0.6,0.8,1.2,1.5,1.8,2.3c0.6,0.8,1.3,1.5,2,2.4c0.7,0.8,1.3,1.5,1.9,2.3c0.7,0.7,1.3,1.5,2,2.2
	s1.4,1.5,2.1,2.2L898.3,400z M840.8,412.7c0.6,0.9,1.1,1.7,1.7,2.6s1.1,1.6,1.7,2.4s1.2,1.6,1.7,2.4l43-31.5
	c-0.4-0.5-0.8-1.1-1.2-1.7s-0.8-1.1-1.2-1.7s-0.8-1.2-1.2-1.8s-0.8-1.2-1.2-1.8s-0.8-1.2-1.1-1.8l-45.5,27.7
	c0.5,0.9,1.1,1.7,1.6,2.6S840.3,411.9,840.8,412.7L840.8,412.7z M924.4,421.2L897,466.7c0.9,0.5,1.7,1,2.6,1.5l26.7-46L924.4,421.2z
	 M879.6,454.7c0.8,0.6,1.6,1.2,2.4,1.9l32-42.5l-1.7-1.3L879.6,454.7z M901.3,403.1l-37.5,37.7c0.7,0.7,1.4,1.4,2.1,2.1l36.9-38.4
	L901.3,403.1z M965.6,436.8L956,489c1,0.2,2,0.3,3,0.5l8.6-52.3L965.6,436.8z M935.5,484c1,0.3,1.9,0.6,2.9,0.9l14.9-50.9l-2-0.6
	L935.5,484z M943.3,430.5L924.1,480c0.9,0.4,1.9,0.7,2.8,1.1l18.3-49.8L943.3,430.5z M937.5,428.1l-21.7,48.5
	c0.9,0.4,1.8,0.8,2.7,1.2l20.9-48.8L937.5,428.1z M933.6,426.3l-1.9-1l-24.2,47.3c0.9,0.5,1.8,0.9,2.8,1.4l2.8,1.3l22.6-48.1
	L933.6,426.3z M1005.4,437.5l-2.1,0.3l-2.1,0.2l-2.1,0.2l-2.2,0.2l4.1,52.9c1-0.1,2.1-0.2,3.1-0.3l3-0.3c1-0.1,2-0.2,3-0.4
	s2-0.3,3-0.4l2.9-0.5l-8.6-52.3L1005.4,437.5z M1021.8,433.9l-2,0.6l-2,0.5l-2,0.5l-2.1,0.5l-2,0.4l10.4,52l2.9-0.6
	c1-0.2,2-0.4,3-0.7l2.9-0.7c1-0.2,1.9-0.5,2.9-0.8l2.9-0.8c1-0.3,1.9-0.6,2.9-0.9l-15.8-50.7L1021.8,433.9z M1027.8,432l-2,0.7
	l16.6,50.4l2.9-1c0.9-0.3,1.9-0.7,2.8-1l-18.3-49.8L1027.8,432z M1039.5,427.2l22.6,48.1c0.9-0.4,1.8-0.9,2.8-1.3l-23.4-47.7
	L1039.5,427.2z M1050.6,421.2l27.4,45.5c0.9-0.5,1.7-1,2.5-1.6l-28.2-45L1050.6,421.2z M994.9,438.6l-2.1,0.1l-2.1,0.1l1.4,53
	c1,0,2-0.1,3-0.1l3-0.1L994.9,438.6z M1096.1,372.7c-0.3,0.6-0.6,1.2-1,1.8l46.9,25.3c0.5-0.9,0.9-1.7,1.4-2.6s0.9-1.8,1.4-2.7
	l-47.8-23.7C1096.7,371.4,1096.4,372,1096.1,372.7L1096.1,372.7z M1098.9,367l48.6,22c0.4-0.9,0.8-1.8,1.2-2.7l-48.9-21.2
	C1099.4,365.7,1099.2,366.3,1098.9,367L1098.9,367z M1065.2,222l33.8-41.1c-0.8-0.6-1.6-1.2-2.3-1.9l-33.1,41.6
	C1064.1,221.1,1064.7,221.6,1065.2,222z M1068.4,224.8c0.5,0.5,1.1,0.9,1.6,1.4l35.9-39.3c-0.7-0.7-1.5-1.4-2.3-2s-1.5-1.3-2.3-2
	l-34.5,40.5L1068.4,224.8z M1076,232l38.5-36.8c-0.7-0.7-1.4-1.4-2.1-2.1l-37.9,37.4C1075,231.1,1075.5,231.6,1076,232L1076,232z
	 M1022.9,199.3l2,0.6l2,0.7l17-50.3c-1-0.3-1.9-0.6-2.9-0.9l-2.8-0.9c-1-0.3-1.9-0.6-2.9-0.9s-2-0.5-2.9-0.8s-1.9-0.5-2.9-0.7
	l-12.7,51.5l2,0.5l2,0.6L1022.9,199.3z M1046.7,151.3l-17.9,50l2,0.7l2,0.8l1.9,0.8l1.9,0.8l21.3-48.6c-0.9-0.4-1.8-0.8-2.7-1.2
	l-2.8-1.1c-0.9-0.4-1.9-0.7-2.9-1.1L1046.7,151.3z M1044.2,208l1.8,1l1.9,1l1.8,1.1l1.8,1.1c0.6,0.4,1.2,0.8,1.8,1.1l1.7,1.1
	l1.8,1.2l30.2-43.8c-0.8-0.6-1.7-1.2-2.6-1.7c-0.8-0.5-1.6-1.1-2.4-1.6s-1.7-1.1-2.6-1.6s-1.7-1-2.6-1.5s-1.7-1-2.6-1.5
	s-1.8-1-2.7-1.5s-1.8-0.9-2.6-1.4l-2.7-1.4l-23.8,47.5L1044.2,208z M1219.8,351.8l-52.6-8c-0.2,1-0.3,2-0.5,3l52.4,8.9
	C1219.4,354.4,1219.7,353.1,1219.8,351.8L1219.8,351.8z M1023.3,494.6l10.5,52.3c1.3-0.3,2.6-0.5,3.9-0.8l-11.4-52.1
	C1025.3,494.2,1024.3,494.4,1023.3,494.6z M1021.7,138c1,0.2,2.1,0.4,3.1,0.6l3,0.7c1,0.2,2.1,0.5,3.1,0.7l3,0.8c1,0.3,2,0.5,3,0.8
	l14.5-51.3c-1.3-0.4-2.6-0.7-3.9-1.1s-2.6-0.7-3.9-1s-2.7-0.7-4-1s-2.6-0.6-3.9-0.8s-2.7-0.5-4.1-0.8s-2.6-0.5-3.9-0.7l-9.1,52.5
	L1021.7,138z M1029.8,547.6l-9.6-52.4l-3.1,0.5l8.7,52.6C1027.1,548.1,1028.4,547.8,1029.8,547.6L1029.8,547.6z M1011,496.6
	c-1,0.1-2.1,0.2-3.1,0.4l6,53c1.3-0.2,2.7-0.3,4-0.5s2.7-0.4,4-0.6l-7.8-52.7C1013,496.3,1012,496.5,1011,496.6L1011,496.6z
	 M1001.6,497.6c-1,0.1-2.1,0.1-3.1,0.2l3.2,53.2c1.3-0.1,2.7-0.2,4-0.2s2.8-0.2,4.1-0.4l-5-53
	C1003.7,497.4,1002.6,497.5,1001.6,497.6L1001.6,497.6z M1003.2,135.5c1,0.1,2.1,0.2,3.1,0.3s2.1,0.2,3.1,0.4l3.1,0.4
	c1,0.1,2.1,0.3,3.1,0.4l8.2-52.7c-1.3-0.2-2.7-0.4-4-0.6s-2.7-0.4-4-0.5s-2.7-0.3-4-0.5s-2.7-0.2-4-0.4s-2.7-0.2-4-0.3
	s-2.7-0.2-4-0.2l-2.8,53.2c1,0.1,2.1,0.1,3.1,0.2L1003.2,135.5z M993.6,551.3c1.3,0,2.7-0.1,4-0.2l-2.3-53.2c-1,0-2.1,0.1-3.1,0.1
	L993.6,551.3z M993.8,135l1.8-53.3c-1.3,0-2.7-0.1-4-0.1c-1.3,0-2.7-0.1-4-0.1v53.3c1,0,2.1,0,3.1,0L993.8,135z M987.6,551.4h2.1
	l-0.5-53.3h-1.6l0,0H986c-1,0-2.1,0-3.1,0l-1.4,53.3c1.3,0,2.7,0,4,0L987.6,551.4z M1078.6,388.2l-41.8-33c-0.2,0.3-0.4,0.5-0.7,0.8
	l41.3,33.6C1077.8,389.2,1078.2,388.7,1078.6,388.2L1078.6,388.2z M1044.9,291c0.1,0.3,0.3,0.6,0.4,1s0.3,0.7,0.4,1l49.3-19.9
	c-0.2-0.6-0.5-1.2-0.8-1.8s-0.5-1.2-0.8-1.8s-0.5-1.2-0.8-1.8s-0.6-1.2-0.9-1.8l-47.8,23.2c0.2,0.3,0.3,0.7,0.5,1L1044.9,291z
	 M1096.5,276.8c-0.2-0.6-0.5-1.2-0.7-1.8l-49.7,19c0.1,0.3,0.3,0.6,0.4,1L1096.5,276.8z M1103,326c0.1-0.7,0.1-1.3,0.1-2
	c0-0.7,0.1-1.4,0.1-2l-53.1-2.5c0,0.4,0,0.7-0.1,1.1s-0.1,0.7-0.1,1.1s0,0.7-0.1,1l52.9,5.2C1102.9,327.3,1103,326.6,1103,326z
	 M1103.3,312c0-0.6,0-1.3-0.1-1.9s-0.1-1.4-0.1-2s-0.1-1.3-0.2-1.9s-0.1-1.4-0.2-2s-0.1-1.3-0.2-1.9l-52.8,6.6c0,0.3,0.1,0.7,0.1,1
	s0.1,0.7,0.1,1.1s0.1,0.7,0.1,1s0.1,0.7,0.1,1.1s0,0.7,0,1s0,0.7,0,1.1l53.2-1.1C1103.4,313.3,1103.4,312.6,1103.3,312L1103.3,312z
	 M1101.8,335.9c0.1-0.6,0.2-1.3,0.3-1.9s0.2-1.4,0.3-2s0.2-1.3,0.2-1.9l-52.8-6.2c0,0.4-0.1,0.7-0.1,1s-0.1,0.7-0.1,1.1
	s-0.1,0.7-0.2,1s-0.1,0.7-0.2,1l52.3,9.8C1101.6,337.1,1101.7,336.5,1101.8,335.9L1101.8,335.9z M1047.8,299.2
	c0.1,0.4,0.2,0.7,0.3,1s0.2,0.7,0.3,1s0.2,0.7,0.2,1s0.2,0.7,0.2,1.1s0.1,0.7,0.2,1s0.1,0.7,0.2,1s0.1,0.7,0.2,1.1s0.1,0.7,0.2,1
	l52.6-7.5c-0.1-0.6-0.2-1.3-0.3-1.9s-0.2-1.4-0.3-2s-0.2-1.3-0.4-1.9s-0.3-1.3-0.4-1.9s-0.3-1.4-0.4-2s-0.3-1.3-0.5-1.9
	s-0.3-1.3-0.5-1.9s-0.3-1.3-0.5-1.9s-0.4-1.3-0.6-1.9s-0.4-1.2-0.6-1.8l-50.6,16.4c0.1,0.3,0.2,0.6,0.3,1S1047.7,298.8,1047.8,299.2
	L1047.8,299.2z M1100.6,341.8l-51.9-11.6c-0.1,0.3-0.2,0.7-0.2,1l51.7,12.5C1100.4,343,1100.5,342.4,1100.6,341.8L1100.6,341.8z
	 M1097.4,353.3c0.2-0.7,0.4-1.3,0.6-1.9c0.2-0.6,0.4-1.3,0.6-1.9s0.4-1.3,0.6-1.9l-51.2-14.3l-0.3,1c-0.1,0.4-0.2,0.7-0.3,1
	s-0.2,0.7-0.3,1s-0.2,0.6-0.3,1l50.2,17.7C1097.1,354.5,1097.3,353.9,1097.4,353.3L1097.4,353.3z M1073.4,394.3l1.3-1.5l-40.1-35.1
	c-0.2,0.3-0.5,0.5-0.7,0.8l-0.7,0.8l38.8,36.4L1073.4,394.3z M1017.5,261.4l1,0.5l26.3-46.4l-1.8-1L1017.5,261.4z M1037.7,211.9
	l-1.8-0.9l-1.8-0.8l-1.8-0.8l-1.8-0.8l-19.7,49.5l1,0.4l1,0.4l1,0.4l1,0.5l1,0.5l1,0.5l24.7-47.2l-1.8-0.9L1037.7,211.9z
	 M1005.6,256.4l1,0.3l1,0.4l1,0.3l18-50.2l-1.9-0.7l-1.9-0.6l-1.9-0.6l-1.9-0.6l-14.5,51.3L1005.6,256.4z M1066.4,401.4
	c0.5-0.5,1-0.9,1.5-1.4l1.4-1.4l0.2-0.2c0.4-0.4,0.8-0.9,1.2-1.3l-38.2-37.1c-0.3,0.3-0.5,0.5-0.8,0.8s-0.5,0.5-0.8,0.7l-0.8,0.8
	l-0.8,0.7l35.7,39.6C1065.5,402.3,1066,401.9,1066.4,401.4L1066.4,401.4z M1007.4,202.2l-2-0.3l-8.2,52.7l1.1,0.2l1,0.2l1.1,0.2
	l10.9-52.2l-2-0.4L1007.4,202.2z M1059.6,225.7l-1.6-1.2l-1.6-1.2l-1.7-1.2l-1.6-1.1l-1.7-1.1l-1.6-1.1l-1.7-1.1l-1.7-1l-27.1,45.9
	l0.9,0.5l0.9,0.6l0.9,0.6l0.9,0.6l0.9,0.6l0.9,0.6l0.8,0.6l0.8,0.7c0.3,0.2,0.6,0.4,0.8,0.7l0.8,0.7l34.6-40.5
	c-0.5-0.4-1-0.9-1.6-1.3L1059.6,225.7z M1069.5,234.5l-0.9-0.9c-0.5-0.5-0.9-0.9-1.4-1.4l-1.5-1.4l-1.5-1.3l-35.2,39.9l0.8,0.7
	c0.3,0.2,0.5,0.5,0.8,0.7l0.8,0.7l0.8,0.8l0.7,0.8l38.5-36.8c-0.4-0.5-0.9-0.9-1.4-1.4L1069.5,234.5z M1040.2,282.5l0.6,0.9l0.6,0.9
	c0.2,0.3,0.4,0.6,0.6,1s0.3,0.6,0.5,0.9l0.5,0.9l47-24.9c-0.3-0.6-0.6-1.1-0.9-1.7c-0.3-0.6-0.6-1.1-1-1.7s-0.7-1.2-1.1-1.8
	s-0.7-1.1-1-1.7s-0.7-1.1-1.1-1.7s-0.7-1.1-1.1-1.6s-0.8-1.1-1.2-1.7l-43.7,30.4c0.2,0.3,0.4,0.6,0.6,0.9S1040.1,282.2,1040.2,282.5
	L1040.2,282.5z M1079.2,245.5l-1.2-1.5c-0.4-0.5-0.8-1-1.3-1.6l-41,34c0.2,0.3,0.4,0.6,0.7,0.9l0.7,0.8c0.2,0.3,0.4,0.6,0.7,0.8
	s0.4,0.6,0.7,0.9l43.2-31.1c-0.4-0.6-0.8-1.1-1.2-1.7S1079.6,246,1079.2,245.5L1079.2,245.5z M1072.8,237.9l-39.1,36.1l0.7,0.8
	l0.7,0.8l40.4-34.7c-0.4-0.5-0.9-1-1.3-1.5L1072.8,237.9z M1001.4,255.3l1.1,0.2l12.7-51.8l-2-0.5L1001.4,255.3z M1031.4,423.9
	l1.8-0.8l1.8-0.8l1.8-0.8l-22.6-48.3l-1,0.4l-1,0.4l-1,0.4l-1,0.4l19.3,49.7L1031.4,423.9z M1000.5,431.8l2-0.2l-6.9-52.9l-1.1,0.1
	l-1.1,0.1l5,53.1L1000.5,431.8z M1040.5,419.7c0.6-0.3,1.2-0.6,1.8-0.9l1.7-1l1.8-1l1.7-1l1.7-1l1.7-1.1l1.6-1.1l1.6-1.1l-30.6-43.6
	c-0.3,0.2-0.6,0.4-0.9,0.6l-0.9,0.6l-0.9,0.6c-0.3,0.2-0.6,0.4-0.9,0.6l-0.9,0.5l-1,0.5l-0.9,0.5l-1,0.5l-1,0.5l23.5,47.9
	L1040.5,419.7z M1057.4,409.1l1.6-1.2c0.5-0.4,1.1-0.8,1.6-1.3l1.5-1.3l1.5-1.3l-34.9-40.2l-0.8,0.7l-0.8,0.7l-0.9,0.7l-0.9,0.7
	l-0.8,0.6l31.3,43.1L1057.4,409.1z M1020.1,427.9l1.9-0.6l1.9-0.6l1.9-0.7l1.9-0.7l-18.4-50l-1,0.4l-1,0.4l-1,0.3
	c-0.3,0.1-0.7,0.2-1,0.3l-1,0.3l14,51.4L1020.1,427.9z M991.4,379.1l3.2,53.2l2-0.1l-4.2-53.2L991.4,379.1z M998.9,378.2l-1.1,0.2
	l8.7,52.6l2-0.3l2-0.4L999.9,378L998.9,378.2z M995.5,200.7l-2-0.1l-2-0.1l-1.8,53.3h1.1l1.1,0.1l1.1,0.1l1,0.1l5.5-53l-2-0.2
	L995.5,200.7z M990.5,432.5l2-0.1l-2.3-53.2h-1.1L990.5,432.5z M968.9,376.4l-1-0.3l-1-0.4l-1-0.4l-1-0.4l-1-0.4l-1-0.4l-1-0.4
	l-1-0.4l-1-0.5l-23.5,47.9l1.8,0.9l1.8,0.8l1.8,0.8l1.8,0.8l1.9,0.8l1.8,0.7l1.9,0.7l1.9,0.7l1.8,0.6c0.6,0.2,1.3,0.4,1.9,0.6
	l15-51.2C969.6,376.6,969.3,376.5,968.9,376.4L968.9,376.4z M792.9,459l-43,31.5c1,1.4,2.1,2.8,3.2,4.2l42.4-32.2
	C794.6,461.4,793.7,460.2,792.9,459z M781.3,441.8l-45.5,27.7c0.9,1.5,1.8,2.9,2.7,4.3l45-28.5C782.8,444.2,782,443,781.3,441.8
	L781.3,441.8z M785.8,448.9l-44.5,29.2c1,1.5,1.9,2.9,2.9,4.3l44-30C787.4,451.3,786.6,450.1,785.8,448.9L785.8,448.9z M873.1,298.1
	l52.5,8.4c0.1-0.4,0.1-0.7,0.2-1.1l-52.3-9.4C873.3,296.8,873.2,297.4,873.1,298.1L873.1,298.1z M958,371.8l-0.9-0.5l-25.9,46.6
	l1.7,1L958,371.8z M872.1,306c-0.1,0.6-0.1,1.3-0.2,1.9s-0.1,1.4-0.1,2l53.1,3c0-0.4,0.1-0.7,0.1-1.1s0-0.7,0.1-1s0.1-0.7,0.1-1.1
	l-52.8-5.8C872.2,304.7,872.2,305.4,872.1,306z M803.2,472.2l-40.7,34.4c1.1,1.3,2.2,2.5,3.3,3.8l40.1-35.1
	C805,474.3,804.1,473.3,803.2,472.2z M939.7,356.9l-0.7-0.8l-0.7-0.8l-0.7-0.9l-0.7-0.9l-0.6-0.9c-0.2-0.3-0.4-0.6-0.6-0.9l-0.6-0.9
	l-0.6-0.9c-0.2-0.3-0.4-0.6-0.6-0.9s-0.4-0.6-0.5-0.9L887.5,375c0.3,0.6,0.7,1.1,1,1.7s0.7,1.1,1.1,1.7s0.7,1.1,1.1,1.7
	s0.8,1.1,1.1,1.7s0.7,1.1,1.1,1.6s0.8,1,1.1,1.6s0.8,1.1,1.2,1.7s0.8,1.1,1.2,1.6l1.2,1.5c0.4,0.5,0.9,1.1,1.3,1.6L939.7,356.9z
	 M798,465.8l-41.8,33c1,1.3,2,2.5,3.1,3.8l41.3-33.6C799.7,467.9,798.8,466.9,798,465.8z M1018.7,555.7c-1.4,0.2-2.8,0.3-4.2,0.5
	s-2.7,0.3-4.1,0.4l5,53c1.7-0.2,3.3-0.3,5-0.5s3.4-0.4,5.1-0.6c1.7-0.2,3.3-0.5,5-0.7l-7.8-52.7
	C1021.4,555.3,1020,555.5,1018.7,555.7L1018.7,555.7z M1096.2,357l-49.8-18.6c-0.1,0.3-0.3,0.7-0.4,1s-0.3,0.7-0.4,1s-0.3,0.7-0.4,1
	l-0.4,1c-0.2,0.3-0.3,0.7-0.4,1l48.1,22.8c0.3-0.6,0.6-1.2,0.8-1.8s0.5-1.2,0.8-1.8s0.5-1.2,0.8-1.8s0.5-1.3,0.8-1.9
	S1095.9,357.6,1096.2,357z M1200,431c-0.7,1.2-1.4,2.5-2.1,3.7l46.4,26.1c0.8-1.5,1.7-3,2.5-4.6L1200,431z M964.8,610.1
	c1.7,0.1,3.3,0.2,5,0.3l3.2-53.2c-1.4-0.1-2.8-0.2-4.1-0.3L964.8,610.1z M826.3,496c-1-0.9-2.1-1.9-3.1-2.8c-1-1-2-1.9-3-2.9
	s-2-1.9-2.9-2.9l-0.4-0.4c-0.9-0.9-1.7-1.8-2.6-2.6s-1.9-2-2.9-3s-1.9-2-2.8-3.1l-39.5,35.7c1.1,1.3,2.3,2.5,3.5,3.7
	s2.3,2.5,3.5,3.7s2.1,2.2,3.1,3.2l0.5,0.5c1.2,1.2,2.4,2.3,3.6,3.5c1.2,1.2,2.5,2.3,3.7,3.5s2.5,2.3,3.8,3.4s2.5,2.3,3.8,3.4
	s2.5,2.2,3.8,3.2l34.2-40.8c-1-0.9-2.1-1.8-3.1-2.6S827.4,497,826.3,496z M984.9,379.1l-1.1-0.1l-1.1-0.1l-1.1-0.1l-1.1-0.1
	l-1.1-0.1l-1.1-0.1l-1-0.2l-1.1-0.2l-1.1-0.2l-1-0.2l-11.4,52.1l1.9,0.4l2,0.4l2,0.3l1.9,0.3l2,0.3l2,0.2l2,0.2l2,0.2l2,0.1l2,0.1
	L984.9,379.1z M993.8,557.6c-1.4,0-2.7,0-4.1,0h-2.1l0,0h-2.1l-0.4,53.3c0.9,0,1.7,0,2.6,0s1.7,0,2.6,0c1.7,0,3.4,0,5-0.1
	s3.4-0.1,5-0.2l-2.3-53.2C996.5,557.5,995.2,557.6,993.8,557.6z M882,364.4c0.3,0.6,0.6,1.2,0.8,1.8s0.6,1.2,0.9,1.8
	s0.6,1.2,0.9,1.8l47.2-24.5l-0.5-1c-0.2-0.3-0.3-0.6-0.5-1s-0.3-0.6-0.4-1s-0.3-0.6-0.4-1s-0.3-0.6-0.4-1l-49.2,20.4
	c0.3,0.6,0.5,1.2,0.8,1.8C881.4,363.1,881.7,363.8,882,364.4z M916.2,407.9l1.6,1.2l1.6,1.2l1.7,1.2l1.6,1.1l1.6,1.1
	c0.6,0.4,1.2,0.7,1.7,1.1l1.7,1l27.5-45.6l-0.9-0.6l-0.9-0.6c-0.3-0.2-0.6-0.4-0.9-0.6s-0.6-0.4-0.9-0.6l-0.9-0.6l-0.8-0.6
	c-0.3-0.2-0.6-0.5-0.9-0.7l-0.8-0.7l-0.8-0.7l-0.8-0.7l-0.8-0.7l-0.8-0.7l-0.8-0.7l-0.8-0.7c-0.3-0.3-0.5-0.5-0.8-0.8l-0.8-0.8
	c-0.2-0.3-0.5-0.5-0.7-0.8s-0.5-0.5-0.7-0.8l-40.1,35l1.3,1.5c0.5,0.5,0.9,1,1.4,1.5s0.9,1,1.4,1.5s0.8,0.9,1.2,1.3l0.2,0.2l1.4,1.4
	l1.5,1.4l1.5,1.4l1.5,1.3l1.5,1.3l1.5,1.3L916.2,407.9z M946.1,269.4l0.8-0.7c0.3-0.2,0.5-0.5,0.8-0.7s0.6-0.4,0.8-0.7l0.9-0.7
	l0.8-0.6l-31.7-42.8l-1.6,1.2l-1.6,1.2l-1.5,1.2c-0.5,0.4-1,0.9-1.6,1.3l-1.5,1.3l-1.5,1.3l35.9,39.3L946.1,269.4z M906.5,233.6
	l-0.9,0.9L905,235c-0.5,0.5-0.9,0.9-1.4,1.4s-0.9,1-1.4,1.5l-1.3,1.5l39.8,35.4l0.7-0.8l0.7-0.8l0.7-0.8l0.8-0.8l0.8-0.7l-36.6-38.7
	L906.5,233.6z M895.9,245.5c-0.4,0.5-0.8,1-1.2,1.6s-0.8,1.1-1.2,1.7l-1.1,1.6c-0.4,0.6-0.8,1.1-1.2,1.7s-0.7,1.1-1.1,1.6
	c-0.4,0.6-0.7,1.1-1,1.7s-0.7,1.1-1,1.7s-0.7,1.2-1,1.8l46.2,26.5c0.2-0.3,0.4-0.7,0.6-1l0.6-0.9l0.6-0.9c0.2-0.3,0.4-0.6,0.6-0.9
	s0.4-0.6,0.6-0.9l0.6-0.9c0.2-0.3,0.4-0.6,0.7-0.9s0.4-0.6,0.7-0.8l0.7-0.8L897.1,244L895.9,245.5z M986.5,253.7h1.1l0,0v-53.3l0,0
	h-2h-2l1.8,53.3L986.5,253.7z M967.7,202.1l-1.9,0.4l10,52.4l1-0.2l1.1-0.2l-8.2-52.7L967.7,202.1z M982.2,254l1.1-0.1l1.1-0.1
	l-2.8-53.2l-2,0.1l-2,0.1l-2,0.2l5.5,53L982.2,254z M926.9,217.6l-1.7,1.1l-1.6,1.1l-1.7,1.1l-1.6,1.1l30.9,43.4l0.9-0.6l0.9-0.6
	l0.9-0.6l0.9-0.6l0.9-0.5l0.9-0.5c0.3-0.2,0.6-0.4,1-0.5l0.9-0.5l-24.7-47.2l-1.7,0.9l-1.8,1l-1.7,1L926.9,217.6z M962.4,259l1-0.4
	l1-0.4l1-0.4l1-0.4l1-0.4l1-0.4l1-0.3l-15.4-51l-1.9,0.6l-1.9,0.6l-1.9,0.7l-1.9,0.7l-1.9,0.7l-1.8,0.8l-1.8,0.8l-1.8,0.8l22.2,48.5
	L962.4,259z M980,254.2l-6.4-52.9l-2,0.3l7.3,52.8L980,254.2z M874.6,290.2l51.8,12c0.1-0.4,0.2-0.7,0.2-1l-51.6-12.9
	C875,288.9,874.8,289.5,874.6,290.2L874.6,290.2z M927.4,334.3c-0.1-0.4-0.2-0.7-0.3-1l-51.2,14.2c0.2,0.7,0.4,1.3,0.6,1.9
	c0.2,0.6,0.4,1.3,0.6,1.9s0.4,1.3,0.6,1.9l50.5-16.9c-0.1-0.4-0.2-0.7-0.3-1S927.5,334.6,927.4,334.3L927.4,334.3z M876.7,282.5
	l50.8,15.6c0.1-0.3,0.2-0.6,0.3-1l-50.6-16.4C877.1,281.3,876.9,281.9,876.7,282.5z M883.2,265.8c-0.3,0.6-0.6,1.2-0.9,1.8
	s-0.5,1.2-0.8,1.8s-0.5,1.2-0.8,1.8l49,20.7c0.1-0.3,0.3-0.6,0.4-1s0.3-0.6,0.4-1s0.3-0.7,0.5-1s0.3-0.6,0.5-1l-47.5-24
	C883.8,264.6,883.5,265.2,883.2,265.8z M873.8,294.2l52.2,10.2c0.1-0.3,0.1-0.7,0.2-1l-52-11.1C874.1,292.9,873.9,293.5,873.8,294.2
	z M914.6,150c1-0.4,1.9-0.8,2.8-1.2l2.9-1.2c1-0.4,2-0.8,3-1.1s1.9-0.7,2.9-1.1s2-0.7,2.9-1l-17.1-50.5c-1.3,0.4-2.5,0.9-3.8,1.3
	s-2.5,0.9-3.8,1.4s-2.6,1-3.8,1.5s-2.5,1-3.7,1.5s-2.5,1-3.7,1.6s-2.4,1.1-3.7,1.6l22.2,48.4C912.7,150.8,913.7,150.4,914.6,150z
	 M903.3,155.4c0.9-0.5,1.8-1,2.8-1.4c1-0.5,1.9-0.9,2.8-1.4l-23.1-48c-1.2,0.6-2.5,1.2-3.7,1.8s-2.4,1.2-3.6,1.8s-2.4,1.2-3.5,1.9
	l25.5,46.8C901.5,156.4,902.4,155.9,903.3,155.4z M869.7,519.8c1.2,0.7,2.4,1.4,3.6,2l25.9-46.6c-0.9-0.5-1.8-1-2.8-1.6L869.7,519.8
	z M824.6,485.8c1,0.9,2,1.9,3,2.8l36.2-39c-0.8-0.7-1.5-1.4-2.3-2.1L824.6,485.8z M808,468.2c0.9,1,1.7,2,2.6,3c0.9,1,1.8,2,2.6,3
	s1.8,2,2.8,3s1.9,2,2.8,2.9s1.9,2,2.9,3l37.6-37.7L859,445c-0.7-0.6-1.3-1.3-1.9-2s-1.5-1.5-2.2-2.3s-1.4-1.5-2.1-2.3
	s-1.4-1.5-2-2.3s-1.3-1.5-2-2.3s-1.4-1.6-2.1-2.5L805.4,465C806.3,466.1,807.2,467.1,808,468.2L808,468.2z M788.9,442
	c0.7,1.1,1.5,2.3,2.2,3.4c0.7,1.1,1.5,2.3,2.3,3.4l44-30c-0.6-0.9-1.2-1.8-1.8-2.7c-0.6-0.9-1.2-1.8-1.7-2.6
	c-0.6-0.9-1.1-1.8-1.7-2.7s-1.1-1.8-1.6-2.7l-45.9,26.9c0.7,1.1,1.3,2.3,2,3.5S788.1,440.9,788.9,442z"/>
<path class="st3" d="M1113.6,447.5l36.9,38.4c1-0.9,1.9-1.8,2.8-2.8l-37.6-37.7C1115.1,446,1114.3,446.7,1113.6,447.5z"/>
<path class="st3" d="M1132.3,426.5c-0.6,0.8-1.3,1.7-1.9,2.5s-1.3,1.6-1.9,2.4l41.2,33.7c0.8-1,1.6-2,2.4-3s1.7-2.2,2.5-3.2
	s1.7-2.2,2.5-3.4l-42.9-31.5C1133.6,424.8,1132.9,425.6,1132.3,426.5z"/>
<path class="st3" d="M1136,421.4l43.4,30.7c0.8-1.1,1.5-2.2,2.2-3.2l-44-30C1137.2,419.7,1136.6,420.6,1136,421.4z"/>
<path class="st3" d="M1142.9,410.9c-0.6,0.9-1.1,1.8-1.7,2.7s-1.1,1.8-1.7,2.6l44.5,29.2c0.7-1.1,1.5-2.3,2.2-3.4
	c0.7-1.1,1.4-2.3,2.2-3.5s1.4-2.3,2-3.5l-45.9-26.9C1144,409.1,1143.5,410,1142.9,410.9z"/>
<path class="st3" d="M1151.8,394.4c-0.4,0.9-0.9,1.9-1.4,2.8s-0.9,1.9-1.4,2.8s-0.9,1.8-1.4,2.7l46.8,25.2c0.6-1.2,1.2-2.3,1.8-3.5
	s1.2-2.4,1.8-3.7s1.2-2.4,1.8-3.6s1.2-2.4,1.7-3.7l-48.4-22C1152.7,392.5,1152.3,393.5,1151.8,394.4z"/>
<path class="st3" d="M1160,374.2c-0.3,1-0.7,1.9-1,2.8s-0.7,2-1.1,3s-0.7,1.9-1.1,2.9s-0.8,2-1.2,3l49.2,20.3
	c0.5-1.3,1.1-2.6,1.6-3.9s0.9-2.5,1.4-3.7s0.9-2.6,1.4-3.9s0.9-2.4,1.3-3.7s0.8-2.6,1.3-3.9l-50.7-16
	C1160.7,372.2,1160.3,373.2,1160,374.2z"/>
<path class="st3" d="M1166.3,349.8c-0.2,1.1-0.4,2.1-0.6,3.2s-0.4,2-0.7,3l51.9,11.6c0.3-1.3,0.6-2.6,0.8-3.9s0.5-2.8,0.8-4.1
	s0.5-2.6,0.7-3.9l-52.4-8.9C1166.6,347.8,1166.5,348.8,1166.3,349.8z"/>
<path class="st3" d="M1168.4,334.4c-0.1,1.1-0.2,2.1-0.3,3.2s-0.2,2-0.4,3l52.7,7.1c0.2-1.3,0.3-2.6,0.5-3.9s0.3-2.8,0.4-4.1
	s0.2-2.6,0.3-3.9l-53-4.4C1168.6,332.4,1168.5,333.4,1168.4,334.4z"/>
<path class="st3" d="M1168.9,328.2l53,3.4c0.1-1.4,0.2-2.8,0.2-4.1l-53-2.5C1169.1,326,1169,327.1,1168.9,328.2z"/>
<path class="st3" d="M1222.5,315.5l-53.1,0.2c0,0.2,0,0.5,0,0.7c0,0.8,0,1.5,0,2.3l53.1,0.7c0-1,0-2,0-3
	C1222.5,316.1,1222.5,315.9,1222.5,315.5z"/>
<path class="st3" d="M1135.1,210.3c0.6,0.8,1.2,1.7,1.8,2.5s1.2,1.8,1.8,2.6s1.1,1.7,1.7,2.5s1.1,1.8,1.7,2.6s1.1,1.8,1.6,2.7
	s1.1,1.9,1.7,2.8s1,1.8,1.5,2.7s1,1.8,1.4,2.7s1,1.9,1.5,2.8s0.9,1.9,1.4,2.8s0.9,1.9,1.3,2.9s0.9,1.9,1.3,2.8s0.8,1.9,1.2,2.8
	l49-20.7c-0.5-1.2-1.1-2.4-1.6-3.7s-1.1-2.4-1.7-3.6s-1.2-2.5-1.8-3.7s-1.2-2.4-1.8-3.6s-1.3-2.4-1.9-3.6s-1.2-2.3-1.9-3.5
	s-1.3-2.3-1.9-3.5s-1.4-2.4-2.1-3.6s-1.4-2.3-2.1-3.5s-1.4-2.3-2.1-3.4s-1.4-2.2-2.2-3.3s-1.6-2.3-2.3-3.4s-1.5-2.2-2.3-3.2
	s-1.6-2.3-2.5-3.4s-1.6-2.1-2.4-3.2l-42.1,32.6c0.6,0.8,1.3,1.6,1.9,2.5S1134.5,209.4,1135.1,210.3z"/>
<path class="st3" d="M1160.5,260.3c0.3,0.9,0.6,1.9,0.9,2.8s0.6,2,0.9,3s0.6,2,0.8,3s0.5,2,0.8,3s0.5,2,0.7,3s0.5,2.1,0.7,3.2
	l52-11.1c-0.3-1.4-0.6-2.8-0.9-4.1s-0.6-2.6-0.9-3.9s-0.7-2.6-1-3.9s-0.7-2.6-1.1-3.9s-0.8-2.6-1.2-3.9s-0.8-2.4-1.2-3.7
	s-0.8-2.6-1.3-3.9l-50.3,17.3C1159.8,258.3,1160.2,259.3,1160.5,260.3z"/>
<path class="st3" d="M1167.5,290.7c0.2,1.1,0.3,2.1,0.4,3.2s0.2,2,0.3,3l52.8-5.7c-0.1-1.3-0.3-2.6-0.4-3.9s-0.4-2.8-0.6-4.1
	s-0.4-2.6-0.6-3.9l-52.5,8.4C1167.2,288.7,1167.4,289.7,1167.5,290.7z"/>
<path class="st3" d="M1169.2,309.4c0,1.1,0.1,2.1,0.1,3.2l53.1-1.1c0-1.4-0.1-2.8-0.1-4.1s-0.1-2.6-0.2-3.9l-53.1,3
	C1169.1,307.3,1169.1,308.4,1169.2,309.4z"/>
<path class="st3" d="M1163,318.7c0-0.7,0-1.5,0-2.2c0-0.2,0-0.5,0-0.7c0-1,0-2.1,0-3.1c0-1-0.1-2.1-0.1-3.1l-53.2,2.1
	c0,0.7,0.1,1.4,0.1,2.2s0,1.4,0,2.1c0,0.2,0,0.3,0,0.5c0,0.5,0,1,0,1.5c0,0.7,0,1.4,0,2.1l53.3,1.6
	C1163,320.7,1163,319.7,1163,318.7z"/>
<path class="st3" d="M1162.4,330.9c0.1-1,0.2-2.1,0.2-3.1s0.1-2,0.2-3.1l-53.2-2.5c0,0.7-0.1,1.4-0.1,2.1s-0.1,1.4-0.2,2.2
	s-0.1,1.4-0.2,2l53,5.2C1162.3,332.8,1162.4,331.8,1162.4,330.9z"/>
<path class="st3" d="M1161.5,339.8c0.1-1,0.2-1.9,0.3-2.9l-52.9-6.2c-0.1,0.7-0.2,1.4-0.2,2s-0.2,1.4-0.3,2.1l52.7,8
	C1161.2,341.8,1161.4,340.8,1161.5,339.8z"/>
<path class="st3" d="M1108.5,299.1c0.1,0.7,0.2,1.4,0.3,2.1s0.2,1.4,0.2,2l53-5.7c-0.1-1-0.2-1.9-0.3-2.9c-0.1-1-0.3-2.1-0.4-3.1
	s-0.3-1.9-0.4-2.9s-0.3-2.1-0.5-3.1l-52.5,9.4c0.1,0.7,0.2,1.4,0.3,2.1S1108.4,298.5,1108.5,299.1z"/>
<path class="st3" d="M1157.8,273.8c-0.2-1-0.5-2-0.8-2.9c-0.3-1-0.5-2-0.8-2.9s-0.6-2-0.9-2.9l-51,15.6c0.2,0.7,0.4,1.3,0.6,2
	c0.2,0.7,0.4,1.4,0.6,2s0.4,1.4,0.5,2s0.3,1.3,0.5,2s0.3,1.4,0.5,2.1l52.1-11.1c-0.2-1-0.4-2.1-0.7-3.1S1158.1,274.8,1157.8,273.8z"
	/>
<path class="st3" d="M1156.7,363.4c0.3-1,0.5-1.9,0.8-2.9s0.5-2,0.7-2.9s0.5-1.9,0.7-2.9s0.4-1.9,0.6-2.9s0.4-2,0.6-3.1
	s0.3-2,0.5-2.9l-52.6-8.9c-0.1,0.7-0.2,1.3-0.4,2c-0.1,0.7-0.3,1.4-0.4,2.2s-0.3,1.4-0.4,2s-0.3,1.4-0.5,2s-0.3,1.4-0.5,2
	s-0.4,1.4-0.6,2s-0.4,1.4-0.6,2l51.1,15.1C1156.1,365.4,1156.4,364.4,1156.7,363.4z"/>
<path class="st3" d="M1101.7,272.8c0.2,0.6,0.5,1.3,0.7,1.9s0.5,1.4,0.7,2l50.4-17.3c-0.3-1-0.7-1.9-1-2.9c-0.3-0.9-0.7-1.9-1-2.8
	s-0.7-1.9-1.1-2.9s-0.8-1.9-1.1-2.8s-0.8-1.8-1.2-2.7l-48.7,21.6c0.3,0.6,0.6,1.3,0.8,1.9s0.5,1.3,0.8,1.9
	S1101.4,272.1,1101.7,272.8z"/>
<path class="st3" d="M1151,380.6c0.4-0.9,0.7-1.9,1.1-2.8s0.7-1.9,1.1-2.9s0.6-1.8,0.9-2.7s0.6-1.9,0.9-2.9l-50.8-16
	c-0.2,0.7-0.4,1.3-0.7,2c-0.2,0.6-0.4,1.3-0.7,1.9s-0.5,1.4-0.7,2s-0.5,1.3-0.7,1.9s-0.5,1.3-0.8,2l49.3,20.4
	C1150.2,382.5,1150.6,381.6,1151,380.6z"/>
<path class="st3" d="M1144.1,237.1c-0.5-0.9-0.9-1.8-1.4-2.7s-0.9-1.7-1.4-2.6s-1-1.7-1.4-2.6s-1.1-1.8-1.6-2.7l-45.8,27.3
	c0.4,0.6,0.8,1.3,1.1,1.9c0.4,0.6,0.7,1.2,1,1.8s0.7,1.2,1,1.8s0.7,1.2,1,1.9s0.6,1.3,0.9,1.9l48-23.3
	C1145.1,238.9,1144.6,238,1144.1,237.1z"/>
<path class="st3" d="M817.5,154.2L856,191c0.7-0.7,1.4-1.5,2.2-2.2l-37.9-37.4C819.3,152.3,818.4,153.2,817.5,154.2z M799.3,175.8
	l42.6,31.9c0.6-0.8,1.3-1.6,1.9-2.5s1.2-1.6,1.9-2.4s1.3-1.6,2-2.5s1.4-1.6,2.1-2.4l-40.4-34.7c-0.9,1.1-1.8,2.1-2.7,3.2
	c-0.9,1-1.7,2.1-2.6,3.2s-1.6,2-2.4,3.1S800.1,174.7,799.3,175.8z M794.5,182.4l43.7,30.4c0.6-0.8,1.2-1.7,1.8-2.5l-43.2-31.1
	C796,180.2,795.3,181.3,794.5,182.4L794.5,182.4z M790,189.1c-0.7,1.1-1.4,2.3-2.1,3.4l45.2,28.1c0.5-0.9,1.1-1.8,1.7-2.6
	s1.1-1.7,1.7-2.6l-44.2-29.6C791.4,186.9,790.7,188,790,189.1z M777.9,210.2c-0.6,1.2-1.2,2.4-1.8,3.6l47.9,23.2
	c0.5-0.9,0.9-1.9,1.4-2.8c0.5-0.9,1-1.9,1.5-2.8l-47-24.9C779.2,207.8,778.5,209,777.9,210.2z M772.7,221.2
	c-0.5,1.2-1.1,2.4-1.6,3.7s-1,2.5-1.5,3.7l49.3,19.9c0.4-1,0.8-1.9,1.2-2.9s0.8-1.9,1.2-2.8s0.8-1.9,1.3-2.8l-48.3-22.4
	C773.8,218.8,773.2,220,772.7,221.2L772.7,221.2z M766.7,236.1c-0.5,1.3-0.9,2.6-1.4,3.9c-0.4,1.3-0.9,2.6-1.3,3.9l50.6,16.4
	c0.3-1,0.7-2,1-3s0.7-2,1.1-3s0.7-1.9,1.1-2.9l-49.7-19C767.6,233.7,767.1,234.9,766.7,236.1L766.7,236.1z M813.7,263.1l-50.8-15.5
	c-0.4,1.3-0.8,2.6-1.2,3.9l51.1,14.7C813.1,265.2,813.4,264.2,813.7,263.1L813.7,263.1z M759.6,259.3l51.6,12.9c0.3-1,0.5-2,0.8-3
	l-51.3-13.8C760.3,256.7,759.9,258,759.6,259.3L759.6,259.3z M809.1,281.4c0.2-1,0.4-2,0.6-3l-52-11.1c-0.3,1.3-0.5,2.6-0.8,3.9
	c-0.2,1.3-0.5,2.6-0.7,3.9l52.3,9.3C808.7,283.5,808.9,282.5,809.1,281.4L809.1,281.4z M1083.8,530.9l-21.8-48.6
	c-0.9,0.4-1.9,0.8-2.8,1.2l21,49C1081.3,532,1082.5,531.4,1083.8,530.9L1083.8,530.9z M1057.3,540.9c1.3-0.4,2.5-0.8,3.8-1.2
	l-16.7-50.7c-1,0.3-1.9,0.6-2.9,0.9s-2,0.6-3,0.9l14.9,51.2C1054.7,541.7,1056,541.3,1057.3,540.9L1057.3,540.9z M1045.6,544.2
	c1.3-0.3,2.6-0.7,3.9-1l-14.1-51.4c-1,0.3-2,0.5-3,0.8s-2,0.5-3,0.7l12.3,51.9C1043,544.8,1044.3,544.5,1045.6,544.2L1045.6,544.2z
	 M1161.9,368.2l51,15.1c0.4-1.3,0.8-2.6,1.1-3.9l-51.2-14.2C1162.5,366.1,1162.2,367.1,1161.9,368.2L1161.9,368.2z M1116.9,188.8
	c0.7,0.7,1.4,1.4,2.2,2.2s1.4,1.5,2.1,2.3s1.4,1.5,2.1,2.3s1.4,1.5,2,2.3s1.4,1.6,2.1,2.4l41-34c-0.9-1.1-1.8-2.1-2.7-3.2
	c-0.9-1-1.8-2-2.6-3s-1.8-2-2.7-3s-1.8-2-2.8-3s-1.8-1.9-2.8-2.9s-1.9-2-2.9-2.9l-37.2,38.1c0.5,0.5,1,0.9,1.4,1.4L1116.9,188.8z
	 M840,221.4l44.8,28.9c0.4-0.6,0.8-1.2,1.1-1.7l-44.3-29.6C841.1,219.7,840.5,220.5,840,221.4z M880.8,177.2l32.3,42.2l1.6-1.2
	l-31.6-42.8C882.4,176,881.6,176.6,880.8,177.2L880.8,177.2z M828.3,242.6c-0.4,0.9-0.8,1.8-1.2,2.7l48.7,21.6
	c0.3-0.6,0.6-1.3,0.9-1.9c0.3-0.6,0.6-1.3,0.9-1.9l-48-23.3C829.2,240.7,828.7,241.6,828.3,242.6L828.3,242.6z M872.6,274.7
	c0.2-0.6,0.5-1.3,0.7-1.9l-49.8-19.1c-0.3,0.9-0.7,1.8-1,2.8s-0.7,1.9-1,2.9l50.4,17.4C872.2,276,872.4,275.4,872.6,274.7
	L872.6,274.7z M870.6,280.7l-51-15.6c-0.3,1-0.6,1.9-0.9,2.9l51.2,14.7C870.3,282,870.5,281.3,870.6,280.7L870.6,280.7z
	 M869.5,284.8L818,270.9c-0.3,1-0.5,1.9-0.8,2.9l51.7,13C869.1,286.1,869.3,285.4,869.5,284.8L869.5,284.8z M867.6,293l-52.3-10.3
	c-0.2,1-0.4,1.9-0.5,2.9l52.5,9.4C867.4,294.3,867.5,293.6,867.6,293L867.6,293z M866.3,301.3l-52.9-6.6c-0.1,1-0.2,1.9-0.3,2.9
	l53,5.7C866.1,302.7,866.2,302,866.3,301.3L866.3,301.3z M865.8,305.5l-53.1-4.8c-0.1,1-0.2,1.9-0.2,2.9l53.2,3.9
	C865.7,306.8,865.8,306.2,865.8,305.5L865.8,305.5z M812.1,318.7c0,1,0,2.1,0.1,3.1s0.1,1.9,0.1,2.9l53.2-2.5c0-0.7-0.1-1.4-0.1-2
	s0-1.4,0-2.1L812.1,318.7z M874.9,451c0.8,0.7,1.5,1.3,2.3,1.9l33.5-41.4l-1.7-1.4L874.9,451z M904.3,406l-36.2,39
	c0.7,0.7,1.5,1.3,2.2,2l35.5-39.6C905.4,407,904.8,406.5,904.3,406L904.3,406z M898.3,400l-38.8,36.4c0.7,0.7,1.4,1.5,2.1,2.2
	l38.2-37.1C899.3,401.1,898.8,400.5,898.3,400L898.3,400z M1043.3,425.3l24.2,47.3c0.9-0.5,1.8-0.9,2.7-1.4s1.8-1,2.6-1.4
	s1.8-1,2.7-1.5s1.7-1,2.6-1.5l-27.4-45.5l-1.8,1.1l-1.9,1.1l-1.8,1L1043.3,425.3z M1033.8,429.7l-2,0.8L1051,480
	c1-0.4,1.9-0.7,2.8-1.1c0.9-0.4,1.8-0.8,2.8-1.1l-20.9-48.8L1033.8,429.7z M1007.4,437.1l8.6,52.3c1-0.2,2-0.3,3-0.5l-9.5-52.2
	L1007.4,437.1z M1138.2,226.4c-0.5-0.9-1.1-1.7-1.6-2.6l-45.2,28.1c0.4,0.6,0.7,1.2,1.1,1.8L1138.2,226.4z M1038.5,205.2l1.9,0.9
	c0.6,0.3,1.3,0.6,1.9,1l23.8-47.5c-0.9-0.5-1.8-0.9-2.8-1.4s-1.8-0.9-2.8-1.3s-1.8-0.8-2.7-1.2l-21.3,48.6L1038.5,205.2z
	 M1046.7,151.3c-0.9-0.3-1.9-0.7-2.8-1l-17,50.3l2,0.7L1046.7,151.3z M1035.8,276.4l41-34l-1.3-1.6l-40.4,34.7
	C1035.3,275.9,1035.6,276.1,1035.8,276.4z M942.2,79.5c1.3-0.2,2.7-0.5,4-0.7s2.8-0.5,4.1-0.7l-8.2-52.7c-1.7,0.3-3.4,0.5-5,0.8
	s-3.3,0.6-4.9,0.9s-3.4,0.6-5.1,1l10.9,52.2C939.4,80,940.8,79.8,942.2,79.5z M871.7,314l53.2,1.1c0-0.4,0-0.7,0-1.1l-53.1-2.1
	C871.7,312.6,871.7,313.3,871.7,314z M927.3,299.1l-51.1-14.7c-0.2,0.6-0.4,1.3-0.5,1.9l51.4,13.8
	C927.1,299.8,927.2,299.5,927.3,299.1L927.3,299.1z M928.6,295l-50-18.2c-0.2,0.7-0.5,1.3-0.7,1.9l50.3,17.3
	C928.3,295.7,928.5,295.4,928.6,295L928.6,295z M929.4,293L880,273.1c-0.3,0.6-0.5,1.3-0.8,1.9l49.8,19L929.4,293z M932.1,287.2
	l-47-24.9c-0.3,0.6-0.6,1.2-0.9,1.8l47.5,24.1C931.8,287.8,931.9,287.5,932.1,287.2L932.1,287.2z M1097.8,280.7
	c-0.2-0.6-0.4-1.3-0.6-1.9s-0.4-1.3-0.7-1.9l-50,18.2c0.1,0.4,0.2,0.7,0.4,1s0.2,0.7,0.3,1L1097.8,280.7z M1039,280.7l43.7-30.4
	c-0.4-0.5-0.7-1.1-1.1-1.6l-43.2,31.1L1039,280.7z M939.3,276.4l-41-34c-0.4,0.5-0.8,1-1.3,1.6l41.5,33.3L939.3,276.4z
	 M1062.8,228.2l-34.6,40.5l0.8,0.7l35.2-39.9L1062.8,228.2z M1043.5,288.1L1091,264c-0.3-0.6-0.6-1.2-0.9-1.8l-47,24.9L1043.5,288.1
	z M1103.4,320l-53.1-1.6c0,0.4,0,0.7,0,1l53.1,2.5C1103.3,321.2,1103.4,320.6,1103.4,320z M1108.6,525.3c-1.2,0.7-2.4,1.4-3.7,2.1
	s-2.4,1.3-3.6,2l25.1,47c1.5-0.8,2.9-1.6,4.4-2.4c1.5-0.8,3-1.7,4.5-2.5s2.9-1.7,4.3-2.6l-27.5-45.6
	C1110.9,523.9,1109.8,524.6,1108.6,525.3L1108.6,525.3z M1090.1,535l22.6,48.2c1.6-0.7,3.1-1.5,4.6-2.2l-23.5-47.8
	C1092.6,533.7,1091.4,534.3,1090.1,535L1090.1,535z M1154.9,490.4c-1,1-2,1.9-3,2.9s-2,1.9-3.1,2.8s-2.1,1.9-3.1,2.8l34.8,40.2
	c1.3-1.1,2.5-2.2,3.8-3.4s2.5-2.3,3.8-3.4s2.5-2.3,3.7-3.5s2.4-2.3,3.6-3.5l-37.6-37.8C1156.8,488.5,1155.8,489.4,1154.9,490.4
	L1154.9,490.4z M1129.5,511.7l31.3,43.1c1.3-1,2.7-2,4-2.9l-32-42.5C1131.6,510,1130.6,510.9,1129.5,511.7L1129.5,511.7z
	 M1160.8,484.5l38.2,37c1.2-1.2,2.3-2.4,3.5-3.7l-38.9-36.4C1162.7,482.5,1161.7,483.5,1160.8,484.5L1160.8,484.5z M1082.6,538.3
	c-1.3,0.5-2.5,1.1-3.8,1.6l20.1,49.3c1.6-0.6,3.1-1.3,4.6-1.9s3.1-1.3,4.6-2l-21.8-48.6C1085.1,537.2,1083.8,537.8,1082.6,538.3
	L1082.6,538.3z M1171.9,472.3l40.7,34.4c1.1-1.3,2.2-2.7,3.3-4l-41.3-33.7C1173.7,470.1,1172.8,471.1,1171.9,472.3L1171.9,472.3z
	 M1051.2,549.3c-1.3,0.4-2.7,0.7-4,1.1l13.2,51.6c1.6-0.4,3.2-0.8,4.9-1.3s3.3-0.9,4.9-1.4l-14.9-51.2
	C1053.8,548.5,1052.5,548.8,1051.2,549.3L1051.2,549.3z M924.8,318.4c0-0.4,0-0.7,0-1.1l-53.2,0.7c0,0.7,0,1.4,0,2L924.8,318.4z
	 M1189.3,448.9c-0.8,1.2-1.6,2.4-2.4,3.5l44,30c1-1.4,1.9-2.9,2.9-4.3s1.9-2.9,2.8-4.3l-45-28.5
	C1190.8,446.6,1190.1,447.7,1189.3,448.9z M1221.1,377c-0.3,1.3-0.7,2.7-1.1,4l51.3,14.3c0.4-1.6,0.9-3.2,1.3-4.9s0.8-3.3,1.2-4.9
	l-51.8-12.5C1221.8,374.4,1221.5,375.7,1221.1,377z M1223.9,365c-0.3,1.3-0.6,2.7-0.9,4l52,11.6c0.4-1.6,0.7-3.2,1.1-4.9
	s0.7-3.5,1-5.2l-52.4-9.8C1224.5,362.2,1224.2,363.6,1223.9,365z M1225.4,356.8l52.5,8.9c0.3-1.6,0.6-3.3,0.8-4.9l-52.7-8
	C1225.9,354.1,1225.7,355.4,1225.4,356.8z M1228.3,332c-0.1,1.4-0.2,2.8-0.3,4.2s-0.2,2.7-0.4,4s-0.3,2.8-0.5,4.2l52.9,6.2
	c0.2-1.7,0.4-3.5,0.6-5.2s0.3-3.2,0.4-4.9s0.3-3.5,0.4-5.2L1228.3,332z M1179.7,462.5l42.4,32.2c1.1-1.4,2.1-2.8,3.2-4.2l-43-31.5
	C1181.4,460.2,1180.6,461.4,1179.7,462.5L1179.7,462.5z M1217.7,389c-0.4,1.3-0.9,2.7-1.3,4c-0.4,1.3-0.9,2.5-1.3,3.8
	s-0.9,2.7-1.4,4l49.9,18.6c0.6-1.6,1.2-3.2,1.8-4.9c0.5-1.5,1.1-3.1,1.6-4.6s1.1-3.2,1.6-4.9s1-3.2,1.5-4.9l-51-15.2
	C1218.5,386.4,1218.1,387.7,1217.7,389L1217.7,389z M1035,553c-1.4,0.3-2.7,0.5-4.1,0.8s-2.8,0.5-4.1,0.7l8.7,52.6
	c1.7-0.3,3.4-0.5,5-0.8s3.3-0.6,5-1s3.3-0.7,4.9-1l-11.3-52C1037.7,552.5,1036.4,552.8,1035,553z M1207.3,416.1
	c-0.6,1.3-1.2,2.5-1.8,3.8s-1.2,2.5-1.8,3.7s-1.3,2.5-1.9,3.8l47.3,24.5c0.8-1.5,1.6-3,2.3-4.6c0.8-1.5,1.5-3.1,2.2-4.6
	c0.7-1.5,1.4-3.1,2.2-4.6s1.4-3.1,2-4.6l-48.8-21.2C1208.4,413.6,1207.9,414.9,1207.3,416.1L1207.3,416.1z M1059.2,546.9l15.8,50.9
	c1.6-0.5,3.2-1,4.7-1.5l-16.7-50.6C1061.8,546.1,1060.5,546.5,1059.2,546.9z M988.1,379.2l0.5,53.3h2l-1.4-53.3H988.1z M894.5,93.8
	c1.3-0.5,2.5-1.1,3.8-1.6l-19.7-49.5c-1.6,0.6-3.1,1.3-4.7,1.9c-1.5,0.7-3.1,1.3-4.6,2l21.4,48.8C892,94.9,893.2,94.3,894.5,93.8z
	 M857.7,113c1.2-0.8,2.4-1.5,3.6-2.2l-27.9-45.4c-1.5,0.9-2.9,1.8-4.4,2.7s-2.7,1.8-4.1,2.7l29.4,44.4
	C855.4,114.5,856.5,113.8,857.7,113z M801.8,162.3l-41-34c-1.1,1.3-2.2,2.6-3.2,4l41.6,33.3C800.1,164.5,801,163.4,801.8,162.3
	L801.8,162.3z M844,122.5l-31.7-42.8c-1.3,1-2.6,2-3.9,3l32.4,42.3C841.8,124.1,842.9,123.3,844,122.5z M921.9,84.2L907.4,33
	c-1.6,0.5-3.3,1-4.9,1.4l15.4,51C919.2,85,920.5,84.6,921.9,84.2L921.9,84.2z M878.9,357l49.8-18.6c-0.1-0.3-0.2-0.7-0.4-1
	s-0.2-0.6-0.3-1l-50.5,16.9c0.2,0.6,0.4,1.2,0.6,1.8S878.7,356.4,878.9,357z M940.4,357.8l-0.7-0.8L899,391.3l1.3,1.5L940.4,357.8z
	 M886.9,97.1l-22.2-48.4c-1.6,0.7-3.1,1.4-4.7,2.2l23.1,48C884.4,98.3,885.7,97.7,886.9,97.1z M955,427.9l1.9,0.5L971,377l-1-0.3
	L955,427.9z M982.5,22c-1.7,0-3.3,0-5,0.1c-1.7,0.1-3.5,0.1-5.2,0.2l2.8,53.2c1.4-0.1,2.8-0.1,4.2-0.2s2.7-0.1,4.1-0.1L982.5,22z
	 M982.5,432.4l2,0.1l1.4-53.3h-1.1L982.5,432.4z M958,371.8l-25.1,47l1.8,0.9l24.3-47.4L958,371.8z M794.2,172l-42.7-31.9
	c-1,1.4-2.1,2.8-3.1,4.3l43.2,31.1C792.5,174.3,793.3,173.2,794.2,172z M760.8,234l-50.1-18.2c-0.6,1.6-1.2,3.3-1.7,4.9l50.4,17.3
	C759.8,236.6,760.3,235.3,760.8,234z M798.4,542.3c1.3,1.1,2.6,2.1,3.9,3.2l33.5-41.4c-1.1-0.9-2.1-1.7-3.2-2.6L798.4,542.3z
	 M955.2,370.2l-27.5,45.6l1.7,1l26.7-46.1L955.2,370.2z"/>
<path class="st5" d="M665,492.3v-99.5h23.4c10.8,0,19.3,3.5,25.6,10.4c6.3,6.9,9.5,16.4,9.7,28.5v20.9c0,12.5-3.2,22.2-9.5,29.3
	c-6.4,7-15.3,10.5-26.8,10.5L665,492.3z M672.8,400.2v84.9h15.1c8.9,0,15.8-2.7,20.6-8.2c4.9-5.5,7.4-13.3,7.5-23.6v-20.8
	c0-10.2-2.4-18.1-7.1-23.8c-4.8-5.7-11.7-8.5-20.7-8.5L672.8,400.2z"/>
<path class="st5" d="M783,464.5h-37.4l-8.5,27.8H729l31.7-99.5h7.3l31.7,99.5h-8.1L783,464.5z M747.9,457.2h32.8l-16.4-53.4
	L747.9,457.2z"/>
<path class="st5" d="M818.1,492.3h-7.8v-99.5h7.8L818.1,492.3z"/>
<path class="st5" d="M845.3,485.1h41v7.2h-48.9v-99.5h7.9L845.3,485.1z"/>
<path class="st5" d="M905.2,446.9l24.8-54.1h9l-30,62.1v37.5h-7.8v-37.5l-29.9-62.1h9.2L905.2,446.9z"/>
<path class="st5" d="M695.9,578.5h-23.2v41.4h-7.9v-99.5h27.3c9.1,0,16.1,2.6,21.1,7.8c5,5.2,7.5,12.4,7.5,21.6
	c0.1,6-1.5,11.8-4.7,16.9c-2.9,4.7-7.3,8.2-12.5,10.1l20.7,42.3v0.9h-8.3L695.9,578.5z M672.7,571.2h20.8c5.9,0,10.6-2,14.1-6
	s5.3-9.2,5.3-15.5c0-7-1.8-12.4-5.5-16.2s-8.8-5.8-15.3-5.8h-19.3V571.2z"/>
<path class="st5" d="M798.7,619.9h-7.9v-47.7h-46.8v47.7h-7.8v-99.5h7.8V565h46.8v-44.7h7.9V619.9z"/>
<path class="st5" d="M839.6,574.5l24.8-54.1h9l-29.9,62.1v37.5h-7.8v-37.5l-29.9-62.1h9.2L839.6,574.5z"/>
<path class="st5" d="M940.5,527.7h-28.3v92.2h-7.9v-92.2h-28.2v-7.4h64.4V527.7z"/>
<path class="st5" d="M1013.3,619.9h-7.9v-47.7h-46.8v47.7h-7.8v-99.5h7.8V565h46.8v-44.7h7.9L1013.3,619.9z"/>
<path class="st5" d="M1041.7,520.3l30.2,87.6l30.3-87.6h10.3v99.5h-7.8v-43.1l0.7-43.4l-30.5,86.5h-6l-30.3-86.1l0.7,42.7v43.4h-7.8
	v-99.5H1041.7z"/>
</svg>
