<svg id="Layer_1" data-name="Layer 1" xmlns="http://www.w3.org/2000/svg" viewBox="0 0 1320 670"><defs><style>.cls-1{fill:#51c3f0;}.cls-2{fill:#ffce08;}.cls-3{fill:#ed3766;}.cls-4{fill:#fff8ce;}.cls-5{fill:#fff8cd;}.cls-6{fill:#ee3766;}</style></defs><title>yg-beatles-170816-0918-wireframes-index</title><path class="cls-1" d="M321.22,194.28c.72,0,1.44-.06,2.16-.08l2.09-.05,2.09,0h0l2.09,0,2.09.05,2.14.08,2.09.13,2.1.16,2.08.19,2.08.24,2.11.27,2.08.3,2.09.35,2,.37,2.1.42,10.88-51.91c-1-.21-2-.4-3-.59l-2.91-.53c-1-.17-2-.34-3-.49s-2-.29-3-.42l-3-.39c-1-.12-2-.24-3-.34s-2-.18-3-.27l-3-.23c-1-.07-2-.14-3-.19s-2-.08-3.07-.12l-3-.08c-1,0-2,0-3,0h0c-1,0-2,0-3,0l-3,.07c-1,0-2.06.07-3.08.12s-2,.12-3,.19l3.65,52.88Zm-8.35.72,2.09-.24,2.08-.19-4.55-52.81c-1,.08-2,.17-3,.27s-2,.22-3,.34l-3,.39,7.28,52.51Zm-85.71,51.73c.39-.56.78-1.12,1.18-1.68s.85-1.18,1.29-1.77.84-1.11,1.26-1.65l1.26-1.6c.44-.55.89-1.1,1.34-1.65l-41-34c-.65.78-1.29,1.58-1.93,2.37s-1.22,1.52-1.81,2.29-1.22,1.58-1.82,2.38-1.24,1.68-1.85,2.53-1.14,1.6-1.7,2.41-1.17,1.69-1.74,2.54l44.3,29.62C226.34,247.91,226.74,247.33,227.15,246.74Zm-8.63,14.46c.32-.64.65-1.27,1-1.89s.64-1.21,1-1.81.66-1.2,1-1.8.74-1.26,1.11-1.89.73-1.21,1.1-1.81l-45.28-28.11q-.8,1.29-1.59,2.6c-.54.9-1.08,1.8-1.6,2.71s-1,1.72-1.45,2.58-.94,1.73-1.4,2.6-1,1.81-1.42,2.72-.91,1.8-1.35,2.71l48,23.28Q218,262.14,218.52,261.2Zm-4.34,9.56c.26-.65.52-1.29.79-1.93s.55-1.28.84-1.92l-48.74-21.6c-.4.91-.81,1.82-1.2,2.74s-.76,1.84-1.13,2.77-.76,1.92-1.13,2.88l49.79,19.07Q213.79,271.75,214.19,270.76Zm-2.89,8c.22-.68.44-1.35.67-2l-50.42-17.34c-.33,1-.65,1.94-1,2.91s-.59,1.82-.87,2.74l51,15.63C210.88,280,211.09,279.38,211.29,278.74ZM208,290.92c.15-.72.31-1.44.47-2.15s.32-1.35.49-2l-51.71-13c-.24,1-.48,1.93-.71,2.91s-.45,2.06-.67,3.09-.4,1.94-.59,2.92L207.63,293Q207.82,291.93,208,290.92Zm-1.45,8.23c.1-.68.2-1.35.3-2s.23-1.43.36-2.15l-52.48-9.37c-.18,1-.35,2.06-.51,3.09s-.29,1.94-.43,2.91-.29,2.06-.42,3.09l52.89,6.61C206.38,300.58,206.48,299.87,206.58,299.15ZM167.68,389c.42.92.85,1.83,1.28,2.74s.88,1.82,1.33,2.72.91,1.83,1.38,2.74.91,1.75,1.38,2.61,1,1.82,1.51,2.72L221,376.38c-.35-.63-.71-1.26-1.05-1.9s-.64-1.21-1-1.82-.65-1.27-1-1.91-.62-1.26-.92-1.9-.6-1.27-.89-1.92-.56-1.27-.84-1.91-.55-1.28-.81-1.92l-49.27,20.36q.57,1.38,1.17,2.75C166.87,387.15,167.27,388.07,167.68,389Zm-10-28.45c.25,1,.52,1.94.78,2.9s.55,2,.84,2.93.58,1.95.88,2.91.62,1.94.94,2.91.63,1.83.95,2.74.69,1.95,1.05,2.91l50-18.64q-.38-1-.73-2c-.22-.64-.45-1.27-.66-1.91s-.44-1.35-.66-2-.41-1.35-.61-2-.4-1.36-.59-2-.37-1.34-.55-2-.34-1.36-.5-2-.32-1.35-.47-2l-52,11.61q.32,1.47.67,2.92C157.15,358.58,157.38,359.56,157.63,360.53ZM155,348.69c.19,1,.38,2.06.59,3.08L207.83,341c-.14-.71-.28-1.43-.41-2.14ZM238.35,400c-.48-.52-1-1-1.43-1.55s-.92-1-1.38-1.55-.9-1-1.35-1.58-.93-1.1-1.38-1.66-.85-1.05-1.27-1.59l-41.84,33q.91,1.14,1.83,2.27t2,2.39q1,1.14,1.94,2.26c.65.74,1.31,1.49,2,2.22s1.37,1.49,2.07,2.23Zm-57.52,12.74c.57.86,1.14,1.72,1.72,2.57s1.11,1.62,1.68,2.42,1.15,1.59,1.73,2.38l43-31.47c-.4-.55-.81-1.1-1.2-1.66s-.79-1.13-1.17-1.69-.8-1.19-1.19-1.78-.77-1.18-1.15-1.78-.75-1.2-1.12-1.8l-45.54,27.68c.53.87,1.08,1.73,1.62,2.59S180.27,411.94,180.83,412.78Zm83.6,8.43L237,466.73q1.28.77,2.58,1.52l26.65-46Zm-44.85,33.55c.8.62,1.61,1.25,2.43,1.86l32-42.48-1.69-1.3Zm21.74-51.65-37.55,37.73q1.05,1,2.13,2.07l36.9-38.36Zm64.25,33.7L296,489c1,.18,2,.34,3,.51l8.62-52.32ZM275.48,484c1,.3,1.94.58,2.91.86l14.88-50.93-2-.61Zm7.82-53.45L264.1,480c.93.36,1.87.72,2.81,1.06l18.35-49.81Zm-5.83-2.44-21.73,48.46q1.36.61,2.74,1.2l20.9-48.81Zm-3.82-1.8-1.91-1-24.24,47.27c.91.46,1.83.91,2.75,1.36l2.77,1.33,22.56-48.08Zm71.76,11.22-2.08.29-2.11.25-2.08.22-2.15.19,4.08,52.85c1-.08,2.06-.18,3.09-.27l3-.31c1-.11,2-.22,3-.35s2-.27,3-.42l2.92-.45-8.63-52.31Zm16.42-3.59-2,.58-2,.54-2,.5-2.09.47-2,.43,10.44,52,2.93-.61c1-.22,2-.44,3-.67l2.91-.71c1-.24,1.93-.5,2.89-.76l2.92-.82c1-.28,1.94-.56,2.91-.86L363.87,433.3Zm6-1.93-2,.69,16.6,50.4,2.92-1c.95-.33,1.9-.66,2.84-1l-18.35-49.81Zm11.65-4.77,22.56,48.08q1.38-.65,2.76-1.32l-23.39-47.69Zm11.16-6,27.44,45.52c.86-.51,1.7-1,2.54-1.57l-28.21-45.05ZM334.9,438.56l-2.08.11-2.1.08,1.37,53c1,0,2-.07,3-.12l3-.15Zm101.19-65.9c-.32.61-.63,1.22-1,1.82L482,399.79c.47-.86.92-1.74,1.38-2.61s.93-1.82,1.38-2.74L437,370.76C436.73,371.4,436.42,372,436.09,372.66Zm2.78-5.71,48.56,22c.41-.91.81-1.82,1.21-2.74L439.7,365C439.43,365.68,439.15,366.32,438.86,367ZM405.22,222,439,180.93c-.77-.63-1.55-1.25-2.33-1.87L403.6,220.71C404.14,221.14,404.68,221.58,405.22,222Zm3.21,2.75c.53.47,1.05.94,1.57,1.41l35.89-39.3c-.74-.68-1.5-1.35-2.26-2s-1.5-1.31-2.26-2l-34.51,40.49Zm7.57,7.29,38.52-36.75c-.68-.71-1.38-1.42-2.07-2.12l-37.89,37.39C415,231.08,415.52,231.57,416,232.07Zm-53.13-32.75,2,.61,2,.66,17-50.26c-1-.32-1.92-.63-2.89-.94l-2.82-.87c-1-.29-1.94-.58-2.92-.86s-2-.53-2.93-.79-1.93-.49-2.9-.73l-12.67,51.51,2,.51,2,.55Zm23.86-48-17.9,50,2,.73,2,.77,1.94.79,1.91.83L398,155.77c-.91-.4-1.82-.8-2.74-1.18l-2.79-1.14c-.95-.38-1.9-.74-2.86-1.1Zm-2.49,56.75,1.84,1,1.86,1,1.8,1.05,1.79,1.08c.61.38,1.22.75,1.82,1.14l1.71,1.12,1.78,1.21L427,171.89q-1.27-.87-2.56-1.72c-.81-.54-1.63-1.08-2.45-1.6s-1.74-1.09-2.62-1.63-1.71-1-2.57-1.54-1.71-1-2.58-1.5-1.78-1-2.68-1.49-1.76-.94-2.64-1.4l-2.66-1.36-23.81,47.48ZM559.84,351.79l-52.55-8c-.15,1-.32,2-.49,3l52.41,8.88C559.43,354.4,559.65,353.1,559.84,351.79ZM363.3,494.58l10.49,52.26c1.31-.26,2.61-.54,3.91-.82l-11.37-52.07Q364.82,494.28,363.3,494.58ZM361.69,138c1,.2,2.08.4,3.12.61l3,.66c1,.23,2.07.48,3.11.74l3,.76c1,.27,2,.54,3,.82l14.5-51.3c-1.31-.37-2.62-.72-3.93-1.06s-2.58-.66-3.88-1-2.67-.65-4-1-2.6-.58-3.91-.85-2.7-.54-4.05-.8-2.58-.48-3.88-.71l-9.14,52.51Zm8.1,409.59-9.59-52.43-3.1.52,8.67,52.59C367.11,548.07,368.45,547.85,369.79,547.61ZM351,496.6c-1,.13-2.08.24-3.12.36l6,53c1.35-.15,2.7-.3,4-.47s2.67-.36,4-.56l-7.78-52.73C353,496.32,352,496.47,351,496.6Zm-9.42,1c-1,.08-2.06.13-3.1.19L341.65,551c1.34-.08,2.69-.15,4-.25s2.76-.24,4.13-.37l-5-53.05C343.7,497.38,342.64,497.48,341.56,497.56Zm1.6-362.07c1,.09,2.06.17,3.09.28s2.07.23,3.11.35l3.12.4c1,.14,2.06.28,3.09.44l8.22-52.66c-1.32-.2-2.66-.38-4-.57s-2.69-.36-4-.52-2.67-.32-4-.46-2.66-.24-4-.36-2.68-.22-4-.31-2.67-.18-4-.25l-2.76,53.22c1,.05,2.07.13,3.1.2Zm-9.54,415.82c1.35,0,2.68-.09,4-.15l-2.29-53.24c-1,0-2.07.09-3.11.12Zm.14-416.37,1.82-53.26q-2-.07-4-.1c-1.34,0-2.67-.05-4-.05v53.29c1,0,2.07,0,3.1,0Zm-6.21,416.45,2.07,0-.47-53.29-1.59,0h0l-1.6,0c-1,0-2.07,0-3.1,0l-1.38,53.27c1.33,0,2.67,0,4,.05Zm91.06-163.17-41.82-33c-.22.27-.43.55-.65.82l41.26,33.63C417.81,389.22,418.21,388.72,418.61,388.22ZM384.89,291c.14.33.3.65.44,1s.26.66.39,1l49.34-19.89c-.25-.61-.49-1.22-.75-1.83s-.52-1.21-.79-1.81-.54-1.2-.82-1.8-.57-1.22-.86-1.83L384,289.07c.16.33.31.66.46,1Zm51.61-14.19c-.22-.61-.46-1.22-.69-1.83l-49.68,19c.13.33.26.65.38,1ZM443,326q.08-1,.14-2c0-.68.08-1.35.12-2l-53.09-2.49c0,.37,0,.74-.07,1.11s-.05.73-.08,1.09,0,.7-.08,1l52.9,5.25Q443,326.93,443,326Zm.29-14c0-.64,0-1.28-.08-1.92s-.08-1.36-.13-2-.1-1.28-.16-1.92-.12-1.36-.2-2-.14-1.28-.22-1.92l-52.76,6.59c0,.34.1.69.13,1s.07.74.1,1.11.06.69.08,1,.06.73.08,1.1,0,.69,0,1,0,.74,0,1.11L443.41,314C443.39,313.29,443.37,312.61,443.34,311.93Zm-1.52,23.88c.11-.64.21-1.28.31-1.93s.2-1.36.28-2,.16-1.28.24-1.92l-52.8-6.18c0,.35-.09.69-.13,1s-.09.74-.14,1.11-.12.7-.18,1-.12.69-.19,1l52.27,9.76C441.6,337.1,441.71,336.45,441.82,335.81Zm-54-36.69c.1.35.2.69.3,1s.19.69.27,1,.16.7.24,1,.17.73.25,1.1.14.69.21,1,.12.69.19,1,.14.73.2,1.1.1.69.15,1L442.28,300c-.09-.64-.19-1.28-.29-1.92s-.22-1.36-.34-2-.24-1.28-.36-1.92-.26-1.29-.39-1.92-.29-1.37-.45-2-.31-1.28-.47-1.91-.33-1.29-.5-1.93-.35-1.29-.53-1.93-.38-1.28-.57-1.92-.38-1.21-.57-1.81L387.22,297.1c.11.32.22.65.32,1S387.73,298.78,387.84,299.13Zm52.84,42.58-51.9-11.58c-.08.34-.16.69-.24,1l51.7,12.46C440.39,343,440.53,342.35,440.68,341.7Zm-3.19,11.54q.32-1,.62-1.91c.2-.64.39-1.28.58-1.92s.38-1.29.56-1.93L388,333.24l-.3,1.05c-.1.35-.2.69-.31,1s-.24.69-.35,1-.21.65-.33,1l50.15,17.72C437.07,354.46,437.28,353.86,437.48,353.25Zm-24,41,1.3-1.47-40.07-35.06c-.23.27-.46.54-.7.8l-.74.79,38.85,36.41ZM357.57,261.38l1,.55,26.32-46.35-1.77-1Zm20.19-49.53-1.84-.86-1.8-.81-1.82-.79-1.84-.75-19.72,49.54,1,.4,1,.43,1,.44,1,.45,1,.5.95.49,24.7-47.23-1.75-.9Zm-32.1,44.54,1,.31,1,.35,1,.34,18-50.18-1.88-.66-1.91-.62-1.86-.58-1.93-.57-14.5,51.31Zm60.82,145c.49-.46,1-.91,1.46-1.38l1.4-1.37.19-.19c.42-.42.83-.85,1.24-1.28l-38.22-37.08c-.26.27-.51.54-.77.8s-.51.49-.76.73l-.79.75-.79.73L405,402.75C405.5,402.3,406,401.85,406.48,401.39Zm-59-199.26-2-.33-8.23,52.66,1.07.19,1,.19,1.09.21,10.93-52.17-2-.39Zm52.24,23.52-1.58-1.24-1.56-1.18L394.88,222l-1.6-1.12-1.69-1.15L390,218.68l-1.73-1.08-1.7-1-27.1,45.89.92.55.92.59.89.57.91.62.86.61.91.65.83.64.85.67c.28.22.56.43.84.66l.84.73,34.56-40.54c-.52-.44-1-.89-1.56-1.32Zm9.85,8.81-.9-.88c-.47-.46-.93-.91-1.41-1.36l-1.46-1.37-1.49-1.34L369,269.44l.81.71c.27.24.52.5.78.74l.77.73.79.78.73.77,38.53-36.77c-.45-.47-.91-.94-1.37-1.4Zm-29.27,48,.58.9.57.93c.19.32.37.65.56,1s.35.61.52.91l.5.93,47-24.87q-.46-.86-.92-1.72c-.31-.57-.63-1.14-1-1.71s-.7-1.2-1.05-1.79-.69-1.15-1-1.72-.7-1.12-1.05-1.67-.71-1.09-1.07-1.62-.77-1.13-1.16-1.69l-43.72,30.36c.21.3.43.6.64.91S380.07,282.2,380.26,282.49Zm39-37L418,244c-.42-.52-.84-1-1.27-1.57l-41,34c.23.28.45.56.68.85l.65.82c.22.28.45.56.66.84s.44.61.65.91l43.2-31.1c-.4-.56-.81-1.12-1.22-1.67S419.63,246,419.22,245.49Zm-6.42-7.61L373.65,274l.73.81.7.8,40.36-34.73c-.43-.5-.86-1-1.3-1.48Zm-71.35,17.4,1.07.25,12.73-51.77-2-.47Zm30,168.6,1.82-.76,1.81-.8,1.8-.83L354.2,373.24l-1,.44-1,.44-1,.41-1,.4,19.29,49.71Zm-30.9,7.88,2-.24-6.88-52.87-1.08.14-1.06.11,5,53.06Zm40-12.06c.59-.3,1.17-.61,1.75-.93l1.72-.95,1.77-1,1.7-1,1.68-1,1.72-1.1,1.61-1.06,1.64-1.14-30.56-43.65c-.29.21-.58.42-.88.63l-.88.57-.93.59c-.3.19-.6.39-.91.58l-.93.53-.95.55-.94.52-.95.48-1,.5,23.49,47.85Zm16.84-10.6,1.59-1.23c.53-.42,1.05-.84,1.58-1.27l1.52-1.26,1.5-1.28-34.9-40.25-.81.7-.82.68-.86.67-.86.68-.85.62,31.33,43.09Zm-37.24,18.75,1.93-.57,1.86-.6,1.93-.66,1.87-.67-18.42-50-1,.35-1,.35-1,.34c-.35.11-.7.2-1.05.3l-1,.3,14,51.43Zm-28.75-48.78,3.19,53.2,2-.13L332.39,379Zm7.51-.91-1.07.19,8.67,52.6,2-.34,2-.38L339.9,378ZM335.54,200.7l-2-.13-2-.08-1.82,53.27,1.1,0,1.06.08,1.08.08L334,254l5.49-53-2-.18Zm-5,231.75,2-.08-2.29-53.25-1.07,0Zm-21.63-56.08-1-.34-1.05-.36-1-.35-1-.39-1-.4-1-.41-1-.44-1-.44-1-.48-23.48,47.85,1.83.88,1.79.83,1.82.8,1.82.76,1.89.76,1.85.71,1.88.67,1.93.66,1.85.6c.64.2,1.29.39,1.93.58L310,376.67C309.63,376.57,309.27,376.48,308.92,376.37ZM132.86,459.05l-43,31.47q1.56,2.12,3.15,4.22l42.4-32.23Q134.13,460.79,132.86,459.05Zm-11.53-17.22L75.81,469.51c.89,1.46,1.8,2.9,2.71,4.34l45-28.46C122.8,444.21,122.05,443,121.33,441.83Zm4.49,7.08L81.29,478.14c1,1.45,1.91,2.89,2.88,4.31l44-30Q127,450.69,125.82,448.91Zm87.29-150.79,52.49,8.41c.06-.37.13-.73.2-1.1l-52.35-9.35C213.32,296.76,213.21,297.44,213.11,298.12ZM298,371.78l-.94-.52-25.92,46.57,1.73,1Zm-85.87-65.73c-.06.64-.11,1.28-.16,1.92s-.09,1.35-.13,2l53.07,3c0-.37.06-.74.08-1.1s0-.69.08-1,.06-.74.1-1.11L212.33,304C212.25,304.69,212.19,305.37,212.13,306.05ZM143.24,472.23l-40.67,34.38q1.61,1.91,3.26,3.8l40.09-35.06C145,474.32,144.13,473.28,143.24,472.23Zm136.43-115.3-.72-.84-.65-.82-.67-.86-.67-.9-.61-.86c-.2-.29-.41-.56-.61-.85l-.61-.92-.59-.92c-.19-.3-.4-.6-.59-.91s-.36-.62-.54-.93L227.48,375c.33.57.67,1.14,1,1.7s.7,1.14,1.06,1.71.72,1.13,1.09,1.69.75,1.13,1.13,1.69.74,1.08,1.11,1.61.76,1.05,1.14,1.58.82,1.11,1.24,1.66.81,1.07,1.23,1.6l1.21,1.5q.65.79,1.31,1.58ZM138,465.83l-41.84,33c1,1.28,2,2.55,3.07,3.82L140.52,469C139.67,467.92,138.83,466.88,138,465.83ZM358.66,555.7c-1.38.18-2.76.33-4.15.48s-2.73.29-4.1.42l5.05,53.05c1.67-.16,3.34-.33,5-.52s3.39-.37,5.07-.59,3.35-.46,5-.7l-7.78-52.72C361.41,555.33,360,555.52,358.66,555.7ZM436.16,357l-49.84-18.6c-.12.34-.26.66-.39,1s-.27.69-.41,1-.28.66-.42,1l-.44,1c-.15.33-.29.66-.44,1l48.06,22.81c.28-.6.57-1.2.84-1.81s.53-1.2.79-1.81.52-1.21.77-1.82.52-1.27.77-1.91S435.93,357.59,436.16,357ZM540,431c-.68,1.25-1.37,2.49-2.07,3.73l46.43,26.11c.85-1.51,1.7-3,2.53-4.56ZM304.83,610.11c1.67.13,3.35.22,5,.32l3.2-53.19c-1.37-.08-2.75-.16-4.12-.26ZM166.35,496q-1.55-1.4-3.08-2.82c-1-.95-2-1.9-3-2.86s-2-1.89-2.92-2.85l-.42-.41c-.86-.86-1.71-1.75-2.56-2.62s-1.93-2-2.88-3-1.9-2-2.84-3.06l-39.48,35.74c1.14,1.26,2.3,2.5,3.46,3.73s2.33,2.47,3.51,3.68,2.07,2.15,3.13,3.2l.51.5q1.77,1.76,3.56,3.48c1.22,1.18,2.46,2.34,3.7,3.49s2.49,2.3,3.75,3.44,2.53,2.27,3.81,3.38,2.54,2.17,3.82,3.24l34.2-40.83c-1-.88-2.1-1.75-3.13-2.65S167.38,497,166.35,496ZM324.86,379.13l-1.07-.06-1.07-.08-1.11-.08-1.06-.11-1.08-.14-1.07-.14-1-.17-1.07-.19-1.07-.19-1-.23-11.39,52.08,1.94.41,2,.38,2,.34,1.93.3,2,.28,2,.23,2,.2,2,.18,2,.12,2,.1Zm8.93,178.48c-1.37,0-2.74,0-4.12.05l-2.11,0h0l-2.12,0L325,610.94c.87,0,1.73,0,2.59,0s1.72,0,2.59,0c1.68,0,3.36,0,5-.06s3.36-.12,5-.19l-2.29-53.24C336.54,557.51,335.17,557.57,333.79,557.61ZM222,364.35c.28.61.56,1.21.85,1.82s.58,1.2.88,1.8.6,1.21.91,1.81l47.25-24.47-.5-1c-.16-.32-.33-.64-.48-1s-.29-.65-.44-1-.3-.65-.44-1-.28-.65-.42-1L220.4,360.72q.38.91.77,1.82C221.44,363.14,221.7,363.75,222,364.35Zm34.21,43.52,1.61,1.24,1.56,1.16,1.67,1.2,1.64,1.14,1.61,1.06c.57.38,1.15.74,1.73,1.11l1.68,1,27.5-45.64-.9-.57-.93-.59c-.29-.19-.59-.37-.88-.57s-.59-.42-.88-.62l-.91-.65-.85-.63c-.29-.22-.57-.45-.86-.67l-.85-.67-.83-.68-.8-.7-.82-.71-.8-.74-.78-.74-.76-.73c-.26-.26-.51-.53-.77-.8l-.75-.79c-.25-.26-.5-.52-.74-.79s-.46-.54-.7-.8l-40.08,35.05,1.31,1.48c.45.5.9,1,1.36,1.47s.92,1,1.38,1.45.82.85,1.24,1.27l.19.19,1.4,1.37,1.45,1.37,1.48,1.36,1.49,1.33,1.5,1.28,1.52,1.26Zm29.89-138.43.81-.7c.28-.24.55-.49.84-.72s.56-.44.84-.66l.86-.68.84-.64-31.69-42.82L257,224.4l-1.58,1.24-1.54,1.24c-.53.43-1,.88-1.56,1.32l-1.48,1.29-1.5,1.34,35.92,39.32Zm-39.6-35.88-.91.89L245,235c-.46.47-.92.93-1.37,1.41s-.91,1-1.36,1.46L241,239.37l39.77,35.4.73-.81.74-.78.73-.77.78-.77.77-.73-36.6-38.7ZM235.87,245.5c-.4.52-.81,1-1.2,1.57s-.82,1.11-1.22,1.67l-1.12,1.59q-.58.84-1.15,1.68t-1.07,1.64c-.36.55-.71,1.11-1.05,1.67s-.7,1.14-1,1.72-.71,1.19-1.05,1.79l46.18,26.46c.19-.33.37-.66.56-1l.57-.93.58-.9c.19-.3.37-.59.57-.89s.42-.6.63-.91l.61-.86c.22-.3.43-.61.65-.91s.44-.56.66-.84l.65-.83L237.07,244Zm90.61,8.24,1.07,0h0V200.42h0l-2,0-2,0,1.82,53.27Zm-18.81-51.61-1.92.35,10,52.36,1-.19,1.08-.19-8.23-52.66ZM322.16,254l1.07-.08,1.07-.08-2.76-53.22-2,.13-2,.15-2,.18,5.48,53Zm-55.3-36.36-1.73,1.08-1.61,1.06-1.69,1.15L260.22,222l30.93,43.39.86-.61.91-.62.88-.57.93-.6.92-.55.92-.53c.32-.18.63-.37,1-.55l.94-.49-24.71-47.23-1.74.93-1.77,1-1.7,1ZM302.38,259l1-.43,1-.39,1-.4,1-.38,1-.35,1-.35,1-.32-15.39-51-1.87.58-1.9.62-1.88.66-1.86.69-1.89.73-1.84.75-1.82.79-1.8.81,22.22,48.46ZM320,254.18l-6.41-52.92-2,.26,7.32,52.8Zm-105.38,36,51.81,12.05c.08-.35.16-.7.24-1l-51.58-12.92C215,288.92,214.79,289.55,214.64,290.2Zm52.76,44.1c-.1-.35-.2-.7-.3-1.05l-51.25,14.23q.27,1,.56,1.94c.19.64.38,1.28.58,1.92s.41,1.29.62,1.92l50.45-16.88c-.12-.35-.24-.69-.35-1S267.51,334.64,267.41,334.29ZM216.71,282.5l50.85,15.58c.1-.33.21-.65.32-1l-50.59-16.42C217.09,281.29,216.9,281.89,216.71,282.5Zm6.54-16.66c-.29.61-.58,1.22-.86,1.83s-.55,1.19-.81,1.79-.54,1.21-.8,1.82l49,20.73c.14-.33.3-.65.44-1s.29-.65.44-1,.3-.66.46-1,.33-.64.49-1L224.14,264Q223.69,264.94,223.25,265.84Zm-9.44,28.32L266,304.39q.1-.52.21-1l-52-11.11Q214,293.2,213.81,294.16ZM254.61,150c.95-.41,1.89-.83,2.85-1.22l2.88-1.17c1-.39,2-.77,3-1.14s1.94-.72,2.92-1.07,2-.7,2.94-1L252.06,93.87c-1.28.43-2.54.88-3.8,1.34s-2.52.92-3.78,1.39-2.57,1-3.84,1.48-2.49,1-3.73,1.52-2.46,1-3.68,1.58-2.44,1.08-3.65,1.63l22.22,48.45C252.72,150.83,253.67,150.42,254.61,150Zm-11.31,5.42q1.37-.72,2.76-1.42c.95-.47,1.89-.95,2.85-1.4l-23.07-48c-1.23.59-2.46,1.21-3.68,1.82s-2.38,1.21-3.56,1.83-2.37,1.24-3.54,1.88l25.5,46.79C241.47,156.38,242.38,155.9,243.3,155.42ZM209.69,519.81c1.19.69,2.38,1.36,3.58,2l25.91-46.56c-.93-.52-1.85-1-2.77-1.57Zm-45.09-34c1,.94,2,1.86,3,2.79l36.25-39q-1.15-1.07-2.29-2.15Zm-16.55-17.65q1.29,1.53,2.6,3c.87,1,1.75,2,2.64,3s1.83,2,2.76,3,1.86,2,2.8,2.94,1.92,2,2.9,3l37.56-37.74L199,445c-.65-.65-1.28-1.31-1.92-2s-1.45-1.51-2.17-2.27-1.43-1.53-2.14-2.31-1.37-1.53-2-2.3-1.34-1.55-2-2.34-1.38-1.64-2.06-2.47L145.4,465Q146.71,466.59,148.06,468.17ZM128.87,442q1.09,1.72,2.21,3.43t2.29,3.43l44-30q-.9-1.32-1.78-2.66t-1.71-2.64c-.57-.89-1.13-1.78-1.68-2.69s-1.06-1.77-1.58-2.66l-45.93,26.86c.68,1.15,1.35,2.31,2,3.45S128.14,440.88,128.87,442Z"/><path class="cls-2" d="M453.58,447.45l36.92,38.37c1-.92,1.9-1.84,2.84-2.78l-37.55-37.74C455.05,446,454.32,446.74,453.58,447.45Z"/><path class="cls-2" d="M472.28,426.48c-.64.84-1.28,1.68-1.93,2.5s-1.26,1.57-1.9,2.36L509.7,465c.82-1,1.64-2,2.45-3s1.67-2.16,2.5-3.24,1.68-2.24,2.51-3.36l-42.93-31.45Q473.26,425.19,472.28,426.48Z"/><path class="cls-2" d="M476,421.41l43.45,30.72c.76-1.07,1.5-2.16,2.25-3.24l-44-30Q476.9,420.16,476,421.41Z"/><path class="cls-2" d="M482.92,410.92c-.55.9-1.11,1.79-1.67,2.68s-1.14,1.77-1.71,2.65L524,445.44q1.12-1.7,2.21-3.41c.73-1.15,1.45-2.3,2.16-3.47s1.37-2.3,2-3.45L484.5,408.25C484,409.14,483.46,410,482.92,410.92Z"/><path class="cls-2" d="M491.83,394.42c-.45.94-.91,1.88-1.37,2.82s-.95,1.89-1.44,2.83-.94,1.81-1.42,2.7L534.42,428c.63-1.16,1.24-2.33,1.84-3.5s1.25-2.44,1.85-3.67,1.19-2.42,1.77-3.65,1.16-2.44,1.71-3.67l-48.44-22C492.72,392.53,492.28,393.48,491.83,394.42Z"/><path class="cls-2" d="M500,374.17c-.32,1-.65,1.89-1,2.84s-.71,2-1.09,3-.72,1.92-1.09,2.87-.8,2-1.21,3l49.16,20.31c.53-1.29,1.06-2.57,1.57-3.87s.95-2.47,1.41-3.71.95-2.59,1.41-3.9.86-2.44,1.27-3.67.85-2.6,1.26-3.9l-50.72-16C500.65,372.17,500.32,373.18,500,374.17Z"/><path class="cls-2" d="M506.27,349.84c-.2,1.07-.4,2.13-.61,3.19s-.43,2-.65,3l51.89,11.58c.29-1.3.58-2.59.84-3.89s.54-2.75.79-4.13.46-2.6.68-3.9l-52.41-8.88C506.63,347.83,506.46,348.84,506.27,349.84Z"/><path class="cls-2" d="M508.45,334.38c-.1,1.07-.23,2.14-.35,3.21s-.24,2-.37,3l52.68,7.06c.17-1.29.33-2.59.48-3.9s.31-2.75.45-4.13.24-2.59.35-3.9l-53-4.36Q508.6,332.88,508.45,334.38Z"/><path class="cls-2" d="M508.95,328.17l53,3.43c.09-1.38.17-2.75.23-4.13L509.13,325C509.08,326,509,327.11,508.95,328.17Z"/><path class="cls-2" d="M562.46,315.54l-53.14.21c0,.24,0,.47,0,.71,0,.77,0,1.53,0,2.3l53.14.68c0-1,0-2,0-3C562.48,316.15,562.47,315.85,562.46,315.54Z"/><path class="cls-2" d="M475.12,210.26c.6.83,1.18,1.66,1.77,2.5s1.22,1.76,1.81,2.65,1.12,1.69,1.67,2.54,1.11,1.75,1.66,2.62,1.1,1.79,1.64,2.69,1.11,1.86,1.66,2.81,1,1.78,1.5,2.68,1,1.79,1.45,2.69,1,1.87,1.47,2.82.94,1.87,1.4,2.81.91,1.91,1.35,2.87.86,1.88,1.28,2.82.84,1.89,1.24,2.84l49-20.72c-.52-1.23-1.07-2.45-1.61-3.67s-1.09-2.44-1.66-3.64-1.16-2.48-1.75-3.71-1.19-2.43-1.81-3.64-1.26-2.43-1.9-3.64-1.24-2.33-1.87-3.48-1.28-2.32-1.93-3.46-1.42-2.42-2.14-3.63-1.4-2.32-2.12-3.48-1.41-2.27-2.14-3.39-1.44-2.21-2.17-3.3-1.55-2.28-2.34-3.42-1.51-2.16-2.28-3.22-1.64-2.27-2.47-3.39-1.62-2.13-2.45-3.19l-42.08,32.58c.63.82,1.27,1.64,1.89,2.47S474.49,209.38,475.12,210.26Z"/><path class="cls-2" d="M500.51,260.34c.31.94.61,1.89.9,2.84s.61,2,.9,3,.56,2,.83,3,.53,2,.78,3,.5,2,.73,3,.47,2.13.7,3.2l52-11.11c-.29-1.38-.58-2.77-.9-4.14s-.63-2.6-.95-3.89-.66-2.61-1-3.9-.7-2.62-1.07-3.92-.76-2.6-1.16-3.9-.77-2.45-1.16-3.67-.84-2.6-1.29-3.89l-50.29,17.29C499.85,258.33,500.18,259.33,500.51,260.34Z"/><path class="cls-2" d="M507.51,290.71c.15,1.07.3,2.13.43,3.2s.24,2,.34,3l52.84-5.71c-.14-1.3-.29-2.61-.45-3.91s-.36-2.75-.55-4.12-.37-2.61-.58-3.91l-52.49,8.41Q507.3,289.2,507.51,290.71Z"/><path class="cls-2" d="M509.18,309.35c0,1.07.08,2.13.1,3.2l53.13-1.14c0-1.38-.08-2.76-.13-4.13s-.1-2.6-.17-3.9l-53.06,3C509.1,307.34,509.14,308.35,509.18,309.35Z"/><path class="cls-2" d="M503,318.68c0-.74,0-1.48,0-2.22,0-.23,0-.46,0-.69q0-1.54,0-3.07c0-1-.06-2.06-.1-3.09l-53.25,2.08c0,.72.05,1.44.07,2.16s0,1.43,0,2.14c0,.16,0,.31,0,.47,0,.52,0,1,0,1.55,0,.72,0,1.43,0,2.15l53.27,1.61C503,320.74,503,319.71,503,318.68Z"/><path class="cls-2" d="M502.44,330.85c.08-1,.15-2.06.22-3.09s.13-2.05.17-3.08l-53.23-2.5c0,.72-.07,1.43-.12,2.14s-.1,1.44-.15,2.16-.11,1.35-.18,2l53,5.25Q502.33,332.31,502.44,330.85Z"/><path class="cls-2" d="M501.49,339.76c.13-1,.24-1.94.35-2.91l-52.93-6.2c-.08.68-.16,1.35-.25,2s-.19,1.44-.3,2.15l52.7,8C501.22,341.82,501.36,340.79,501.49,339.76Z"/><path class="cls-2" d="M448.51,299.15c.1.72.2,1.43.29,2.15s.16,1.35.23,2l53-5.73q-.16-1.46-.33-2.91c-.13-1-.27-2.06-.42-3.09s-.28-1.94-.43-2.91-.33-2.06-.51-3.09L447.86,295c.12.71.24,1.43.35,2.15S448.42,298.47,448.51,299.15Z"/><path class="cls-2" d="M497.81,273.78q-.37-1.47-.76-2.92c-.26-1-.52-2-.8-2.92s-.57-1.95-.87-2.92l-51,15.63q.31,1,.6,2c.19.68.38,1.36.56,2s.36,1.35.53,2,.33,1.34.49,2,.32,1.43.47,2.15l52.13-11.14c-.22-1-.44-2.06-.67-3.09S498.05,274.75,497.81,273.78Z"/><path class="cls-2" d="M496.68,363.43c.27-1,.54-1.93.79-2.91s.48-1.95.72-2.92.46-1.94.67-2.92.43-1.94.63-2.91.4-2.05.59-3.08.35-1.95.51-2.92L448,336.86q-.17,1-.36,2c-.13.72-.26,1.44-.41,2.16s-.29,1.35-.44,2-.31,1.35-.47,2-.33,1.36-.5,2-.36,1.35-.55,2-.38,1.36-.58,2l51.12,15.14C496.13,365.38,496.41,364.4,496.68,363.43Z"/><path class="cls-2" d="M441.7,272.76c.25.64.49,1.28.73,1.93s.48,1.35.71,2l50.42-17.33q-.5-1.46-1-2.91c-.34-.93-.69-1.86-1-2.78s-.74-1.92-1.13-2.87-.75-1.86-1.13-2.77-.8-1.83-1.2-2.74l-48.73,21.62c.28.63.56,1.27.83,1.91s.53,1.28.79,1.93S441.44,272.09,441.7,272.76Z"/><path class="cls-2" d="M491,380.59c.36-.92.71-1.85,1.05-2.77s.71-1.93,1.05-2.9.64-1.82.95-2.74.64-1.93.94-2.91l-50.85-16q-.32,1-.65,2c-.21.64-.44,1.28-.66,1.92s-.48,1.35-.73,2-.48,1.29-.73,1.93-.54,1.34-.82,2l49.28,20.36C490.19,382.52,490.58,381.56,491,380.59Z"/><path class="cls-2" d="M484.13,237.1c-.46-.91-.94-1.82-1.42-2.72s-.93-1.74-1.4-2.6-1-1.73-1.44-2.58-1.06-1.81-1.6-2.71L432.5,253.81c.38.63.75,1.26,1.11,1.89s.67,1.2,1,1.8.65,1.2,1,1.81.66,1.25,1,1.89.63,1.26.94,1.9l48-23.28Q484.81,238.45,484.13,237.1Z"/><path class="cls-3" d="M157.5,154.21,196,191c.71-.74,1.43-1.47,2.16-2.2l-37.9-37.39C159.34,152.31,158.41,153.25,157.5,154.21Zm-18.24,21.57,42.64,31.86c.62-.83,1.26-1.65,1.89-2.46s1.25-1.59,1.88-2.38,1.32-1.64,2-2.46,1.37-1.64,2.07-2.45l-40.36-34.71q-1.36,1.58-2.68,3.17c-.87,1-1.72,2.11-2.57,3.17s-1.62,2-2.42,3.07S140.06,174.71,139.26,175.78Zm-4.75,6.62,43.71,30.36q.87-1.25,1.77-2.5l-43.2-31.08Q135.63,180.78,134.5,182.4ZM130,189.12c-.72,1.12-1.43,2.26-2.14,3.39l45.21,28.06c.55-.88,1.09-1.75,1.65-2.62s1.12-1.71,1.68-2.56l-44.24-29.57Q131.07,187.46,130,189.12ZM117.9,210.2q-.92,1.81-1.8,3.63L164,237.06q.69-1.41,1.4-2.81c.48-.95,1-1.88,1.47-2.82l-47-24.88C119.15,207.76,118.52,209,117.9,210.2Zm-5.21,11c-.54,1.22-1.08,2.44-1.61,3.67s-1,2.47-1.51,3.7l49.33,19.89c.39-1,.77-1.92,1.17-2.86s.82-1.9,1.24-2.84.85-1.89,1.28-2.82l-48.26-22.38Q113.5,219.36,112.69,221.19Zm-6,14.94q-.71,1.95-1.37,3.91c-.44,1.29-.87,2.59-1.29,3.89l50.58,16.41c.33-1,.66-2,1-3s.7-2,1.06-3,.71-1.92,1.08-2.87l-49.67-19C107.59,233.66,107.12,234.89,106.67,236.13Zm47,27L102.85,247.6q-.59,1.94-1.16,3.9l51.1,14.7C153.08,265.19,153.38,264.18,153.69,263.18ZM99.6,259.32l51.57,12.93q.38-1.52.78-3l-51.35-13.81Q100.09,257.37,99.6,259.32Zm49.53,22.16c.2-1,.4-2,.61-3l-52-11.11q-.41,1.94-.79,3.9c-.25,1.3-.51,2.6-.74,3.9l52.34,9.34C148.74,283.49,148.94,282.49,149.13,281.48ZM423.75,530.91l-21.81-48.63c-.94.42-1.89.83-2.84,1.24l21,49Q421.93,531.72,423.75,530.91Zm-26.44,10c1.26-.39,2.52-.8,3.77-1.22L384.4,489c-1,.32-1.94.64-2.91.94s-2,.6-3,.89L393.41,542C394.72,541.67,396,541.29,397.31,540.89Zm-11.69,3.28c1.3-.33,2.59-.68,3.88-1l-14.06-51.41c-1,.27-2,.54-3,.79s-2,.5-3,.73l12.29,51.87Q383.69,544.66,385.62,544.17Zm116.26-176,51,15.12c.38-1.3.76-2.6,1.12-3.9l-51.23-14.24Q502.33,366.63,501.88,368.14ZM456.93,188.77c.72.73,1.44,1.45,2.15,2.19s1.43,1.52,2.14,2.29,1.41,1.54,2.11,2.32,1.37,1.54,2,2.32,1.39,1.63,2.08,2.45l41-34q-1.33-1.6-2.68-3.17c-.87-1-1.75-2-2.63-3s-1.81-2-2.72-3-1.84-2-2.77-3-1.85-1.9-2.78-2.85-1.95-2-2.94-2.92l-37.23,38.06c.48.47,1,.94,1.45,1.41ZM180,221.36l44.79,28.87q.56-.87,1.13-1.72l-44.3-29.62Q180.82,220.12,180,221.36Zm40.81-44.18,32.34,42.22,1.64-1.24-31.64-42.75C222.39,176,221.61,176.59,220.83,177.18Zm-52.52,65.4q-.63,1.36-1.24,2.72l48.74,21.6q.42-.95.86-1.89c.3-.64.6-1.29.91-1.93l-48-23.28C169.18,240.73,168.74,241.65,168.31,242.58Zm44.36,32.11c.24-.65.48-1.29.73-1.93l-49.79-19.07c-.35.92-.7,1.84-1,2.77s-.69,1.94-1,2.91L212,276.72C212.2,276,212.43,275.36,212.68,274.69Zm-2,6-51-15.63q-.44,1.46-.87,2.92l51.24,14.73C210.28,282,210.48,281.33,210.69,280.65Zm-1.16,4.06L158,270.86q-.39,1.46-.76,2.92l51.71,13Q209.25,285.73,209.53,284.72Zm-1.9,8.24L155.32,282.7c-.19,1-.38,1.93-.55,2.91L207.24,295C207.36,294.3,207.49,293.62,207.63,293Zm-1.33,8.35-52.89-6.61q-.18,1.45-.33,2.91l53,5.73Q206.17,302.32,206.29,301.3Zm-.44,4.18-53.08-4.79c-.09,1-.17,1.93-.24,2.91l53.15,3.91C205.73,306.83,205.79,306.16,205.85,305.49ZM152.1,318.68c0,1,0,2.07.06,3.09s.07,1.94.11,2.91l53.23-2.5c0-.68-.06-1.35-.08-2s0-1.43,0-2.15ZM214.89,451q1.14,1,2.3,1.89l33.46-41.35L249,410.19Zm29.44-45L208.1,445q1.11,1,2.24,2l35.55-39.6C245.36,407,244.84,406.49,244.32,406Zm-6-6-38.85,36.41q1,1.11,2.09,2.19l38.21-37.06Q239.07,400.82,238.35,400Zm145,25.27,24.23,47.28c.89-.46,1.77-.92,2.65-1.39s1.75-.95,2.62-1.43,1.79-1,2.67-1.51,1.73-1,2.59-1.53l-27.44-45.52-1.8,1.07L387,423.34l-1.82,1Zm-9.56,4.4-2,.8L391,480q1.43-.55,2.85-1.14c.92-.38,1.85-.75,2.76-1.15l-20.9-48.81Zm-26.34,7.45,8.63,52.31c1-.16,2-.33,3-.51l-9.52-52.16ZM478.27,226.49q-.78-1.31-1.59-2.59L431.4,252q.56.9,1.1,1.81Zm-99.72-21.23,1.94.91c.64.31,1.28.63,1.92,1l23.81-47.48c-.91-.46-1.83-.91-2.75-1.36s-1.85-.87-2.78-1.29-1.82-.82-2.74-1.22l-21.31,48.64Zm8.19-53.94c-.94-.34-1.88-.67-2.83-1l-17,50.26,2,.7ZM375.8,276.41l41-34-1.32-1.56-40.36,34.73C375.32,275.85,375.57,276.13,375.8,276.41ZM282.21,79.48c1.33-.25,2.66-.5,4-.73s2.75-.47,4.13-.68l-8.23-52.66c-1.69.26-3.36.54-5,.83s-3.26.58-4.88.89-3.39.65-5.07,1L278.06,80.3C279.43,80,280.82,79.75,282.21,79.48ZM211.69,314l53.15,1.14c0-.37,0-.74,0-1.11l-53.11-2.08C211.73,312.61,211.71,313.29,211.69,314Zm55.57-14.85-51.12-14.7c-.18.64-.36,1.29-.53,1.93L267,300.16C267.06,299.82,267.16,299.47,267.26,299.13Zm1.32-4.11-50-18.17q-.35,1-.68,1.92l50.31,17.3C268.35,295.72,268.46,295.36,268.58,295Zm.79-2L220,273.11q-.38.95-.75,1.9L269,294Zm2.74-5.87-47-24.88c-.31.6-.63,1.2-.93,1.8l47.47,24.06C271.77,287.78,271.94,287.45,272.11,287.13Zm165.7-6.44c-.21-.64-.42-1.28-.64-1.92s-.44-1.28-.67-1.92l-50,18.17c.13.35.24.7.36,1s.24.69.35,1Zm-58.76,0,43.72-30.36c-.37-.53-.74-1.07-1.12-1.59l-43.2,31.1Zm-99.76-4.29-41-34c-.43.52-.85,1-1.27,1.56l41.55,33.28Zm123.48-48.2-34.56,40.54.81.7,35.23-39.95Zm-19.29,59.9L431,264c-.3-.6-.62-1.2-.93-1.79l-47,24.87ZM443.38,320l-53.14-1.61c0,.35,0,.69,0,1l53.09,2.49Q443.35,320.93,443.38,320Zm5.18,205.3c-1.22.71-2.45,1.39-3.67,2.08s-2.39,1.32-3.6,2l25.11,47q2.21-1.18,4.4-2.4c1.5-.84,3-1.68,4.49-2.54s2.9-1.7,4.34-2.56l-27.5-45.62Q450.35,524.23,448.56,525.26Zm-18.49,9.67,22.63,48.24q2.33-1.1,4.64-2.23l-23.47-47.83Q432,534,430.07,534.93Zm64.79-44.57c-1,1-2,1.91-3,2.86s-2,1.89-3.07,2.81-2.07,1.86-3.12,2.77L520.52,539c1.28-1.11,2.54-2.25,3.81-3.38s2.51-2.28,3.75-3.44,2.48-2.32,3.71-3.49,2.39-2.31,3.57-3.48l-37.57-37.75C496.81,488.47,495.84,489.42,494.86,490.36Zm-25.4,21.28,31.32,43.08q2-1.46,4-2.94l-32-42.54C471.64,510.05,470.56,510.85,469.46,511.64Zm31.3-27.16L539,521.56q1.77-1.83,3.51-3.68l-38.86-36.41Q502.21,483,500.76,484.48ZM422.57,538.3c-1.26.54-2.53,1.06-3.81,1.58l20.14,49.33c1.55-.63,3.1-1.27,4.64-1.93s3.07-1.32,4.59-2l-21.81-48.61Q424.46,537.5,422.57,538.3Zm89.28-66.06,40.67,34.38q1.68-2,3.33-4L514.58,469C513.68,470.06,512.77,471.15,511.85,472.24Zm-120.69,77c-1.32.36-2.65.72-4,1.06l13.17,51.64c1.63-.41,3.24-.85,4.86-1.29s3.27-.9,4.9-1.37L395.18,548.1C393.85,548.48,392.51,548.85,391.17,549.22ZM264.85,318.36c0-.37,0-.73,0-1.11l-53.15.68c0,.68,0,1.36,0,2ZM529.29,448.9q-1.17,1.78-2.36,3.54l44,30q1.46-2.14,2.88-4.31t2.77-4.28l-45-28.46Q530.44,447.16,529.29,448.9ZM561.13,377c-.34,1.34-.71,2.67-1.08,4l51.35,14.26c.45-1.62.9-3.25,1.32-4.88s.81-3.27,1.21-4.92L562.12,373C561.8,374.35,561.48,375.7,561.13,377Zm2.78-12c-.27,1.34-.57,2.67-.86,4l52,11.61c.36-1.62.72-3.25,1.06-4.88s.67-3.45,1-5.18l-52.39-9.79C564.46,362.17,564.2,363.59,563.91,365Zm1.51-8.25,52.54,8.9c.27-1.63.55-3.26.79-4.89l-52.69-8C565.87,354.08,565.65,355.42,565.42,356.75ZM568.27,332c-.09,1.42-.18,2.83-.3,4.25s-.23,2.67-.36,4-.3,2.83-.46,4.24l52.93,6.19c.2-1.73.4-3.45.57-5.19s.3-3.25.43-4.88.26-3.45.37-5.18Zm-48.61,130.5,42.4,32.23q1.59-2.09,3.15-4.22l-43-31.47Q521,460.79,519.66,462.51Zm38-73.46q-.63,2-1.3,4c-.42,1.26-.86,2.51-1.3,3.76s-.95,2.68-1.44,4l49.93,18.63q.9-2.43,1.76-4.88c.54-1.53,1.08-3.06,1.59-4.6s1.07-3.25,1.58-4.89,1-3.25,1.48-4.89L558.9,385C558.51,386.38,558.11,387.72,557.7,389ZM375,553c-1.36.27-2.73.54-4.11.78s-2.75.47-4.13.7l8.67,52.58c1.68-.27,3.36-.55,5-.85s3.35-.63,5-1,3.28-.67,4.91-1L379,552.18C377.71,552.47,376.37,552.75,375,553ZM547.34,416.16c-.57,1.26-1.17,2.52-1.76,3.77s-1.21,2.5-1.82,3.74-1.26,2.52-1.9,3.77l47.31,24.5q1.18-2.28,2.32-4.59t2.23-4.57c.73-1.53,1.45-3.06,2.15-4.61s1.36-3.06,2-4.6L549,412.39C548.45,413.65,547.9,414.91,547.34,416.16ZM399.18,546.91,415,597.8c1.58-.49,3.15-1,4.72-1.53l-16.67-50.61C401.76,546.08,400.48,546.51,399.18,546.91ZM328.11,379.18l.47,53.29,2,0-1.37-53.29ZM234.48,93.79q1.91-.8,3.83-1.56L218.6,42.71q-2.35.93-4.68,1.91c-1.55.65-3.08,1.31-4.62,2l21.38,48.81C231.95,94.86,233.21,94.32,234.48,93.79ZM197.67,113c1.19-.76,2.4-1.51,3.6-2.25L173.4,65.39c-1.47.91-2.94,1.81-4.4,2.74s-2.74,1.79-4.11,2.69l29.41,44.41C195.43,114.5,196.54,113.76,197.67,113Zm-55.83,49.3-41-34c-1.09,1.31-2.16,2.64-3.23,4l41.57,33.29C140.08,164.49,141,163.41,141.85,162.33ZM184,122.46,152.32,79.65c-1.32,1-2.64,2-3.94,3l32.4,42.27C181.84,124.08,182.91,123.26,184,122.46Zm77.9-38.22L247.39,33c-1.64.46-3.26,1-4.89,1.44l15.38,51C259.22,85,260.55,84.62,261.89,84.24ZM218.94,357l49.84-18.59c-.13-.34-.25-.69-.38-1s-.22-.65-.33-1l-50.45,16.88c.2.61.41,1.21.63,1.81S218.7,356.35,218.94,357Zm61.43.75-.69-.8L239,391.3l1.28,1.49ZM226.94,97.09,204.72,48.66c-1.56.71-3.12,1.43-4.67,2.18l23.06,48C224.38,98.26,225.66,97.67,226.94,97.09ZM295,427.85l1.92.54L311,377l-1-.29ZM322.52,22q-2.52,0-5,.13c-1.73.06-3.46.11-5.18.2l2.76,53.22c1.41-.07,2.83-.11,4.24-.16s2.74-.08,4.12-.1Zm0,410.37,2,.08,1.38-53.29-1.07,0ZM298,371.78l-25.12,47,1.75.93,24.32-47.44ZM134.21,172,91.54,140.13c-1.05,1.41-2.08,2.83-3.11,4.26l43.23,31.12C132.5,174.33,133.35,173.16,134.21,172Zm-33.46,62L50.66,215.77q-.88,2.44-1.72,4.89L99.34,238C99.8,236.65,100.26,235.31,100.75,234ZM138.4,542.29q1.92,1.61,3.87,3.18l33.5-41.4q-1.6-1.29-3.17-2.61ZM295.18,370.18l-27.5,45.64,1.7,1,26.73-46.11Z"/><path class="cls-4" d="M5,492.31V392.78H28.4q16.2,0,25.63,10.36t9.71,28.54v20.85q0,18.73-9.54,29.26T27.45,492.31Zm7.79-92.15v84.9H27.86q13.33,0,20.64-8.24T56,453.27V432.42q0-15.31-7.14-23.79T28.2,400.16Z"/><path class="cls-4" d="M123,464.49H85.63l-8.48,27.82H69l31.72-99.53H108l31.72,99.53h-8.13Zm-35.07-7.31H120.7l-16.41-53.39Z"/><path class="cls-4" d="M158.09,492.31H150.3V392.78h7.79Z"/><path class="cls-4" d="M185.31,485.06h41v7.25H177.44V392.78h7.86Z"/><path class="cls-4" d="M245.19,446.92,270,392.78h9L249,454.85v37.46h-7.79V454.85l-29.87-62.07h9.16Z"/><path class="cls-4" d="M35.92,578.45H12.68v41.43H4.82V520.35H32.1q13.6,0,21.09,7.76t7.48,21.57A30.75,30.75,0,0,1,56,566.59a24.15,24.15,0,0,1-12.51,10.08L64.22,619v.89H55.88Zm-23.24-7.25H33.46q8.82,0,14.08-6t5.26-15.48q0-10.46-5.47-16.2T32,527.73H12.68Z"/><path class="cls-4" d="M138.74,619.88h-7.86V572.23H84.12v47.65H76.33V520.35h7.79V565h46.76V520.35h7.86Z"/><path class="cls-4" d="M179.63,574.49l24.81-54.14h9l-29.94,62.07v37.46h-7.79V582.42l-29.87-62.07h9.16Z"/><path class="cls-4" d="M280.53,527.73h-28.3v92.15h-7.86V527.73H216.14v-7.38h64.39Z"/><path class="cls-4" d="M353.34,619.88h-7.86V572.23H298.72v47.65h-7.79V520.35h7.79V565h46.76V520.35h7.86Z"/><path class="cls-4" d="M381.71,520.35l30.15,87.57,30.28-87.57h10.32v99.53h-7.79V576.74l.68-43.41-30.49,86.54h-6L378.5,533.75l.68,42.72v43.41h-7.79V520.35Z"/><path class="cls-5" d="M325.69,340a.5.5,0,0,1-.44-.25,5.49,5.49,0,0,0-.43-.64.5.5,0,1,1,.79-.61,6.42,6.42,0,0,1,.51.76.5.5,0,0,1-.19.68A.49.49,0,0,1,325.69,340Z"/><path class="cls-5" d="M332.08,341a6.89,6.89,0,0,1-.94,2.48,12,12,0,0,1-1.59,2,14.87,14.87,0,0,1-1.81,1.64,7.76,7.76,0,0,1-2.18,1.13h0l-.34.11a.4.4,0,0,1-.46-.17l-3.33-5.29a10.68,10.68,0,0,1-1.5-2.91,3.22,3.22,0,0,1,.06-1.82,2.36,2.36,0,0,1,1.27-1.45.5.5,0,0,1,.4.92h0a1.8,1.8,0,0,0-.75,2.11,10,10,0,0,0,1.37,2.61l3.33,5.29-.8-.06h0a5.41,5.41,0,0,1,1.23-2.3,17.31,17.31,0,0,1,1.75-1.65c.59-.51,1.18-1,1.72-1.5s1.09-1,1.66-1.6h0a.52.52,0,0,1,.89.44Z"/><path class="cls-5" d="M340.86,347.23a.5.5,0,0,1-.22-.05c-2.08-1-2.74-2.52-3.5-4.26-.26-.6-.54-1.22-.89-1.87a.5.5,0,1,1,.88-.48c.37.69.65,1.33.93,1.95.71,1.62,1.28,2.9,3,3.76a.5.5,0,0,1-.22.95Z"/><path class="cls-5" d="M334.09,344.55a2,2,0,0,1-.78-.15,1.83,1.83,0,0,1-1.12-1.73,1.66,1.66,0,0,1,3.23-.48,1.72,1.72,0,0,1,0,1.24l0,.08a.5.5,0,0,1-.15.69A2.23,2.23,0,0,1,334.09,344.55Zm-.17-2.48a.75.75,0,0,0-.42.14.68.68,0,0,0-.31.5.84.84,0,0,0,.51.76,1.07,1.07,0,0,0,.69,0,.5.5,0,0,1,.06-.4.75.75,0,0,0-.37-1Z"/><path class="cls-5" d="M334.16,342.44c1.81,5.42,3.72,10.92,5.51,16.49l1.33,4.16.65,2.08a4.86,4.86,0,0,1,.32,2.32,3.52,3.52,0,0,1-1.29,2.06,9.14,9.14,0,0,1-1.91,1.18c-1.25.6-2.54,1.27-2.89,2.4a.5.5,0,0,1-.63.32.51.51,0,0,1-.31-.28,8.43,8.43,0,0,0-3.64-4.05h0l0,0a.44.44,0,0,1-.2-.48c.45-1.92.77-3.88,1-5.83s.5-3.92.7-5.89.37-3.94.51-5.91.3-3.95.4-5.94h0l.36.55a1.14,1.14,0,0,1-.79-.68,1.53,1.53,0,0,1,0-.9,6.15,6.15,0,0,1,.21-.64l.11-.29,0-.07a1.33,1.33,0,0,1,.06-.14A.81.81,0,0,1,334.16,342.44Zm0,1a.33.33,0,0,0,.39-.11c0-.07,0,0,0,0l0,.08-.11.29a5.31,5.31,0,0,0-.18.53.64.64,0,0,0,0,.31s0,0,.13.07l.06,0a.45.45,0,0,1,.3.53h0c-.46,1.92-.78,3.87-1.06,5.83s-.5,3.92-.69,5.89-.36,3.94-.5,5.91-.3,3.95-.42,5.93l-.25-.51h0a9.43,9.43,0,0,1,4.07,4.54l-.94,0a3.86,3.86,0,0,1,1.48-1.9,12.5,12.5,0,0,1,1.93-1.09c1.21-.58,2.46-1.38,2.66-2.51a4,4,0,0,0-.29-1.85l-.62-2-1.22-4C337.24,354.22,335.75,348.88,334.16,343.44Z"/><path class="cls-5" d="M323,339.07q-2.86.78-5.74,1.43c-.93.24-2,.4-2.73.66a2.38,2.38,0,0,0-.84.49,3.39,3.39,0,0,0-.62.85,25.22,25.22,0,0,0-1.07,2.51,20.64,20.64,0,0,1-1,2.64c-.23.42-.51.84-.72,1.28a12.55,12.55,0,0,0-.51,1.36,17.82,17.82,0,0,0-.7,2.82.5.5,0,0,1-1-.11c.06-1,.13-2,.21-3l.14-1.52c0-.51,0-1,.06-1.57a10.22,10.22,0,0,1,.94-2.92,20.59,20.59,0,0,1,1.42-2.83,5.81,5.81,0,0,1,1.25-1.41,4.55,4.55,0,0,1,1.77-.84,26,26,0,0,1,3.07-.39q2.94-.28,5.9-.43a.5.5,0,0,1,.16,1Z"/><path class="cls-5" d="M345.9,337.17c1.06,0,2.13-.27,3.31-.38a7.52,7.52,0,0,1,3.61.53,15.76,15.76,0,0,1,5.83,4,9.66,9.66,0,0,1,1.16,1.49,8.4,8.4,0,0,1,.84,1.75,21.14,21.14,0,0,1,.84,3.62,22.7,22.7,0,0,1,.3,3.45c0,.55,0,1.1-.07,1.64s-.24,1.06-1.24,1.66h0a1,1,0,0,1-1,0c-1.05-.51-1.3-1.12-1.34-1.7a15,15,0,0,1,0-1.72c0-1.13.21-2.21.31-3.26a8.56,8.56,0,0,0-.18-3,6.62,6.62,0,0,0-1.28-2.56,13.87,13.87,0,0,0-4.78-4,5.81,5.81,0,0,0-2.92-.71c-1.05,0-2.21.18-3.39.11a.5.5,0,0,1,0-1Z"/><path class="cls-5" d="M335.23,341a46.22,46.22,0,0,1-10.5-1.21c-3.36-.79-5.36-1.81-7-5.23-2.81-6-.78-20.62,4.63-24.88a11.07,11.07,0,0,1,4.13-1.73c3.91-1,8.78-2.33,13.27-1.06,3.35.94,6.07,3.13,8.8,5.47,5.45,4.68,7.9,11.08,6.57,17.11a.5.5,0,0,1-1-.21c1.25-5.66-1.09-11.7-6.25-16.13-2.64-2.27-5.27-4.38-8.42-5.27-4.23-1.19-9,.06-12.75,1.06a10.31,10.31,0,0,0-3.76,1.55c-5,3.92-7,18.05-4.35,23.67,1.44,3.07,3.18,4,6.29,4.68A45.11,45.11,0,0,0,336,340c4.78-.08,8.43-1,11.18-2.87,3.43-2.31,5.28-6.31,4.5-9.73a.5.5,0,1,1,1-.22c.87,3.81-1.16,8.24-4.92,10.78-2.91,2-6.75,3-11.72,3Z"/><path class="cls-5" d="M326,328.18a5,5,0,0,1-.58,0,3.32,3.32,0,0,1-2.95-2.23l-.17,0c-1.71,0-3.21-3.2-3.49-4-.1-.27-.17-.55-.25-.83a5.69,5.69,0,0,0-.47-1.31c-.28-.49-.86-.9-1.34-.74a.5.5,0,1,1-.33-.95,2.23,2.23,0,0,1,2.54,1.19,6.39,6.39,0,0,1,.57,1.54c.07.26.14.51.23.76a9.29,9.29,0,0,0,1.23,2.24,7.26,7.26,0,0,1,.63-4.22,3.77,3.77,0,0,1,3.14-2.54,6.42,6.42,0,0,1,5.49,3.06,5.28,5.28,0,0,1,.41,5.58A5.47,5.47,0,0,1,326,328.18Zm-2.79-7.05.13,0a.5.5,0,0,1,.36.61,7.38,7.38,0,0,0-.31,3.72,2.33,2.33,0,0,0,2.15,1.68,4.6,4.6,0,0,0,4.25-1.91,4.33,4.33,0,0,0-.37-4.54,5.46,5.46,0,0,0-4.56-2.61,2.78,2.78,0,0,0-2.31,1.92c-.77,1.88-.87,3.28-.29,4.42a11.59,11.59,0,0,1,.48-2.92A.5.5,0,0,1,323.22,321.12Z"/><path class="cls-5" d="M346,325a19,19,0,0,1-5.21-.16,8.35,8.35,0,0,1-2.64-1,7.77,7.77,0,0,1-2.12-2,5.45,5.45,0,0,1-1.1-2.93,3.4,3.4,0,0,1,.43-1.82,3.7,3.7,0,0,1,.56-.77,4.87,4.87,0,0,1,.68-.55,5.33,5.33,0,0,1,3.12-.84,8.4,8.4,0,0,1,2.89.58,9.07,9.07,0,0,1,2.55,1.48,5.12,5.12,0,0,1,1.11,1.28,3.84,3.84,0,0,1,.52,1.82,5.67,5.67,0,0,1-3,5,6.49,6.49,0,0,1-2.68.81,4.08,4.08,0,0,1-2.59-.84,6.72,6.72,0,0,1-2.38-4.66.5.5,0,1,1,1-.12.57.57,0,0,1,0,.11,4.61,4.61,0,0,0,1.77,4.14,3,3,0,0,0,2.14.55,3.17,3.17,0,0,0,1.91-1.07,6.15,6.15,0,0,0,1.16-3.81,1.15,1.15,0,0,0-.15-.58,2.53,2.53,0,0,0-.54-.61,6.49,6.49,0,0,0-1.78-1c-1.3-.53-2.84-.69-3.7-.12a2.53,2.53,0,0,0-.31.23c-.05.09-.17.14-.2.23a1,1,0,0,0-.18.59,3.26,3.26,0,0,0,.58,1.74,5.75,5.75,0,0,0,1.41,1.57,7.54,7.54,0,0,0,2,1,23.71,23.71,0,0,0,4.8.8.5.5,0,0,1,0,1Z"/><path class="cls-5" d="M333.62,329.4a3.24,3.24,0,0,1-2.64-1.23.87.87,0,0,1-.57-.63c-.3-1.15,1.39-3.86,2.4-4.5A.5.5,0,0,1,333,323a3.26,3.26,0,1,1,1,6.42Zm-2.25-2.17a.51.51,0,0,1,.34.23,2.25,2.25,0,1,0,1.57-3.53A6.57,6.57,0,0,0,331.36,327.23Z"/><path class="cls-5" d="M326.65,329.94a4.61,4.61,0,0,1,2.64-1.8h0a.49.49,0,0,1,.57.65l-1.64,4.09h0a.25.25,0,0,1-.48-.11,6.15,6.15,0,0,1,1.94-4.1h0a.49.49,0,0,1,.82.4v0a8.15,8.15,0,0,0,.38,3.44l-1,0,.73-2.64a.5.5,0,0,1,1,0,7.63,7.63,0,0,0,.89,1.8l-.87.08a5.44,5.44,0,0,0,.39-1.42h0a.5.5,0,0,1,1-.08.59.59,0,0,0,.35.36l-.65.35.24-1v0a.47.47,0,0,1,.82-.18,2.36,2.36,0,0,1,.47,1c.08.31.13.6.19.89s.11.57.18.84a2.17,2.17,0,0,0,.21.58l-.83.22c.06-.23.11-.53.15-.8l.12-.84c0-.28.06-.56.07-.83a3.48,3.48,0,0,0,0-.62.49.49,0,0,1,.77-.61l0,0,.84.8-.83.23a4.44,4.44,0,0,0,.15-1.31v0a.49.49,0,0,1,.83-.38,10.67,10.67,0,0,1,1.36,1.71,4.72,4.72,0,0,0,1.24,1.33l-.72.53-.23-1.73c0-.28-.08-.56-.14-.83a4.23,4.23,0,0,0-.19-.73h0a.5.5,0,0,1,.91-.41,1.59,1.59,0,0,0,1.13.85l-.54.7-1.18-2.65a.5.5,0,0,1,.75-.61l3.33,2.4a.5.5,0,0,1-.59.81l-3.33-2.4.75-.61,1.18,2.65a.5.5,0,0,1-.54.7,2.58,2.58,0,0,1-1.86-1.4l.91-.42a4.9,4.9,0,0,1,.26.94c.06.3.1.59.14.88l.23,1.71v0a.49.49,0,0,1-.72.5,3.38,3.38,0,0,1-.93-.79c-.25-.28-.46-.57-.66-.86a10.4,10.4,0,0,0-1.2-1.53l.83-.4a5.44,5.44,0,0,1-.18,1.61.5.5,0,0,1-.83.23l-.84-.8.79-.58a1.69,1.69,0,0,1,.12.62c0,.17,0,.32,0,.48,0,.31,0,.6-.08.9l-.12.88c0,.3-.09.57-.17.91v0a.47.47,0,0,1-.83.19,2.36,2.36,0,0,1-.47-1c-.08-.31-.13-.6-.19-.89s-.11-.57-.18-.84a2.17,2.17,0,0,0-.21-.58l.84-.23-.24,1a.5.5,0,0,1-.6.36h0a1.59,1.59,0,0,1-1-1l1-.09a6.44,6.44,0,0,1-.46,1.68.5.5,0,0,1-.87.08,8.63,8.63,0,0,1-1-2l1,0-.73,2.64a.5.5,0,0,1-1,0,9.14,9.14,0,0,1-.43-3.86l.82.44h0a5.4,5.4,0,0,0-2.09,3.39l-.48-.11h0l1.16-4.25.59.64h0a3.62,3.62,0,0,0-2.06,1.4.5.5,0,0,1-.82-.58Z"/><path class="cls-5" d="M330,320.28H330a.5.5,0,0,1-.43-.56,3.45,3.45,0,0,1,4.94-2.65,6.42,6.42,0,0,1,2.08,1.93.5.5,0,1,1-.79.62A5.56,5.56,0,0,0,334,318a2.45,2.45,0,0,0-3.51,1.88A.5.5,0,0,1,330,320.28Z"/><path class="cls-5" d="M342.34,320.58a.5.5,0,0,1-.38-.83,15.78,15.78,0,0,1,5-3.3,23.39,23.39,0,0,0,3.28-1.82.5.5,0,1,1,.58.81,24.44,24.44,0,0,1-3.42,1.9,15.07,15.07,0,0,0-4.73,3.06A.5.5,0,0,1,342.34,320.58Z"/><path class="cls-5" d="M341.07,316a4.57,4.57,0,0,1-.94-.1,8.74,8.74,0,0,1-.92-.27,6.29,6.29,0,0,0-1-.27,1.37,1.37,0,0,0-1.31.37.5.5,0,0,1-.91-.27l0-1.28-.18,0a.5.5,0,0,1-.4-.58.51.51,0,0,1,.58-.4l.57.1a.5.5,0,0,1,.41.48l0,.75a2.84,2.84,0,0,1,1.41-.12,7.29,7.29,0,0,1,1.13.3,7.58,7.58,0,0,0,.82.24,3.65,3.65,0,0,0,2.68-.48.5.5,0,1,1,.54.84A4.64,4.64,0,0,1,341.07,316Z"/><path class="cls-5" d="M321.45,318a.5.5,0,0,1-.39-.81,9.8,9.8,0,0,1,1.8-1.88,3.63,3.63,0,0,1,2.7-.75,2.43,2.43,0,0,1,2,2.08.5.5,0,0,1-.46.54.49.49,0,0,1-.54-.46,1.43,1.43,0,0,0-1.21-1.17,2.66,2.66,0,0,0-1.95.58,9,9,0,0,0-1.61,1.7A.5.5,0,0,1,321.45,318Z"/><path class="cls-5" d="M342.23,347.78a.5.5,0,0,1-.34-.86l9.81-9.21a.5.5,0,0,1,.68.73l-9.81,9.21A.49.49,0,0,1,342.23,347.78Z"/><path class="cls-5" d="M350.52,312a11.37,11.37,0,0,1,8.1-3.16,7.71,7.71,0,0,1,4.3,1.38,11.56,11.56,0,0,1,3,3.27,10.37,10.37,0,0,1,1.6,4.32,7.91,7.91,0,0,1-1.08,4.91,8.7,8.7,0,0,1-3.63,3.39,5.26,5.26,0,0,1-4.93-.07.62.62,0,0,1-.12-1l0,0a20.26,20.26,0,0,1,3-2.55,21.1,21.1,0,0,0,2.71-2,5.81,5.81,0,0,0,1.94-2.78A5,5,0,0,0,365,314a6.06,6.06,0,0,0-2.79-2.67,10.19,10.19,0,0,0-3.69-.89,12.16,12.16,0,0,0-7.39,2.32h0a.5.5,0,0,1-.63-.77Z"/><path class="cls-5" d="M317.88,314a15.81,15.81,0,0,0-7.64,1.79,6.62,6.62,0,0,0-2.61,2.64,8.81,8.81,0,0,0-.93,3.49,9.22,9.22,0,0,0,1.85,6.57,7.62,7.62,0,0,0,2.95,2.31,5.77,5.77,0,0,0,3.78.42.5.5,0,1,1,.26,1l-.11,0a14.66,14.66,0,0,1-4.27-.4,10.94,10.94,0,0,1-3.95-1.94,8.3,8.3,0,0,1-2.73-3.72,8.43,8.43,0,0,1-.27-4.63,10.53,10.53,0,0,1,5.46-6.79,21.72,21.72,0,0,1,8.17-1.73.5.5,0,0,1,.08,1Z"/><path class="cls-5" d="M317.92,335.45a3.67,3.67,0,0,1-3.15-2.37,9.21,9.21,0,0,1-.35-4.16l.82-11.59a6.85,6.85,0,0,1,.87-3.4,2.67,2.67,0,0,1,3.53-1,.5.5,0,0,1-.55.84,1.71,1.71,0,0,0-2.15.71,6,6,0,0,0-.7,2.91L315.41,329a8.45,8.45,0,0,0,.28,3.71,2.54,2.54,0,0,0,2.52,1.71.51.51,0,0,1,.58.4.5.5,0,0,1-.4.58A2.66,2.66,0,0,1,317.92,335.45Z"/><path class="cls-5" d="M354.6,329.74h0a.5.5,0,0,1,0-1h0a2.39,2.39,0,0,0,2.06-1.91,7.2,7.2,0,0,0-.24-3.42,22,22,0,0,0-2.91-7.23,9.72,9.72,0,0,0-6.09-4.26.5.5,0,1,1,.17-1,10.72,10.72,0,0,1,6.74,4.68,23,23,0,0,1,3.06,7.56,8,8,0,0,1,.23,3.91A3.36,3.36,0,0,1,354.6,329.74Z"/><path class="cls-5" d="M318,314.8a.5.5,0,0,1-.5-.47,37.1,37.1,0,0,1,.11-8.91,12.8,12.8,0,0,1,4.26-7.9,13.17,13.17,0,0,1,7.5-2.58A20.72,20.72,0,0,1,351,312.36a.5.5,0,1,1-1,.16,19.71,19.71,0,0,0-20.67-16.58,12.2,12.2,0,0,0-6.93,2.36,11.82,11.82,0,0,0-3.9,7.29,36.44,36.44,0,0,0-.09,8.67.5.5,0,0,1-.46.53Z"/><path class="cls-5" d="M350.22,311.65a18.53,18.53,0,0,0-1.08-7.36,19.88,19.88,0,0,0-3.68-6.54,15.14,15.14,0,0,0-6.19-4.17,22.46,22.46,0,0,0-7.4-1.43,23.76,23.76,0,0,0-3.78.2,14.82,14.82,0,0,0-1.84.33,7.21,7.21,0,0,0-1.67.78,28.83,28.83,0,0,0-5.54,5.1,11.9,11.9,0,0,0-2.4,6.91,31.84,31.84,0,0,0,.74,7.5.5.5,0,1,1-1,.19h0a32.66,32.66,0,0,1-.56-7.72,12.93,12.93,0,0,1,2.69-7.27c.88-1,1.77-1.86,2.71-2.76A18,18,0,0,1,324.3,293a8.16,8.16,0,0,1,1.8-.82,15,15,0,0,1,1.92-.34,24.26,24.26,0,0,1,3.86-.18,23,23,0,0,1,7.55,1.5,16.35,16.35,0,0,1,6.39,4.28,22.32,22.32,0,0,1,3.92,6.65,20.94,20.94,0,0,1,1.48,7.63.5.5,0,1,1-1,0v0Z"/><path class="cls-5" d="M316.22,313.58a.5.5,0,0,1-.45-.72,1,1,0,0,0-.42-.2L309,311.51a.5.5,0,0,1,.07-1l2.65-.1a2.59,2.59,0,0,1-.46-2.09.49.49,0,0,1,.54-.38l2.71.3a.5.5,0,0,1,.74-.53l6.43,3.59a.5.5,0,0,1-.49.87l-5.27-2.94a.51.51,0,0,1-.39.13l-3.32-.36a1.63,1.63,0,0,0,1.08,1.39.5.5,0,0,1,.11.9l2.12.38a1.67,1.67,0,0,1,1.25.92.8.8,0,0,1-.19.82A.5.5,0,0,1,316.22,313.58Z"/><path class="cls-5" d="M350.07,311.31l8.92-5.24a.5.5,0,0,1,.52.85l-2.78,1.77a.5.5,0,0,1-.77-.41l-.13-4.52,1,.13h0a4.14,4.14,0,0,1-3.9,2.48,3.83,3.83,0,0,1-2.2-.93,4,4,0,0,1-1.3-2.09h0l.93.17-3.14,5.61a.5.5,0,0,1-.92-.12l-.83-3.15h1a2.21,2.21,0,0,0,0,1.23,4.65,4.65,0,0,0,.68,1.2,5.55,5.55,0,0,1,.82,1.47,3.23,3.23,0,0,1,0,1.79.5.5,0,0,1-1-.24h0a2.21,2.21,0,0,0,0-1.23,4.64,4.64,0,0,0-.68-1.2,5.55,5.55,0,0,1-.82-1.47,3.22,3.22,0,0,1,0-1.79.5.5,0,0,1,1,0l.83,3.15-.92-.12,3.14-5.61v0a.49.49,0,0,1,.92.19h0a2.84,2.84,0,0,0,2.55,2.58,2.75,2.75,0,0,0,1.89-.56,2.54,2.54,0,0,0,1-1.62h0v0a.5.5,0,0,1,1,.16l.13,4.52-.77-.41,2.78-1.77.52.85-8.92,5.24a.5.5,0,0,1-.51-.86Z"/><path class="cls-4" d="M981.22,194.28c.72,0,1.44-.06,2.16-.08l2.09-.05,2.09,0h0l2.09,0,2.09.05,2.14.08,2.09.13,2.1.16,2.08.19,2.08.24,2.11.27,2.08.3,2.09.35,2,.37,2.1.42,10.88-51.91c-1-.21-2-.4-3-.59l-2.91-.53c-1-.17-2-.34-3-.49s-2-.29-3-.42l-3-.39c-1-.12-2-.24-3-.34s-2-.18-3-.27l-3-.23c-1-.07-2-.14-3-.19s-2-.08-3.07-.12l-3-.08c-1,0-2,0-3,0h0c-1,0-2,0-3,0l-3,.07c-1,0-2.06.07-3.08.12s-2,.12-3,.19l3.65,52.88Zm-8.35.72,2.09-.24,2.08-.19-4.55-52.81c-1,.08-2,.17-3,.27s-2,.22-3,.34l-3,.39,7.28,52.51Zm-85.71,51.73c.39-.56.78-1.12,1.18-1.68s.85-1.18,1.29-1.77.84-1.11,1.26-1.65l1.26-1.6c.44-.55.89-1.1,1.34-1.65l-41-34c-.65.78-1.29,1.58-1.93,2.37s-1.22,1.52-1.81,2.29-1.22,1.58-1.82,2.38-1.24,1.68-1.85,2.53-1.14,1.6-1.7,2.41-1.17,1.69-1.74,2.54l44.3,29.62C886.34,247.91,886.74,247.33,887.15,246.74Zm-8.63,14.46c.32-.64.65-1.27,1-1.89s.64-1.21,1-1.81.66-1.2,1-1.8.74-1.26,1.11-1.89.73-1.21,1.1-1.81l-45.28-28.11q-.8,1.29-1.59,2.6c-.54.9-1.08,1.8-1.6,2.71s-1,1.72-1.45,2.58-.94,1.73-1.4,2.6-1,1.81-1.42,2.72-.91,1.8-1.35,2.71l48,23.28Q878,262.14,878.52,261.2Zm-4.34,9.56c.26-.65.52-1.29.79-1.93s.55-1.28.84-1.92l-48.74-21.6c-.4.91-.81,1.82-1.2,2.74s-.76,1.84-1.13,2.77-.76,1.92-1.13,2.88l49.79,19.07Q873.79,271.75,874.19,270.76Zm-2.89,8c.22-.68.44-1.35.67-2l-50.42-17.34c-.33,1-.65,1.94-1,2.91s-.59,1.82-.87,2.74l51,15.63C870.88,280,871.09,279.38,871.29,278.74ZM868,290.92c.15-.72.31-1.44.47-2.15s.32-1.35.49-2l-51.71-13c-.24,1-.48,1.93-.71,2.91s-.45,2.06-.67,3.09-.4,1.94-.59,2.92L867.63,293Q867.82,291.93,868,290.92Zm-1.45,8.23c.1-.68.2-1.35.3-2s.23-1.43.36-2.15l-52.48-9.37c-.18,1-.35,2.06-.51,3.09s-.29,1.94-.43,2.91-.29,2.06-.42,3.09l52.89,6.61C866.38,300.58,866.48,299.87,866.58,299.15ZM827.68,389c.42.92.85,1.83,1.28,2.74s.88,1.82,1.33,2.72.91,1.83,1.38,2.74.91,1.75,1.38,2.61,1,1.82,1.51,2.72L881,376.38c-.35-.63-.71-1.26-1.05-1.9s-.64-1.21-1-1.82-.65-1.27-1-1.91-.62-1.26-.92-1.9-.6-1.27-.89-1.92-.56-1.27-.84-1.91-.55-1.28-.81-1.92l-49.27,20.36q.57,1.38,1.17,2.75C826.87,387.15,827.27,388.07,827.68,389Zm-10-28.45c.25,1,.52,1.94.78,2.9s.55,2,.84,2.93.58,1.95.88,2.91.62,1.94.94,2.91.63,1.83.95,2.74.69,1.95,1.05,2.91l50-18.64q-.38-1-.73-2c-.22-.64-.45-1.27-.66-1.91s-.44-1.35-.66-2-.41-1.35-.61-2-.4-1.36-.59-2-.37-1.34-.55-2-.34-1.36-.5-2-.32-1.35-.47-2l-52,11.61q.32,1.47.67,2.92C817.15,358.58,817.38,359.56,817.63,360.53ZM815,348.69c.19,1,.38,2.06.59,3.08L867.83,341c-.14-.71-.28-1.43-.41-2.14ZM898.35,400c-.48-.52-1-1-1.43-1.55s-.92-1-1.38-1.55-.9-1-1.35-1.58-.93-1.1-1.38-1.66-.85-1.05-1.27-1.59l-41.84,33q.91,1.14,1.83,2.27t2,2.39q1,1.14,1.94,2.26c.65.74,1.31,1.49,2,2.22s1.37,1.49,2.07,2.23Zm-57.52,12.74c.57.86,1.14,1.72,1.72,2.57s1.11,1.62,1.68,2.42,1.15,1.59,1.73,2.38l43-31.47c-.4-.55-.81-1.1-1.2-1.66s-.79-1.13-1.17-1.69-.8-1.19-1.19-1.78-.77-1.18-1.15-1.78-.75-1.2-1.12-1.8l-45.54,27.68c.53.87,1.08,1.73,1.62,2.59S840.27,411.94,840.83,412.78Zm83.6,8.43L897,466.73q1.28.77,2.58,1.52l26.65-46Zm-44.85,33.55c.8.62,1.61,1.25,2.43,1.86l32-42.48-1.69-1.3Zm21.74-51.65-37.55,37.73q1.05,1,2.13,2.07l36.9-38.36Zm64.25,33.7L956,489c1,.18,2,.34,3,.51l8.62-52.32ZM935.48,484c1,.3,1.94.58,2.91.86l14.88-50.93-2-.61Zm7.82-53.45L924.1,480c.93.36,1.87.72,2.81,1.06l18.35-49.81Zm-5.83-2.44-21.73,48.46q1.36.61,2.74,1.2l20.9-48.81Zm-3.82-1.8-1.91-1-24.24,47.27c.91.46,1.83.91,2.75,1.36l2.77,1.33,22.56-48.08Zm71.76,11.22-2.08.29-2.11.25-2.08.22-2.15.19,4.08,52.85c1-.08,2.06-.18,3.09-.27l3-.31c1-.11,2-.22,3-.35s2-.27,3-.42l2.92-.45-8.63-52.31Zm16.42-3.59-2,.58-2,.54-2,.5-2.09.47-2,.43,10.44,52,2.93-.61c1-.22,2-.44,3-.67l2.91-.71c1-.24,1.93-.5,2.89-.76l2.92-.82c1-.28,1.94-.56,2.91-.86l-15.75-50.67Zm6-1.93-2,.69,16.6,50.4,2.92-1c.95-.33,1.9-.66,2.84-1l-18.35-49.81Zm11.65-4.77,22.56,48.08q1.38-.65,2.76-1.32l-23.39-47.69Zm11.16-6,27.44,45.52c.86-.51,1.7-1,2.54-1.57l-28.21-45.05ZM994.9,438.56l-2.08.11-2.1.08,1.37,53c1,0,2-.07,3-.12l3-.15Zm101.19-65.9c-.32.61-.63,1.22-1,1.82l46.92,25.3c.47-.86.92-1.74,1.38-2.61s.93-1.82,1.38-2.74L1097,370.76C1096.73,371.4,1096.42,372,1096.09,372.66Zm2.78-5.71,48.56,22c.41-.91.81-1.82,1.21-2.74L1099.7,365C1099.43,365.68,1099.15,366.32,1098.86,367ZM1065.22,222,1099,180.93c-.77-.63-1.55-1.25-2.33-1.87l-33.08,41.65C1064.14,221.14,1064.68,221.58,1065.22,222Zm3.21,2.75c.53.47,1.05.94,1.57,1.41l35.89-39.3c-.74-.68-1.5-1.35-2.26-2s-1.5-1.31-2.26-2l-34.51,40.49Zm7.57,7.29,38.52-36.75c-.68-.71-1.38-1.42-2.07-2.12l-37.89,37.39C1075,231.08,1075.52,231.57,1076,232.07Zm-53.13-32.75,2,.61,2,.66,17-50.26c-1-.32-1.92-.63-2.89-.94l-2.82-.87c-1-.29-1.94-.58-2.92-.86s-2-.53-2.93-.79-1.93-.49-2.9-.73l-12.67,51.51,2,.51,2,.55Zm23.86-48-17.9,50,2,.73,2,.77,1.94.79,1.91.83L1058,155.77c-.91-.4-1.82-.8-2.74-1.18l-2.79-1.14c-.95-.38-1.9-.74-2.86-1.1Zm-2.49,56.75,1.84,1,1.86,1,1.8,1.05,1.79,1.08c.61.38,1.22.75,1.82,1.14l1.71,1.12,1.78,1.21L1087,171.89q-1.27-.87-2.56-1.72c-.81-.54-1.63-1.08-2.45-1.6s-1.74-1.09-2.62-1.63-1.71-1-2.57-1.54-1.71-1-2.58-1.5-1.78-1-2.68-1.49-1.76-.94-2.64-1.4l-2.66-1.36-23.81,47.48Zm175.59,143.72-52.55-8c-.15,1-.32,2-.49,3l52.41,8.88C1219.43,354.4,1219.65,353.1,1219.84,351.79ZM1023.3,494.58l10.49,52.26c1.31-.26,2.61-.54,3.91-.82l-11.37-52.07Q1024.82,494.28,1023.3,494.58ZM1021.69,138c1,.2,2.08.4,3.12.61l3,.66c1,.23,2.07.48,3.11.74l3,.76c1,.27,2,.54,3,.82l14.5-51.3c-1.31-.37-2.62-.72-3.93-1.06s-2.58-.66-3.88-1-2.67-.65-4-1-2.6-.58-3.91-.85-2.7-.54-4.05-.8-2.58-.48-3.88-.71l-9.14,52.51Zm8.1,409.59-9.59-52.43-3.1.52,8.67,52.59C1027.11,548.07,1028.45,547.85,1029.79,547.61Zm-18.81-51c-1,.13-2.08.24-3.12.36l6,53c1.35-.15,2.7-.3,4-.47s2.67-.36,4-.56l-7.78-52.73C1013,496.32,1012,496.47,1011,496.6Zm-9.42,1c-1,.08-2.06.13-3.1.19l3.19,53.19c1.34-.08,2.69-.15,4-.25s2.76-.24,4.13-.37l-5-53.05C1003.7,497.38,1002.64,497.48,1001.56,497.56Zm1.6-362.07c1,.09,2.06.17,3.09.28s2.07.23,3.11.35l3.12.4c1,.14,2.06.28,3.09.44l8.22-52.66c-1.32-.2-2.66-.38-4-.57s-2.69-.36-4-.52-2.67-.32-4-.46-2.66-.24-4-.36-2.68-.22-4-.31-2.67-.18-4-.25l-2.76,53.22c1,.05,2.07.13,3.1.2Zm-9.54,415.82c1.35,0,2.68-.09,4-.15l-2.29-53.24c-1,0-2.07.09-3.11.12Zm.14-416.37,1.82-53.26q-2-.07-4-.1c-1.34,0-2.67-.05-4-.05v53.29c1,0,2.07,0,3.1,0Zm-6.21,416.45,2.07,0-.47-53.29-1.59,0h0l-1.6,0c-1,0-2.07,0-3.1,0l-1.38,53.27c1.33,0,2.67,0,4,.05Zm91.06-163.17-41.82-33c-.22.27-.43.55-.65.82l41.26,33.63C1077.81,389.22,1078.21,388.72,1078.61,388.22ZM1044.89,291c.14.33.3.65.44,1s.26.66.39,1l49.34-19.89c-.25-.61-.49-1.22-.75-1.83s-.52-1.21-.79-1.81-.54-1.2-.82-1.8-.57-1.22-.86-1.83L1044,289.07c.16.33.31.66.46,1Zm51.61-14.19c-.22-.61-.46-1.22-.69-1.83l-49.68,19c.13.33.26.65.38,1ZM1103,326q.08-1,.14-2c0-.68.08-1.35.12-2l-53.09-2.49c0,.37,0,.74-.07,1.11s-.05.73-.08,1.09,0,.7-.08,1l52.9,5.25Q1103,326.93,1103,326Zm.29-14c0-.64,0-1.28-.08-1.92s-.08-1.36-.13-2-.1-1.28-.16-1.92-.12-1.36-.2-2-.14-1.28-.22-1.92l-52.76,6.59c0,.34.1.69.13,1s.07.74.1,1.11.06.69.08,1,.06.73.08,1.1,0,.69,0,1,0,.74,0,1.11l53.15-1.14C1103.39,313.29,1103.37,312.61,1103.34,311.93Zm-1.52,23.88c.11-.64.21-1.28.31-1.93s.2-1.36.28-2,.16-1.28.24-1.92l-52.8-6.18c0,.35-.09.69-.13,1s-.09.74-.14,1.11-.12.7-.18,1-.12.69-.19,1l52.27,9.76C1101.6,337.1,1101.71,336.45,1101.82,335.81Zm-54-36.69c.1.35.2.69.3,1s.19.69.27,1,.16.7.24,1,.17.73.25,1.1.14.69.21,1,.12.69.19,1,.14.73.2,1.1.1.69.15,1l52.63-7.53c-.09-.64-.19-1.28-.29-1.92s-.22-1.36-.34-2-.24-1.28-.36-1.92-.26-1.29-.39-1.92-.29-1.37-.45-2-.31-1.28-.47-1.91-.33-1.29-.5-1.93-.35-1.29-.53-1.93-.38-1.28-.57-1.92-.38-1.21-.57-1.81l-50.59,16.42c.11.32.22.65.32,1S1047.73,298.78,1047.84,299.13Zm52.84,42.58-51.9-11.58c-.08.34-.16.69-.24,1l51.7,12.46C1100.39,343,1100.53,342.35,1100.68,341.7Zm-3.19,11.54q.32-1,.62-1.91c.2-.64.39-1.28.58-1.92s.38-1.29.56-1.93L1048,333.24l-.3,1.05c-.1.35-.2.69-.31,1s-.24.69-.35,1-.21.65-.33,1l50.15,17.72C1097.07,354.46,1097.28,353.86,1097.48,353.25Zm-24,41,1.3-1.47-40.07-35.06c-.23.27-.46.54-.7.8l-.74.79,38.85,36.41Zm-55.94-132.88,1,.55,26.32-46.35-1.77-1Zm20.19-49.53-1.84-.86-1.8-.81-1.82-.79-1.84-.75-19.72,49.54,1,.4,1,.43,1,.44,1,.45,1,.5.95.49,24.7-47.23-1.75-.9Zm-32.1,44.54,1,.31,1,.35,1,.34,18-50.18-1.88-.66-1.91-.62-1.86-.58-1.93-.57-14.5,51.31Zm60.82,145c.49-.46,1-.91,1.46-1.38l1.4-1.37.19-.19c.42-.42.83-.85,1.24-1.28l-38.22-37.08c-.26.27-.51.54-.77.8s-.51.49-.76.73l-.79.75-.79.73L1065,402.75C1065.5,402.3,1066,401.85,1066.48,401.39Zm-59-199.26-2-.33-8.23,52.66,1.07.19,1,.19,1.09.21,10.93-52.17-2-.39Zm52.24,23.52-1.58-1.24-1.56-1.18-1.66-1.21-1.6-1.12-1.69-1.15-1.62-1.06-1.73-1.08-1.7-1-27.1,45.89.92.55.92.59.89.57.91.62.86.61.91.65.83.64.85.67c.28.22.56.43.84.66l.84.73,34.56-40.54c-.52-.44-1-.89-1.56-1.32Zm9.85,8.81-.9-.88c-.47-.46-.93-.91-1.41-1.36l-1.46-1.37-1.49-1.34L1029,269.44l.81.71c.27.24.52.5.78.74l.77.73.79.78.73.77,38.53-36.77c-.45-.47-.91-.94-1.37-1.4Zm-29.27,48,.58.9.57.93c.19.32.37.65.56,1s.35.61.52.91l.5.93,47-24.87q-.46-.86-.92-1.72c-.31-.57-.63-1.14-1-1.71s-.7-1.2-1.05-1.79-.69-1.15-1-1.72-.7-1.12-1.05-1.67-.71-1.09-1.07-1.62-.77-1.13-1.16-1.69l-43.72,30.36c.21.3.43.6.64.91S1040.07,282.2,1040.26,282.49Zm39-37L1078,244c-.42-.52-.84-1-1.27-1.57l-41,34c.23.28.45.56.68.85l.65.82c.22.28.45.56.66.84s.44.61.65.91l43.2-31.1c-.4-.56-.81-1.12-1.22-1.67S1079.63,246,1079.22,245.49Zm-6.42-7.61L1033.65,274l.73.81.7.8,40.36-34.73c-.43-.5-.86-1-1.3-1.48Zm-71.35,17.4,1.07.25,12.73-51.77-2-.47Zm30,168.6,1.82-.76,1.81-.8,1.8-.83-22.64-48.26-1,.44-1,.44-1,.41-1,.4,19.29,49.71Zm-30.9,7.88,2-.24-6.88-52.87-1.08.14-1.06.11,5,53.06Zm40-12.06c.59-.3,1.17-.61,1.75-.93l1.72-.95,1.77-1,1.7-1,1.68-1,1.72-1.1,1.61-1.06,1.64-1.14-30.56-43.65c-.29.21-.58.42-.88.63l-.88.57-.93.59c-.3.19-.6.39-.91.58l-.93.53-.95.55-.94.52-.95.48-1,.5,23.49,47.85Zm16.84-10.6,1.59-1.23c.53-.42,1.05-.84,1.58-1.27l1.52-1.26,1.5-1.28-34.9-40.25-.81.7-.82.68-.86.67-.86.68-.85.62,31.33,43.09Zm-37.24,18.75,1.93-.57,1.86-.6,1.93-.66,1.87-.67-18.42-50-1,.35-1,.35-1,.34c-.35.11-.7.2-1.05.3l-1,.3,14,51.43Zm-28.75-48.78,3.19,53.2,2-.13L992.39,379Zm7.51-.91-1.07.19,8.67,52.6,2-.34,2-.38L999.9,378ZM995.54,200.7l-2-.13-2-.08-1.82,53.27,1.1,0,1.06.08,1.08.08L994,254l5.49-53-2-.18Zm-5,231.75,2-.08-2.29-53.25-1.07,0Zm-21.63-56.08-1-.34-1.05-.36-1-.35-1-.39-1-.4-1-.41-1-.44-1-.44-1-.48-23.48,47.85,1.83.88,1.79.83,1.82.8,1.82.76,1.89.76,1.85.71,1.88.67,1.93.66,1.85.6c.64.2,1.29.39,1.93.58L970,376.67C969.63,376.57,969.27,376.48,968.92,376.37ZM792.86,459.05l-43,31.47q1.56,2.12,3.15,4.22l42.4-32.23Q794.13,460.79,792.86,459.05Zm-11.53-17.22-45.52,27.68c.89,1.46,1.8,2.9,2.71,4.34l45-28.46C782.8,444.21,782.05,443,781.33,441.83Zm4.49,7.08-44.53,29.23c1,1.45,1.91,2.89,2.88,4.31l44-30Q787,450.69,785.82,448.91Zm87.29-150.79,52.49,8.41c.06-.37.13-.73.2-1.1l-52.35-9.35C873.32,296.76,873.21,297.44,873.11,298.12ZM958,371.78l-.94-.52-25.92,46.57,1.73,1Zm-85.87-65.73c-.06.64-.11,1.28-.16,1.92s-.09,1.35-.13,2l53.07,3c0-.37.06-.74.08-1.1s0-.69.08-1,.06-.74.1-1.11L872.33,304C872.25,304.69,872.19,305.37,872.13,306.05ZM803.24,472.23l-40.67,34.38q1.61,1.91,3.26,3.8l40.09-35.06C805,474.32,804.13,473.28,803.24,472.23Zm136.43-115.3-.72-.84-.65-.82-.67-.86-.67-.9-.61-.86c-.2-.29-.41-.56-.61-.85l-.61-.92-.59-.92c-.19-.3-.4-.6-.59-.91s-.36-.62-.54-.93L887.48,375c.33.57.67,1.14,1,1.7s.7,1.14,1.06,1.71.72,1.13,1.09,1.69.75,1.13,1.13,1.69.74,1.08,1.11,1.61.76,1.05,1.14,1.58.82,1.11,1.24,1.66.81,1.07,1.23,1.6l1.21,1.5q.65.79,1.31,1.58ZM798,465.83l-41.84,33c1,1.28,2,2.55,3.07,3.82L800.52,469C799.67,467.92,798.83,466.88,798,465.83Zm220.66,89.87c-1.38.18-2.76.33-4.15.48s-2.73.29-4.1.42l5.05,53.05c1.67-.16,3.34-.33,5-.52s3.39-.37,5.07-.59,3.35-.46,5-.7l-7.78-52.72C1021.41,555.33,1020,555.52,1018.66,555.7ZM1096.16,357l-49.84-18.6c-.12.34-.26.66-.39,1s-.27.69-.41,1-.28.66-.42,1l-.44,1c-.15.33-.29.66-.44,1l48.06,22.81c.28-.6.57-1.2.84-1.81s.53-1.2.79-1.81.52-1.21.77-1.82.52-1.27.77-1.91S1095.93,357.59,1096.16,357ZM1200,431c-.68,1.25-1.37,2.49-2.07,3.73l46.43,26.11c.85-1.51,1.7-3,2.53-4.56ZM964.83,610.11c1.67.13,3.35.22,5,.32l3.2-53.19c-1.37-.08-2.75-.16-4.12-.26ZM826.35,496q-1.55-1.4-3.08-2.82c-1-.95-2-1.9-3-2.86s-2-1.89-2.92-2.85l-.42-.41c-.86-.86-1.71-1.75-2.56-2.62s-1.93-2-2.88-3-1.9-2-2.84-3.06l-39.48,35.74c1.14,1.26,2.3,2.5,3.46,3.73s2.33,2.47,3.51,3.68,2.07,2.15,3.13,3.2l.51.5q1.77,1.76,3.56,3.48c1.22,1.18,2.46,2.34,3.7,3.49s2.49,2.3,3.75,3.44,2.53,2.27,3.81,3.38,2.54,2.17,3.82,3.24l34.2-40.83c-1-.88-2.1-1.75-3.13-2.65S827.38,497,826.35,496ZM984.86,379.13l-1.07-.06-1.07-.08-1.11-.08-1.06-.11-1.08-.14-1.07-.14-1-.17-1.07-.19-1.07-.19-1-.23-11.39,52.08,1.94.41,2,.38,2,.34,1.93.3,2,.28,2,.23,2,.2,2,.18,2,.12,2,.1Zm8.93,178.48c-1.37,0-2.74,0-4.12.05l-2.11,0h0l-2.12,0L985,610.94c.87,0,1.73,0,2.59,0s1.72,0,2.59,0c1.68,0,3.36,0,5-.06s3.36-.12,5-.19l-2.29-53.24C996.54,557.51,995.17,557.57,993.79,557.61ZM882,364.35c.28.61.56,1.21.85,1.82s.58,1.2.88,1.8.6,1.21.91,1.81l47.25-24.47-.5-1c-.16-.32-.33-.64-.48-1s-.29-.65-.44-1-.3-.65-.44-1-.28-.65-.42-1L880.4,360.72q.38.91.77,1.82C881.44,363.14,881.7,363.75,882,364.35Zm34.21,43.52,1.61,1.24,1.56,1.16,1.67,1.2,1.64,1.14,1.61,1.06c.57.38,1.15.74,1.73,1.11l1.68,1,27.5-45.64-.9-.57-.93-.59c-.29-.19-.59-.37-.88-.57s-.59-.42-.88-.62l-.91-.65-.85-.63c-.29-.22-.57-.45-.86-.67l-.85-.67-.83-.68-.8-.7-.82-.71-.8-.74-.78-.74-.76-.73c-.26-.26-.51-.53-.77-.8l-.75-.79c-.25-.26-.5-.52-.74-.79s-.46-.54-.7-.8l-40.08,35.05,1.31,1.48c.45.5.9,1,1.36,1.47s.92,1,1.38,1.45.82.85,1.24,1.27l.19.19,1.4,1.37,1.45,1.37,1.48,1.36,1.49,1.33,1.5,1.28,1.52,1.26Zm29.89-138.43.81-.7c.28-.24.55-.49.84-.72s.56-.44.84-.66l.86-.68.84-.64-31.69-42.82L917,224.4l-1.58,1.24-1.54,1.24c-.53.43-1,.88-1.56,1.32l-1.48,1.29-1.5,1.34,35.92,39.32Zm-39.6-35.88-.91.89L905,235c-.46.47-.92.93-1.37,1.41s-.91,1-1.36,1.46L901,239.37l39.77,35.4.73-.81.74-.78.73-.77.78-.77.77-.73-36.6-38.7ZM895.87,245.5c-.4.52-.81,1-1.2,1.57s-.82,1.11-1.22,1.67l-1.12,1.59q-.58.84-1.15,1.68t-1.07,1.64c-.36.55-.71,1.11-1.05,1.67s-.7,1.14-1,1.72-.71,1.19-1.05,1.79l46.18,26.46c.19-.33.37-.66.56-1l.57-.93.58-.9c.19-.3.37-.59.57-.89s.42-.6.63-.91l.61-.86c.22-.3.43-.61.65-.91s.44-.56.66-.84l.65-.83L897.07,244Zm90.61,8.24,1.07,0h0V200.42h0l-2,0-2,0,1.82,53.27Zm-18.81-51.61-1.92.35,10,52.36,1-.19,1.08-.19-8.23-52.66ZM982.16,254l1.07-.08,1.07-.08-2.76-53.22-2,.13-2,.15-2,.18,5.48,53Zm-55.3-36.36-1.73,1.08-1.61,1.06-1.69,1.15L920.22,222l30.93,43.39.86-.61.91-.62.88-.57.93-.6.92-.55.92-.53c.32-.18.63-.37,1-.55l.94-.49-24.71-47.23-1.74.93-1.77,1-1.7,1ZM962.38,259l1-.43,1-.39,1-.4,1-.38,1-.35,1-.35,1-.32-15.39-51-1.87.58-1.9.62-1.88.66-1.86.69-1.89.73-1.84.75-1.82.79-1.8.81,22.22,48.46ZM980,254.18l-6.41-52.92-2,.26,7.32,52.8Zm-105.38,36,51.81,12.05c.08-.35.16-.7.24-1l-51.58-12.92C875,288.92,874.79,289.55,874.64,290.2Zm52.76,44.1c-.1-.35-.2-.7-.3-1.05l-51.25,14.23q.27,1,.56,1.94c.19.64.38,1.28.58,1.92s.41,1.29.62,1.92l50.45-16.88c-.12-.35-.24-.69-.35-1S927.51,334.64,927.41,334.29ZM876.71,282.5l50.85,15.58c.1-.33.21-.65.32-1l-50.59-16.42C877.09,281.29,876.9,281.89,876.71,282.5Zm6.54-16.66c-.29.61-.58,1.22-.86,1.83s-.55,1.19-.81,1.79-.54,1.21-.8,1.82l49,20.73c.14-.33.3-.65.44-1s.29-.65.44-1,.3-.66.46-1,.33-.64.49-1L884.14,264Q883.69,264.94,883.25,265.84Zm-9.44,28.32L926,304.39q.1-.52.21-1l-52-11.11Q874,293.2,873.81,294.16ZM914.61,150c.95-.41,1.89-.83,2.85-1.22l2.88-1.17c1-.39,2-.77,3-1.14s1.94-.72,2.92-1.07,2-.7,2.94-1L912.06,93.87c-1.28.43-2.54.88-3.8,1.34s-2.52.92-3.78,1.39-2.57,1-3.84,1.48-2.49,1-3.73,1.52-2.46,1-3.68,1.58-2.44,1.08-3.65,1.63l22.22,48.45C912.72,150.83,913.67,150.42,914.61,150Zm-11.31,5.42q1.37-.72,2.76-1.42c.95-.47,1.89-.95,2.85-1.4l-23.07-48c-1.23.59-2.46,1.21-3.68,1.82s-2.38,1.21-3.56,1.83-2.37,1.24-3.54,1.88l25.5,46.79C901.47,156.38,902.38,155.9,903.3,155.42ZM869.69,519.81c1.19.69,2.38,1.36,3.58,2l25.91-46.56c-.93-.52-1.85-1-2.77-1.57Zm-45.09-34c1,.94,2,1.86,3,2.79l36.25-39q-1.15-1.07-2.29-2.15Zm-16.55-17.65q1.29,1.53,2.6,3c.87,1,1.75,2,2.64,3s1.83,2,2.76,3,1.86,2,2.8,2.94,1.92,2,2.9,3l37.56-37.74L859,445c-.65-.65-1.28-1.31-1.92-2s-1.45-1.51-2.17-2.27-1.43-1.53-2.14-2.31-1.37-1.53-2-2.3-1.34-1.55-2-2.34-1.38-1.64-2.06-2.47L805.4,465Q806.71,466.59,808.06,468.17ZM788.87,442q1.09,1.72,2.21,3.43t2.29,3.43l44-30q-.9-1.32-1.78-2.66t-1.71-2.64c-.57-.89-1.13-1.78-1.68-2.69s-1.06-1.77-1.58-2.66l-45.93,26.86c.68,1.15,1.35,2.31,2,3.45S788.14,440.88,788.87,442Z"/><path class="cls-4" d="M1113.58,447.45l36.92,38.37c1-.92,1.9-1.84,2.84-2.78l-37.55-37.74C1115.05,446,1114.32,446.74,1113.58,447.45Z"/><path class="cls-4" d="M1132.28,426.48c-.64.84-1.28,1.68-1.93,2.5s-1.26,1.57-1.9,2.36L1169.7,465c.82-1,1.64-2,2.45-3s1.67-2.16,2.5-3.24,1.68-2.24,2.51-3.36l-42.93-31.45Q1133.26,425.19,1132.28,426.48Z"/><path class="cls-4" d="M1136,421.41l43.45,30.72c.76-1.07,1.5-2.16,2.25-3.24l-44-30Q1136.9,420.16,1136,421.41Z"/><path class="cls-4" d="M1142.92,410.92c-.55.9-1.11,1.79-1.67,2.68s-1.14,1.77-1.71,2.65l44.48,29.2q1.12-1.7,2.21-3.41c.73-1.15,1.45-2.3,2.16-3.47s1.37-2.3,2-3.45l-45.93-26.86C1144,409.14,1143.46,410,1142.92,410.92Z"/><path class="cls-4" d="M1151.83,394.42c-.45.94-.91,1.88-1.37,2.82s-.95,1.89-1.44,2.83-.94,1.81-1.42,2.7L1194.42,428c.63-1.16,1.24-2.33,1.84-3.5s1.25-2.44,1.85-3.67,1.19-2.42,1.77-3.65,1.16-2.44,1.71-3.67l-48.44-22C1152.72,392.53,1152.28,393.48,1151.83,394.42Z"/><path class="cls-4" d="M1160,374.17c-.32,1-.65,1.89-1,2.84s-.71,2-1.09,3-.72,1.92-1.09,2.87-.8,2-1.21,3l49.16,20.31c.53-1.29,1.06-2.57,1.57-3.87s.95-2.47,1.41-3.71.95-2.59,1.41-3.9.86-2.44,1.27-3.67.85-2.6,1.26-3.9l-50.72-16C1160.65,372.17,1160.32,373.18,1160,374.17Z"/><path class="cls-4" d="M1166.27,349.84c-.2,1.07-.4,2.13-.61,3.19s-.43,2-.65,3l51.89,11.58c.29-1.3.58-2.59.84-3.89s.54-2.75.79-4.13.46-2.6.68-3.9l-52.41-8.88C1166.63,347.83,1166.46,348.84,1166.27,349.84Z"/><path class="cls-4" d="M1168.45,334.38c-.1,1.07-.23,2.14-.35,3.21s-.24,2-.37,3l52.68,7.06c.17-1.29.33-2.59.48-3.9s.31-2.75.45-4.13.24-2.59.35-3.9l-53-4.36Q1168.6,332.88,1168.45,334.38Z"/><path class="cls-4" d="M1168.95,328.17l53,3.43c.09-1.38.17-2.75.23-4.13L1169.13,325C1169.08,326,1169,327.11,1168.95,328.17Z"/><path class="cls-4" d="M1222.46,315.54l-53.14.21c0,.24,0,.47,0,.71,0,.77,0,1.53,0,2.3l53.14.68c0-1,0-2,0-3C1222.48,316.15,1222.47,315.85,1222.46,315.54Z"/><path class="cls-4" d="M1135.12,210.26c.6.83,1.18,1.66,1.77,2.5s1.22,1.76,1.81,2.65,1.12,1.69,1.67,2.54,1.11,1.75,1.66,2.62,1.1,1.79,1.64,2.69,1.11,1.86,1.66,2.81,1,1.78,1.5,2.68,1,1.79,1.45,2.69,1,1.87,1.47,2.82.94,1.87,1.4,2.81.91,1.91,1.35,2.87.86,1.88,1.28,2.82.84,1.89,1.24,2.84l49-20.72c-.52-1.23-1.07-2.45-1.61-3.67s-1.09-2.44-1.66-3.64-1.16-2.48-1.75-3.71-1.19-2.43-1.81-3.64-1.26-2.43-1.9-3.64-1.24-2.33-1.87-3.48-1.28-2.32-1.93-3.46-1.42-2.42-2.14-3.63-1.4-2.32-2.12-3.48-1.41-2.27-2.14-3.39-1.44-2.21-2.17-3.3-1.55-2.28-2.34-3.42-1.51-2.16-2.28-3.22-1.64-2.27-2.47-3.39-1.62-2.13-2.45-3.19l-42.08,32.58c.63.82,1.27,1.64,1.89,2.47S1134.49,209.38,1135.12,210.26Z"/><path class="cls-4" d="M1160.51,260.34c.31.94.61,1.89.9,2.84s.61,2,.9,3,.56,2,.83,3,.53,2,.78,3,.5,2,.73,3,.47,2.13.7,3.2l52-11.11c-.29-1.38-.58-2.77-.9-4.14s-.63-2.6-.95-3.89-.66-2.61-1-3.9-.7-2.62-1.07-3.92-.76-2.6-1.16-3.9-.77-2.45-1.16-3.67-.84-2.6-1.29-3.89l-50.29,17.29C1159.85,258.33,1160.18,259.33,1160.51,260.34Z"/><path class="cls-4" d="M1167.51,290.71c.15,1.07.3,2.13.43,3.2s.24,2,.34,3l52.84-5.71c-.14-1.3-.29-2.61-.45-3.91s-.36-2.75-.55-4.12-.37-2.61-.58-3.91l-52.49,8.41Q1167.3,289.2,1167.51,290.71Z"/><path class="cls-4" d="M1169.18,309.35c0,1.07.08,2.13.1,3.2l53.13-1.14c0-1.38-.08-2.76-.13-4.13s-.1-2.6-.17-3.9l-53.06,3C1169.1,307.34,1169.14,308.35,1169.18,309.35Z"/><path class="cls-4" d="M1163,318.68c0-.74,0-1.48,0-2.22,0-.23,0-.46,0-.69q0-1.54,0-3.07c0-1-.06-2.06-.1-3.09l-53.25,2.08c0,.72.05,1.44.07,2.16s0,1.43,0,2.14c0,.16,0,.31,0,.47,0,.52,0,1,0,1.55,0,.72,0,1.43,0,2.15l53.27,1.61C1163,320.74,1163,319.71,1163,318.68Z"/><path class="cls-4" d="M1162.44,330.85c.08-1,.15-2.06.22-3.09s.13-2.05.17-3.08l-53.23-2.5c0,.72-.07,1.43-.12,2.14s-.1,1.44-.15,2.16-.11,1.35-.18,2l53,5.25Q1162.33,332.31,1162.44,330.85Z"/><path class="cls-4" d="M1161.49,339.76c.13-1,.24-1.94.35-2.91l-52.93-6.2c-.08.68-.16,1.35-.25,2s-.19,1.44-.3,2.15l52.7,8C1161.22,341.82,1161.36,340.79,1161.49,339.76Z"/><path class="cls-4" d="M1108.51,299.15c.1.72.2,1.43.29,2.15s.16,1.35.23,2l53-5.73q-.16-1.46-.33-2.91c-.13-1-.27-2.06-.42-3.09s-.28-1.94-.43-2.91-.33-2.06-.51-3.09L1107.86,295c.12.71.24,1.43.35,2.15S1108.42,298.47,1108.51,299.15Z"/><path class="cls-4" d="M1157.81,273.78q-.37-1.47-.76-2.92c-.26-1-.52-2-.8-2.92s-.57-1.95-.87-2.92l-51,15.63q.31,1,.6,2c.19.68.38,1.36.56,2s.36,1.35.53,2,.33,1.34.49,2,.32,1.43.47,2.15l52.13-11.14c-.22-1-.44-2.06-.67-3.09S1158.05,274.75,1157.81,273.78Z"/><path class="cls-4" d="M1156.68,363.43c.27-1,.54-1.93.79-2.91s.48-1.95.72-2.92.46-1.94.67-2.92.43-1.94.63-2.91.4-2.05.59-3.08.35-1.95.51-2.92l-52.55-8.9q-.17,1-.36,2c-.13.72-.26,1.44-.41,2.16s-.29,1.35-.44,2-.31,1.35-.47,2-.33,1.36-.5,2-.36,1.35-.55,2-.38,1.36-.58,2l51.12,15.14C1156.13,365.38,1156.41,364.4,1156.68,363.43Z"/><path class="cls-4" d="M1101.7,272.76c.25.64.49,1.28.73,1.93s.48,1.35.71,2l50.42-17.33q-.5-1.46-1-2.91c-.34-.93-.69-1.86-1-2.78s-.74-1.92-1.13-2.87-.75-1.86-1.13-2.77-.8-1.83-1.2-2.74l-48.73,21.62c.28.63.56,1.27.83,1.91s.53,1.28.79,1.93S1101.44,272.09,1101.7,272.76Z"/><path class="cls-4" d="M1151,380.59c.36-.92.71-1.85,1.05-2.77s.71-1.93,1.05-2.9.64-1.82.95-2.74.64-1.93.94-2.91l-50.85-16q-.32,1-.65,2c-.21.64-.44,1.28-.66,1.92s-.48,1.35-.73,2-.48,1.29-.73,1.93-.54,1.34-.82,2l49.28,20.36C1150.19,382.52,1150.58,381.56,1151,380.59Z"/><path class="cls-4" d="M1144.13,237.1c-.46-.91-.94-1.82-1.42-2.72s-.93-1.74-1.4-2.6-1-1.73-1.44-2.58-1.06-1.81-1.6-2.71l-45.76,27.32c.38.63.75,1.26,1.11,1.89s.67,1.2,1,1.8.65,1.2,1,1.81.66,1.25,1,1.89.63,1.26.94,1.9l48-23.28Q1144.81,238.45,1144.13,237.1Z"/><path class="cls-4" d="M817.5,154.21,856,191c.71-.74,1.43-1.47,2.16-2.2l-37.9-37.39C819.34,152.31,818.41,153.25,817.5,154.21Zm-18.24,21.57,42.64,31.86c.62-.83,1.26-1.65,1.89-2.46s1.25-1.59,1.88-2.38,1.32-1.64,2-2.46,1.37-1.64,2.07-2.45l-40.36-34.71q-1.36,1.58-2.68,3.17c-.87,1-1.72,2.11-2.57,3.17s-1.62,2-2.42,3.07S800.06,174.71,799.26,175.78Zm-4.75,6.62,43.71,30.36q.87-1.25,1.77-2.5l-43.2-31.08Q795.63,180.78,794.5,182.4ZM790,189.12c-.72,1.12-1.43,2.26-2.14,3.39l45.21,28.06c.55-.88,1.09-1.75,1.65-2.62s1.12-1.71,1.68-2.56l-44.24-29.57Q791.07,187.46,790,189.12ZM777.9,210.2q-.92,1.81-1.8,3.63L824,237.06q.69-1.41,1.4-2.81c.48-.95,1-1.88,1.47-2.82l-47-24.88C779.15,207.76,778.52,209,777.9,210.2Zm-5.21,11c-.54,1.22-1.08,2.44-1.61,3.67s-1,2.47-1.51,3.7l49.33,19.89c.39-1,.77-1.92,1.17-2.86s.82-1.9,1.24-2.84.85-1.89,1.28-2.82l-48.26-22.38Q773.5,219.36,772.69,221.19Zm-6,14.94q-.71,1.95-1.37,3.91c-.44,1.29-.87,2.59-1.29,3.89l50.58,16.41c.33-1,.66-2,1-3s.7-2,1.06-3,.71-1.92,1.08-2.87l-49.67-19C767.59,233.66,767.12,234.89,766.67,236.13Zm47,27L762.85,247.6q-.59,1.94-1.16,3.9l51.1,14.7C813.08,265.19,813.38,264.18,813.69,263.18Zm-54.09-3.86,51.57,12.93q.38-1.52.78-3l-51.35-13.81Q760.09,257.37,759.6,259.32Zm49.53,22.16c.2-1,.4-2,.61-3l-52-11.11q-.41,1.94-.79,3.9c-.25,1.3-.51,2.6-.74,3.9l52.34,9.34C808.74,283.49,808.94,282.49,809.13,281.48Zm274.62,249.43-21.81-48.63c-.94.42-1.89.83-2.84,1.24l21,49Q1081.93,531.72,1083.75,530.91Zm-26.44,10c1.26-.39,2.52-.8,3.77-1.22L1044.4,489c-1,.32-1.94.64-2.91.94s-2,.6-3,.89L1053.41,542C1054.72,541.67,1056,541.29,1057.31,540.89Zm-11.69,3.28c1.3-.33,2.59-.68,3.88-1l-14.06-51.41c-1,.27-2,.54-3,.79s-2,.5-3,.73l12.29,51.87Q1043.69,544.66,1045.62,544.17Zm116.26-176,51,15.12c.38-1.3.76-2.6,1.12-3.9l-51.23-14.24Q1162.33,366.63,1161.88,368.14Zm-44.95-179.37c.72.73,1.44,1.45,2.15,2.19s1.43,1.52,2.14,2.29,1.41,1.54,2.11,2.32,1.37,1.54,2,2.32,1.39,1.63,2.08,2.45l41-34q-1.33-1.6-2.68-3.17c-.87-1-1.75-2-2.63-3s-1.81-2-2.72-3-1.84-2-2.77-3-1.85-1.9-2.78-2.85-1.95-2-2.94-2.92l-37.23,38.06c.48.47,1,.94,1.45,1.41ZM840,221.36l44.79,28.87q.56-.87,1.13-1.72l-44.3-29.62Q840.82,220.12,840,221.36Zm40.81-44.18,32.34,42.22,1.64-1.24-31.64-42.75C882.39,176,881.61,176.59,880.83,177.18Zm-52.52,65.4q-.63,1.36-1.24,2.72l48.74,21.6q.42-.95.86-1.89c.3-.64.6-1.29.91-1.93l-48-23.28C829.18,240.73,828.74,241.65,828.31,242.58Zm44.36,32.11c.24-.65.48-1.29.73-1.93l-49.79-19.07c-.35.92-.7,1.84-1,2.77s-.69,1.94-1,2.91L872,276.72C872.2,276,872.43,275.36,872.68,274.69Zm-2,6-51-15.63q-.44,1.46-.87,2.92l51.24,14.73C870.28,282,870.48,281.33,870.69,280.65Zm-1.16,4.06L818,270.86q-.39,1.46-.76,2.92l51.71,13Q869.25,285.73,869.53,284.72Zm-1.9,8.24L815.32,282.7c-.19,1-.38,1.93-.55,2.91L867.24,295C867.36,294.3,867.49,293.62,867.63,293Zm-1.33,8.35-52.89-6.61q-.18,1.45-.33,2.91l53,5.73Q866.17,302.32,866.29,301.3Zm-.44,4.18-53.08-4.79c-.09,1-.17,1.93-.24,2.91l53.15,3.91C865.73,306.83,865.79,306.16,865.85,305.49ZM812.1,318.68c0,1,0,2.07.06,3.09s.07,1.94.11,2.91l53.23-2.5c0-.68-.06-1.35-.08-2s0-1.43,0-2.15ZM874.89,451q1.14,1,2.3,1.89l33.46-41.35L909,410.19Zm29.44-45L868.1,445q1.11,1,2.24,2l35.55-39.6C905.36,407,904.84,406.49,904.32,406Zm-6-6-38.85,36.41q1,1.11,2.09,2.19l38.21-37.06Q899.07,400.82,898.35,400Zm145,25.27,24.23,47.28c.89-.46,1.77-.92,2.65-1.39s1.75-.95,2.62-1.43,1.79-1,2.67-1.51,1.73-1,2.59-1.53l-27.44-45.52-1.8,1.07-1.86,1.06-1.82,1Zm-9.56,4.4-2,.8L1051,480q1.43-.55,2.85-1.14c.92-.38,1.85-.75,2.76-1.15l-20.9-48.81Zm-26.34,7.45,8.63,52.31c1-.16,2-.33,3-.51l-9.52-52.16Zm130.81-210.68q-.78-1.31-1.59-2.59L1091.4,252q.56.9,1.1,1.81Zm-99.72-21.23,1.94.91c.64.31,1.28.63,1.92,1l23.81-47.48c-.91-.46-1.83-.91-2.75-1.36s-1.85-.87-2.78-1.29-1.82-.82-2.74-1.22l-21.31,48.64Zm8.19-53.94c-.94-.34-1.88-.67-2.83-1l-17,50.26,2,.7ZM1035.8,276.41l41-34-1.32-1.56-40.36,34.73C1035.32,275.85,1035.57,276.13,1035.8,276.41ZM942.21,79.48c1.33-.25,2.66-.5,4-.73s2.75-.47,4.13-.68l-8.23-52.66c-1.69.26-3.36.54-5,.83s-3.26.58-4.88.89-3.39.65-5.07,1L938.06,80.3C939.43,80,940.82,79.75,942.21,79.48ZM871.69,314l53.15,1.14c0-.37,0-.74,0-1.11l-53.11-2.08C871.73,312.61,871.71,313.29,871.69,314Zm55.57-14.85-51.12-14.7c-.18.64-.36,1.29-.53,1.93L927,300.16C927.06,299.82,927.16,299.47,927.26,299.13Zm1.32-4.11-50-18.17q-.35,1-.68,1.92l50.31,17.3C928.35,295.72,928.46,295.36,928.58,295Zm.79-2L880,273.11q-.38.95-.75,1.9L929,294Zm2.74-5.87-47-24.88c-.31.6-.63,1.2-.93,1.8l47.47,24.06C931.77,287.78,931.94,287.45,932.11,287.13Zm165.7-6.44c-.21-.64-.42-1.28-.64-1.92s-.44-1.28-.67-1.92l-50,18.17c.13.35.24.7.36,1s.24.69.35,1Zm-58.76,0,43.72-30.36c-.37-.53-.74-1.07-1.12-1.59l-43.2,31.1Zm-99.76-4.29-41-34c-.43.52-.85,1-1.27,1.56l41.55,33.28Zm123.48-48.2-34.56,40.54.81.7,35.23-39.95Zm-19.29,59.9L1091,264c-.3-.6-.62-1.2-.93-1.79l-47,24.87ZM1103.38,320l-53.14-1.61c0,.35,0,.69,0,1l53.09,2.49Q1103.35,320.93,1103.38,320Zm5.18,205.3c-1.22.71-2.45,1.39-3.67,2.08s-2.39,1.32-3.6,2l25.11,47q2.21-1.18,4.4-2.4c1.5-.84,3-1.68,4.49-2.54s2.9-1.7,4.34-2.56l-27.5-45.62Q1110.35,524.23,1108.56,525.26Zm-18.49,9.67,22.63,48.24q2.33-1.1,4.64-2.23l-23.47-47.83Q1092,534,1090.07,534.93Zm64.79-44.57c-1,1-2,1.91-3,2.86s-2,1.89-3.07,2.81-2.07,1.86-3.12,2.77L1180.52,539c1.28-1.11,2.54-2.25,3.81-3.38s2.51-2.28,3.75-3.44,2.48-2.32,3.71-3.49,2.39-2.31,3.57-3.48l-37.57-37.75C1156.81,488.47,1155.84,489.42,1154.86,490.36Zm-25.4,21.28,31.32,43.08q2-1.46,4-2.94l-32-42.54C1131.64,510.05,1130.56,510.85,1129.46,511.64Zm31.3-27.16L1199,521.56q1.77-1.83,3.51-3.68l-38.86-36.41Q1162.21,483,1160.76,484.48Zm-78.19,53.82c-1.26.54-2.53,1.06-3.81,1.58l20.14,49.33c1.55-.63,3.1-1.27,4.64-1.93s3.07-1.32,4.59-2l-21.81-48.61Q1084.46,537.5,1082.57,538.3Zm89.28-66.06,40.67,34.38q1.68-2,3.33-4L1174.58,469C1173.68,470.06,1172.77,471.15,1171.85,472.24Zm-120.69,77c-1.32.36-2.65.72-4,1.06l13.17,51.64c1.63-.41,3.24-.85,4.86-1.29s3.27-.9,4.9-1.37l-14.93-51.16C1053.85,548.48,1052.51,548.85,1051.17,549.22ZM924.85,318.36c0-.37,0-.73,0-1.11l-53.15.68c0,.68,0,1.36,0,2ZM1189.29,448.9q-1.17,1.78-2.36,3.54l44,30q1.46-2.14,2.88-4.31t2.77-4.28l-45-28.46Q1190.44,447.16,1189.29,448.9ZM1221.13,377c-.34,1.34-.71,2.67-1.08,4l51.35,14.26c.45-1.62.9-3.25,1.32-4.88s.81-3.27,1.21-4.92L1222.12,373C1221.8,374.35,1221.48,375.7,1221.13,377Zm2.78-12c-.27,1.34-.57,2.67-.86,4l52,11.61c.36-1.62.72-3.25,1.06-4.88s.67-3.45,1-5.18l-52.39-9.79C1224.46,362.17,1224.2,363.59,1223.91,365Zm1.51-8.25,52.54,8.9c.27-1.63.55-3.26.79-4.89l-52.69-8C1225.87,354.08,1225.65,355.42,1225.42,356.75Zm2.84-24.75c-.09,1.42-.18,2.83-.3,4.25s-.23,2.67-.36,4-.3,2.83-.46,4.24l52.93,6.19c.2-1.73.4-3.45.57-5.19s.3-3.25.43-4.88.26-3.45.37-5.18Zm-48.61,130.5,42.4,32.23q1.59-2.09,3.15-4.22l-43-31.47Q1181,460.79,1179.66,462.51Zm38-73.46q-.63,2-1.3,4c-.42,1.26-.86,2.51-1.3,3.76s-.95,2.68-1.44,4l49.93,18.63q.9-2.43,1.76-4.88c.54-1.53,1.08-3.06,1.59-4.6s1.07-3.25,1.58-4.89,1-3.25,1.48-4.89L1218.9,385C1218.51,386.38,1218.11,387.72,1217.7,389ZM1035,553c-1.36.27-2.73.54-4.11.78s-2.75.47-4.13.7l8.67,52.58c1.68-.27,3.36-.55,5-.85s3.35-.63,5-1,3.28-.67,4.91-1L1039,552.18C1037.71,552.47,1036.37,552.75,1035,553Zm172.31-136.86c-.57,1.26-1.17,2.52-1.76,3.77s-1.21,2.5-1.82,3.74-1.26,2.52-1.9,3.77l47.31,24.5q1.18-2.28,2.32-4.59t2.23-4.57c.73-1.53,1.45-3.06,2.15-4.61s1.36-3.06,2-4.6L1209,412.39C1208.45,413.65,1207.9,414.91,1207.34,416.16ZM1059.18,546.91,1075,597.8c1.58-.49,3.15-1,4.72-1.53l-16.67-50.61C1061.76,546.08,1060.48,546.51,1059.18,546.91ZM988.11,379.18l.47,53.29,2,0-1.37-53.29ZM894.48,93.79q1.91-.8,3.83-1.56L878.6,42.71q-2.35.93-4.68,1.91c-1.55.65-3.08,1.31-4.62,2l21.38,48.81C891.95,94.86,893.21,94.32,894.48,93.79ZM857.67,113c1.19-.76,2.4-1.51,3.6-2.25L833.4,65.39c-1.47.91-2.94,1.81-4.4,2.74s-2.74,1.79-4.11,2.69l29.41,44.41C855.43,114.5,856.54,113.76,857.67,113Zm-55.83,49.3-41-34c-1.09,1.31-2.16,2.64-3.23,4l41.57,33.29C800.08,164.49,801,163.41,801.85,162.33ZM844,122.46,812.32,79.65c-1.32,1-2.64,2-3.94,3l32.4,42.27C841.84,124.08,842.91,123.26,844,122.46Zm77.9-38.22L907.39,33c-1.64.46-3.26,1-4.89,1.44l15.38,51C919.22,85,920.55,84.62,921.89,84.24ZM878.94,357l49.84-18.59c-.13-.34-.25-.69-.38-1s-.22-.65-.33-1l-50.45,16.88c.2.61.41,1.21.63,1.81S878.7,356.35,878.94,357Zm61.43.75-.69-.8L899,391.3l1.28,1.49ZM886.94,97.09,864.72,48.66c-1.56.71-3.12,1.43-4.67,2.18l23.06,48C884.38,98.26,885.66,97.67,886.94,97.09ZM955,427.85l1.92.54L971,377l-1-.29ZM982.52,22q-2.52,0-5,.13c-1.73.06-3.46.11-5.18.2l2.76,53.22c1.41-.07,2.83-.11,4.24-.16s2.74-.08,4.12-.1Zm0,410.37,2,.08,1.38-53.29-1.07,0ZM958,371.78l-25.12,47,1.75.93,24.32-47.44ZM794.21,172l-42.67-31.88c-1.05,1.41-2.08,2.83-3.11,4.26l43.23,31.12C792.5,174.33,793.35,173.16,794.21,172Zm-33.46,62-50.09-18.21q-.88,2.44-1.72,4.89L759.34,238C759.8,236.65,760.26,235.31,760.75,234ZM798.4,542.29q1.92,1.61,3.87,3.18l33.5-41.4q-1.6-1.29-3.17-2.61ZM955.18,370.18l-27.5,45.64,1.7,1,26.73-46.11Z"/><path class="cls-6" d="M665,492.31V392.78H688.4q16.2,0,25.63,10.36t9.71,28.54v20.85q0,18.73-9.54,29.26t-26.76,10.53Zm7.79-92.15v84.9h15.11q13.33,0,20.64-8.24T716,453.27V432.42q0-15.31-7.14-23.79t-20.68-8.48Z"/><path class="cls-6" d="M783,464.49H745.63l-8.48,27.82H729l31.72-99.53H768l31.72,99.53h-8.13Zm-35.07-7.31H780.7l-16.41-53.39Z"/><path class="cls-6" d="M818.09,492.31H810.3V392.78h7.79Z"/><path class="cls-6" d="M845.31,485.06h41v7.25H837.44V392.78h7.86Z"/><path class="cls-6" d="M905.19,446.92,930,392.78h9L909,454.85v37.46h-7.79V454.85l-29.87-62.07h9.16Z"/><path class="cls-6" d="M695.92,578.45H672.68v41.43h-7.86V520.35H692.1q13.6,0,21.09,7.76t7.48,21.57A30.75,30.75,0,0,1,716,566.59a24.15,24.15,0,0,1-12.51,10.08L724.22,619v.89h-8.34Zm-23.24-7.25h20.78q8.82,0,14.08-6t5.26-15.48q0-10.46-5.47-16.2T692,527.73H672.68Z"/><path class="cls-6" d="M798.74,619.88h-7.86V572.23H744.12v47.65h-7.79V520.35h7.79V565h46.76V520.35h7.86Z"/><path class="cls-6" d="M839.63,574.49l24.81-54.14h9l-29.94,62.07v37.46h-7.79V582.42l-29.87-62.07h9.16Z"/><path class="cls-6" d="M940.53,527.73h-28.3v92.15h-7.86V527.73H876.14v-7.38h64.39Z"/><path class="cls-6" d="M1013.34,619.88h-7.86V572.23H958.72v47.65h-7.79V520.35h7.79V565h46.76V520.35h7.86Z"/><path class="cls-6" d="M1041.71,520.35l30.15,87.57,30.28-87.57h10.32v99.53h-7.79V576.74l.68-43.41-30.49,86.54h-6l-30.35-86.13.68,42.72v43.41h-7.79V520.35Z"/><path class="cls-5" d="M985.69,340a.5.5,0,0,1-.44-.25,5.49,5.49,0,0,0-.43-.64.5.5,0,1,1,.79-.61,6.42,6.42,0,0,1,.51.76.5.5,0,0,1-.19.68A.49.49,0,0,1,985.69,340Z"/><path class="cls-5" d="M992.08,341a6.89,6.89,0,0,1-.94,2.48,12,12,0,0,1-1.59,2,14.87,14.87,0,0,1-1.81,1.64,7.76,7.76,0,0,1-2.18,1.13h0l-.34.11a.4.4,0,0,1-.46-.17l-3.33-5.29a10.68,10.68,0,0,1-1.5-2.91,3.22,3.22,0,0,1,.06-1.82,2.36,2.36,0,0,1,1.27-1.45.5.5,0,0,1,.4.92h0a1.8,1.8,0,0,0-.75,2.11,10,10,0,0,0,1.37,2.61l3.33,5.29-.8-.06h0a5.41,5.41,0,0,1,1.23-2.3,17.31,17.31,0,0,1,1.75-1.65c.59-.51,1.18-1,1.72-1.5s1.09-1,1.66-1.6h0a.52.52,0,0,1,.89.44Z"/><path class="cls-5" d="M1000.86,347.23a.5.5,0,0,1-.22-.05c-2.08-1-2.74-2.52-3.5-4.26-.26-.6-.54-1.22-.89-1.87a.5.5,0,1,1,.88-.48c.37.69.65,1.33.93,1.95.71,1.62,1.28,2.9,3,3.76a.5.5,0,0,1-.22.95Z"/><path class="cls-5" d="M994.09,344.55a2,2,0,0,1-.78-.15,1.83,1.83,0,0,1-1.12-1.73,1.66,1.66,0,0,1,3.23-.48,1.72,1.72,0,0,1,0,1.24l0,.08a.5.5,0,0,1-.15.69A2.23,2.23,0,0,1,994.09,344.55Zm-.17-2.48a.75.75,0,0,0-.42.14.68.68,0,0,0-.31.5.84.84,0,0,0,.51.76,1.07,1.07,0,0,0,.69,0,.5.5,0,0,1,.06-.4.75.75,0,0,0-.37-1Z"/><path class="cls-5" d="M994.16,342.44c1.81,5.42,3.72,10.92,5.51,16.49l1.33,4.16.65,2.08a4.86,4.86,0,0,1,.32,2.32,3.52,3.52,0,0,1-1.29,2.06,9.14,9.14,0,0,1-1.91,1.18c-1.25.6-2.54,1.27-2.89,2.4a.5.5,0,0,1-.63.32.51.51,0,0,1-.31-.28,8.43,8.43,0,0,0-3.64-4.05h0l0,0a.44.44,0,0,1-.2-.48c.45-1.92.77-3.88,1-5.83s.5-3.92.7-5.89.37-3.94.51-5.91.3-3.95.4-5.94h0l.36.55a1.14,1.14,0,0,1-.79-.68,1.53,1.53,0,0,1,0-.9,6.15,6.15,0,0,1,.21-.64l.11-.29,0-.07a1.33,1.33,0,0,1,.06-.14A.81.81,0,0,1,994.16,342.44Zm0,1a.33.33,0,0,0,.39-.11c0-.07,0,0,0,0l0,.08-.11.29a5.31,5.31,0,0,0-.18.53.64.64,0,0,0,0,.31s0,0,.13.07l.06,0a.45.45,0,0,1,.3.53h0c-.46,1.92-.78,3.87-1.06,5.83s-.5,3.92-.69,5.89-.36,3.94-.5,5.91-.3,3.95-.42,5.93l-.25-.51h0a9.43,9.43,0,0,1,4.07,4.54l-.94,0a3.86,3.86,0,0,1,1.48-1.9,12.5,12.5,0,0,1,1.93-1.09c1.21-.58,2.46-1.38,2.66-2.51a4,4,0,0,0-.29-1.85l-.62-2-1.22-4C997.24,354.22,995.75,348.88,994.16,343.44Z"/><path class="cls-5" d="M983,339.07q-2.86.78-5.74,1.43c-.93.24-2,.4-2.73.66a2.38,2.38,0,0,0-.84.49,3.39,3.39,0,0,0-.62.85,25.22,25.22,0,0,0-1.07,2.51,20.64,20.64,0,0,1-1,2.64c-.23.42-.51.84-.72,1.28a12.55,12.55,0,0,0-.51,1.36,17.82,17.82,0,0,0-.7,2.82.5.5,0,0,1-1-.11c.06-1,.13-2,.21-3l.14-1.52c0-.51,0-1,.06-1.57a10.22,10.22,0,0,1,.94-2.92,20.59,20.59,0,0,1,1.42-2.83,5.81,5.81,0,0,1,1.25-1.41,4.55,4.55,0,0,1,1.77-.84,26,26,0,0,1,3.07-.39q2.94-.28,5.9-.43a.5.5,0,0,1,.16,1Z"/><path class="cls-5" d="M1005.9,337.17c1.06,0,2.13-.27,3.31-.38a7.52,7.52,0,0,1,3.61.53,15.76,15.76,0,0,1,5.83,4,9.66,9.66,0,0,1,1.16,1.49,8.4,8.4,0,0,1,.84,1.75,21.14,21.14,0,0,1,.84,3.62,22.7,22.7,0,0,1,.3,3.45c0,.55,0,1.1-.07,1.64s-.24,1.06-1.24,1.66h0a1,1,0,0,1-1,0c-1.05-.51-1.3-1.12-1.34-1.7a15,15,0,0,1,0-1.72c0-1.13.21-2.21.31-3.26a8.56,8.56,0,0,0-.18-3,6.62,6.62,0,0,0-1.28-2.56,13.87,13.87,0,0,0-4.78-4,5.81,5.81,0,0,0-2.92-.71c-1.05,0-2.21.18-3.39.11a.5.5,0,0,1,0-1Z"/><path class="cls-5" d="M995.23,341a46.22,46.22,0,0,1-10.5-1.21c-3.36-.79-5.36-1.81-7-5.23-2.81-6-.78-20.62,4.63-24.88a11.07,11.07,0,0,1,4.13-1.73c3.91-1,8.78-2.33,13.27-1.06,3.35.94,6.07,3.13,8.8,5.47,5.45,4.68,7.9,11.08,6.57,17.11a.5.5,0,0,1-1-.21c1.25-5.66-1.09-11.7-6.25-16.13-2.64-2.27-5.27-4.38-8.42-5.27-4.23-1.19-9,.06-12.75,1.06a10.31,10.31,0,0,0-3.76,1.55c-5,3.92-7,18.05-4.35,23.67,1.44,3.07,3.18,4,6.29,4.68A45.1,45.1,0,0,0,996,340c4.78-.08,8.43-1,11.18-2.87,3.43-2.31,5.28-6.31,4.5-9.73a.5.5,0,0,1,.38-.6.49.49,0,0,1,.6.38c.87,3.81-1.16,8.24-4.92,10.78-2.91,2-6.75,3-11.72,3Z"/><path class="cls-5" d="M986,328.18a5,5,0,0,1-.58,0,3.32,3.32,0,0,1-2.95-2.23l-.17,0c-1.71,0-3.21-3.2-3.49-4-.1-.27-.17-.55-.25-.83a5.69,5.69,0,0,0-.47-1.31c-.28-.49-.87-.9-1.34-.74a.5.5,0,0,1-.33-.95,2.23,2.23,0,0,1,2.54,1.19,6.39,6.39,0,0,1,.57,1.54c.07.26.14.51.23.76a9.29,9.29,0,0,0,1.23,2.24,7.26,7.26,0,0,1,.63-4.22,3.77,3.77,0,0,1,3.14-2.54,6.42,6.42,0,0,1,5.49,3.06,5.28,5.28,0,0,1,.41,5.58A5.47,5.47,0,0,1,986,328.18Zm-2.79-7.05.13,0a.5.5,0,0,1,.36.61,7.38,7.38,0,0,0-.31,3.72,2.33,2.33,0,0,0,2.15,1.68,4.6,4.6,0,0,0,4.25-1.91,4.33,4.33,0,0,0-.37-4.54,5.45,5.45,0,0,0-4.56-2.61,2.78,2.78,0,0,0-2.31,1.92c-.77,1.88-.87,3.28-.29,4.42a11.59,11.59,0,0,1,.48-2.92A.5.5,0,0,1,983.22,321.12Z"/><path class="cls-5" d="M1006,325a19,19,0,0,1-5.21-.16,8.35,8.35,0,0,1-2.64-1,7.77,7.77,0,0,1-2.12-2,5.45,5.45,0,0,1-1.1-2.93,3.4,3.4,0,0,1,.43-1.82,3.7,3.7,0,0,1,.56-.77,4.87,4.87,0,0,1,.68-.55,5.33,5.33,0,0,1,3.12-.84,8.4,8.4,0,0,1,2.89.58,9.07,9.07,0,0,1,2.55,1.48,5.12,5.12,0,0,1,1.11,1.28,3.84,3.84,0,0,1,.52,1.82,5.67,5.67,0,0,1-3,5,6.49,6.49,0,0,1-2.68.81,4.08,4.08,0,0,1-2.59-.84,6.72,6.72,0,0,1-2.38-4.66.5.5,0,1,1,1-.12.57.57,0,0,1,0,.11,4.61,4.61,0,0,0,1.77,4.14,3,3,0,0,0,2.14.55,3.17,3.17,0,0,0,1.91-1.07,6.15,6.15,0,0,0,1.16-3.81,1.15,1.15,0,0,0-.15-.58,2.53,2.53,0,0,0-.54-.61,6.49,6.49,0,0,0-1.78-1c-1.3-.53-2.84-.69-3.7-.12a2.53,2.53,0,0,0-.31.23c-.05.09-.17.14-.2.23a1,1,0,0,0-.18.59,3.26,3.26,0,0,0,.58,1.74,5.75,5.75,0,0,0,1.41,1.57,7.54,7.54,0,0,0,2,1,23.71,23.71,0,0,0,4.8.8.5.5,0,0,1,0,1Z"/><path class="cls-5" d="M993.62,329.4a3.24,3.24,0,0,1-2.64-1.23.87.87,0,0,1-.57-.63c-.3-1.15,1.39-3.86,2.4-4.5A.5.5,0,0,1,993,323a3.26,3.26,0,1,1,1,6.42Zm-2.25-2.17a.51.51,0,0,1,.34.23,2.25,2.25,0,1,0,1.57-3.53A6.57,6.57,0,0,0,991.36,327.23Z"/><path class="cls-5" d="M986.65,329.94a4.61,4.61,0,0,1,2.64-1.8h0a.49.49,0,0,1,.57.65l-1.64,4.09h0a.25.25,0,0,1-.48-.11,6.15,6.15,0,0,1,1.94-4.1h0a.49.49,0,0,1,.82.4v0a8.15,8.15,0,0,0,.38,3.44l-1,0,.73-2.64a.5.5,0,0,1,1,0,7.63,7.63,0,0,0,.89,1.8l-.87.08a5.44,5.44,0,0,0,.39-1.42h0a.5.5,0,0,1,1-.08.59.59,0,0,0,.35.36l-.65.35.24-1v0a.47.47,0,0,1,.82-.18,2.36,2.36,0,0,1,.47,1c.08.31.13.6.19.89s.11.57.18.84a2.17,2.17,0,0,0,.21.58l-.83.22c.06-.23.11-.53.15-.8l.12-.84c0-.28.06-.56.07-.83a3.48,3.48,0,0,0,0-.62.49.49,0,0,1,.77-.61l0,0,.84.8-.83.23a4.44,4.44,0,0,0,.15-1.31v0a.49.49,0,0,1,.83-.38,10.67,10.67,0,0,1,1.36,1.71,4.72,4.72,0,0,0,1.24,1.33l-.72.53-.23-1.73c0-.28-.08-.56-.14-.83a4.23,4.23,0,0,0-.19-.73h0a.5.5,0,0,1,.91-.41,1.59,1.59,0,0,0,1.13.85l-.54.7-1.18-2.65a.5.5,0,0,1,.75-.61l3.33,2.4a.5.5,0,0,1-.59.81l-3.33-2.4.75-.61,1.18,2.65a.5.5,0,0,1-.54.7,2.58,2.58,0,0,1-1.86-1.4l.91-.42a4.9,4.9,0,0,1,.26.94c.06.3.1.59.14.88l.23,1.71v0a.49.49,0,0,1-.72.5,3.38,3.38,0,0,1-.93-.79c-.25-.28-.46-.57-.66-.86a10.4,10.4,0,0,0-1.2-1.53l.83-.4a5.44,5.44,0,0,1-.18,1.61.5.5,0,0,1-.83.23l-.84-.8.79-.58a1.69,1.69,0,0,1,.12.62c0,.17,0,.32,0,.48,0,.31,0,.6-.08.9l-.12.88c0,.3-.09.57-.17.91v0a.47.47,0,0,1-.83.19,2.36,2.36,0,0,1-.47-1c-.08-.31-.13-.6-.19-.89s-.11-.57-.18-.84a2.17,2.17,0,0,0-.21-.58l.84-.23-.24,1a.5.5,0,0,1-.6.36h0a1.59,1.59,0,0,1-1-1l1-.09a6.44,6.44,0,0,1-.46,1.68.5.5,0,0,1-.87.08,8.63,8.63,0,0,1-1-2l1,0-.73,2.64a.5.5,0,0,1-1,0,9.14,9.14,0,0,1-.43-3.86l.82.44h0a5.4,5.4,0,0,0-2.09,3.39l-.48-.11h0l1.16-4.25.59.64h0a3.62,3.62,0,0,0-2.06,1.4.5.5,0,0,1-.82-.58Z"/><path class="cls-5" d="M990,320.28H990a.5.5,0,0,1-.43-.56,3.45,3.45,0,0,1,4.94-2.65,6.42,6.42,0,0,1,2.08,1.93.5.5,0,0,1-.79.62A5.56,5.56,0,0,0,994,318a2.45,2.45,0,0,0-3.51,1.88A.5.5,0,0,1,990,320.28Z"/><path class="cls-5" d="M1002.34,320.58a.5.5,0,0,1-.38-.83,15.78,15.78,0,0,1,5-3.3,23.39,23.39,0,0,0,3.28-1.82.5.5,0,1,1,.58.81,24.44,24.44,0,0,1-3.42,1.9,15.07,15.07,0,0,0-4.73,3.06A.5.5,0,0,1,1002.34,320.58Z"/><path class="cls-5" d="M1001.07,316a4.57,4.57,0,0,1-.94-.1,8.74,8.74,0,0,1-.92-.27,6.29,6.29,0,0,0-1-.27,1.37,1.37,0,0,0-1.31.37.5.5,0,0,1-.91-.27l0-1.28-.18,0a.5.5,0,0,1,.18-1l.57.1a.5.5,0,0,1,.41.48l0,.75a2.84,2.84,0,0,1,1.41-.12,7.29,7.29,0,0,1,1.13.3,7.58,7.58,0,0,0,.82.24,3.65,3.65,0,0,0,2.68-.48.5.5,0,1,1,.54.84A4.64,4.64,0,0,1,1001.07,316Z"/><path class="cls-5" d="M981.45,318a.5.5,0,0,1-.39-.81,9.8,9.8,0,0,1,1.8-1.88,3.62,3.62,0,0,1,2.7-.75,2.43,2.43,0,0,1,2,2.08.5.5,0,0,1-.46.54.49.49,0,0,1-.54-.46,1.43,1.43,0,0,0-1.21-1.17,2.66,2.66,0,0,0-1.95.58,9,9,0,0,0-1.61,1.7A.5.5,0,0,1,981.45,318Z"/><path class="cls-5" d="M1002.23,347.78a.5.5,0,0,1-.34-.86l9.81-9.21a.5.5,0,0,1,.68.73l-9.81,9.21A.49.49,0,0,1,1002.23,347.78Z"/><path class="cls-5" d="M1010.52,312a11.37,11.37,0,0,1,8.1-3.16,7.71,7.71,0,0,1,4.3,1.38,11.56,11.56,0,0,1,3,3.27,10.37,10.37,0,0,1,1.6,4.32,7.91,7.91,0,0,1-1.08,4.91,8.7,8.7,0,0,1-3.63,3.39,5.26,5.26,0,0,1-4.93-.07.62.62,0,0,1-.12-1l0,0a20.26,20.26,0,0,1,3-2.55,21.1,21.1,0,0,0,2.71-2,5.81,5.81,0,0,0,1.94-2.78,5,5,0,0,0-.45-3.7,6.06,6.06,0,0,0-2.79-2.67,10.19,10.19,0,0,0-3.69-.89,12.16,12.16,0,0,0-7.39,2.32h0a.5.5,0,0,1-.63-.77Z"/><path class="cls-5" d="M977.88,314a15.81,15.81,0,0,0-7.64,1.79,6.62,6.62,0,0,0-2.61,2.64,8.81,8.81,0,0,0-.93,3.49,9.22,9.22,0,0,0,1.85,6.57,7.62,7.62,0,0,0,2.95,2.31,5.77,5.77,0,0,0,3.78.42.5.5,0,1,1,.26,1l-.11,0a14.66,14.66,0,0,1-4.27-.4,10.94,10.94,0,0,1-3.95-1.94,8.3,8.3,0,0,1-2.73-3.72,8.43,8.43,0,0,1-.27-4.63,10.53,10.53,0,0,1,5.46-6.79,21.72,21.72,0,0,1,8.17-1.73.5.5,0,0,1,.08,1Z"/><path class="cls-5" d="M977.92,335.45a3.67,3.67,0,0,1-3.15-2.37,9.21,9.21,0,0,1-.35-4.16l.82-11.59a6.85,6.85,0,0,1,.87-3.4,2.67,2.67,0,0,1,3.53-1,.5.5,0,0,1-.55.84,1.71,1.71,0,0,0-2.15.71,6,6,0,0,0-.7,2.91L975.41,329a8.45,8.45,0,0,0,.28,3.71,2.53,2.53,0,0,0,2.52,1.71.51.51,0,0,1,.58.4.5.5,0,0,1-.4.58A2.66,2.66,0,0,1,977.92,335.45Z"/><path class="cls-5" d="M1014.6,329.74h0a.5.5,0,0,1,0-1h0a2.39,2.39,0,0,0,2.06-1.91,7.2,7.2,0,0,0-.24-3.42,22,22,0,0,0-2.91-7.23,9.72,9.72,0,0,0-6.09-4.26.5.5,0,1,1,.17-1,10.72,10.72,0,0,1,6.74,4.68,23,23,0,0,1,3.06,7.56,8,8,0,0,1,.23,3.91A3.36,3.36,0,0,1,1014.6,329.74Z"/><path class="cls-5" d="M978,314.8a.5.5,0,0,1-.5-.47,37.1,37.1,0,0,1,.11-8.91,12.8,12.8,0,0,1,4.26-7.9,13.17,13.17,0,0,1,7.5-2.58A20.72,20.72,0,0,1,1011,312.36a.5.5,0,1,1-1,.16,19.71,19.71,0,0,0-20.67-16.58,12.2,12.2,0,0,0-6.93,2.36,11.82,11.82,0,0,0-3.9,7.29,36.44,36.44,0,0,0-.09,8.67.5.5,0,0,1-.46.53Z"/><path class="cls-5" d="M1010.22,311.65a18.53,18.53,0,0,0-1.08-7.36,19.88,19.88,0,0,0-3.68-6.54,15.14,15.14,0,0,0-6.19-4.17,22.46,22.46,0,0,0-7.4-1.43,23.76,23.76,0,0,0-3.78.2,14.82,14.82,0,0,0-1.84.33,7.21,7.21,0,0,0-1.67.78,28.83,28.83,0,0,0-5.54,5.1,11.9,11.9,0,0,0-2.4,6.91,31.84,31.84,0,0,0,.74,7.5.5.5,0,1,1-1,.19h0a32.66,32.66,0,0,1-.56-7.72,12.93,12.93,0,0,1,2.69-7.27c.88-1,1.77-1.86,2.71-2.76A18,18,0,0,1,984.3,293a8.16,8.16,0,0,1,1.8-.82,15,15,0,0,1,1.92-.34,24.26,24.26,0,0,1,3.86-.18,23,23,0,0,1,7.55,1.5,16.35,16.35,0,0,1,6.39,4.28,22.32,22.32,0,0,1,3.92,6.65,20.94,20.94,0,0,1,1.48,7.63.5.5,0,1,1-1,0v0Z"/><path class="cls-5" d="M976.22,313.58a.5.5,0,0,1-.45-.72,1,1,0,0,0-.42-.2L969,311.51a.5.5,0,0,1,.07-1l2.65-.1a2.59,2.59,0,0,1-.46-2.09.49.49,0,0,1,.54-.38l2.71.3a.5.5,0,0,1,.74-.53l6.43,3.59a.5.5,0,0,1-.49.87l-5.27-2.94a.51.51,0,0,1-.39.13l-3.32-.36a1.63,1.63,0,0,0,1.08,1.39.5.5,0,0,1,.11.9l2.12.38a1.67,1.67,0,0,1,1.25.92.8.8,0,0,1-.19.82A.5.5,0,0,1,976.22,313.58Z"/><path class="cls-5" d="M1010.07,311.31l8.92-5.24a.5.5,0,0,1,.52.85l-2.78,1.77a.5.5,0,0,1-.77-.41l-.13-4.52,1,.13h0a4.14,4.14,0,0,1-3.9,2.48,3.83,3.83,0,0,1-2.2-.93,4,4,0,0,1-1.3-2.09h0l.93.17-3.14,5.61a.5.5,0,0,1-.92-.12l-.83-3.15h1a2.21,2.21,0,0,0,0,1.23,4.65,4.65,0,0,0,.68,1.2,5.55,5.55,0,0,1,.82,1.47,3.23,3.23,0,0,1,0,1.79.5.5,0,0,1-1-.24h0a2.21,2.21,0,0,0,0-1.23,4.64,4.64,0,0,0-.68-1.2,5.55,5.55,0,0,1-.82-1.47,3.22,3.22,0,0,1,0-1.79.5.5,0,0,1,1,0l.83,3.15-.92-.12,3.14-5.61v0a.49.49,0,0,1,.92.19h0a2.84,2.84,0,0,0,2.55,2.58,2.75,2.75,0,0,0,1.89-.56,2.54,2.54,0,0,0,1-1.62h0v0a.5.5,0,0,1,1,.16l.13,4.52-.77-.41,2.78-1.77.52.85-8.92,5.24a.5.5,0,0,1-.51-.86Z"/></svg>