<svg id="Layer_1" data-name="Layer 1" xmlns="http://www.w3.org/2000/svg" xmlns:xlink="http://www.w3.org/1999/xlink" viewBox="0 0 1320 670"><defs><style>.cls-1{fill:none;}.cls-2{fill:#1e1e1b;}.cls-3{fill:#555146;}.cls-4{fill:url(#New_Pattern_Swatch_1);}.cls-5{fill:#57caef;}.cls-6{fill:#ffce06;}.cls-7{fill:#ee3766;}.cls-8{fill:#74c044;}.cls-9{fill:#fff8ce;}.cls-10{fill:#fff8cd;}.cls-11{fill:url(#New_Pattern_Swatch_1-227);}</style><pattern id="New_Pattern_Swatch_1" data-name="New Pattern Swatch 1" width="112" height="139" patternTransform="translate(303 -406)" patternUnits="userSpaceOnUse" viewBox="0 0 112 139"><rect class="cls-1" width="112" height="139"/><rect class="cls-2" width="112" height="139"/></pattern><pattern id="New_Pattern_Swatch_1-227" data-name="New Pattern Swatch 1" width="112" height="139" patternTransform="translate(0 -406)" patternUnits="userSpaceOnUse" viewBox="0 0 112 139"><rect class="cls-1" width="112" height="139"/><rect class="cls-2" width="112" height="139"/></pattern></defs><title>yg-beatles-170816-0918-wireframes-index</title><rect class="cls-3" x="99" y="151.09" width="44.5" height="31"/><path class="cls-4" d="M144.5,183.09H98v-33h46.5Zm-44.5-2h42.5v-29H100Z"/><rect class="cls-5" x="143.5" y="151.09" width="44.5" height="31" transform="translate(331.5 333.18) rotate(180)"/><path class="cls-4" d="M189,183.09H142.5v-33H189Zm-44.5-2H187v-29H144.5Z"/><rect class="cls-5" x="188" y="151.09" width="43" height="31"/><path class="cls-4" d="M232,183.09H187v-33h45Zm-43-2h41v-29H189Z"/><rect class="cls-6" x="231" y="151.09" width="36" height="31" transform="translate(498 333.18) rotate(180)"/><path class="cls-4" d="M268,183.09H230v-33h38Zm-36-2h34v-29H232Z"/><rect class="cls-5" x="267" y="151.09" width="42" height="31"/><path class="cls-4" d="M310,183.09H266v-33h44Zm-42-2h40v-29H268Z"/><rect class="cls-5" x="309" y="151.09" width="45" height="31" transform="translate(663 333.18) rotate(180)"/><path class="cls-4" d="M355,183.09H308v-33h47Zm-45-2h43v-29H310Z"/><rect class="cls-6" x="354" y="151.09" width="33" height="31"/><path class="cls-4" d="M388,183.09H353v-33h35Zm-33-2h31v-29H355Z"/><rect class="cls-5" x="387" y="151.09" width="44" height="31" transform="translate(818 333.18) rotate(180)"/><path class="cls-4" d="M432,183.09H386v-33h46Zm-44-2h42v-29H388Z"/><rect class="cls-5" x="431" y="151.09" width="41" height="31"/><path class="cls-4" d="M473,183.09H430v-33h43Zm-41-2h39v-29H432Z"/><rect class="cls-5" x="472" y="151.09" width="47" height="31" transform="translate(991 333.18) rotate(180)"/><path class="cls-4" d="M520,183.09H471v-33h49Zm-47-2h45v-29H473Z"/><rect class="cls-6" x="519" y="151.09" width="35" height="31"/><path class="cls-4" d="M555,183.09H518v-33h37Zm-35-2h33v-29H520Z"/><rect class="cls-3" x="554" y="151.09" width="47" height="31" transform="translate(1155 333.18) rotate(180)"/><path class="cls-4" d="M602,183.09H553v-33h49Zm-47-2h45v-29H555Z"/><rect class="cls-3" x="601" y="151.09" width="10" height="31"/><path class="cls-4" d="M612,183.09H600v-33h12Zm-10-2h8v-29h-8Z"/><rect class="cls-3" x="99" y="188.18" width="19.5" height="31"/><path class="cls-4" d="M119.5,220.18H98v-33h21.5Zm-19.5-2h17.5v-29H100Z"/><rect class="cls-5" x="118.5" y="188.18" width="29.5" height="31" transform="translate(266.5 407.36) rotate(180)"/><path class="cls-4" d="M149,220.18H117.5v-33H149Zm-29.5-2H147v-29H119.5Z"/><rect class="cls-5" x="148" y="188.18" width="27" height="31"/><path class="cls-4" d="M176,220.18H147v-33h29Zm-27-2h25v-29H149Z"/><rect class="cls-6" x="175" y="188.18" width="21" height="31" transform="translate(371 407.36) rotate(180)"/><path class="cls-4" d="M197,220.18H174v-33h23Zm-21-2h19v-29H176Z"/><rect class="cls-6" x="196" y="188.18" width="54" height="31"/><path class="cls-4" d="M251,220.18H195v-33h56Zm-54-2h52v-29H197Z"/><rect class="cls-5" x="250" y="188.18" width="28" height="31" transform="translate(528 407.36) rotate(180)"/><path class="cls-4" d="M279,220.18H249v-33h30Zm-28-2h26v-29H251Z"/><rect class="cls-5" x="278" y="188.18" width="31" height="31"/><path class="cls-4" d="M310,220.18H277v-33h33Zm-31-2h29v-29H279Z"/><rect class="cls-6" x="309" y="188.18" width="19" height="31" transform="translate(637 407.36) rotate(180)"/><path class="cls-4" d="M329,220.18H308v-33h21Zm-19-2h17v-29H310Z"/><rect class="cls-6" x="328" y="188.18" width="56" height="31"/><path class="cls-4" d="M385,220.18H327v-33h58Zm-56-2h54v-29H329Z"/><rect class="cls-5" x="384" y="188.18" width="22" height="31" transform="translate(790 407.36) rotate(180)"/><path class="cls-4" d="M407,220.18H383v-33h24Zm-22-2h20v-29H385Z"/><rect class="cls-5" x="406" y="188.18" width="28" height="31"/><path class="cls-4" d="M435,220.18H405v-33h30Zm-28-2h26v-29H407Z"/><rect class="cls-6" x="434" y="188.18" width="21" height="31" transform="translate(889 407.36) rotate(180)"/><path class="cls-4" d="M456,220.18H433v-33h23Zm-21-2h19v-29H435Z"/><rect class="cls-6" x="455" y="188.18" width="53" height="31"/><path class="cls-4" d="M509,220.18H454v-33h55Zm-53-2h51v-29H456Z"/><rect class="cls-3" x="508" y="188.18" width="76" height="31" transform="translate(1092 407.36) rotate(180)"/><path class="cls-4" d="M585,220.18H507v-33h78Zm-76-2h74v-29H509Z"/><rect class="cls-3" x="584" y="188.18" width="15" height="31"/><path class="cls-4" d="M600,220.18H583v-33h17Zm-15-2h13v-29H585Z"/><rect class="cls-3" x="99" y="225.27" width="17.5" height="31"/><path class="cls-4" d="M117.5,257.27H98v-33h19.5Zm-17.5-2h15.5v-29H100Z"/><rect class="cls-5" x="116.5" y="225.27" width="65.5" height="31" transform="translate(298.5 481.55) rotate(180)"/><path class="cls-4" d="M183,257.27H115.5v-33H183Zm-65.5-2H181v-29H117.5Z"/><rect class="cls-6" x="182" y="225.27" width="42" height="31"/><path class="cls-4" d="M225,257.27H181v-33h44Zm-42-2h40v-29H183Z"/><rect class="cls-5" x="224" y="225.27" width="68" height="31" transform="translate(516 481.55) rotate(180)"/><path class="cls-4" d="M293,257.27H223v-33h70Zm-68-2h66v-29H225Z"/><rect class="cls-6" x="292" y="225.27" width="42" height="31"/><path class="cls-4" d="M335,257.27H291v-33h44Zm-42-2h40v-29H293Z"/><rect class="cls-5" x="334" y="225.27" width="80" height="31" transform="translate(748 481.55) rotate(180)"/><path class="cls-4" d="M415,257.27H333v-33h82Zm-80-2h78v-29H335Z"/><rect class="cls-5" x="414" y="225.27" width="6" height="31"/><path class="cls-4" d="M421,257.27h-8v-33h8Zm-6-2h4v-29h-4Z"/><rect class="cls-6" x="99" y="262.36" width="34.5" height="31"/><path class="cls-4" d="M134.5,294.36H98v-33h36.5Zm-34.5-2h32.5v-29H100Z"/><rect class="cls-6" x="133.5" y="262.36" width="30.5" height="31" transform="translate(297.5 555.73) rotate(180)"/><path class="cls-4" d="M165,294.36H132.5v-33H165Zm-30.5-2H163v-29H134.5Z"/><rect class="cls-6" x="164" y="262.36" width="43" height="31"/><path class="cls-4" d="M208,294.36H163v-33h45Zm-43-2h41v-29H165Z"/><rect class="cls-3" x="99" y="299.45" width="29.5" height="31"/><path class="cls-4" d="M129.5,331.45H98v-33h31.5Zm-29.5-2h27.5v-29H100Z"/><rect class="cls-5" x="128.5" y="299.45" width="55.5" height="31" transform="translate(312.5 629.91) rotate(180)"/><path class="cls-4" d="M185,331.45H127.5v-33H185Zm-55.5-2H183v-29H129.5Z"/><rect class="cls-6" x="184" y="299.45" width="29" height="31"/><path class="cls-4" d="M214,331.45H183v-33h31Zm-29-2h27v-29H185Z"/><rect class="cls-5" x="213" y="299.45" width="57" height="31" transform="translate(483 629.91) rotate(180)"/><path class="cls-4" d="M271,331.45H212v-33h59Zm-57-2h55v-29H214Z"/><rect class="cls-6" x="270" y="299.45" width="28" height="31"/><path class="cls-4" d="M299,331.45H269v-33h30Zm-28-2h26v-29H271Z"/><rect class="cls-6" x="298" y="299.45" width="31" height="31" transform="translate(627 629.91) rotate(180)"/><path class="cls-4" d="M330,331.45H297v-33h33Zm-31-2h29v-29H299Z"/><rect class="cls-3" x="329" y="299.45" width="30" height="31"/><path class="cls-4" d="M360,331.45H328v-33h32Zm-30-2h28v-29H330Z"/><rect class="cls-5" x="359" y="299.45" width="59" height="31" transform="translate(777 629.91) rotate(180)"/><path class="cls-4" d="M419,331.45H358v-33h61Zm-59-2h57v-29H360Z"/><rect class="cls-6" x="418" y="299.45" width="32" height="31"/><path class="cls-4" d="M451,331.45H417v-33h34Zm-32-2h30v-29H419Z"/><rect class="cls-5" x="450" y="299.45" width="60" height="31" transform="translate(960 629.91) rotate(180)"/><path class="cls-4" d="M511,331.45H449v-33h62Zm-60-2h58v-29H451Z"/><rect class="cls-6" x="510" y="299.45" width="30" height="31"/><path class="cls-4" d="M541,331.45H509v-33h32Zm-30-2h28v-29H511Z"/><rect class="cls-6" x="540" y="299.45" width="31" height="31" transform="translate(1111 629.91) rotate(180)"/><path class="cls-4" d="M572,331.45H539v-33h33Zm-31-2h29v-29H541Z"/><rect class="cls-3" x="571" y="299.45" width="53" height="31"/><path class="cls-4" d="M625,331.45H570v-33h55Zm-53-2h51v-29H572Z"/><rect class="cls-3" x="99" y="336.55" width="6.5" height="31"/><path class="cls-4" d="M106.5,368.55H98v-33h8.5Zm-6.5-2h4.5v-29H100Z"/><rect class="cls-5" x="105.5" y="336.55" width="23.5" height="31" transform="translate(234.5 704.09) rotate(180)"/><path class="cls-4" d="M130,368.55H104.5v-33H130Zm-23.5-2H128v-29H106.5Z"/><rect class="cls-5" x="129" y="336.55" width="26" height="31"/><path class="cls-4" d="M156,368.55H128v-33h28Zm-26-2h24v-29H130Z"/><rect class="cls-3" x="155" y="336.55" width="26" height="31" transform="translate(336 704.09) rotate(180)"/><path class="cls-4" d="M182,368.55H154v-33h28Zm-26-2h24v-29H156Z"/><rect class="cls-3" x="181" y="336.55" width="6" height="31"/><path class="cls-4" d="M188,368.55h-8v-33h8Zm-6-2h4v-29h-4Z"/><rect class="cls-3" x="99" y="373.64" width="13.5" height="31"/><path class="cls-4" d="M113.5,405.64H98v-33h15.5Zm-13.5-2h11.5v-29H100Z"/><rect class="cls-5" x="112.5" y="373.64" width="77.5" height="31" transform="translate(302.5 778.27) rotate(180)"/><path class="cls-4" d="M191,405.64H111.5v-33H191Zm-77.5-2H189v-29H113.5Z"/><rect class="cls-5" x="190" y="373.64" width="70" height="31"/><path class="cls-4" d="M261,405.64H189v-33h72Zm-70-2h68v-29H191Z"/><rect class="cls-7" x="260" y="373.64" width="38" height="31" transform="translate(558 778.27) rotate(180)"/><path class="cls-4" d="M299,405.64H259v-33h40Zm-38-2h36v-29H261Z"/><rect class="cls-5" x="298" y="373.64" width="61" height="31"/><path class="cls-4" d="M360,405.64H297v-33h63Zm-61-2h59v-29H299Z"/><rect class="cls-5" x="359" y="373.64" width="74" height="31" transform="translate(792 778.27) rotate(180)"/><path class="cls-4" d="M434,405.64H358v-33h76Zm-74-2h72v-29H360Z"/><rect class="cls-3" x="433" y="373.64" width="26" height="31"/><path class="cls-4" d="M460,405.64H432v-33h28Zm-26-2h24v-29H434Z"/><rect class="cls-8" x="459" y="373.64" width="50" height="31" transform="translate(968 778.27) rotate(180)"/><path class="cls-4" d="M510,405.64H458v-33h52Zm-50-2h48v-29H460Z"/><rect class="cls-3" x="509" y="373.64" width="56" height="31"/><path class="cls-4" d="M566,405.64H508v-33h58Zm-56-2h54v-29H510Z"/><rect class="cls-3" x="565" y="373.64" width="10" height="31" transform="translate(1140 778.27) rotate(180)"/><path class="cls-4" d="M576,405.64H564v-33h12Zm-10-2h8v-29h-8Z"/><rect class="cls-3" x="99" y="410.73" width="19.5" height="31"/><path class="cls-4" d="M119.5,442.73H98v-33h21.5Zm-19.5-2h17.5v-29H100Z"/><rect class="cls-5" x="118.5" y="410.73" width="91.5" height="31" transform="translate(328.5 852.45) rotate(180)"/><path class="cls-4" d="M211,442.73H117.5v-33H211Zm-91.5-2H209v-29H119.5Z"/><rect class="cls-7" x="210" y="410.73" width="45" height="31.27"/><path class="cls-4" d="M256,443H209V409.73h47Zm-45-2h43V411.73H211Z"/><rect class="cls-5" x="255" y="410.73" width="46" height="31" transform="translate(556 852.45) rotate(180)"/><path class="cls-4" d="M302,442.73H254v-33h48Zm-46-2h44v-29H256Z"/><rect class="cls-5" x="301" y="410.73" width="47" height="31"/><path class="cls-4" d="M349,442.73H300v-33h49Zm-47-2h45v-29H302Z"/><rect class="cls-7" x="348" y="410.73" width="46" height="31" transform="translate(742 852.45) rotate(180)"/><path class="cls-4" d="M395,442.73H347v-33h48Zm-46-2h44v-29H349Z"/><rect class="cls-5" x="394" y="410.73" width="38" height="31"/><path class="cls-4" d="M433,442.73H393v-33h40Zm-38-2h36v-29H395Z"/><rect class="cls-3" x="432" y="410.73" width="38" height="31" transform="translate(902 852.45) rotate(180)"/><path class="cls-4" d="M471,442.73H431v-33h40Zm-38-2h36v-29H433Z"/><rect class="cls-3" x="470" y="410.73" width="13" height="31"/><path class="cls-4" d="M484,442.73H469v-33h15Zm-13-2h11v-29H471Z"/><rect class="cls-5" x="99" y="447.82" width="94.5" height="31"/><path class="cls-4" d="M194.5,479.82H98v-33h96.5Zm-94.5-2h92.5v-29H100Z"/><rect class="cls-5" x="193.5" y="447.82" width="94.5" height="31" transform="translate(481.5 926.64) rotate(180)"/><path class="cls-4" d="M289,479.82H192.5v-33H289Zm-94.5-2H287v-29H194.5Z"/><rect class="cls-7" x="288" y="447.82" width="33" height="31"/><path class="cls-4" d="M322,479.82H287v-33h35Zm-33-2h31v-29H289Z"/><rect class="cls-5" x="321" y="447.82" width="94" height="31" transform="translate(736 926.64) rotate(180)"/><path class="cls-4" d="M416,479.82H320v-33h96Zm-94-2h92v-29H322Z"/><rect class="cls-7" x="415" y="447.82" width="30" height="31"/><path class="cls-4" d="M446,479.82H414v-33h32Zm-30-2h28v-29H416Z"/><rect class="cls-5" x="445" y="447.82" width="95" height="31" transform="translate(985 926.64) rotate(180)"/><path class="cls-4" d="M541,479.82H444v-33h97Zm-95-2h93v-29H446Z"/><rect class="cls-3" x="540" y="447.82" width="29" height="31"/><path class="cls-4" d="M570,479.82H539v-33h31Zm-29-2h27v-29H541Z"/><rect class="cls-3" x="569" y="447.82" width="7" height="31" transform="translate(1145 926.64) rotate(180)"/><path class="cls-4" d="M577,479.82h-9v-33h9Zm-7-2h5v-29h-5Z"/><rect class="cls-3" x="99" y="484.91" width="30.5" height="31"/><path class="cls-4" d="M130.5,516.91H98v-33h32.5Zm-30.5-2h28.5v-29H100Z"/><rect class="cls-5" x="129.5" y="484.91" width="48.5" height="31" transform="translate(307.5 1000.82) rotate(180)"/><path class="cls-4" d="M179,516.91H128.5v-33H179Zm-48.5-2H177v-29H130.5Z"/><rect class="cls-5" x="178" y="484.91" width="47" height="31"/><path class="cls-4" d="M226,516.91H177v-33h49Zm-47-2h45v-29H179Z"/><rect class="cls-8" x="225" y="484.91" width="50" height="31" transform="translate(500 1000.82) rotate(180)"/><path class="cls-4" d="M276,516.91H224v-33h52Zm-50-2h48v-29H226Z"/><rect class="cls-8" x="275" y="484.91" width="45" height="31"/><path class="cls-4" d="M321,516.91H274v-33h47Zm-45-2h43v-29H276Z"/><rect class="cls-5" x="320" y="484.91" width="51" height="31" transform="translate(691 1000.82) rotate(180)"/><path class="cls-4" d="M372,516.91H319v-33h53Zm-51-2h49v-29H321Z"/><rect class="cls-8" x="371" y="484.91" width="52" height="31"/><path class="cls-4" d="M424,516.91H370v-33h54Zm-52-2h50v-29H372Z"/><rect class="cls-3" x="423" y="484.91" width="11" height="31" transform="translate(857 1000.82) rotate(180)"/><path class="cls-4" d="M435,516.91H422v-33h13Zm-11-2h9v-29h-9Z"/><rect class="cls-3" x="99" y="522" width="61.5" height="31"/><path class="cls-4" d="M161.5,554H98V521h63.5ZM100,552h59.5V523H100Z"/><rect class="cls-5" x="160.5" y="522" width="33.5" height="31" transform="translate(354.5 1075) rotate(180)"/><path class="cls-4" d="M195,554H159.5V521H195Zm-33.5-2H193V523H161.5Z"/><rect class="cls-6" x="194" y="522" width="32" height="31"/><path class="cls-4" d="M227,554H193V521h34Zm-32-2h30V523H195Z"/><rect class="cls-8" x="226" y="522" width="35" height="31" transform="translate(487 1075) rotate(180)"/><path class="cls-4" d="M262,554H225V521h37Zm-35-2h33V523H227Z"/><rect class="cls-6" x="261" y="522" width="45" height="31"/><path class="cls-4" d="M307,554H260V521h47Zm-45-2h43V523H262Z"/><rect class="cls-8" x="306" y="522" width="30" height="31" transform="translate(642 1075) rotate(180)"/><path class="cls-4" d="M337,554H305V521h32Zm-30-2h28V523H307Z"/><rect class="cls-5" x="336" y="522" width="38" height="31"/><path class="cls-4" d="M375,554H335V521h40Zm-38-2h36V523H337Z"/><rect class="cls-6" x="374" y="522" width="29" height="31" transform="translate(777 1075) rotate(180)"/><path class="cls-4" d="M404,554H373V521h31Zm-29-2h27V523H375Z"/><rect class="cls-8" x="403" y="522" width="30" height="31"/><path class="cls-4" d="M434,554H402V521h32Zm-30-2h28V523H404Z"/><rect class="cls-6" x="433" y="522" width="34" height="31" transform="translate(900 1075) rotate(180)"/><path class="cls-4" d="M468,554H432V521h36Zm-34-2h32V523H434Z"/><rect class="cls-3" x="467" y="522" width="34" height="31"/><path class="cls-4" d="M502,554H466V521h36Zm-34-2h32V523H468Z"/><rect class="cls-3" x="501" y="522" width="7" height="31" transform="translate(1009 1075) rotate(180)"/><path class="cls-4" d="M509,554h-9V521h9Zm-7-2h5V523h-5Z"/><rect class="cls-3" x="99" y="114" width="39.5" height="31"/><path class="cls-4" d="M139.5,146H98V113h41.5ZM100,144h37.5V115H100Z"/><rect class="cls-5" x="138.5" y="114" width="68.5" height="31" transform="translate(345.5 259) rotate(180)"/><path class="cls-4" d="M208,146H137.5V113H208Zm-68.5-2H206V115H139.5Z"/><rect class="cls-3" x="207" y="114" width="18" height="31"/><path class="cls-4" d="M226,146H206V113h20Zm-18-2h16V115H208Z"/><rect class="cls-5" x="225" y="114" width="68" height="31" transform="translate(518 259) rotate(180)"/><path class="cls-4" d="M294,146H224V113h70Zm-68-2h66V115H226Z"/><rect class="cls-7" x="293" y="114" width="35" height="31"/><path class="cls-4" d="M329,146H292V113h37Zm-35-2h33V115H294Z"/><rect class="cls-5" x="328" y="114" width="68" height="31" transform="translate(724 259) rotate(180)"/><path class="cls-4" d="M397,146H327V113h70Zm-68-2h66V115H329Z"/><rect class="cls-7" x="396" y="114" width="32" height="31"/><path class="cls-4" d="M429,146H395V113h34Zm-32-2h30V115H397Z"/><rect class="cls-5" x="428" y="114" width="70" height="31" transform="translate(926 259) rotate(180)"/><path class="cls-4" d="M499,146H427V113h72Zm-70-2h68V115H429Z"/><rect class="cls-3" x="498" y="114" width="66" height="31"/><path class="cls-4" d="M565,146H497V113h68Zm-66-2h64V115H499Z"/><rect class="cls-3" x="564" y="114" width="8" height="31" transform="translate(1136 259) rotate(180)"/><path class="cls-4" d="M573,146H563V113h10Zm-8-2h6V115h-6Z"/><path class="cls-9" d="M57.1,464.83q0-8.34-4.75-13.12t-17.74-9.16q-13-4.37-19.07-9.78-8-7-8-18.59t7.86-18.59q7.86-7.18,20.3-7.18,12.71,0,20.78,8.34t8.07,21.46H56.69q0-10-5.64-16.24t-15.35-6.19q-9.43,0-14.87,5.09A17.22,17.22,0,0,0,15.41,414a16.07,16.07,0,0,0,5.13,12.3q5.13,4.79,16.34,8.51t17,7.72A25.62,25.62,0,0,1,62.3,452,27.83,27.83,0,0,1,65,464.7q0,11.69-7.9,18.83t-20.88,7.14a35.32,35.32,0,0,1-16-3.59A26.85,26.85,0,0,1,9,476.76a30.14,30.14,0,0,1-4.07-15.89h7.79q0,10.53,6.36,16.54t17.16,6q9.43,0,15.14-5.06T57.1,464.83Z"/><path class="cls-9" d="M138.87,450.34q0,19.28-8.44,29.8t-23.69,10.53q-15.11,0-23.69-10.53t-8.65-29.6V428.88q0-19.21,8.54-29.84t23.65-10.63q15.31,0,23.79,10.66t8.48,30ZM131,428.74q0-16.34-6.29-24.54T106.6,396q-11.42,0-17.84,8t-6.56,24v22.29q0,16.41,6.49,24.64t18,8.24q11.89,0,18.08-8.2T131,450.34Z"/><path class="cls-9" d="M216.73,489.31h-7.79l-47-84.77v84.77h-7.86V389.78H162l47,84.9v-84.9h7.72Z"/><path class="cls-9" d="M295.42,477.75a31.19,31.19,0,0,1-12.58,9.67,41.8,41.8,0,0,1-16.61,3.25q-15.31,0-24.06-10.25T233.08,452v-24.2q0-19.07,8.31-29.22t23.69-10.15q13.74,0,21.53,7.59t8.75,21.88h-7.79q-1.23-11.48-6.73-16.78t-15.69-5.3q-12.17,0-18.22,8.1t-6,23.75v23q0,15.59,6.67,24.2t18.7,8.61q13.06,0,21.33-8.27V449.25H265.75v-7.31h29.67Z"/><path class="cls-9" d="M57.1,592.41q0-8.34-4.75-13.12t-17.74-9.16q-13-4.37-19.07-9.78-8-7-8-18.59t7.86-18.59Q23.27,516,35.71,516q12.71,0,20.78,8.34t8.07,21.46H56.69q0-10-5.64-16.24t-15.35-6.19q-9.43,0-14.87,5.09a17.22,17.22,0,0,0-5.43,13.16,16.07,16.07,0,0,0,5.13,12.3q5.13,4.79,16.34,8.51t17,7.72a25.62,25.62,0,0,1,8.48,9.4A27.83,27.83,0,0,1,65,592.27q0,11.69-7.9,18.83t-20.88,7.14a35.32,35.32,0,0,1-16-3.59A26.85,26.85,0,0,1,9,604.33a30.14,30.14,0,0,1-4.07-15.89h7.79Q12.74,599,19.1,605t17.16,6q9.43,0,15.14-5.06T57.1,592.41Z"/><path class="cls-9" d="M134.08,524.73h-28.3v92.15H97.92V524.73H69.69v-7.38h64.39Z"/><path class="cls-9" d="M175.45,575.45H152.2v41.43h-7.86V517.35h27.28q13.6,0,21.09,7.76t7.49,21.57a30.76,30.76,0,0,1-4.65,16.92A24.15,24.15,0,0,1,183,573.67L203.75,616v.89h-8.34Zm-23.24-7.25H173q8.82,0,14.08-6t5.26-15.48q0-10.46-5.47-16.2t-15.31-5.74H152.2Z"/><path class="cls-9" d="M273.68,517.35V588q-.07,14.42-7.76,22.35t-21.84,7.93q-14.36,0-22-7.83t-7.62-22.73V517.35h7.79v70.07q0,23.58,21.81,23.58,21.46,0,21.74-22.9V517.35Z"/><path class="cls-9" d="M349.77,585.84q-1.1,16.75-9,24.58t-21.94,7.83q-14.43,0-22.76-10.9t-8.41-29.63v-21.6q0-18.8,8.51-29.46T319.42,516q13.95,0,21.6,8t8.75,24.54h-7.93q-1.1-13.54-6.39-19.35t-16-5.81q-11.28,0-17.57,8.41t-6.29,24.4V577.5q0,15.86,6.08,24.68T318.81,611q11.62,0,16.82-5.81t6.22-19.35Z"/><path class="cls-9" d="M418.62,524.73h-28.3v92.15h-7.86V524.73H354.22v-7.38h64.39Z"/><path class="cls-9" d="M486.84,517.35V588q-.07,14.42-7.76,22.35t-21.84,7.93q-14.36,0-22-7.83t-7.62-22.73V517.35h7.79v70.07q0,23.58,21.81,23.58,21.47,0,21.74-22.9V517.35Z"/><path class="cls-9" d="M534.22,575.45H511v41.43h-7.86V517.35h27.28q13.6,0,21.09,7.76T559,546.67a30.76,30.76,0,0,1-4.65,16.92,24.15,24.15,0,0,1-12.51,10.08L562.52,616v.89h-8.34ZM511,568.21h20.78q8.82,0,14.08-6t5.26-15.48q0-10.46-5.47-16.2t-15.31-5.74H511Z"/><path class="cls-9" d="M621,569.23H582.42v40.4h44.43v7.25H574.63V517.35h51.88v7.38H582.42V562H621Z"/><path class="cls-10" d="M512.25,94.43a19.05,19.05,0,0,1-5.78,2.67,20.4,20.4,0,0,1-3.14.64,18.94,18.94,0,0,1-3.2,0,30.57,30.57,0,0,1-6.34-1,12.47,12.47,0,0,1-3-1.34,11.7,11.7,0,0,1-2.51-2.16,12.24,12.24,0,0,1-2.72-5.88,25.58,25.58,0,0,1-.31-6.31,37.2,37.2,0,0,1,.92-6.2,27.77,27.77,0,0,1,2.06-6A13.6,13.6,0,0,1,490,66.24,15.89,15.89,0,0,1,492.54,64a8.26,8.26,0,0,1,3-1.14c1-.26,2-.51,3-.73a26.12,26.12,0,0,1,6.39-.69,14.7,14.7,0,0,1,6.36,1.64,27.24,27.24,0,0,1,5.21,3.7,38.13,38.13,0,0,1,4.53,4.41,10.57,10.57,0,0,1,2.56,6,11.69,11.69,0,0,1-1.53,6.24.5.5,0,0,1-.9-.45,11,11,0,0,0,1.1-5.68,9.4,9.4,0,0,0-2.46-5.09,36.72,36.72,0,0,0-4.45-4.06,26.77,26.77,0,0,0-4.94-3.32A12.66,12.66,0,0,0,505,63.47a24.1,24.1,0,0,0-5.87.73c-1,.22-2,.48-3,.75a21.86,21.86,0,0,1-2.86.7,3,3,0,0,0-1.31.45,6.68,6.68,0,0,0-1,1,12.44,12.44,0,0,0-1.65,2.43,29,29,0,0,0-2.89,11.7,24.48,24.48,0,0,0,.37,6,9.75,9.75,0,0,0,2.73,5,14.35,14.35,0,0,0,4.84,3.06,13.53,13.53,0,0,0,5.82.92c1-.06,2-.22,3-.35s2-.27,2.94-.49a30.47,30.47,0,0,0,5.72-1.79h0a.5.5,0,0,1,.49.87Z"/><path class="cls-10" d="M487.31,78.93a5.31,5.31,0,0,1-1-5.67.5.5,0,0,1,.45-.3h0c1.33.22,2.81-.29,4.3-.25a2.86,2.86,0,0,1,1.11.27,2.67,2.67,0,0,1,.85.77,11.45,11.45,0,0,1,1.17,1.88,12.87,12.87,0,0,1,1.36,4.23,6.09,6.09,0,0,1-.13,2.33,4,4,0,0,1-1.35,2.1,4.64,4.64,0,0,1-2.4.93,4.41,4.41,0,0,1-2.61-.28,4.27,4.27,0,0,1-1.8-1.87,6.56,6.56,0,0,1-1-2.29,6.79,6.79,0,0,1,.76-4.72,5.72,5.72,0,0,1,3.7-2.9.5.5,0,0,1,.35.93h0a7.11,7.11,0,0,0-2.73,2.69,5.21,5.21,0,0,0-.67,3.67,3.23,3.23,0,0,0,.87,1.6,8.9,8.9,0,0,0,1.56.84,6.17,6.17,0,0,0,1.58.7,2.56,2.56,0,0,0,1.68-.37,3.74,3.74,0,0,0,1.48-3.35,10.51,10.51,0,0,0-1-4.1,11.12,11.12,0,0,0-1-1.86,1.91,1.91,0,0,0-1.73-.91c-1.43,0-2.71.7-4.3.94h0l.46-.3a4.32,4.32,0,0,0,.77,4.58.5.5,0,1,1-.73.69Z"/><path class="cls-10" d="M511.43,78.45a4.49,4.49,0,0,0-2.59-.07,14.52,14.52,0,0,1-2.59.07,8.45,8.45,0,0,1-2.59-.57,7.4,7.4,0,0,1-2.23-1.5A4.89,4.89,0,0,1,500,74a2.94,2.94,0,0,1,.9-2.78A4.66,4.66,0,0,1,503.46,70a7.6,7.6,0,0,1,2.72.05,8.41,8.41,0,0,1,2.56.92,4.46,4.46,0,0,1,1.15.92,3.16,3.16,0,0,1,.69,1.4A5.7,5.7,0,0,1,509,78.41a5.31,5.31,0,0,1-2.32,1.31,3.93,3.93,0,0,1-2.61-.29,6.51,6.51,0,0,1-3.23-4.06.5.5,0,0,1,1-.3.58.58,0,0,1,0,.11A4.75,4.75,0,0,0,504.26,79a3.13,3.13,0,0,0,2.29.22,3.85,3.85,0,0,0,1.86-1.36,5.66,5.66,0,0,0,.9-4.29c-.2-1.25-1.9-2-3.37-2.27s-3.21-.23-4.25.73A1.82,1.82,0,0,0,501,73.8a3.91,3.91,0,0,0,1.08,1.91A6.11,6.11,0,0,0,504,77.06a7.61,7.61,0,0,0,2.3.5,13.65,13.65,0,0,0,2.43-.07,3.58,3.58,0,0,0,2.39-.8,1.09,1.09,0,1,1,.3,1.75Z"/><path class="cls-10" d="M499.4,80.27a3.28,3.28,0,0,1,1.36-.4,1.86,1.86,0,0,1,1.4.55h0l.09.15a2.09,2.09,0,0,1,.19,2.39,4.16,4.16,0,0,1-1.58,1.79,3.32,3.32,0,0,1-2.41.47,2.76,2.76,0,0,1-1.19-.54,2.85,2.85,0,0,1-.77-1,4.46,4.46,0,0,1-.24-2.23,6.54,6.54,0,0,1,.58-2,2.08,2.08,0,0,0,.25-1.58,8.61,8.61,0,0,1-.46-2v0a.51.51,0,1,1,1,0,.53.53,0,0,1,0,.14,3.66,3.66,0,0,0,.24,1.76,3.81,3.81,0,0,1,.15,1.09,3.3,3.3,0,0,1-.24,1.08,4.47,4.47,0,0,0,0,3.27,1.51,1.51,0,0,0,2.26.3,2.51,2.51,0,0,0,.92-1.09c.18-.46.17-.79.41-1.37l.09.15h0a.7.7,0,0,0-.63-.32,1,1,0,0,0-.78.33.52.52,0,1,1-.64-.78Z"/><path class="cls-10" d="M492.91,86.29a4.78,4.78,0,0,1,2.62-2.08h0a.5.5,0,0,1,.68.53l-.62,4.35a.5.5,0,0,1-1,0A6.28,6.28,0,0,1,496,84.65a.5.5,0,0,1,.88.28,8.15,8.15,0,0,0,1,3.31l-.93.2.24-2.73a.5.5,0,0,1,.93-.2,7.63,7.63,0,0,0,1.2,1.61l-.84.24a5.44,5.44,0,0,0,.13-1.46h0a.5.5,0,0,1,.94-.26.59.59,0,0,0,.41.29l-.58.46.07-1a.5.5,0,0,1,.53-.46.51.51,0,0,1,.25.09L502,86.19l-.78.37a1.76,1.76,0,0,0-.33-1.17.5.5,0,0,1,.67-.72l1,.63-.77.38a4.44,4.44,0,0,0-.09-1.32.5.5,0,0,1,.74-.54,13.44,13.44,0,0,0,2.92,1.27l-.61.65a8.3,8.3,0,0,0-1-1.88.5.5,0,0,1,.82-.58,1.59,1.59,0,0,0,1.27.63l-.41.78-1.62-2.37,0,0a.49.49,0,0,1,.54-.76l.08,0c.66.2,1.3.46,1.93.71l.94.42a1.54,1.54,0,0,1,.84.63.62.62,0,0,1-.24.84.63.63,0,0,1-.19.07,1.54,1.54,0,0,1-1-.25l-.92-.46c-.6-.33-1.2-.66-1.77-1l.63-.73,0,0,1.62,2.37a.5.5,0,0,1-.41.78,2.58,2.58,0,0,1-2.09-1l.82-.58a9.31,9.31,0,0,1,1.07,2.11.5.5,0,0,1-.61.65,14.44,14.44,0,0,1-3.14-1.36l.74-.54a5.45,5.45,0,0,1,.11,1.62.5.5,0,0,1-.54.46.51.51,0,0,1-.23-.08l-1-.63.67-.72a2.76,2.76,0,0,1,.52,1.84.5.5,0,0,1-.54.46.51.51,0,0,1-.24-.09l-1.72-1.17.78-.38-.07,1a.5.5,0,0,1-.53.47h0a1.59,1.59,0,0,1-1.13-.79l.94-.27a6.42,6.42,0,0,1-.15,1.73.5.5,0,0,1-.85.24A8.62,8.62,0,0,1,497.3,86l.93-.2L498,88.53a.5.5,0,0,1-.54.45.51.51,0,0,1-.39-.25A9.14,9.14,0,0,1,495.93,85l.88.28a5.29,5.29,0,0,0-1.19,3.7l-1,0,.62-4.35.7.53h0A3.38,3.38,0,0,0,494.53,87a.9.9,0,1,1-1.75-.46.89.89,0,0,1,.1-.23Z"/><path class="cls-10" d="M494.75,76.35a.5.5,0,0,1-.5-.47,3.45,3.45,0,0,1,4.38-3.5A6.36,6.36,0,0,1,501,73.9a.5.5,0,0,1-.66.75,5.51,5.51,0,0,0-2-1.31,2.45,2.45,0,0,0-3.11,2.49.5.5,0,0,1-.47.53Z"/><path class="cls-10" d="M507.5,73a.5.5,0,0,1-.43-.76,21.85,21.85,0,0,1,3.86-4.74l1.17-1.18a3,3,0,0,1,.85-.67,3.07,3.07,0,0,1,.94-.23,7.22,7.22,0,0,1,2.69,0,2.79,2.79,0,0,1,2.14,2,.5.5,0,1,1-1,.21,1.84,1.84,0,0,0-1.4-1.23,6.4,6.4,0,0,0-2.32,0,2.24,2.24,0,0,0-.64.15,2.12,2.12,0,0,0-.56.46l-1.17,1.19a21,21,0,0,0-3.71,4.55A.5.5,0,0,1,507.5,73Z"/><path class="cls-10" d="M514,70.31l7.74,3-.43.9-7.92-4.52a.5.5,0,0,1,.28-.93,44.72,44.72,0,0,1,6.08.84.5.5,0,0,1-.2,1,14.31,14.31,0,0,1-5.08-2.11.5.5,0,0,1,.31-.92l5.08.29-.12,1a40.81,40.81,0,0,1-6.94-1.87.5.5,0,0,1,.27-1,7.21,7.21,0,0,0,4.76-.66l.1.93a23.43,23.43,0,0,0-7.67-.72l0-1a7.35,7.35,0,0,0,4.33-1.28l.27.91a37.47,37.47,0,0,0-5,.22.5.5,0,0,1-.15-1,7.58,7.58,0,0,0,2.61-1l.31.92a19.55,19.55,0,0,0-5.88,1.52l-.22-1a3.8,3.8,0,0,0,3.16-2l.53.72q-3.89.64-7.7,1.65l-.14-1,6.35-.36h0a.5.5,0,0,1,.31.91l-2.88,2-.32-.91,8.25-.59-.09,1a8,8,0,0,0-6.62,1.27l-.27-.9c7.23.44,14.51.89,21.66,2.4h0a.39.39,0,0,1,.22.63l-.31.36c-1.24,1.46-2.57.57-3.85.39l-3.86-.19L517.2,69c-1.28-.08-2.57-.13-3.85-.19h0l.13-1a24.69,24.69,0,0,1,9,3.73.5.5,0,0,1-.4.9,45.31,45.31,0,0,1-7.5-2.52h-.06a.5.5,0,1,1,.4-.92h0a42.26,42.26,0,0,1,6.4,3.51,35.78,35.78,0,0,1,2.94,2.19c1,.76,1.64,1.78,3.2,2.11l.07,0a1.92,1.92,0,1,1-2.32,1.84c0-1.51-1-2.24-1.74-3.12a22.57,22.57,0,0,0-2.64-2.36,20.31,20.31,0,0,0-6.26-3.26l.38-.93h0a44.29,44.29,0,0,0,7.33,2.46l-.4.9a23.7,23.7,0,0,0-8.65-3.57h0a.5.5,0,0,1,.13-1h0c1.27.09,2.55.17,3.83.18s2.55,0,3.83,0,2.55-.08,3.83-.18,2.51-1.17,3.83.21l-.09,1h0c-7.05-1.49-14.29-1.94-21.52-2.38a.5.5,0,0,1-.27-.9,9,9,0,0,1,7.46-1.44.5.5,0,0,1-.09,1l-8.25.59a.5.5,0,0,1-.32-.91l2.88-2,.33.91-6.44.36a.5.5,0,0,1-.16-1h0q3.86-1,7.8-1.67a.5.5,0,0,1,.53.72,4.8,4.8,0,0,1-4,2.56.5.5,0,0,1-.22-1,20.56,20.56,0,0,1,6.19-1.6.5.5,0,0,1,.31.92,8.58,8.58,0,0,1-3,1.16l-.15-1a38.48,38.48,0,0,1,5.1-.22.5.5,0,0,1,.49.51.51.51,0,0,1-.22.4,8.35,8.35,0,0,1-4.92,1.45.5.5,0,0,1,0-1,24.43,24.43,0,0,1,8,.75.5.5,0,0,1,.1.93,8.21,8.21,0,0,1-5.42.76l.27-1a39.81,39.81,0,0,0,6.77,1.82.5.5,0,0,1-.12,1l-5.08-.29.31-.92a13.31,13.31,0,0,0,4.72,2l-.2,1a43.71,43.71,0,0,0-5.95-.82l.28-.93,7.92,4.52a.5.5,0,0,1-.43.9l-7.74-3a.5.5,0,0,1,.36-.93Z"/><path class="cls-10" d="M488.42,69,477.14,81a.5.5,0,0,1-.81-.56l0,0c.49-1,1-1.94,1.49-3a9.83,9.83,0,0,1,2.08-2.59A20.73,20.73,0,0,1,485.29,71h0l.07,0a.5.5,0,0,1,.71.54,54.43,54.43,0,0,1-2,7.79.5.5,0,0,1-1-.28,5.61,5.61,0,0,1,1.8-2.95.5.5,0,0,1,.69.72l-4.27,4.58h0a.5.5,0,0,1-.85-.47,2.81,2.81,0,0,1,2.7-2.09.49.49,0,0,1,.5.49v.06h0a8,8,0,0,1-2.79,5l-.45-.87,2.77-.73a.5.5,0,0,1,.61.36.53.53,0,0,1,0,.11,11.82,11.82,0,0,1-1,5.25.5.5,0,0,1-.93-.38A2.56,2.56,0,0,1,484,86.49a.5.5,0,0,1,.55.44.53.53,0,0,1,0,.16,3.81,3.81,0,0,0,.39,2.57.5.5,0,0,1-.88.48h0a4.81,4.81,0,0,1-.5-3.25l.54.6a1.57,1.57,0,0,0-1.26,1l-.93-.38a10.81,10.81,0,0,0,.89-4.8l.63.46-2.77.73a.5.5,0,0,1-.45-.87,7,7,0,0,0,2.43-4.37l.49.57a1.83,1.83,0,0,0-1.72,1.33l-.85-.46,4.27-4.58.69.72a4.62,4.62,0,0,0-1.48,2.42l-1-.28a52.77,52.77,0,0,0,2-7.65l.78.5h0c-1.51,1.52-3,3-4.34,4.57a19.18,19.18,0,0,1-2.12,2.29A13.23,13.23,0,0,0,477.2,81l-.79-.61,11.28-12.06h0a.5.5,0,0,1,.73.68Z"/><path class="cls-10" d="M500.35,71h-.05a.5.5,0,0,1-.43-.39l-.27-1.25h-.18a.5.5,0,0,1,0-1H500a.5.5,0,0,1,.49.39l.16.73a2.85,2.85,0,0,1,1.36-.37,6.89,6.89,0,0,1,1.16.1,7.76,7.76,0,0,0,.85.09,3.68,3.68,0,0,0,2.54-1,.5.5,0,0,1,.68.73A4.66,4.66,0,0,1,504,70.24a8.78,8.78,0,0,1-1-.1,5.93,5.93,0,0,0-1-.09,1.37,1.37,0,0,0-1.22.6A.5.5,0,0,1,500.35,71Z"/><path class="cls-10" d="M486,74.52c-.14-2.16-.21-4.32-.26-6.48l0-3.24a11.72,11.72,0,0,1,.27-3.24l.48.5h0c-2.51.1-5,.16-7.5.34-1.25.09-2.49.19-3.73.24a9.21,9.21,0,0,1-3.77-.39l.35-.83h0a3,3,0,0,1,2.12,2.4,16.6,16.6,0,0,1,.46,2.85c.16,1.84.2,3.69.28,5.53a39.2,39.2,0,0,0,.59,5.47c.15.91.34,1.81.46,2.72s.2,1.82.27,2.74c.15,1.82.27,3.68.38,5.47a5.34,5.34,0,0,0,.6,2.31,6.34,6.34,0,0,0,1.73,1.73,40.57,40.57,0,0,0,4.46,3,11.44,11.44,0,0,0,4.93,1.61.5.5,0,0,1,0,1,12.54,12.54,0,0,1-5.49-1.51,39.15,39.15,0,0,1-4.7-3,7.51,7.51,0,0,1-2.15-2.1,6.74,6.74,0,0,1-.82-2.93c-.14-1.86-.26-3.65-.43-5.47-.08-.91-.18-1.81-.24-2.72l-.12-2.74a28.15,28.15,0,0,0-.78-5.41c-.42-1.78-.94-3.54-1.38-5.31-.21-.9-.4-1.76-.62-2.52a5.22,5.22,0,0,1-.3-2.48h0a.34.34,0,0,1,0-.62l.38-.21a8.38,8.38,0,0,1,3.75-.77c1.26-.05,2.53,0,3.79,0,2.53.11,5,.24,7.56.53h0a.35.35,0,0,1,.42.25l.07.25a11.73,11.73,0,0,1,.28,3.24l0,3.24c0,2.16-.1,4.33-.23,6.49a.5.5,0,0,1-1,0Z"/><path class="cls-10" d="M479.93,60.44a15.42,15.42,0,0,1,2.26-1.94,14.65,14.65,0,0,1,2.63-1.41c.18-.08.25-.17.18-.16s-.1,0-.2-.15a3.79,3.79,0,0,1-.31-.59,2.88,2.88,0,0,1-.21-.69,2.3,2.3,0,0,1,.27-1.46,2.58,2.58,0,0,0,.21-.74,4.62,4.62,0,0,0,0-.71l-.11-1.36c0-.14,0-.09-.1-.16a2.87,2.87,0,0,0-.59-.1c-.94-.09-1.9-.22-2.8-.26a2.87,2.87,0,0,0-2.31.76c-.49.6-.48,1.7.15,1.92h0a2.2,2.2,0,0,0,2.19-.45.5.5,0,1,1,.71.71l-.06,0h0a3.26,3.26,0,0,1-3.1.41h0a1.69,1.69,0,0,1-.88-1.5,2.45,2.45,0,0,1,.52-1.55,3.59,3.59,0,0,1,2.86-1.08c1,0,1.92.08,2.87.11a3.53,3.53,0,0,1,.81.08,1.13,1.13,0,0,1,.52.31,1.22,1.22,0,0,1,.28.53c.12.58.17,1,.25,1.46a4.62,4.62,0,0,0,.14.7,2.58,2.58,0,0,0,.39.67,2.31,2.31,0,0,1,.61,1.36,2.89,2.89,0,0,1,0,.72l-.16.82a2.55,2.55,0,0,1-.53,1.21,2,2,0,0,1-1,.58,8.22,8.22,0,0,0-4.63,2.62.5.5,0,1,1-.76-.65Z"/><path class="cls-10" d="M477.82,50.45a1,1,0,0,0-.33-.89,1.79,1.79,0,0,0-1-.51,5.55,5.55,0,0,0-1.33,0c-.51,0-1,0-1.47,0-.9,0-2,0-2.17.44a2.36,2.36,0,0,0-.42,1.11,6.28,6.28,0,0,0,.06,1.29c.11.84,0,1.53,0,2.3a10,10,0,0,0,.37,2.76A7,7,0,0,0,472,58.1c0,.14.28.24.58.12.65-.2,1-1,1.08-2h0a.5.5,0,0,1,1,.16v0a1.07,1.07,0,1,0,2.11,0h1c-.06.33.23.68.66.84a1.06,1.06,0,0,0,1.16-.17,1.35,1.35,0,0,0,.27-1.25,1.74,1.74,0,0,0-.79-1.12.5.5,0,0,1,.49-.87h0a2.74,2.74,0,0,1,1.27,1.77,2.35,2.35,0,0,1-.52,2.16,2.06,2.06,0,0,1-2.24.42,2.19,2.19,0,0,1-1-.68,1.64,1.64,0,0,1-.35-1.22h0a.5.5,0,0,1,1,0,2.06,2.06,0,1,1-4.09-.07l1,.18h0a7.31,7.31,0,0,1-.44,1.48A2.41,2.41,0,0,1,473,59.19a1.92,1.92,0,0,1-1,.16,1.39,1.39,0,0,1-.54-.16,1.58,1.58,0,0,1-.45-.42,9.59,9.59,0,0,1-.77-1.36c-.4-.91-.92-1.74-1.39-2.66a4.18,4.18,0,0,1-.13-3.34,8.34,8.34,0,0,1,.83-1.45,12.77,12.77,0,0,1,1-1.36,2,2,0,0,1,.85-.55,3.12,3.12,0,0,1,.87-.12,11.49,11.49,0,0,1,1.5.08,10.92,10.92,0,0,0,1.38.1,8.22,8.22,0,0,1,1.51.1,2.44,2.44,0,0,1,2.19,2.39h0a.5.5,0,1,1-1,0A.54.54,0,0,1,477.82,50.45Z"/><path class="cls-10" d="M481.25,49.93c-.19-2.37-.42-4.65-.82-6.94a31.36,31.36,0,0,0-.77-3.38c-.16-.55-.34-1.09-.54-1.61s-.47-.8-.71-.75a1.17,1.17,0,0,0-.83.58,1.91,1.91,0,0,0-.15,1.2c.05.49.2,1,.33,1.62a14.11,14.11,0,0,1,.2,1.83,66.34,66.34,0,0,1,0,7,.5.5,0,0,1-1,0c-.22-2.32-.29-4.63-.46-6.9,0-.56-.1-1.14-.18-1.62a17.24,17.24,0,0,1-.33-1.78,3.15,3.15,0,0,1,.48-2.14,2.31,2.31,0,0,1,2.1-1,1.59,1.59,0,0,1,1.09.69,2.85,2.85,0,0,1,.39,1c.13.59.23,1.18.31,1.76l.45,3.46a35.42,35.42,0,0,0,1.46,6.76v0a.51.51,0,1,1-1,.34A.52.52,0,0,1,481.25,49.93Z"/><path class="cls-10" d="M526.86,89.38a.5.5,0,0,1-.43-.24,3.62,3.62,0,0,0-3.52-1.87.5.5,0,1,1-.2-1,4.62,4.62,0,0,1,4.58,2.33.5.5,0,0,1-.43.76Z"/><path class="cls-10" d="M488.23,96.66a29.34,29.34,0,0,0,0,3.87c0,.64.1,1.29.16,1.93a3.71,3.71,0,0,0,.66,1.93,1.67,1.67,0,1,1-2.7,0,3.71,3.71,0,0,0,.66-1.93c.06-.64.13-1.29.16-1.93a29.34,29.34,0,0,0,0-3.87.5.5,0,0,1,1-.07A.53.53,0,0,1,488.23,96.66Z"/><path class="cls-10" d="M511.29,103.63a.5.5,0,0,1-.37-.16,14.15,14.15,0,0,0-4.55-3l-1.1-.54a.5.5,0,1,1,.45-.89l1.09.54a16.58,16.58,0,0,1,4.39,2.74,133.5,133.5,0,0,1,11.33-15.54.5.5,0,1,1,.76.65,132.45,132.45,0,0,0-11.58,16,.5.5,0,0,1-.38.24Z"/><path class="cls-10" d="M505.3,99.55a.49.49,0,0,1-.31-.11.5.5,0,0,1-.07-.7c.68-.84,1.39-1.88,2.08-2.89s1.42-2.09,2.13-3a45.33,45.33,0,0,1,4.18-4.69,22.93,22.93,0,0,1,9.13-5.2.5.5,0,1,1,.28,1,21.92,21.92,0,0,0-8.73,5,44.37,44.37,0,0,0-4.08,4.59c-.68.84-1.4,1.89-2.08,2.9s-1.42,2.08-2.13,3A.5.5,0,0,1,505.3,99.55Z"/><path class="cls-10" d="M523.79,87.93a.5.5,0,0,1-.47-.34,4.38,4.38,0,0,1-.1-1.83c0-.23,0-.47,0-.7,0-.6-.24-1.29-.71-1.38a.5.5,0,1,1,.19-1,2.24,2.24,0,0,1,1.52,2.38c0,.26,0,.52,0,.77a3.57,3.57,0,0,0,0,1.42.5.5,0,0,1-.32.63Z"/><path class="cls-10" d="M497.86,99.07a20.39,20.39,0,0,0-2.11,2.24,8.78,8.78,0,0,0-1.67,2.6h0a.92.92,0,0,1-1.8-.27v-.23a8.05,8.05,0,0,1,.06-.94.83.83,0,0,0-.14-.54c-.27-.44-.72-1-1.08-1.49-.76-1-1.5-2-2.17-3.11s-1.3-2.16-1.88-3.28-1.11-2.26-1.61-3.42a.5.5,0,1,1,.92-.39v0a27.78,27.78,0,0,0,3.39,6.51,28.85,28.85,0,0,0,2.27,2.88c.42.48.83.82,1.34,1.35a2.87,2.87,0,0,1,.66,1.12,5.66,5.66,0,0,0,.26.91l-1.8-.51h0a15.31,15.31,0,0,0,2.57-1.89c.82-.66,1.63-1.3,2.42-2a.26.26,0,0,1,.34.39Z"/><path class="cls-10" d="M532.51,108.11c-2-.51-1.75-1.54-1.79-2.5a23.81,23.81,0,0,0,.4-3c0-.48-.1-1-.14-1.44s0-1-.06-1.42c0-.91-.11-1.82-.24-2.73a26.72,26.72,0,0,0-1.33-5.31A2.42,2.42,0,0,0,528,90.06a4.27,4.27,0,0,0-2.35-.13,8.39,8.39,0,0,0-4.39,2.4,5.38,5.38,0,0,0-1.15,2.08,4.27,4.27,0,0,0-.15,1.13L520,96.9a67.12,67.12,0,0,1-.39,11.24.5.5,0,0,1-1,0c-.59-3.76-.27-7.5-.46-11.17l-.05-1.44a6.07,6.07,0,0,1,.25-1.63A6.78,6.78,0,0,1,520,91.18a8.72,8.72,0,0,1,2.51-1.78,10.68,10.68,0,0,1,2.87-.92,5.66,5.66,0,0,1,3.16.3,3.44,3.44,0,0,1,1.36,1.07,5,5,0,0,1,.71,1.44A35.87,35.87,0,0,1,532,96.84c.16.94.28,1.89.36,2.84,0,.49.06.95.11,1.37a8.79,8.79,0,0,0,.23,1.34,13.48,13.48,0,0,0,1.42,2.53c.33.87,1,1.67-.62,3a1.1,1.1,0,0,1-1,.21Z"/><rect class="cls-9" x="759" y="151.09" width="44.5" height="31"/><path class="cls-11" d="M804.5,183.09H758v-33h46.5Zm-44.5-2h42.5v-29H760Z"/><rect class="cls-9" x="803.5" y="151.09" width="44.5" height="31"/><path class="cls-11" d="M849,183.09H802.5v-33H849Zm-44.5-2H847v-29H804.5Z"/><rect class="cls-9" x="848" y="151.09" width="43" height="31"/><path class="cls-11" d="M892,183.09H847v-33h45Zm-43-2h41v-29H849Z"/><rect class="cls-9" x="891" y="151.09" width="36" height="31"/><path class="cls-11" d="M928,183.09H890v-33h38Zm-36-2h34v-29H892Z"/><rect class="cls-9" x="927" y="151.09" width="42" height="31"/><path class="cls-11" d="M970,183.09H926v-33h44Zm-42-2h40v-29H928Z"/><rect class="cls-9" x="969" y="151.09" width="45" height="31"/><path class="cls-11" d="M1015,183.09H968v-33h47Zm-45-2h43v-29H970Z"/><rect class="cls-9" x="1014" y="151.09" width="33" height="31"/><path class="cls-11" d="M1048,183.09h-35v-33h35Zm-33-2h31v-29h-31Z"/><rect class="cls-9" x="1047" y="151.09" width="44" height="31"/><path class="cls-11" d="M1092,183.09h-46v-33h46Zm-44-2h42v-29h-42Z"/><rect class="cls-9" x="1091" y="151.09" width="41" height="31"/><path class="cls-11" d="M1133,183.09h-43v-33h43Zm-41-2h39v-29h-39Z"/><rect class="cls-9" x="1132" y="151.09" width="47" height="31"/><path class="cls-11" d="M1180,183.09h-49v-33h49Zm-47-2h45v-29h-45Z"/><rect class="cls-9" x="1179" y="151.09" width="35" height="31"/><path class="cls-11" d="M1215,183.09h-37v-33h37Zm-35-2h33v-29h-33Z"/><rect class="cls-9" x="1214" y="151.09" width="47" height="31"/><path class="cls-11" d="M1262,183.09h-49v-33h49Zm-47-2h45v-29h-45Z"/><rect class="cls-9" x="1261" y="151.09" width="10" height="31"/><path class="cls-11" d="M1272,183.09h-12v-33h12Zm-10-2h8v-29h-8Z"/><rect class="cls-9" x="759" y="188.18" width="19.5" height="31"/><path class="cls-11" d="M779.5,220.18H758v-33h21.5Zm-19.5-2h17.5v-29H760Z"/><rect class="cls-9" x="778.5" y="188.18" width="29.5" height="31"/><path class="cls-11" d="M809,220.18H777.5v-33H809Zm-29.5-2H807v-29H779.5Z"/><rect class="cls-9" x="808" y="188.18" width="27" height="31"/><path class="cls-11" d="M836,220.18H807v-33h29Zm-27-2h25v-29H809Z"/><rect class="cls-9" x="835" y="188.18" width="21" height="31"/><path class="cls-11" d="M857,220.18H834v-33h23Zm-21-2h19v-29H836Z"/><rect class="cls-9" x="856" y="188.18" width="54" height="31"/><path class="cls-11" d="M911,220.18H855v-33h56Zm-54-2h52v-29H857Z"/><rect class="cls-9" x="910" y="188.18" width="28" height="31"/><path class="cls-11" d="M939,220.18H909v-33h30Zm-28-2h26v-29H911Z"/><rect class="cls-9" x="938" y="188.18" width="31" height="31"/><path class="cls-11" d="M970,220.18H937v-33h33Zm-31-2h29v-29H939Z"/><rect class="cls-9" x="969" y="188.18" width="19" height="31"/><path class="cls-11" d="M989,220.18H968v-33h21Zm-19-2h17v-29H970Z"/><rect class="cls-9" x="988" y="188.18" width="56" height="31"/><path class="cls-11" d="M1045,220.18H987v-33h58Zm-56-2h54v-29H989Z"/><rect class="cls-9" x="1044" y="188.18" width="22" height="31"/><path class="cls-11" d="M1067,220.18h-24v-33h24Zm-22-2h20v-29h-20Z"/><rect class="cls-9" x="1066" y="188.18" width="28" height="31"/><path class="cls-11" d="M1095,220.18h-30v-33h30Zm-28-2h26v-29h-26Z"/><rect class="cls-9" x="1094" y="188.18" width="21" height="31"/><path class="cls-11" d="M1116,220.18h-23v-33h23Zm-21-2h19v-29h-19Z"/><rect class="cls-9" x="1115" y="188.18" width="53" height="31"/><path class="cls-11" d="M1169,220.18h-55v-33h55Zm-53-2h51v-29h-51Z"/><rect class="cls-9" x="1168" y="188.18" width="76" height="31"/><path class="cls-11" d="M1245,220.18h-78v-33h78Zm-76-2h74v-29h-74Z"/><rect class="cls-9" x="1244" y="188.18" width="15" height="31"/><path class="cls-11" d="M1260,220.18h-17v-33h17Zm-15-2h13v-29h-13Z"/><rect class="cls-9" x="759" y="225.27" width="17.5" height="31"/><path class="cls-11" d="M777.5,257.27H758v-33h19.5Zm-17.5-2h15.5v-29H760Z"/><rect class="cls-9" x="776.5" y="225.27" width="65.5" height="31"/><path class="cls-11" d="M843,257.27H775.5v-33H843Zm-65.5-2H841v-29H777.5Z"/><rect class="cls-9" x="842" y="225.27" width="42" height="31"/><path class="cls-11" d="M885,257.27H841v-33h44Zm-42-2h40v-29H843Z"/><rect class="cls-9" x="884" y="225.27" width="68" height="31"/><path class="cls-11" d="M953,257.27H883v-33h70Zm-68-2h66v-29H885Z"/><rect class="cls-9" x="952" y="225.27" width="42" height="31"/><path class="cls-11" d="M995,257.27H951v-33h44Zm-42-2h40v-29H953Z"/><rect class="cls-9" x="994" y="225.27" width="80" height="31"/><path class="cls-11" d="M1075,257.27H993v-33h82Zm-80-2h78v-29H995Z"/><rect class="cls-9" x="1074" y="225.27" width="6" height="31"/><path class="cls-11" d="M1081,257.27h-8v-33h8Zm-6-2h4v-29h-4Z"/><rect class="cls-9" x="759" y="262.36" width="34.5" height="31"/><path class="cls-11" d="M794.5,294.36H758v-33h36.5Zm-34.5-2h32.5v-29H760Z"/><rect class="cls-9" x="793.5" y="262.36" width="30.5" height="31"/><path class="cls-11" d="M825,294.36H792.5v-33H825Zm-30.5-2H823v-29H794.5Z"/><rect class="cls-9" x="824" y="262.36" width="43" height="31"/><path class="cls-11" d="M868,294.36H823v-33h45Zm-43-2h41v-29H825Z"/><rect class="cls-9" x="759" y="299.45" width="29.5" height="31"/><path class="cls-11" d="M789.5,331.45H758v-33h31.5Zm-29.5-2h27.5v-29H760Z"/><rect class="cls-9" x="788.5" y="299.45" width="55.5" height="31"/><path class="cls-11" d="M845,331.45H787.5v-33H845Zm-55.5-2H843v-29H789.5Z"/><rect class="cls-9" x="844" y="299.45" width="29" height="31"/><path class="cls-11" d="M874,331.45H843v-33h31Zm-29-2h27v-29H845Z"/><rect class="cls-9" x="873" y="299.45" width="57" height="31"/><path class="cls-11" d="M931,331.45H872v-33h59Zm-57-2h55v-29H874Z"/><rect class="cls-9" x="930" y="299.45" width="28" height="31"/><path class="cls-11" d="M959,331.45H929v-33h30Zm-28-2h26v-29H931Z"/><rect class="cls-9" x="958" y="299.45" width="31" height="31"/><path class="cls-11" d="M990,331.45H957v-33h33Zm-31-2h29v-29H959Z"/><rect class="cls-9" x="989" y="299.45" width="30" height="31"/><path class="cls-11" d="M1020,331.45H988v-33h32Zm-30-2h28v-29H990Z"/><rect class="cls-9" x="1019" y="299.45" width="59" height="31"/><path class="cls-11" d="M1079,331.45h-61v-33h61Zm-59-2h57v-29h-57Z"/><rect class="cls-9" x="1078" y="299.45" width="32" height="31"/><path class="cls-11" d="M1111,331.45h-34v-33h34Zm-32-2h30v-29h-30Z"/><rect class="cls-9" x="1110" y="299.45" width="60" height="31"/><path class="cls-11" d="M1171,331.45h-62v-33h62Zm-60-2h58v-29h-58Z"/><rect class="cls-9" x="1170" y="299.45" width="30" height="31"/><path class="cls-11" d="M1201,331.45h-32v-33h32Zm-30-2h28v-29h-28Z"/><rect class="cls-9" x="1200" y="299.45" width="31" height="31"/><path class="cls-11" d="M1232,331.45h-33v-33h33Zm-31-2h29v-29h-29Z"/><rect class="cls-9" x="1231" y="299.45" width="53" height="31"/><path class="cls-11" d="M1285,331.45h-55v-33h55Zm-53-2h51v-29h-51Z"/><rect class="cls-9" x="759" y="336.55" width="6.5" height="31"/><path class="cls-11" d="M766.5,368.55H758v-33h8.5Zm-6.5-2h4.5v-29H760Z"/><rect class="cls-9" x="765.5" y="336.55" width="23.5" height="31"/><path class="cls-11" d="M790,368.55H764.5v-33H790Zm-23.5-2H788v-29H766.5Z"/><rect class="cls-9" x="789" y="336.55" width="26" height="31"/><path class="cls-11" d="M816,368.55H788v-33h28Zm-26-2h24v-29H790Z"/><rect class="cls-9" x="815" y="336.55" width="26" height="31"/><path class="cls-11" d="M842,368.55H814v-33h28Zm-26-2h24v-29H816Z"/><rect class="cls-9" x="841" y="336.55" width="6" height="31"/><path class="cls-11" d="M848,368.55h-8v-33h8Zm-6-2h4v-29h-4Z"/><rect class="cls-9" x="759" y="373.64" width="13.5" height="31"/><path class="cls-11" d="M773.5,405.64H758v-33h15.5Zm-13.5-2h11.5v-29H760Z"/><rect class="cls-9" x="772.5" y="373.64" width="77.5" height="31"/><path class="cls-11" d="M851,405.64H771.5v-33H851Zm-77.5-2H849v-29H773.5Z"/><rect class="cls-9" x="850" y="373.64" width="70" height="31"/><path class="cls-11" d="M921,405.64H849v-33h72Zm-70-2h68v-29H851Z"/><rect class="cls-9" x="920" y="373.64" width="38" height="31"/><path class="cls-11" d="M959,405.64H919v-33h40Zm-38-2h36v-29H921Z"/><rect class="cls-9" x="958" y="373.64" width="61" height="31"/><path class="cls-11" d="M1020,405.64H957v-33h63Zm-61-2h59v-29H959Z"/><rect class="cls-9" x="1019" y="373.64" width="74" height="31"/><path class="cls-11" d="M1094,405.64h-76v-33h76Zm-74-2h72v-29h-72Z"/><rect class="cls-9" x="1093" y="373.64" width="26" height="31"/><path class="cls-11" d="M1120,405.64h-28v-33h28Zm-26-2h24v-29h-24Z"/><rect class="cls-9" x="1119" y="373.64" width="50" height="31"/><path class="cls-11" d="M1170,405.64h-52v-33h52Zm-50-2h48v-29h-48Z"/><rect class="cls-9" x="1169" y="373.64" width="56" height="31"/><path class="cls-11" d="M1226,405.64h-58v-33h58Zm-56-2h54v-29h-54Z"/><rect class="cls-9" x="1225" y="373.64" width="10" height="31"/><path class="cls-11" d="M1236,405.64h-12v-33h12Zm-10-2h8v-29h-8Z"/><rect class="cls-9" x="759" y="410.73" width="19.5" height="31"/><path class="cls-11" d="M779.5,442.73H758v-33h21.5Zm-19.5-2h17.5v-29H760Z"/><rect class="cls-9" x="778.5" y="410.73" width="91.5" height="31"/><path class="cls-11" d="M871,442.73H777.5v-33H871Zm-91.5-2H869v-29H779.5Z"/><rect class="cls-9" x="870" y="410.73" width="45" height="31.27"/><path class="cls-11" d="M916,443H869V409.73h47Zm-45-2h43V411.73H871Z"/><rect class="cls-9" x="915" y="410.73" width="46" height="31"/><path class="cls-11" d="M962,442.73H914v-33h48Zm-46-2h44v-29H916Z"/><rect class="cls-9" x="961" y="410.73" width="47" height="31"/><path class="cls-11" d="M1009,442.73H960v-33h49Zm-47-2h45v-29H962Z"/><rect class="cls-9" x="1008" y="410.73" width="46" height="31"/><path class="cls-11" d="M1055,442.73h-48v-33h48Zm-46-2h44v-29h-44Z"/><rect class="cls-9" x="1054" y="410.73" width="38" height="31"/><path class="cls-11" d="M1093,442.73h-40v-33h40Zm-38-2h36v-29h-36Z"/><rect class="cls-9" x="1092" y="410.73" width="38" height="31"/><path class="cls-11" d="M1131,442.73h-40v-33h40Zm-38-2h36v-29h-36Z"/><rect class="cls-9" x="1130" y="410.73" width="13" height="31"/><path class="cls-11" d="M1144,442.73h-15v-33h15Zm-13-2h11v-29h-11Z"/><rect class="cls-9" x="759" y="447.82" width="94.5" height="31"/><path class="cls-11" d="M854.5,479.82H758v-33h96.5Zm-94.5-2h92.5v-29H760Z"/><rect class="cls-9" x="853.5" y="447.82" width="94.5" height="31"/><path class="cls-11" d="M949,479.82H852.5v-33H949Zm-94.5-2H947v-29H854.5Z"/><rect class="cls-9" x="948" y="447.82" width="33" height="31"/><path class="cls-11" d="M982,479.82H947v-33h35Zm-33-2h31v-29H949Z"/><rect class="cls-9" x="981" y="447.82" width="94" height="31"/><path class="cls-11" d="M1076,479.82H980v-33h96Zm-94-2h92v-29H982Z"/><rect class="cls-9" x="1075" y="447.82" width="30" height="31"/><path class="cls-11" d="M1106,479.82h-32v-33h32Zm-30-2h28v-29h-28Z"/><rect class="cls-9" x="1105" y="447.82" width="95" height="31"/><path class="cls-11" d="M1201,479.82h-97v-33h97Zm-95-2h93v-29h-93Z"/><rect class="cls-9" x="1200" y="447.82" width="29" height="31"/><path class="cls-11" d="M1230,479.82h-31v-33h31Zm-29-2h27v-29h-27Z"/><rect class="cls-9" x="1229" y="447.82" width="7" height="31"/><path class="cls-11" d="M1237,479.82h-9v-33h9Zm-7-2h5v-29h-5Z"/><rect class="cls-9" x="759" y="484.91" width="30.5" height="31"/><path class="cls-11" d="M790.5,516.91H758v-33h32.5Zm-30.5-2h28.5v-29H760Z"/><rect class="cls-9" x="789.5" y="484.91" width="48.5" height="31"/><path class="cls-11" d="M839,516.91H788.5v-33H839Zm-48.5-2H837v-29H790.5Z"/><rect class="cls-9" x="838" y="484.91" width="47" height="31"/><path class="cls-11" d="M886,516.91H837v-33h49Zm-47-2h45v-29H839Z"/><rect class="cls-9" x="885" y="484.91" width="50" height="31"/><path class="cls-11" d="M936,516.91H884v-33h52Zm-50-2h48v-29H886Z"/><rect class="cls-9" x="935" y="484.91" width="45" height="31"/><path class="cls-11" d="M981,516.91H934v-33h47Zm-45-2h43v-29H936Z"/><rect class="cls-9" x="980" y="484.91" width="51" height="31"/><path class="cls-11" d="M1032,516.91H979v-33h53Zm-51-2h49v-29H981Z"/><rect class="cls-9" x="1031" y="484.91" width="52" height="31"/><path class="cls-11" d="M1084,516.91h-54v-33h54Zm-52-2h50v-29h-50Z"/><rect class="cls-9" x="1083" y="484.91" width="11" height="31"/><path class="cls-11" d="M1095,516.91h-13v-33h13Zm-11-2h9v-29h-9Z"/><rect class="cls-9" x="759" y="522" width="61.5" height="31"/><path class="cls-11" d="M821.5,554H758V521h63.5ZM760,552h59.5V523H760Z"/><rect class="cls-9" x="820.5" y="522" width="33.5" height="31"/><path class="cls-11" d="M855,554H819.5V521H855Zm-33.5-2H853V523H821.5Z"/><rect class="cls-9" x="854" y="522" width="32" height="31"/><path class="cls-11" d="M887,554H853V521h34Zm-32-2h30V523H855Z"/><rect class="cls-9" x="886" y="522" width="35" height="31"/><path class="cls-11" d="M922,554H885V521h37Zm-35-2h33V523H887Z"/><rect class="cls-9" x="921" y="522" width="45" height="31"/><path class="cls-11" d="M967,554H920V521h47Zm-45-2h43V523H922Z"/><rect class="cls-9" x="966" y="522" width="30" height="31"/><path class="cls-11" d="M997,554H965V521h32Zm-30-2h28V523H967Z"/><rect class="cls-9" x="996" y="522" width="38" height="31"/><path class="cls-11" d="M1035,554H995V521h40Zm-38-2h36V523H997Z"/><rect class="cls-9" x="1034" y="522" width="29" height="31"/><path class="cls-11" d="M1064,554h-31V521h31Zm-29-2h27V523h-27Z"/><rect class="cls-9" x="1063" y="522" width="30" height="31"/><path class="cls-11" d="M1094,554h-32V521h32Zm-30-2h28V523h-28Z"/><rect class="cls-9" x="1093" y="522" width="34" height="31"/><path class="cls-11" d="M1128,554h-36V521h36Zm-34-2h32V523h-32Z"/><rect class="cls-9" x="1127" y="522" width="34" height="31"/><path class="cls-11" d="M1162,554h-36V521h36Zm-34-2h32V523h-32Z"/><rect class="cls-9" x="1161" y="522" width="7" height="31"/><path class="cls-11" d="M1169,554h-9V521h9Zm-7-2h5V523h-5Z"/><rect class="cls-9" x="759" y="114" width="39.5" height="31"/><path class="cls-11" d="M799.5,146H758V113h41.5ZM760,144h37.5V115H760Z"/><rect class="cls-9" x="798.5" y="114" width="68.5" height="31"/><path class="cls-11" d="M868,146H797.5V113H868Zm-68.5-2H866V115H799.5Z"/><rect class="cls-9" x="867" y="114" width="18" height="31"/><path class="cls-11" d="M886,146H866V113h20Zm-18-2h16V115H868Z"/><rect class="cls-9" x="885" y="114" width="68" height="31"/><path class="cls-11" d="M954,146H884V113h70Zm-68-2h66V115H886Z"/><rect class="cls-9" x="953" y="114" width="35" height="31"/><path class="cls-11" d="M989,146H952V113h37Zm-35-2h33V115H954Z"/><rect class="cls-9" x="988" y="114" width="68" height="31"/><path class="cls-11" d="M1057,146H987V113h70Zm-68-2h66V115H989Z"/><rect class="cls-9" x="1056" y="114" width="32" height="31"/><path class="cls-11" d="M1089,146h-34V113h34Zm-32-2h30V115h-30Z"/><rect class="cls-9" x="1088" y="114" width="70" height="31"/><path class="cls-11" d="M1159,146h-72V113h72Zm-70-2h68V115h-68Z"/><rect class="cls-9" x="1158" y="114" width="66" height="31"/><path class="cls-11" d="M1225,146h-68V113h68Zm-66-2h64V115h-64Z"/><rect class="cls-9" x="1224" y="114" width="8" height="31"/><path class="cls-11" d="M1233,146h-10V113h10Zm-8-2h6V115h-6Z"/><path class="cls-7" d="M717.1,464.83q0-8.34-4.75-13.12t-17.74-9.16q-13-4.37-19.07-9.78-8-7-8-18.59t7.86-18.59q7.86-7.18,20.3-7.18,12.71,0,20.78,8.34t8.07,21.46h-7.86q0-10-5.64-16.24t-15.35-6.19q-9.43,0-14.87,5.09A17.22,17.22,0,0,0,675.41,414a16.07,16.07,0,0,0,5.13,12.3q5.13,4.79,16.34,8.51t17,7.72a25.62,25.62,0,0,1,8.48,9.4A27.83,27.83,0,0,1,725,464.7q0,11.69-7.9,18.83t-20.88,7.14a35.32,35.32,0,0,1-16-3.59A26.85,26.85,0,0,1,669,476.76a30.14,30.14,0,0,1-4.07-15.89h7.79q0,10.53,6.36,16.54t17.16,6q9.43,0,15.14-5.06T717.1,464.83Z"/><path class="cls-7" d="M798.87,450.34q0,19.28-8.44,29.8t-23.69,10.53q-15.11,0-23.69-10.53t-8.65-29.6V428.88q0-19.21,8.54-29.84t23.65-10.63q15.31,0,23.79,10.66t8.48,30ZM791,428.74q0-16.34-6.29-24.54T766.6,396q-11.42,0-17.84,8t-6.56,24v22.29q0,16.41,6.49,24.64t18,8.24q11.89,0,18.08-8.2T791,450.34Z"/><path class="cls-7" d="M876.73,489.31h-7.79l-47-84.77v84.77h-7.86V389.78H822l47,84.9v-84.9h7.72Z"/><path class="cls-7" d="M955.42,477.75a31.19,31.19,0,0,1-12.58,9.67,41.8,41.8,0,0,1-16.61,3.25q-15.31,0-24.06-10.25T893.08,452v-24.2q0-19.07,8.31-29.22t23.69-10.15q13.74,0,21.53,7.59t8.75,21.88h-7.79q-1.23-11.48-6.73-16.78t-15.69-5.3q-12.17,0-18.22,8.1t-6,23.75v23q0,15.59,6.67,24.2t18.7,8.61q13.06,0,21.33-8.27V449.25H925.75v-7.31h29.67Z"/><path class="cls-7" d="M717.1,592.41q0-8.34-4.75-13.12t-17.74-9.16q-13-4.37-19.07-9.78-8-7-8-18.59t7.86-18.59q7.86-7.18,20.3-7.18,12.71,0,20.78,8.34t8.07,21.46h-7.86q0-10-5.64-16.24t-15.35-6.19q-9.43,0-14.87,5.09a17.22,17.22,0,0,0-5.43,13.16,16.07,16.07,0,0,0,5.13,12.3q5.13,4.79,16.34,8.51t17,7.72a25.62,25.62,0,0,1,8.48,9.4A27.83,27.83,0,0,1,725,592.27q0,11.69-7.9,18.83t-20.88,7.14a35.32,35.32,0,0,1-16-3.59A26.85,26.85,0,0,1,669,604.33a30.14,30.14,0,0,1-4.07-15.89h7.79q0,10.53,6.36,16.54t17.16,6q9.43,0,15.14-5.06T717.1,592.41Z"/><path class="cls-7" d="M794.08,524.73h-28.3v92.15h-7.86V524.73H729.69v-7.38h64.39Z"/><path class="cls-7" d="M835.45,575.45H812.2v41.43h-7.86V517.35h27.28q13.6,0,21.09,7.76t7.49,21.57a30.76,30.76,0,0,1-4.65,16.92A24.15,24.15,0,0,1,843,573.67L863.75,616v.89h-8.34Zm-23.24-7.25H833q8.82,0,14.08-6t5.26-15.48q0-10.46-5.47-16.2t-15.31-5.74H812.2Z"/><path class="cls-7" d="M933.68,517.35V588q-.07,14.42-7.76,22.35t-21.84,7.93q-14.36,0-22-7.83t-7.62-22.73V517.35h7.79v70.07q0,23.58,21.81,23.58,21.46,0,21.74-22.9V517.35Z"/><path class="cls-7" d="M1009.77,585.84q-1.1,16.75-9,24.58t-21.94,7.83q-14.43,0-22.76-10.9t-8.41-29.63v-21.6q0-18.8,8.51-29.46T979.42,516q13.95,0,21.6,8t8.75,24.54h-7.93q-1.1-13.54-6.39-19.35t-16-5.81q-11.28,0-17.57,8.41t-6.29,24.4V577.5q0,15.86,6.08,24.68T978.81,611q11.62,0,16.82-5.81t6.22-19.35Z"/><path class="cls-7" d="M1078.62,524.73h-28.3v92.15h-7.86V524.73h-28.23v-7.38h64.39Z"/><path class="cls-7" d="M1146.84,517.35V588q-.07,14.42-7.76,22.35t-21.84,7.93q-14.36,0-22-7.83t-7.62-22.73V517.35h7.79v70.07q0,23.58,21.81,23.58,21.47,0,21.74-22.9V517.35Z"/><path class="cls-7" d="M1194.22,575.45H1171v41.43h-7.86V517.35h27.28q13.6,0,21.09,7.76t7.49,21.57a30.76,30.76,0,0,1-4.65,16.92,24.15,24.15,0,0,1-12.51,10.08L1222.52,616v.89h-8.34ZM1171,568.21h20.78q8.82,0,14.08-6t5.26-15.48q0-10.46-5.47-16.2t-15.31-5.74H1171Z"/><path class="cls-7" d="M1281,569.23h-38.62v40.4h44.43v7.25h-52.23V517.35h51.88v7.38h-44.09V562H1281Z"/></svg>