<svg id="Layer_1" data-name="Layer 1" xmlns="http://www.w3.org/2000/svg" viewBox="0 0 1320 670"><defs><style>.cls-1{fill:#ed3766;}.cls-2{fill:#1e1e1a;}.cls-3{fill:#59c9ee;}.cls-4{fill:#ffce08;}.cls-5{fill:#fff8ce;}.cls-6{fill:#ee3766;}.cls-7{fill:#fff8cd;}</style></defs><title>yg-beatles-170816-0918-wireframes-index</title><g id="_Group_" data-name="&lt;Group&gt;"><path class="cls-1" d="M602,306.14a390,390,0,0,1,0,202.5l-29.33-7.85L224.33,407.38,544,321.71Z"/><path class="cls-2" d="M602.81,510l-30.37-8.13L220.15,407.38l3.9-1,319.71-85.67,59-15.85.28,1a391.2,391.2,0,0,1,0,203.06ZM228.51,407.38,573,499.74l28.28,7.57a389,389,0,0,0,0-199.85l-57,15.29Z"/><path class="cls-1" d="M224.33,407.38l348.38,93.41a357,357,0,0,1-93.14,161.8v0L362.5,545.54Z"/><path class="cls-2" d="M480.66,665.19l-1.85-1.81-258.1-258.1,3.9,1L574,500l-.27,1a359.63,359.63,0,0,1-93.11,162ZM228,409.47l251.6,251.6a357.46,357.46,0,0,0,91.84-159.52Z"/><path class="cls-1" d="M544,321.71,224.33,407.38,458.45,173.32A329.71,329.71,0,0,1,544,321.71Z"/><path class="cls-2" d="M220.71,409.47,458.45,171.79l.77.77a332.17,332.17,0,0,1,85.87,148.87l.28,1-1,.28ZM458.44,174.85,228,405.29l314.76-84.34A330,330,0,0,0,458.44,174.85Z"/><path class="cls-1" d="M490.38,141.34l-31.94,32L224.33,407.38l70.24-261.9L321.75,44h0A374.39,374.39,0,0,1,490.38,141.34Z"/><path class="cls-2" d="M222.24,411,320.91,42.92l1.16,0a377.16,377.16,0,0,1,169.07,97.62l.77.76-32.7,32.75ZM322.51,45.31l-26.9,100.44-69.19,258,231.25-231.2,31.17-31.22A375,375,0,0,0,322.51,45.31Z"/><path class="cls-1" d="M267.22,567.25,224.33,407.38,362.5,545.54A195.49,195.49,0,0,1,275,596.27Z"/><path class="cls-2" d="M274.23,597.6l-8.05-30.07h0L222.24,403.75,364,545.54l-.76.77a197.54,197.54,0,0,1-88,51ZM226.43,411l41.84,156,7.49,28A195.37,195.37,0,0,0,361,545.54Z"/><path class="cls-1" d="M294.57,145.47l-70.24,261.9L169.81,204l-15.57-58.11A272,272,0,0,1,294.57,145.47Z"/><path class="cls-2" d="M224.33,411.56,152.91,145.08l1-.28a273,273,0,0,1,140.9-.37l1,.28-.28,1ZM155.56,146.61,224.33,403.2l68.91-257A270.81,270.81,0,0,0,155.56,146.61Z"/><path class="cls-1" d="M224.33,407.38l42.89,159.88a164.57,164.57,0,0,1-85.64-.42Z"/><path class="cls-2" d="M225.23,573.78a166.45,166.45,0,0,1-43.93-5.9l-1-.28.28-1,43.8-163.36L268.55,568l-1.05.28A165.28,165.28,0,0,1,225.23,573.78Zm-42.32-7.71a163.88,163.88,0,0,0,83,.41L224.33,411.55Z"/><path class="cls-1" d="M169.81,204l54.53,203.42L86.22,269.22,75.37,258.4v0A209.12,209.12,0,0,1,169.81,204Z"/><path class="cls-2" d="M226.43,411,74.29,258.85V258l.32-.35a211.25,211.25,0,0,1,94.93-54.69l1-.28.28,1ZM76.89,258.39,87,268.46l135.26,135.3L169,205.28A209.12,209.12,0,0,0,76.89,258.39Z"/><path class="cls-1" d="M86.22,269.22,224.33,407.38,50.22,360.7l-14.77-4A195,195,0,0,1,86.22,269.22Z"/><path class="cls-2" d="M228,409.47l-193.83-52,.28-1a196.93,196.93,0,0,1,51-88l.77-.76.77.76ZM36.78,356l13.72,3.68,170.21,45.63L86.22,270.76A194.77,194.77,0,0,0,36.78,356Z"/><path class="cls-1" d="M224.33,407.38,181.58,566.84a166.36,166.36,0,0,1-73.7-43Z"/><path class="cls-2" d="M182.34,568.17l-1-.29a168.38,168.38,0,0,1-74.17-43.28l-.77-.77.77-.77L226.43,403.75Zm-72.93-44.34a166.24,166.24,0,0,0,71.4,41.67L222.24,411Z"/><path class="cls-1" d="M224.33,407.38,107.88,523.83a166.39,166.39,0,0,1-42.95-73.7Z"/><path class="cls-2" d="M107.88,525.36l-.77-.77a168.27,168.27,0,0,1-43.23-74.18l-.29-1,1.05-.28L228,405.28ZM66.27,450.9a166.1,166.1,0,0,0,41.62,71.4L220.71,409.47Z"/><path class="cls-1" d="M224.33,407.38,64.93,450.13l-15.08,4a181.49,181.49,0,0,1,.37-93.45Z"/><path class="cls-2" d="M49.08,455.47l-.28-1a182.56,182.56,0,0,1,.37-94l.28-1,1,.28,178,47.72ZM51,362a180.41,180.41,0,0,0-.36,90.79l14-3.73,155.5-41.71Z"/><path class="cls-2" d="M603.09,508.91l-2.09-.56a389,389,0,0,0,0-201.93l2.09-.56A391.2,391.2,0,0,1,603.09,508.91Z"/><path class="cls-2" d="M489.73,142.21l-.12-.1A375,375,0,0,0,321.52,45l.56-2.09a377.16,377.16,0,0,1,169.07,97.62Z"/><path class="cls-2" d="M480.34,663.34l-1.53-1.53A357.43,357.43,0,0,0,571.67,500.5l2.09.55A359.6,359.6,0,0,1,480.34,663.34Z"/><path class="cls-2" d="M543,322a330,330,0,0,0-85.31-147.9l1.53-1.53a332.17,332.17,0,0,1,85.87,148.87Z"/><path class="cls-2" d="M154.52,146.89,154,144.8a273,273,0,0,1,140.9-.37l-.55,2.09A270.85,270.85,0,0,0,154.52,146.89Z"/><path class="cls-2" d="M76.13,259.14,74.6,257.6a211.25,211.25,0,0,1,94.93-54.69l.55,2.09A209.09,209.09,0,0,0,76.13,259.14Z"/><path class="cls-2" d="M36.5,357l-2.09-.56a196.93,196.93,0,0,1,51-88L87,270A194.77,194.77,0,0,0,36.5,357Z"/><path class="cls-2" d="M275.27,597.32l-.56-2.09a195.35,195.35,0,0,0,87-50.46l1.53,1.53A197.54,197.54,0,0,1,275.27,597.32Z"/><path class="cls-2" d="M48.81,454.42a182.56,182.56,0,0,1,.37-94l2.09.56a180.38,180.38,0,0,0-.37,92.89Z"/><path class="cls-2" d="M225.23,573.78a166.45,166.45,0,0,1-43.93-5.9A168.61,168.61,0,0,1,63.89,450.42l2.09-.57A166.45,166.45,0,0,0,181.86,565.79a163.89,163.89,0,0,0,85.08.42l.28,0,0,1.15.26,1A165.32,165.32,0,0,1,225.23,573.78Z"/><rect class="cls-2" x="350.87" y="354.51" width="2.17" height="360.97" transform="translate(-275.21 405.57) rotate(-45)"/><polygon class="cls-2" points="601.76 509.68 572.44 501.83 224.05 408.42 224.61 406.33 573 499.74 602.32 507.59 601.76 509.68"/><polygon class="cls-2" points="224.61 408.42 224.05 406.33 543.76 320.66 601.76 305.09 602.32 307.18 544.32 322.75 224.61 408.42"/><polygon class="cls-2" points="225.1 408.14 223.57 406.61 457.68 172.56 489.62 140.57 491.15 142.1 459.21 174.09 225.1 408.14"/><polygon class="cls-2" points="225.38 407.66 223.29 407.1 293.52 145.19 320.7 43.72 322.79 44.28 295.62 145.75 225.38 407.66"/><rect class="cls-2" x="188.2" y="141.23" width="2.17" height="270.77" transform="translate(-65.16 58.44) rotate(-15)"/><polygon class="cls-2" points="223.57 408.14 85.45 269.99 74.28 258.85 74.28 258.4 75.38 258.39 76.13 257.63 86.98 268.46 225.1 406.61 223.57 408.14"/><polygon class="cls-2" points="224.05 408.42 49.94 361.75 35.17 357.78 35.73 355.69 50.5 359.66 224.61 406.33 224.05 408.42"/><polygon class="cls-2" points="50.13 455.19 49.58 453.1 64.65 449.09 224.05 406.33 224.61 408.42 65.21 451.18 50.13 455.19"/><rect class="cls-2" x="83.76" y="464.52" width="164.69" height="2.17" transform="translate(-280.58 253.83) rotate(-45)"/><rect class="cls-2" x="120.41" y="486.02" width="165.09" height="2.16" transform="translate(-320.1 556.94) rotate(-74.99)"/><polygon class="cls-2" points="273.94 596.55 266.17 567.53 223.29 407.66 225.38 407.1 268.26 566.97 276.04 595.99 273.94 596.55"/></g><g id="_Group_2" data-name="&lt;Group&gt;"><path class="cls-3" d="M398.49,360.7a181.48,181.48,0,0,1,.37,93.49l-14.65-4L224.33,407.38Z"/><path class="cls-2" d="M399.63,455.52l-15.7-4.26L220.15,407.38l179.1-48,.28,1a182.58,182.58,0,0,1,.37,94ZM228.52,407.38l156,41.79,13.6,3.69a180.43,180.43,0,0,0-.37-90.83Z"/><path class="cls-3" d="M398.49,360.7,224.33,407.38,351.64,280.07A180.18,180.18,0,0,1,398.49,360.7Z"/><path class="cls-2" d="M220.71,409.47,351.64,278.54l.77.76a182,182,0,0,1,47.13,81.12l.28,1-1,.28ZM351.64,281.6,228,405.29l169.21-45.35A179.87,179.87,0,0,0,351.64,281.6Z"/><path class="cls-3" d="M224.33,407.38l159.88,42.84a163.48,163.48,0,0,1-42.85,74.19l-10.85-10.85Z"/><path class="cls-2" d="M341.37,525.94l-11.62-11.62-109-109,164.82,44.16-.27,1a165.42,165.42,0,0,1-43.13,74.68ZM228,409.47,341.36,522.88A163.27,163.27,0,0,0,382.89,451Z"/><path class="cls-3" d="M362.5,269.22l-10.85,10.85L224.33,407.38,275,218.54A195.43,195.43,0,0,1,362.5,269.22Z"/><path class="cls-2" d="M222.24,411l52-193.79,1,.28a197.26,197.26,0,0,1,88,51l.77.76-11.62,11.62Zm53.51-191.13L226.43,403.75,361,269.22A195.13,195.13,0,0,0,275.75,219.86Z"/><path class="cls-3" d="M286.63,175,275,218.54,224.33,407.38,181.58,247.89,162.05,175A241.34,241.34,0,0,1,286.63,175Z"/><path class="cls-2" d="M224.33,411.55,160.73,174.22l1-.28a242.39,242.39,0,0,1,125.14,0l1,.28L276,218.81Zm-61-235.8,19.24,71.85L224.33,403.2l49.61-184.94,11.36-42.46A240.24,240.24,0,0,0,163.38,175.75Z"/><path class="cls-3" d="M263.22,552.39l3.87,14.49a164.93,164.93,0,0,1-85.63.42l4-14.95,38.82-145Z"/><path class="cls-2" d="M223.4,573.82a164.78,164.78,0,0,1-42.21-5.48l-1.05-.28,4.33-16,39.87-148.87,44.08,164.44-1,.28A167.15,167.15,0,0,1,223.4,573.82Zm-40.6-7.3a163.94,163.94,0,0,0,83-.41l-3.59-13.45L224.33,411.56,186.56,552.63Z"/><path class="cls-3" d="M181.58,247.89l42.76,159.49L107.9,290.93v0A166.88,166.88,0,0,1,181.58,247.89Z"/><path class="cls-2" d="M226.43,411,106.81,291.38v-.9l.32-.36a168.58,168.58,0,0,1,74.16-43.28l1.05-.29.28,1.05Zm-117-120.08L222.24,403.75,180.82,249.22A166.42,166.42,0,0,0,109.41,290.91Z"/><path class="cls-3" d="M224.33,407.38,118.16,513.55a149.14,149.14,0,0,1-38.83-67.31Z"/><path class="cls-2" d="M118.16,515.08l-.76-.76a150.74,150.74,0,0,1-39.11-67.79l-.28-1,1-.28L228,405.28ZM80.66,447a148.6,148.6,0,0,0,37.51,65L220.71,409.47Z"/><path class="cls-3" d="M224.33,407.38l-145,38.87-14.9,4a164.91,164.91,0,0,1,.41-85.64Z"/><path class="cls-2" d="M63.67,451.59l-.28-1a166.11,166.11,0,0,1,.41-86.2l.28-1,164.43,44.08Zm1.94-85.64a164,164,0,0,0-.4,83l13.85-3.73,141.1-37.83Z"/><path class="cls-3" d="M224.33,407.38,64.84,364.62a166.78,166.78,0,0,1,43.05-73.69Z"/><path class="cls-2" d="M228,409.47,63.51,365.38l.29-1.05a168.57,168.57,0,0,1,43.33-74.17l.77-.76.77.76ZM66.18,363.86l154.53,41.43L107.9,292.46A166.43,166.43,0,0,0,66.18,363.86Z"/><path class="cls-2" d="M286.35,176.07a240.2,240.2,0,0,0-124,0l-.56-2.09a242.39,242.39,0,0,1,125.14,0Z"/><path class="cls-2" d="M361.73,270a195.11,195.11,0,0,0-87-50.4l.56-2.09a197.26,197.26,0,0,1,88,51Z"/><path class="cls-2" d="M399.91,454.46l-2.09-.55a179.7,179.7,0,0,0-46.94-173.08l1.53-1.53a181.87,181.87,0,0,1,47.5,175.16Z"/><path class="cls-2" d="M63.39,450.54a166.11,166.11,0,0,1,.41-86.2,168.55,168.55,0,0,1,43-73.85h0l.32-.36a168.58,168.58,0,0,1,74.16-43.28l.58,2.09A166.4,166.4,0,0,0,109,291.35l-.31.35a166.4,166.4,0,0,0-42.78,73.21A164,164,0,0,0,65.48,450Z"/><path class="cls-2" d="M223.4,573.82a164.78,164.78,0,0,1-42.21-5.48l.55-2.09a164,164,0,0,0,85.06-.42l.57,2.09A167.15,167.15,0,0,1,223.4,573.82Z"/><rect class="cls-2" x="281.77" y="383.14" width="2.17" height="165.51" transform="translate(-246.59 336.46) rotate(-45)"/><polygon class="cls-2" points="398.58 455.23 383.93 451.26 224.05 408.42 224.61 406.33 384.49 449.17 399.15 453.14 398.58 455.23"/><rect class="cls-2" x="221.26" y="382.96" width="180.3" height="2.17" transform="translate(-88.79 93.69) rotate(-15)"/><rect class="cls-2" x="195.72" y="337.21" width="195.39" height="2.17" transform="translate(-153.27 306.56) rotate(-45)"/><polygon class="cls-2" points="225.38 407.66 223.29 407.1 273.94 218.25 285.58 174.74 287.68 175.3 276.04 218.81 225.38 407.66"/><polygon class="cls-2" points="223.29 407.66 180.53 248.16 161.01 175.26 163.1 174.7 182.62 247.6 225.38 407.1 223.29 407.66"/><rect class="cls-2" x="165.03" y="266.82" width="2.17" height="164.67" transform="translate(-198.23 219.71) rotate(-45)"/><rect class="cls-2" x="143.51" y="303.44" width="2.16" height="165.12" transform="matrix(0.26, -0.97, 0.97, 0.26, -265.68, 425.7)"/><polygon class="cls-2" points="64.72 451.31 64.15 449.22 79.05 445.2 224.05 406.33 224.61 408.42 79.61 447.29 64.72 451.31"/><rect class="cls-2" x="96.17" y="459.38" width="150.15" height="2.17" transform="translate(-275.44 255.96) rotate(-45)"/><polygon class="cls-2" points="182.51 567.58 180.42 567.01 184.47 552.06 223.29 407.1 225.38 407.66 186.56 552.63 182.51 567.58"/><polygon class="cls-2" points="266.05 567.15 262.18 552.66 223.29 407.66 225.38 407.1 264.27 552.11 268.14 566.6 266.05 567.15"/><path class="cls-2" d="M342.13,525.17l-1.53-1.53a163.25,163.25,0,0,0,42.56-73.7l2.09.55A165.42,165.42,0,0,1,342.13,525.17Z"/><path class="cls-2" d="M117.4,514.32a150.74,150.74,0,0,1-39.11-67.79l2.09-.56a148.59,148.59,0,0,0,38.55,66.82Z"/></g><g id="_Group_3" data-name="&lt;Group&gt;"><path class="cls-4" d="M384.21,450.21l14.33,3.84a181.39,181.39,0,0,1-46.9,80.63l-10.31-10.28-117-117Z"/><path class="cls-2" d="M351.64,536.21l-11.07-11L220.71,405.29l179.16,48-.29,1a183.45,183.45,0,0,1-47.18,81.11ZM228,409.47,342.1,523.64l9.54,9.51a181.3,181.3,0,0,0,45.57-78.34Z"/><path class="cls-4" d="M383.79,364.62a164.81,164.81,0,0,1,.42,85.59L224.33,407.38Z"/><path class="cls-2" d="M385,451.54l-1-.28L220.15,407.38,384.55,363.3l.28,1a165.89,165.89,0,0,1,.43,86.16ZM228.51,407.38l154.92,41.51a163.74,163.74,0,0,0-.42-82.94Z"/><path class="cls-4" d="M224.33,407.38l117,117a163.49,163.49,0,0,1-74.11,42.85h0Z"/><path class="cls-2" d="M267.36,568.33h-1l-.26-.8L222.24,403.75,342.86,524.41l-.76.77a165.21,165.21,0,0,1-74.6,43.13ZM226.42,411l41.51,154.94a163,163,0,0,0,71.86-41.53Z"/><path class="cls-4" d="M340.79,290.93,224.33,407.38l42.76-159.46A166.44,166.44,0,0,1,340.79,290.93Z"/><path class="cls-2" d="M222.24,411l44.09-164.41,1,.29a168.43,168.43,0,0,1,74.17,43.29l.77.76-.77.77Zm45.61-161.75-41.43,154.5L339.25,290.93A166.28,166.28,0,0,0,267.85,249.25Z"/><path class="cls-4" d="M267.09,247.92,224.33,407.38,181.5,247.52A164.48,164.48,0,0,1,267.09,247.92Z"/><path class="cls-2" d="M224.33,411.56,180.17,246.75l1-.28a165.54,165.54,0,0,1,86.16.4l1,.29-.28,1ZM182.82,248.29,224.33,403.2l41.43-154.52A163.41,163.41,0,0,0,182.82,248.29Z"/><path class="cls-4" d="M224.33,407.38,107.88,523.83a166.26,166.26,0,0,1-43-73.71Z"/><path class="cls-2" d="M107.88,525.36l-.77-.77a168.13,168.13,0,0,1-43.28-74.18l-.29-1,1.05-.28L228,405.28ZM66.22,450.89a166,166,0,0,0,41.67,71.41L220.71,409.47Z"/><path class="cls-2" d="M352.41,535.45l-1.53-1.53a181.27,181.27,0,0,0,46.62-80.15l2.09.57A183.45,183.45,0,0,1,352.41,535.45Z"/><path class="cls-2" d="M385.26,450.49l-2.09-.55a163.74,163.74,0,0,0-.42-85l2.09-.57A165.89,165.89,0,0,1,385.26,450.49Z"/><path class="cls-2" d="M340,291.7A166.26,166.26,0,0,0,266.81,249a163.35,163.35,0,0,0-85-.4l-.55-2.09a165.57,165.57,0,0,1,86.16.4,168.43,168.43,0,0,1,74.17,43.29Z"/><path class="cls-2" d="M107.12,524.59a168.13,168.13,0,0,1-43.28-74.18l2.09-.57a166,166,0,0,0,42.72,73.23Z"/><path class="cls-2" d="M267.5,568.3l-.55-2.09a163,163,0,0,0,73.62-42.56l1.53,1.53A165.21,165.21,0,0,1,267.5,568.3Z"/><polygon class="cls-2" points="350.88 535.45 340.57 525.17 223.57 408.14 225.1 406.61 342.1 523.64 352.4 533.92 350.88 535.45"/><rect class="cls-2" x="310.35" y="340.54" width="2.17" height="180.35" transform="translate(-185.2 620.07) rotate(-75)"/><rect class="cls-2" x="221.52" y="384.92" width="165.08" height="2.16" transform="translate(-89.62 91.95) rotate(-15.01)"/><rect class="cls-2" x="200.22" y="348.07" width="164.68" height="2.17" transform="translate(-164.13 302.07) rotate(-45)"/><rect class="cls-2" x="163.17" y="326.56" width="165.09" height="2.16" transform="translate(-134.4 480.09) rotate(-74.99)"/><rect class="cls-2" x="201.83" y="244.7" width="2.17" height="165.5" transform="translate(-77.84 63.68) rotate(-15)"/><rect class="cls-2" x="62.07" y="427.67" width="165.08" height="2.17" transform="translate(-106.05 52.04) rotate(-15)"/><rect class="cls-2" x="83.76" y="464.52" width="164.69" height="2.17" transform="translate(-280.58 253.83) rotate(-45)"/><rect class="cls-2" x="244.67" y="404.56" width="2.17" height="165.52" transform="translate(-117.75 80.21) rotate(-15)"/></g><path class="cls-3" d="M224.33,407l159.88,42.84A163.47,163.47,0,0,1,341.37,524l-10.85-10.85Z"/><path class="cls-2" d="M341.37,525.54l-11.62-11.62-109-109,164.82,44.16-.27,1a165.43,165.43,0,0,1-43.13,74.68ZM228,409.07,341.36,522.48a163.27,163.27,0,0,0,41.52-71.9Z"/><path class="cls-4" d="M224.33,407,118.16,513.16a149.22,149.22,0,0,1-38.83-67.31Z"/><path class="cls-2" d="M118.16,514.69l-.77-.76a150.88,150.88,0,0,1-39.11-67.79l-.28-1L228,404.89Zm-37.5-68.07a148.71,148.71,0,0,0,37.51,65L220.71,409.08Z"/><rect class="cls-2" x="281.77" y="382.75" width="2.17" height="165.51" transform="translate(-246.31 336.35) rotate(-45)"/><rect class="cls-2" x="303.19" y="345.64" width="2.17" height="165.52" transform="translate(-188.28 611.43) rotate(-75)"/><rect class="cls-2" x="76.77" y="425.34" width="150.12" height="2.16" transform="translate(-105.24 53.86) rotate(-15.01)"/><rect class="cls-2" x="96.17" y="458.99" width="150.15" height="2.17" transform="translate(-275.16 255.84) rotate(-45)"/><path class="cls-2" d="M342.13,524.78l-1.53-1.53a163.25,163.25,0,0,0,42.56-73.7l2.09.55A165.43,165.43,0,0,1,342.13,524.78Z"/><path class="cls-2" d="M117.4,513.93a150.88,150.88,0,0,1-39.11-67.79l2.09-.56a148.7,148.7,0,0,0,38.55,66.82Z"/><g id="_Group_4" data-name="&lt;Group&gt;"><path class="cls-3" d="M330.51,513.55l10.85,10.85a163.76,163.76,0,0,1-74.15,42.85l-4-14.91A149.44,149.44,0,0,0,330.51,513.55Z"/><path class="cls-2" d="M266.45,568.57l-4.56-17,1-.28a148.85,148.85,0,0,0,66.8-38.51l.77-.77,12.38,12.38-.76.76A165.48,165.48,0,0,1,267.5,568.3Zm-1.91-15.47L268,565.93a163.34,163.34,0,0,0,71.85-41.52l-9.32-9.32A151,151,0,0,1,264.55,553.11Z"/><path class="cls-1" d="M263.22,552.35l4,14.91a164.48,164.48,0,0,1-85.64-.43l3.89-14.44A151.53,151.53,0,0,0,263.22,552.35Z"/><path class="cls-2" d="M225.24,573.79a166.12,166.12,0,0,1-43.95-5.92l-1-.29,4.45-16.52,1,.28a150.43,150.43,0,0,0,77.2,0l1-.28,4.56,17-1,.28A165.06,165.06,0,0,1,225.24,573.79Zm-42.33-7.72a163.6,163.6,0,0,0,83,.42l-3.44-12.82a152.63,152.63,0,0,1-76.23,0Z"/><path class="cls-3" d="M128.42,503.29l-10.26,10.26a149.14,149.14,0,0,1-38.83-67.31l14.07-3.76A134.53,134.53,0,0,0,128.42,503.29Z"/><path class="cls-2" d="M118.16,515.08l-.76-.76a150.74,150.74,0,0,1-39.11-67.79l-.28-1,16.16-4.32.28,1a133.92,133.92,0,0,0,34.75,60.32l.76.77ZM80.66,447a148.58,148.58,0,0,0,37.51,65l8.73-8.73a136.1,136.1,0,0,1-34.26-59.48Z"/><path class="cls-1" d="M118.16,513.55l-10.28,10.28a166.19,166.19,0,0,1-43-73.7l14.45-3.89A149.14,149.14,0,0,0,118.16,513.55Z"/><path class="cls-2" d="M107.88,525.36l-.76-.77a168.1,168.1,0,0,1-43.28-74.18l-.29-1,16.55-4.45.28,1a148.59,148.59,0,0,0,38.55,66.82l.77.77ZM66.22,450.89a166,166,0,0,0,41.67,71.4l8.75-8.75a150.77,150.77,0,0,1-38.07-66Z"/><path class="cls-2" d="M107.12,524.59a168.1,168.1,0,0,1-43.28-74.18l2.09-.57a165.93,165.93,0,0,0,42.72,73.22Z"/><path class="cls-2" d="M225.24,573.79a166.12,166.12,0,0,1-43.95-5.92l.57-2.09A162.73,162.73,0,0,0,340.6,523.64l1.53,1.53a164.58,164.58,0,0,1-116.89,48.62Z"/><path class="cls-2" d="M224.27,558.52a152.44,152.44,0,0,1-39.09-5.09l.55-2.09a150.43,150.43,0,0,0,77.2,0,148.85,148.85,0,0,0,66.8-38.51l1.53,1.53a151.19,151.19,0,0,1-107,44.2Z"/><path class="cls-2" d="M117.4,514.32a150.74,150.74,0,0,1-39.11-67.79l2.09-.56a148.59,148.59,0,0,0,38.55,66.82Z"/><path class="cls-2" d="M127.66,504.06a136.09,136.09,0,0,1-35.31-61.29l2.09-.55a133.92,133.92,0,0,0,34.75,60.32Z"/><rect class="cls-2" x="334.86" y="511.31" width="2.17" height="15.35" transform="translate(-268.58 389.55) rotate(-45)"/><rect class="cls-2" x="264.14" y="552.08" width="2.16" height="15.43" transform="translate(-135.95 87.8) rotate(-15.01)"/><rect class="cls-2" x="176.04" y="558.52" width="14.96" height="2.16" transform="translate(-404.55 591.37) rotate(-74.94)"/><rect class="cls-2" x="103.63" y="512.48" width="29.05" height="2.16" transform="translate(-328.36 233.68) rotate(-44.96)"/><rect class="cls-2" x="64.38" y="445.23" width="29.52" height="2.16" transform="translate(-113.28 35.91) rotate(-15.06)"/></g><path class="cls-5" d="M27.3,571.23l-11.55,13.4v35.68H8V520.78h7.79v53l10.94-13.67,30.83-39.37h9.78l-34.73,44.3L70,620.31h-9.5Z"/><path class="cls-5" d="M125.61,572.66H87v40.4h44.43v7.25H79.19V520.78h51.88v7.38H87v37.26h38.62Z"/><path class="cls-5" d="M167.93,574.92l24.81-54.14h9l-29.94,62.07v37.46H164V582.85l-29.87-62.07h9.16Z"/><path class="cls-5" d="M256.39,595.83q0-8.34-4.75-13.12t-17.74-9.16q-13-4.37-19.07-9.78-8-7-8-18.59t7.86-18.59q7.86-7.18,20.3-7.18,12.71,0,20.78,8.34t8.07,21.46H256q0-10-5.64-16.24T235,526.79q-9.43,0-14.87,5.09A17.22,17.22,0,0,0,214.69,545a16.07,16.07,0,0,0,5.13,12.3q5.13,4.79,16.34,8.51t17,7.72a25.62,25.62,0,0,1,8.48,9.4,27.83,27.83,0,0,1,2.73,12.71q0,11.69-7.9,18.83t-20.88,7.14a35.32,35.32,0,0,1-16-3.59,26.85,26.85,0,0,1-11.28-10.32,30.14,30.14,0,0,1-4.07-15.89H212q0,10.53,6.36,16.54t17.16,6q9.43,0,15.14-5.06T256.39,595.83Z"/><path class="cls-5" d="M1059.63,455.52l-.36-.1a183.45,183.45,0,0,1-46.11,79.25l126.39,126.39,1.8-1.83.38-.38h0l1.58-1.62c.71-.74,1.42-1.49,2.13-2.24l1.92-2c.7-.75,1.39-1.51,2.09-2.27l1.89-2.06c.68-.75,1.35-1.52,2-2.28l1.88-2.12c.66-.76,1.31-1.52,2-2.28s1.25-1.44,1.86-2.17,1.28-1.53,1.91-2.3,1.23-1.47,1.84-2.21,1.23-1.53,1.85-2.29,1.22-1.51,1.83-2.28,1.19-1.53,1.79-2.29,1.21-1.55,1.81-2.33,1.15-1.53,1.72-2.29,1.2-1.59,1.8-2.39,1.1-1.51,1.65-2.27,1.2-1.64,1.79-2.46,1.06-1.5,1.58-2.25,1.19-1.69,1.78-2.53,1-1.47,1.5-2.2,1.2-1.75,1.78-2.64c.47-.71.93-1.42,1.39-2.13.6-.92,1.21-1.84,1.81-2.76.42-.65.82-1.3,1.23-2,.63-1,1.27-2,1.89-3l.92-1.5q4-6.47,7.66-13.1l.25-.44c.64-1.16,1.27-2.33,1.9-3.49.29-.55.6-1.09.89-1.64.56-1.05,1.11-2.11,1.66-3.17.35-.67.7-1.33,1-2,.51-1,1-2,1.51-3,.37-.74.75-1.47,1.11-2.22.47-1,.93-1.92,1.39-2.88.38-.79.77-1.59,1.15-2.38s.87-1.88,1.31-2.82.77-1.65,1.14-2.48.83-1.87,1.24-2.81.75-1.69,1.12-2.53.78-1.85,1.17-2.77.74-1.74,1.1-2.61.74-1.83,1.11-2.75.72-1.78,1.08-2.67.7-1.81,1-2.72.71-1.82,1-2.74.66-1.8,1-2.7.69-1.86,1-2.79.63-1.79.94-2.69.66-1.89,1-2.84.59-1.78.88-2.68.64-1.92.95-2.89.55-1.77.83-2.66.61-2,.91-2.94.52-1.76.78-2.65.59-2,.87-3c.21-.72.4-1.45.6-2.17h0l.13-.46c.23-.83.46-1.66.68-2.48l-171.75-46Z"/><path class="cls-5" d="M941.58,198.09h0v0l0,.14,0,.08-5.2,19.44a197.26,197.26,0,0,1,86.19,49.93L1068.19,222l49.49-49.47.11-.11,31.06-31.1-1.92-1.89-.26-.25h0l-1.82-1.78c-.77-.75-1.56-1.48-2.33-2.22l-2.13-2L1138,131l-2.19-2-2.36-2.1-2.23-2-2.39-2.06-2.26-1.93-2.42-2-2.29-1.9-2.44-2-2.32-1.87-2.47-1.93-2.35-1.83-2.49-1.88-2.4-1.8-2.5-1.82-2.44-1.77-2.53-1.78-2.46-1.73-2.61-1.77-2.44-1.65-2.64-1.73-2.46-1.62-2.71-1.71-2.44-1.54c-1-.59-1.91-1.17-2.87-1.75L1077,85.49c-1.12-.67-2.25-1.33-3.38-2l-1.87-1.1q-2.63-1.52-5.29-3l-1.88-1c-1.15-.63-2.31-1.27-3.47-1.89l-2.22-1.16c-1.06-.56-2.11-1.12-3.17-1.66l-2.37-1.2c-1-.52-2-1-3.06-1.54l-2.42-1.17-3.06-1.48-2.46-1.14-3.06-1.42-2.52-1.12-3-1.35-2.56-1.09-3-1.29-2.6-1.06-3-1.23-2.64-1-3-1.17-2.66-1-3.05-1.12-2.7-.95-3-1.06-2.74-.91-3-1-2.77-.87-3-1-2.81-.83-3-.89-2.38-.67h0L985,46l-2.52-.69-26.9,100.43-14,52.22Z"/><path class="cls-5" d="M1010.69,535.27l-9.35-9.33a166.83,166.83,0,0,1-42.49,30.49l-.9.46-.7.33A162.82,162.82,0,0,1,928.54,568v0h0l3.74,14,3.47,13c.89-.25,1.78-.51,2.67-.77l.44-.13h0c.81-.24,1.62-.47,2.42-.71,1.07-.33,2.14-.69,3.2-1s1.85-.6,2.78-.91c1.08-.37,2.15-.77,3.22-1.16.89-.33,1.79-.64,2.68-1,1.1-.42,2.18-.86,3.27-1.3.85-.34,1.71-.67,2.56-1,1.12-.47,2.23-1,3.34-1.46.8-.35,1.61-.69,2.41-1.06,1.16-.53,2.31-1.09,3.46-1.65.73-.35,1.48-.69,2.21-1.06,1.28-.64,2.54-1.3,3.81-2,.59-.31,1.18-.6,1.77-.92q5.53-3,10.87-6.3c.55-.34,1.09-.71,1.64-1.06,1.22-.78,2.44-1.55,3.64-2.35.67-.45,1.33-.92,2-1.38,1.06-.73,2.13-1.45,3.17-2.2.71-.51,1.4-1,2.1-1.55,1-.73,2-1.45,3-2.2.72-.55,1.42-1.12,2.13-1.68.94-.74,1.88-1.47,2.81-2.23.71-.58,1.41-1.19,2.12-1.79.9-.76,1.81-1.51,2.7-2.29.7-.61,1.39-1.24,2.08-1.87.87-.79,1.75-1.57,2.61-2.37.61-.57,1.21-1.16,1.81-1.73h0l.22-.21c.71-.68,1.42-1.36,2.13-2.06l-10.23-10.23Z"/><path class="cls-5" d="M945.85,173.7h0l7.36-27.46h0l-1.49-.38-1.5-.38h0l-.79-.19-2-.48-2.25-.53-2.07-.46-2.21-.48-2.1-.43-2.19-.44-2.14-.4-2.16-.4-2.21-.38-2.1-.35-2.3-.35-2-.3-2.4-.33-1.92-.26-2.54-.3-1.8-.21-2.69-.28-1.65-.17-2.93-.25-1.42-.12-3.21-.23-1.15-.08-3.62-.2-.75,0q-2.15-.1-4.3-.16h-.07q-11-.33-22,.24H871q-2.06.11-4.12.25l-.67,0-3.7.28-1,.09-3.38.31L857,139l-3.19.35-1.35.17-3,.38-1.5.21-2.83.4-1.63.25-2.7.43-1.73.3-2.59.45-1.81.34-2.49.48-1.89.39-2.4.5-2,.44-2.33.53-2,.49-2.24.55-.74.18h0l-1.36.35-1.66.43,7.25,27.06A242.39,242.39,0,0,1,945.85,173.7Z"/><path class="cls-5" d="M746.22,267.69l.76.76h0l.23.23,20.69,20.69a168.57,168.57,0,0,1,72.36-42.23l-6.7-25L829,205.3c-1,.27-2,.56-3,.85l-.07,0h0c-1,.28-2,.55-2.92.84-1.18.36-2.35.74-3.52,1.12-1,.32-2,.62-2.95,1-1.17.4-2.33.83-3.5,1.25-1,.35-1.93.68-2.89,1-1.16.44-2.31.91-3.47,1.37-.95.38-1.9.74-2.84,1.13-1.15.48-2.29,1-3.43,1.48-.93.41-1.87.8-2.79,1.21-1.15.52-2.29,1.08-3.43,1.62-.9.43-1.8.84-2.69,1.28-1.17.58-2.33,1.19-3.49,1.79-.85.44-1.7.86-2.54,1.3-1.31.7-2.61,1.44-3.91,2.17s-2.51,1.43-3.75,2.16-2.7,1.59-4,2.41c-.88.55-1.74,1.12-2.61,1.68-1,.66-2.07,1.31-3.09,2s-1.8,1.24-2.71,1.86-1.93,1.31-2.88,2-1.79,1.32-2.69,2-1.86,1.36-2.78,2.05-1.75,1.38-2.63,2.07-1.81,1.42-2.71,2.14-1.71,1.44-2.56,2.15-1.77,1.48-2.64,2.24-1.66,1.48-2.48,2.23-1.73,1.55-2.59,2.34-1.48,1.42-2.22,2.13h0l-.18.17c-.72.69-1.44,1.38-2.15,2.08l9.32,9.3Z"/><path class="cls-5" d="M710.5,359.66l13.58,3.64h0l.23-.78c.32-1.12.64-2.25,1-3.37.28-.9.59-1.78.88-2.67s.53-1.64.81-2.46.69-1.89,1-2.83c.27-.75.53-1.5.82-2.24.36-.93.74-1.85,1.11-2.77.3-.75.59-1.5.9-2.24.38-.9.79-1.79,1.19-2.69s.65-1.5,1-2.25.83-1.73,1.24-2.59.72-1.52,1.09-2.28.86-1.66,1.29-2.48.79-1.54,1.2-2.31.9-1.61,1.36-2.42.85-1.53,1.29-2.29.95-1.57,1.42-2.36.91-1.52,1.38-2.27,1-1.54,1.5-2.31,1-1.49,1.45-2.23,1.05-1.52,1.58-2.28,1-1.45,1.51-2.17,1.11-1.5,1.67-2.24,1-1.41,1.57-2.11,1.17-1.47,1.75-2.21,1.07-1.37,1.63-2,1.23-1.46,1.85-2.18,1.1-1.31,1.67-2,1.3-1.44,2-2.16,1.12-1.26,1.7-1.87,1.37-1.43,2.06-2.14l1.15-1.19h0l-20.15-20.16,0,0c-.67.67-1.32,1.36-2,2l-.27.29h0c-.59.61-1.18,1.22-1.76,1.84-.79.84-1.55,1.71-2.33,2.56s-1.29,1.42-1.92,2.14c-.77.88-1.52,1.78-2.27,2.68-.6.72-1.22,1.43-1.81,2.15-.76.93-1.5,1.88-2.24,2.82-.56.71-1.13,1.41-1.68,2.13-.76,1-1.48,2-2.22,3-.51.69-1,1.38-1.54,2.08-.76,1.06-1.5,2.15-2.24,3.22-.45.65-.91,1.29-1.35,2-.81,1.22-1.6,2.45-2.38,3.68-.34.54-.7,1.06-1,1.6q-1.67,2.67-3.24,5.39l-.09.16q-1.53,2.64-3,5.32c-.35.65-.67,1.31-1,2-.63,1.2-1.26,2.4-1.87,3.61-.39.79-.76,1.58-1.14,2.38-.52,1.09-1.06,2.18-1.56,3.28-.39.85-.76,1.72-1.13,2.58-.46,1.05-.93,2.1-1.38,3.16-.38.9-.73,1.81-1.09,2.72s-.84,2.06-1.23,3.1-.68,1.88-1,2.81-.75,2-1.11,3.08-.63,1.92-.95,2.88-.68,2-1,3.08c-.25.81-.48,1.63-.72,2.45h0l-.15.5c-.25.86-.5,1.72-.74,2.58l12.69,3.41Z"/><path class="cls-5" d="M723.53,365.39,711,362c-.22.84-.43,1.68-.63,2.52l-.16.66v0c-.16.66-.33,1.32-.48,2-.24,1-.45,2-.67,3.07s-.39,1.76-.56,2.65-.38,2.06-.57,3.1c-.16.88-.33,1.76-.48,2.64-.17,1-.32,2.1-.47,3.15-.13.87-.27,1.74-.38,2.61-.14,1.07-.26,2.14-.38,3.22-.1.85-.21,1.71-.29,2.56-.11,1.12-.19,2.24-.29,3.37-.07.81-.15,1.61-.2,2.42-.08,1.24-.14,2.48-.2,3.72,0,.69-.08,1.38-.11,2.07q-.1,2.89-.12,5.78c0,.17,0,.33,0,.5,0,1.77,0,3.53.07,5.3,0,.65.06,1.3.08,2,0,1.28.09,2.55.17,3.83,0,.76.12,1.51.17,2.26.09,1.17.16,2.34.27,3.51.07.79.17,1.58.26,2.37.12,1.13.23,2.26.37,3.39.1.81.23,1.62.34,2.44.15,1.1.3,2.2.47,3.29.13.83.29,1.65.43,2.48.19,1.08.37,2.15.57,3.23.16.83.34,1.67.52,2.5.22,1.06.43,2.12.67,3.17.15.65.31,1.3.47,2h0l.14.57c.21.86.41,1.71.63,2.57l12.49-3.32A166.11,166.11,0,0,1,723.53,365.39Z"/><path class="cls-5" d="M1274.12,394.65c0-.12,0-.25,0-.37q-.1-3-.24-6c0-.41,0-.82-.07-1.23-.09-1.7-.18-3.4-.29-5.1,0-.57-.08-1.14-.12-1.71-.11-1.54-.21-3.07-.34-4.6-.06-.69-.12-1.37-.18-2.06-.12-1.42-.25-2.84-.38-4.25-.07-.76-.16-1.52-.24-2.29-.14-1.34-.28-2.68-.43-4-.09-.82-.2-1.64-.3-2.45-.15-1.28-.31-2.56-.47-3.84-.11-.87-.24-1.73-.36-2.6-.17-1.23-.33-2.45-.52-3.68-.13-.91-.28-1.81-.42-2.72-.18-1.18-.36-2.36-.56-3.54-.16-.95-.32-1.89-.49-2.83-.2-1.14-.39-2.28-.59-3.42-.18-1-.37-1.94-.55-2.91s-.42-2.22-.63-3.33-.41-2-.61-3-.44-2.16-.67-3.24-.45-2-.68-3-.47-2.12-.71-3.17-.49-2-.74-3.07-.5-2.08-.76-3.11-.46-1.8-.69-2.69h0l-.11-.42c-.22-.85-.44-1.71-.67-2.56l-55.91,15h0l-1,.28L1059.8,361.48a183.32,183.32,0,0,1,6.08,46q0,8.9-.8,17.77-.55,5.9-1.49,11.77-1.32,8.25-3.42,16.37l3.19.85,31.9,8.55L1234,500h0l27.23,7.29c.24-.89.47-1.78.7-2.68l.08-.29h0c.23-.89.46-1.78.69-2.67.27-1.08.53-2.17.79-3.25s.48-2,.71-2.94.5-2.2.74-3.3.44-1.93.65-2.9c.24-1.12.47-2.25.7-3.37.2-.95.4-1.9.59-2.85.23-1.15.44-2.3.66-3.46.18-.93.36-1.86.53-2.79.21-1.18.41-2.36.62-3.54.16-.91.32-1.81.47-2.72.2-1.22.38-2.44.57-3.66.13-.87.28-1.74.4-2.61.19-1.26.36-2.53.53-3.79.11-.83.24-1.66.35-2.49.17-1.31.33-2.63.49-3.94.09-.78.2-1.57.29-2.35.16-1.37.3-2.75.44-4.13.08-.73.16-1.45.23-2.18.14-1.45.27-2.91.39-4.36.06-.65.12-1.3.17-2,.13-1.57.24-3.14.35-4.71,0-.54.08-1.07.12-1.61.11-1.73.21-3.46.3-5.2,0-.38,0-.75.06-1.13q.15-3,.25-6.06c0-.09,0-.18,0-.27Q1274.54,407.38,1274.12,394.65Z"/><path class="cls-5" d="M1146.33,206.83c-.51-.67-1-1.33-1.55-2s-1.15-1.49-1.74-2.23-1.07-1.34-1.61-2-1.16-1.45-1.75-2.17-1.12-1.35-1.68-2-1.16-1.4-1.74-2.09l-1.75-2-1.75-2-1.81-2-1.75-2-1.87-2-1.77-1.92-1.92-2-1.78-1.87-1.26-1.29h0l-.72-.74-1.45-1.47-48.81,48.8-56.45,56.44a182,182,0,0,1,46.06,79.29h0l143.45-38.44c-.2-.76-.41-1.51-.62-2.26l-.2-.72h0c-.16-.55-.31-1.11-.47-1.66-.27-.94-.55-1.87-.83-2.81-.23-.78-.46-1.57-.7-2.35-.29-.94-.58-1.88-.88-2.81-.24-.77-.48-1.54-.73-2.31-.3-.94-.62-1.88-.93-2.81-.25-.76-.5-1.53-.76-2.29-.32-.94-.65-1.87-1-2.81-.26-.75-.52-1.51-.79-2.26-.34-.94-.69-1.88-1-2.82-.27-.74-.54-1.48-.82-2.22-.36-.95-.73-1.89-1.09-2.83-.28-.72-.56-1.45-.84-2.17-.38-1-.77-1.9-1.15-2.84-.29-.71-.57-1.42-.86-2.12-.4-1-.82-1.93-1.23-2.9-.29-.68-.57-1.36-.86-2-.43-1-.87-2-1.31-3-.29-.65-.57-1.29-.86-1.94-.46-1-.93-2-1.4-3-.29-.61-.56-1.23-.85-1.84-.5-1-1-2.09-1.51-3.13-.27-.56-.54-1.13-.82-1.69-.55-1.11-1.11-2.22-1.68-3.33l-.73-1.45c-.62-1.22-1.26-2.43-1.9-3.63l-.58-1.11q-1.18-2.2-2.39-4.39l-.17-.31q-2.61-4.7-5.37-9.31l-.39-.64q-1.19-2-2.4-3.93l-.81-1.28c-.68-1.08-1.36-2.17-2.05-3.24l-1-1.57c-.63-1-1.26-1.94-1.91-2.91l-1.18-1.74c-.61-.9-1.21-1.8-1.83-2.69l-1.3-1.86c-.59-.84-1.18-1.69-1.77-2.52-.46-.65-.93-1.28-1.4-1.92-.58-.8-1.16-1.61-1.75-2.41s-1-1.32-1.48-2S1146.92,207.59,1146.33,206.83Z"/><path class="cls-5" d="M852,523.7l23.47-87.53,5-18.69,1.74-6.48-82.46,82.46L779.7,513.55l-.07.07-.7.7h0l-.45.45h0l-.32.32L770.23,523h0l0,0-.77.77c.57.56,1.14,1.11,1.71,1.66s1.15,1.12,1.74,1.66,1.44,1.31,2.17,2,1.19,1.09,1.8,1.62,1.47,1.25,2.21,1.88,1.23,1.05,1.86,1.57,1.5,1.2,2.26,1.8,1.27,1,1.91,1.51,1.54,1.15,2.31,1.72,1.3,1,2,1.45,1.59,1.11,2.39,1.67,1.3.92,2,1.36c.84.56,1.7,1.11,2.55,1.66.63.41,1.26.83,1.89,1.23,1.11.7,2.24,1.37,3.37,2q1.29.77,2.6,1.51c1,.59,2.07,1.19,3.12,1.75.66.36,1.33.7,2,1,.89.47,1.78.94,2.67,1.39.71.35,1.43.69,2.14,1,.87.42,1.73.85,2.61,1.25s1.46.65,2.2,1,1.74.78,2.62,1.16,1.49.61,2.24.91,1.76.72,2.64,1.06,1.52.56,2.27.84,1.78.66,2.67,1,1.53.51,2.29.77,1.8.61,2.71.89,1.54.46,2.31.69l2.2.64.39-1.46.15-.56v0l.23-.85L852,523.7Z"/><polygon class="cls-5" points="735.38 258.38 735.37 258.37 735.37 258.37 735.37 258.39 735.38 258.39 735.38 258.38"/><path class="cls-5" d="M1058.28,452q.22-.88.43-1.76c.2-.84.41-1.67.6-2.51.24-1,.45-2.1.67-3.15.17-.84.36-1.69.52-2.53.2-1.05.38-2.11.56-3.17.15-.85.31-1.7.44-2.55.17-1.06.31-2.13.46-3.2.12-.85.25-1.7.36-2.55.14-1.08.24-2.17.36-3.25.09-.84.19-1.67.27-2.51.1-1.11.18-2.23.26-3.34.06-.81.13-1.62.18-2.44.07-1.19.11-2.38.16-3.56,0-.74.08-1.48.1-2.22,0-1.56.05-3.12.06-4.68,0-.57,0-1.13,0-1.7,0-1.73,0-3.46-.1-5.19,0-.74-.08-1.48-.12-2.23-.06-1.19-.11-2.38-.19-3.56-.06-.84-.14-1.68-.21-2.52-.09-1.09-.17-2.17-.28-3.26-.09-.88-.2-1.75-.3-2.62-.12-1-.23-2.1-.37-3.15-.12-.89-.26-1.78-.39-2.67s-.3-2.05-.47-3.08-.32-1.8-.49-2.7-.36-2-.56-3-.38-1.81-.58-2.71-.42-2-.65-3-.45-1.81-.67-2.72-.4-1.62-.61-2.43h0l-12.61,3.38h0a166.7,166.7,0,0,1,5,56.64,163.85,163.85,0,0,1-4.63,27.39l12.57,3.37C1058.15,452.55,1058.21,452.29,1058.28,452Z"/><path class="cls-5" d="M935.75,219.88l-7.32,27.3a168.42,168.42,0,0,1,72.34,42.23L1021,269.23c-.65-.65-1.32-1.28-2-1.92l-.37-.35h0c-.62-.59-1.22-1.18-1.85-1.76-.81-.75-1.63-1.48-2.45-2.21s-1.49-1.36-2.25-2-1.68-1.43-2.52-2.14-1.52-1.3-2.3-1.94-1.74-1.38-2.61-2.07-1.55-1.24-2.34-1.84-1.79-1.33-2.69-2-1.57-1.18-2.37-1.75-1.86-1.29-2.79-1.94-1.58-1.11-2.38-1.64c-1-.66-2-1.29-3-1.92-.77-.49-1.53-1-2.3-1.48-1.25-.78-2.51-1.52-3.78-2.27q-1.67-1-3.36-1.94c-1.22-.69-2.45-1.39-3.69-2.06-.81-.44-1.64-.85-2.46-1.27-1-.54-2.07-1.09-3.11-1.61-.86-.43-1.73-.83-2.6-1.24-1-.49-2-1-3.06-1.46s-1.78-.78-2.67-1.17-2-.91-3.08-1.34-1.81-.73-2.72-1.09-2.06-.84-3.11-1.23-1.84-.67-2.76-1-2.09-.77-3.14-1.13-1.87-.61-2.8-.92-2.11-.7-3.17-1c-.8-.25-1.62-.47-2.42-.71h0l-.41-.12C937.54,220.39,936.65,220.13,935.75,219.88Z"/><path class="cls-5" d="M823.38,175.76l10,37.46.29,1.09,1.47,5.5,7.07,26.4h0a165.53,165.53,0,0,1,84.06.39h0v0h0l7.6-28.33.1-.39,3.1-11.59,2.12-7.93v0l.13-.49,0-.15,0-.12.09-.33,5.73-21.44h0l-1.55-.4-1.47-.37h0l-.2,0-2.1-.51-1.7-.4-2.07-.47-1.74-.38-2-.42-1.78-.36-2-.38-1.83-.34-2-.34L923,171l-1.94-.3-1.91-.29-1.9-.27-1.95-.27-1.86-.23-2-.24-1.83-.19-2-.21-1.78-.16-2.09-.19-1.71-.13-2.16-.16-1.67-.1-2.2-.12-1.61-.07-2.26-.09-1.4,0-2.48-.06h-.29q-3.6-.05-7.19,0h-.21l-2.43.06-1.45,0-2.16.09-1.71.07-2,.11-1.84.1-2,.14-1.9.14-1.95.17-1.92.17-1.92.2-2,.21-1.87.23-2,.24-1.84.25-2,.28-1.82.28-2,.31-1.81.31-2,.35-1.8.33-2,.38-1.79.36-2,.42-1.81.4-2,.45-1.8.43-2,.48-.23.06h0l-1.58.4Z"/><path class="cls-5" d="M846.83,551.61l.8.2a150.5,150.5,0,0,0,74.22-.24h0l1-.25h0l1-.28h0a148.93,148.93,0,0,0,64.38-36.87l.59-.58L964,488.62,886.43,411h0l.06.23,1,3.66L919,532.69h0l-1,.27h0l-1,.27h0L884.33,411.56,854,524.85Z"/><path class="cls-5" d="M882.24,403.75h0l-.37-1.39-.07-.26L849.14,280.28l-8.32-31h0l-2.07.61c-.81.24-1.63.48-2.43.73s-1.74.57-2.61.86-1.59.52-2.39.8-1.74.63-2.61,1-1.56.57-2.33.87-1.74.7-2.6,1-1.52.61-2.27.93-1.74.76-2.6,1.15-1.48.64-2.21,1-1.75.83-2.62,1.25c-.71.34-1.42.67-2.13,1-.89.44-1.76.91-2.64,1.37-.68.35-1.36.7-2,1.06-.91.49-1.8,1-2.7,1.51-.63.36-1.27.7-1.89,1.07-1,.56-1.91,1.15-2.87,1.73-.55.33-1.1.65-1.64,1-1.19.74-2.36,1.51-3.53,2.29l-.89.58q-2.19,1.47-4.33,3c-.47.34-.93.69-1.39,1-1,.7-1.91,1.4-2.85,2.12-.56.43-1.11.88-1.66,1.31-.83.65-1.67,1.3-2.48,2-.59.48-1.16,1-1.74,1.47-.77.65-1.54,1.29-2.3,1.95-.6.52-1.18,1.06-1.76,1.58s-1.46,1.3-2.18,2-1.16,1.11-1.74,1.66-1.24,1.18-1.86,1.79h0l29.93,29.93,82,82Z"/><path class="cls-5" d="M738,445.48h0l.1,0-.1-.37,82.62-22.15,58.79-15.76-44.18-11.84-1.67-.45-9.51-2.55L807.85,388l-41-11-7.65-2.05-33.57-9h0c-.19.71-.37,1.43-.55,2.15s-.43,1.7-.63,2.55-.4,1.78-.59,2.67-.38,1.7-.55,2.55-.34,1.8-.5,2.7-.32,1.7-.46,2.55-.28,1.83-.42,2.74-.26,1.68-.38,2.52-.23,1.87-.34,2.81-.2,1.65-.29,2.47-.17,1.95-.25,2.92c-.07.79-.15,1.58-.2,2.37-.07,1.06-.12,2.11-.17,3.17,0,.71-.09,1.42-.11,2.13-.06,1.61-.09,3.22-.1,4.83,0,.48,0,1,0,1.45,0,1.43,0,2.86,0,4.29,0,.67.06,1.33.09,2,0,1.1.08,2.2.15,3.3,0,.73.11,1.47.17,2.2.08,1,.14,2.06.24,3.08.07.76.16,1.52.25,2.29.11,1,.2,2,.33,3,.1.78.22,1.56.33,2.34.14,1,.27,1.94.42,2.91.13.79.27,1.57.41,2.36.17,1,.33,1.91.51,2.86.15.79.33,1.58.49,2.37.2.94.39,1.88.6,2.82s.38,1.58.57,2.37.36,1.48.55,2.22h0l10.43-2.8Z"/><path class="cls-5" d="M1056.42,357.43c-.25-.84-.48-1.68-.74-2.51-.31-1-.65-2-1-3-.27-.83-.53-1.65-.82-2.48-.35-1-.72-2-1.08-3-.3-.81-.58-1.63-.89-2.44-.38-1-.78-2-1.18-3-.32-.8-.64-1.61-1-2.41-.42-1-.86-2-1.29-2.95-.35-.78-.68-1.57-1-2.35-.46-1-.94-2-1.42-3-.36-.75-.71-1.5-1.08-2.25-.51-1-1.05-2-1.59-3.07-.36-.69-.7-1.38-1.07-2.07-.7-1.3-1.43-2.59-2.17-3.87-.39-.68-.78-1.36-1.17-2-.8-1.37-1.61-2.73-2.45-4.07-.41-.65-.84-1.29-1.25-1.94-.63-1-1.25-2-1.89-2.92-.47-.7-1-1.38-1.44-2.07-.62-.9-1.23-1.8-1.87-2.68-.51-.71-1-1.4-1.55-2.1-.63-.85-1.26-1.72-1.91-2.56s-1.1-1.39-1.65-2.09-1.29-1.65-2-2.46-1.15-1.37-1.73-2.05-1.34-1.6-2-2.38-1.2-1.34-1.8-2-1.39-1.55-2.1-2.32-1.25-1.31-1.88-2l-1.2-1.23-.58-.6h0l-9.31,9.31h0l-.77.77L889.25,404l-1.3,1.3h0l147-39.4,9.63-2.58v0l12.59-3.37C1056.91,359.1,1056.67,358.27,1056.42,357.43Z"/><path class="cls-5" d="M767.91,292.47h0c-.56.57-1.11,1.14-1.66,1.72s-1.1,1.14-1.64,1.71-1.34,1.47-2,2.21c-.52.58-1.05,1.16-1.57,1.75-.66.75-1.3,1.52-1.94,2.28-.5.59-1,1.17-1.49,1.77-.64.78-1.26,1.58-1.89,2.37-.47.6-1,1.18-1.41,1.79-.63.82-1.24,1.65-1.85,2.49-.44.59-.88,1.17-1.31,1.77-.63.88-1.24,1.77-1.86,2.67-.39.56-.79,1.11-1.17,1.68-.67,1-1.31,2-2,3-.31.48-.63,1-.93,1.43q-1.4,2.24-2.74,4.52l-.23.4q-1.21,2.09-2.36,4.2c-.3.55-.58,1.12-.88,1.67-.53,1-1.06,2-1.57,3-.33.66-.64,1.32-1,2-.45.92-.9,1.84-1.33,2.77-.33.71-.63,1.42-.95,2.13-.4.9-.81,1.79-1.19,2.69-.31.74-.61,1.48-.91,2.23s-.73,1.77-1.08,2.66-.57,1.53-.85,2.3-.66,1.77-1,2.65-.53,1.57-.79,2.36-.59,1.76-.87,2.65-.48,1.61-.72,2.41-.42,1.42-.63,2.13L768,375.06,812.34,387l43.53,11.67,24.83,6.66-6.46-6.46-76-76Z"/><path class="cls-5" d="M1057.18,454.85h0v0L1045,451.54h0l-.1,0h0v0h0a165.45,165.45,0,0,1-42.16,72.67h0l.19.19h0l8.75,8.72h0c.64-.65,1.26-1.3,1.89-2l.39-.41h0c.45-.47.91-.94,1.35-1.42.75-.81,1.48-1.63,2.22-2.45.56-.62,1.13-1.24,1.68-1.87.73-.83,1.43-1.68,2.14-2.52.54-.64,1.09-1.27,1.62-1.92.7-.86,1.39-1.74,2.07-2.61.51-.65,1-1.28,1.53-1.94.69-.9,1.36-1.81,2-2.73.47-.64,1-1.28,1.43-1.93.68-1,1.34-1.92,2-2.88.43-.63.88-1.24,1.3-1.88.7-1,1.38-2.12,2.06-3.18.36-.56.73-1.11,1.09-1.68q1.45-2.31,2.82-4.67l.52-.91c.84-1.46,1.67-2.92,2.47-4.4.35-.64.67-1.29,1-1.94.56-1.06,1.12-2.12,1.65-3.19.37-.74.71-1.49,1.07-2.23.48-1,1-2,1.43-3,.36-.79.7-1.59,1.05-2.38.43-1,.87-1.93,1.28-2.91.35-.82.67-1.65,1-2.48s.79-1.92,1.16-2.89.62-1.69.94-2.54.72-1.93,1.06-2.9.58-1.73.86-2.59.65-1.94,1-2.92c.2-.64.38-1.28.58-1.92v0l.22-.73C1056.72,456.43,1057,455.64,1057.18,454.85Z"/><path class="cls-5" d="M1043,365.95l-7.53,2-145.36,39-.87.23h0l154.27,41.33c.15-.6.3-1.2.44-1.8l.23-.94v0c.12-.52.25-1,.37-1.55.21-.91.39-1.83.58-2.74s.35-1.62.5-2.44.34-1.87.5-2.81.29-1.6.42-2.4c.15-1,.28-1.93.42-2.89.11-.78.23-1.56.33-2.34.13-1,.23-2,.33-3,.08-.75.17-1.5.24-2.25.1-1.06.17-2.12.25-3.18.05-.7.12-1.4.16-2.1s.07-1.68.11-2.52c0-.36,0-.72,0-1.08,0-.56.06-1.12.07-1.69q.15-5.3-.05-10.61c0-.52-.06-1-.08-1.55-.06-1.25-.12-2.5-.2-3.75,0-.67-.11-1.33-.17-2-.09-1.1-.17-2.2-.29-3.29-.07-.73-.17-1.45-.25-2.17-.12-1-.23-2.07-.37-3.1-.1-.76-.23-1.53-.34-2.29-.15-1-.29-2-.46-3-.13-.79-.29-1.57-.43-2.35-.18-1-.35-1.93-.54-2.89-.16-.8-.34-1.6-.52-2.4s-.4-1.88-.62-2.82c-.12-.51-.25-1-.38-1.54v0l-.23-.92c-.19-.74-.37-1.47-.56-2.21h0Z"/><path class="cls-5" d="M891.1,386.31,889,394l-1.52,5.65v0l-1.09,4.05h0l10.08-10.08L999.24,290.94h0l-.62-.6-1-1c-.61-.59-1.22-1.18-1.84-1.75s-1.4-1.27-2.1-1.9-1.23-1.12-1.86-1.67-1.45-1.24-2.18-1.85-1.25-1.07-1.88-1.58-1.52-1.21-2.28-1.81-1.25-1-1.88-1.49c-.79-.61-1.6-1.2-2.4-1.79-.62-.46-1.23-.93-1.86-1.38-.85-.61-1.72-1.2-2.58-1.8-.59-.41-1.17-.83-1.77-1.23-1-.66-2-1.29-3-1.93-.49-.32-1-.64-1.47-1q-2.24-1.4-4.52-2.74l-.35-.2q-2.11-1.22-4.25-2.39c-.51-.28-1-.54-1.56-.81-1-.55-2.07-1.1-3.12-1.62-.61-.31-1.24-.6-1.85-.9-1-.47-1.92-.94-2.9-1.39-.66-.31-1.33-.59-2-.89-.94-.42-1.88-.84-2.82-1.25-.69-.29-1.39-.57-2.09-.85-.93-.38-1.86-.77-2.8-1.13-.71-.27-1.43-.53-2.15-.8-.93-.34-1.86-.69-2.8-1-.73-.25-1.46-.49-2.2-.74-.93-.31-1.86-.63-2.8-.92-.74-.23-1.49-.45-2.24-.67l-2.25-.66h0l-5.44,20.3h0l-18.8,70.12Z"/><path class="cls-5" d="M914.73,289.85,920.32,269h0l5.44-20.31h0l-2.16-.55c-.83-.21-1.66-.43-2.5-.62s-1.75-.39-2.62-.58-1.73-.39-2.6-.56-1.69-.32-2.54-.48-1.8-.34-2.7-.49-1.64-.25-2.46-.38-1.86-.29-2.8-.42-1.57-.19-2.36-.28c-1-.12-1.94-.24-2.91-.34-.73-.07-1.47-.13-2.21-.19-1-.09-2.05-.19-3.08-.26l-1.9-.1c-1.13-.07-2.26-.14-3.39-.18h-.31q-4.62-.16-9.24-.05H879c-1.07,0-2.14.09-3.21.14-.7,0-1.39.05-2.09.09-1,.06-2,.15-2.94.22-.78.06-1.57.11-2.35.18-.93.09-1.86.2-2.8.3s-1.65.17-2.48.27-1.8.25-2.69.38-1.71.23-2.56.37-1.75.3-2.62.45-1.75.3-2.62.47-1.7.35-2.55.53-1.77.36-2.66.57-1.66.4-2.49.6l-1.35.33-.81.2,41.51,154.89Z"/><path class="cls-5" d="M1003,520.74l.58-.6v0l.56-.58.53-.57c.68-.73,1.35-1.48,2-2.22.53-.59,1.06-1.17,1.58-1.76.67-.76,1.31-1.54,2-2.32.5-.59,1-1.17,1.49-1.77.65-.8,1.29-1.61,1.93-2.43.46-.59.93-1.17,1.39-1.76.65-.85,1.27-1.71,1.9-2.56.42-.58.86-1.14,1.27-1.72.66-.92,1.29-1.86,1.93-2.79.36-.53.74-1.05,1.09-1.59.72-1.08,1.42-2.18,2.11-3.27.25-.4.52-.79.77-1.19q2.81-4.52,5.32-9.21c.22-.42.43-.84.65-1.26.6-1.15,1.2-2.29,1.77-3.45.28-.56.54-1.14.81-1.71.49-1,1-2,1.45-3.08.29-.64.56-1.28.84-1.92.43-1,.86-1.95,1.27-2.93.28-.68.54-1.36.81-2,.38-1,.77-1.91,1.13-2.88.27-.71.51-1.42.77-2.13.34-.95.69-1.9,1-2.85.25-.73.48-1.47.71-2.2.31-.94.62-1.89.9-2.84l.22-.74c.08-.26.14-.51.22-.77v0l.22-.76q.27-.95.54-1.9h0v0h0l.1-.36L888,409.08l.54.54h0l112.86,112.86C1001.92,521.9,1002.47,521.32,1003,520.74Z"/><path class="cls-5" d="M797.6,492.2l82.58-82.58h0l.54-.54L804,429.64l-49.38,13.24.1.36h0c.28,1,.56,2,.87,3.06a134.18,134.18,0,0,0,30.6,53.12c.67.71,1.35,1.41,2,2.11Z"/><path class="cls-5" d="M776.82,510.61l1.17,1.2.19.2h0l.19-.19,8.53-8.52h0l-.19-.2h0c-.35-.36-.7-.73-1-1.1s-1-1-1.44-1.51-1.07-1.17-1.59-1.76-.91-1-1.36-1.52-1-1.23-1.57-1.85-.86-1-1.28-1.53-1-1.29-1.54-1.94-.8-1-1.19-1.52c-.52-.68-1-1.37-1.52-2.06-.36-.5-.74-1-1.09-1.49-.52-.74-1-1.48-1.54-2.23-.32-.47-.65-.93-1-1.4-.56-.84-1.09-1.69-1.63-2.54-.25-.39-.5-.77-.75-1.17q-1.16-1.87-2.26-3.78h0c-.52-.9-1-1.8-1.5-2.71-.21-.38-.42-.75-.63-1.13s-.44-.86-.66-1.29c-.45-.87-.91-1.74-1.34-2.62-.26-.53-.5-1.07-.76-1.6-.38-.79-.76-1.58-1.12-2.37-.26-.58-.51-1.16-.76-1.74-.33-.76-.67-1.53-1-2.3-.25-.6-.48-1.21-.72-1.82-.3-.76-.61-1.51-.89-2.27s-.45-1.25-.68-1.87-.55-1.51-.81-2.27-.42-1.27-.62-1.91-.5-1.52-.73-2.29-.38-1.29-.56-1.93-.35-1.17-.51-1.76h0L740.78,447h0l-.09,0h0c.17.63.35,1.25.53,1.88l.12.41.23.8h0l0,0,.3,1v0c.25.81.51,1.61.77,2.41l0,.1c.22.68.44,1.37.67,2.05v0c.28.81.57,1.61.86,2.42l0,.1c.24.66.47,1.33.72,2v0c.25.65.51,1.3.77,1.94l.19.49,0,.12c.25.63.5,1.27.76,1.9h0c.35.84.72,1.67,1.08,2.5l0,.09c.26.6.52,1.21.79,1.8h0c.39.85.8,1.7,1.2,2.54l.07.14c.25.53.5,1.06.75,1.58l0,.06c.29.6.6,1.18.91,1.77l.51,1,.1.2c.23.43.44.87.67,1.3h0q1.07,2,2.21,4l.23.4q1.15,2,2.36,3.94h0c.22.36.46.72.69,1.08l.12.19c.59.93,1.17,1.85,1.78,2.77.35.52.71,1,1.06,1.54l.07.11c.53.77,1,1.54,1.59,2.3h0c.39.55.8,1.09,1.2,1.63l0,.05c.53.73,1.07,1.46,1.61,2.18h0c.43.56.87,1.11,1.31,1.66l0,.05.73.92c.29.37.59.75.89,1.12h0c.46.56.93,1.11,1.4,1.66l.06.07c.54.65,1.08,1.3,1.64,1.93v0c.48.55,1,1.09,1.47,1.64l.06.06c.56.63,1.12,1.25,1.69,1.87h0l.74.78,0,0h0l.57.6Z"/><path class="cls-5" d="M776.63,513.55h0c-.48-.49-1-1-1.43-1.49s-1.06-1.1-1.58-1.65-1.18-1.3-1.77-1.95-1-1.12-1.52-1.69-1.14-1.34-1.7-2-1-1.15-1.45-1.73-1.1-1.39-1.65-2.08-.93-1.16-1.38-1.75-1.08-1.45-1.61-2.17-.87-1.16-1.29-1.75c-.55-.77-1.07-1.54-1.6-2.32-.39-.56-.79-1.12-1.17-1.69-.57-.86-1.12-1.73-1.68-2.6-.32-.5-.65-1-1-1.5q-1.19-1.92-2.32-3.87l-.41-.72q-1.09-1.91-2.13-3.84c-.27-.5-.52-1-.78-1.51-.49-.94-1-1.87-1.45-2.82-.29-.59-.56-1.18-.84-1.77-.42-.88-.84-1.75-1.24-2.63-.29-.63-.55-1.27-.83-1.9-.38-.86-.76-1.71-1.12-2.58-.27-.65-.52-1.31-.79-2-.34-.85-.69-1.71-1-2.57l-.21-.54c-.18-.49-.35-1-.53-1.48-.31-.86-.62-1.71-.92-2.58-.23-.68-.45-1.37-.67-2.06-.28-.86-.56-1.72-.83-2.59-.21-.7-.41-1.4-.61-2.1s-.41-1.35-.59-2h0l-7.5,2-4.8,1.29h0c.17.61.35,1.22.53,1.82l.09.32.11.37.18.6v0h0c.14.47.28,1,.43,1.42l0,.07c.19.62.4,1.23.6,1.84l.1.29.15.45.16.47v0l0,.08c.19.59.39,1.18.59,1.77l0,.09c.23.65.48,1.3.71,2l.21.58.23.61c.2.54.39,1.07.6,1.61l0,.1,0,.09h0c.11.28.23.56.34.84l.38.95.29.71.31.76c.19.48.38,1,.58,1.43l0,.09,0,.08c.24.56.48,1.11.73,1.66l.37.84.4.9c.17.38.34.77.51,1.15l0,.09,0,.1,0,.09.12.25.54,1.13.54,1.14.58,1.2,0,.08.36.74,0,.06,0,.09,0,.08.17.32.27.51c.3.59.61,1.17.92,1.76s.61,1.18.92,1.76l.05.1,0,0v0h0l0,.07c.59,1.08,1.2,2.15,1.81,3.22l.09.15q.6,1,1.21,2.09l.07.11c.7,1.18,1.4,2.35,2.13,3.52l0,0,.35.54.81,1.24.63,1,.29.45c.25.39.5.78.76,1.17l0,0,0,0c.27.4.55.8.83,1.2l.07.1.41.6.28.41.28.41c.37.53.73,1.07,1.11,1.59h0l0,0,.68.92.74,1,.13.18c.52.71,1,1.42,1.58,2.12h0c.5.65,1,1.29,1.53,1.94l0,.06.35.44,1.18,1.48.19.23h0l.08.09.22.26,1.3,1.55h0l0,0,0,.05.5.59.94,1.11.07.09.25.29h0l.13.15.07.08,0,0h0l1.05,1.17.16.18.19.22h0l.82.91.05.06,0,0,.83.92.15.16,1,1.08h0l.24.25,0,0,.46.48h0l0,0,0,0,.07.08.23.24h0l1.24,1.28h0l.43-.43,8.31-8.31Z"/><path class="cls-5" d="M930.18,565.29l.84-.24,1.36-.4.13,0h0c.87-.27,1.74-.55,2.61-.83l.11,0,.48-.16.27-.09.19-.06.15,0,.44-.14.79-.26h0c.88-.3,1.75-.62,2.62-.93l.09,0c.65-.23,1.31-.45,2-.7l.3-.12h0c.89-.33,1.76-.69,2.64-1h.1l.63-.25,1.29-.51.24-.1h0c.84-.35,1.67-.72,2.51-1.09l.13-.06.08,0c.65-.28,1.3-.55,1.95-.84l.17-.08h0l.53-.25,2.07-1,.16-.08c.67-.32,1.34-.63,2-1h0c.85-.42,1.7-.87,2.54-1.31l.42-.21.39-.2.89-.46.47-.24h0l.81-.45,1-.58c.67-.37,1.35-.74,2-1.12l.08,0h0l.73-.42.35-.2c1.38-.8,2.75-1.62,4.1-2.46.56-.35,1.12-.72,1.68-1.08l2.4-1.55.28-.18.11-.07.11-.07h0l1.75-1.21,2.15-1.49.12-.08.07,0h0l.16-.11.15-.11.1-.07,1.67-1.23c.79-.58,1.58-1.15,2.36-1.75s1.28-1,1.93-1.52,1.51-1.18,2.26-1.79,1.27-1.07,1.9-1.6,1.46-1.22,2.18-1.85,1.26-1.13,1.88-1.69,1.4-1.25,2.09-1.9l1.21-1.15.64-.62,1-1,.58-.57h0l0,0-9.3-9.3h0c-.47.47-1,.92-1.44,1.38s-1.12,1.08-1.69,1.61-1.29,1.17-1.93,1.75-1.12,1-1.69,1.51-1.37,1.16-2.06,1.74-1.1.94-1.67,1.4c-.72.59-1.46,1.16-2.2,1.74-.54.43-1.08.86-1.63,1.28-.78.6-1.58,1.18-2.38,1.76-.51.38-1,.76-1.54,1.13-.88.63-1.77,1.23-2.66,1.84l-1.34.92-.07.05h0c-1,.69-2.09,1.36-3.15,2l-.86.55q-4.16,2.58-8.48,4.89l-.88.45c-1.15.6-2.29,1.2-3.46,1.77l-1.43.68c-1,.48-2,1-3,1.41l-1.68.73c-.93.41-1.85.82-2.79,1.21-.61.25-1.23.49-1.85.74-.9.36-1.79.72-2.69,1.06-.65.25-1.31.48-2,.71-.87.32-1.74.64-2.62.94-.69.23-1.38.45-2.07.68-.86.28-1.72.56-2.58.83l-2.14.63-2,.58h0l.07.25L928,565.91h0l2.07-.58Z"/><path class="cls-5" d="M925.79,566.09l-.21-.79-.63-2.36-.17-.62-2.32-8.66h0l-1.91.48c-.76.19-1.53.38-2.29.55s-1.66.36-2.49.53-1.53.33-2.3.48-1.68.31-2.53.46-1.42.26-2.14.38l-.15,0c-.86.14-1.73.26-2.59.38s-1.49.22-2.24.32-1.78.21-2.67.3c-.73.08-1.45.17-2.18.24-.94.09-1.88.16-2.82.23-.68.05-1.36.12-2,.16-1.09.07-2.18.11-3.28.16l-1.6.08q-2.43.08-4.86.08h0l-1.71,0c-1,0-2.07,0-3.11-.05-.7,0-1.39-.07-2.09-.1-.92,0-1.85-.08-2.77-.13l-.44,0L872.4,558c-.89-.07-1.78-.13-2.67-.22s-1.49-.16-2.24-.25-1.74-.18-2.61-.3-1.5-.21-2.26-.32-1.72-.24-2.58-.38-1.49-.26-2.23-.39-1.73-.3-2.59-.46l-2.19-.46c-.87-.18-1.74-.36-2.6-.56l-2.14-.52c-.68-.17-1.36-.32-2-.49h0l-1,3.65-1.93,7.19,0,.13-.15.55-.22.83h0l.8.2,1.38.35,1.06.27,1.19.3.21,0,.15,0c.88.21,1.76.39,2.63.58l.75.17,1.56.34.12,0c1,.19,1.92.36,2.87.54l.39.07,1.81.33.13,0h0l1.64.25,1.27.2H861l.13,0,2.1.32h.18l2.3.28.68.08.87.1,1.19.14h.19l1.65.14,1.61.14,1.94.16h.36c1.16.08,2.33.14,3.49.19l1.44.08q2,.07,3.92.09h0q1.94,0,3.88,0h.24c.85,0,1.7,0,2.54,0l1.63-.07c1.22,0,2.44-.09,3.67-.16.67,0,1.35-.1,2-.15l2.61-.2h.26l.21,0h.18l.18,0,.31,0,1.72-.19,1.78-.2,1.11-.12.17,0,.16,0,1-.14,1.17-.16,1.16-.17,1.65-.24.14,0,.12,0,1.58-.27.67-.12.76-.13,1.21-.21.78-.14.12,0,1.12-.23.87-.18h.05l.35-.07.49-.1.4-.09,1.84-.39.08,0h.05l1.08-.26,1.26-.3.25-.06.28-.07,1.66-.41h0Z"/><path class="cls-2" d="M1263.09,305.85l-.28-1-58,15.58A332.17,332.17,0,0,0,1120,173.33l31.94-32-.77-.76A377.16,377.16,0,0,0,982.07,43l-1.16,0L953.78,144.15A273,273,0,0,0,814,144.8l-1,.28.28,1h0l15.3,57.08a211.26,211.26,0,0,0-93.89,54.4l-.32.35v.9l10.4,10.4a196.89,196.89,0,0,0-50.28,87.2l-.28,1,1,.28.3.08,13.44,3.61a182.51,182.51,0,0,0-.11,93l.28,1,1-.28h0l14-3.73a167.73,167.73,0,0,0,35.49,65.14c1.29,1.46,2.61,2.9,4,4.32q1.37,1.46,2.78,2.89h0l.77.76.76.77h0a168.38,168.38,0,0,0,72.36,42.23h0l-.13.46,1.05.28a164.78,164.78,0,0,0,42.21,5.48l1.8,0h0q3,0,5.93-.12h.12l1.33-.06,1.7-.08h.05l3-.19h.21l.65-.06h.16c2.32-.18,4.63-.43,6.94-.71l.19,0c.68-.08,1.36-.15,2-.25h0l1-.15,2-.29h0l.86-.14.51-.08q1.91-.31,3.82-.67l.81-.15c1.9-.37,3.79-.75,5.67-1.19,1.34-.31,2.66-.65,4-1l.16,0,7.5,28h0l.28,1,1-.28a197.52,197.52,0,0,0,87.21-50.26l116.33,116.33,1.85,1.81V663l1.7-1.73c.78-.79,1.57-1.58,2.34-2.39l1.71-1.8c.8-.84,1.6-1.67,2.39-2.51l1.61-1.75c.81-.87,1.62-1.75,2.42-2.63l1.51-1.7c.81-.91,1.63-1.82,2.44-2.74l1.41-1.63c.82-1,1.65-1.91,2.47-2.87l1.3-1.56c.83-1,1.67-2,2.49-3l1.19-1.48c.84-1,1.69-2.09,2.52-3.14l1.09-1.4c.85-1.09,1.7-2.17,2.54-3.27l1-1.34c.85-1.13,1.71-2.26,2.55-3.39l.9-1.24c.86-1.18,1.73-2.36,2.57-3.54l.82-1.16c.86-1.22,1.73-2.44,2.58-3.67l.75-1.1c.86-1.26,1.72-2.52,2.57-3.79l.66-1c.86-1.3,1.72-2.61,2.57-3.92l.63-1c.85-1.33,1.69-2.66,2.52-4l.54-.88q1.28-2.07,2.53-4.16l.47-.79q1.27-2.14,2.51-4.29l.43-.77q1.25-2.18,2.46-4.37l.36-.67q1.24-2.25,2.45-4.51l.38-.72q1.19-2.25,2.35-4.51l.32-.63q1.17-2.31,2.32-4.63l.32-.66q1.13-2.32,2.24-4.66l.3-.66q1.1-2.34,2.16-4.7l.32-.73q1-2.33,2.06-4.66l.31-.73q1-2.34,2-4.7l.35-.87c.63-1.53,1.25-3.06,1.85-4.6l.33-.85c.6-1.55,1.2-3.1,1.78-4.66l.39-1.06c.55-1.49,1.1-3,1.63-4.49.15-.42.29-.85.44-1.28.5-1.43,1-2.87,1.49-4.31l.29-.89c.52-1.57,1-3.15,1.55-4.73.11-.36.22-.72.34-1.09.48-1.52,1-3,1.41-4.56.21-.71.41-1.42.62-2.12.35-1.19.7-2.37,1-3.56.44-1.55.86-3.11,1.27-4.66l28.29,7.57h0l1,.28.28-1A391.2,391.2,0,0,0,1263.09,305.85ZM1262,504.63c-.23.89-.46,1.79-.7,2.68L1234,500h0l-138.78-37.21-31.9-8.55-3.19-.85q2.09-8.11,3.42-16.37.94-5.86,1.49-11.77.83-8.86.8-17.77a183.32,183.32,0,0,0-6.08-46l144.51-38.72,1-.28h0l55.91-15c.23.85.44,1.7.67,2.56l.11.42h0c.23.9.47,1.79.69,2.69s.5,2.08.76,3.11.5,2,.74,3.07.48,2.12.71,3.17.46,2,.68,3,.45,2.16.67,3.24.42,2,.61,3,.42,2.22.63,3.33.37,1.94.55,2.91c.21,1.14.4,2.28.59,3.42.16.94.33,1.89.49,2.83.19,1.18.37,2.36.56,3.54.14.91.29,1.81.42,2.72.18,1.23.35,2.45.52,3.68.12.87.25,1.73.36,2.6.17,1.28.32,2.56.47,3.84.1.82.21,1.64.3,2.45.15,1.34.29,2.68.43,4,.08.76.17,1.52.24,2.29.14,1.42.26,2.83.38,4.25.06.69.13,1.37.18,2.06.13,1.53.23,3.07.34,4.6,0,.57.09,1.14.13,1.71.11,1.7.2,3.4.29,5.1,0,.41,0,.82.07,1.23q.15,3,.24,6c0,.12,0,.25,0,.37q.42,12.72,0,25.46c0,.09,0,.18,0,.27q-.1,3-.25,6.06c0,.38,0,.75-.06,1.13-.09,1.73-.18,3.46-.3,5.2,0,.54-.08,1.07-.12,1.61-.11,1.57-.22,3.14-.35,4.71-.05.65-.12,1.3-.17,2-.13,1.45-.25,2.91-.39,4.36-.07.73-.15,1.45-.23,2.18-.14,1.38-.28,2.75-.44,4.13-.09.78-.19,1.57-.29,2.35-.16,1.31-.31,2.63-.49,3.94-.11.83-.23,1.66-.35,2.49-.17,1.26-.34,2.53-.53,3.79-.13.87-.27,1.74-.4,2.61-.19,1.22-.37,2.44-.57,3.66-.15.91-.31,1.81-.47,2.72-.2,1.18-.4,2.36-.62,3.54-.17.93-.35,1.86-.53,2.79-.22,1.15-.43,2.31-.66,3.46-.19,1-.39,1.9-.59,2.85-.23,1.13-.46,2.25-.7,3.37-.21,1-.43,1.94-.65,2.9s-.49,2.2-.74,3.3-.47,2-.71,2.94-.52,2.17-.79,3.25c-.22.89-.46,1.78-.69,2.67h0ZM982.51,45.32,985,46l.48.13h0l2.38.67,3,.89,2.81.83,3,1,2.77.87,3,1,2.74.91,3,1.06,2.7.95,3.05,1.12,2.66,1,3,1.17,2.64,1,3,1.23,2.6,1.06,3,1.29,2.56,1.09,3,1.35,2.52,1.12,3.06,1.42,2.46,1.14,3.06,1.48,2.42,1.17c1,.51,2,1,3.06,1.54l2.37,1.2c1.06.55,2.12,1.11,3.17,1.66l2.22,1.16c1.16.62,2.31,1.26,3.47,1.89l1.88,1q2.66,1.48,5.29,3l1.87,1.1c1.13.66,2.26,1.32,3.38,2l2.33,1.42c1,.58,1.92,1.16,2.87,1.75l2.44,1.54,2.71,1.71,2.46,1.62,2.64,1.73,2.44,1.65,2.61,1.77,2.46,1.73,2.53,1.78,2.44,1.77,2.5,1.82,2.4,1.8,2.49,1.88,2.35,1.83,2.47,1.93,2.32,1.87,2.44,2,2.29,1.9,2.42,2,2.26,1.93,2.39,2.06,2.23,2,2.36,2.1,2.19,2,2.34,2.15,2.13,2c.78.74,1.56,1.47,2.33,2.22l1.82,1.78h0l.26.25,1.92,1.89-31.06,31.1-.11.11L1068.19,222l-45.69,45.68a197.26,197.26,0,0,0-86.19-49.93l5.2-19.43v0l0-.08,0-.14v0h0l0-.11,14-52.22Zm-214.62,477L766.65,521h0l-.23-.24-.07-.08h0l-.46-.48,0,0-.24-.25h0l-1-1.08-.15-.16-.83-.92,0,0-.06-.06-.82-.91h0l-.35-.39-1.05-1.17h0l0,0-.23-.25h0l-.25-.29-.07-.09-.94-1.11-.5-.59,0-.05h0v0l-1.3-1.54-.22-.26-.08-.09h0c-.46-.56-.91-1.14-1.36-1.71l-.35-.44,0-.06c-.51-.65-1-1.29-1.53-1.94h0c-.54-.7-1.05-1.41-1.58-2.12l-.13-.18-.74-1-.68-.92,0,0h0c-.38-.53-.74-1.06-1.11-1.59l-.28-.41-.28-.41-.41-.6-.07-.1c-.28-.4-.56-.79-.83-1.2l0,0,0,0c-.26-.39-.51-.78-.76-1.17l-.29-.45-.63-1-.81-1.24-.35-.54,0,0c-.73-1.16-1.43-2.34-2.13-3.52L743,490q-.61-1-1.21-2.09l-.09-.15c-.61-1.07-1.22-2.14-1.81-3.22l0-.07h0v0l0,0-.05-.1c-.31-.58-.61-1.18-.92-1.76s-.62-1.17-.92-1.76l-.27-.51-.17-.32,0-.08,0-.09,0-.06-.36-.74,0-.08-.58-1.2-.54-1.14-.54-1.13-.12-.25,0-.09,0-.1,0-.09c-.17-.38-.34-.77-.51-1.15l-.4-.9-.37-.84c-.25-.55-.49-1.1-.73-1.66l0-.08,0-.09c-.2-.47-.39-1-.58-1.43l-.31-.76-.29-.71-.38-.95c-.11-.28-.23-.56-.34-.84h0l0-.09,0-.1c-.21-.53-.4-1.07-.6-1.61l-.23-.61-.21-.58c-.24-.65-.48-1.3-.71-2l0-.09c-.21-.59-.4-1.18-.59-1.77l0-.08v0l-.16-.47-.15-.45-.1-.29c-.2-.61-.41-1.23-.6-1.84l0-.07c-.15-.47-.29-.95-.43-1.42h0v0l-.18-.6-.11-.37-.09-.32c-.18-.61-.36-1.21-.53-1.82h0l4.8-1.29,7.5-2h0c.19.68.4,1.36.59,2s.4,1.4.61,2.1c.26.87.55,1.73.83,2.59.22.69.44,1.38.67,2.06.29.86.61,1.72.92,2.58.18.49.35,1,.53,1.48l.21.54c.33.86.67,1.71,1,2.57.26.66.51,1.31.79,2,.36.86.74,1.72,1.12,2.58.28.63.54,1.27.83,1.9.4.88.83,1.76,1.24,2.63.28.59.55,1.18.84,1.77.47.95,1,1.88,1.45,2.82.26.5.51,1,.78,1.51q1,1.94,2.13,3.84l.41.72q1.13,2,2.32,3.87c.31.5.64,1,1,1.5.55.87,1.1,1.74,1.68,2.6.38.57.78,1.13,1.17,1.69.53.77,1.06,1.55,1.6,2.32.42.59.86,1.17,1.29,1.75s1.06,1.46,1.61,2.17.92,1.17,1.38,1.75,1.09,1.39,1.65,2.08,1,1.15,1.45,1.73,1.13,1.35,1.7,2,1,1.13,1.52,1.69,1.17,1.31,1.77,1.95,1.05,1.1,1.58,1.65.94,1,1.43,1.49h0l-8.31,8.31-.43.43h0Zm153.41,45.3h-.05l-.08,0-1.84.39-.4.09-.49.1-.35.07h0l-.87.18-1.12.23-.12,0-.78.14-1.21.21-.76.13-.67.12-1.58.27-.12,0-.14,0-1.65.24-1.16.17-1.17.16-1,.14-.16,0-.17,0-1.11.12-1.78.2-1.72.19-.31,0-.18,0h-.18l-.21,0h-.26l-2.61.2c-.67,0-1.35.11-2,.15-1.22.07-2.44.12-3.67.16l-1.63.07c-.85,0-1.7,0-2.54,0h-.24q-1.94,0-3.88,0h0q-2,0-3.92-.09l-1.44-.08c-1.17-.05-2.33-.11-3.49-.19h-.36l-1.94-.16-1.61-.14-1.65-.14h-.19l-1.19-.14-.87-.1-.68-.08-2.3-.28h-.18l-2.1-.32-.13,0h-.07l-1.27-.2-1.64-.25h0l-.13,0L856,569l-.39-.07c-1-.18-1.92-.35-2.87-.54l-.12,0-1.56-.34-.75-.17c-.88-.19-1.76-.38-2.63-.58l-.15,0-.21,0-1.19-.3-1.06-.27-1.38-.35-.8-.2h0l.22-.83.15-.55,0-.13,1.93-7.19,1-3.65h0c.68.17,1.36.33,2,.49l2.14.52c.86.2,1.73.37,2.6.56l2.19.46c.86.17,1.72.31,2.59.46s1.48.27,2.23.39,1.72.25,2.58.38,1.5.22,2.26.32,1.74.2,2.61.3,1.49.17,2.24.25,1.78.15,2.67.22l1.75.14.44,0c.92.06,1.85.09,2.77.13.7,0,1.39.08,2.09.1,1,0,2.07,0,3.11.05l1.71,0h0q2.43,0,4.86-.08l1.6-.08c1.09,0,2.18-.09,3.28-.16.68,0,1.36-.11,2-.16.94-.07,1.88-.14,2.82-.23.73-.07,1.45-.16,2.18-.24.89-.1,1.78-.19,2.67-.3s1.5-.21,2.24-.32,1.73-.24,2.59-.38l.15,0c.71-.12,1.42-.25,2.14-.38s1.69-.29,2.53-.46,1.53-.32,2.3-.48,1.66-.34,2.49-.53,1.53-.37,2.29-.55l1.91-.48h0l2.32,8.66.17.63.63,2.36.21.79.1.37h0l-1.66.41-.28.07-.25.06-1.26.3Zm127.2-154.78c0,.56-.05,1.12-.07,1.69,0,.36,0,.72,0,1.08,0,.84-.06,1.68-.11,2.52s-.11,1.4-.16,2.1c-.08,1.06-.15,2.12-.25,3.18-.07.75-.16,1.5-.24,2.25-.11,1-.21,2-.33,3-.1.78-.22,1.56-.33,2.34-.14,1-.26,1.93-.42,2.89-.13.8-.28,1.6-.42,2.4s-.32,1.87-.5,2.81-.33,1.63-.5,2.44-.38,1.83-.58,2.74c-.12.52-.24,1-.37,1.55v0l-.23.94c-.15.6-.29,1.2-.44,1.8L889.25,407.18h0l.87-.23,145.36-39,7.53-2v0h0c.2.73.38,1.47.56,2.21l.23.92v0c.13.51.26,1,.38,1.54.22.94.42,1.88.62,2.82s.35,1.6.52,2.4c.19,1,.36,1.93.54,2.89.14.79.3,1.57.43,2.35.17,1,.31,2,.46,3,.11.76.24,1.52.34,2.29.14,1,.25,2.07.37,3.1.08.73.18,1.45.25,2.17.11,1.1.2,2.19.29,3.29.05.67.12,1.33.17,2,.09,1.25.14,2.5.2,3.75,0,.52.06,1,.08,1.55Q1048.65,407.5,1048.51,412.8ZM924,551h0l-1,.28h0l-1,.25h0a150.46,150.46,0,0,1-74.22.24l-.8-.2L854,524.85l30.34-113.29,32.61,121.69h0l1-.27h0l1-.27h0l-31.56-117.8-1-3.66-.06-.23h0L964,488.62,989,513.56l-.59.58A148.93,148.93,0,0,1,924,551ZM775.2,508.91c-.57-.62-1.13-1.24-1.69-1.87l-.06-.06c-.49-.55-1-1.09-1.47-1.64v0c-.56-.64-1.1-1.29-1.64-1.93l-.06-.07c-.47-.55-.94-1.1-1.4-1.66h0c-.3-.37-.59-.75-.89-1.12l-.73-.92,0-.05c-.44-.55-.88-1.1-1.31-1.66h0c-.55-.72-1.08-1.45-1.61-2.18l0-.05c-.4-.54-.81-1.08-1.2-1.63h0c-.54-.76-1.06-1.53-1.59-2.3l-.07-.11c-.35-.52-.72-1-1.06-1.54-.61-.91-1.2-1.84-1.78-2.77l-.12-.19c-.23-.36-.47-.71-.69-1.08h0q-1.21-2-2.36-3.94l-.23-.4q-1.13-2-2.21-4h0c-.23-.43-.44-.87-.67-1.3l-.1-.2-.51-1c-.31-.59-.62-1.18-.91-1.77l0-.06c-.26-.52-.5-1.06-.75-1.58l-.07-.14c-.4-.85-.81-1.69-1.2-2.54h0c-.27-.6-.52-1.2-.79-1.8l0-.09c-.36-.83-.73-1.66-1.08-2.5h0c-.26-.63-.51-1.27-.76-1.9l0-.12-.19-.49c-.26-.65-.52-1.29-.77-1.94v0c-.25-.66-.48-1.32-.72-2l0-.1c-.29-.8-.59-1.61-.86-2.42v0c-.23-.68-.45-1.37-.67-2.05l0-.1c-.26-.8-.52-1.6-.77-2.41v0l-.3-1,0,0h0l-.23-.8-.12-.41c-.18-.63-.36-1.25-.53-1.88h0l.09,0h0l11.85-3.18h0c.16.59.34,1.18.51,1.76s.37,1.29.56,1.93.48,1.53.73,2.29.41,1.27.62,1.91.54,1.52.81,2.27.44,1.25.68,1.88.59,1.52.89,2.27c.24.61.47,1.22.72,1.82.32.77.66,1.53,1,2.3.25.58.5,1.16.76,1.74.36.8.74,1.58,1.12,2.37.25.53.5,1.07.76,1.6.43.88.89,1.75,1.34,2.62.22.43.43.86.66,1.29s.42.75.63,1.13c.5.91,1,1.81,1.5,2.71h0q1.1,1.91,2.26,3.78c.24.39.5.78.75,1.17.54.85,1.07,1.7,1.63,2.54.31.47.64.93,1,1.4.51.75,1,1.49,1.54,2.23.36.5.73,1,1.09,1.49.5.69,1,1.38,1.52,2.06.39.51.8,1,1.19,1.52s1,1.3,1.54,1.94.85,1,1.28,1.53,1,1.24,1.57,1.85.91,1,1.36,1.52,1.06,1.18,1.59,1.76,1,1,1.44,1.51.69.74,1,1.1h0l.19.2h0l-8.53,8.52-.19.19h0l-.19-.2-1.17-1.2-.32-.33-.57-.6h0l0,0-.74-.78Zm-20.46-65.65h0l-.1-.36L804,429.64l76.7-20.56-.54.54h0L797.6,492.2l-9.35,9.35c-.68-.7-1.37-1.39-2-2.11a134.18,134.18,0,0,1-30.6-53.12C755.3,445.31,755,444.28,754.74,443.26Zm248.85,76.9v0l-.58.6c-.56.58-1.11,1.16-1.67,1.73L888.49,409.61h0l-.54-.54,154.92,41.51-.1.36h0v0h0q-.26,1-.54,1.9l-.22.76v0c-.07.26-.14.51-.22.77l-.22.74c-.29,1-.6,1.89-.9,2.84-.24.73-.47,1.47-.71,2.2-.32,1-.67,1.9-1,2.85-.26.71-.5,1.42-.77,2.13-.36,1-.75,1.92-1.13,2.88-.27.68-.53,1.37-.81,2-.41,1-.84,2-1.27,2.93-.28.64-.55,1.28-.84,1.92-.47,1-1,2.05-1.45,3.08-.27.57-.53,1.14-.81,1.71-.57,1.16-1.17,2.31-1.77,3.45-.22.42-.43.84-.65,1.26q-2.5,4.68-5.32,9.21c-.25.4-.52.79-.77,1.19-.69,1.1-1.39,2.19-2.11,3.27-.36.53-.73,1.06-1.09,1.59-.64.93-1.27,1.87-1.93,2.79-.42.58-.85,1.15-1.27,1.72-.63.86-1.25,1.72-1.9,2.56-.45.59-.93,1.17-1.39,1.76-.64.81-1.27,1.63-1.93,2.43-.49.6-1,1.18-1.49,1.77-.65.77-1.3,1.55-2,2.32-.52.59-1.05,1.17-1.58,1.76-.67.74-1.33,1.49-2,2.22l-.53.57Zm-5-229.82.62.6h0L896.51,393.67l-10.08,10.08h0l1.09-4.05v0L889,394l2.06-7.68,12.5-46.62,18.8-70.12h0l5.44-20.3h0l2.25.66c.75.22,1.5.44,2.24.67.94.29,1.87.61,2.8.92.73.24,1.47.48,2.2.74.94.33,1.87.68,2.8,1,.72.27,1.43.52,2.15.8.94.36,1.87.75,2.8,1.13.7.28,1.39.56,2.09.85.95.4,1.88.83,2.82,1.25.66.3,1.33.58,2,.89,1,.45,1.93.92,2.9,1.39.62.3,1.24.59,1.85.9,1,.53,2.08,1.08,3.12,1.63.52.27,1,.53,1.56.81q2.14,1.16,4.25,2.39l.35.2q2.28,1.33,4.52,2.74c.49.31,1,.64,1.47,1,1,.64,2,1.27,3,1.93.59.4,1.18.82,1.77,1.23.86.6,1.73,1.19,2.58,1.8.63.45,1.24.92,1.86,1.38.8.59,1.61,1.18,2.4,1.79.63.49,1.26,1,1.88,1.49s1.53,1.2,2.28,1.81,1.26,1.06,1.88,1.58,1.46,1.23,2.18,1.85,1.24,1.11,1.86,1.67,1.41,1.26,2.1,1.9,1.23,1.17,1.84,1.75ZM920.32,269h0l-5.59,20.85L884.33,403.19,842.83,248.3l.81-.2,1.35-.33c.83-.2,1.66-.41,2.49-.6s1.77-.38,2.66-.57,1.7-.36,2.55-.53,1.74-.31,2.62-.47,1.74-.31,2.62-.45,1.71-.25,2.56-.37,1.79-.27,2.69-.38,1.65-.18,2.48-.27,1.86-.21,2.8-.3c.78-.07,1.57-.12,2.35-.18,1-.08,2-.16,2.94-.22.7,0,1.39-.06,2.09-.09,1.07-.05,2.14-.11,3.21-.14H880q4.62-.1,9.24.05h.31c1.13,0,2.26.11,3.39.18l1.9.1c1,.07,2.05.17,3.08.26.74.06,1.47.12,2.21.19,1,.1,1.94.23,2.91.34.79.09,1.58.18,2.36.28s1.87.28,2.8.42,1.64.24,2.46.38,1.8.33,2.7.49,1.7.31,2.54.48,1.73.37,2.6.56,1.75.38,2.62.58,1.67.41,2.5.62l2.16.55h0Zm136.83,90.94-12.59,3.38v0l-9.63,2.58-147,39.4h0l1.3-1.3,112.3-112.29.77-.77h0l9.31-9.31h0l.58.6,1.2,1.23c.63.65,1.26,1.3,1.88,2s1.41,1.54,2.1,2.32,1.21,1.33,1.8,2,1.35,1.59,2,2.38,1.17,1.36,1.73,2.05,1.31,1.64,2,2.46,1.11,1.38,1.65,2.09,1.27,1.7,1.91,2.56c.52.7,1,1.39,1.55,2.1.64.89,1.25,1.79,1.87,2.68.48.69,1,1.38,1.44,2.07.65,1,1.27,1.95,1.89,2.92.42.65.84,1.28,1.25,1.94.84,1.34,1.65,2.71,2.45,4.07.4.67.79,1.35,1.17,2,.73,1.28,1.46,2.57,2.17,3.87.37.68.71,1.38,1.07,2.07.53,1,1.07,2,1.59,3.07.37.74.72,1.5,1.08,2.25.48,1,1,2,1.42,3,.36.78.69,1.56,1,2.35.43,1,.87,2,1.29,2.95.33.8.65,1.6,1,2.41.4,1,.8,2,1.18,3,.31.81.6,1.63.89,2.44.37,1,.74,2,1.08,3,.28.82.55,1.65.82,2.48.33,1,.67,2,1,3,.26.83.5,1.68.74,2.51S1056.91,359.1,1057.15,359.94ZM1019,267.31c.66.64,1.33,1.27,2,1.92l-20.18,20.18a168.42,168.42,0,0,0-72.34-42.23l7.32-27.3c.9.25,1.79.51,2.68.77l.41.12h0c.81.24,1.62.46,2.42.71,1.06.33,2.12.68,3.17,1s1.87.6,2.8.92,2.1.75,3.14,1.13,1.85.66,2.76,1,2.07.82,3.11,1.23,1.82.71,2.72,1.09,2.05.89,3.08,1.34,1.78.77,2.67,1.17,2,1,3.06,1.46c.87.41,1.74.81,2.6,1.24,1,.52,2.08,1.07,3.11,1.61.82.43,1.65.84,2.46,1.27,1.24.67,2.46,1.36,3.69,2.06s2.25,1.28,3.36,1.94c1.26.75,2.53,1.49,3.78,2.27.77.48,1.53,1,2.3,1.48,1,.64,2,1.27,3,1.92.8.54,1.59,1.1,2.38,1.64s1.87,1.28,2.79,1.94,1.58,1.17,2.37,1.75,1.8,1.32,2.69,2,1.56,1.23,2.34,1.84,1.75,1.37,2.61,2.07,1.53,1.29,2.3,1.94,1.69,1.41,2.52,2.14,1.5,1.35,2.25,2,1.64,1.46,2.45,2.21c.62.58,1.23,1.18,1.85,1.76h0Zm-88.79,298-.12,0-2.07.58h0l-3.37-12.57-.07-.25h0l2-.58,2.14-.63c.87-.27,1.72-.55,2.58-.83.69-.23,1.38-.44,2.07-.68.88-.3,1.75-.62,2.62-.94.66-.24,1.32-.47,2-.71.9-.34,1.79-.7,2.69-1.06.62-.25,1.23-.48,1.85-.74.94-.39,1.86-.8,2.79-1.21L947,545c1-.45,2-.93,3-1.41l1.43-.68c1.16-.57,2.31-1.17,3.46-1.77l.88-.45q4.32-2.31,8.48-4.89l.86-.55c1.06-.67,2.11-1.34,3.15-2h0l.07-.05,1.34-.92c.89-.61,1.78-1.21,2.66-1.84.52-.37,1-.75,1.54-1.13.79-.58,1.59-1.16,2.38-1.76.55-.42,1.08-.85,1.63-1.28.73-.58,1.47-1.15,2.2-1.74.56-.46,1.11-.93,1.67-1.4s1.38-1.15,2.06-1.74,1.13-1,1.69-1.51,1.3-1.16,1.93-1.75,1.13-1.07,1.69-1.61,1-.91,1.44-1.38h0l9.3,9.3,0,0h0l-.58.57-1,1-.64.62-1.21,1.15c-.69.64-1.39,1.27-2.09,1.9s-1.25,1.14-1.88,1.69-1.45,1.23-2.18,1.85-1.26,1.08-1.9,1.6-1.5,1.2-2.26,1.79-1.28,1-1.93,1.52-1.57,1.17-2.36,1.75l-1.67,1.23-.1.07-.15.11-.16.11h0l-.07,0-.12.08L977.32,543l-1.75,1.21h0l-.11.07-.11.07-.28.18-2.4,1.55c-.56.36-1.11.73-1.68,1.08-1.35.84-2.73,1.66-4.1,2.46l-.35.2-.73.42h0l-.08,0c-.67.38-1.35.75-2,1.12l-1,.58-.81.45h0l-.47.24-.89.46-.39.2-.42.21c-.84.44-1.69.88-2.54,1.31h0c-.67.33-1.34.64-2,1l-.16.08-2.07,1-.53.25h0l-.17.08c-.65.29-1.3.56-1.95.84l-.08,0-.13.06c-.84.36-1.67.74-2.51,1.09h0l-.24.1-1.29.51-.63.25h-.1c-.88.35-1.76.71-2.64,1h0l-.3.12c-.65.24-1.3.46-2,.7l-.09,0c-.87.31-1.74.63-2.62.93h0l-.79.26-.44.14-.11,0-.3.1-.68.22-.11,0c-.87.28-1.74.57-2.61.83h0l-.13,0-1.36.4Zm83.35-34.11c-.63.65-1.25,1.31-1.89,2h0l-8.75-8.72h0l-.19-.19h0a165.45,165.45,0,0,0,42.16-72.67h0v0h0l.1,0h0l12.21,3.27v0h0c-.22.79-.46,1.58-.69,2.37l-.22.73v0c-.19.64-.38,1.28-.58,1.92-.31,1-.63,1.95-1,2.92s-.56,1.73-.86,2.59-.7,1.94-1.06,2.9-.61,1.7-.94,2.54-.77,1.93-1.16,2.89-.66,1.66-1,2.48c-.41,1-.85,1.94-1.28,2.91-.35.79-.69,1.59-1.05,2.38-.46,1-.95,2-1.43,3-.36.74-.7,1.49-1.07,2.23-.54,1.07-1.1,2.13-1.65,3.19-.34.65-.66,1.3-1,1.94-.8,1.48-1.63,2.94-2.47,4.4l-.52.91q-1.38,2.36-2.82,4.67c-.35.57-.73,1.12-1.09,1.68-.68,1.06-1.36,2.13-2.06,3.18-.42.63-.87,1.25-1.3,1.88-.66,1-1.32,1.93-2,2.88-.47.65-1,1.28-1.43,1.93-.67.91-1.34,1.83-2,2.73-.5.65-1,1.29-1.53,1.94-.69.87-1.37,1.75-2.07,2.61-.53.65-1.08,1.28-1.62,1.92-.71.84-1.41,1.69-2.14,2.52-.55.63-1.12,1.25-1.68,1.87-.74.82-1.47,1.64-2.22,2.45-.45.48-.9.95-1.35,1.42h0Zm45.19-80.91q-.21.88-.43,1.76c-.06.26-.12.52-.19.78l-12.57-3.37a163.85,163.85,0,0,0,4.63-27.39,166.7,166.7,0,0,0-5-56.64h0l12.61-3.38h0c.21.81.41,1.62.61,2.43s.46,1.81.67,2.72.44,2,.65,3,.4,1.8.58,2.71.38,2,.56,3,.34,1.8.49,2.7.31,2.05.47,3.08.28,1.78.39,2.67c.14,1,.25,2.1.37,3.15.1.88.21,1.75.3,2.62.11,1.09.19,2.17.28,3.26.07.84.15,1.68.21,2.52.08,1.19.13,2.38.19,3.56,0,.74.09,1.48.12,2.23.06,1.73.09,3.46.1,5.19,0,.57,0,1.13,0,1.7,0,1.56,0,3.12-.06,4.68,0,.74-.07,1.48-.1,2.22,0,1.19-.09,2.38-.16,3.56,0,.81-.12,1.63-.18,2.44-.08,1.11-.16,2.23-.26,3.34-.08.84-.18,1.67-.27,2.51-.12,1.08-.22,2.17-.36,3.25-.11.85-.24,1.7-.36,2.55-.15,1.07-.29,2.13-.46,3.2-.13.85-.29,1.7-.44,2.55-.18,1.06-.36,2.11-.56,3.17-.16.85-.35,1.69-.52,2.53-.22,1.05-.43,2.11-.67,3.15C1059.12,448.6,1058.91,449.44,1058.71,450.27Zm-115-274.88,1.55.4h0l-5.73,21.44-.07.28,0,.07,0,.09,0,.15-.12.45v.05l-2.12,7.94L934,217.87l-.1.39-7.6,28.33h0v0h0a165.53,165.53,0,0,0-84.06-.39h0l-7.07-26.4-1.47-5.5-.29-1.09-10-37.46,1.44-.37,1.58-.4h0l.23-.06,2-.48,1.8-.43,2-.45,1.81-.4,2-.42,1.79-.36,2-.38,1.8-.33,2-.35,1.81-.31,2-.31,1.82-.28,2-.28,1.84-.25,2-.24,1.87-.23,2-.21,1.92-.2,1.92-.17,1.95-.17,1.9-.14,2-.14,1.84-.1,2-.11,1.71-.07,2.16-.09,1.45,0,2.43-.06h.21q3.6-.05,7.19,0h.29l2.48.06,1.4,0,2.26.09,1.61.07,2.2.12,1.67.1,2.16.16,1.71.13,2.09.19,1.78.16,2,.21,1.83.19,2,.24,1.86.23,1.95.27,1.9.27,1.91.29,1.94.3,1.87.32,2,.34,1.83.34,2,.38,1.78.36,2,.42,1.74.38,2.07.47,1.7.4,2.1.51.2,0h0Zm-103,73.85h0l8.32,31L881.66,401.6l.13.5.07.25.37,1.39h0l-.86-.86-82-82-29.93-29.93h0c.61-.6,1.24-1.19,1.86-1.79s1.15-1.12,1.74-1.66,1.45-1.31,2.18-2,1.17-1.07,1.76-1.58c.76-.66,1.53-1.3,2.3-1.95.58-.49,1.15-1,1.74-1.47.82-.67,1.65-1.32,2.48-2,.55-.44,1.1-.88,1.66-1.31.94-.72,1.9-1.42,2.85-2.12.46-.34.92-.69,1.39-1q2.14-1.54,4.33-3l.89-.58c1.17-.77,2.34-1.54,3.53-2.29.54-.34,1.1-.66,1.64-1,1-.58,1.9-1.17,2.87-1.73.63-.36,1.26-.71,1.89-1.07.9-.51,1.79-1,2.7-1.51.67-.36,1.35-.71,2-1.06.88-.46,1.75-.93,2.64-1.37.7-.35,1.42-.68,2.13-1,.87-.42,1.74-.85,2.62-1.25s1.47-.66,2.21-1,1.73-.78,2.6-1.15,1.52-.62,2.27-.93,1.73-.71,2.6-1,1.55-.58,2.33-.87,1.74-.65,2.61-1,1.59-.54,2.39-.8,1.74-.59,2.61-.86,1.62-.49,2.43-.73Zm-72.88,43.23h0l30.31,30.31,76,76,6.46,6.46-24.83-6.66L812.34,387,768,375.06l-41.77-11.2c.2-.71.42-1.42.63-2.13s.47-1.61.72-2.41.58-1.77.87-2.65.52-1.58.79-2.36.65-1.77,1-2.65.56-1.53.85-2.3.71-1.78,1.08-2.66.6-1.49.91-2.23c.38-.9.79-1.8,1.19-2.69.32-.71.62-1.42.95-2.13.43-.93.89-1.85,1.33-2.77.32-.66.63-1.32,1-2,.51-1,1-2,1.57-3,.29-.56.58-1.12.88-1.67q1.15-2.12,2.36-4.2l.23-.4q1.33-2.28,2.74-4.52c.3-.48.62-1,.93-1.43.65-1,1.29-2,2-3,.38-.57.78-1.12,1.17-1.68.62-.89,1.23-1.79,1.86-2.67.43-.6.87-1.18,1.31-1.77.61-.83,1.22-1.67,1.85-2.49.46-.6.94-1.19,1.41-1.79.63-.79,1.25-1.59,1.89-2.37.49-.6,1-1.18,1.49-1.77.65-.76,1.29-1.53,1.94-2.28.52-.59,1-1.16,1.57-1.75.66-.74,1.32-1.48,2-2.21s1.09-1.14,1.64-1.71S767.35,293,767.91,292.48ZM725.62,366h0l33.57,9,7.65,2.05,41,11,16.2,4.34,9.51,2.55,1.67.45,44.18,11.84-58.79,15.76L738,445.09l.1.37-.1,0h0l-2.36.63-10.43,2.8h0c-.19-.74-.37-1.48-.55-2.22s-.39-1.58-.57-2.37-.4-1.88-.6-2.82c-.16-.79-.34-1.58-.49-2.37-.18-1-.34-1.91-.51-2.86-.14-.79-.28-1.57-.41-2.36-.15-1-.28-1.94-.42-2.91-.11-.78-.23-1.56-.33-2.34-.12-1-.22-2-.33-3-.08-.76-.18-1.52-.25-2.29-.09-1-.16-2.05-.24-3.08-.05-.73-.12-1.47-.17-2.2-.07-1.1-.1-2.2-.15-3.3,0-.66-.07-1.33-.09-2,0-1.43,0-2.86,0-4.29,0-.48,0-1,0-1.45,0-1.61,0-3.22.1-4.83,0-.71.08-1.42.11-2.13.05-1.06.1-2.12.17-3.17.05-.79.13-1.58.2-2.37.08-1,.15-1.95.25-2.92s.19-1.65.29-2.47.21-1.87.34-2.81.25-1.68.38-2.52.27-1.83.42-2.74.31-1.7.46-2.55.32-1.8.5-2.7.36-1.7.55-2.55.38-1.78.59-2.67.42-1.7.63-2.55S725.43,366.66,725.62,366Zm476.46-47.27c.21.75.42,1.51.62,2.26l-143.45,38.44h0a182,182,0,0,0-46.06-79.29l56.45-56.44,48.81-48.8,1.45,1.47.72.74h0l1.26,1.29,1.78,1.87,1.92,2,1.77,1.92,1.87,2,1.75,2,1.81,2,1.75,2,1.75,2c.59.69,1.16,1.4,1.74,2.09s1.13,1.35,1.68,2,1.17,1.45,1.75,2.17,1.08,1.33,1.61,2,1.16,1.49,1.74,2.23,1,1.33,1.55,2,1.16,1.54,1.74,2.31,1,1.31,1.48,2,1.17,1.6,1.75,2.41c.47.64.94,1.28,1.4,1.92.6.84,1.18,1.68,1.77,2.52l1.3,1.86c.62.89,1.22,1.79,1.83,2.69l1.18,1.74c.64,1,1.27,1.94,1.91,2.91l1,1.57c.69,1.08,1.37,2.16,2.05,3.24l.81,1.28q1.21,2,2.4,3.93l.39.64q2.76,4.61,5.37,9.31l.17.31q1.21,2.18,2.39,4.39l.58,1.11c.64,1.21,1.28,2.42,1.9,3.63l.73,1.45c.56,1.11,1.13,2.22,1.68,3.33.28.56.54,1.13.82,1.69.51,1,1,2.08,1.51,3.13.29.61.57,1.23.85,1.84.47,1,.94,2,1.4,3,.29.64.57,1.29.86,1.94.44,1,.88,2,1.31,3,.29.68.58,1.35.86,2,.41,1,.83,1.93,1.23,2.9.29.71.58,1.41.86,2.12.39.95.77,1.89,1.15,2.84.29.72.56,1.45.84,2.17.37.94.73,1.88,1.09,2.83.28.74.55,1.48.82,2.22.35.94.7,1.88,1,2.82.27.75.53,1.51.79,2.26.33.94.66,1.87,1,2.81.26.76.51,1.52.76,2.29.31.94.63,1.87.93,2.81.25.77.49,1.54.73,2.31.29.94.59,1.87.88,2.81.24.78.47,1.56.7,2.35.28.94.56,1.87.83,2.81.16.55.31,1.11.47,1.66h0ZM938.42,594.16c-.89.26-1.78.52-2.67.77l-3.47-13-3.74-14h0v0a162.82,162.82,0,0,0,28.7-10.78l.7-.33.9-.46a166.83,166.83,0,0,0,42.49-30.49l9.35,9.33,0,0L1021,545.53c-.7.69-1.41,1.37-2.12,2.06l-.22.21h0c-.6.58-1.2,1.16-1.81,1.73-.86.8-1.74,1.58-2.61,2.37-.69.62-1.38,1.25-2.08,1.87-.89.78-1.8,1.53-2.7,2.29-.71.6-1.4,1.2-2.12,1.79-.93.76-1.87,1.49-2.81,2.23-.71.56-1.41,1.13-2.13,1.68-1,.75-2,1.47-3,2.2-.7.52-1.39,1-2.1,1.55-1,.75-2.11,1.47-3.17,2.2-.67.46-1.32.93-2,1.38-1.2.8-2.42,1.58-3.64,2.35-.55.35-1.09.71-1.64,1.06q-5.33,3.33-10.87,6.3c-.58.31-1.18.61-1.77.92-1.26.66-2.53,1.33-3.81,2-.73.36-1.47.7-2.21,1.06-1.15.55-2.3,1.12-3.46,1.65-.8.36-1.61.7-2.41,1.06-1.11.49-2.22,1-3.34,1.46-.85.36-1.71.69-2.56,1-1.09.44-2.17.88-3.27,1.3-.89.34-1.79.65-2.68,1-1.07.39-2.14.79-3.22,1.16-.92.32-1.85.61-2.78.91s-2.13.71-3.2,1c-.8.25-1.62.48-2.42.71h0Zm202.92,65.07-1.8,1.83L1013.16,534.67a183.45,183.45,0,0,0,46.11-79.25l.36.1v0l171.75,46c-.22.83-.45,1.66-.68,2.48l-.13.46h0c-.2.72-.4,1.45-.6,2.17-.28,1-.58,2-.87,3s-.51,1.77-.78,2.65-.6,2-.91,2.94-.55,1.77-.83,2.66-.63,1.93-.95,2.89-.58,1.79-.88,2.68-.65,1.89-1,2.84-.62,1.8-.94,2.69-.68,1.86-1,2.79-.65,1.8-1,2.7-.7,1.83-1,2.74-.69,1.82-1,2.72-.72,1.78-1.08,2.67-.73,1.83-1.11,2.75-.73,1.74-1.1,2.61-.78,1.85-1.17,2.77-.74,1.69-1.12,2.53-.82,1.88-1.24,2.81-.76,1.65-1.14,2.48-.86,1.89-1.31,2.82-.76,1.59-1.15,2.38c-.46,1-.92,1.92-1.39,2.88-.36.74-.74,1.48-1.11,2.22-.5,1-1,2-1.51,3-.34.67-.7,1.34-1,2-.55,1.06-1.1,2.12-1.66,3.17-.29.55-.59,1.09-.89,1.64-.63,1.17-1.26,2.33-1.9,3.49l-.25.44q-3.69,6.63-7.66,13.1l-.92,1.5c-.62,1-1.26,2-1.89,3-.41.65-.82,1.3-1.23,2-.6.93-1.2,1.84-1.81,2.76-.46.71-.92,1.42-1.39,2.13-.59.88-1.19,1.76-1.78,2.64s-1,1.47-1.5,2.2-1.18,1.69-1.78,2.53-1,1.51-1.58,2.25-1.19,1.64-1.79,2.46-1.1,1.52-1.65,2.27-1.2,1.6-1.8,2.39-1.14,1.53-1.72,2.29-1.21,1.56-1.81,2.33-1.18,1.53-1.79,2.29-1.22,1.52-1.83,2.28-1.23,1.53-1.85,2.29-1.23,1.48-1.84,2.21-1.27,1.54-1.91,2.3-1.24,1.45-1.86,2.17-1.3,1.52-2,2.28l-1.88,2.12c-.67.76-1.35,1.52-2,2.28l-1.89,2.06c-.69.76-1.38,1.52-2.09,2.27l-1.92,2c-.71.75-1.41,1.5-2.13,2.24l-1.58,1.62h0ZM893.25,137.65h.07q2.15.06,4.3.16l.75,0,3.62.2,1.15.08,3.21.23,1.42.12,2.93.25,1.65.17,2.69.28,1.8.21,2.54.3,1.92.26,2.4.33,2,.3,2.3.35,2.1.35,2.21.38,2.16.4,2.14.4,2.19.44,2.1.43,2.21.48,2.07.46,2.25.53,2,.48.79.19h0l1.5.38,1.49.38h0l-7.36,27.46h0a242.39,242.39,0,0,0-123,0l-7.25-27.06,1.66-.43,1.36-.35h0l.74-.18,2.24-.55,2-.49,2.33-.53,2-.44,2.4-.5,1.89-.39,2.49-.48,1.81-.34,2.59-.45,1.73-.3,2.7-.43,1.63-.25,2.83-.4,1.5-.21,3-.37,1.35-.17L857,139l1.16-.12,3.38-.31,1-.09,3.7-.28.67,0q2.06-.14,4.12-.25h.25Q882.23,137.32,893.25,137.65ZM826,206.15c1-.29,2-.58,3-.85l4.52,16.85,6.7,25a168.57,168.57,0,0,0-72.36,42.23l-20.69-20.69-.23-.23h0l-.76-.76h0l-9.32-9.3c.71-.7,1.43-1.39,2.15-2.08l.18-.17h0c.74-.71,1.47-1.43,2.22-2.13s1.72-1.56,2.59-2.34,1.65-1.5,2.48-2.23,1.76-1.49,2.64-2.24,1.7-1.45,2.56-2.15,1.8-1.43,2.71-2.14,1.74-1.39,2.63-2.07,1.85-1.37,2.78-2.05,1.78-1.33,2.69-2,1.92-1.33,2.88-2,1.79-1.26,2.71-1.86,2.06-1.33,3.09-2c.87-.56,1.73-1.13,2.61-1.68,1.33-.83,2.69-1.62,4-2.41s2.5-1.45,3.75-2.16,2.6-1.47,3.91-2.17c.84-.45,1.69-.87,2.54-1.3,1.16-.6,2.32-1.21,3.49-1.79.89-.44,1.8-.85,2.69-1.28,1.14-.54,2.28-1.1,3.43-1.62.92-.42,1.86-.81,2.79-1.21,1.14-.5,2.28-1,3.43-1.48.94-.39,1.89-.75,2.84-1.13,1.15-.46,2.3-.93,3.47-1.37,1-.36,1.93-.69,2.89-1,1.16-.42,2.32-.85,3.5-1.25,1-.33,2-.64,2.95-1,1.17-.38,2.34-.77,3.52-1.12,1-.29,1.95-.56,2.92-.84h0Zm-81.8,66.68c.66-.68,1.31-1.37,2-2l0,0,20.15,20.16h0l-1.15,1.19c-.69.71-1.38,1.41-2.06,2.14s-1.13,1.25-1.7,1.87-1.31,1.43-2,2.16-1.11,1.31-1.67,2-1.24,1.45-1.85,2.18-1.08,1.36-1.63,2-1.18,1.46-1.75,2.21-1,1.4-1.57,2.11-1.12,1.49-1.67,2.24-1,1.44-1.51,2.17-1.07,1.51-1.58,2.28-1,1.49-1.45,2.23-1,1.53-1.5,2.31-.92,1.51-1.38,2.27-1,1.56-1.42,2.36-.86,1.53-1.29,2.29-.92,1.61-1.36,2.42-.8,1.54-1.2,2.31-.87,1.65-1.29,2.48-.73,1.52-1.09,2.28-.84,1.72-1.24,2.59-.66,1.5-1,2.25-.8,1.79-1.19,2.69c-.31.74-.6,1.49-.9,2.24-.37.92-.76,1.84-1.11,2.77-.29.74-.55,1.49-.82,2.24-.35.94-.71,1.88-1,2.83s-.54,1.64-.81,2.46-.6,1.77-.88,2.67c-.35,1.12-.67,2.24-1,3.37l-.23.78h0l-13.58-3.64-1-.27L696.79,356c.24-.86.49-1.72.74-2.58l.15-.5h0c.24-.82.47-1.64.72-2.45.32-1,.66-2.05,1-3.08s.62-1.93.95-2.88.74-2.05,1.11-3.08.67-1.88,1-2.81.82-2.07,1.23-3.1.71-1.82,1.09-2.72c.44-1.06.92-2.11,1.38-3.16.38-.86.74-1.73,1.13-2.58.5-1.1,1-2.19,1.56-3.28.38-.79.75-1.59,1.14-2.37.6-1.21,1.24-2.41,1.87-3.61.34-.65.67-1.31,1-2q1.44-2.68,3-5.32l.09-.16q1.58-2.72,3.24-5.39c.34-.54.69-1.07,1-1.6.79-1.23,1.57-2.47,2.38-3.68.44-.66.9-1.3,1.35-2,.74-1.08,1.48-2.16,2.24-3.22.5-.7,1-1.39,1.54-2.08.74-1,1.46-2,2.22-3,.55-.72,1.12-1.42,1.68-2.13.74-.94,1.48-1.89,2.24-2.82.59-.73,1.21-1.43,1.81-2.15.75-.9,1.5-1.79,2.27-2.68.63-.72,1.28-1.43,1.92-2.14s1.54-1.72,2.33-2.56c.58-.62,1.17-1.23,1.76-1.84h0ZM705.12,401.74c0-.69.07-1.38.11-2.07.06-1.24.11-2.48.2-3.72.05-.81.14-1.61.2-2.42.09-1.12.17-2.25.29-3.37.09-.85.2-1.71.29-2.56.12-1.07.24-2.15.38-3.22.12-.87.26-1.74.38-2.61.15-1,.3-2.1.47-3.15.15-.88.32-1.76.48-2.64.19-1,.37-2.07.57-3.1s.38-1.77.56-2.65.43-2,.67-3.07c.15-.66.32-1.32.48-2v0l.16-.66c.21-.84.41-1.68.63-2.52l12.53,3.36a166.11,166.11,0,0,0-.4,84.1l-12.49,3.32c-.22-.85-.43-1.71-.63-2.57l-.14-.57h0c-.16-.65-.32-1.3-.47-2-.24-1.05-.45-2.11-.67-3.17-.17-.83-.36-1.66-.52-2.5-.21-1.07-.39-2.15-.57-3.23-.14-.83-.3-1.65-.43-2.48-.17-1.1-.32-2.2-.47-3.29-.11-.81-.24-1.62-.34-2.44-.14-1.13-.25-2.26-.37-3.39-.08-.79-.18-1.58-.26-2.37-.11-1.17-.19-2.34-.27-3.51-.06-.75-.12-1.51-.17-2.26-.08-1.28-.12-2.55-.17-3.83,0-.65-.07-1.3-.08-2,0-1.76-.07-3.53-.07-5.3,0-.17,0-.33,0-.5Q705,404.63,705.12,401.74ZM836.31,564.15c-.91-.28-1.81-.59-2.71-.89s-1.53-.5-2.29-.77-1.78-.65-2.67-1-1.52-.55-2.27-.84-1.76-.71-2.64-1.06-1.5-.6-2.24-.91-1.75-.77-2.62-1.16-1.47-.64-2.2-1-1.74-.83-2.61-1.25c-.71-.34-1.43-.68-2.14-1-.9-.45-1.78-.93-2.67-1.39-.67-.35-1.34-.69-2-1-1-.57-2.08-1.16-3.12-1.75q-1.31-.74-2.6-1.51c-1.13-.67-2.26-1.34-3.37-2-.64-.4-1.26-.82-1.89-1.23-.85-.55-1.71-1.09-2.55-1.66-.66-.44-1.31-.91-2-1.36s-1.6-1.1-2.39-1.67-1.3-1-2-1.45-1.55-1.14-2.31-1.72-1.27-1-1.91-1.51-1.51-1.19-2.26-1.8-1.24-1-1.86-1.57-1.48-1.24-2.21-1.88-1.2-1.08-1.8-1.62-1.45-1.3-2.17-2-1.16-1.11-1.74-1.66-1.15-1.1-1.71-1.66l.77-.77,0,0h0l7.93-7.92.32-.32h0l.45-.45h0l.7-.7.07-.07,20.09-20.09L882.24,411l-1.74,6.48-5,18.69L852,523.7h0L841.6,562.59l-.23.85v0l-.15.56-.39,1.46-2.2-.64C837.85,564.62,837.07,564.39,836.31,564.15ZM735.37,258.37h0l0,0h0Z"/><path class="cls-6" d="M687.3,571.23l-11.55,13.4v35.68H668V520.78h7.79v53l10.94-13.67,30.83-39.37h9.78l-34.73,44.3L730,620.31h-9.5Z"/><path class="cls-6" d="M785.61,572.66H747v40.4h44.43v7.25H739.19V520.78h51.88v7.38H747v37.26h38.62Z"/><path class="cls-6" d="M827.93,574.92l24.81-54.14h9l-29.94,62.07v37.46H824V582.85l-29.87-62.07h9.16Z"/><path class="cls-6" d="M916.39,595.83q0-8.34-4.75-13.12t-17.74-9.16q-13-4.37-19.07-9.78-8-7-8-18.59t7.86-18.59q7.86-7.18,20.3-7.18,12.71,0,20.78,8.34t8.07,21.46H916q0-10-5.64-16.24T895,526.79q-9.43,0-14.87,5.09A17.22,17.22,0,0,0,874.69,545a16.07,16.07,0,0,0,5.13,12.3q5.13,4.79,16.34,8.51t17,7.72a25.62,25.62,0,0,1,8.48,9.4,27.83,27.83,0,0,1,2.73,12.71q0,11.69-7.9,18.83t-20.88,7.14a35.32,35.32,0,0,1-16-3.59,26.85,26.85,0,0,1-11.28-10.32,30.14,30.14,0,0,1-4.07-15.89H872q0,10.53,6.36,16.54t17.16,6q9.43,0,15.14-5.06T916.39,595.83Z"/><path class="cls-7" d="M46.79,296.39a23.13,23.13,0,0,0,5-3.24,22.31,22.31,0,0,0,4-4.33,14.86,14.86,0,0,0,2.43-5.23,12.45,12.45,0,0,0-.05-5.65c-.06-.23-.09-.47-.17-.7l-.26-.67a7.08,7.08,0,0,0-.59-1.32c-.12-.21-.24-.42-.37-.62l-.45-.58a9.59,9.59,0,0,0-1-1.11,27.4,27.4,0,0,0-4.69-3.71,33.72,33.72,0,0,0-5.33-2.77,23.67,23.67,0,0,0-5.73-1.64,7.71,7.71,0,0,0-5.55,1c-.82.53-1.6,1.18-2.4,1.81s-1.58,1.27-2.33,1.93a23.36,23.36,0,0,0-4,4.4,13.08,13.08,0,0,0-2.14,5.45,28.2,28.2,0,0,0-.18,6,33.47,33.47,0,0,0,.72,6,9.33,9.33,0,0,0,2.82,5,10.89,10.89,0,0,0,5.27,2.34.5.5,0,0,1-.18,1h0A11.85,11.85,0,0,1,25.84,297a10.26,10.26,0,0,1-3.08-5.48,35.81,35.81,0,0,1-.71-6.14,29,29,0,0,1,.17-6.18,14,14,0,0,1,2.27-5.82,24.24,24.24,0,0,1,4.18-4.58c.77-.68,1.57-1.33,2.36-2s1.58-1.29,2.47-1.87a6.74,6.74,0,0,1,3-1.15,11.64,11.64,0,0,1,3.17,0,24.63,24.63,0,0,1,6,1.69,34.68,34.68,0,0,1,5.49,2.84A28.35,28.35,0,0,1,56,272.23a13.06,13.06,0,0,1,1.07,1.15l.51.61.45.67a8.1,8.1,0,0,1,.79,1.4l.36.72c.11.24.17.51.26.76a11.15,11.15,0,0,1,.25,6.41A16.39,16.39,0,0,1,57,289.7a23.1,23.1,0,0,1-9.79,7.62.5.5,0,0,1-.4-.92Z"/><path class="cls-7" d="M46.81,278.22a4.07,4.07,0,0,1-1.31-.21c-3.07-1-4.11-4.68-4.67-7.74a.5.5,0,0,1,.09-.39l3.48-4.76a.49.49,0,0,1,.51-.19,5.34,5.34,0,0,1,3.59,3,5.66,5.66,0,0,1,3.22,3.19,5.37,5.37,0,0,1-1.4,5.51A4.94,4.94,0,0,1,46.81,278.22Zm-5-7.92c.52,2.74,1.46,5.91,4,6.76a3.65,3.65,0,0,0,3.79-1.15,4.37,4.37,0,0,0,1.18-4.46,4.48,4.48,0,0,0-1.9-2.23.5.5,0,0,1-1,.06,4,4,0,0,0-.15-.59l-.07,0a5.81,5.81,0,0,0-4.92.57.52.52,0,0,1-.17.07ZM45,266l-1.21,1.65a6.92,6.92,0,0,1,3.3-.16A4.3,4.3,0,0,0,45,266Z"/><path class="cls-7" d="M33.4,288a.5.5,0,0,1-.34-.86l1-.93a6.39,6.39,0,0,1-2.76-1.24A3.81,3.81,0,0,1,30,283.38a3.88,3.88,0,0,1-.18-2c.33-2.54,2.53-6.15,5.49-6a2.84,2.84,0,0,1,2.28,1.31,4.81,4.81,0,0,1,.66,1.5,5.76,5.76,0,0,1,1.05,5.38,4.22,4.22,0,0,1-3.7,2.67l-.24,0c-.53.56-1.08,1.08-1.61,1.58A.5.5,0,0,1,33.4,288Zm1.76-11.6c-2.29,0-4.07,3-4.36,5.16a2.94,2.94,0,0,0,.11,1.49,2.87,2.87,0,0,0,1,1.13,5.21,5.21,0,0,0,3,1.12,10.3,10.3,0,0,0,2.29-3.57,6,6,0,0,0,.13-3.06l-.15-.17a.5.5,0,0,1-.07-.57,3.5,3.5,0,0,0-.34-.65,1.85,1.85,0,0,0-1.5-.87Zm3.26,4.36a6,6,0,0,1-.27,1.29,10.06,10.06,0,0,1-1.71,3,3,3,0,0,0,1.92-1.82A4.11,4.11,0,0,0,38.42,280.71Z"/><path class="cls-7" d="M43.94,283.38a3.18,3.18,0,0,1-2.7-1.35.5.5,0,0,1-.07-.16,2.1,2.1,0,0,1,3.29-2,.5.5,0,0,1-.66.76,1,1,0,0,0-1.12,0,1,1,0,0,0-.55.9,2.26,2.26,0,1,0,3.53-2.79,2.27,2.27,0,0,0-2.19-.83.5.5,0,0,1-.39-.07,9.49,9.49,0,0,1-1.49-1.25,8.62,8.62,0,0,0-1.34-1.13.5.5,0,0,1,.55-.84,9.48,9.48,0,0,1,1.49,1.25,9.19,9.19,0,0,0,1.17,1,3.29,3.29,0,0,1,3,1.2,3.06,3.06,0,0,1-2.07,5.24Z"/><path class="cls-7" d="M40.39,289h-.1a.5.5,0,0,1-.39-.59l.82-4a.5.5,0,0,1,.46-.4.5.5,0,0,1,.5.34l.31.93a.5.5,0,0,1,1,0,8.29,8.29,0,0,0,.38.94,13.37,13.37,0,0,0,.4-2,.5.5,0,0,1,.88-.27c.09.11.2.22.3.32l0-.22a.5.5,0,0,1,1-.11l0,.09,0-.81a.5.5,0,0,1,.77-.4l.09.06a.5.5,0,0,1,.82-.43l.3.23a7.6,7.6,0,0,0-.32-.85.5.5,0,0,1,.72-.63l.57.35a8.07,8.07,0,0,0-1-1.07.5.5,0,0,1,.1-.82.5.5,0,0,1-.09-.29.5.5,0,0,1,.26-.44,4.62,4.62,0,0,1,3.16-.47.5.5,0,0,1,.39.59.51.51,0,0,1-.59.39,3.62,3.62,0,0,0-1.52,0l.79.43A6.25,6.25,0,0,1,52.59,281a.5.5,0,0,1-.57.82l-2-1.12-.48-.12a9.16,9.16,0,0,1,1.36,2.17.5.5,0,0,1-.72.63L49,282.7c.07.27.12.54.17.81a.5.5,0,0,1-.7.53,6.42,6.42,0,0,1-.65-.34,1.73,1.73,0,0,1-.09.21.5.5,0,0,1-.71.18l-.1-.06-.05,1.21a.5.5,0,0,1-.76.4,2.66,2.66,0,0,1-.34-.25.5.5,0,0,1-.2.19.49.49,0,0,1-.49,0,5.39,5.39,0,0,1-.5-.35,14.45,14.45,0,0,1-.65,2.35.5.5,0,0,1-.89.1c-.1-.15-.2-.31-.29-.47a2.45,2.45,0,0,1-.22.34.5.5,0,0,1-.87-.14l-.33-1-.45,2.2A.5.5,0,0,1,40.39,289Z"/><path class="cls-7" d="M37.13,277.51a.5.5,0,0,1-.5-.46,6.32,6.32,0,0,1,.22-2.83,3.45,3.45,0,0,1,5.43-1.4.5.5,0,1,1-.64.77,2.45,2.45,0,0,0-3.86,1,5.59,5.59,0,0,0-.15,2.39.5.5,0,0,1-.46.54Z"/><path class="cls-7" d="M33.05,282.26a20.18,20.18,0,0,0-3.92-.44,30.41,30.41,0,0,0-3.94.18l-1,.11a3.16,3.16,0,0,0-.89.19,2.29,2.29,0,0,0-.66.57c-.23.24-.44.48-.64.73a3.43,3.43,0,0,0-.81,1.58,1.69,1.69,0,0,0,.36,1.46.5.5,0,0,1-.7.71l0,0h0a2.6,2.6,0,0,1-.41-2.3,4.6,4.6,0,0,1,1.09-1.86c.23-.26.47-.5.71-.73a2.82,2.82,0,0,1,.89-.66,4,4,0,0,1,1.05-.21l1-.1c1.33-.12,2.67-.14,4-.18h4a.5.5,0,0,1,0,1Z"/><path class="cls-7" d="M26.93,285.54l-2.25,8a.5.5,0,0,1-1-.2l1.13-9,.92.33a43.7,43.7,0,0,0-2.91,5.25l-.9-.43a13.31,13.31,0,0,0,1.26-5l.92.3L21.29,289a.5.5,0,0,1-.86-.5A39.79,39.79,0,0,0,23,282l.93.36a8.2,8.2,0,0,1-3.86,3.88.5.5,0,0,1-.68-.64,24.43,24.43,0,0,1,4.2-6.85.5.5,0,0,1,.79.62,8.34,8.34,0,0,1-4.12,3.06.5.5,0,0,1-.57-.76A38.48,38.48,0,0,1,23,277.74l.7.71a8.59,8.59,0,0,1-2.7,1.67.5.5,0,0,1-.55-.8,20.55,20.55,0,0,1,5-4,.5.5,0,0,1,.63.75,4.8,4.8,0,0,1-4.45,1.67h0a.49.49,0,0,1-.24-.85c2.06-1.77,4.56-2.46,6.63-3.92h0a.05.05,0,0,1,.07,0,.05.05,0,0,1,0,.06c-1.11,1.71-3,2.75-4.13,4.25h0l-.53-.81,3.33-1.1a.5.5,0,0,1,.53.8l-5.43,6.24a.5.5,0,0,1-.84-.52,9,9,0,0,1,5.63-5.11.5.5,0,0,1,.62.33.5.5,0,0,1-.06.42c-4,6-8,12.11-11,18.65a0,0,0,0,0,0,0l-.85-.53c-.67-1-.8-1.46-.7-1.79a1,1,0,0,1,.85-.54c.41-.08.95-.06,1.35-.15a1.34,1.34,0,0,0,.84-.56c.84-1,1.68-1.94,2.46-2.95s1.55-2,2.27-3.1a34.74,34.74,0,0,0,2-3.28h0a.5.5,0,0,1,.89.45l0,0a23.7,23.7,0,0,0-2.33,9.06l-1-.22a44.3,44.3,0,0,0,2.44-7.38l1,.25a27.33,27.33,0,0,0-.33,14,.5.5,0,0,1-1,.23,28.33,28.33,0,0,1,.34-14.5.5.5,0,0,1,1,.25A45.28,45.28,0,0,1,22.86,293a.5.5,0,0,1-1-.22,24.7,24.7,0,0,1,2.43-9.45l.87.49h0c-.81,1-1.58,2-2.32,3.09s-1.49,2.1-2.2,3.17l-2.15,3.21a1.36,1.36,0,0,0-.34,1c0,.42.15.93.16,1.36,0,.82-.16,1.54-2.26.68l-.88-.36a.09.09,0,0,1,0-.17h0c3.08-6.63,7.1-12.73,11.09-18.78l.56.75a8,8,0,0,0-5,4.53l-.84-.52,5.43-6.24.53.8-3.33,1.1h0a.49.49,0,0,1-.49-.82h0c1.55-1.47,3.47-2.13,4.79-3.63L28,273h0c-1.91,1.7-4.37,2.76-6,4.56l-.26-.85h0a3.8,3.8,0,0,0,3.5-1.31l.63.75A19.56,19.56,0,0,0,21.15,280l-.55-.8A7.59,7.59,0,0,0,23,277.71a.5.5,0,0,1,.7.71,37.43,37.43,0,0,0-3.16,3.84L20,281.5a7.35,7.35,0,0,0,3.62-2.7l.79.62a23.43,23.43,0,0,0-4,6.57l-.68-.64a7.21,7.21,0,0,0,3.38-3.41.5.5,0,0,1,.93.36A40.81,40.81,0,0,1,21.32,289l-.86-.5,2.82-4.24a.5.5,0,0,1,.92.3,14.3,14.3,0,0,1-1.36,5.33.5.5,0,0,1-.9-.43,44.72,44.72,0,0,1,3-5.37.5.5,0,0,1,.92.33l-1.13,9-1-.2,2.25-8a.5.5,0,1,1,1,.27Z"/><path class="cls-7" d="M40.13,263a32,32,0,0,0,3.59-.27q1.79-.22,3.56-.57c1.19-.21,2.37-.47,3.55-.7a3.79,3.79,0,0,0,1.72-.81,2.68,2.68,0,0,1,.87-.39c.3-.08.61-.06,1,.73l0,1a19.23,19.23,0,0,0-5.26.23A46.25,46.25,0,0,0,44,263.68l.07-.92a53.12,53.12,0,0,0,7.31,3l-.35.93a4.62,4.62,0,0,0-2.82-.27l-.16-1,6.22-.67-.14,1a1.83,1.83,0,0,0-2.09.58l-.16-.73a7,7,0,0,0,5,.67.5.5,0,0,1,.43.88L55,268.89v-.78a10.82,10.82,0,0,0,4.38,2.17l-.25,1a1.57,1.57,0,0,0-1.53.42l-.15-.79a4.81,4.81,0,0,1,2.3,2.35.5.5,0,0,1-.91.41h0a3.81,3.81,0,0,0-1.82-1.85.5.5,0,0,1-.24-.66.54.54,0,0,1,.09-.13,2.56,2.56,0,0,1,2.54-.7.5.5,0,0,1-.25,1,11.81,11.81,0,0,1-4.78-2.37.5.5,0,0,1-.07-.7l.08-.07,2.25-1.78.43.88a7.94,7.94,0,0,1-5.68-.77h0a.5.5,0,0,1-.19-.67l0-.06a2.81,2.81,0,0,1,3.29-.91.5.5,0,0,1-.13,1h0l-6.22.67a.5.5,0,0,1-.16-1,5.61,5.61,0,0,1,3.44.33.5.5,0,0,1-.35.93,54.12,54.12,0,0,1-7.45-3.06.5.5,0,0,1-.23-.67.5.5,0,0,1,.3-.25A47,47,0,0,1,49,261.25a20.73,20.73,0,0,1,5.53-.25.22.22,0,0,1,.2.23v0l-.18.74c-.21.86-.49.95-.79.94a2.66,2.66,0,0,1-.92-.16,3.49,3.49,0,0,0-1.86-.32c-1.2.11-2.39.23-3.59.4s-2.39.34-3.58.53-2.39.38-3.58.62a.5.5,0,0,1-.2-1Z"/><path class="cls-7" d="M28.9,279.1a.5.5,0,0,1-.09-1,3.63,3.63,0,0,0,2.29-1.46,7.45,7.45,0,0,0,.44-.73,7.38,7.38,0,0,1,.62-1,2.84,2.84,0,0,1,1.12-.87l-.49-.57a.5.5,0,0,1,0-.63l.35-.46a.5.5,0,1,1,.8.6l-.11.14.84,1a.5.5,0,0,1,.05.58.51.51,0,0,1-.54.23,1.37,1.37,0,0,0-1.21.62,6.31,6.31,0,0,0-.53.85,8.65,8.65,0,0,1-.5.82A4.64,4.64,0,0,1,29,279.09Z"/><path class="cls-7" d="M33.1,307.2a.5.5,0,0,1-.46-.32,4.62,4.62,0,0,1,.88-5.06.5.5,0,0,1,.66.75,3.61,3.61,0,0,0-.62,3.94.5.5,0,0,1-.28.65A.49.49,0,0,1,33.1,307.2Z"/><path class="cls-7" d="M63.12,279.67a7.82,7.82,0,0,0,2,.87c.72.22,1.47.41,2.23.59s1.53.37,2.31.62A8.8,8.8,0,0,1,72,282.82a.85.85,0,0,1-1,1.4l-.05,0h0a7.33,7.33,0,0,0-1.84-1c-.7-.28-1.43-.51-2.17-.76s-1.5-.49-2.25-.78a8.8,8.8,0,0,1-2.2-1.18.5.5,0,0,1,.58-.81Z"/><path class="cls-7" d="M34,302a133.24,133.24,0,0,1,19.86.31h0l-.54.59a8.64,8.64,0,0,1-.78-3.69,8.27,8.27,0,0,1,.77-3.69.52.52,0,0,1,1,.16h0a28.58,28.58,0,0,1,.14,3.52,34.77,34.77,0,0,1-.13,3.52l0,.16a.48.48,0,0,1-.52.43h0A132.23,132.23,0,0,0,34.09,303a.5.5,0,0,1-.06-1Z"/><path class="cls-7" d="M53.61,295.67q-2.91-.05-5.81,0a51.56,51.56,0,0,0-5.78.28,19.6,19.6,0,0,0-5.55,1.45,18,18,0,0,0-4.82,3,.5.5,0,0,1-.67-.75l.07-.05A27.82,27.82,0,0,1,42,295.56c1.93-.26,3.88-.32,5.8-.46s3.86-.26,5.79-.44a.5.5,0,1,1,.09,1Z"/><path class="cls-7" d="M33.78,303.88a.5.5,0,0,1-.41-.21,3.57,3.57,0,0,0-1.11-.89c-.22-.14-.44-.27-.65-.42a2.24,2.24,0,0,1-1-2.64.5.5,0,0,1,.9.44c-.21.43.19,1,.68,1.4.19.14.38.26.58.38a4.39,4.39,0,0,1,1.4,1.17.5.5,0,0,1-.41.79Z"/><path class="cls-7" d="M58.49,288.88a4.72,4.72,0,0,1,1.39-1.07,6.28,6.28,0,0,1,.75-.32c.26-.06.5-.27.81,0a1.92,1.92,0,0,0,.44.31,3.85,3.85,0,0,0,.41.06c.27,0,.54.06.8.09a8.38,8.38,0,0,0,1.57,0h0l-.33.84c-.16-.18-.42-.36-.69-.65a2.48,2.48,0,0,1-.53-1l-.41-1.84a33.86,33.86,0,0,0-1-3.52,35,35,0,0,0-3.17-6.62.5.5,0,1,1,.85-.52,36,36,0,0,1,3.26,6.81,34.82,34.82,0,0,1,1.08,3.62c.15.59.27,1.27.4,1.8a1.48,1.48,0,0,0,.31.62c.15.18.41.35.67.63h0a.49.49,0,0,1-.33.83h0a5.89,5.89,0,0,0-1.5.3c-.25.09-.49.17-.73.28a3.52,3.52,0,0,0-.36.17,1.75,1.75,0,0,0-.32.42c-.2.37-.47.23-.72.26a7.09,7.09,0,0,1-.77-.06,5.64,5.64,0,0,1-1.64-.47h0a.63.63,0,0,1-.29-.84A.66.66,0,0,1,58.49,288.88Z"/><path class="cls-7" d="M42.21,330.21c-2.66.47-2.66-.75-3.14-1.67s-.35-2.21-.64-3.24a9.33,9.33,0,0,0-.57-1.46c-.21-.48-.41-1-.61-1.45s-.37-1-.54-1.47a12.52,12.52,0,0,0-.55-1.31c-.86-1.75-2-3.5-2.89-5.35a14.64,14.64,0,0,1-1.14-3,6.32,6.32,0,0,1,0-3.36A5.62,5.62,0,0,1,34,305.1a9.63,9.63,0,0,1,2.76-1.71,7.06,7.06,0,0,1,3.27-.6,5.15,5.15,0,0,1,3.08,1.44,18.46,18.46,0,0,1,3.35,5.24c.39.79,1.28,1.36,1.93,2.3a5.55,5.55,0,0,1,.69,1.49,7.74,7.74,0,0,0,.64,1.27.5.5,0,0,1-.85.53,8.77,8.77,0,0,1-.76-1.42,4.58,4.58,0,0,0-.6-1.25,9.16,9.16,0,0,0-1-1,5.14,5.14,0,0,1-1-1.26c-.54-1-1-1.85-1.48-2.69a9.77,9.77,0,0,0-1.75-2.24,3.85,3.85,0,0,0-2.34-1.07,6,6,0,0,0-2.65.53,8.33,8.33,0,0,0-2.38,1.49,4.26,4.26,0,0,0-1.45,2.16c-.46,1.69.3,3.58,1.18,5.3s2.1,3.37,3.13,5.22c.27.45.5.95.74,1.45s.4.9.61,1.34.44.88.68,1.31a5.83,5.83,0,0,0,.82,1.24c.68.76,1.69,1.31,2.4,2s1.65,1.31.06,3.51A1.34,1.34,0,0,1,42.21,330.21Z"/></svg>