<svg id="Layer_1" data-name="Layer 1" xmlns="http://www.w3.org/2000/svg" viewBox="0 0 1320 670"><defs><style>.cls-1{fill:#ed3766;}.cls-2{fill:#fbc810;}.cls-3{fill:#51c3f0;}.cls-4{fill:#fff8ce;}.cls-5{fill:#fff8cd;}.cls-6{fill:#ee3766;}</style></defs><title>yg-beatles-170816-0918-wireframes-index</title><path class="cls-1" d="M325,291a2.06,2.06,0,0,1-2-1.42L260.7,99a2.06,2.06,0,0,1,3.91-1.28L327,288.25a2.06,2.06,0,0,1-2,2.7Z"/><polygon class="cls-1" points="316.49 289.17 328.72 300.13 332.1 284.06 316.49 289.17"/><path class="cls-2" d="M366.16,217.44a2.06,2.06,0,0,1-1.7-.9l-15.11-22.13a2.06,2.06,0,1,1,3.4-2.32l15.11,22.13a2.06,2.06,0,0,1-1.7,3.22Z"/><polygon class="cls-2" points="358.02 218.02 372.82 225.14 371.59 208.76 358.02 218.02"/><path class="cls-3" d="M323.67,317a2.06,2.06,0,0,1-1.65-.82l-66.15-88a2.06,2.06,0,1,1,3.29-2.47l66.15,88a2.06,2.06,0,0,1-1.64,3.3Z"/><polygon class="cls-3" points="315.67 317.92 330.77 324.35 328.79 308.05 315.67 317.92"/><path class="cls-3" d="M94.62,138a2.06,2.06,0,0,1-.61-4l56-17.48a2.06,2.06,0,1,1,1.23,3.93l-56,17.48A2.07,2.07,0,0,1,94.62,138Z"/><polygon class="cls-3" points="94.46 127.34 83.33 139.41 99.36 143.02 94.46 127.34"/><path class="cls-2" d="M222.49,403.49h-.24a2.06,2.06,0,0,1-1.8-2.29L240.69,229.8a2.06,2.06,0,0,1,4.09.48L224.53,401.67A2.06,2.06,0,0,1,222.49,403.49Z"/><polygon class="cls-2" points="214.62 398.08 221.1 413.17 230.93 400.01 214.62 398.08"/><path class="cls-2" d="M81.37,440.9a2.06,2.06,0,0,1-1.67-3.26l151-210.83a2.06,2.06,0,1,1,3.35,2.4L83,440A2.06,2.06,0,0,1,81.37,440.9Z"/><polygon class="cls-2" points="76.1 432.11 74.49 448.45 89.45 441.67 76.1 432.11"/><path class="cls-2" d="M191.75,256.91a2.06,2.06,0,0,1-1.32-3.64l36.08-30.12a2.06,2.06,0,1,1,2.64,3.16l-36.08,30.12A2.05,2.05,0,0,1,191.75,256.91Z"/><polygon class="cls-2" points="188.33 247 182.68 262.42 198.86 259.61 188.33 247"/><path class="cls-3" d="M68.6,294.7a2.06,2.06,0,0,1-.87-3.92l156-72.74a2.06,2.06,0,0,1,1.74,3.73l-156,72.74A2,2,0,0,1,68.6,294.7Z"/><polygon class="cls-3" points="67.31 284.19 57.89 297.64 74.25 299.07 67.31 284.19"/><path class="cls-1" d="M338.86,601.37a2.06,2.06,0,0,1-2-1.58L247.47,229.16a2.06,2.06,0,1,1,4-1l89.39,370.63a2.06,2.06,0,0,1-2,2.54Z"/><polygon class="cls-1" points="330.32 598.9 341.63 610.8 346.28 595.05 330.32 598.9"/><path class="cls-1" d="M462.34,510.24a2.06,2.06,0,0,1-2.06-2l-3.21-114.66a2.06,2.06,0,1,1,4.12-.12l3.21,114.66a2.06,2.06,0,0,1-2,2.12Z"/><polygon class="cls-1" points="454.07 506.01 462.68 519.99 470.49 505.55 454.07 506.01"/><path class="cls-3" d="M557.85,569.2a2.06,2.06,0,0,1-1.84-1.13l-88.9-174.91a2.06,2.06,0,1,1,3.67-1.87l88.9,174.91a2.06,2.06,0,0,1-1.83,3Z"/><polygon class="cls-3" points="549.44 568.72 563.2 577.67 564.08 561.27 549.44 568.72"/><path class="cls-2" d="M357.67,377.76a2.06,2.06,0,0,1-1.88-1.22l-8.86-20a2.06,2.06,0,1,1,3.76-1.67l8.86,20a2.06,2.06,0,0,1-1.88,2.89Z"/><polygon class="cls-2" points="349.19 376.83 362.46 386.5 364.2 370.17 349.19 376.83"/><circle class="cls-4" cx="37.66" cy="307.59" r="11.96"/><circle class="cls-4" cx="168.07" cy="275.28" r="11.96"/><circle class="cls-4" cx="245.47" cy="210.67" r="11.96"/><circle class="cls-4" cx="341.1" cy="178.36" r="11.96"/><circle class="cls-4" cx="385.21" cy="242.97" r="11.96"/><circle class="cls-4" cx="459.03" cy="372.2" r="11.96"/><circle class="cls-4" cx="370.73" cy="404.5" r="11.96"/><circle class="cls-4" cx="346.76" cy="630.64" r="11.96"/><circle class="cls-4" cx="463.1" cy="540.71" r="11.96"/><circle class="cls-4" cx="573.96" cy="598.33" r="11.96"/><circle class="cls-4" cx="342.05" cy="339.89" r="11.96"/><circle class="cls-4" cx="257.43" cy="81.45" r="11.96"/><circle class="cls-4" cx="167" cy="113.75" r="11.96"/><circle class="cls-4" cx="63.48" cy="146.06" r="11.96"/><path class="cls-5" d="M344.07,88a.5.5,0,0,1-.39-.81,6.56,6.56,0,0,1,.61-.67.5.5,0,0,1,.7.71,5.67,5.67,0,0,0-.52.57A.5.5,0,0,1,344.07,88Z"/><path class="cls-5" d="M338.49,87.72c.47.65.9,1.26,1.36,1.85s.94,1.17,1.44,1.78a20.14,20.14,0,0,1,1.43,1.94,7.88,7.88,0,0,1,1,2.33h0l-.8-.05A28.47,28.47,0,0,0,347.28,91,9.13,9.13,0,0,0,349,88.51a1.81,1.81,0,0,0-.63-2.27.51.51,0,1,1,.39-.93l.1.06,0,0a2.35,2.35,0,0,1,.92,1.64,3.24,3.24,0,0,1-.28,1.71,11.51,11.51,0,0,1-2,2.53,28.47,28.47,0,0,0-3.83,5,.38.38,0,0,1-.51.15l0,0-.25-.18h0a17.27,17.27,0,0,1-3.45-3.39,11.21,11.21,0,0,1-1.32-2.2,6.54,6.54,0,0,1-.61-2.56.52.52,0,0,1,.94-.31Z"/><path class="cls-5" d="M333.4,87.49a18.6,18.6,0,0,0-2.22,3.84,10.43,10.43,0,0,1-1.21,2,4.8,4.8,0,0,1-.85.82,4.07,4.07,0,0,0-1,.84l0,0a.62.62,0,1,1-.29-1,1.07,1.07,0,0,0,.56,0,1.54,1.54,0,0,0,.47-.25,4.39,4.39,0,0,0,.75-.77,9.63,9.63,0,0,0,1.1-1.92,33.38,33.38,0,0,1,1.87-4.23.5.5,0,1,1,.86.52Z"/><path class="cls-5" d="M335.33,91.3a2.2,2.2,0,0,1-1.45-.56.5.5,0,0,1,0-.71h0l0-.07a1.72,1.72,0,0,1,.17-1.23,1.68,1.68,0,0,1,3.13.95,1.83,1.83,0,0,1-1.36,1.55A1.92,1.92,0,0,1,335.33,91.3Zm-.45-1.1a1.09,1.09,0,0,0,.69.07.84.84,0,0,0,.62-.68.68.68,0,0,0-.24-.54.61.61,0,0,0-1,.16.68.68,0,0,0-.05.59A.5.5,0,0,1,334.88,90.21Z"/><path class="cls-5" d="M335.12,90.17a3.82,3.82,0,0,1-.09.88l-.49,1c-.36.72-.68,1.47-1,2.21-.67,1.48-1.28,3-1.9,4.49-1.22,3-2.36,6.06-3.56,9.08s-2.46,6.06-3.82,9a2.28,2.28,0,0,0,.07,2,5.34,5.34,0,0,0,1.57,1.6,24,24,0,0,1,2,1.44,4.07,4.07,0,0,1,1.46,2.29h0l-.92-.18a9.43,9.43,0,0,1,4.69-3.9h0l-.32.47c-.21-2.42-.26-4.84-.23-7.25,0-1.2,0-2.41.09-3.61a33,33,0,0,1,.45-3.58A49.17,49.17,0,0,0,334,99c.19-2.39.33-4.78.29-7.16h0a.49.49,0,0,1,.4-.49h0c.14,0,.14-.05.14-.05a.64.64,0,0,0,0-.31,5.29,5.29,0,0,0-.1-.55l-.07-.3,0-.08s0-.08,0,0A.33.33,0,0,0,335.12,90.17Zm.14-1a.81.81,0,0,1,.43.47,1.39,1.39,0,0,1,0,.15l0,.07.07.3a6.15,6.15,0,0,1,.12.67,1.53,1.53,0,0,1-.14.89,1.14,1.14,0,0,1-.88.56l.43-.49h0L335.07,99a58.79,58.79,0,0,0,0,7.22,34.59,34.59,0,0,1-.06,3.6c-.09,1.19-.25,2.38-.38,3.57l-.78,7.13v.05a.5.5,0,0,1-.32.41h0a8.43,8.43,0,0,0-4.19,3.48.5.5,0,0,1-.92-.15v0h0a3.12,3.12,0,0,0-1.09-1.76,23.89,23.89,0,0,0-1.9-1.45,6.18,6.18,0,0,1-1.75-1.92,3.07,3.07,0,0,1-.09-2.67c1.42-3,2.69-5.91,3.92-8.93l3.63-9,1.8-4.54.92-2.27.23-.57.11-.28.17-.37A6.51,6.51,0,0,1,335.26,89.18Z"/><path class="cls-5" d="M320.84,72a5.09,5.09,0,0,0-1,3.05,7.93,7.93,0,0,0,.75,3.31,11.72,11.72,0,0,0,4.55,5.11,21,21,0,0,0,6.56,2.61A44.25,44.25,0,0,0,346,87a8.63,8.63,0,0,0,3.31-1,7.92,7.92,0,0,0,2.46-2.41,16.54,16.54,0,0,0,2.31-6.66,34.22,34.22,0,0,0,.34-7.17,26.36,26.36,0,0,0-1.28-7,8.07,8.07,0,0,0-4.35-5.22,62.66,62.66,0,0,0-6.7-2.66,17,17,0,0,0-7-.83,18.21,18.21,0,0,0-6.66,2.45,29.66,29.66,0,0,0-5.87,4.12,17.81,17.81,0,0,0-4.14,5.76,16,16,0,0,0-1,3.4,15.66,15.66,0,0,0-.19,1.77,3.85,3.85,0,0,0,.21,1.76v0a.54.54,0,1,1-1,0,8.18,8.18,0,0,0,.19-1.86,16.26,16.26,0,0,1,.2-1.84,16.56,16.56,0,0,1,1.08-3.53,18.41,18.41,0,0,1,4.27-6,30.24,30.24,0,0,1,6-4.2A18.8,18.8,0,0,1,335,53.38a17.6,17.6,0,0,1,7.28.85A63.1,63.1,0,0,1,349,56.92,7.19,7.19,0,0,1,352,59.2a9.81,9.81,0,0,1,1,1.58c.26.56.51,1.13.71,1.71a27.65,27.65,0,0,1,1.33,7.2,34.85,34.85,0,0,1-.31,7.31,17.16,17.16,0,0,1-2.39,7,8.62,8.62,0,0,1-2.67,2.63,9.34,9.34,0,0,1-3.58,1.11,44.87,44.87,0,0,1-7.32.26,44,44,0,0,1-7.27-.92,22,22,0,0,1-6.9-2.65,12.79,12.79,0,0,1-5-5.51,13.76,13.76,0,0,1-1.12-7.75l0-.11a1.34,1.34,0,1,1,2.38,1Z"/><path class="cls-5" d="M349.61,70.12a1,1,0,0,1,.65,1,6,6,0,0,1-.07,1.17,5.25,5.25,0,0,1-.94,2.28,3.67,3.67,0,0,1-2,1.4,4.35,4.35,0,0,1-2.27-.06,6,6,0,0,1-2-.94,4.56,4.56,0,0,1-1.48-1.65,4.87,4.87,0,0,1,.17-4.31,7,7,0,0,1,3.15-3,5.6,5.6,0,0,1,2.19-.58,3.62,3.62,0,0,1,3.74,2.43l.63,2.05a7.53,7.53,0,0,1,.44,2.22,3.13,3.13,0,0,1-.25,1.23,3.29,3.29,0,0,1-.75,1l-.27-.87h0c.16.11.43.05.69-.15a3.25,3.25,0,0,0,.67-.79c.38-.61.68-1.31,1-2a10.8,10.8,0,0,1,1-2,2.72,2.72,0,0,1,1-.79,1.82,1.82,0,0,1,1.43-.07l.1,0a.52.52,0,0,1-.37,1,.53.53,0,0,1-.2-.13c-.32-.33-1.1-.16-1.56.31a6.76,6.76,0,0,0-1.08,1.85c-.37.65-.61,1.33-.94,2a5.28,5.28,0,0,1-.59,1,1.61,1.61,0,0,1-1.27.7h0a.49.49,0,0,1-.29-.85h0a1.92,1.92,0,0,0,.68-1.5,7.39,7.39,0,0,0-.38-1.93l-.57-2a2.89,2.89,0,0,0-1.07-1.45,3.88,3.88,0,0,0-3.65,0,6.35,6.35,0,0,0-3,2.57,4.24,4.24,0,0,0-.2,3.85,4.66,4.66,0,0,0,3.17,2.26,3.7,3.7,0,0,0,1.92-.1,1.79,1.79,0,0,0,1.18-1.24,4.75,4.75,0,0,0,0-1.81l-.11-1a1,1,0,0,1,.45-1.07A.89.89,0,0,1,349.61,70.12Z"/><path class="cls-5" d="M326.31,68.74a9.88,9.88,0,0,0,4.86.89,7.76,7.76,0,0,0,2.34-.58,6.41,6.41,0,0,0,1.91-1.44,4.07,4.07,0,0,0,1.06-2,2,2,0,0,0-.78-1.91c-1.17-1-2.93-.94-4.43-.57a7.28,7.28,0,0,0-2.15.9,2.33,2.33,0,0,0-1.19,1.61,5.09,5.09,0,0,0,1.26,4.17A4,4,0,0,0,331,70.88a3,3,0,0,0,2.06-.29A5.13,5.13,0,0,0,335.56,67h0a.5.5,0,0,1,1,.16,6,6,0,0,1-2.93,4.46,4.08,4.08,0,0,1-2.82.4,5.08,5.08,0,0,1-2.41-1.42,6.17,6.17,0,0,1-1.56-5.15,3,3,0,0,1,.63-1.38,4.34,4.34,0,0,1,1.1-.92,8.27,8.27,0,0,1,2.5-1A7.65,7.65,0,0,1,333.7,62a4.48,4.48,0,0,1,2.49,1.09,2.74,2.74,0,0,1,.93,2.57A4.73,4.73,0,0,1,335.84,68a7.08,7.08,0,0,1-2.09,1.56,8.31,8.31,0,0,1-2.51.67c-1.72.21-3.44.12-5.17.38a1,1,0,1,1,.25-1.88Z"/><path class="cls-5" d="M338.25,76.4a3.82,3.82,0,0,1-.86-.1,3.25,3.25,0,1,1,1.88-6.21.5.5,0,0,1,.15.09c.91.78,2.18,3.71,1.72,4.8a.88.88,0,0,1-.66.54A3.14,3.14,0,0,1,338.25,76.4Zm0-5.49a2.54,2.54,0,0,0-1.63.68,2.25,2.25,0,1,0,3.23,3.12.5.5,0,0,1,.37-.18A6.57,6.57,0,0,0,338.83,71,1.8,1.8,0,0,0,338.28,70.91Zm2,4.13.05-.5h0Z"/><path class="cls-5" d="M343.62,78.36a3.62,3.62,0,0,0-1.83-1.69h0l.68-.55.92,4.3h0l-1.28.09a2.39,2.39,0,0,0,0-2,3.83,3.83,0,0,0-1.14-1.65h0l.87-.31a9.14,9.14,0,0,1-1,3.76.5.5,0,0,1-.67.22.51.51,0,0,1-.27-.38l-.34-2.72.94.17a8.62,8.62,0,0,1-1.29,1.87.5.5,0,0,1-.85-.21,6.43,6.43,0,0,1-.21-1.73l.95.23a1.59,1.59,0,0,1-1.11.83.5.5,0,0,1-.58-.39v0l-.1-1,.79.35-1.68,1.24a.5.5,0,0,1-.7-.1.51.51,0,0,1-.09-.24,2.76,2.76,0,0,1,.45-1.86l.7.69-1,.66a.5.5,0,0,1-.7-.12.51.51,0,0,1-.09-.23,5.44,5.44,0,0,1,.05-1.62l.76.51a14.44,14.44,0,0,1-3.08,1.47.5.5,0,0,1-.64-.62,9.32,9.32,0,0,1,1-2.12v0l.84.55a2.42,2.42,0,0,1-2,.83h0a.2.2,0,0,1-.2-.29l0,0,1.3-2.58v0l.65.71c-.64.25-1.26.55-1.88.84l-.92.46c-.3.17-.64.24-.85.6a.6.6,0,1,1-.46-.89c.41,0,.67-.2,1-.35l.9-.49c.59-.34,1.19-.68,1.76-1.06a.49.49,0,0,1,.66.7h0l0,0L332,76.44l-.18-.32h0a1.71,1.71,0,0,0,1.21-1,.5.5,0,1,1,.93.39l0,.07-.06.1v0a8.32,8.32,0,0,0-.88,1.9L332.4,77a13.44,13.44,0,0,0,2.87-1.37.5.5,0,0,1,.76.51,4.44,4.44,0,0,0,0,1.32l-.78-.35,1-.66a.5.5,0,0,1,.7.69,1.76,1.76,0,0,0-.29,1.18l-.79-.34,1.68-1.24a.5.5,0,0,1,.7.11.51.51,0,0,1,.09.24l.1,1-.59-.44a.59.59,0,0,0,.4-.3.5.5,0,0,1,.95.22h0a5.43,5.43,0,0,0,.18,1.46l-.85-.21a7.62,7.62,0,0,0,1.14-1.65.5.5,0,0,1,.94.17l.34,2.72-.94-.17a8.15,8.15,0,0,0,.88-3.35v-.06a.48.48,0,0,1,.87-.25h0a9.24,9.24,0,0,1,1.07,2.07c.28.73.34,1.47.65,2.28a.65.65,0,1,1-1.24.33l0-.24h0l-.63-4.35v0a.49.49,0,0,1,.69-.52h0a4.61,4.61,0,0,1,2.35,2.16.5.5,0,1,1-.89.46Z"/><path class="cls-5" d="M342.65,67.87h0a.5.5,0,0,1-.49-.51A2.45,2.45,0,0,0,339,65a5.58,5.58,0,0,0-2,1.38.5.5,0,1,1-.69-.73A6.34,6.34,0,0,1,338.65,64a3.45,3.45,0,0,1,4.5,3.34A.5.5,0,0,1,342.65,67.87Z"/><path class="cls-5" d="M330.42,66.37a.5.5,0,0,1-.42-.23,39.37,39.37,0,0,0-5.73-7,2.11,2.11,0,0,0-.58-.44,2.25,2.25,0,0,0-.65-.12,6.35,6.35,0,0,0-2.32.06A1.84,1.84,0,0,0,319.37,60a.5.5,0,0,1-.58.41.5.5,0,0,1-.41-.58,2.79,2.79,0,0,1,2.07-2.07,7.19,7.19,0,0,1,2.69-.09,3.1,3.1,0,0,1,.95.2,3,3,0,0,1,.87.64,40.39,40.39,0,0,1,5.88,7.13.5.5,0,0,1-.42.77Z"/><path class="cls-5" d="M318.77,64.13a1.37,1.37,0,0,0-1.07,0l-1,.24-2,.49c-1.34.35-2.68.7-4,1.12a.5.5,0,0,1-.37-.92l.07,0,8.49-3.33.14,1a43.72,43.72,0,0,0-6-.05l-.06-1a13.31,13.31,0,0,0,5-1.26l.17.95L313,60.84a.5.5,0,0,1,0-1,39.8,39.8,0,0,0,7-.82l.13,1a8.21,8.21,0,0,1-5.26-1.54.5.5,0,0,1,.24-.9,24.43,24.43,0,0,1,8,.42.5.5,0,0,1-.17,1,8.35,8.35,0,0,1-4.66-2.15.5.5,0,0,1,.4-.86,38.44,38.44,0,0,1,5,1l-.29,1a8.58,8.58,0,0,1-2.76-1.58.5.5,0,0,1,.44-.87A20.56,20.56,0,0,1,327,57.92a.5.5,0,0,1-.36.92,4.8,4.8,0,0,1-3.59-3.11h0l.1-.46a.32.32,0,0,1,.53-.17,5.13,5.13,0,0,0,1.77,1l1.88.63c1.26.42,2.52.82,3.82,1.16h0a.49.49,0,0,1-.22,1h-.06q-3.18-.51-6.32-1.29l.46-.85,2.56,2.4a.5.5,0,0,1-.45.85l-8.07-1.79a.5.5,0,0,1,.05-1,9,9,0,0,1,7.17,2.5h0a.49.49,0,0,1-.4.84c-3.64-.49-7.22-1.18-10.84-1.53a35.3,35.3,0,0,0-5.43-.21,18.58,18.58,0,0,0-5.29.95h0l0-1q7.55,1.38,15.22,2a.5.5,0,0,1,0,1,23.7,23.7,0,0,0-9.08,2.28l-.26-.95a44.29,44.29,0,0,0,7.63-1.38h0l.24,1a18.65,18.65,0,0,0-3.43.87,20.71,20.71,0,0,0-3.23,1.47,22.74,22.74,0,0,0-2.94,2,4.81,4.81,0,0,0-1.06,1.49,2.4,2.4,0,0,1-.55.68c-.2.21-.48.3-1.23-.08h0a1.36,1.36,0,0,1-.65-.73c-.29-.78-.13-1.08.13-1.27a2.82,2.82,0,0,1,.84-.46,8,8,0,0,0,1.83-.64A35.39,35.39,0,0,1,311,64.26q1.66-.77,3.37-1.4t3.48-1.12a.5.5,0,0,1,.27,1h0a45.3,45.3,0,0,1-7.81,1.41.5.5,0,0,1-.26-.95,24.7,24.7,0,0,1,9.46-2.38l0,1q-7.7-.66-15.31-2.06h-.05a.49.49,0,0,1,0-1h0a34.83,34.83,0,0,1,5.53-.46c1.84,0,3.66.09,5.48.24,3.64.32,7.26.85,10.88,1l-.39.85h0a8,8,0,0,0-6.36-2.22l.05-1L327.36,59l-.45.85-2.56-2.4a.5.5,0,0,1,.46-.85q3.09.77,6.23,1.27l-.28,1h0A24.32,24.32,0,0,0,327.23,57c-.61-.26-1.23-.48-1.85-.7a4.5,4.5,0,0,0-2-.26l.62-.64h0a3.8,3.8,0,0,0,2.83,2.45l-.36.92a19.55,19.55,0,0,0-5.6-2.36l.44-.87a7.59,7.59,0,0,0,2.43,1.39.5.5,0,0,1-.29,1,37.46,37.46,0,0,0-4.88-.94l.4-.86a7.35,7.35,0,0,0,4.1,1.89l-.17,1a23.43,23.43,0,0,0-7.7-.4l.24-.9A7.21,7.21,0,0,0,320.07,59a.5.5,0,0,1,.13,1,40.8,40.8,0,0,1-7.13.84l0-1,5.07.45a.5.5,0,0,1,.17.95A14.31,14.31,0,0,1,313,62.6a.5.5,0,0,1-.06-1,44.71,44.71,0,0,1,6.14.05.5.5,0,0,1,.14,1l-8.49,3.33h0l-.29-1c1.37-.19,2.73-.45,4.09-.71l2-.43,1-.22a1.37,1.37,0,0,0,1-.48.65.65,0,1,1,.22,1Z"/><path class="cls-5" d="M353.83,82.17a3.81,3.81,0,0,0,.76-2.48.5.5,0,0,1,.47-.53l.16,0a2.56,2.56,0,0,1,1.83,1.9.5.5,0,0,1-1,.24,11.81,11.81,0,0,1-.2-5.33.5.5,0,0,1,.59-.4l.1,0,2.63,1.12h0l-.57.79A11.39,11.39,0,0,1,357.36,75,10.27,10.27,0,0,1,357,73.6a7.26,7.26,0,0,0-.4-1.4,0,0,0,0,1,0,0,.49.49,0,0,1,.49-.5h.07a2.81,2.81,0,0,1,2.37,2.46.5.5,0,0,1-.91.34h0l-3.56-5.15a.5.5,0,0,1,.79-.61,5.61,5.61,0,0,1,1.35,3.18.5.5,0,0,1-1,.13,54.07,54.07,0,0,1-.87-8V64a.49.49,0,0,1,.84-.33c1.47,1.61,2.92,3.21,4.26,4.93.66.86,1.32,1.73,1.94,2.64.32.44,1,.68,1.43,1.12s.56,1-.12,1.89c0,0,0,0,0,0a.53.53,0,1,1-.66.79l-.21-.3-9.39-13.55,0,0h0a.49.49,0,0,1,.44-.77c2,.15,4.1.08,6.21.31a13.07,13.07,0,0,1,3.13.71c.5.2,1.07.26,1.59.47A2.12,2.12,0,0,1,365.95,63l0,0,.14.23a.47.47,0,0,1-.73.57,7.23,7.23,0,0,0-3.47-1.83,9,9,0,0,0-3.92-.14h0l.38-.76a17,17,0,0,1,.79,3.1,10.4,10.4,0,0,1-.09,3.2v0a.42.42,0,0,1-.48.35h-.06l-.08,0L355,66.76a.5.5,0,1,1,.3-1l3.42,1.07-.62.32,0,0a5.06,5.06,0,0,0,.53-2.83,4.15,4.15,0,0,0-1.15-2.64.44.44,0,0,1,.27-.75h.15a15.18,15.18,0,0,1,4.18.54A24,24,0,0,1,366,63.08l-.59.81h0a1.81,1.81,0,0,1-.77-.17,2.29,2.29,0,0,1-.62-.36,5.42,5.42,0,0,0-1.19-.85,12,12,0,0,0-2.84-.78,25,25,0,0,0-3-.25c-1,0-2.06,0-3.09-.07l.44-.78,0,0,9.39,13.55-.87.49s0,0-.05,0c-1.12-.07-1.38-.49-1.5-1s.11-1.22-.1-1.71a22.84,22.84,0,0,0-1.5-2.78,20.38,20.38,0,0,0-4.11-4.8l.84-.38v0a53.09,53.09,0,0,0,.86,7.83l-1,.13a4.62,4.62,0,0,0-1.11-2.61l.79-.61,3.56,5.15-.91.33A1.83,1.83,0,0,0,357,72.68l.57-.49a0,0,0,0,1,0,0,2.15,2.15,0,0,0-.16,1.32,5.76,5.76,0,0,0,.38,1.27,5.17,5.17,0,0,0,1.56,2.07.48.48,0,0,1-.44.83l-.13,0h0l-2.63-1.12.69-.36A10.82,10.82,0,0,0,357,81l-1,.24a1.57,1.57,0,0,0-1.1-1.14l.62-.51a4.81,4.81,0,0,1-1,3.14.5.5,0,1,1-.8-.6Z"/><path class="cls-5" d="M336.85,62.67a.5.5,0,0,1-.45-.28,1.36,1.36,0,0,0-1.24-.56,6.27,6.27,0,0,0-1,.12,8.92,8.92,0,0,1-1,.13A4.66,4.66,0,0,1,329.91,61a.5.5,0,1,1,.65-.76,3.68,3.68,0,0,0,2.58.87A7.66,7.66,0,0,0,334,61a7.25,7.25,0,0,1,1.16-.14,2.84,2.84,0,0,1,1.38.32l.13-.74a.5.5,0,0,1,.48-.41l.58,0a.51.51,0,0,1,.52.48.5.5,0,0,1-.48.52h-.18l-.23,1.26a.5.5,0,0,1-.42.41Z"/><path class="cls-5" d="M351.46,66.88a.5.5,0,0,1-.43-.25,8.92,8.92,0,0,0-1.35-1.92,2.67,2.67,0,0,0-1.84-.85,1.42,1.42,0,0,0-1.37,1,.5.5,0,1,1-1-.22,2.43,2.43,0,0,1,2.33-1.76h.06A3.63,3.63,0,0,1,350.39,64a9.69,9.69,0,0,1,1.51,2.13.5.5,0,0,1-.43.75Z"/><path class="cls-5" d="M325.19,95.11a1.11,1.11,0,0,1-.85-.54l-.53-.79c-.34-.53-.65-1.07-1-1.61-.59-1.09-1.14-2.18-1.66-3.28a47.9,47.9,0,0,0-3.37-6.31h0a.5.5,0,0,1,.79-.61,32.39,32.39,0,0,1,4,6.22c.58,1.07,1.13,2.14,1.73,3.16q.44.77.92,1.51l.49.72a1,1,0,0,1,.23.92v0A.71.71,0,0,1,325.19,95.11Z"/><path class="cls-5" d="M352.25,86.94c.44-1,1.25-.93,2-1.11s1.51-.1,2.25-.16a12.54,12.54,0,0,0,2.18-.34c.71-.17,1.43-.3,2.15-.44,2.88-.54,5.77-.94,8.66-1.35s5.75-.92,8.57-1.59a57.9,57.9,0,0,0,8.26-2.69.5.5,0,1,1,.39.92h0a86.07,86.07,0,0,1-8.48,2.34c-2.86.65-5.75,1.08-8.64,1.5s-5.76.86-8.6,1.49c-.71.16-1.42.3-2.12.49a8.57,8.57,0,0,0-2.07.7c-.66.33-1.31.7-2,1s-1.26.76-2.21.17h0A.75.75,0,0,1,352.25,86.94Z"/><path class="cls-5" d="M387,79.87a17.67,17.67,0,0,0-.82,9.32,19.77,19.77,0,0,0,1.47,4.48c.17.36.32.72.51,1.07a.76.76,0,0,0,.47.43,2.13,2.13,0,0,1,.66.33,3.09,3.09,0,0,1,.44,1.09,3.21,3.21,0,0,1,0,1.33h0l-.62.71c-.61.69-1,.74-1.28.6a2.19,2.19,0,0,1-.84-.79,2.13,2.13,0,0,0-.9-.74c-.34-.1-.68-.18-1-.27-.69-.14-1.39-.23-2.09-.33s-1.41-.09-2.12-.11a54.49,54.49,0,0,0-8.44.88c-2.8.49-5.57,1.32-8.45,1.65a19.26,19.26,0,0,1-8.74-.65.53.53,0,0,1,0-1h0a41.12,41.12,0,0,1,8.38-1.51c2.81-.27,5.7-.25,8.59-.36a56.51,56.51,0,0,1,8.68.17c.72.09,1.44.16,2.16.23s1.43.21,2.15.3c.36.06.71.15,1.07.2a2.67,2.67,0,0,0,1.2-.27,2.26,2.26,0,0,1,1.21-.17c.37.07.7.32.77,1.22l-.61.73h0a3.33,3.33,0,0,1-1.78-1.83,1.85,1.85,0,0,1,.14-.76.81.81,0,0,0,0-.66c-.16-.37-.3-.76-.45-1.14a26.07,26.07,0,0,1-1.27-4.73,21.4,21.4,0,0,1-.21-4.88,30.39,30.39,0,0,1,.75-4.83.5.5,0,1,1,1,.22Z"/><path class="cls-5" d="M387.28,79.42a10.06,10.06,0,0,0,1.93-5,1.7,1.7,0,0,1,.38-.94,1.56,1.56,0,0,1,.94-.46c.56-.06,1-.08,1.46-.12l2.84-.2.71,0c.25,0,.43,0,.77,0a1.22,1.22,0,0,1,.59.17,1.18,1.18,0,0,1,.42.46,3.84,3.84,0,0,1,.27.78c.24.92.52,1.8.73,2.79a3.7,3.7,0,0,1-.53,3.15,2.61,2.61,0,0,1-1.52.84,1.8,1.8,0,0,1-1.76-.65h0v0a3.23,3.23,0,0,1-.1-3.18.5.5,0,0,1,.88.47h0a2.23,2.23,0,0,0,.07,2.18l0,0a.78.78,0,0,0,.78.25,1.6,1.6,0,0,0,.92-.51,2.77,2.77,0,0,0,.29-2.28c-.19-.87-.48-1.8-.72-2.71a3.33,3.33,0,0,0-.18-.56c-.08-.1,0-.05-.14-.08-.35,0-.91.06-1.36.09l-2.84.21c-.45,0-1,.06-1.37.11s-.34.05-.44.5a11.14,11.14,0,0,1-2.11,5.49.54.54,0,0,1-.87-.64Z"/><path class="cls-5" d="M398,79.26a2.48,2.48,0,0,1,2.85,1.65,8.22,8.22,0,0,1,.42,1.48c.09.43.24.85.39,1.32a13.36,13.36,0,0,1,.39,1.47,4,4,0,0,1,.09.93,2.32,2.32,0,0,1-.35,1.09,5,5,0,0,1-2.71,2,7,7,0,0,1-3.24.46,21.9,21.9,0,0,1-2.92-.47,8.75,8.75,0,0,1-1.53-.48,1.77,1.77,0,0,1-.58-.41,1.61,1.61,0,0,1-.31-.57,2,2,0,0,1,0-1.1,2.54,2.54,0,0,1,1.13-1.5,5.43,5.43,0,0,1,1.45-.61h0l.36.93a2.06,2.06,0,1,1-.85-4,.5.5,0,0,1,.2,1h0a1.64,1.64,0,0,1-1.27-.11,2.19,2.19,0,0,1-.85-.8,2.06,2.06,0,0,1,0-2.27,2.35,2.35,0,0,1,2-.92,2.74,2.74,0,0,1,2,.91.5.5,0,0,1-.76.66h0a1.75,1.75,0,0,0-1.25-.56,1.35,1.35,0,0,0-1.17.5A1.06,1.06,0,0,0,391.5,81a.87.87,0,0,0,1,.49l.19,1a1.07,1.07,0,1,0,.44,2.07.5.5,0,0,1,.43.9l-.07,0h0c-.85.42-1.53.91-1.53,1.47,0,.27.12.43.11.3a7.84,7.84,0,0,0,1.22.23c.89.11,1.83.17,2.73.21a5.5,5.5,0,0,0,2.33-.46,15.09,15.09,0,0,0,2-1.15.85.85,0,0,0,.23-.19,1.06,1.06,0,0,0,.08-.49,7.89,7.89,0,0,0-.2-1.31c-.09-.45-.22-.94-.27-1.45a5.66,5.66,0,0,0-.27-1.28,1.78,1.78,0,0,0-.63-.9,1,1,0,0,0-.91-.2h0a.5.5,0,1,1-.34-.94Z"/><path class="cls-5" d="M399.36,80.91a.5.5,0,0,1-.08-1,26.62,26.62,0,0,1,4.79-.51h.45a4.42,4.42,0,0,0,2.18-.28,1.37,1.37,0,0,0,.67-1,.59.59,0,0,0-.2-.55,1.76,1.76,0,0,0-.88-.25c-2.68-.3-5.41-.5-8.1-.59a.5.5,0,0,1,0-1h0c2.72.1,5.47.3,8.17.6a2.59,2.59,0,0,1,1.4.46,1.58,1.58,0,0,1,.56,1.43,2.37,2.37,0,0,1-1.2,1.81,5.2,5.2,0,0,1-2.68.39H404a25,25,0,0,0-4.6.5Z"/><path class="cls-5" d="M388.33,91.19a.5.5,0,0,1-.11-1l4.28-.93a.5.5,0,1,1,.21,1l-4.28.93Z"/><path class="cls-4" d="M16.23,390.78l30.15,87.57,30.28-87.57H87v99.53H79.19V447.17l.68-43.41L49.38,490.31h-6L13,404.17l.68,42.72v43.41H5.91V390.78Z"/><path class="cls-4" d="M151.38,442.66H112.76v40.4h44.43v7.25H105V390.78h51.88v7.38H112.76v37.26h38.62Z"/><path class="cls-4" d="M227.26,398.16H199v92.15H191.1V398.16H162.87v-7.38h64.39Z"/><path class="cls-4" d="M277.51,462.49H240.19l-8.48,27.82h-8.13l31.72-99.53h7.25l31.72,99.53h-8.13Zm-35.07-7.31h32.81l-16.41-53.39Z"/><path class="cls-4" d="M13.77,610.63h41v7.25H5.91V518.35h7.86Z"/><path class="cls-4" d="M73.66,572.49l24.81-54.14h9L77.48,580.42v37.46H69.69V580.42L39.82,518.35H49Z"/><path class="cls-4" d="M147.42,576.45H124.18v41.43h-7.86V518.35h27.28q13.6,0,21.09,7.76t7.49,21.57a30.76,30.76,0,0,1-4.65,16.92A24.15,24.15,0,0,1,155,574.67L175.72,617v.89h-8.34Zm-23.24-7.25H145q8.82,0,14.08-6t5.26-15.48q0-10.46-5.47-16.2t-15.31-5.74H124.18Z"/><path class="cls-4" d="M197.06,617.88h-7.79V518.35h7.79Z"/><path class="cls-4" d="M276.08,586.84q-1.09,16.75-9,24.58t-21.94,7.83q-14.42,0-22.76-10.9t-8.41-29.63v-21.6q0-18.8,8.51-29.46T245.73,517q13.95,0,21.6,8t8.75,24.54h-7.93q-1.09-13.54-6.39-19.35t-16-5.81q-11.28,0-17.57,8.41t-6.29,24.4V578.5q0,15.86,6.08,24.68T245.12,612q11.62,0,16.82-5.81t6.22-19.35Z"/><path class="cls-4" d="M336.72,593.41q0-8.34-4.75-13.12t-17.74-9.16q-13-4.37-19.07-9.78-8-7-8-18.59T295,524.16q7.86-7.18,20.3-7.18,12.71,0,20.78,8.34t8.07,21.46h-7.86q0-10-5.64-16.24t-15.35-6.19q-9.43,0-14.87,5.09A17.22,17.22,0,0,0,295,542.61a16.07,16.07,0,0,0,5.13,12.3q5.13,4.79,16.34,8.51t17,7.72a25.62,25.62,0,0,1,8.48,9.4,27.83,27.83,0,0,1,2.73,12.71q0,11.69-7.9,18.83t-20.88,7.14a35.32,35.32,0,0,1-16-3.59,26.85,26.85,0,0,1-11.28-10.32,30.14,30.14,0,0,1-4.07-15.89h7.79q0,10.53,6.36,16.54t17.16,6q9.43,0,15.14-5.06T336.72,593.41Z"/><path class="cls-4" d="M985,291a2.06,2.06,0,0,1-2-1.42L920.7,99a2.06,2.06,0,0,1,3.91-1.28L987,288.25a2.06,2.06,0,0,1-2,2.7Z"/><polygon class="cls-4" points="976.49 289.17 988.72 300.13 992.1 284.06 976.49 289.17"/><path class="cls-4" d="M1026.16,217.44a2.06,2.06,0,0,1-1.7-.9l-15.11-22.13a2.06,2.06,0,0,1,3.4-2.32l15.11,22.13a2.06,2.06,0,0,1-1.7,3.22Z"/><polygon class="cls-4" points="1018.02 218.02 1032.83 225.14 1031.59 208.76 1018.02 218.02"/><path class="cls-4" d="M983.67,317a2.06,2.06,0,0,1-1.65-.82l-66.15-88a2.06,2.06,0,1,1,3.29-2.47l66.15,88a2.06,2.06,0,0,1-1.64,3.3Z"/><polygon class="cls-4" points="975.67 317.92 990.77 324.35 988.79 308.05 975.67 317.92"/><path class="cls-4" d="M754.62,138a2.06,2.06,0,0,1-.61-4l56-17.48a2.06,2.06,0,1,1,1.23,3.93l-56,17.48A2.07,2.07,0,0,1,754.62,138Z"/><polygon class="cls-4" points="754.46 127.34 743.34 139.41 759.36 143.02 754.46 127.34"/><path class="cls-4" d="M882.49,403.49h-.24a2.06,2.06,0,0,1-1.8-2.29L900.68,229.8a2.06,2.06,0,1,1,4.09.48L884.53,401.67A2.06,2.06,0,0,1,882.49,403.49Z"/><polygon class="cls-4" points="874.62 398.08 881.1 413.17 890.92 400.01 874.62 398.08"/><path class="cls-4" d="M741.37,440.9a2.06,2.06,0,0,1-1.67-3.26l151-210.83a2.06,2.06,0,1,1,3.35,2.4L743,440A2.06,2.06,0,0,1,741.37,440.9Z"/><polygon class="cls-4" points="736.1 432.11 734.49 448.45 749.45 441.67 736.1 432.11"/><path class="cls-4" d="M851.75,256.91a2.06,2.06,0,0,1-1.32-3.64l36.08-30.12a2.06,2.06,0,0,1,2.64,3.16l-36.08,30.12A2.05,2.05,0,0,1,851.75,256.91Z"/><polygon class="cls-4" points="848.33 247 842.68 262.42 858.86 259.61 848.33 247"/><path class="cls-4" d="M728.6,294.7a2.06,2.06,0,0,1-.87-3.92l156-72.74a2.06,2.06,0,1,1,1.74,3.73l-156,72.74A2,2,0,0,1,728.6,294.7Z"/><polygon class="cls-4" points="727.31 284.19 717.89 297.64 734.25 299.07 727.31 284.19"/><path class="cls-4" d="M998.86,601.37a2.06,2.06,0,0,1-2-1.58L907.47,229.16a2.06,2.06,0,1,1,4-1l89.39,370.63a2.06,2.06,0,0,1-2,2.54Z"/><polygon class="cls-4" points="990.32 598.9 1001.63 610.8 1006.28 595.05 990.32 598.9"/><path class="cls-4" d="M1122.34,510.24a2.06,2.06,0,0,1-2.06-2l-3.21-114.66a2.06,2.06,0,1,1,4.12-.12l3.21,114.66a2.06,2.06,0,0,1-2,2.12Z"/><polygon class="cls-4" points="1114.07 506.01 1122.68 519.99 1130.49 505.55 1114.07 506.01"/><path class="cls-4" d="M1217.85,569.2a2.06,2.06,0,0,1-1.84-1.13l-88.9-174.91a2.06,2.06,0,0,1,3.67-1.87l88.9,174.91a2.06,2.06,0,0,1-1.83,3Z"/><polygon class="cls-4" points="1209.44 568.72 1223.2 577.67 1224.08 561.27 1209.44 568.72"/><path class="cls-4" d="M1017.67,377.76a2.06,2.06,0,0,1-1.88-1.22l-8.86-20a2.06,2.06,0,0,1,3.76-1.67l8.86,20a2.06,2.06,0,0,1-1.88,2.89Z"/><polygon class="cls-4" points="1009.18 376.83 1022.46 386.5 1024.2 370.17 1009.18 376.83"/><circle class="cls-4" cx="697.66" cy="307.59" r="11.96"/><circle class="cls-4" cx="828.07" cy="275.28" r="11.96"/><circle class="cls-4" cx="905.47" cy="210.67" r="11.96"/><circle class="cls-4" cx="1001.1" cy="178.36" r="11.96"/><circle class="cls-4" cx="1045.21" cy="242.97" r="11.96"/><circle class="cls-4" cx="1119.03" cy="372.2" r="11.96"/><circle class="cls-4" cx="1030.73" cy="404.5" r="11.96"/><circle class="cls-4" cx="1006.76" cy="630.64" r="11.96"/><circle class="cls-4" cx="1123.1" cy="540.71" r="11.96"/><circle class="cls-4" cx="1233.96" cy="598.33" r="11.96"/><circle class="cls-4" cx="1002.05" cy="339.89" r="11.96"/><circle class="cls-4" cx="917.43" cy="81.45" r="11.96"/><circle class="cls-4" cx="827" cy="113.75" r="11.96"/><circle class="cls-4" cx="723.48" cy="146.06" r="11.96"/><path class="cls-6" d="M676.23,390.78l30.15,87.57,30.28-87.57H747v99.53h-7.79V447.17l.68-43.41-30.49,86.54h-6L673,404.17l.68,42.72v43.41h-7.79V390.78Z"/><path class="cls-6" d="M811.38,442.66H772.76v40.4h44.43v7.25H765V390.78h51.88v7.38H772.76v37.26h38.62Z"/><path class="cls-6" d="M887.26,398.16H859v92.15H851.1V398.16H822.87v-7.38h64.39Z"/><path class="cls-6" d="M937.51,462.49H900.19l-8.48,27.82h-8.13l31.72-99.53h7.25l31.72,99.53h-8.13Zm-35.07-7.31h32.81l-16.41-53.39Z"/><path class="cls-6" d="M673.77,610.63h41v7.25H665.91V518.35h7.86Z"/><path class="cls-6" d="M733.66,572.49l24.81-54.14h9l-29.94,62.07v37.46h-7.79V580.42l-29.87-62.07H709Z"/><path class="cls-6" d="M807.42,576.45H784.18v41.43h-7.86V518.35h27.28q13.6,0,21.09,7.76t7.49,21.57a30.76,30.76,0,0,1-4.65,16.92A24.15,24.15,0,0,1,815,574.67L835.72,617v.89h-8.34Zm-23.24-7.25H805q8.82,0,14.08-6t5.26-15.48q0-10.46-5.47-16.2t-15.31-5.74H784.18Z"/><path class="cls-6" d="M857.06,617.88h-7.79V518.35h7.79Z"/><path class="cls-6" d="M936.08,586.84q-1.09,16.75-9,24.58t-21.94,7.83q-14.42,0-22.76-10.9t-8.41-29.63v-21.6q0-18.8,8.51-29.46T905.73,517q13.95,0,21.6,8t8.75,24.54h-7.93q-1.09-13.54-6.39-19.35t-16-5.81q-11.28,0-17.57,8.41t-6.29,24.4V578.5q0,15.86,6.08,24.68T905.12,612q11.62,0,16.82-5.81t6.22-19.35Z"/><path class="cls-6" d="M996.72,593.41q0-8.34-4.75-13.12t-17.74-9.16q-13-4.37-19.07-9.78-8-7-8-18.59T955,524.16q7.86-7.18,20.3-7.18,12.71,0,20.78,8.34t8.07,21.46h-7.86q0-10-5.64-16.24t-15.35-6.19q-9.43,0-14.87,5.09A17.22,17.22,0,0,0,955,542.61a16.07,16.07,0,0,0,5.13,12.3q5.13,4.79,16.34,8.51t17,7.72a25.62,25.62,0,0,1,8.48,9.4,27.83,27.83,0,0,1,2.73,12.71q0,11.69-7.9,18.83t-20.88,7.14a35.32,35.32,0,0,1-16-3.59,26.85,26.85,0,0,1-11.28-10.32,30.14,30.14,0,0,1-4.07-15.89h7.79q0,10.53,6.36,16.54t17.16,6q9.43,0,15.14-5.06T996.72,593.41Z"/></svg>