<svg id="Layer_1" data-name="Layer 1" xmlns="http://www.w3.org/2000/svg" viewBox="0 0 660 540"><defs><style>.cls-1{fill:#57caef;}.cls-2{fill:#ffce06;}.cls-3{fill:#ee3766;}.cls-4{fill:#74c044;}.cls-5{fill:#666;}.cls-6{font-size:140px;fill:#fff8ce;font-family:RobotoCondensed-Regular, Roboto Condensed;letter-spacing:-0.05em;}.cls-7{letter-spacing:-0.04em;}.cls-8{letter-spacing:-0.04em;}.cls-9{fill:none;stroke:#fff8cd;stroke-linecap:round;stroke-linejoin:round;}.cls-10{fill:#fff8cd;}</style></defs><title>yg-beatles-170816-0918-wireframes-index</title><rect class="cls-1" x="523.41" y="182.96" width="45.4" height="20.58"/><rect class="cls-1" x="475.33" y="182.96" width="45.4" height="20.58"/><rect class="cls-2" x="427.26" y="182.96" width="45.4" height="20.58"/><rect class="cls-1" x="379.19" y="182.96" width="45.4" height="12.35"/><rect class="cls-2" x="379.19" y="195.31" width="45.4" height="8.23"/><rect class="cls-3" x="331.11" y="182.96" width="45.4" height="20.58"/><rect class="cls-1" x="283.04" y="182.96" width="45.4" height="12.35"/><rect class="cls-2" x="283.04" y="195.31" width="45.4" height="4.12"/><rect class="cls-4" x="283.04" y="199.42" width="45.4" height="4.12"/><rect class="cls-1" x="234.96" y="182.96" width="45.41" height="6.17"/><rect class="cls-2" x="234.96" y="189.14" width="45.41" height="14.4"/><rect class="cls-2" x="186.89" y="182.96" width="45.4" height="20.58"/><rect class="cls-1" x="138.82" y="182.96" width="45.4" height="20.58"/><rect class="cls-1" x="90.74" y="182.96" width="45.4" height="6.17"/><rect class="cls-2" x="90.74" y="189.14" width="45.4" height="14.4"/><rect class="cls-1" x="42.67" y="182.96" width="45.41" height="13.38"/><rect class="cls-2" x="42.67" y="196.34" width="45.41" height="7.2"/><rect class="cls-1" x="379.18" y="209.74" width="45.41" height="20.58"/><rect class="cls-1" x="331.11" y="209.74" width="45.4" height="2.06"/><rect class="cls-3" x="331.11" y="211.8" width="45.4" height="18.52"/><rect class="cls-1" x="283.03" y="209.74" width="45.4" height="20.58"/><rect class="cls-1" x="234.96" y="209.74" width="45.4" height="15.43"/><rect class="cls-2" x="234.96" y="225.17" width="45.4" height="5.14"/><rect class="cls-1" x="186.89" y="209.74" width="45.4" height="20.58"/><rect class="cls-1" x="138.82" y="209.74" width="45.4" height="4.12"/><rect class="cls-2" x="138.82" y="213.86" width="45.4" height="16.46"/><rect class="cls-3" x="90.74" y="209.74" width="45.4" height="20.58"/><rect class="cls-2" x="42.67" y="209.74" width="45.4" height="20.58"/><rect class="cls-1" x="523.4" y="209.74" width="45.4" height="4.12"/><rect class="cls-2" x="523.4" y="213.86" width="45.4" height="16.46"/><rect class="cls-2" x="475.33" y="209.74" width="45.4" height="20.58"/><rect class="cls-1" x="427.26" y="209.74" width="45.4" height="4.12"/><rect class="cls-2" x="427.26" y="213.86" width="45.4" height="16.46"/><rect class="cls-3" x="523.4" y="290.07" width="45.41" height="20.58"/><rect class="cls-2" x="475.33" y="290.07" width="45.4" height="20.58"/><rect class="cls-2" x="427.26" y="290.07" width="45.4" height="20.58"/><rect class="cls-1" x="379.19" y="290.07" width="45.4" height="5.14"/><rect class="cls-2" x="379.19" y="295.22" width="45.4" height="5.14"/><rect class="cls-3" x="379.19" y="300.36" width="45.4" height="5.14"/><rect class="cls-4" x="379.19" y="305.51" width="45.4" height="5.14"/><rect class="cls-3" x="331.11" y="290.07" width="45.4" height="20.58"/><rect class="cls-1" x="283.04" y="290.07" width="45.4" height="20.58"/><rect class="cls-2" x="234.96" y="290.07" width="45.41" height="20.58"/><rect class="cls-1" x="186.89" y="290.07" width="45.41" height="20.58"/><rect class="cls-3" x="138.82" y="290.07" width="45.4" height="20.58"/><rect class="cls-1" x="90.74" y="290.07" width="45.4" height="20.58"/><rect class="cls-2" x="42.67" y="290.07" width="45.4" height="20.58"/><rect class="cls-1" x="523.41" y="263.3" width="45.4" height="10.29"/><rect class="cls-2" x="523.41" y="273.58" width="45.4" height="10.29"/><rect class="cls-1" x="475.34" y="263.3" width="45.4" height="2.06"/><rect class="cls-2" x="475.34" y="265.35" width="45.4" height="18.52"/><rect class="cls-2" x="427.26" y="263.3" width="45.4" height="20.58"/><rect class="cls-1" x="379.19" y="263.3" width="45.4" height="5.14"/><rect class="cls-2" x="379.19" y="268.44" width="45.4" height="15.43"/><rect class="cls-1" x="331.11" y="263.3" width="45.41" height="7.2"/><rect class="cls-2" x="331.11" y="270.5" width="45.41" height="13.38"/><rect class="cls-3" x="283.04" y="263.3" width="45.4" height="20.58"/><rect class="cls-1" x="234.97" y="263.3" width="45.4" height="7.2"/><rect class="cls-2" x="234.97" y="270.5" width="45.4" height="13.38"/><rect class="cls-1" x="186.89" y="263.3" width="45.4" height="16.46"/><rect class="cls-2" x="186.89" y="279.76" width="45.4" height="4.12"/><rect class="cls-2" x="138.82" y="263.3" width="45.4" height="20.58"/><rect class="cls-1" x="90.75" y="263.3" width="45.4" height="20.58"/><rect class="cls-3" x="42.67" y="263.3" width="45.41" height="20.58"/><polyline class="cls-1" points="280.37 257.1 234.96 257.1 234.96 236.52 280.37 236.52"/><rect class="cls-1" x="186.89" y="236.52" width="45.4" height="20.58"/><rect class="cls-2" x="138.81" y="236.52" width="45.41" height="20.58"/><rect class="cls-2" x="90.74" y="236.52" width="45.41" height="20.58"/><rect class="cls-3" x="42.67" y="236.52" width="45.41" height="20.58"/><rect class="cls-2" x="523.41" y="236.52" width="45.4" height="20.58"/><rect class="cls-1" x="475.33" y="236.52" width="45.41" height="20.58"/><rect class="cls-2" x="427.26" y="236.52" width="45.41" height="20.58"/><polygon class="cls-1" points="421.12 248.86 379.18 248.86 379.18 236.52 424.59 236.52 424.59 248.86 421.12 248.86"/><polygon class="cls-2" points="421.12 248.86 424.59 248.86 424.59 257.1 379.18 257.1 379.18 248.86 421.12 248.86"/><rect class="cls-1" x="331.11" y="236.52" width="45.4" height="4.12"/><rect class="cls-2" x="331.11" y="240.63" width="45.4" height="16.46"/><rect class="cls-1" x="283.04" y="236.52" width="45.4" height="3.09"/><rect class="cls-2" x="283.04" y="239.6" width="45.4" height="17.49"/><rect class="cls-3" x="523.42" y="156.18" width="45.41" height="20.58"/><rect class="cls-1" x="475.35" y="156.18" width="45.4" height="16.46"/><rect class="cls-2" x="475.35" y="172.65" width="45.4" height="4.12"/><polyline class="cls-1" points="427.27 162.36 472.68 162.36 472.68 156.18 427.27 156.18"/><polyline class="cls-2" points="427.27 162.36 472.68 162.36 472.68 176.76 427.27 176.76"/><rect class="cls-1" x="379.2" y="156.18" width="45.4" height="16.46"/><rect class="cls-2" x="379.2" y="172.65" width="45.4" height="4.12"/><rect class="cls-1" x="331.11" y="156.18" width="45.4" height="20.58"/><rect class="cls-1" x="283.04" y="156.18" width="45.41" height="10.29"/><rect class="cls-2" x="283.04" y="166.47" width="45.41" height="10.29"/><rect class="cls-1" x="234.97" y="156.18" width="45.4" height="20.58"/><rect class="cls-2" x="186.89" y="156.18" width="45.41" height="20.58"/><rect class="cls-1" x="138.81" y="156.18" width="45.41" height="2.06"/><rect class="cls-2" x="138.81" y="158.24" width="45.41" height="18.52"/><rect class="cls-2" x="90.74" y="156.18" width="45.4" height="20.58"/><rect class="cls-1" x="42.67" y="156.18" width="45.4" height="18.52"/><rect class="cls-2" x="42.67" y="174.7" width="45.4" height="2.06"/><rect class="cls-1" x="523.41" y="129.41" width="45.4" height="20.58"/><rect class="cls-2" x="475.33" y="129.41" width="45.41" height="20.58"/><rect class="cls-1" x="427.26" y="129.41" width="45.41" height="20.58"/><rect class="cls-3" x="379.19" y="129.41" width="45.41" height="20.58"/><rect class="cls-2" x="331.11" y="129.41" width="45.41" height="20.58"/><rect class="cls-1" x="283.04" y="129.41" width="45.4" height="20.58"/><rect class="cls-3" x="234.96" y="129.41" width="45.41" height="20.58"/><rect class="cls-2" x="186.89" y="129.41" width="45.41" height="20.58"/><rect class="cls-1" x="138.82" y="129.41" width="45.4" height="20.58"/><rect class="cls-2" x="90.74" y="129.41" width="45.41" height="20.58"/><rect class="cls-1" x="42.67" y="129.41" width="45.41" height="20.58"/><rect class="cls-1" x="523.41" y="102.63" width="45.4" height="2.06"/><rect class="cls-2" x="523.41" y="104.69" width="45.4" height="18.52"/><rect class="cls-1" x="475.33" y="102.63" width="45.4" height="6.17"/><rect class="cls-2" x="475.33" y="108.8" width="45.4" height="14.4"/><rect class="cls-1" x="427.26" y="102.63" width="45.4" height="20.58"/><rect class="cls-1" x="379.19" y="102.63" width="45.4" height="2.06"/><rect class="cls-2" x="379.19" y="104.69" width="45.4" height="18.52"/><rect class="cls-1" x="331.11" y="102.63" width="45.41" height="20.58"/><rect class="cls-1" x="283.04" y="102.63" width="45.4" height="2.06"/><rect class="cls-2" x="283.04" y="104.69" width="45.4" height="18.52"/><rect class="cls-1" x="234.97" y="102.63" width="45.4" height="20.58"/><rect class="cls-1" x="186.89" y="102.63" width="45.4" height="10.29"/><rect class="cls-2" x="186.89" y="112.92" width="45.4" height="10.29"/><rect class="cls-1" x="138.82" y="102.63" width="45.4" height="20.58"/><rect class="cls-2" x="90.75" y="102.63" width="45.4" height="20.58"/><rect class="cls-1" x="42.67" y="102.63" width="45.4" height="20.58"/><rect class="cls-1" x="523.4" y="75.85" width="45.4" height="20.58"/><rect class="cls-1" x="475.33" y="75.85" width="45.4" height="20.58"/><rect class="cls-1" x="427.26" y="75.85" width="45.4" height="20.58"/><rect class="cls-1" x="379.18" y="75.85" width="45.41" height="20.58"/><rect class="cls-1" x="331.11" y="75.85" width="45.41" height="20.58"/><rect class="cls-1" x="283.04" y="75.85" width="45.4" height="20.58"/><rect class="cls-1" x="234.96" y="75.85" width="45.4" height="20.58"/><rect class="cls-1" x="186.89" y="75.85" width="45.4" height="20.58"/><rect class="cls-1" x="138.81" y="75.85" width="45.41" height="7.2"/><rect class="cls-2" x="138.81" y="83.05" width="45.41" height="13.38"/><rect class="cls-1" x="90.74" y="75.85" width="45.41" height="20.58"/><rect class="cls-1" x="42.67" y="75.85" width="45.4" height="2.06"/><rect class="cls-2" x="42.67" y="77.91" width="45.4" height="18.52"/><rect class="cls-1" x="523.41" y="49.07" width="45.4" height="20.58"/><rect class="cls-1" x="475.34" y="49.07" width="45.4" height="10.29"/><rect class="cls-2" x="475.34" y="59.36" width="45.4" height="10.29"/><rect class="cls-3" x="427.26" y="49.07" width="45.4" height="20.58"/><rect class="cls-1" x="379.19" y="49.07" width="45.4" height="20.58"/><rect class="cls-1" x="331.11" y="49.07" width="45.4" height="20.58"/><rect class="cls-1" x="283.04" y="49.07" width="45.4" height="10.29"/><rect class="cls-2" x="283.04" y="59.36" width="45.4" height="10.29"/><rect class="cls-1" x="234.97" y="49.07" width="45.4" height="6.17"/><rect class="cls-2" x="234.97" y="55.25" width="45.4" height="14.4"/><rect class="cls-2" x="186.89" y="49.07" width="45.4" height="20.58"/><rect class="cls-1" x="138.82" y="49.07" width="45.4" height="20.58"/><rect class="cls-1" x="90.75" y="49.07" width="45.4" height="10.29"/><rect class="cls-2" x="90.75" y="59.36" width="45.4" height="10.29"/><rect class="cls-1" x="42.67" y="49.07" width="45.41" height="10.29"/><rect class="cls-2" x="42.67" y="59.36" width="45.41" height="10.29"/><rect class="cls-1" x="523.4" y="22.3" width="45.41" height="10.29"/><rect class="cls-2" x="523.4" y="32.58" width="45.41" height="10.29"/><rect class="cls-1" x="475.33" y="22.3" width="45.41" height="10.29"/><rect class="cls-2" x="475.33" y="32.58" width="45.41" height="10.29"/><rect class="cls-1" x="427.26" y="22.3" width="45.4" height="4.12"/><rect class="cls-2" x="427.26" y="26.41" width="45.4" height="16.46"/><rect class="cls-1" x="379.18" y="22.3" width="45.4" height="12.35"/><rect class="cls-2" x="379.18" y="34.64" width="45.4" height="8.23"/><rect class="cls-1" x="331.11" y="22.3" width="45.4" height="20.58"/><rect class="cls-1" x="283.04" y="22.3" width="45.4" height="4.12"/><rect class="cls-2" x="283.04" y="26.41" width="45.4" height="16.46"/><rect class="cls-1" x="234.96" y="22.3" width="45.41" height="20.58"/><rect class="cls-1" x="186.89" y="22.3" width="45.4" height="14.4"/><rect class="cls-2" x="186.89" y="36.7" width="45.4" height="6.17"/><rect class="cls-1" x="138.81" y="22.3" width="45.4" height="20.58"/><rect class="cls-1" x="90.74" y="22.3" width="45.4" height="4.12"/><rect class="cls-2" x="90.74" y="26.41" width="45.4" height="16.46"/><rect class="cls-1" x="42.67" y="22.3" width="45.4" height="6.17"/><rect class="cls-2" x="42.67" y="28.47" width="45.4" height="14.4"/><rect class="cls-1" x="475.73" y="370.41" width="45.44" height="20.58"/><rect class="cls-3" x="427.61" y="370.41" width="45.44" height="20.58"/><rect class="cls-2" x="379.49" y="370.41" width="45.44" height="20.58"/><polyline class="cls-1" points="569.28 390.98 523.83 390.98 523.83 370.41 569.28 370.41"/><rect class="cls-3" x="331.37" y="370.41" width="45.44" height="18.52"/><rect class="cls-5" x="331.37" y="388.93" width="45.44" height="2.06"/><rect class="cls-2" x="283.26" y="370.41" width="45.44" height="20.58"/><rect class="cls-1" x="235.14" y="370.41" width="45.45" height="20.58"/><rect class="cls-1" x="187.02" y="370.41" width="45.44" height="2.06"/><rect class="cls-3" x="187.02" y="372.46" width="45.44" height="17.49"/><rect class="cls-5" x="187.02" y="389.95" width="45.44" height="1.03"/><rect class="cls-1" x="138.9" y="370.41" width="45.45" height="6.17"/><rect class="cls-2" x="138.9" y="376.58" width="45.45" height="14.4"/><rect class="cls-2" x="90.78" y="370.41" width="45.45" height="20.58"/><rect class="cls-1" x="42.67" y="370.41" width="45.44" height="20.58"/><rect class="cls-1" x="523.84" y="343.63" width="45.44" height="20.58"/><rect class="cls-2" x="475.73" y="343.63" width="45.44" height="20.58"/><rect class="cls-2" x="427.61" y="343.63" width="45.44" height="20.58"/><rect class="cls-2" x="379.49" y="343.63" width="45.45" height="20.58"/><rect class="cls-1" x="331.37" y="343.63" width="45.45" height="20.58"/><rect class="cls-2" x="283.26" y="343.63" width="45.44" height="20.58"/><rect class="cls-2" x="235.14" y="343.63" width="45.44" height="20.58"/><rect class="cls-3" x="187.02" y="343.63" width="45.44" height="20.58"/><rect class="cls-1" x="138.9" y="343.63" width="45.44" height="20.58"/><rect class="cls-2" x="90.78" y="343.63" width="45.45" height="20.58"/><rect class="cls-1" x="42.67" y="343.63" width="45.44" height="20.58"/><rect class="cls-2" x="42.67" y="316.88" width="45.4" height="20.58"/><rect class="cls-1" x="523.81" y="316.82" width="45.44" height="20.58"/><rect class="cls-2" x="475.7" y="316.82" width="45.44" height="20.58"/><rect class="cls-1" x="427.58" y="316.82" width="45.44" height="20.58"/><rect class="cls-1" x="379.46" y="316.82" width="45.44" height="20.58"/><rect class="cls-2" x="331.34" y="316.82" width="45.44" height="20.58"/><rect class="cls-1" x="283.23" y="316.82" width="45.44" height="15.43"/><rect class="cls-5" x="283.23" y="332.26" width="45.44" height="5.14"/><rect class="cls-4" x="235.11" y="316.82" width="45.44" height="20.58"/><rect class="cls-1" x="186.99" y="316.82" width="45.45" height="20.58"/><rect class="cls-1" x="138.87" y="316.82" width="45.45" height="19.55"/><rect class="cls-2" x="138.87" y="336.37" width="45.45" height="1.03"/><rect class="cls-1" x="90.71" y="316.82" width="45.44" height="20.58"/><rect class="cls-3" x="331.38" y="450.74" width="45.44" height="20.58"/><rect class="cls-1" x="283.26" y="450.74" width="45.44" height="20.58"/><rect class="cls-1" x="235.13" y="450.74" width="45.44" height="10.29"/><rect class="cls-2" x="235.13" y="461.03" width="45.44" height="10.29"/><rect class="cls-2" x="138.91" y="450.74" width="45.44" height="20.58"/><rect class="cls-1" x="187.02" y="450.74" width="45.44" height="20.58"/><rect class="cls-1" x="90.79" y="450.74" width="45.44" height="20.58"/><rect class="cls-2" x="42.67" y="450.74" width="45.44" height="20.58"/><rect class="cls-3" x="523.84" y="423.96" width="45.44" height="20.58"/><rect class="cls-2" x="475.72" y="423.96" width="45.44" height="17.39"/><rect class="cls-5" x="475.72" y="441.35" width="45.44" height="3.19"/><rect class="cls-2" x="427.61" y="423.96" width="45.44" height="20.58"/><rect class="cls-2" x="379.49" y="423.96" width="45.44" height="20.58"/><rect class="cls-4" x="331.37" y="423.96" width="45.44" height="20.58"/><rect class="cls-2" x="283.26" y="423.96" width="45.44" height="20.58"/><rect class="cls-3" x="235.14" y="423.96" width="45.44" height="20.58"/><rect class="cls-3" x="187.02" y="423.96" width="45.44" height="20.58"/><rect class="cls-1" x="138.9" y="423.96" width="45.44" height="20.58"/><rect class="cls-1" x="90.78" y="423.96" width="45.44" height="20.58"/><rect class="cls-1" x="42.67" y="423.96" width="45.44" height="20.58"/><rect class="cls-2" x="523.85" y="397.18" width="45.44" height="20.58"/><rect class="cls-2" x="475.73" y="397.18" width="45.44" height="20.58"/><rect class="cls-3" x="427.61" y="397.18" width="45.44" height="20.58"/><rect class="cls-1" x="379.49" y="397.18" width="45.45" height="5.14"/><rect class="cls-2" x="379.49" y="402.33" width="45.45" height="5.14"/><rect class="cls-3" x="379.49" y="407.47" width="45.45" height="5.14"/><rect class="cls-4" x="379.49" y="412.62" width="45.45" height="5.14"/><rect class="cls-2" x="331.38" y="397.18" width="45.44" height="20.58"/><rect class="cls-2" x="283.26" y="397.18" width="45.44" height="20.58"/><rect class="cls-1" x="235.14" y="397.18" width="45.44" height="20.58"/><rect class="cls-1" x="187.02" y="397.18" width="45.44" height="10.29"/><rect class="cls-2" x="187.02" y="407.47" width="45.44" height="10.29"/><rect class="cls-1" x="138.9" y="397.18" width="45.45" height="20.58"/><rect class="cls-1" x="90.79" y="397.18" width="45.44" height="15.43"/><rect class="cls-5" x="90.79" y="412.62" width="45.44" height="5.14"/><rect class="cls-2" x="42.67" y="397.18" width="45.44" height="20.58"/><text class="cls-6" transform="translate(26.2 377.31)">A<tspan class="cls-7" x="73.9" y="0">UTHOR</tspan><tspan class="cls-8"><tspan x="0" y="127.57">SHIP</tspan></tspan></text><path class="cls-9" d="M584.58,91.65a6.07,6.07,0,0,0,.49-.68"/><path class="cls-9" d="M585.52,97.64c-3.34-.29-5.91-2.35-9-3.52l4.23-5.56a6.42,6.42,0,0,1,2-1.92,2.19,2.19,0,0,1,2.56.22"/><path class="cls-9" d="M587.23,102.4c-1.9,2.18-3.8,3.1-4.08,6"/><path class="cls-9" d="M583.87,101.88a1.65,1.65,0,0,1-.69-1.36,1.34,1.34,0,0,1,.88-1.2,1.18,1.18,0,1,1,.12,2.29l-.28.22"/><path class="cls-10" d="M584.81,100.61a2.68,2.68,0,0,1-.56.91,3.14,3.14,0,0,0-.25.27l-.2.22a6.12,6.12,0,0,0-.67,1,8.72,8.72,0,0,0-.89,2.28,19.1,19.1,0,0,0-.53,5,38.93,38.93,0,0,0,1.56,10,72.28,72.28,0,0,0,3.61,9.4,6.51,6.51,0,0,1,.53,1.61,2.66,2.66,0,0,1-.36,2,3.73,3.73,0,0,1-1.4,1.14c-.47.25-.84.52-1.23.77a19,19,0,0,0-2.21,1.34,2.64,2.64,0,0,0-1.18,1.89h0a.49.49,0,0,1-.9.2l0,0A8.43,8.43,0,0,0,576,135a.51.51,0,0,1-.31-.47c0-2.9-.06-5.83-.06-8.75s0-5.86.23-8.79a51.15,51.15,0,0,1,1.21-8.76,16.55,16.55,0,0,1,1.6-4.21,7.83,7.83,0,0,1,1.43-1.85,5.17,5.17,0,0,1,2.14-1.13l-.39.53a1.14,1.14,0,0,1,.36-1,1.53,1.53,0,0,1,.84-.32,6.15,6.15,0,0,1,.68,0h.54A.81.81,0,0,1,584.81,100.61Zm-.94.34a.33.33,0,0,0,.24.33c.08,0,0,0,0,0h-.39a5.29,5.29,0,0,0-.56,0,.64.64,0,0,0-.3.09s0,0,0,.15a.52.52,0,0,1-.39.53,4.18,4.18,0,0,0-1.69.9,6.84,6.84,0,0,0-1.24,1.6,15.58,15.58,0,0,0-1.5,4,50.21,50.21,0,0,0-1.19,8.58c-.18,2.9-.23,5.81-.22,8.72s.09,5.83.06,8.77l-.31-.47a9.43,9.43,0,0,1,4.62,4l-.92.16h0a5.07,5.07,0,0,1,1.67-2.29c.68-.59,1.44-1.07,2-1.64a2.15,2.15,0,0,0,.69-1,1.81,1.81,0,0,0,0-1,1.36,1.36,0,0,1-.11-.52A3.55,3.55,0,0,0,584,131a39.18,39.18,0,0,1-2.72-10.25,56.91,56.91,0,0,1-.84-10.48,21.92,21.92,0,0,1,.76-5.25,11.13,11.13,0,0,1,1-2.5,7.14,7.14,0,0,1,.79-1.13l.23-.26c.07-.07.18-.22.2-.2S583.65,101,583.87,101Z"/><path class="cls-10" d="M605.59,112.58a8.64,8.64,0,0,1-3.56,1.51,10.76,10.76,0,0,1-3.88-.07,12.55,12.55,0,0,1-6.69-3.71,21.58,21.58,0,0,1-4.14-6.29,44.36,44.36,0,0,1-2.44-7,42.11,42.11,0,0,1-1.24-7.29,9.69,9.69,0,0,1,.39-3.86,8.89,8.89,0,0,1,2.11-3.25,12.9,12.9,0,0,1,3-2.25l.82-.45.85-.38c.56-.27,1.14-.48,1.71-.69a36.88,36.88,0,0,1,7.12-1.77,27.37,27.37,0,0,1,7.34-.17c.61.08,1.22.22,1.82.35a9.85,9.85,0,0,1,1.76.66,8,8,0,0,1,2.88,2.38A57.17,57.17,0,0,1,618,86.17a13.13,13.13,0,0,1,2,7.18,26.36,26.36,0,0,1-1.28,7.22,31.6,31.6,0,0,1-2.83,6.7,17.1,17.1,0,0,1-11.55,8.47h0a.5.5,0,0,1-.17-1h0a14,14,0,0,0,6.58-2.42,17.84,17.84,0,0,0,4.86-5.21,28.44,28.44,0,0,0,2.81-6.64,14,14,0,0,0,.73-7.06A28,28,0,0,0,616.54,87a69.05,69.05,0,0,0-3.61-6.21c-1.29-2.06-3.64-2.88-6-3.14a26.64,26.64,0,0,0-7.13.27,32.37,32.37,0,0,0-6.89,1.91A16.31,16.31,0,0,0,587,83.48a7.62,7.62,0,0,0-1.73,2.84,8.33,8.33,0,0,0-.21,3.32,46.12,46.12,0,0,0,1.39,7c1.31,4.53,3.13,9.11,6.3,12.42a12,12,0,0,0,5.72,3.42,9,9,0,0,0,6.54-.7h0a.5.5,0,0,1,.54.84Z"/><path class="cls-9" d="M600.47,83.07a7.74,7.74,0,0,0-3.84,1.11c-2.7,2,0,6.42,2.68,6.81,5.78.83,8.56-9.42,2.45-9.61-2.16-.07-4.11.32-5.18,2.2-.4-1.15,1.43-3.34,2.36-4.12A13.37,13.37,0,0,0,600.76,78,1.76,1.76,0,0,0,601,75.8"/><path class="cls-10" d="M604.36,98.41a6.68,6.68,0,0,1,1.72-3.73,3.66,3.66,0,0,1,1.9-1.13,3,3,0,0,1,2.27.54A5.72,5.72,0,0,1,612.39,98a8.13,8.13,0,0,1-.46,4.45,4,4,0,0,1-.74,1.11,3.51,3.51,0,0,1-1.16.79,5.16,5.16,0,0,1-2.36.42,6,6,0,0,1-2.24-.65,5.86,5.86,0,0,1-1.8-1.34,4.4,4.4,0,0,1-1.15-1.94,2.81,2.81,0,0,1,.46-2.22A7.78,7.78,0,0,1,606.32,96a.5.5,0,1,1,.42.91l-.05,0h0a5.79,5.79,0,0,0-3.06,2,2,2,0,0,0-.33,1.59,2.37,2.37,0,0,0,1,1.34,4.63,4.63,0,0,0,1.62.72,5.33,5.33,0,0,0,1.7,0,7.74,7.74,0,0,0,1.56-.31,1.61,1.61,0,0,0,.91-.83,6.94,6.94,0,0,0,.71-3.4,4.33,4.33,0,0,0-1.23-3.17,2,2,0,0,0-1.49-.54,2.9,2.9,0,0,0-1.56.76,6.21,6.21,0,0,0-1.9,3.28h0a.15.15,0,0,1-.29,0Z"/><path class="cls-9" d="M597.59,92.74a2.83,2.83,0,1,0,4.62.19c-1-.77-5-1.41-4.62-.19"/><path class="cls-10" d="M593.81,89.46A4.45,4.45,0,0,1,596.49,91h0a.48.48,0,0,1-.35.78h0l-4.4.16a.5.5,0,0,1-.14-1,6.28,6.28,0,0,1,4.59.63.5.5,0,0,1-.12.92,8.15,8.15,0,0,0-3.08,1.56h0l-.36-.89c.39-.74.86-.6,1.32-.61a3.24,3.24,0,0,1,1.41.37h.09a.5.5,0,0,1,.28.88,7.63,7.63,0,0,0-1.37,1.46h0l-.38-.79a.77.77,0,0,0,.75.21,1.28,1.28,0,0,0,.7-.34h0a.48.48,0,0,1,.64.71l0,0-.19.15a.59.59,0,0,0-.21.46l-.55-.49,1-.11a.5.5,0,0,1,.51.7l-.85,1.9-.5-.7a1.76,1.76,0,0,0,1.09-.53.5.5,0,0,1,.82.54l-.45,1.07-.51-.69a4.44,4.44,0,0,0,1.28-.32h0l.19-.07a.44.44,0,0,1,.48.71,3.67,3.67,0,0,0-.81,1.44,1.87,1.87,0,0,0,.07,1.65h0l-.74-.49a8.31,8.31,0,0,0,1.68-1.27.5.5,0,0,1,.71.7,1.59,1.59,0,0,0-.4,1.36l-.84-.26,2.06-2h0l.14-.14a.47.47,0,0,1,.69.63c-.32.4-.11,1.08.18,1.65.14.3.31.6.44,1a12.35,12.35,0,0,0,.55,1.29.85.85,0,1,1-1.64-.45.51.51,0,0,0,.48-.67,3.81,3.81,0,0,0-.33-.89,4.21,4.21,0,0,1-.65-2.15l.83.49h0l-2.06,2a.5.5,0,0,1-.84-.26,2.58,2.58,0,0,1,.66-2.24l.71.7a9.31,9.31,0,0,1-1.89,1.43l-.25.14a.41.41,0,0,1-.49-.64h0a2.73,2.73,0,0,0,.64-1.6,8.89,8.89,0,0,0,.15-1.72l.66.63h0a5.45,5.45,0,0,1-1.57.39.5.5,0,0,1-.55-.45.51.51,0,0,1,0-.24l.45-1.07.82.54a2.76,2.76,0,0,1-1.72.83.5.5,0,0,1-.54-.45.51.51,0,0,1,0-.25l.85-1.9.51.7-1,.11a.5.5,0,0,1-.55-.44v0a1.59,1.59,0,0,1,.58-1.26l.43.88h0a3.13,3.13,0,0,0-.88-.09,1.29,1.29,0,0,0-.85.25.27.27,0,0,1-.43-.24l0-.55h0A8.63,8.63,0,0,1,595,93.08l.36.88h0a3.23,3.23,0,0,1-1.32.61c-.45.07-.89.29-1.41-.37l-.53-.68a.14.14,0,0,1,.17-.21h0a9.14,9.14,0,0,1,3.46-1.76l-.12.92a5.29,5.29,0,0,0-3.85-.53l-.14-1,4.4-.16-.4.78h0a3.74,3.74,0,0,0-2-1.71.22.22,0,0,1-.13-.28A.22.22,0,0,1,593.81,89.46Z"/><path class="cls-9" d="M604.58,88.79a3,3,0,0,1,3.61,3.16,5.93,5.93,0,0,1-1,2.41"/><path class="cls-9" d="M609.5,101.5c2.85,1.08,4.7,1.41,7.23,3.12a2.54,2.54,0,0,1,.68.59,2.62,2.62,0,0,1,.33.75,6.8,6.8,0,0,1,.46,2.47,2.31,2.31,0,0,1-1.27,2"/><path class="cls-10" d="M603.46,115.49a16.69,16.69,0,0,0-.6,4.69,17.63,17.63,0,0,1-.69,5.09h0l-1.72-.85a7.53,7.53,0,0,0,1.6-2.43c.41-.89.78-1.81,1.15-2.75a33.26,33.26,0,0,1,2.54-5.57h0a.5.5,0,0,1,.91.15h0a22.5,22.5,0,0,1,.36,6.44h0a.5.5,0,1,1-1-.08h0a13.13,13.13,0,0,1,2.69-6.46.5.5,0,0,1,.7-.12.51.51,0,0,1,.2.29l1.17,5-1,.1a26.47,26.47,0,0,1,1.53-8,.5.5,0,0,1,1,.2,3,3,0,0,0,.75,2.29,5.27,5.27,0,0,0,2.19,1.39h0l-.66.38a6.64,6.64,0,0,0,.36-3.94,8.4,8.4,0,0,0-1.47-3.63h0l.91-.39a3.61,3.61,0,0,0,1.6,1.93,8.1,8.1,0,0,0,2.54,1l-.58.64a16.6,16.6,0,0,0-2.17-4.41.5.5,0,0,1,.77-.63,6.54,6.54,0,0,0,3.06,1.6l-.55.76a12.29,12.29,0,0,0-5.21-4.23l.66-.67a3.22,3.22,0,0,0,2.41,1.27,11.09,11.09,0,0,0,3.14,0h0l-.31.82a4.36,4.36,0,0,0-1.24-1.75q-.75-.76-1.53-1.49a29.16,29.16,0,0,0-3.36-2.62l0,0,.77-.58a34.58,34.58,0,0,0,3,5.62.5.5,0,0,1-.52.76l-5.24-1.11.54-.74,4.15,7.25-.93.16a3.52,3.52,0,0,0-1.26-3.38,8.09,8.09,0,0,0-3.68-1.56l.58-.6c.69,3.14,1.7,6.2,2.43,9.4a31,31,0,0,1,.66,9.8.16.16,0,0,0,0,.06.22.22,0,0,1-.25.3l-.71-.13a2.1,2.1,0,0,1-1.57-.95c-.34-.39.33-1.36,0-1.79-.47-.95-1-1.9-1.47-2.85s-1-1.92-1.41-2.92-.79-2-1.13-3.07l0-.06,1-.08a43.64,43.64,0,0,1-.45,5.86,13.48,13.48,0,0,1-2.34,5.52l0,.05,0,.06a.48.48,0,0,1-.86-.42,8.34,8.34,0,0,0,.32-2.19c0-.75,0-1.51,0-2.27a21,21,0,0,1,.06-2.31,12.1,12.1,0,0,1,.48-2.33h0a.5.5,0,1,1,1,.3.53.53,0,0,1-.05.12,7.9,7.9,0,0,0-1,4.22c0,.75.06,1.5.11,2.26s.11,1.53.12,2.34l-.9-.36,0,0a12.47,12.47,0,0,0,2.16-5.11,43.09,43.09,0,0,0,.43-5.74v0a.5.5,0,0,1,1,0v.06a13.59,13.59,0,0,0,2.28,5.81c.57.89,1.22,1.74,1.83,2.64.22.49,1.4.46,1.57,1a2,2,0,0,1-.14,1.91l-1,.17s0,0,0-.05a30,30,0,0,0-.64-9.49c-.71-3.12-1.73-6.21-2.43-9.4h0a.5.5,0,0,1,.38-.59.5.5,0,0,1,.2,0,9,9,0,0,1,4.15,1.79,4.74,4.74,0,0,1,1.39,1.93,4.56,4.56,0,0,1,.21,2.38.5.5,0,0,1-.58.41.51.51,0,0,1-.35-.24l-4.15-7.25a.5.5,0,0,1,.54-.74l5.24,1.11-.52.76a35.57,35.57,0,0,1-3-5.79v0a.49.49,0,0,1,.79-.55l0,0c1,1,2.1,2,3.11,3q.77.75,1.51,1.54a5.63,5.63,0,0,0,1.65,1.43.33.33,0,0,1,.15.44.33.33,0,0,1-.11.13l-.36.25h0a12.07,12.07,0,0,1-3.43,0A6.25,6.25,0,0,1,615,105a3,3,0,0,1-1.43-1.32.5.5,0,0,1,.65-.68h0a13.27,13.27,0,0,1,5.63,4.6.5.5,0,0,1-.14.69.51.51,0,0,1-.4.06,7.51,7.51,0,0,1-3.53-1.88l.77-.63a17.59,17.59,0,0,1,2.3,4.67.5.5,0,0,1-.32.63.52.52,0,0,1-.26,0,9.08,9.08,0,0,1-2.87-1.11,4.59,4.59,0,0,1-2-2.48l0-.06a.49.49,0,0,1,.93-.33v0a14,14,0,0,1,1.12,4.06c.18,1.39,0,2.75.11,4.19a.41.41,0,0,1-.56.42l-.1,0h0a6.24,6.24,0,0,1-2.61-1.68,4.05,4.05,0,0,1-1-3l1,.2A25.48,25.48,0,0,0,610.8,119a.5.5,0,0,1-1,.1l-1.17-5,.89.18a12.18,12.18,0,0,0-2.51,5.95l-1-.08a21.5,21.5,0,0,0-.34-6.15l.91.16h0a23.89,23.89,0,0,0-2.35,5.42c-.31,1-.63,1.92-1,2.88s-.81,1.9-1.15,2.93a1,1,0,1,1-1.81-.6l0,0,.08-.19h0a16,16,0,0,0,1-4.53,17.82,17.82,0,0,1,1.12-4.93.5.5,0,0,1,.94.35Z"/><path class="cls-10" d="M607.14,72.72a6.82,6.82,0,0,0-5.64,1h0l.18-.67,1.77,3.12a.5.5,0,0,1-.87.49l-1.77-3.12,0,0a.47.47,0,0,1,.18-.64h0a7.41,7.41,0,0,1,6.21-.27.09.09,0,0,1-.06.17Z"/><path class="cls-10" d="M587.39,80.41a4.18,4.18,0,0,1,2.47-1.69h0l-.37.72a1.57,1.57,0,0,0-1.35-.84l0-1a10.82,10.82,0,0,0,4.81-.85h0l-.21.75a1.21,1.21,0,0,0-.48-.89c-.26-.25-.59-.39-.94-.67a1,1,0,0,1,0-1.62,1.16,1.16,0,0,1,.89-.18,2.91,2.91,0,0,1,.6.18,13.83,13.83,0,0,0,2,.82,3,3,0,0,0,1.91.05h0l-.36.66a1.83,1.83,0,0,0-1.85-1.14l.13-1,5.78,2.4L600,77a4.62,4.62,0,0,0-2.78-.53l-.08-1A53.07,53.07,0,0,0,605,74.7h0l-.19.91A3,3,0,0,1,603.64,74a2.12,2.12,0,0,1,.59-1.81l.54-.64c.16-.21.31-.44.26-.63s-.32-.37-.56-.48a5.53,5.53,0,0,0-.79-.29h0c.28-.2.51-.23.67-.12a1.83,1.83,0,0,0,.48.31,4.12,4.12,0,0,1,1,.7,2.36,2.36,0,0,1,.64,1.1,4.13,4.13,0,0,1,.08,1.2,1.94,1.94,0,0,0,.5,1.7,5.22,5.22,0,0,0,1.73,1h0a.5.5,0,1,1-.37.93h0a6.12,6.12,0,0,1-2-1.29,2.41,2.41,0,0,1-.62-1.15,4.07,4.07,0,0,1,0-1.21,2,2,0,0,0-.44-1.76,3.44,3.44,0,0,0-.78-.62c-.26-.27-.74,0-.81-.77h0a5.56,5.56,0,0,1,.83.17,1.14,1.14,0,0,1,.74.51,1.08,1.08,0,0,1-.18.93l-.44.72a1.51,1.51,0,0,0-.28,1.32,2.23,2.23,0,0,0,1,.94.49.49,0,0,1-.15.9h0a54,54,0,0,1-8,.83.5.5,0,0,1-.08-1,5.61,5.61,0,0,1,3.39.65.5.5,0,0,1-.43.9l-5.78-2.4h0a.5.5,0,0,1,.14-1,2.81,2.81,0,0,1,2.9,1.8l0,0a.46.46,0,0,1-.27.59l-.11,0h0a6.43,6.43,0,0,1-2.31-.43,10.61,10.61,0,0,0-2.07-.52,3.41,3.41,0,0,0-.46,0c-.13,0-.22,0-.14,0s0,0,0,0a.35.35,0,0,0,0,.3,1.63,1.63,0,0,0,.6.81,6.61,6.61,0,0,0,1.05.6.17.17,0,0,1,.08.23h0l-.29.51h0a11.82,11.82,0,0,1-5.25.92.5.5,0,0,1,0-1A2.56,2.56,0,0,1,590.39,79v0a.48.48,0,0,1-.21.64.49.49,0,0,1-.17.05h0a3.52,3.52,0,0,0-2.41.89.15.15,0,0,1-.21,0A.15.15,0,0,1,587.39,80.41Z"/><path class="cls-10" d="M613.24,91.37a1.29,1.29,0,0,1-.06.49l-.09.31-.09.29c0,.08,0,.22-.07.18h0l-.3.55-1.56.64-.07-.95a2.24,2.24,0,0,1,1.48,1.64,9.38,9.38,0,0,1,.19,1.88,3.66,3.66,0,0,0,1.43,2.7.5.5,0,1,1-.6.8,4.66,4.66,0,0,1-1.82-3.43,9.07,9.07,0,0,0-.16-1.68,1.27,1.27,0,0,0-.77-.94.5.5,0,0,1-.08-.94h0l1.56-.64-.3.55h0a4.34,4.34,0,0,1-.06-.44l0-.32,0-.3c0-.07,0-.24,0-.12a.75.75,0,0,1,1.47-.27Z"/><path class="cls-10" d="M603.72,79.88a12.21,12.21,0,0,1,1.84.57,4.3,4.3,0,0,1,1.64,1.17,3,3,0,0,1,.54.93,4.89,4.89,0,0,1,.21,1c.1.66.07,1.29.18,1.95a.65.65,0,1,1-1.28.21.67.67,0,0,1,0-.26,9.62,9.62,0,0,0,.15-1.85,2.6,2.6,0,0,0-.37-1.6,3.74,3.74,0,0,0-1.28-1.19,12,12,0,0,0-1.7-.79.09.09,0,0,1,.06-.17Z"/><path class="cls-10" d="M583.33,109.41c2.11,1.32,4,2.79,6,4.19,1,.71,2,1.38,3,2a5.25,5.25,0,0,0,3.45,1,1.56,1.56,0,1,1-1.12,2.44l-.05-.07a10.62,10.62,0,0,0-2.75-2.7L589,114.08c-1-.74-1.92-1.46-2.93-2.11a16.49,16.49,0,0,0-3.15-1.66.5.5,0,0,1,.35-.94Z"/><path class="cls-10" d="M585,87.25a27.05,27.05,0,0,1-2.75-2.83c-.86-1-1.65-2-2.54-2.88a16.84,16.84,0,0,0-2.75-2.4,3,3,0,0,0-2.94-.47,1.87,1.87,0,1,1-.42-3.45l.43.12a10.23,10.23,0,0,1,4.09,2.28,18.46,18.46,0,0,1,2.69,3l2.3,3.11a16,16,0,0,0,2.53,2.75h0a.5.5,0,1,1-.63.77Z"/><path class="cls-10" d="M612.66,74.24c.14,1.11.87,1.49,1.32,2.21a19.12,19.12,0,0,1,1.31,2.06c.79,1.41,1.44,2.88,2.17,4.29h0a.49.49,0,0,1-.73.62l0,0c-1.16-.86-2.63-1.4-4-2.37l.8-.42.11,2.61a.5.5,0,0,1-.82.4A25.7,25.7,0,0,1,607,76.5h0l.94-.23c-.1.65-.23,1.3-.37,1.92a9.36,9.36,0,0,0-.22,1.82.33.33,0,0,1-.57.22h0a17.18,17.18,0,0,0-3.24-2.9c-1.19-.84-2.48-1.55-3.77-2.29a.5.5,0,1,1,.49-.87l0,0c1.23.82,2.48,1.63,3.69,2.53a20.3,20.3,0,0,1,3.3,3.08l-.58.21a17.57,17.57,0,0,1,.2-1.92,7.14,7.14,0,0,0,.06-1.83.48.48,0,0,1,.9-.3l0,.07h0a24.7,24.7,0,0,0,5.62,6.85l-.82.4-.11-2.61a.5.5,0,0,1,.8-.42c1.16.86,2.63,1.4,4,2.37l-.76.6h0a23.1,23.1,0,0,0-1.89-4.32A12.84,12.84,0,0,0,613.3,77c-.54-.53-.92-1.29-2-1.23a1.41,1.41,0,1,1,1.32-1.59Z"/></svg>