<svg id="Layer_1" data-name="Layer 1" xmlns="http://www.w3.org/2000/svg" viewBox="0 0 660 658"><defs><style>.cls-1{fill:#ed3766;}.cls-1,.cls-2,.cls-3,.cls-4{stroke:#1e1e1a;stroke-width:2.16px;}.cls-2,.cls-8{fill:none;}.cls-3{fill:#59c9ee;}.cls-4{fill:#ffce08;}.cls-5{font-size:140px;fill:#fff8ce;font-family:RobotoCondensed-Light, Roboto Condensed;letter-spacing:-0.04em;}.cls-6{letter-spacing:-0.05em;}.cls-7{fill:#fff8cd;}.cls-8{stroke:#fff8cd;stroke-linecap:round;stroke-linejoin:round;}</style></defs><title>yg-beatles-170816-0918-wireframes-index</title><g id="_Group_" data-name="&lt;Group&gt;"><path class="cls-1" d="M632,284.14a390,390,0,0,1,0,202.5l-29.33-7.85L254.33,385.38,574,299.71Z"/><path class="cls-1" d="M254.33,385.38l348.38,93.41a357,357,0,0,1-93.14,161.8v0L392.5,523.54Z"/><path class="cls-1" d="M574,299.71,254.33,385.38,488.45,151.32A329.71,329.71,0,0,1,574,299.71Z"/><path class="cls-1" d="M520.38,119.34l-31.94,32L254.33,385.38l70.24-261.9L351.75,22h0A374.39,374.39,0,0,1,520.38,119.34Z"/><path class="cls-1" d="M297.22,545.25,254.33,385.38,392.5,523.54A195.49,195.49,0,0,1,305,574.27Z"/><path class="cls-1" d="M324.57,123.47l-70.24,261.9L199.81,182l-15.57-58.11A272,272,0,0,1,324.57,123.47Z"/><path class="cls-1" d="M254.33,385.38l42.89,159.88a164.57,164.57,0,0,1-85.64-.42Z"/><path class="cls-1" d="M199.81,182l54.53,203.42L116.22,247.22,105.37,236.4v0A209.12,209.12,0,0,1,199.81,182Z"/><path class="cls-1" d="M116.22,247.22,254.33,385.38,80.22,338.7l-14.77-4A195,195,0,0,1,116.22,247.22Z"/><path class="cls-1" d="M254.33,385.38,211.58,544.84a166.36,166.36,0,0,1-73.7-43Z"/><path class="cls-1" d="M254.33,385.38,137.88,501.83a166.39,166.39,0,0,1-42.95-73.7Z"/><path class="cls-1" d="M254.33,385.38,94.93,428.13l-15.08,4a181.49,181.49,0,0,1,.37-93.45Z"/><path class="cls-2" d="M632,486.63a390,390,0,0,0,0-202.5"/><path class="cls-2" d="M351.79,22a374.39,374.39,0,0,1,168.59,97.34l0,0"/><path class="cls-2" d="M509.57,640.58a357,357,0,0,0,93.14-161.8"/><path class="cls-2" d="M574,299.71a329.71,329.71,0,0,0-85.59-148.39"/><path class="cls-2" d="M324.57,123.47a272,272,0,0,0-140.34.37"/><path class="cls-2" d="M199.81,182a209.12,209.12,0,0,0-94.44,54.41"/><path class="cls-2" d="M65.45,334.74a195,195,0,0,1,50.77-87.51"/><path class="cls-2" d="M392.5,523.54A195.49,195.49,0,0,1,305,574.27"/><path class="cls-2" d="M80.22,338.7a181.49,181.49,0,0,0-.37,93.45"/><path class="cls-2" d="M297.25,545.25h0a164.57,164.57,0,0,1-85.64-.42A167.53,167.53,0,0,1,94.93,428.13"/><polyline class="cls-2" points="254.33 385.38 392.5 523.54 509.57 640.62"/><polyline class="cls-2" points="254.33 385.38 602.72 478.78 632.04 486.63"/><polyline class="cls-2" points="254.33 385.38 574.04 299.71 632.04 284.14"/><polyline class="cls-2" points="254.33 385.38 488.45 151.32 520.38 119.34"/><polyline class="cls-2" points="254.33 385.38 324.57 123.47 351.75 22"/><polyline class="cls-2" points="254.33 385.38 199.81 181.96 184.23 123.84"/><polyline class="cls-2" points="254.33 385.38 116.22 247.22 105.37 236.4 105.37 236.37"/><polyline class="cls-2" points="254.33 385.38 80.22 338.7 65.45 334.74"/><polyline class="cls-2" points="254.33 385.38 94.93 428.13 79.86 432.15"/><line class="cls-2" x1="254.33" y1="385.38" x2="137.88" y2="501.83"/><line class="cls-2" x1="254.33" y1="385.38" x2="211.58" y2="544.84"/><polyline class="cls-2" points="254.33 385.38 297.22 545.25 304.99 574.27"/></g><g id="_Group_2" data-name="&lt;Group&gt;"><path class="cls-3" d="M428.49,338.7a181.48,181.48,0,0,1,.37,93.49l-14.65-4L254.33,385.38Z"/><path class="cls-3" d="M428.49,338.7,254.33,385.38,381.64,258.07A180.18,180.18,0,0,1,428.49,338.7Z"/><path class="cls-3" d="M254.33,385.38l159.88,42.84a163.48,163.48,0,0,1-42.85,74.19l-10.85-10.85Z"/><path class="cls-3" d="M392.5,247.22l-10.85,10.85L254.33,385.38,305,196.54A195.43,195.43,0,0,1,392.5,247.22Z"/><path class="cls-3" d="M316.63,153,305,196.54,254.33,385.38,211.58,225.89,192.05,153A241.34,241.34,0,0,1,316.63,153Z"/><path class="cls-3" d="M293.22,530.39l3.87,14.49a164.93,164.93,0,0,1-85.63.42l4-14.95,38.82-145Z"/><path class="cls-3" d="M211.58,225.89l42.76,159.49L137.9,268.93v0A166.88,166.88,0,0,1,211.58,225.89Z"/><path class="cls-3" d="M254.33,385.38,148.16,491.55a149.14,149.14,0,0,1-38.83-67.31Z"/><path class="cls-3" d="M254.33,385.38l-145,38.87-14.9,4a164.91,164.91,0,0,1,.41-85.64Z"/><path class="cls-3" d="M254.33,385.38,94.84,342.62a166.78,166.78,0,0,1,43.05-73.69Z"/><path class="cls-2" d="M316.63,153a241.34,241.34,0,0,0-124.58,0"/><path class="cls-2" d="M305,196.54a195.43,195.43,0,0,1,87.5,50.68"/><path class="cls-2" d="M428.86,432.19a180.78,180.78,0,0,0-47.22-174.12"/><path class="cls-2" d="M94.43,428.26a164.91,164.91,0,0,1,.41-85.64,166.78,166.78,0,0,1,43.05-73.69v0a166.88,166.88,0,0,1,73.68-43"/><path class="cls-2" d="M297.09,544.88a164.93,164.93,0,0,1-85.63.42"/><polyline class="cls-2" points="254.33 385.38 360.51 491.56 371.37 502.41"/><polyline class="cls-2" points="254.33 385.38 414.21 428.21 428.86 432.19"/><line class="cls-2" x1="254.33" y1="385.38" x2="428.49" y2="338.7"/><polyline class="cls-2" points="254.33 385.38 381.64 258.07 392.5 247.22"/><polyline class="cls-2" points="254.33 385.38 304.99 196.53 316.63 153.02"/><polyline class="cls-2" points="254.33 385.38 211.58 225.88 192.05 152.98"/><line class="cls-2" x1="254.33" y1="385.38" x2="137.9" y2="268.93"/><line class="cls-2" x1="254.33" y1="385.38" x2="94.84" y2="342.62"/><polyline class="cls-2" points="254.33 385.38 109.33 424.25 94.43 428.26"/><line class="cls-2" x1="254.33" y1="385.38" x2="148.16" y2="491.55"/><polyline class="cls-2" points="254.33 385.38 215.51 530.35 211.46 545.29"/><polyline class="cls-2" points="254.33 385.38 293.22 530.38 297.09 544.88"/><path class="cls-2" d="M414.21,428.21a163.48,163.48,0,0,1-42.85,74.19"/><path class="cls-2" d="M109.33,424.25a149.14,149.14,0,0,0,38.83,67.31"/></g><g id="_Group_3" data-name="&lt;Group&gt;"><path class="cls-4" d="M414.21,428.21l14.33,3.84a181.39,181.39,0,0,1-46.9,80.63l-10.31-10.28-117-117Z"/><path class="cls-4" d="M413.79,342.62a164.81,164.81,0,0,1,.42,85.59L254.33,385.38Z"/><path class="cls-4" d="M254.33,385.38l117,117a163.49,163.49,0,0,1-74.11,42.85h0Z"/><path class="cls-4" d="M370.79,268.93,254.33,385.38l42.76-159.46A166.44,166.44,0,0,1,370.79,268.93Z"/><path class="cls-4" d="M297.09,225.92,254.33,385.38,211.5,225.52A164.48,164.48,0,0,1,297.09,225.92Z"/><path class="cls-4" d="M254.33,385.38,137.88,501.83a166.26,166.26,0,0,1-43-73.71Z"/><path class="cls-2" d="M381.64,512.68a181.39,181.39,0,0,0,46.9-80.63"/><path class="cls-2" d="M413.79,342.62a164.81,164.81,0,0,1,.42,85.59"/><path class="cls-2" d="M211.5,225.52a164.48,164.48,0,0,1,85.59.4,166.44,166.44,0,0,1,73.7,43"/><path class="cls-2" d="M137.88,501.83a166.26,166.26,0,0,1-43-73.71"/><path class="cls-2" d="M371.33,502.41a163.49,163.49,0,0,1-74.11,42.85"/><polyline class="cls-2" points="254.33 385.38 371.33 502.41 381.64 512.68"/><polyline class="cls-2" points="254.33 385.38 414.21 428.21 428.54 432.05"/><line class="cls-2" x1="254.33" y1="385.38" x2="413.79" y2="342.62"/><line class="cls-2" x1="254.33" y1="385.38" x2="370.79" y2="268.93"/><line class="cls-2" x1="254.33" y1="385.38" x2="297.09" y2="225.92"/><line class="cls-2" x1="254.33" y1="385.38" x2="211.5" y2="225.52"/><line class="cls-2" x1="254.33" y1="385.38" x2="94.88" y2="428.12"/><line class="cls-2" x1="254.33" y1="385.38" x2="137.88" y2="501.83"/><line class="cls-2" x1="254.33" y1="385.38" x2="297.17" y2="545.25"/></g><path class="cls-3" d="M254.33,385l159.88,42.84A163.47,163.47,0,0,1,371.37,502l-10.85-10.85Z"/><path class="cls-4" d="M254.33,385,148.16,491.16a149.22,149.22,0,0,1-38.83-67.31Z"/><polyline class="cls-2" points="254.33 384.98 360.51 491.16 371.37 502.01"/><line class="cls-2" x1="254.33" y1="384.98" x2="414.21" y2="427.82"/><line class="cls-2" x1="254.33" y1="384.98" x2="109.33" y2="423.85"/><line class="cls-2" x1="148.16" y1="491.16" x2="254.33" y2="384.98"/><path class="cls-2" d="M414.21,427.82A163.47,163.47,0,0,1,371.37,502"/><path class="cls-2" d="M109.33,423.85a149.22,149.22,0,0,0,38.83,67.31"/><g id="_Group_4" data-name="&lt;Group&gt;"><path class="cls-3" d="M360.51,491.55l10.85,10.85a163.76,163.76,0,0,1-74.15,42.85l-4-14.91A149.44,149.44,0,0,0,360.51,491.55Z"/><path class="cls-1" d="M293.22,530.35l4,14.91a164.48,164.48,0,0,1-85.64-.43l3.89-14.44A151.53,151.53,0,0,0,293.22,530.35Z"/><path class="cls-3" d="M158.42,481.29l-10.26,10.26a149.14,149.14,0,0,1-38.83-67.31l14.07-3.76A134.53,134.53,0,0,0,158.42,481.29Z"/><path class="cls-1" d="M148.16,491.55l-10.28,10.28a166.19,166.19,0,0,1-43-73.7l14.45-3.89A149.14,149.14,0,0,0,148.16,491.55Z"/><path class="cls-2" d="M137.88,501.83a166.19,166.19,0,0,1-43-73.7"/><path class="cls-2" d="M371.37,502.41a163.81,163.81,0,0,1-159.79,42.42"/><path class="cls-2" d="M215.46,530.39a151.53,151.53,0,0,0,77.76,0,149.44,149.44,0,0,0,67.29-38.79"/><path class="cls-2" d="M109.33,424.25a149.14,149.14,0,0,0,38.83,67.31"/><path class="cls-2" d="M158.42,481.29a134.53,134.53,0,0,1-35-60.8"/><line class="cls-2" x1="360.51" y1="491.55" x2="371.37" y2="502.41"/><line class="cls-2" x1="293.22" y1="530.35" x2="297.22" y2="545.25"/><line class="cls-2" x1="215.46" y1="530.39" x2="211.58" y2="544.83"/><polyline class="cls-2" points="158.42 481.29 148.16 491.56 137.88 501.83"/><polyline class="cls-2" points="123.4 420.49 109.33 424.25 94.88 428.13"/></g><text class="cls-5" transform="translate(26.2 610.31)">KE<tspan class="cls-6" x="135.23" y="0">Y</tspan><tspan x="201.68" y="0">S</tspan></text><path class="cls-7" d="M76.79,274.39a23.13,23.13,0,0,0,5-3.24,22.31,22.31,0,0,0,4-4.33,14.86,14.86,0,0,0,2.43-5.23,12.45,12.45,0,0,0-.05-5.65c-.06-.23-.09-.47-.17-.7l-.26-.67a7.08,7.08,0,0,0-.59-1.32c-.12-.21-.24-.42-.37-.62l-.45-.58a9.59,9.59,0,0,0-1-1.11,27.4,27.4,0,0,0-4.69-3.71,33.72,33.72,0,0,0-5.33-2.77,23.67,23.67,0,0,0-5.73-1.64,7.71,7.71,0,0,0-5.55,1c-.82.53-1.6,1.18-2.4,1.81s-1.58,1.27-2.33,1.93a23.36,23.36,0,0,0-4,4.4,13.08,13.08,0,0,0-2.14,5.45,28.2,28.2,0,0,0-.18,6,33.47,33.47,0,0,0,.72,6,9.33,9.33,0,0,0,2.82,5,10.89,10.89,0,0,0,5.27,2.34.5.5,0,0,1-.18,1h0A11.85,11.85,0,0,1,55.84,275a10.26,10.26,0,0,1-3.08-5.48,35.81,35.81,0,0,1-.71-6.14,29,29,0,0,1,.17-6.18,14,14,0,0,1,2.27-5.82,24.24,24.24,0,0,1,4.18-4.58c.77-.68,1.57-1.33,2.36-2s1.58-1.29,2.47-1.87a6.74,6.74,0,0,1,3-1.15,11.64,11.64,0,0,1,3.17,0,24.63,24.63,0,0,1,6,1.69,34.68,34.68,0,0,1,5.49,2.84A28.35,28.35,0,0,1,86,250.23a13.06,13.06,0,0,1,1.07,1.15l.51.61.45.67a8.1,8.1,0,0,1,.79,1.4l.36.72c.11.24.17.51.26.76a11.15,11.15,0,0,1,.25,6.41A16.39,16.39,0,0,1,87,267.7a23.1,23.1,0,0,1-9.79,7.62.5.5,0,0,1-.4-.92Z"/><path class="cls-8" d="M78.39,247.18a4.81,4.81,0,0,0-3.58-3.77l-3.48,4.76c.54,2.94,1.5,6.4,4.34,7.35,3.31,1.12,6.81-3,5.59-6.27s-5.88-4.39-8.78-2.45"/><path class="cls-8" d="M63.4,265.46c1.72-1.64,3.51-3.36,4.27-5.61s.13-5.89-2.4-6-4.66,3.22-5,5.59a3.45,3.45,0,0,0,.14,1.75,3.37,3.37,0,0,0,1.11,1.34,5.56,5.56,0,0,0,4,1.19c4.17-.49,4.42-5,2-7.61"/><path class="cls-8" d="M74.13,258.27a1.6,1.6,0,0,0-2.47,1.49,2.83,2.83,0,1,0,1.7-4.3c-1.18-.77-1.65-1.61-2.83-2.38"/><path class="cls-8" d="M81.22,256.87a4.12,4.12,0,0,0-2.81.42l3.85,2.12a5.79,5.79,0,0,0-4-1.39,8.65,8.65,0,0,1,2.17,3l-2.33-1.45a8.13,8.13,0,0,1,.6,2.05,5.93,5.93,0,0,1-1.36-.85,1.09,1.09,0,0,1,0,.94l-.83-.54-.09,2.08a2.26,2.26,0,0,1-1-1.24l-.08,1.16a4.94,4.94,0,0,1-1.11-1,13.94,13.94,0,0,1-.77,3.21,8.81,8.81,0,0,1-1-2,2.09,2.09,0,0,1-.34,1.84l-.93-2.75-.82,4"/><path class="cls-8" d="M72,251.2a3,3,0,0,0-4.64,1.2,5.93,5.93,0,0,0-.19,2.61"/><path class="cls-7" d="M63.05,260.26a20.18,20.18,0,0,0-3.92-.44,30.41,30.41,0,0,0-3.94.18l-1,.11a3.16,3.16,0,0,0-.89.19,2.29,2.29,0,0,0-.66.57c-.23.24-.44.48-.64.73a3.43,3.43,0,0,0-.81,1.58,1.69,1.69,0,0,0,.36,1.46.5.5,0,0,1-.7.71l0,0h0a2.6,2.6,0,0,1-.41-2.3,4.6,4.6,0,0,1,1.09-1.86c.23-.26.47-.5.71-.73a2.82,2.82,0,0,1,.89-.66,4,4,0,0,1,1.05-.21l1-.1c1.33-.12,2.67-.14,4-.18h4a.5.5,0,0,1,0,1Z"/><path class="cls-7" d="M56.93,263.54l-2.25,8a.5.5,0,0,1-1-.2l1.13-9,.92.33a43.7,43.7,0,0,0-2.91,5.25l-.9-.43a13.31,13.31,0,0,0,1.26-5l.92.3L51.29,267a.5.5,0,0,1-.86-.5A39.79,39.79,0,0,0,53,260l.93.36a8.2,8.2,0,0,1-3.86,3.88.5.5,0,0,1-.68-.64,24.43,24.43,0,0,1,4.2-6.85.5.5,0,0,1,.79.62,8.34,8.34,0,0,1-4.12,3.06.5.5,0,0,1-.57-.76A38.48,38.48,0,0,1,53,255.74l.7.71a8.59,8.59,0,0,1-2.7,1.67.5.5,0,0,1-.55-.8,20.55,20.55,0,0,1,5-4,.5.5,0,0,1,.63.75,4.8,4.8,0,0,1-4.45,1.67h0a.49.49,0,0,1-.24-.85c2.06-1.77,4.56-2.46,6.63-3.92h0a.05.05,0,0,1,.07,0,.05.05,0,0,1,0,.06c-1.11,1.71-3,2.75-4.13,4.25h0l-.53-.81,3.33-1.1a.5.5,0,0,1,.53.8l-5.43,6.24a.5.5,0,0,1-.84-.52,9,9,0,0,1,5.63-5.11.5.5,0,0,1,.62.33.5.5,0,0,1-.06.42c-4,6-8,12.11-11,18.65a0,0,0,0,0,0,0l-.85-.53c-.67-1-.8-1.46-.7-1.79a1,1,0,0,1,.85-.54c.41-.08.95-.06,1.35-.15a1.34,1.34,0,0,0,.84-.56c.84-1,1.68-1.94,2.46-2.95s1.55-2,2.27-3.1a34.74,34.74,0,0,0,2-3.28h0a.5.5,0,0,1,.89.45l0,0a23.7,23.7,0,0,0-2.33,9.06l-1-.22a44.3,44.3,0,0,0,2.44-7.38l1,.25a27.33,27.33,0,0,0-.33,14,.5.5,0,0,1-1,.23,28.33,28.33,0,0,1,.34-14.5.5.5,0,0,1,1,.25A45.28,45.28,0,0,1,52.86,271a.5.5,0,0,1-1-.22,24.7,24.7,0,0,1,2.43-9.45l.87.49h0c-.81,1-1.58,2-2.32,3.09s-1.49,2.1-2.2,3.17l-2.15,3.21a1.36,1.36,0,0,0-.34,1c0,.42.15.93.16,1.36,0,.82-.16,1.54-2.26.68l-.88-.36a.09.09,0,0,1,0-.17h0c3.08-6.63,7.1-12.73,11.09-18.78l.56.75a8,8,0,0,0-5,4.53l-.84-.52,5.43-6.24.53.8-3.33,1.1h0a.49.49,0,0,1-.49-.82h0c1.55-1.47,3.47-2.13,4.79-3.63L58,251h0c-1.91,1.7-4.37,2.76-6,4.56l-.26-.85h0a3.8,3.8,0,0,0,3.5-1.31l.63.75A19.56,19.56,0,0,0,51.15,258l-.55-.8A7.59,7.59,0,0,0,53,255.71a.5.5,0,0,1,.7.71,37.43,37.43,0,0,0-3.16,3.84L50,259.5a7.35,7.35,0,0,0,3.62-2.7l.79.62a23.43,23.43,0,0,0-4,6.57l-.68-.64a7.21,7.21,0,0,0,3.38-3.41.5.5,0,0,1,.93.36A40.81,40.81,0,0,1,51.32,267l-.86-.5,2.82-4.24a.5.5,0,0,1,.92.3,14.3,14.3,0,0,1-1.36,5.33.5.5,0,0,1-.9-.43,44.72,44.72,0,0,1,3-5.37.5.5,0,0,1,.92.33l-1.13,9-1-.2,2.25-8a.5.5,0,1,1,1,.27Z"/><path class="cls-7" d="M70.13,241a32,32,0,0,0,3.59-.27q1.79-.22,3.56-.57c1.19-.21,2.37-.47,3.55-.7a3.79,3.79,0,0,0,1.72-.81,2.68,2.68,0,0,1,.87-.39c.3-.08.61-.06,1,.73l0,1a19.23,19.23,0,0,0-5.26.23A46.25,46.25,0,0,0,74,241.68l.07-.92a53.12,53.12,0,0,0,7.31,3l-.35.93a4.62,4.62,0,0,0-2.82-.27l-.16-1,6.22-.67-.14,1a1.83,1.83,0,0,0-2.09.58l-.16-.73a7,7,0,0,0,5,.67.5.5,0,0,1,.43.88L85,246.89v-.78a10.82,10.82,0,0,0,4.38,2.17l-.25,1a1.57,1.57,0,0,0-1.53.42l-.15-.79a4.81,4.81,0,0,1,2.3,2.35.5.5,0,0,1-.91.41h0a3.81,3.81,0,0,0-1.82-1.85.5.5,0,0,1-.24-.66.54.54,0,0,1,.09-.13,2.56,2.56,0,0,1,2.54-.7.5.5,0,0,1-.25,1,11.81,11.81,0,0,1-4.78-2.37.5.5,0,0,1-.07-.7l.08-.07,2.25-1.78.43.88a7.94,7.94,0,0,1-5.68-.77h0a.5.5,0,0,1-.19-.67l0-.06a2.81,2.81,0,0,1,3.29-.91.5.5,0,0,1-.13,1h0l-6.22.67a.5.5,0,0,1-.16-1,5.61,5.61,0,0,1,3.44.33.5.5,0,0,1-.35.93,54.12,54.12,0,0,1-7.45-3.06.5.5,0,0,1-.23-.67.5.5,0,0,1,.3-.25A47,47,0,0,1,79,239.25a20.73,20.73,0,0,1,5.53-.25.22.22,0,0,1,.2.23v0l-.18.74c-.21.86-.49.95-.79.94a2.66,2.66,0,0,1-.92-.16,3.49,3.49,0,0,0-1.86-.32c-1.2.11-2.39.23-3.59.4s-2.39.34-3.58.53-2.39.38-3.58.62a.5.5,0,0,1-.2-1Z"/><path class="cls-8" d="M63.52,250.7l-.35.46,1.1,1.28a1.83,1.83,0,0,0-1.71.8c-.41.52-.66,1.15-1,1.7a4.15,4.15,0,0,1-2.61,1.66"/><path class="cls-8" d="M63.86,280.2a4.09,4.09,0,0,0-.75,4.5"/><path class="cls-7" d="M93.12,257.67a7.82,7.82,0,0,0,2,.87c.72.22,1.47.41,2.23.59s1.53.37,2.31.62a8.8,8.8,0,0,1,2.35,1.07.85.85,0,0,1-1,1.4l-.05,0h0a7.33,7.33,0,0,0-1.84-1c-.7-.28-1.43-.51-2.17-.76s-1.5-.49-2.25-.78a8.8,8.8,0,0,1-2.2-1.18.5.5,0,0,1,.58-.81Z"/><path class="cls-7" d="M64,280a133.24,133.24,0,0,1,19.86.31h0l-.54.59a8.64,8.64,0,0,1-.78-3.69,8.27,8.27,0,0,1,.77-3.69.52.52,0,0,1,1,.16h0a28.58,28.58,0,0,1,.14,3.52,34.77,34.77,0,0,1-.13,3.52l0,.16a.48.48,0,0,1-.52.43h0A132.23,132.23,0,0,0,64.09,281a.5.5,0,0,1-.06-1Z"/><path class="cls-7" d="M83.61,273.67q-2.91-.05-5.81,0a51.56,51.56,0,0,0-5.78.28,19.6,19.6,0,0,0-5.55,1.45,18,18,0,0,0-4.82,3,.5.5,0,0,1-.67-.75l.07-.05A27.82,27.82,0,0,1,72,273.56c1.93-.26,3.88-.32,5.8-.46s3.86-.26,5.79-.44a.5.5,0,1,1,.09,1Z"/><path class="cls-8" d="M63.78,281.38a7.21,7.21,0,0,0-1.87-1.44c-.64-.47-1.18-1.31-.83-2"/><path class="cls-7" d="M88.49,266.88a4.72,4.72,0,0,1,1.39-1.07,6.28,6.28,0,0,1,.75-.32c.26-.06.5-.27.81,0a1.92,1.92,0,0,0,.44.31,3.85,3.85,0,0,0,.41.06c.27,0,.54.06.8.09a8.38,8.38,0,0,0,1.57,0h0l-.33.84c-.16-.18-.42-.36-.69-.65a2.48,2.48,0,0,1-.53-1l-.41-1.84a33.86,33.86,0,0,0-1-3.52,35,35,0,0,0-3.17-6.62.5.5,0,1,1,.85-.52,36,36,0,0,1,3.26,6.81,34.82,34.82,0,0,1,1.08,3.62c.15.59.27,1.27.4,1.8a1.48,1.48,0,0,0,.31.62c.15.18.41.35.67.63h0a.49.49,0,0,1-.33.83h0a5.89,5.89,0,0,0-1.5.3c-.25.09-.49.17-.73.28a3.52,3.52,0,0,0-.36.17,1.75,1.75,0,0,0-.32.42c-.2.37-.47.23-.72.26a7.09,7.09,0,0,1-.77-.06,5.64,5.64,0,0,1-1.64-.47h0a.63.63,0,0,1-.29-.84A.66.66,0,0,1,88.49,266.88Z"/><path class="cls-7" d="M72.21,308.21c-2.66.47-2.66-.75-3.14-1.67s-.35-2.21-.64-3.24a9.33,9.33,0,0,0-.57-1.46c-.21-.48-.41-1-.61-1.45s-.37-1-.54-1.47a12.52,12.52,0,0,0-.55-1.31c-.86-1.75-2-3.5-2.89-5.35a14.64,14.64,0,0,1-1.14-3,6.32,6.32,0,0,1,0-3.36A5.62,5.62,0,0,1,64,283.1a9.63,9.63,0,0,1,2.76-1.71,7.06,7.06,0,0,1,3.27-.6,5.15,5.15,0,0,1,3.08,1.44,18.46,18.46,0,0,1,3.35,5.24c.39.79,1.28,1.36,1.93,2.3a5.55,5.55,0,0,1,.69,1.49,7.74,7.74,0,0,0,.64,1.27.5.5,0,0,1-.85.53,8.77,8.77,0,0,1-.76-1.42,4.58,4.58,0,0,0-.6-1.25,9.16,9.16,0,0,0-1-1,5.14,5.14,0,0,1-1-1.26c-.54-1-1-1.85-1.48-2.69a9.77,9.77,0,0,0-1.75-2.24,3.85,3.85,0,0,0-2.34-1.07,6,6,0,0,0-2.65.53,8.33,8.33,0,0,0-2.38,1.49,4.26,4.26,0,0,0-1.45,2.16c-.46,1.69.3,3.58,1.18,5.3s2.1,3.37,3.13,5.22c.27.45.5.95.74,1.45s.4.9.61,1.34.44.88.68,1.31a5.83,5.83,0,0,0,.82,1.24c.68.76,1.69,1.31,2.4,2s1.65,1.31.06,3.51A1.34,1.34,0,0,1,72.21,308.21Z"/></svg>