<svg id="Layer_1" data-name="Layer 1" xmlns="http://www.w3.org/2000/svg" xmlns:xlink="http://www.w3.org/1999/xlink" viewBox="0 0 660 638"><defs><style>.cls-1,.cls-10,.cls-3,.cls-5,.cls-7{fill:none;}.cls-2{clip-path:url(#clip-path);}.cls-3{stroke:#ed3766;}.cls-10,.cls-3,.cls-5,.cls-7{stroke-linecap:round;stroke-linejoin:round;}.cls-3,.cls-5,.cls-7{stroke-width:4.12px;}.cls-4{fill:#ed3766;}.cls-5{stroke:#fbc810;}.cls-6{fill:#fbc810;}.cls-7{stroke:#51c3f0;}.cls-8{fill:#51c3f0;}.cls-12,.cls-9{fill:#fff8ce;}.cls-10{stroke:#fff8cd;}.cls-11{fill:#fff8cd;}.cls-12{font-size:140px;font-family:RobotoCondensed-Light, Roboto Condensed;}.cls-12,.cls-16{letter-spacing:-0.04em;}.cls-13{letter-spacing:-0.03em;}.cls-14{letter-spacing:-0.08em;}.cls-15{letter-spacing:-0.16em;}</style><clipPath id="clip-path"><rect class="cls-1" x="-1515.67" y="-615.53" width="585.86" height="482.73"/></clipPath></defs><title>yg-beatles-170816-0918-wireframes-index</title><g class="cls-2"><image width="1920" height="912" transform="translate(-3979.49 -1945.84) scale(2.14)" xlink:href="../../beatles3/images/beatles_141128_SongStructure-SmallMultiples-comp2.jpg"/></g><line class="cls-3" x1="262.66" y1="66.37" x2="325.04" y2="256.9"/><polygon class="cls-4" points="316.49 257.17 328.72 268.13 332.1 252.06 316.49 257.17"/><line class="cls-5" x1="351.05" y1="161.25" x2="366.16" y2="183.38"/><polygon class="cls-6" points="358.02 186.02 372.82 193.14 371.59 176.76 358.02 186.02"/><line class="cls-7" x1="257.53" y1="194.94" x2="323.67" y2="282.91"/><polygon class="cls-8" points="315.67 285.92 330.77 292.35 328.79 276.05 315.67 285.92"/><line class="cls-7" x1="150.63" y1="86.42" x2="94.62" y2="103.89"/><polygon class="cls-8" points="94.46 95.34 83.33 107.42 99.36 111.02 94.46 95.34"/><line class="cls-5" x1="242.73" y1="198.04" x2="222.49" y2="369.43"/><polygon class="cls-6" points="214.62 366.08 221.1 381.17 230.93 368.01 214.62 366.08"/><line class="cls-5" x1="232.41" y1="196.01" x2="81.37" y2="406.84"/><polygon class="cls-6" points="76.1 400.11 74.49 416.45 89.45 409.67 76.1 400.11"/><line class="cls-5" x1="227.84" y1="192.73" x2="191.75" y2="222.85"/><polygon class="cls-6" points="188.33 215 182.68 230.42 198.86 227.61 188.33 215"/><line class="cls-7" x1="224.59" y1="187.9" x2="68.6" y2="260.64"/><polygon class="cls-8" points="67.31 252.19 57.89 265.64 74.25 267.07 67.31 252.19"/><line class="cls-3" x1="249.47" y1="196.68" x2="338.86" y2="567.31"/><polygon class="cls-4" points="330.32 566.9 341.63 578.8 346.28 563.05 330.32 566.9"/><line class="cls-3" x1="459.13" y1="361.52" x2="462.34" y2="476.18"/><polygon class="cls-4" points="454.07 474.01 462.68 487.99 470.49 473.55 454.07 474.01"/><line class="cls-7" x1="468.95" y1="360.22" x2="557.85" y2="535.14"/><polygon class="cls-8" points="549.44 536.72 563.2 545.67 564.08 529.27 549.44 536.72"/><line class="cls-5" x1="348.8" y1="323.73" x2="357.67" y2="343.7"/><polygon class="cls-6" points="349.19 344.83 362.46 354.5 364.2 338.17 349.19 344.83"/><circle class="cls-9" cx="37.66" cy="275.59" r="11.96"/><circle class="cls-9" cx="168.07" cy="243.28" r="11.96"/><circle class="cls-9" cx="245.47" cy="178.67" r="11.96"/><circle class="cls-9" cx="341.1" cy="146.36" r="11.96"/><circle class="cls-9" cx="385.21" cy="210.97" r="11.96"/><circle class="cls-9" cx="459.03" cy="340.2" r="11.96"/><circle class="cls-9" cx="370.73" cy="372.5" r="11.96"/><circle class="cls-9" cx="346.76" cy="598.64" r="11.96"/><circle class="cls-9" cx="463.1" cy="508.71" r="11.96"/><circle class="cls-9" cx="573.96" cy="566.33" r="11.96"/><circle class="cls-9" cx="342.05" cy="307.89" r="11.96"/><circle class="cls-9" cx="257.43" cy="49.45" r="11.96"/><circle class="cls-9" cx="167" cy="81.75" r="11.96"/><circle class="cls-9" cx="63.48" cy="114.06" r="11.96"/><path class="cls-10" d="M344.07,55.52a6.07,6.07,0,0,1,.57-.62"/><path class="cls-11" d="M338.49,55.72c.47.65.9,1.26,1.36,1.85s.94,1.17,1.44,1.78a20.14,20.14,0,0,1,1.43,1.94,7.88,7.88,0,0,1,1,2.33h0l-.8-.05A28.47,28.47,0,0,0,347.28,59,9.13,9.13,0,0,0,349,56.51a1.81,1.81,0,0,0-.63-2.27.51.51,0,1,1,.39-.93l.1.06,0,0a2.35,2.35,0,0,1,.92,1.64,3.24,3.24,0,0,1-.28,1.71,11.51,11.51,0,0,1-2,2.53,28.47,28.47,0,0,0-3.83,5,.38.38,0,0,1-.51.15l0,0-.25-.18h0a17.27,17.27,0,0,1-3.45-3.39,11.21,11.21,0,0,1-1.32-2.2,6.54,6.54,0,0,1-.61-2.56.52.52,0,0,1,.94-.31Z"/><path class="cls-11" d="M333.4,55.49a18.6,18.6,0,0,0-2.22,3.84,10.43,10.43,0,0,1-1.21,2,4.8,4.8,0,0,1-.85.82,4.07,4.07,0,0,0-1,.84l0,0a.62.62,0,1,1-.29-1,1.07,1.07,0,0,0,.56,0,1.54,1.54,0,0,0,.47-.25,4.39,4.39,0,0,0,.75-.77,9.63,9.63,0,0,0,1.1-1.92,33.38,33.38,0,0,1,1.87-4.23.5.5,0,1,1,.86.52Z"/><path class="cls-10" d="M334.22,58.37a1.65,1.65,0,0,0,1.48.39,1.34,1.34,0,0,0,1-1.12,1.18,1.18,0,1,0-2.26.37l-.16.32"/><path class="cls-11" d="M335.12,58.17a3.82,3.82,0,0,1-.09.88l-.49,1c-.36.72-.68,1.47-1,2.21-.67,1.48-1.28,3-1.9,4.49-1.22,3-2.36,6.06-3.56,9.08s-2.46,6.06-3.82,9a2.28,2.28,0,0,0,.07,2,5.34,5.34,0,0,0,1.57,1.6,24,24,0,0,1,2,1.44,4.07,4.07,0,0,1,1.46,2.29h0l-.92-.18a9.43,9.43,0,0,1,4.69-3.9h0l-.32.47c-.21-2.42-.26-4.84-.23-7.25,0-1.2,0-2.41.09-3.61a33,33,0,0,1,.45-3.58A49.17,49.17,0,0,0,334,67c.19-2.39.33-4.78.29-7.16h0a.49.49,0,0,1,.4-.49h0c.14,0,.14-.05.14-.05a.64.64,0,0,0,0-.31,5.29,5.29,0,0,0-.1-.55l-.07-.3,0-.08s0-.08,0,0A.33.33,0,0,0,335.12,58.17Zm.14-1a.81.81,0,0,1,.43.47,1.39,1.39,0,0,1,0,.15l0,.07.07.3a6.15,6.15,0,0,1,.12.67,1.53,1.53,0,0,1-.14.89,1.14,1.14,0,0,1-.88.56l.43-.49h0L335.07,67a58.79,58.79,0,0,0,0,7.22,34.59,34.59,0,0,1-.06,3.6c-.09,1.19-.25,2.38-.38,3.57l-.78,7.13v.05a.5.5,0,0,1-.32.41h0a8.43,8.43,0,0,0-4.19,3.48.5.5,0,0,1-.92-.15v0h0a3.12,3.12,0,0,0-1.09-1.76,23.89,23.89,0,0,0-1.9-1.45,6.18,6.18,0,0,1-1.75-1.92,3.07,3.07,0,0,1-.09-2.67c1.42-3,2.69-5.91,3.92-8.93l3.63-9,1.8-4.54.92-2.27.23-.57.11-.28.17-.37A6.51,6.51,0,0,1,335.26,57.18Z"/><path class="cls-11" d="M320.84,40a5.09,5.09,0,0,0-1,3.05,7.93,7.93,0,0,0,.75,3.31,11.72,11.72,0,0,0,4.55,5.11,21,21,0,0,0,6.56,2.61,43.13,43.13,0,0,0,7.11,1A42.94,42.94,0,0,0,346,55a8.63,8.63,0,0,0,3.31-1,7.92,7.92,0,0,0,2.46-2.41,16.54,16.54,0,0,0,2.31-6.66,34.22,34.22,0,0,0,.34-7.17,26.36,26.36,0,0,0-1.28-7,8.07,8.07,0,0,0-4.35-5.22,62.66,62.66,0,0,0-6.7-2.66,17,17,0,0,0-7-.83,18.21,18.21,0,0,0-6.66,2.45,29.66,29.66,0,0,0-5.87,4.12,17.81,17.81,0,0,0-4.14,5.76,16,16,0,0,0-1,3.4,15.66,15.66,0,0,0-.19,1.77,3.85,3.85,0,0,0,.21,1.76v0a.54.54,0,1,1-1,0,8.18,8.18,0,0,0,.19-1.86,16.26,16.26,0,0,1,.2-1.84,16.56,16.56,0,0,1,1.08-3.53,18.41,18.41,0,0,1,4.27-6,30.24,30.24,0,0,1,6-4.2A18.8,18.8,0,0,1,335,21.38a17.6,17.6,0,0,1,7.28.85A63.1,63.1,0,0,1,349,24.92,7.19,7.19,0,0,1,352,27.2a9.81,9.81,0,0,1,1,1.58c.26.56.51,1.13.71,1.71a27.65,27.65,0,0,1,1.33,7.2,34.85,34.85,0,0,1-.31,7.31,17.16,17.16,0,0,1-2.39,7,8.62,8.62,0,0,1-2.67,2.63,9.34,9.34,0,0,1-3.58,1.11,44.87,44.87,0,0,1-7.32.26,44,44,0,0,1-7.27-.92,22,22,0,0,1-6.9-2.65,12.79,12.79,0,0,1-5-5.51,13.76,13.76,0,0,1-1.12-7.75l0-.11a1.34,1.34,0,1,1,2.38,1Z"/><path class="cls-11" d="M349.61,38.12a1,1,0,0,1,.65,1,6,6,0,0,1-.07,1.17,5.25,5.25,0,0,1-.94,2.28,3.67,3.67,0,0,1-2,1.4,4.35,4.35,0,0,1-2.27-.06,6,6,0,0,1-2-.94,4.56,4.56,0,0,1-1.48-1.65,4.87,4.87,0,0,1,.17-4.31,7,7,0,0,1,3.15-3,5.6,5.6,0,0,1,2.19-.58,3.62,3.62,0,0,1,3.74,2.43l.63,2.05a7.53,7.53,0,0,1,.44,2.22,3.13,3.13,0,0,1-.25,1.23,3.29,3.29,0,0,1-.75,1l-.27-.87h0c.16.11.43.05.69-.15a3.25,3.25,0,0,0,.67-.79c.38-.61.68-1.31,1-2a10.8,10.8,0,0,1,1-2,2.72,2.72,0,0,1,1-.79,1.82,1.82,0,0,1,1.43-.07l.1,0a.52.52,0,0,1-.37,1,.53.53,0,0,1-.2-.13c-.32-.33-1.1-.16-1.56.31a6.76,6.76,0,0,0-1.08,1.85c-.37.65-.61,1.33-.94,2a5.28,5.28,0,0,1-.59,1,1.61,1.61,0,0,1-1.27.7h0a.49.49,0,0,1-.29-.85h0a1.92,1.92,0,0,0,.68-1.5,7.39,7.39,0,0,0-.38-1.93l-.57-2a2.89,2.89,0,0,0-1.07-1.45,3.88,3.88,0,0,0-3.65,0,6.35,6.35,0,0,0-3,2.57,4.24,4.24,0,0,0-.2,3.85,4.66,4.66,0,0,0,3.17,2.26,3.7,3.7,0,0,0,1.92-.1,1.79,1.79,0,0,0,1.18-1.24,4.75,4.75,0,0,0,0-1.81l-.11-1a1,1,0,0,1,.45-1.07A.89.89,0,0,1,349.61,38.12Z"/><path class="cls-11" d="M326.31,36.74a9.88,9.88,0,0,0,4.86.89,7.76,7.76,0,0,0,2.34-.58,6.41,6.41,0,0,0,1.91-1.44,4.07,4.07,0,0,0,1.06-2,2,2,0,0,0-.78-1.91c-1.17-1-2.93-.94-4.43-.57a7.28,7.28,0,0,0-2.15.9,2.33,2.33,0,0,0-1.19,1.61,5.09,5.09,0,0,0,1.26,4.17A4,4,0,0,0,331,38.88a3,3,0,0,0,2.06-.29A5.13,5.13,0,0,0,335.56,35h0a.5.5,0,0,1,1,.16,6,6,0,0,1-2.93,4.46,4.08,4.08,0,0,1-2.82.4,5.08,5.08,0,0,1-2.41-1.42,6.17,6.17,0,0,1-1.56-5.15,3,3,0,0,1,.63-1.38,4.34,4.34,0,0,1,1.1-.92,8.27,8.27,0,0,1,2.5-1A7.65,7.65,0,0,1,333.7,30a4.48,4.48,0,0,1,2.49,1.09,2.74,2.74,0,0,1,.93,2.57A4.73,4.73,0,0,1,335.84,36a7.08,7.08,0,0,1-2.09,1.56,8.31,8.31,0,0,1-2.51.67c-1.72.21-3.44.12-5.17.38a1,1,0,1,1,.25-1.88Z"/><path class="cls-10" d="M340.26,43a3,3,0,0,1-4.89-1.12,3,3,0,0,1,3.73-3.36c1,.83,2.43,4.59,1.16,4.48"/><path class="cls-11" d="M343.62,46.36a3.62,3.62,0,0,0-1.83-1.69h0l.68-.55.92,4.3h0l-1.28.09a2.39,2.39,0,0,0,0-2,3.83,3.83,0,0,0-1.14-1.65h0l.87-.31a9.14,9.14,0,0,1-1,3.76.5.5,0,0,1-.67.22.51.51,0,0,1-.27-.38l-.34-2.72.94.17a8.62,8.62,0,0,1-1.29,1.87.5.5,0,0,1-.85-.21,6.43,6.43,0,0,1-.21-1.73l.95.23a1.59,1.59,0,0,1-1.11.83.5.5,0,0,1-.58-.39v0l-.1-1,.79.35-1.68,1.24a.5.5,0,0,1-.7-.1.51.51,0,0,1-.09-.24,2.76,2.76,0,0,1,.45-1.86l.7.69-1,.66a.5.5,0,0,1-.7-.12.51.51,0,0,1-.09-.23,5.44,5.44,0,0,1,.05-1.62l.76.51a14.44,14.44,0,0,1-3.08,1.47.5.5,0,0,1-.64-.62,9.32,9.32,0,0,1,1-2.12v0l.84.55a2.42,2.42,0,0,1-2,.83h0a.2.2,0,0,1-.2-.29l0,0,1.3-2.58v0l.65.71c-.64.25-1.26.55-1.88.84l-.92.46c-.3.17-.64.24-.85.6a.6.6,0,1,1-.46-.89c.41,0,.67-.2,1-.35l.9-.49c.59-.34,1.19-.68,1.76-1.06a.49.49,0,0,1,.66.7h0l0,0L332,44.44l-.18-.32h0a1.71,1.71,0,0,0,1.21-1,.5.5,0,1,1,.93.39l0,.07-.06.1v0a8.32,8.32,0,0,0-.88,1.9L332.4,45a13.44,13.44,0,0,0,2.87-1.37.5.5,0,0,1,.76.51,4.44,4.44,0,0,0,0,1.32l-.78-.35,1-.66a.5.5,0,0,1,.7.69,1.76,1.76,0,0,0-.29,1.18l-.79-.34,1.68-1.24a.5.5,0,0,1,.7.11.51.51,0,0,1,.09.24l.1,1-.59-.44a.59.59,0,0,0,.4-.3.5.5,0,0,1,.95.22h0a5.43,5.43,0,0,0,.18,1.46l-.85-.21a7.62,7.62,0,0,0,1.14-1.65.5.5,0,0,1,.94.17l.34,2.72-.94-.17a8.15,8.15,0,0,0,.88-3.35v-.06a.48.48,0,0,1,.87-.25h0a9.24,9.24,0,0,1,1.07,2.07c.28.73.34,1.47.65,2.28a.65.65,0,1,1-1.24.33l0-.24h0l-.63-4.35v0a.49.49,0,0,1,.69-.52h0a4.61,4.61,0,0,1,2.35,2.16.5.5,0,1,1-.89.46Z"/><path class="cls-10" d="M342.65,35.37a3,3,0,0,0-3.85-2.86,5.93,5.93,0,0,0-2.15,1.5"/><path class="cls-10" d="M330.42,33.87a39.89,39.89,0,0,0-5.8-7,2.54,2.54,0,0,0-.72-.54,2.62,2.62,0,0,0-.8-.16,6.8,6.8,0,0,0-2.51.07,2.31,2.31,0,0,0-1.71,1.67"/><path class="cls-11" d="M318.77,32.13a1.37,1.37,0,0,0-1.07,0l-1,.24-2,.49c-1.34.35-2.68.7-4,1.12a.5.5,0,0,1-.37-.92l.07,0,8.49-3.33.14,1a43.72,43.72,0,0,0-6-.05l-.06-1a13.31,13.31,0,0,0,5-1.26l.17.95L313,28.84a.5.5,0,0,1,0-1,39.8,39.8,0,0,0,7-.82l.13,1a8.21,8.21,0,0,1-5.26-1.54.5.5,0,0,1,.24-.9,24.43,24.43,0,0,1,8,.42.5.5,0,0,1-.17,1,8.35,8.35,0,0,1-4.66-2.15.5.5,0,0,1,.4-.86,38.44,38.44,0,0,1,5,1l-.29,1a8.58,8.58,0,0,1-2.76-1.58.5.5,0,0,1,.44-.87A20.56,20.56,0,0,1,327,25.92a.5.5,0,0,1-.36.92,4.8,4.8,0,0,1-3.59-3.11h0l.1-.46a.32.32,0,0,1,.53-.17,5.13,5.13,0,0,0,1.77,1l1.88.63c1.26.42,2.52.82,3.82,1.16h0a.49.49,0,0,1-.22,1h-.06q-3.18-.51-6.32-1.29l.46-.85,2.56,2.4a.5.5,0,0,1-.45.85l-8.07-1.79a.5.5,0,0,1,.05-1,9,9,0,0,1,7.17,2.5h0a.49.49,0,0,1-.4.84c-3.64-.49-7.22-1.18-10.84-1.53a35.3,35.3,0,0,0-5.43-.21,18.58,18.58,0,0,0-5.29.95h0l0-1q7.55,1.38,15.22,2a.5.5,0,0,1,0,1,23.7,23.7,0,0,0-9.08,2.28l-.26-.95a44.29,44.29,0,0,0,7.63-1.38h0l.24,1a18.65,18.65,0,0,0-3.43.87,20.71,20.71,0,0,0-3.23,1.47,22.74,22.74,0,0,0-2.94,2,4.81,4.81,0,0,0-1.06,1.49,2.4,2.4,0,0,1-.55.68c-.2.21-.48.3-1.23-.08h0a1.36,1.36,0,0,1-.65-.73c-.29-.78-.13-1.08.13-1.27a2.82,2.82,0,0,1,.84-.46,8,8,0,0,0,1.83-.64A35.39,35.39,0,0,1,311,32.26q1.66-.77,3.37-1.4t3.48-1.12a.5.5,0,0,1,.27,1h0a45.3,45.3,0,0,1-7.81,1.41.5.5,0,0,1-.26-.95,24.7,24.7,0,0,1,9.46-2.38l0,1q-7.7-.66-15.31-2.06h-.05a.49.49,0,0,1,0-1h0a34.83,34.83,0,0,1,5.53-.46c1.84,0,3.66.09,5.48.24,3.64.32,7.26.85,10.88,1l-.39.85h0a8,8,0,0,0-6.36-2.22l.05-1L327.36,27l-.45.85-2.56-2.4a.5.5,0,0,1,.46-.85q3.09.77,6.23,1.27l-.28,1h0A24.32,24.32,0,0,0,327.23,25c-.61-.26-1.23-.48-1.85-.7a4.5,4.5,0,0,0-2-.26l.62-.64h0a3.8,3.8,0,0,0,2.83,2.45l-.36.92a19.55,19.55,0,0,0-5.6-2.36l.44-.87a7.59,7.59,0,0,0,2.43,1.39.5.5,0,0,1-.29,1,37.46,37.46,0,0,0-4.88-.94l.4-.86a7.35,7.35,0,0,0,4.1,1.89l-.17,1a23.43,23.43,0,0,0-7.7-.4l.24-.9A7.21,7.21,0,0,0,320.07,27a.5.5,0,0,1,.13,1,40.8,40.8,0,0,1-7.13.84l0-1,5.07.45a.5.5,0,0,1,.17.95A14.31,14.31,0,0,1,313,30.6a.5.5,0,0,1-.06-1,44.71,44.71,0,0,1,6.14.05.5.5,0,0,1,.14,1l-8.49,3.33h0l-.29-1c1.37-.19,2.73-.45,4.09-.71l2-.43,1-.22a1.37,1.37,0,0,0,1-.48.65.65,0,1,1,.22,1Z"/><path class="cls-11" d="M353.83,50.17a3.81,3.81,0,0,0,.76-2.48.5.5,0,0,1,.47-.53l.16,0a2.56,2.56,0,0,1,1.83,1.9.5.5,0,0,1-1,.24,11.81,11.81,0,0,1-.2-5.33.5.5,0,0,1,.59-.4l.1,0,2.63,1.12h0l-.57.79A11.39,11.39,0,0,1,357.36,43,10.27,10.27,0,0,1,357,41.6a7.26,7.26,0,0,0-.4-1.4,0,0,0,0,1,0,0,.49.49,0,0,1,.49-.5h.07a2.81,2.81,0,0,1,2.37,2.46.5.5,0,0,1-.91.34h0l-3.56-5.15a.5.5,0,0,1,.79-.61,5.61,5.61,0,0,1,1.35,3.18.5.5,0,0,1-1,.13,54.07,54.07,0,0,1-.87-8V32a.49.49,0,0,1,.84-.33c1.47,1.61,2.92,3.21,4.26,4.93.66.86,1.32,1.73,1.94,2.64.32.44,1,.68,1.43,1.12s.56,1-.12,1.89c0,0,0,0,0,0a.53.53,0,1,1-.66.79l-.21-.3-9.39-13.55,0,0h0a.49.49,0,0,1,.44-.77c2,.15,4.1.08,6.21.31a13.07,13.07,0,0,1,3.13.71c.5.2,1.07.26,1.59.47A2.12,2.12,0,0,1,365.95,31l0,0,.14.23a.47.47,0,0,1-.73.57,7.23,7.23,0,0,0-3.47-1.83,9,9,0,0,0-3.92-.14h0l.38-.76a17,17,0,0,1,.79,3.1,10.4,10.4,0,0,1-.09,3.2v0a.42.42,0,0,1-.48.35h-.06l-.08,0L355,34.76a.5.5,0,1,1,.3-1l3.42,1.07-.62.32,0,0a5.06,5.06,0,0,0,.53-2.83,4.15,4.15,0,0,0-1.15-2.64.44.44,0,0,1,.27-.75h.15a15.18,15.18,0,0,1,4.18.54A24,24,0,0,1,366,31.08l-.59.81h0a1.81,1.81,0,0,1-.77-.17,2.29,2.29,0,0,1-.62-.36,5.42,5.42,0,0,0-1.19-.85,12,12,0,0,0-2.84-.78,25,25,0,0,0-3-.25c-1,0-2.06,0-3.09-.07l.44-.78,0,0,9.39,13.55-.87.49s0,0-.05,0c-1.12-.07-1.38-.49-1.5-1s.11-1.22-.1-1.71a22.84,22.84,0,0,0-1.5-2.78,20.38,20.38,0,0,0-4.11-4.8l.84-.38v0a53.09,53.09,0,0,0,.86,7.83l-1,.13a4.62,4.62,0,0,0-1.11-2.61l.79-.61,3.56,5.15-.91.33A1.83,1.83,0,0,0,357,40.68l.57-.49a0,0,0,0,1,0,0,2.15,2.15,0,0,0-.16,1.32,5.76,5.76,0,0,0,.38,1.27,5.17,5.17,0,0,0,1.56,2.07.48.48,0,0,1-.44.83l-.13,0h0l-2.63-1.12.69-.36A10.82,10.82,0,0,0,357,49l-1,.24a1.57,1.57,0,0,0-1.1-1.14l.62-.51a4.81,4.81,0,0,1-1,3.14.5.5,0,1,1-.8-.6Z"/><path class="cls-10" d="M337.73,28.5l-.58,0-.3,1.66a1.83,1.83,0,0,0-1.7-.83c-.66,0-1.31.21-2,.25a4.15,4.15,0,0,1-2.94-1"/><path class="cls-10" d="M351.47,34.38a9.35,9.35,0,0,0-1.43-2,3.15,3.15,0,0,0-2.2-1A1.92,1.92,0,0,0,346,32.73"/><path class="cls-11" d="M325.19,63.11a1.11,1.11,0,0,1-.85-.54l-.53-.79c-.34-.53-.65-1.07-1-1.61-.59-1.09-1.14-2.18-1.66-3.28a47.9,47.9,0,0,0-3.37-6.31h0a.5.5,0,0,1,.79-.61,32.39,32.39,0,0,1,4,6.22c.58,1.07,1.13,2.14,1.73,3.16q.44.77.92,1.51l.49.72a1,1,0,0,1,.23.92v0A.71.71,0,0,1,325.19,63.11Z"/><path class="cls-11" d="M352.25,54.94c.44-1,1.25-.93,2-1.11s1.51-.1,2.25-.16a12.54,12.54,0,0,0,2.18-.34c.71-.17,1.43-.3,2.15-.44,2.88-.54,5.77-.94,8.66-1.35s5.75-.92,8.57-1.59a57.9,57.9,0,0,0,8.26-2.69.5.5,0,1,1,.39.92h0a86.07,86.07,0,0,1-8.48,2.34c-2.86.65-5.75,1.08-8.64,1.5s-5.76.86-8.6,1.49c-.71.16-1.42.3-2.12.49a8.57,8.57,0,0,0-2.07.7c-.66.33-1.31.7-2,1s-1.26.76-2.21.17h0A.75.75,0,0,1,352.25,54.94Z"/><path class="cls-11" d="M387,47.87a17.67,17.67,0,0,0-.82,9.32,19.77,19.77,0,0,0,1.47,4.48c.17.36.32.72.51,1.07a.76.76,0,0,0,.47.43,2.13,2.13,0,0,1,.66.33,3.09,3.09,0,0,1,.44,1.09,3.21,3.21,0,0,1,0,1.33h0l-.62.71c-.61.69-1,.74-1.28.6a2.19,2.19,0,0,1-.84-.79,2.13,2.13,0,0,0-.9-.74c-.34-.1-.68-.18-1-.27-.69-.14-1.39-.23-2.09-.33s-1.41-.09-2.12-.11a54.49,54.49,0,0,0-8.44.88c-2.8.49-5.57,1.32-8.45,1.65a19.26,19.26,0,0,1-8.74-.65.53.53,0,0,1,0-1h0a41.12,41.12,0,0,1,8.38-1.51c2.81-.27,5.7-.25,8.59-.36a56.51,56.51,0,0,1,8.68.17c.72.09,1.44.16,2.16.23s1.43.21,2.15.3c.36.06.71.15,1.07.2a2.67,2.67,0,0,0,1.2-.27,2.26,2.26,0,0,1,1.21-.17c.37.07.7.32.77,1.22l-.61.73h0a3.33,3.33,0,0,1-1.78-1.83,1.85,1.85,0,0,1,.14-.76.81.81,0,0,0,0-.66c-.16-.37-.3-.76-.45-1.14a26.07,26.07,0,0,1-1.27-4.73,21.4,21.4,0,0,1-.21-4.88,30.39,30.39,0,0,1,.75-4.83.5.5,0,1,1,1,.22Z"/><path class="cls-11" d="M387.28,47.42a10.06,10.06,0,0,0,1.93-5,1.7,1.7,0,0,1,.38-.94,1.56,1.56,0,0,1,.94-.46c.56-.06,1-.08,1.46-.12l2.84-.2.71,0c.25,0,.43,0,.77,0a1.22,1.22,0,0,1,.59.17,1.18,1.18,0,0,1,.42.46,3.84,3.84,0,0,1,.27.78c.24.92.52,1.8.73,2.79a3.7,3.7,0,0,1-.53,3.15,2.61,2.61,0,0,1-1.52.84,1.8,1.8,0,0,1-1.76-.65h0v0a3.23,3.23,0,0,1-.1-3.18.5.5,0,0,1,.88.47h0a2.23,2.23,0,0,0,.07,2.18l0,0a.78.78,0,0,0,.78.25,1.6,1.6,0,0,0,.92-.51,2.77,2.77,0,0,0,.29-2.28c-.19-.87-.48-1.8-.72-2.71a3.33,3.33,0,0,0-.18-.56c-.08-.1,0-.05-.14-.08-.35,0-.91.06-1.36.09l-2.84.21c-.45,0-1,.06-1.37.11s-.34.05-.44.5a11.14,11.14,0,0,1-2.11,5.49.54.54,0,0,1-.87-.64Z"/><path class="cls-11" d="M398,47.26a2.48,2.48,0,0,1,2.85,1.65,8.22,8.22,0,0,1,.42,1.48c.09.43.24.85.39,1.32a13.36,13.36,0,0,1,.39,1.47,4,4,0,0,1,.09.93,2.32,2.32,0,0,1-.35,1.09,5,5,0,0,1-2.71,2,7,7,0,0,1-3.24.46,21.9,21.9,0,0,1-2.92-.47,8.75,8.75,0,0,1-1.53-.48,1.77,1.77,0,0,1-.58-.41,1.61,1.61,0,0,1-.31-.57,2,2,0,0,1,0-1.1,2.54,2.54,0,0,1,1.13-1.5,5.43,5.43,0,0,1,1.45-.61h0l.36.93a2.06,2.06,0,1,1-.85-4,.5.5,0,0,1,.2,1h0a1.64,1.64,0,0,1-1.27-.11,2.19,2.19,0,0,1-.85-.8,2.06,2.06,0,0,1,0-2.27,2.35,2.35,0,0,1,2-.92,2.74,2.74,0,0,1,2,.91.5.5,0,0,1-.76.66h0a1.75,1.75,0,0,0-1.25-.56,1.35,1.35,0,0,0-1.17.5A1.06,1.06,0,0,0,391.5,49a.87.87,0,0,0,1,.49l.19,1a1.07,1.07,0,1,0,.44,2.07.5.5,0,0,1,.43.9l-.07,0h0c-.85.42-1.53.91-1.53,1.47,0,.27.12.43.11.3a7.84,7.84,0,0,0,1.22.23c.89.11,1.83.17,2.73.21a5.5,5.5,0,0,0,2.33-.46,15.09,15.09,0,0,0,2-1.15.85.85,0,0,0,.23-.19,1.06,1.06,0,0,0,.08-.49,7.89,7.89,0,0,0-.2-1.31c-.09-.45-.22-.94-.27-1.45a5.66,5.66,0,0,0-.27-1.28,1.78,1.78,0,0,0-.63-.9,1,1,0,0,0-.91-.2h0a.5.5,0,1,1-.34-.94Z"/><path class="cls-10" d="M398.2,44.24q4.08.15,8.14.6a2.15,2.15,0,0,1,1.14.35c.76.61.31,1.95-.55,2.4a5.85,5.85,0,0,1-2.87.32,25.23,25.23,0,0,0-4.69.51"/><path class="cls-10" d="M392.6,57.76l-4.28.93"/><text class="cls-12" transform="translate(26.15 469.31)">M<tspan class="cls-13" x="99.06" y="0">E</tspan><tspan class="cls-14" x="164.42" y="0">T</tspan><tspan x="226.35" y="0">A </tspan><tspan class="cls-15"><tspan x="0" y="127.57">L</tspan><tspan class="cls-16" x="43" y="127.57">YRICS</tspan></tspan></text></svg>