<svg id="Layer_1" data-name="Layer 1" xmlns="http://www.w3.org/2000/svg" xmlns:xlink="http://www.w3.org/1999/xlink" viewBox="0 0 1320 610"><defs><style>.cls-1,.cls-13{fill:none;}.cls-2{fill:#1e1e1b;}.cls-3{clip-path:url(#clip-path);}.cls-4{fill:#555146;}.cls-14,.cls-4,.cls-5,.cls-6,.cls-7,.cls-8{stroke-miterlimit:10;stroke-width:2px;}.cls-4,.cls-5,.cls-6,.cls-7,.cls-8{stroke:url(#New_Pattern_Swatch_1);}.cls-5{fill:#57caef;}.cls-6{fill:#ffce06;}.cls-15,.cls-7{fill:#ee3766;}.cls-8{fill:#74c044;}.cls-15,.cls-9{font-size:140px;font-family:RobotoCondensed-Light, Roboto Condensed;letter-spacing:-0.04em;}.cls-14,.cls-9{fill:#fff8ce;}.cls-10{letter-spacing:-0.05em;}.cls-11{letter-spacing:-0.04em;}.cls-12{fill:#fff8cd;}.cls-13{stroke:#fff8cd;stroke-linecap:round;stroke-linejoin:round;}.cls-14{stroke:url(#New_Pattern_Swatch_1-227);}</style><clipPath id="clip-path"><rect class="cls-1" x="1519.42" y="159.24" width="292.93" height="241.37"/></clipPath><pattern id="New_Pattern_Swatch_1" data-name="New Pattern Swatch 1" width="112" height="139" patternTransform="translate(303)" patternUnits="userSpaceOnUse" viewBox="0 0 112 139"><rect class="cls-1" width="112" height="139"/><rect class="cls-2" width="112" height="139"/></pattern><pattern id="New_Pattern_Swatch_1-227" data-name="New Pattern Swatch 1" width="112" height="139" patternUnits="userSpaceOnUse" viewBox="0 0 112 139"><rect class="cls-1" width="112" height="139"/><rect class="cls-2" width="112" height="139"/></pattern></defs><title>yg-beatles-170816-0918-wireframes-index</title><g class="cls-3"><image width="1920" height="912" transform="translate(287.5 -505.92) scale(1.07)" xlink:href="../../beatles3/images/beatles_141128_SongStructure-SmallMultiples-comp2.jpg"/></g><rect class="cls-4" x="29" y="131.09" width="44.5" height="31"/><polygon class="cls-5" points="73.5 162.09 118 162.09 118 131.09 73.5 131.09 73.5 162.09"/><rect class="cls-5" x="118" y="131.09" width="43" height="31"/><polygon class="cls-6" points="161 162.09 197 162.09 197 131.09 161 131.09 161 162.09"/><rect class="cls-5" x="197" y="131.09" width="42" height="31"/><polygon class="cls-5" points="239 162.09 284 162.09 284 131.09 239 131.09 239 162.09"/><rect class="cls-6" x="284" y="131.09" width="33" height="31"/><polygon class="cls-5" points="317 162.09 361 162.09 361 131.09 317 131.09 317 162.09"/><rect class="cls-5" x="361" y="131.09" width="41" height="31"/><polygon class="cls-5" points="402 162.09 449 162.09 449 131.09 402 131.09 402 162.09"/><rect class="cls-6" x="449" y="131.09" width="35" height="31"/><polygon class="cls-4" points="484 162.09 531 162.09 531 131.09 484 131.09 484 162.09"/><rect class="cls-4" x="531" y="131.09" width="10" height="31"/><rect class="cls-4" x="29" y="168.18" width="19.5" height="31"/><polygon class="cls-5" points="48.5 199.18 78 199.18 78 168.18 48.5 168.18 48.5 199.18"/><rect class="cls-5" x="78" y="168.18" width="27" height="31"/><polygon class="cls-6" points="105 199.18 126 199.18 126 168.18 105 168.18 105 199.18"/><rect class="cls-6" x="126" y="168.18" width="54" height="31"/><polygon class="cls-5" points="180 199.18 208 199.18 208 168.18 180 168.18 180 199.18"/><rect class="cls-5" x="208" y="168.18" width="31" height="31"/><polygon class="cls-6" points="239 199.18 258 199.18 258 168.18 239 168.18 239 199.18"/><rect class="cls-6" x="258" y="168.18" width="56" height="31"/><polygon class="cls-5" points="314 199.18 336 199.18 336 168.18 314 168.18 314 199.18"/><rect class="cls-5" x="336" y="168.18" width="28" height="31"/><polygon class="cls-6" points="364 199.18 385 199.18 385 168.18 364 168.18 364 199.18"/><rect class="cls-6" x="385" y="168.18" width="53" height="31"/><polygon class="cls-4" points="438 199.18 514 199.18 514 168.18 438 168.18 438 199.18"/><rect class="cls-4" x="514" y="168.18" width="15" height="31"/><rect class="cls-4" x="29" y="205.27" width="17.5" height="31"/><polygon class="cls-5" points="46.5 236.27 112 236.27 112 205.27 46.5 205.27 46.5 236.27"/><rect class="cls-6" x="112" y="205.27" width="42" height="31"/><polygon class="cls-5" points="154 236.27 222 236.27 222 205.27 154 205.27 154 236.27"/><rect class="cls-6" x="222" y="205.27" width="42" height="31"/><polygon class="cls-5" points="264 236.27 344 236.27 344 205.27 264 205.27 264 236.27"/><rect class="cls-5" x="344" y="205.27" width="6" height="31"/><rect class="cls-6" x="29" y="242.36" width="34.5" height="31"/><polygon class="cls-6" points="63.5 273.36 94 273.36 94 242.36 63.5 242.36 63.5 273.36"/><rect class="cls-6" x="94" y="242.36" width="43" height="31"/><rect class="cls-4" x="29" y="279.45" width="29.5" height="31"/><polygon class="cls-5" points="58.5 310.45 114 310.45 114 279.45 58.5 279.45 58.5 310.45"/><rect class="cls-6" x="114" y="279.45" width="29" height="31"/><polygon class="cls-5" points="143 310.45 200 310.45 200 279.45 143 279.45 143 310.45"/><rect class="cls-6" x="200" y="279.45" width="28" height="31"/><polygon class="cls-6" points="228 310.45 259 310.45 259 279.45 228 279.45 228 310.45"/><rect class="cls-4" x="259" y="279.45" width="30" height="31"/><polygon class="cls-5" points="289 310.45 348 310.45 348 279.45 289 279.45 289 310.45"/><rect class="cls-6" x="348" y="279.45" width="32" height="31"/><polygon class="cls-5" points="380 310.45 440 310.45 440 279.45 380 279.45 380 310.45"/><rect class="cls-6" x="440" y="279.45" width="30" height="31"/><polygon class="cls-6" points="470 310.45 501 310.45 501 279.45 470 279.45 470 310.45"/><rect class="cls-4" x="501" y="279.45" width="53" height="31"/><rect class="cls-4" x="29" y="316.55" width="6.5" height="31"/><polygon class="cls-5" points="35.5 347.55 59 347.55 59 316.55 35.5 316.55 35.5 347.55"/><rect class="cls-5" x="59" y="316.55" width="26" height="31"/><polygon class="cls-4" points="85 347.55 111 347.55 111 316.55 85 316.55 85 347.55"/><rect class="cls-4" x="111" y="316.55" width="6" height="31"/><rect class="cls-4" x="29" y="353.64" width="13.5" height="31"/><polygon class="cls-5" points="42.5 384.64 120 384.64 120 353.64 42.5 353.64 42.5 384.64"/><rect class="cls-5" x="120" y="353.64" width="70" height="31"/><polygon class="cls-7" points="190 384.64 228 384.64 228 353.64 190 353.64 190 384.64"/><rect class="cls-5" x="228" y="353.64" width="61" height="31"/><polygon class="cls-5" points="289 384.64 363 384.64 363 353.64 289 353.64 289 384.64"/><rect class="cls-4" x="363" y="353.64" width="26" height="31"/><polygon class="cls-8" points="389 384.64 439 384.64 439 353.64 389 353.64 389 384.64"/><rect class="cls-4" x="439" y="353.64" width="56" height="31"/><polygon class="cls-4" points="495 384.64 505 384.64 505 353.64 495 353.64 495 384.64"/><rect class="cls-4" x="29" y="390.73" width="19.5" height="31"/><polygon class="cls-5" points="48.5 421.73 140 421.73 140 390.73 48.5 390.73 48.5 421.73"/><rect class="cls-7" x="140" y="390.73" width="45" height="31.27"/><polygon class="cls-5" points="185 421.73 231 421.73 231 390.73 185 390.73 185 421.73"/><rect class="cls-5" x="231" y="390.73" width="47" height="31"/><polygon class="cls-7" points="278 421.73 324 421.73 324 390.73 278 390.73 278 421.73"/><rect class="cls-5" x="324" y="390.73" width="38" height="31"/><polygon class="cls-4" points="362 421.73 400 421.73 400 390.73 362 390.73 362 421.73"/><rect class="cls-4" x="400" y="390.73" width="13" height="31"/><rect class="cls-5" x="29" y="427.82" width="94.5" height="31"/><polygon class="cls-5" points="123.5 458.82 218 458.82 218 427.82 123.5 427.82 123.5 458.82"/><rect class="cls-7" x="218" y="427.82" width="33" height="31"/><polygon class="cls-5" points="251 458.82 345 458.82 345 427.82 251 427.82 251 458.82"/><rect class="cls-7" x="345" y="427.82" width="30" height="31"/><polygon class="cls-5" points="375 458.82 470 458.82 470 427.82 375 427.82 375 458.82"/><rect class="cls-4" x="470" y="427.82" width="29" height="31"/><polygon class="cls-4" points="499 458.82 506 458.82 506 427.82 499 427.82 499 458.82"/><rect class="cls-4" x="29" y="464.91" width="30.5" height="31"/><polygon class="cls-5" points="59.5 495.91 108 495.91 108 464.91 59.5 464.91 59.5 495.91"/><rect class="cls-5" x="108" y="464.91" width="47" height="31"/><polygon class="cls-8" points="155 495.91 205 495.91 205 464.91 155 464.91 155 495.91"/><rect class="cls-8" x="205" y="464.91" width="45" height="31"/><polygon class="cls-5" points="250 495.91 301 495.91 301 464.91 250 464.91 250 495.91"/><rect class="cls-8" x="301" y="464.91" width="52" height="31"/><polygon class="cls-4" points="353 495.91 364 495.91 364 464.91 353 464.91 353 495.91"/><rect class="cls-4" x="29" y="502" width="61.5" height="31"/><polygon class="cls-5" points="90.5 533 124 533 124 502 90.5 502 90.5 533"/><rect class="cls-6" x="124" y="502" width="32" height="31"/><polygon class="cls-8" points="156 533 191 533 191 502 156 502 156 533"/><rect class="cls-6" x="191" y="502" width="45" height="31"/><polygon class="cls-8" points="236 533 266 533 266 502 236 502 236 533"/><rect class="cls-5" x="266" y="502" width="38" height="31"/><polygon class="cls-6" points="304 533 333 533 333 502 304 502 304 533"/><rect class="cls-8" x="333" y="502" width="30" height="31"/><polygon class="cls-6" points="363 533 397 533 397 502 363 502 363 533"/><rect class="cls-4" x="397" y="502" width="34" height="31"/><polygon class="cls-4" points="431 533 438 533 438 502 431 502 431 533"/><rect class="cls-4" x="29" y="94" width="39.5" height="31"/><polygon class="cls-5" points="68.5 125 137 125 137 94 68.5 94 68.5 125"/><rect class="cls-4" x="137" y="94" width="18" height="31"/><polygon class="cls-5" points="155 125 223 125 223 94 155 94 155 125"/><rect class="cls-7" x="223" y="94" width="35" height="31"/><polygon class="cls-5" points="258 125 326 125 326 94 258 94 258 125"/><rect class="cls-7" x="326" y="94" width="32" height="31"/><polygon class="cls-5" points="358 125 428 125 428 94 358 94 358 125"/><rect class="cls-4" x="428" y="94" width="66" height="31"/><polygon class="cls-4" points="494 125 502 125 502 94 494 94 494 125"/><text class="cls-9" transform="translate(13.59 454.31)">SONG <tspan x="0" y="127.57">STRU</tspan><tspan class="cls-10" x="279.75" y="127.57">C</tspan><tspan class="cls-11" x="351.33" y="127.57">TURE</tspan></text><path class="cls-12" d="M487.25,78.43a19.05,19.05,0,0,1-5.78,2.67,20.4,20.4,0,0,1-3.14.64,18.94,18.94,0,0,1-3.2,0,30.57,30.57,0,0,1-6.34-1,12.47,12.47,0,0,1-3-1.34,11.7,11.7,0,0,1-2.51-2.16,12.24,12.24,0,0,1-2.72-5.88,25.58,25.58,0,0,1-.31-6.31,37.2,37.2,0,0,1,.92-6.2,27.77,27.77,0,0,1,2.06-6A13.6,13.6,0,0,1,465,50.24,15.89,15.89,0,0,1,467.54,48a8.26,8.26,0,0,1,3-1.14c1-.26,2-.51,3-.73a26.12,26.12,0,0,1,6.39-.69,14.7,14.7,0,0,1,6.36,1.64,27.24,27.24,0,0,1,5.21,3.7,38.13,38.13,0,0,1,4.53,4.41,10.57,10.57,0,0,1,2.56,6,11.69,11.69,0,0,1-1.53,6.24.5.5,0,0,1-.9-.45,11,11,0,0,0,1.1-5.68,9.4,9.4,0,0,0-2.46-5.09,36.72,36.72,0,0,0-4.45-4.06,26.77,26.77,0,0,0-4.94-3.32A12.66,12.66,0,0,0,480,47.47a24.1,24.1,0,0,0-5.87.73c-1,.22-2,.48-3,.75a21.86,21.86,0,0,1-2.86.7,3,3,0,0,0-1.31.45,6.68,6.68,0,0,0-1,1,12.44,12.44,0,0,0-1.65,2.43,29,29,0,0,0-2.89,11.7,24.48,24.48,0,0,0,.37,6,9.75,9.75,0,0,0,2.73,5,14.35,14.35,0,0,0,4.84,3.06,13.53,13.53,0,0,0,5.82.92c1-.06,2-.22,3-.35s2-.27,2.94-.49a30.47,30.47,0,0,0,5.72-1.79h0a.5.5,0,0,1,.49.87Z"/><path class="cls-12" d="M462.31,62.93a5.31,5.31,0,0,1-1-5.67.5.5,0,0,1,.45-.3h0c1.33.22,2.81-.29,4.3-.25a2.86,2.86,0,0,1,1.11.27,2.67,2.67,0,0,1,.85.77,11.45,11.45,0,0,1,1.17,1.88,12.87,12.87,0,0,1,1.36,4.23,6.09,6.09,0,0,1-.13,2.33,4,4,0,0,1-1.35,2.1,4.64,4.64,0,0,1-2.4.93,4.41,4.41,0,0,1-2.61-.28,4.27,4.27,0,0,1-1.8-1.87,6.56,6.56,0,0,1-1-2.29,6.79,6.79,0,0,1,.76-4.72,5.72,5.72,0,0,1,3.7-2.9.5.5,0,0,1,.35.93h0a7.11,7.11,0,0,0-2.73,2.69,5.21,5.21,0,0,0-.67,3.67,3.23,3.23,0,0,0,.87,1.6,8.9,8.9,0,0,0,1.56.84,6.17,6.17,0,0,0,1.58.7,2.56,2.56,0,0,0,1.68-.37,3.74,3.74,0,0,0,1.48-3.35,10.51,10.51,0,0,0-1-4.1,11.12,11.12,0,0,0-1-1.86,1.91,1.91,0,0,0-1.73-.91c-1.43,0-2.71.7-4.3.94h0l.46-.3a4.32,4.32,0,0,0,.77,4.58.5.5,0,1,1-.73.69Z"/><path class="cls-12" d="M486.43,62.45a4.49,4.49,0,0,0-2.59-.07,14.52,14.52,0,0,1-2.59.07,8.45,8.45,0,0,1-2.59-.57,7.4,7.4,0,0,1-2.23-1.5A4.89,4.89,0,0,1,475,58a2.94,2.94,0,0,1,.9-2.78A4.66,4.66,0,0,1,478.46,54a7.6,7.6,0,0,1,2.72.05,8.41,8.41,0,0,1,2.56.92,4.46,4.46,0,0,1,1.15.92,3.16,3.16,0,0,1,.69,1.4A5.7,5.7,0,0,1,484,62.41a5.31,5.31,0,0,1-2.32,1.31,3.93,3.93,0,0,1-2.61-.29,6.51,6.51,0,0,1-3.23-4.06.5.5,0,0,1,1-.3.58.58,0,0,1,0,.11A4.75,4.75,0,0,0,479.26,63a3.13,3.13,0,0,0,2.29.22,3.85,3.85,0,0,0,1.86-1.36,5.66,5.66,0,0,0,.9-4.29c-.2-1.25-1.9-2-3.37-2.27s-3.21-.23-4.25.73A1.82,1.82,0,0,0,476,57.8a3.91,3.91,0,0,0,1.08,1.91A6.11,6.11,0,0,0,479,61.06a7.61,7.61,0,0,0,2.3.5,13.65,13.65,0,0,0,2.43-.07,3.58,3.58,0,0,0,2.39-.8,1.09,1.09,0,1,1,.3,1.75Z"/><path class="cls-12" d="M474.4,64.27a3.28,3.28,0,0,1,1.36-.4,1.86,1.86,0,0,1,1.4.55h0l.09.15a2.09,2.09,0,0,1,.19,2.39,4.16,4.16,0,0,1-1.58,1.79,3.32,3.32,0,0,1-2.41.47,2.76,2.76,0,0,1-1.19-.54,2.85,2.85,0,0,1-.77-1,4.46,4.46,0,0,1-.24-2.23,6.54,6.54,0,0,1,.58-2,2.08,2.08,0,0,0,.25-1.58,8.61,8.61,0,0,1-.46-2v0a.51.51,0,1,1,1,0,.53.53,0,0,1,0,.14,3.66,3.66,0,0,0,.24,1.76,3.81,3.81,0,0,1,.15,1.09,3.3,3.3,0,0,1-.24,1.08,4.47,4.47,0,0,0,0,3.27,1.51,1.51,0,0,0,2.26.3,2.51,2.51,0,0,0,.92-1.09c.18-.46.17-.79.41-1.37l.09.15h0a.7.7,0,0,0-.63-.32,1,1,0,0,0-.78.33.52.52,0,1,1-.64-.78Z"/><path class="cls-12" d="M467.91,70.29a4.78,4.78,0,0,1,2.62-2.08h0a.5.5,0,0,1,.68.53l-.62,4.35a.5.5,0,0,1-1,0A6.28,6.28,0,0,1,471,68.65a.5.5,0,0,1,.88.28,8.15,8.15,0,0,0,1,3.31l-.93.2.24-2.73a.5.5,0,0,1,.93-.2,7.63,7.63,0,0,0,1.2,1.61l-.84.24a5.44,5.44,0,0,0,.13-1.46h0a.5.5,0,0,1,.94-.26.59.59,0,0,0,.41.29l-.58.46.07-1a.5.5,0,0,1,.53-.46.51.51,0,0,1,.25.09L477,70.19l-.78.37a1.76,1.76,0,0,0-.33-1.17.5.5,0,0,1,.67-.72l1,.63-.77.38a4.44,4.44,0,0,0-.09-1.32.5.5,0,0,1,.74-.54,13.44,13.44,0,0,0,2.92,1.27l-.61.65a8.3,8.3,0,0,0-1-1.88.5.5,0,0,1,.82-.58,1.59,1.59,0,0,0,1.27.63l-.41.78-1.62-2.37,0,0a.49.49,0,0,1,.54-.76l.08,0c.66.2,1.3.46,1.93.71l.94.42a1.54,1.54,0,0,1,.84.63.62.62,0,0,1-.24.84.63.63,0,0,1-.19.07,1.54,1.54,0,0,1-1-.25l-.92-.46c-.6-.33-1.2-.66-1.77-1l.63-.73,0,0,1.62,2.37a.5.5,0,0,1-.41.78,2.58,2.58,0,0,1-2.09-1l.82-.58a9.31,9.31,0,0,1,1.07,2.11.5.5,0,0,1-.61.65,14.44,14.44,0,0,1-3.14-1.36l.74-.54a5.45,5.45,0,0,1,.11,1.62.5.5,0,0,1-.54.46.51.51,0,0,1-.23-.08l-1-.63.67-.72a2.76,2.76,0,0,1,.52,1.84.5.5,0,0,1-.54.46.51.51,0,0,1-.24-.09l-1.72-1.17.78-.38-.07,1a.5.5,0,0,1-.53.47h0a1.59,1.59,0,0,1-1.13-.79l.94-.27a6.42,6.42,0,0,1-.15,1.73.5.5,0,0,1-.85.24A8.62,8.62,0,0,1,472.3,70l.93-.2L473,72.53a.5.5,0,0,1-.54.45.51.51,0,0,1-.39-.25A9.14,9.14,0,0,1,470.93,69l.88.28a5.29,5.29,0,0,0-1.19,3.7l-1,0,.62-4.35.7.53h0A3.38,3.38,0,0,0,469.53,71a.9.9,0,1,1-1.75-.46.89.89,0,0,1,.1-.23Z"/><path class="cls-13" d="M469.74,59.85a3,3,0,0,1,3.74-3,5.93,5.93,0,0,1,2.2,1.42"/><path class="cls-13" d="M482.5,56.5c1.56-2.62,2.84-3.64,5-5.83a2.54,2.54,0,0,1,.7-.57,2.62,2.62,0,0,1,.79-.19,6.8,6.8,0,0,1,2.51,0,2.31,2.31,0,0,1,1.77,1.61"/><path class="cls-12" d="M489,54.31l7.74,3-.43.9-7.92-4.52a.5.5,0,0,1,.28-.93,44.72,44.72,0,0,1,6.08.84.5.5,0,0,1-.2,1,14.31,14.31,0,0,1-5.08-2.11.5.5,0,0,1,.31-.92l5.08.29-.12,1a40.81,40.81,0,0,1-6.94-1.87.5.5,0,0,1,.27-1,7.21,7.21,0,0,0,4.76-.66l.1.93a23.43,23.43,0,0,0-7.67-.72l0-1a7.35,7.35,0,0,0,4.33-1.28l.27.91a37.47,37.47,0,0,0-5,.22.5.5,0,0,1-.15-1,7.58,7.58,0,0,0,2.61-1l.31.92a19.55,19.55,0,0,0-5.88,1.52l-.22-1a3.8,3.8,0,0,0,3.16-2l.53.72q-3.89.64-7.7,1.65l-.14-1,6.35-.36h0a.5.5,0,0,1,.31.91l-2.88,2-.32-.91,8.25-.59-.09,1a8,8,0,0,0-6.62,1.27l-.27-.9c7.23.44,14.51.89,21.66,2.4h0a.39.39,0,0,1,.22.63l-.31.36c-1.24,1.46-2.57.57-3.85.39l-3.86-.19L492.2,53c-1.28-.08-2.57-.13-3.85-.19h0l.13-1a24.69,24.69,0,0,1,9,3.73.5.5,0,0,1-.4.9,45.31,45.31,0,0,1-7.5-2.52h-.06a.5.5,0,1,1,.4-.92h0a42.26,42.26,0,0,1,6.4,3.51,35.78,35.78,0,0,1,2.94,2.19c1,.76,1.64,1.78,3.2,2.11l.07,0a1.92,1.92,0,1,1-2.32,1.84c0-1.51-1-2.24-1.74-3.12a22.57,22.57,0,0,0-2.64-2.36,20.31,20.31,0,0,0-6.26-3.26l.38-.93h0a44.29,44.29,0,0,0,7.33,2.46l-.4.9a23.7,23.7,0,0,0-8.65-3.57h0a.5.5,0,0,1,.13-1h0c1.27.09,2.55.17,3.83.18s2.55,0,3.83,0,2.55-.08,3.83-.18,2.51-1.17,3.83.21l-.09,1h0c-7.05-1.49-14.29-1.94-21.52-2.38a.5.5,0,0,1-.27-.9,9,9,0,0,1,7.46-1.44.5.5,0,0,1-.09,1l-8.25.59a.5.5,0,0,1-.32-.91l2.88-2,.33.91-6.44.36a.5.5,0,0,1-.16-1h0q3.86-1,7.8-1.67a.5.5,0,0,1,.53.72,4.8,4.8,0,0,1-4,2.56.5.5,0,0,1-.22-1,20.56,20.56,0,0,1,6.19-1.6.5.5,0,0,1,.31.92,8.58,8.58,0,0,1-3,1.16l-.15-1a38.48,38.48,0,0,1,5.1-.22.5.5,0,0,1,.49.51.51.51,0,0,1-.22.4,8.35,8.35,0,0,1-4.92,1.45.5.5,0,0,1,0-1,24.43,24.43,0,0,1,8,.75.5.5,0,0,1,.1.93,8.21,8.21,0,0,1-5.42.76l.27-1a39.81,39.81,0,0,0,6.77,1.82.5.5,0,0,1-.12,1l-5.08-.29.31-.92a13.31,13.31,0,0,0,4.72,2l-.2,1a43.71,43.71,0,0,0-5.95-.82l.28-.93,7.92,4.52a.5.5,0,0,1-.43.9l-7.74-3a.5.5,0,0,1,.36-.93Z"/><path class="cls-12" d="M463.42,53,452.14,65a.5.5,0,0,1-.81-.56l0,0c.49-1,1-1.94,1.49-3a9.83,9.83,0,0,1,2.08-2.59A20.73,20.73,0,0,1,460.29,55h0l.07,0a.5.5,0,0,1,.71.54,54.43,54.43,0,0,1-2,7.79.5.5,0,0,1-1-.28,5.61,5.61,0,0,1,1.8-2.95.5.5,0,0,1,.69.72l-4.27,4.58h0a.5.5,0,0,1-.85-.47,2.81,2.81,0,0,1,2.7-2.09.49.49,0,0,1,.5.49v.06h0a8,8,0,0,1-2.79,5l-.45-.87,2.77-.73a.5.5,0,0,1,.61.36.53.53,0,0,1,0,.11,11.82,11.82,0,0,1-1,5.25.5.5,0,0,1-.93-.38A2.56,2.56,0,0,1,459,70.49a.5.5,0,0,1,.55.44.53.53,0,0,1,0,.16,3.81,3.81,0,0,0,.39,2.57.5.5,0,0,1-.88.48h0a4.81,4.81,0,0,1-.5-3.25l.54.6a1.57,1.57,0,0,0-1.26,1l-.93-.38a10.81,10.81,0,0,0,.89-4.8l.63.46-2.77.73a.5.5,0,0,1-.45-.87,7,7,0,0,0,2.43-4.37l.49.57a1.83,1.83,0,0,0-1.72,1.33l-.85-.46,4.27-4.58.69.72a4.62,4.62,0,0,0-1.48,2.42l-1-.28a52.77,52.77,0,0,0,2-7.65l.78.5h0c-1.51,1.52-3,3-4.34,4.57a19.18,19.18,0,0,1-2.12,2.29A13.23,13.23,0,0,0,452.2,65l-.79-.61,11.28-12.06h0a.5.5,0,0,1,.73.68Z"/><path class="cls-13" d="M474.41,52.81H475l.36,1.65a1.83,1.83,0,0,1,1.67-.89c.66,0,1.32.16,2,.18a4.15,4.15,0,0,0,2.9-1.09"/><path class="cls-12" d="M461,58.52c-.14-2.16-.21-4.32-.26-6.48l0-3.24a11.72,11.72,0,0,1,.27-3.24l.48.5h0c-2.51.1-5,.16-7.5.34-1.25.09-2.49.19-3.73.24a9.21,9.21,0,0,1-3.77-.39l.35-.83h0a3,3,0,0,1,2.12,2.4,16.6,16.6,0,0,1,.46,2.85c.16,1.84.2,3.69.28,5.53a39.2,39.2,0,0,0,.59,5.47c.15.91.34,1.81.46,2.72s.2,1.82.27,2.74c.15,1.82.27,3.68.38,5.47a5.34,5.34,0,0,0,.6,2.31,6.34,6.34,0,0,0,1.73,1.73,40.57,40.57,0,0,0,4.46,3,11.44,11.44,0,0,0,4.93,1.61.5.5,0,0,1,0,1,12.54,12.54,0,0,1-5.49-1.51,39.15,39.15,0,0,1-4.7-3,7.51,7.51,0,0,1-2.15-2.1,6.74,6.74,0,0,1-.82-2.93c-.14-1.86-.26-3.65-.43-5.47-.08-.91-.18-1.81-.24-2.72l-.12-2.74a28.15,28.15,0,0,0-.78-5.41c-.42-1.78-.94-3.54-1.38-5.31-.21-.9-.4-1.76-.62-2.52a5.22,5.22,0,0,1-.3-2.48h0a.34.34,0,0,1,0-.62l.38-.21a8.38,8.38,0,0,1,3.75-.77c1.26-.05,2.53,0,3.79,0,2.53.11,5,.24,7.56.53h0a.35.35,0,0,1,.42.25l.07.25a11.73,11.73,0,0,1,.28,3.24l0,3.24c0,2.16-.1,4.33-.23,6.49a.5.5,0,0,1-1,0Z"/><path class="cls-12" d="M454.93,44.44a15.42,15.42,0,0,1,2.26-1.94,14.65,14.65,0,0,1,2.63-1.41c.18-.08.25-.17.18-.16s-.1,0-.2-.15a3.79,3.79,0,0,1-.31-.59,2.88,2.88,0,0,1-.21-.69,2.3,2.3,0,0,1,.27-1.46,2.58,2.58,0,0,0,.21-.74,4.62,4.62,0,0,0,0-.71l-.11-1.36c0-.14,0-.09-.1-.16a2.87,2.87,0,0,0-.59-.1c-.94-.09-1.9-.22-2.8-.26a2.87,2.87,0,0,0-2.31.76c-.49.6-.48,1.7.15,1.92h0a2.2,2.2,0,0,0,2.19-.45.5.5,0,1,1,.71.71l-.06,0h0a3.26,3.26,0,0,1-3.1.41h0a1.69,1.69,0,0,1-.88-1.5,2.45,2.45,0,0,1,.52-1.55,3.59,3.59,0,0,1,2.86-1.08c1,0,1.92.08,2.87.11a3.53,3.53,0,0,1,.81.08,1.13,1.13,0,0,1,.52.31,1.22,1.22,0,0,1,.28.53c.12.58.17,1,.25,1.46a4.62,4.62,0,0,0,.14.7,2.58,2.58,0,0,0,.39.67,2.31,2.31,0,0,1,.61,1.36,2.89,2.89,0,0,1,0,.72l-.16.82a2.55,2.55,0,0,1-.53,1.21,2,2,0,0,1-1,.58,8.22,8.22,0,0,0-4.63,2.62.5.5,0,1,1-.76-.65Z"/><path class="cls-12" d="M452.82,34.45a1,1,0,0,0-.33-.89,1.79,1.79,0,0,0-1-.51,5.55,5.55,0,0,0-1.33,0c-.51,0-1,0-1.47,0-.9,0-2,0-2.17.44a2.36,2.36,0,0,0-.42,1.11,6.28,6.28,0,0,0,.06,1.29c.11.84,0,1.53,0,2.3a10,10,0,0,0,.37,2.76A7,7,0,0,0,447,42.1c0,.14.28.24.58.12.65-.2,1-1,1.08-2h0a.5.5,0,0,1,1,.16v0a1.07,1.07,0,1,0,2.11,0h1c-.06.33.23.68.66.84a1.06,1.06,0,0,0,1.16-.17,1.35,1.35,0,0,0,.27-1.25,1.74,1.74,0,0,0-.79-1.12.5.5,0,0,1,.49-.87h0a2.74,2.74,0,0,1,1.27,1.77,2.35,2.35,0,0,1-.52,2.16,2.06,2.06,0,0,1-2.24.42,2.19,2.19,0,0,1-1-.68,1.64,1.64,0,0,1-.35-1.22h0a.5.5,0,0,1,1,0,2.06,2.06,0,1,1-4.09-.07l1,.18h0a7.31,7.31,0,0,1-.44,1.48A2.41,2.41,0,0,1,448,43.19a1.92,1.92,0,0,1-1,.16,1.39,1.39,0,0,1-.54-.16,1.58,1.58,0,0,1-.45-.42,9.59,9.59,0,0,1-.77-1.36c-.4-.91-.92-1.74-1.39-2.66a4.18,4.18,0,0,1-.13-3.34,8.34,8.34,0,0,1,.83-1.45,12.77,12.77,0,0,1,1-1.36,2,2,0,0,1,.85-.55,3.12,3.12,0,0,1,.87-.12,11.49,11.49,0,0,1,1.5.08,10.92,10.92,0,0,0,1.38.1,8.22,8.22,0,0,1,1.51.1,2.44,2.44,0,0,1,2.19,2.39h0a.5.5,0,1,1-1,0A.54.54,0,0,1,452.82,34.45Z"/><path class="cls-12" d="M456.25,33.93c-.19-2.37-.42-4.65-.82-6.94a31.36,31.36,0,0,0-.77-3.38c-.16-.55-.34-1.09-.54-1.61s-.47-.8-.71-.75a1.17,1.17,0,0,0-.83.58,1.91,1.91,0,0,0-.15,1.2c.05.49.2,1,.33,1.62a14.11,14.11,0,0,1,.2,1.83,66.34,66.34,0,0,1,0,7,.5.5,0,0,1-1,0c-.22-2.32-.29-4.63-.46-6.9,0-.56-.1-1.14-.18-1.62a17.24,17.24,0,0,1-.33-1.78,3.15,3.15,0,0,1,.48-2.14,2.31,2.31,0,0,1,2.1-1,1.59,1.59,0,0,1,1.09.69,2.85,2.85,0,0,1,.39,1c.13.59.23,1.18.31,1.76l.45,3.46a35.42,35.42,0,0,0,1.46,6.76v0a.51.51,0,1,1-1,.34A.52.52,0,0,1,456.25,33.93Z"/><path class="cls-13" d="M497.8,70.78a4.09,4.09,0,0,1,4.05,2.1"/><path class="cls-12" d="M463.23,80.66a29.34,29.34,0,0,0,0,3.87c0,.64.1,1.29.16,1.93a3.71,3.71,0,0,0,.66,1.93,1.67,1.67,0,1,1-2.7,0,3.71,3.71,0,0,0,.66-1.93c.06-.64.13-1.29.16-1.93a29.34,29.34,0,0,0,0-3.87.5.5,0,0,1,1-.07A.53.53,0,0,1,463.23,80.66Z"/><path class="cls-13" d="M497.92,71.12a132.74,132.74,0,0,0-11.63,16c-1.64-1.77-3.64-2.54-5.79-3.63"/><path class="cls-13" d="M480.3,83c1.39-1.72,2.82-4.14,4.21-5.86a44.63,44.63,0,0,1,4.13-4.64,22.4,22.4,0,0,1,8.93-5.08"/><path class="cls-13" d="M498.79,71.43a7.21,7.21,0,0,1,0-2.36c0-.79-.34-1.73-1.12-1.88"/><path class="cls-12" d="M472.86,83.07a20.39,20.39,0,0,0-2.11,2.24,8.78,8.78,0,0,0-1.67,2.6h0a.92.92,0,0,1-1.8-.27V87.4a8.05,8.05,0,0,1,.06-.94.83.83,0,0,0-.14-.54c-.27-.44-.72-1-1.08-1.49-.76-1-1.5-2-2.17-3.11s-1.3-2.16-1.88-3.28-1.11-2.26-1.61-3.42a.5.5,0,1,1,.92-.39v0a27.78,27.78,0,0,0,3.39,6.51,28.85,28.85,0,0,0,2.27,2.88c.42.48.83.82,1.34,1.35a2.87,2.87,0,0,1,.66,1.12,5.66,5.66,0,0,0,.26.91l-1.8-.51h0a15.31,15.31,0,0,0,2.57-1.89c.82-.66,1.63-1.3,2.42-2a.26.26,0,0,1,.34.39Z"/><path class="cls-12" d="M507.51,92.11c-2-.51-1.75-1.54-1.79-2.5a23.81,23.81,0,0,0,.4-3c0-.48-.1-1-.14-1.44s0-1-.06-1.42c0-.91-.11-1.82-.24-2.73a26.72,26.72,0,0,0-1.33-5.31A2.42,2.42,0,0,0,503,74.06a4.27,4.27,0,0,0-2.35-.13,8.39,8.39,0,0,0-4.39,2.4,5.38,5.38,0,0,0-1.15,2.08,4.27,4.27,0,0,0-.15,1.13L495,80.9a67.12,67.12,0,0,1-.39,11.24.5.5,0,0,1-1,0c-.59-3.76-.27-7.5-.46-11.17l-.05-1.44a6.07,6.07,0,0,1,.25-1.63A6.78,6.78,0,0,1,495,75.18a8.72,8.72,0,0,1,2.51-1.78,10.68,10.68,0,0,1,2.87-.92,5.66,5.66,0,0,1,3.16.3,3.44,3.44,0,0,1,1.36,1.07,5,5,0,0,1,.71,1.44A35.87,35.87,0,0,1,507,80.84c.16.94.28,1.89.36,2.84,0,.49.06.95.11,1.37a8.79,8.79,0,0,0,.23,1.34,13.48,13.48,0,0,0,1.42,2.53c.33.87,1,1.67-.62,3a1.1,1.1,0,0,1-1,.21Z"/><rect class="cls-14" x="689" y="131.09" width="44.5" height="31"/><polygon class="cls-14" points="733.5 162.09 778 162.09 778 131.09 733.5 131.09 733.5 162.09"/><rect class="cls-14" x="778" y="131.09" width="43" height="31"/><polygon class="cls-14" points="821 162.09 857 162.09 857 131.09 821 131.09 821 162.09"/><rect class="cls-14" x="857" y="131.09" width="42" height="31"/><polygon class="cls-14" points="899 162.09 944 162.09 944 131.09 899 131.09 899 162.09"/><rect class="cls-14" x="944" y="131.09" width="33" height="31"/><polygon class="cls-14" points="977 162.09 1021 162.09 1021 131.09 977 131.09 977 162.09"/><rect class="cls-14" x="1021" y="131.09" width="41" height="31"/><polygon class="cls-14" points="1062 162.09 1109 162.09 1109 131.09 1062 131.09 1062 162.09"/><rect class="cls-14" x="1109" y="131.09" width="35" height="31"/><polygon class="cls-14" points="1144 162.09 1191 162.09 1191 131.09 1144 131.09 1144 162.09"/><rect class="cls-14" x="1191" y="131.09" width="10" height="31"/><rect class="cls-14" x="689" y="168.18" width="19.5" height="31"/><polygon class="cls-14" points="708.5 199.18 738 199.18 738 168.18 708.5 168.18 708.5 199.18"/><rect class="cls-14" x="738" y="168.18" width="27" height="31"/><polygon class="cls-14" points="765 199.18 786 199.18 786 168.18 765 168.18 765 199.18"/><rect class="cls-14" x="786" y="168.18" width="54" height="31"/><polygon class="cls-14" points="840 199.18 868 199.18 868 168.18 840 168.18 840 199.18"/><rect class="cls-14" x="868" y="168.18" width="31" height="31"/><polygon class="cls-14" points="899 199.18 918 199.18 918 168.18 899 168.18 899 199.18"/><rect class="cls-14" x="918" y="168.18" width="56" height="31"/><polygon class="cls-14" points="974 199.18 996 199.18 996 168.18 974 168.18 974 199.18"/><rect class="cls-14" x="996" y="168.18" width="28" height="31"/><polygon class="cls-14" points="1024 199.18 1045 199.18 1045 168.18 1024 168.18 1024 199.18"/><rect class="cls-14" x="1045" y="168.18" width="53" height="31"/><polygon class="cls-14" points="1098 199.18 1174 199.18 1174 168.18 1098 168.18 1098 199.18"/><rect class="cls-14" x="1174" y="168.18" width="15" height="31"/><rect class="cls-14" x="689" y="205.27" width="17.5" height="31"/><polygon class="cls-14" points="706.5 236.27 772 236.27 772 205.27 706.5 205.27 706.5 236.27"/><rect class="cls-14" x="772" y="205.27" width="42" height="31"/><polygon class="cls-14" points="814 236.27 882 236.27 882 205.27 814 205.27 814 236.27"/><rect class="cls-14" x="882" y="205.27" width="42" height="31"/><polygon class="cls-14" points="924 236.27 1004 236.27 1004 205.27 924 205.27 924 236.27"/><rect class="cls-14" x="1004" y="205.27" width="6" height="31"/><rect class="cls-14" x="689" y="242.36" width="34.5" height="31"/><polygon class="cls-14" points="723.5 273.36 754 273.36 754 242.36 723.5 242.36 723.5 273.36"/><rect class="cls-14" x="754" y="242.36" width="43" height="31"/><rect class="cls-14" x="689" y="279.45" width="29.5" height="31"/><polygon class="cls-14" points="718.5 310.45 774 310.45 774 279.45 718.5 279.45 718.5 310.45"/><rect class="cls-14" x="774" y="279.45" width="29" height="31"/><polygon class="cls-14" points="803 310.45 860 310.45 860 279.45 803 279.45 803 310.45"/><rect class="cls-14" x="860" y="279.45" width="28" height="31"/><polygon class="cls-14" points="888 310.45 919 310.45 919 279.45 888 279.45 888 310.45"/><rect class="cls-14" x="919" y="279.45" width="30" height="31"/><polygon class="cls-14" points="949 310.45 1008 310.45 1008 279.45 949 279.45 949 310.45"/><rect class="cls-14" x="1008" y="279.45" width="32" height="31"/><polygon class="cls-14" points="1040 310.45 1100 310.45 1100 279.45 1040 279.45 1040 310.45"/><rect class="cls-14" x="1100" y="279.45" width="30" height="31"/><polygon class="cls-14" points="1130 310.45 1161 310.45 1161 279.45 1130 279.45 1130 310.45"/><rect class="cls-14" x="1161" y="279.45" width="53" height="31"/><rect class="cls-14" x="689" y="316.55" width="6.5" height="31"/><polygon class="cls-14" points="695.5 347.55 719 347.55 719 316.55 695.5 316.55 695.5 347.55"/><rect class="cls-14" x="719" y="316.55" width="26" height="31"/><polygon class="cls-14" points="745 347.55 771 347.55 771 316.55 745 316.55 745 347.55"/><rect class="cls-14" x="771" y="316.55" width="6" height="31"/><rect class="cls-14" x="689" y="353.64" width="13.5" height="31"/><polygon class="cls-14" points="702.5 384.64 780 384.64 780 353.64 702.5 353.64 702.5 384.64"/><rect class="cls-14" x="780" y="353.64" width="70" height="31"/><polygon class="cls-14" points="850 384.64 888 384.64 888 353.64 850 353.64 850 384.64"/><rect class="cls-14" x="888" y="353.64" width="61" height="31"/><polygon class="cls-14" points="949 384.64 1023 384.64 1023 353.64 949 353.64 949 384.64"/><rect class="cls-14" x="1023" y="353.64" width="26" height="31"/><polygon class="cls-14" points="1049 384.64 1099 384.64 1099 353.64 1049 353.64 1049 384.64"/><rect class="cls-14" x="1099" y="353.64" width="56" height="31"/><polygon class="cls-14" points="1155 384.64 1165 384.64 1165 353.64 1155 353.64 1155 384.64"/><rect class="cls-14" x="689" y="390.73" width="19.5" height="31"/><polygon class="cls-14" points="708.5 421.73 800 421.73 800 390.73 708.5 390.73 708.5 421.73"/><rect class="cls-14" x="800" y="390.73" width="45" height="31.27"/><polygon class="cls-14" points="845 421.73 891 421.73 891 390.73 845 390.73 845 421.73"/><rect class="cls-14" x="891" y="390.73" width="47" height="31"/><polygon class="cls-14" points="938 421.73 984 421.73 984 390.73 938 390.73 938 421.73"/><rect class="cls-14" x="984" y="390.73" width="38" height="31"/><polygon class="cls-14" points="1022 421.73 1060 421.73 1060 390.73 1022 390.73 1022 421.73"/><rect class="cls-14" x="1060" y="390.73" width="13" height="31"/><rect class="cls-14" x="689" y="427.82" width="94.5" height="31"/><polygon class="cls-14" points="783.5 458.82 878 458.82 878 427.82 783.5 427.82 783.5 458.82"/><rect class="cls-14" x="878" y="427.82" width="33" height="31"/><polygon class="cls-14" points="911 458.82 1005 458.82 1005 427.82 911 427.82 911 458.82"/><rect class="cls-14" x="1005" y="427.82" width="30" height="31"/><polygon class="cls-14" points="1035 458.82 1130 458.82 1130 427.82 1035 427.82 1035 458.82"/><rect class="cls-14" x="1130" y="427.82" width="29" height="31"/><polygon class="cls-14" points="1159 458.82 1166 458.82 1166 427.82 1159 427.82 1159 458.82"/><rect class="cls-14" x="689" y="464.91" width="30.5" height="31"/><polygon class="cls-14" points="719.5 495.91 768 495.91 768 464.91 719.5 464.91 719.5 495.91"/><rect class="cls-14" x="768" y="464.91" width="47" height="31"/><polygon class="cls-14" points="815 495.91 865 495.91 865 464.91 815 464.91 815 495.91"/><rect class="cls-14" x="865" y="464.91" width="45" height="31"/><polygon class="cls-14" points="910 495.91 961 495.91 961 464.91 910 464.91 910 495.91"/><rect class="cls-14" x="961" y="464.91" width="52" height="31"/><polygon class="cls-14" points="1013 495.91 1024 495.91 1024 464.91 1013 464.91 1013 495.91"/><rect class="cls-14" x="689" y="502" width="61.5" height="31"/><polygon class="cls-14" points="750.5 533 784 533 784 502 750.5 502 750.5 533"/><rect class="cls-14" x="784" y="502" width="32" height="31"/><polygon class="cls-14" points="816 533 851 533 851 502 816 502 816 533"/><rect class="cls-14" x="851" y="502" width="45" height="31"/><polygon class="cls-14" points="896 533 926 533 926 502 896 502 896 533"/><rect class="cls-14" x="926" y="502" width="38" height="31"/><polygon class="cls-14" points="964 533 993 533 993 502 964 502 964 533"/><rect class="cls-14" x="993" y="502" width="30" height="31"/><polygon class="cls-14" points="1023 533 1057 533 1057 502 1023 502 1023 533"/><rect class="cls-14" x="1057" y="502" width="34" height="31"/><polygon class="cls-14" points="1091 533 1098 533 1098 502 1091 502 1091 533"/><rect class="cls-14" x="689" y="94" width="39.5" height="31"/><polygon class="cls-14" points="728.5 125 797 125 797 94 728.5 94 728.5 125"/><rect class="cls-14" x="797" y="94" width="18" height="31"/><polygon class="cls-14" points="815 125 883 125 883 94 815 94 815 125"/><rect class="cls-14" x="883" y="94" width="35" height="31"/><polygon class="cls-14" points="918 125 986 125 986 94 918 94 918 125"/><rect class="cls-14" x="986" y="94" width="32" height="31"/><polygon class="cls-14" points="1018 125 1088 125 1088 94 1018 94 1018 125"/><rect class="cls-14" x="1088" y="94" width="66" height="31"/><polygon class="cls-14" points="1154 125 1162 125 1162 94 1154 94 1154 125"/><path class="cls-12" d="M1147.25,78.43a19.05,19.05,0,0,1-5.78,2.67,20.4,20.4,0,0,1-3.14.64,18.94,18.94,0,0,1-3.2,0,30.57,30.57,0,0,1-6.34-1,12.47,12.47,0,0,1-3-1.34,11.7,11.7,0,0,1-2.51-2.16,12.24,12.24,0,0,1-2.72-5.88,25.58,25.58,0,0,1-.31-6.31,37.2,37.2,0,0,1,.92-6.2,27.77,27.77,0,0,1,2.06-6,13.6,13.6,0,0,1,1.74-2.72,15.89,15.89,0,0,1,2.56-2.25,8.26,8.26,0,0,1,3-1.14c1-.26,2-.51,3-.73a26.12,26.12,0,0,1,6.39-.69,14.7,14.7,0,0,1,6.36,1.64,27.24,27.24,0,0,1,5.21,3.7,38.13,38.13,0,0,1,4.53,4.41,10.57,10.57,0,0,1,2.56,6,11.69,11.69,0,0,1-1.53,6.24.5.5,0,0,1-.9-.45,11,11,0,0,0,1.1-5.68,9.4,9.4,0,0,0-2.46-5.09,36.72,36.72,0,0,0-4.45-4.06,26.77,26.77,0,0,0-4.94-3.32,12.66,12.66,0,0,0-5.54-1.34,24.1,24.1,0,0,0-5.87.73c-1,.22-2,.48-3,.75a21.86,21.86,0,0,1-2.86.7,3,3,0,0,0-1.31.45,6.68,6.68,0,0,0-1,1,12.44,12.44,0,0,0-1.65,2.43,29,29,0,0,0-2.89,11.7,24.48,24.48,0,0,0,.37,6,9.75,9.75,0,0,0,2.73,5,14.35,14.35,0,0,0,4.84,3.06,13.53,13.53,0,0,0,5.82.92c1-.06,2-.22,3-.35s2-.27,2.94-.49a30.47,30.47,0,0,0,5.72-1.79h0a.5.5,0,0,1,.49.87Z"/><path class="cls-12" d="M1122.31,62.93a5.31,5.31,0,0,1-1-5.67.5.5,0,0,1,.45-.3h0c1.33.22,2.81-.29,4.3-.25a2.86,2.86,0,0,1,1.11.27,2.67,2.67,0,0,1,.85.77,11.45,11.45,0,0,1,1.17,1.88,12.87,12.87,0,0,1,1.36,4.23,6.09,6.09,0,0,1-.13,2.33,4,4,0,0,1-1.35,2.1,4.64,4.64,0,0,1-2.4.93,4.41,4.41,0,0,1-2.61-.28,4.27,4.27,0,0,1-1.8-1.87,6.56,6.56,0,0,1-1-2.29,6.79,6.79,0,0,1,.76-4.72,5.72,5.72,0,0,1,3.7-2.9.5.5,0,0,1,.35.93h0a7.11,7.11,0,0,0-2.73,2.69,5.21,5.21,0,0,0-.67,3.67,3.23,3.23,0,0,0,.87,1.6,8.9,8.9,0,0,0,1.56.84,6.17,6.17,0,0,0,1.58.7,2.56,2.56,0,0,0,1.68-.37,3.74,3.74,0,0,0,1.48-3.35,10.51,10.51,0,0,0-1-4.1,11.12,11.12,0,0,0-1-1.86,1.91,1.91,0,0,0-1.73-.91c-1.43,0-2.71.7-4.3.94h0l.46-.3a4.32,4.32,0,0,0,.77,4.58.5.5,0,1,1-.73.69Z"/><path class="cls-12" d="M1146.43,62.45a4.49,4.49,0,0,0-2.59-.07,14.52,14.52,0,0,1-2.59.07,8.45,8.45,0,0,1-2.59-.57,7.4,7.4,0,0,1-2.23-1.5A4.89,4.89,0,0,1,1135,58a2.94,2.94,0,0,1,.9-2.78,4.66,4.66,0,0,1,2.56-1.21,7.6,7.6,0,0,1,2.72.05,8.41,8.41,0,0,1,2.56.92,4.46,4.46,0,0,1,1.15.92,3.16,3.16,0,0,1,.69,1.4,5.7,5.7,0,0,1-1.59,5.12,5.31,5.31,0,0,1-2.32,1.31,3.93,3.93,0,0,1-2.61-.29,6.51,6.51,0,0,1-3.23-4.06.5.5,0,0,1,1-.3.58.58,0,0,1,0,.11,4.75,4.75,0,0,0,2.45,3.84,3.13,3.13,0,0,0,2.29.22,3.85,3.85,0,0,0,1.86-1.36,5.66,5.66,0,0,0,.9-4.29c-.2-1.25-1.9-2-3.37-2.27s-3.21-.23-4.25.73a1.82,1.82,0,0,0-.65,1.76,3.91,3.91,0,0,0,1.08,1.91,6.11,6.11,0,0,0,1.89,1.35,7.61,7.61,0,0,0,2.3.5,13.65,13.65,0,0,0,2.43-.07,3.58,3.58,0,0,0,2.39-.8,1.09,1.09,0,1,1,.3,1.75Z"/><path class="cls-12" d="M1134.4,64.27a3.28,3.28,0,0,1,1.36-.4,1.86,1.86,0,0,1,1.4.55h0l.09.15a2.09,2.09,0,0,1,.19,2.39,4.16,4.16,0,0,1-1.58,1.79,3.32,3.32,0,0,1-2.41.47,2.76,2.76,0,0,1-1.19-.54,2.85,2.85,0,0,1-.77-1,4.46,4.46,0,0,1-.24-2.23,6.54,6.54,0,0,1,.58-2,2.08,2.08,0,0,0,.25-1.58,8.61,8.61,0,0,1-.46-2v0a.51.51,0,1,1,1,0,.53.53,0,0,1,0,.14,3.66,3.66,0,0,0,.24,1.76,3.81,3.81,0,0,1,.15,1.09,3.3,3.3,0,0,1-.24,1.08,4.47,4.47,0,0,0,0,3.27,1.51,1.51,0,0,0,2.26.3,2.51,2.51,0,0,0,.92-1.09c.18-.46.17-.79.41-1.37l.09.15h0a.7.7,0,0,0-.63-.32,1,1,0,0,0-.78.33.52.52,0,1,1-.64-.78Z"/><path class="cls-12" d="M1127.91,70.29a4.78,4.78,0,0,1,2.62-2.08h0a.5.5,0,0,1,.68.53l-.62,4.35a.5.5,0,0,1-1,0,6.28,6.28,0,0,1,1.42-4.41.5.5,0,0,1,.88.28,8.15,8.15,0,0,0,1,3.31l-.93.2.24-2.73a.5.5,0,0,1,.93-.2,7.63,7.63,0,0,0,1.2,1.61l-.84.24a5.44,5.44,0,0,0,.13-1.46h0a.5.5,0,0,1,.94-.26.59.59,0,0,0,.41.29l-.58.46.07-1a.5.5,0,0,1,.53-.46.51.51,0,0,1,.25.09l1.72,1.17-.78.37a1.76,1.76,0,0,0-.33-1.17.5.5,0,0,1,.67-.72l1,.63-.77.38a4.44,4.44,0,0,0-.09-1.32.5.5,0,0,1,.74-.54,13.44,13.44,0,0,0,2.92,1.27l-.61.65a8.3,8.3,0,0,0-1-1.88.5.5,0,0,1,.82-.58,1.59,1.59,0,0,0,1.27.63l-.41.78-1.62-2.37,0,0a.49.49,0,0,1,.54-.76l.08,0c.66.2,1.3.46,1.93.71l.94.42a1.54,1.54,0,0,1,.84.63.62.62,0,0,1-.24.84.63.63,0,0,1-.19.07,1.54,1.54,0,0,1-1-.25l-.92-.46c-.6-.33-1.2-.66-1.77-1l.63-.73,0,0,1.62,2.37a.5.5,0,0,1-.41.78,2.58,2.58,0,0,1-2.09-1l.82-.58a9.31,9.31,0,0,1,1.07,2.11.5.5,0,0,1-.61.65,14.44,14.44,0,0,1-3.14-1.36l.74-.54a5.45,5.45,0,0,1,.11,1.62.5.5,0,0,1-.54.46.51.51,0,0,1-.23-.08l-1-.63.67-.72a2.76,2.76,0,0,1,.52,1.84.5.5,0,0,1-.54.46.51.51,0,0,1-.24-.09l-1.72-1.17.78-.38-.07,1a.5.5,0,0,1-.53.47h0a1.59,1.59,0,0,1-1.13-.79l.94-.27a6.42,6.42,0,0,1-.15,1.73.5.5,0,0,1-.85.24A8.62,8.62,0,0,1,1132.3,70l.93-.2-.24,2.73a.5.5,0,0,1-.54.45.51.51,0,0,1-.39-.25,9.14,9.14,0,0,1-1.12-3.72l.88.28a5.29,5.29,0,0,0-1.19,3.7l-1,0,.62-4.35.7.53h0a3.38,3.38,0,0,0-1.42,1.92.9.9,0,1,1-1.75-.46.89.89,0,0,1,.1-.23Z"/><path class="cls-13" d="M1129.74,59.85a3,3,0,0,1,3.74-3,5.93,5.93,0,0,1,2.2,1.42"/><path class="cls-13" d="M1142.5,56.5c1.56-2.62,2.84-3.64,5-5.83a2.54,2.54,0,0,1,.7-.57,2.62,2.62,0,0,1,.79-.19,6.8,6.8,0,0,1,2.51,0,2.31,2.31,0,0,1,1.77,1.61"/><path class="cls-12" d="M1149,54.31l7.74,3-.43.9-7.92-4.52a.5.5,0,0,1,.28-.93,44.72,44.72,0,0,1,6.08.84.5.5,0,0,1-.2,1,14.31,14.31,0,0,1-5.08-2.11.5.5,0,0,1,.31-.92l5.08.29-.12,1a40.81,40.81,0,0,1-6.94-1.87.5.5,0,0,1,.27-1,7.21,7.21,0,0,0,4.76-.66l.1.93a23.43,23.43,0,0,0-7.67-.72l0-1a7.35,7.35,0,0,0,4.33-1.28l.27.91a37.47,37.47,0,0,0-5,.22.5.5,0,0,1-.15-1,7.58,7.58,0,0,0,2.61-1l.31.92a19.55,19.55,0,0,0-5.88,1.52l-.22-1a3.8,3.8,0,0,0,3.16-2l.53.72q-3.89.64-7.7,1.65l-.14-1,6.35-.36h0a.5.5,0,0,1,.31.91l-2.88,2-.32-.91,8.25-.59-.09,1a8,8,0,0,0-6.62,1.27l-.27-.9c7.23.44,14.51.89,21.66,2.4h0a.39.39,0,0,1,.22.63l-.31.36c-1.24,1.46-2.57.57-3.85.39l-3.86-.19-3.85-.2c-1.28-.08-2.57-.13-3.85-.19h0l.13-1a24.69,24.69,0,0,1,9,3.73.5.5,0,0,1-.4.9,45.31,45.31,0,0,1-7.5-2.52h-.06a.5.5,0,1,1,.4-.92h0a42.26,42.26,0,0,1,6.4,3.51,35.78,35.78,0,0,1,2.94,2.19c1,.76,1.64,1.78,3.2,2.11l.07,0a1.92,1.92,0,1,1-2.32,1.84c0-1.51-1-2.24-1.74-3.12a22.57,22.57,0,0,0-2.64-2.36,20.31,20.31,0,0,0-6.26-3.26l.38-.93h0a44.29,44.29,0,0,0,7.33,2.46l-.4.9a23.7,23.7,0,0,0-8.65-3.57h0a.5.5,0,0,1,.13-1h0c1.27.09,2.55.17,3.83.18s2.55,0,3.83,0,2.55-.08,3.83-.18,2.51-1.17,3.83.21l-.09,1h0c-7.05-1.49-14.29-1.94-21.52-2.38a.5.5,0,0,1-.27-.9,9,9,0,0,1,7.46-1.44.5.5,0,0,1-.09,1l-8.25.59a.5.5,0,0,1-.32-.91l2.88-2,.33.91-6.44.36a.5.5,0,0,1-.16-1h0q3.86-1,7.8-1.67a.5.5,0,0,1,.53.72,4.8,4.8,0,0,1-4,2.56.5.5,0,0,1-.22-1,20.56,20.56,0,0,1,6.19-1.6.5.5,0,0,1,.31.92,8.58,8.58,0,0,1-3,1.16l-.15-1a38.48,38.48,0,0,1,5.1-.22.5.5,0,0,1,.49.51.51.51,0,0,1-.22.4,8.35,8.35,0,0,1-4.92,1.45.5.5,0,0,1,0-1,24.43,24.43,0,0,1,8,.75.5.5,0,0,1,.1.93,8.21,8.21,0,0,1-5.42.76l.27-1a39.81,39.81,0,0,0,6.77,1.82.5.5,0,0,1-.12,1l-5.08-.29.31-.92a13.31,13.31,0,0,0,4.72,2l-.2,1a43.71,43.71,0,0,0-5.95-.82l.28-.93,7.92,4.52a.5.5,0,0,1-.43.9l-7.74-3a.5.5,0,1,1,.36-.93Z"/><path class="cls-12" d="M1123.42,53,1112.14,65a.5.5,0,0,1-.81-.56l0,0c.49-1,1-1.94,1.49-3a9.83,9.83,0,0,1,2.08-2.59,20.73,20.73,0,0,1,5.37-3.86h0l.07,0a.5.5,0,0,1,.71.54,54.43,54.43,0,0,1-2,7.79.5.5,0,0,1-1-.28,5.61,5.61,0,0,1,1.8-2.95.5.5,0,0,1,.69.72l-4.27,4.58h0a.5.5,0,0,1-.85-.47,2.81,2.81,0,0,1,2.7-2.09.49.49,0,0,1,.5.49v.06h0a8,8,0,0,1-2.79,5l-.45-.87,2.77-.73a.5.5,0,0,1,.61.36.53.53,0,0,1,0,.11,11.82,11.82,0,0,1-1,5.25.5.5,0,0,1-.93-.38,2.56,2.56,0,0,1,2.08-1.61.5.5,0,0,1,.55.44.53.53,0,0,1,0,.16,3.81,3.81,0,0,0,.39,2.57.5.5,0,0,1-.88.48h0a4.81,4.81,0,0,1-.5-3.25l.54.6a1.57,1.57,0,0,0-1.26,1l-.93-.38a10.81,10.81,0,0,0,.89-4.8l.63.46-2.77.73a.5.5,0,0,1-.45-.87,7,7,0,0,0,2.43-4.37l.49.57a1.83,1.83,0,0,0-1.72,1.33l-.85-.46,4.27-4.58.69.72a4.62,4.62,0,0,0-1.48,2.42l-1-.28a52.77,52.77,0,0,0,2-7.65l.78.5h0c-1.51,1.52-3,3-4.34,4.57a19.18,19.18,0,0,1-2.12,2.29A13.23,13.23,0,0,0,1112.2,65l-.79-.61,11.28-12.06h0a.5.5,0,0,1,.73.68Z"/><path class="cls-13" d="M1134.41,52.81h.58l.36,1.65a1.83,1.83,0,0,1,1.67-.89c.66,0,1.32.16,2,.18a4.15,4.15,0,0,0,2.9-1.09"/><path class="cls-12" d="M1121,58.52c-.14-2.16-.21-4.32-.26-6.48l0-3.24a11.72,11.72,0,0,1,.27-3.24l.48.5h0c-2.51.1-5,.16-7.5.34-1.25.09-2.49.19-3.73.24a9.21,9.21,0,0,1-3.77-.39l.35-.83h0a3,3,0,0,1,2.12,2.4,16.6,16.6,0,0,1,.46,2.85c.16,1.84.2,3.69.28,5.53a39.2,39.2,0,0,0,.59,5.47c.15.91.34,1.81.46,2.72s.2,1.82.27,2.74c.15,1.82.27,3.68.38,5.47a5.34,5.34,0,0,0,.6,2.31,6.34,6.34,0,0,0,1.73,1.73,40.57,40.57,0,0,0,4.46,3,11.44,11.44,0,0,0,4.93,1.61.5.5,0,0,1,0,1,12.54,12.54,0,0,1-5.49-1.51,39.15,39.15,0,0,1-4.7-3,7.51,7.51,0,0,1-2.15-2.1,6.74,6.74,0,0,1-.82-2.93c-.14-1.86-.26-3.65-.43-5.47-.08-.91-.18-1.81-.24-2.72l-.12-2.74a28.15,28.15,0,0,0-.78-5.41c-.42-1.78-.94-3.54-1.38-5.31-.21-.9-.4-1.76-.62-2.52a5.22,5.22,0,0,1-.3-2.48h0a.34.34,0,0,1,0-.62l.38-.21a8.38,8.38,0,0,1,3.75-.77c1.26-.05,2.53,0,3.79,0,2.53.11,5,.24,7.56.53h0a.35.35,0,0,1,.42.25l.07.25a11.73,11.73,0,0,1,.28,3.24l0,3.24c0,2.16-.1,4.33-.23,6.49a.5.5,0,0,1-1,0Z"/><path class="cls-12" d="M1114.93,44.44a15.42,15.42,0,0,1,2.26-1.94,14.65,14.65,0,0,1,2.63-1.41c.18-.08.25-.17.18-.16s-.1,0-.2-.15a3.79,3.79,0,0,1-.31-.59,2.88,2.88,0,0,1-.21-.69,2.3,2.3,0,0,1,.27-1.46,2.58,2.58,0,0,0,.21-.74,4.62,4.62,0,0,0,0-.71l-.11-1.36c0-.14,0-.09-.1-.16a2.87,2.87,0,0,0-.59-.1c-.94-.09-1.9-.22-2.8-.26a2.87,2.87,0,0,0-2.31.76c-.49.6-.48,1.7.15,1.92h0a2.2,2.2,0,0,0,2.19-.45.5.5,0,1,1,.71.71l-.06,0h0a3.26,3.26,0,0,1-3.1.41h0a1.69,1.69,0,0,1-.88-1.5,2.45,2.45,0,0,1,.52-1.55,3.59,3.59,0,0,1,2.86-1.08c1,0,1.92.08,2.87.11a3.53,3.53,0,0,1,.81.08,1.13,1.13,0,0,1,.52.31,1.22,1.22,0,0,1,.28.53c.12.58.17,1,.25,1.46a4.62,4.62,0,0,0,.14.7,2.58,2.58,0,0,0,.39.67,2.31,2.31,0,0,1,.61,1.36,2.89,2.89,0,0,1,0,.72l-.16.82a2.55,2.55,0,0,1-.53,1.21,2,2,0,0,1-1,.58,8.22,8.22,0,0,0-4.63,2.62.5.5,0,1,1-.76-.65Z"/><path class="cls-12" d="M1112.82,34.45a1,1,0,0,0-.33-.89,1.79,1.79,0,0,0-1-.51,5.55,5.55,0,0,0-1.33,0c-.51,0-1,0-1.47,0-.9,0-2,0-2.17.44a2.36,2.36,0,0,0-.42,1.11,6.28,6.28,0,0,0,.06,1.29c.11.84,0,1.53,0,2.3a10,10,0,0,0,.37,2.76,7,7,0,0,0,.46,1.21c0,.14.28.24.58.12.65-.2,1-1,1.08-2h0a.5.5,0,0,1,1,.16v0a1.07,1.07,0,1,0,2.11,0h1c-.06.33.23.68.66.84a1.06,1.06,0,0,0,1.16-.17,1.35,1.35,0,0,0,.27-1.25,1.74,1.74,0,0,0-.79-1.12.5.5,0,0,1,.49-.87h0a2.74,2.74,0,0,1,1.27,1.77,2.35,2.35,0,0,1-.52,2.16,2.06,2.06,0,0,1-2.24.42,2.19,2.19,0,0,1-1-.68,1.64,1.64,0,0,1-.35-1.22h0a.5.5,0,0,1,1,0,2.06,2.06,0,1,1-4.09-.07l1,.18h0a7.31,7.31,0,0,1-.44,1.48,2.41,2.41,0,0,1-1.21,1.27,1.92,1.92,0,0,1-1,.16,1.39,1.39,0,0,1-.54-.16,1.58,1.58,0,0,1-.45-.42,9.59,9.59,0,0,1-.77-1.36c-.4-.91-.92-1.74-1.39-2.66a4.18,4.18,0,0,1-.13-3.34,8.34,8.34,0,0,1,.83-1.45,12.77,12.77,0,0,1,1-1.36,2,2,0,0,1,.85-.55,3.12,3.12,0,0,1,.87-.12,11.49,11.49,0,0,1,1.5.08,10.92,10.92,0,0,0,1.38.1,8.22,8.22,0,0,1,1.51.1,2.44,2.44,0,0,1,2.19,2.39h0a.5.5,0,1,1-1,0A.54.54,0,0,1,1112.82,34.45Z"/><path class="cls-12" d="M1116.25,33.93c-.19-2.37-.42-4.65-.82-6.94a31.36,31.36,0,0,0-.77-3.38c-.16-.55-.34-1.09-.54-1.61s-.47-.8-.71-.75a1.17,1.17,0,0,0-.83.58,1.91,1.91,0,0,0-.15,1.2c.05.49.2,1,.33,1.62a14.11,14.11,0,0,1,.2,1.83,66.34,66.34,0,0,1,0,7,.5.5,0,0,1-1,0c-.22-2.32-.29-4.63-.46-6.9,0-.56-.1-1.14-.18-1.62a17.24,17.24,0,0,1-.33-1.78,3.15,3.15,0,0,1,.48-2.14,2.31,2.31,0,0,1,2.1-1,1.59,1.59,0,0,1,1.09.69,2.85,2.85,0,0,1,.39,1c.13.59.23,1.18.31,1.76l.45,3.46a35.42,35.42,0,0,0,1.46,6.76v0a.51.51,0,1,1-1,.34A.52.52,0,0,1,1116.25,33.93Z"/><path class="cls-13" d="M1157.8,70.78a4.09,4.09,0,0,1,4.05,2.1"/><path class="cls-12" d="M1123.23,80.66a29.34,29.34,0,0,0,0,3.87c0,.64.1,1.29.16,1.93a3.71,3.71,0,0,0,.66,1.93,1.67,1.67,0,1,1-2.7,0,3.71,3.71,0,0,0,.66-1.93c.06-.64.13-1.29.16-1.93a29.34,29.34,0,0,0,0-3.87.5.5,0,0,1,1-.07A.53.53,0,0,1,1123.23,80.66Z"/><path class="cls-13" d="M1157.92,71.12a132.74,132.74,0,0,0-11.63,16c-1.64-1.77-3.64-2.54-5.79-3.63"/><path class="cls-13" d="M1140.3,83c1.39-1.72,2.82-4.14,4.21-5.86a44.63,44.63,0,0,1,4.13-4.64,22.4,22.4,0,0,1,8.93-5.08"/><path class="cls-13" d="M1158.79,71.43a7.21,7.21,0,0,1,0-2.36c0-.79-.34-1.73-1.12-1.88"/><path class="cls-12" d="M1132.86,83.07a20.39,20.39,0,0,0-2.11,2.24,8.78,8.78,0,0,0-1.67,2.6h0a.92.92,0,0,1-1.8-.27V87.4a8.05,8.05,0,0,1,.06-.94.83.83,0,0,0-.14-.54c-.27-.44-.72-1-1.08-1.49-.76-1-1.5-2-2.17-3.11s-1.3-2.16-1.88-3.28-1.11-2.26-1.61-3.42a.5.5,0,0,1,.92-.39v0a27.78,27.78,0,0,0,3.39,6.51,28.85,28.85,0,0,0,2.27,2.88c.42.48.83.82,1.34,1.35a2.87,2.87,0,0,1,.66,1.12,5.66,5.66,0,0,0,.26.91l-1.8-.51h0a15.31,15.31,0,0,0,2.57-1.89c.82-.66,1.63-1.3,2.42-2a.26.26,0,0,1,.34.39Z"/><path class="cls-12" d="M1167.51,92.11c-2-.51-1.75-1.54-1.79-2.5a23.81,23.81,0,0,0,.4-3c0-.48-.1-1-.14-1.44s0-1-.06-1.42c0-.91-.11-1.82-.24-2.73a26.72,26.72,0,0,0-1.33-5.31,2.42,2.42,0,0,0-1.38-1.67,4.27,4.27,0,0,0-2.35-.13,8.39,8.39,0,0,0-4.39,2.4,5.38,5.38,0,0,0-1.15,2.08,4.27,4.27,0,0,0-.15,1.13l.08,1.36a67.12,67.12,0,0,1-.39,11.24.5.5,0,0,1-1,0c-.59-3.76-.27-7.5-.46-11.17l-.05-1.44a6.07,6.07,0,0,1,.25-1.63,6.78,6.78,0,0,1,1.62-2.73,8.72,8.72,0,0,1,2.51-1.78,10.68,10.68,0,0,1,2.87-.92,5.66,5.66,0,0,1,3.16.3,3.44,3.44,0,0,1,1.36,1.07,5,5,0,0,1,.71,1.44,35.87,35.87,0,0,1,1.38,5.55c.16.94.28,1.89.36,2.84,0,.49.06.95.11,1.37a8.79,8.79,0,0,0,.23,1.34,13.48,13.48,0,0,0,1.42,2.53c.33.87,1,1.67-.62,3a1.1,1.1,0,0,1-1,.21Z"/><text class="cls-15" transform="translate(673.59 454.31)">SONG <tspan x="0" y="127.57">STRU</tspan><tspan class="cls-10" x="279.75" y="127.57">C</tspan><tspan class="cls-11" x="351.33" y="127.57">TURE</tspan></text></svg>