<svg id="Layer_1" data-name="Layer 1" xmlns="http://www.w3.org/2000/svg" viewBox="0 0 660 672"><defs><style>.cls-1{fill:#51c3f0;}.cls-2{fill:#ffce08;}.cls-3{fill:#ed3766;}.cls-4{font-size:140px;fill:#fff8ce;font-family:RobotoCondensed-Light, Roboto Condensed;letter-spacing:-0.05em;}.cls-5{letter-spacing:-0.04em;}.cls-6{letter-spacing:-0.16em;}.cls-7{letter-spacing:-0.04em;}.cls-8{letter-spacing:-0.05em;}.cls-9{letter-spacing:-0.03em;}.cls-10{fill:none;stroke:#fff8cd;stroke-linecap:round;stroke-linejoin:round;}.cls-11{fill:#fff8cd;}</style></defs><title>yg-beatles-170816-0918-wireframes-index</title><path class="cls-1" d="M321.22,196.28c.72,0,1.44-.06,2.16-.08l2.09-.05,2.09,0h0l2.09,0,2.09.05,2.14.08,2.09.13,2.1.16,2.08.19,2.08.24,2.11.27,2.08.3,2.09.35,2,.37,2.1.42,10.88-51.91c-1-.21-2-.4-3-.59l-2.91-.53c-1-.17-2-.34-3-.49s-2-.29-3-.42l-3-.39c-1-.12-2-.24-3-.34s-2-.18-3-.27l-3-.23c-1-.07-2-.14-3-.19s-2-.08-3.07-.12l-3-.08c-1,0-2,0-3,0h0c-1,0-2,0-3,0l-3,.07c-1,0-2.06.07-3.08.12s-2,.12-3,.19l3.65,52.88Zm-8.35.72,2.09-.24,2.08-.19-4.55-52.81c-1,.08-2,.17-3,.27s-2,.22-3,.34l-3,.39,7.28,52.51Zm-85.71,51.73c.39-.56.78-1.12,1.18-1.68s.85-1.18,1.29-1.77.84-1.11,1.26-1.65l1.26-1.6c.44-.55.89-1.1,1.34-1.65l-41-34c-.65.78-1.29,1.58-1.93,2.37s-1.22,1.52-1.81,2.29-1.22,1.58-1.82,2.38-1.24,1.68-1.85,2.53-1.14,1.6-1.7,2.41-1.17,1.69-1.74,2.54l44.3,29.62C226.34,249.91,226.74,249.33,227.15,248.74Zm-8.63,14.46c.32-.64.65-1.27,1-1.89s.64-1.21,1-1.81.66-1.2,1-1.8.74-1.26,1.11-1.89.73-1.21,1.1-1.81l-45.28-28.11q-.8,1.29-1.59,2.6c-.54.9-1.08,1.8-1.6,2.71s-1,1.72-1.45,2.58-.94,1.73-1.4,2.6-1,1.81-1.42,2.72-.91,1.8-1.35,2.71l48,23.28Q218,264.14,218.52,263.2Zm-4.34,9.56c.26-.65.52-1.29.79-1.93s.55-1.28.84-1.92l-48.74-21.6c-.4.91-.81,1.82-1.2,2.74s-.76,1.84-1.13,2.77-.76,1.92-1.13,2.88l49.79,19.07Q213.79,273.75,214.19,272.76Zm-2.89,8c.22-.68.44-1.35.67-2l-50.42-17.34c-.33,1-.65,1.94-1,2.91s-.59,1.82-.87,2.74l51,15.63C210.88,282,211.09,281.38,211.29,280.74ZM208,292.92c.15-.72.31-1.44.47-2.15s.32-1.35.49-2l-51.71-13c-.24,1-.48,1.93-.71,2.91s-.45,2.06-.67,3.09-.4,1.94-.59,2.92L207.63,295Q207.82,293.93,208,292.92Zm-1.45,8.23c.1-.68.2-1.35.3-2s.23-1.43.36-2.15l-52.48-9.37c-.18,1-.35,2.06-.51,3.09s-.29,1.94-.43,2.91-.29,2.06-.42,3.09l52.89,6.61C206.38,302.58,206.48,301.87,206.58,301.15ZM167.68,391c.42.92.85,1.83,1.28,2.74s.88,1.82,1.33,2.72.91,1.83,1.38,2.74.91,1.75,1.38,2.61,1,1.82,1.51,2.72L221,378.38c-.35-.63-.71-1.26-1.05-1.9s-.64-1.21-1-1.82-.65-1.27-1-1.91-.62-1.26-.92-1.9-.6-1.27-.89-1.92-.56-1.27-.84-1.91-.55-1.28-.81-1.92l-49.27,20.36q.57,1.38,1.17,2.75C166.87,389.15,167.27,390.07,167.68,391Zm-10-28.45c.25,1,.52,1.94.78,2.9s.55,2,.84,2.93.58,1.95.88,2.91.62,1.94.94,2.91.63,1.83.95,2.74.69,1.95,1.05,2.91l50-18.64q-.38-1-.73-2c-.22-.64-.45-1.27-.66-1.91s-.44-1.35-.66-2-.41-1.35-.61-2-.4-1.36-.59-2-.37-1.34-.55-2-.34-1.36-.5-2-.32-1.35-.47-2l-52,11.61q.32,1.47.67,2.92C157.15,360.58,157.38,361.56,157.63,362.53ZM155,350.69c.19,1,.38,2.06.59,3.08L207.83,343c-.14-.71-.28-1.43-.41-2.14ZM238.35,402c-.48-.52-1-1-1.43-1.55s-.92-1-1.38-1.55-.9-1-1.35-1.58-.93-1.1-1.38-1.66-.85-1.05-1.27-1.59l-41.84,33q.91,1.14,1.83,2.27t2,2.39q1,1.14,1.94,2.26c.65.74,1.31,1.49,2,2.22s1.37,1.49,2.07,2.23Zm-57.52,12.74c.57.86,1.14,1.72,1.72,2.57s1.11,1.62,1.68,2.42,1.15,1.59,1.73,2.38l43-31.47c-.4-.55-.81-1.1-1.2-1.66s-.79-1.13-1.17-1.69-.8-1.19-1.19-1.78-.77-1.18-1.15-1.78-.75-1.2-1.12-1.8l-45.54,27.68c.53.87,1.08,1.73,1.62,2.59S180.27,413.94,180.83,414.78Zm83.6,8.43L237,468.73q1.28.77,2.58,1.52l26.65-46Zm-44.85,33.55c.8.62,1.61,1.25,2.43,1.86l32-42.48-1.69-1.3Zm21.74-51.65-37.55,37.73q1.05,1,2.13,2.07l36.9-38.36Zm64.25,33.7L296,491c1,.18,2,.34,3,.51l8.62-52.32ZM275.48,486c1,.3,1.94.58,2.91.86l14.88-50.93-2-.61Zm7.82-53.45L264.1,482c.93.36,1.87.72,2.81,1.06l18.35-49.81Zm-5.83-2.44-21.73,48.46q1.36.61,2.74,1.2l20.9-48.81Zm-3.82-1.8-1.91-1-24.24,47.27c.91.46,1.83.91,2.75,1.36l2.77,1.33,22.56-48.08Zm71.76,11.22-2.08.29-2.11.25-2.08.22-2.15.19,4.08,52.85c1-.08,2.06-.18,3.09-.27l3-.31c1-.11,2-.22,3-.35s2-.27,3-.42l2.92-.45-8.63-52.31Zm16.42-3.59-2,.58-2,.54-2,.5-2.09.47-2,.43,10.44,52,2.93-.61c1-.22,2-.44,3-.67l2.91-.71c1-.24,1.93-.5,2.89-.76l2.92-.82c1-.28,1.94-.56,2.91-.86L363.87,435.3Zm6-1.93-2,.69,16.6,50.4,2.92-1c.95-.33,1.9-.66,2.84-1l-18.35-49.81Zm11.65-4.77,22.56,48.08q1.38-.65,2.76-1.32l-23.39-47.69Zm11.16-6,27.44,45.52c.86-.51,1.7-1,2.54-1.57l-28.21-45.05ZM334.9,440.56l-2.08.11-2.1.08,1.37,53c1,0,2-.07,3-.12l3-.15Zm101.19-65.9c-.32.61-.63,1.22-1,1.82L482,401.79c.47-.86.92-1.74,1.38-2.61s.93-1.82,1.38-2.74L437,372.76C436.73,373.4,436.42,374,436.09,374.66Zm2.78-5.71,48.56,22c.41-.91.81-1.82,1.21-2.74L439.7,367C439.43,367.68,439.15,368.32,438.86,369ZM405.22,224,439,182.93c-.77-.63-1.55-1.25-2.33-1.87L403.6,222.71C404.14,223.14,404.68,223.58,405.22,224Zm3.21,2.75c.53.47,1.05.94,1.57,1.41l35.89-39.3c-.74-.68-1.5-1.35-2.26-2s-1.5-1.31-2.26-2l-34.51,40.49Zm7.57,7.29,38.52-36.75c-.68-.71-1.38-1.42-2.07-2.12l-37.89,37.39C415,233.08,415.52,233.57,416,234.07Zm-53.13-32.75,2,.61,2,.66,17-50.26c-1-.32-1.92-.63-2.89-.94l-2.82-.87c-1-.29-1.94-.58-2.92-.86s-2-.53-2.93-.79-1.93-.49-2.9-.73l-12.67,51.51,2,.51,2,.55Zm23.86-48-17.9,50,2,.73,2,.77,1.94.79,1.91.83L398,157.77c-.91-.4-1.82-.8-2.74-1.18l-2.79-1.14c-.95-.38-1.9-.74-2.86-1.1Zm-2.49,56.75,1.84,1,1.86,1,1.8,1.05,1.79,1.08c.61.38,1.22.75,1.82,1.14l1.71,1.12,1.78,1.21L427,173.89q-1.27-.87-2.56-1.72c-.81-.54-1.63-1.08-2.45-1.6s-1.74-1.09-2.62-1.63-1.71-1-2.57-1.54-1.71-1-2.58-1.5-1.78-1-2.68-1.49-1.76-.94-2.64-1.4l-2.66-1.36-23.81,47.48ZM559.84,353.79l-52.55-8c-.15,1-.32,2-.49,3l52.41,8.88C559.43,356.4,559.65,355.1,559.84,353.79ZM363.3,496.58l10.49,52.26c1.31-.26,2.61-.54,3.91-.82l-11.37-52.07Q364.82,496.28,363.3,496.58ZM361.69,140c1,.2,2.08.4,3.12.61l3,.66c1,.23,2.07.48,3.11.74l3,.76c1,.27,2,.54,3,.82l14.5-51.3c-1.31-.37-2.62-.72-3.93-1.06s-2.58-.66-3.88-1-2.67-.65-4-1-2.6-.58-3.91-.85-2.7-.54-4.05-.8-2.58-.48-3.88-.71l-9.14,52.51Zm8.1,409.59-9.59-52.43-3.1.52,8.67,52.59C367.11,550.07,368.45,549.85,369.79,549.61ZM351,498.6c-1,.13-2.08.24-3.12.36l6,53c1.35-.15,2.7-.3,4-.47s2.67-.36,4-.56l-7.78-52.73C353,498.32,352,498.47,351,498.6Zm-9.42,1c-1,.08-2.06.13-3.1.19L341.65,553c1.34-.08,2.69-.15,4-.25s2.76-.24,4.13-.37l-5-53.05C343.7,499.38,342.64,499.48,341.56,499.56Zm1.6-362.07c1,.09,2.06.17,3.09.28s2.07.23,3.11.35l3.12.4c1,.14,2.06.28,3.09.44l8.22-52.66c-1.32-.2-2.66-.38-4-.57s-2.69-.36-4-.52-2.67-.32-4-.46-2.66-.24-4-.36-2.68-.22-4-.31-2.67-.18-4-.25l-2.76,53.22c1,.05,2.07.13,3.1.2Zm-9.54,415.82c1.35,0,2.68-.09,4-.15l-2.29-53.24c-1,0-2.07.09-3.11.12Zm.14-416.37,1.82-53.26q-2-.07-4-.1c-1.34,0-2.67-.05-4-.05v53.29c1,0,2.07,0,3.1,0Zm-6.21,416.45,2.07,0-.47-53.29-1.59,0h0l-1.6,0c-1,0-2.07,0-3.1,0l-1.38,53.27c1.33,0,2.67,0,4,.05Zm91.06-163.17-41.82-33c-.22.27-.43.55-.65.82l41.26,33.63C417.81,391.22,418.21,390.72,418.61,390.22ZM384.89,293c.14.33.3.65.44,1s.26.66.39,1l49.34-19.89c-.25-.61-.49-1.22-.75-1.83s-.52-1.21-.79-1.81-.54-1.2-.82-1.8-.57-1.22-.86-1.83L384,291.07c.16.33.31.66.46,1Zm51.61-14.19c-.22-.61-.46-1.22-.69-1.83l-49.68,19c.13.33.26.65.38,1ZM443,328q.08-1,.14-2c0-.68.08-1.35.12-2l-53.09-2.49c0,.37,0,.74-.07,1.11s-.05.73-.08,1.09,0,.7-.08,1l52.9,5.25Q443,328.93,443,328Zm.29-14c0-.64,0-1.28-.08-1.92s-.08-1.36-.13-2-.1-1.28-.16-1.92-.12-1.36-.2-2-.14-1.28-.22-1.92l-52.76,6.59c0,.34.1.69.13,1s.07.74.1,1.11.06.69.08,1,.06.73.08,1.1,0,.69,0,1,0,.74,0,1.11L443.41,316C443.39,315.29,443.37,314.61,443.34,313.93Zm-1.52,23.88c.11-.64.21-1.28.31-1.93s.2-1.36.28-2,.16-1.28.24-1.92l-52.8-6.18c0,.35-.09.69-.13,1s-.09.74-.14,1.11-.12.7-.18,1-.12.69-.19,1l52.27,9.76C441.6,339.1,441.71,338.45,441.82,337.81Zm-54-36.69c.1.35.2.69.3,1s.19.69.27,1,.16.7.24,1,.17.73.25,1.1.14.69.21,1,.12.69.19,1,.14.73.2,1.1.1.69.15,1L442.28,302c-.09-.64-.19-1.28-.29-1.92s-.22-1.36-.34-2-.24-1.28-.36-1.92-.26-1.29-.39-1.92-.29-1.37-.45-2-.31-1.28-.47-1.91-.33-1.29-.5-1.93-.35-1.29-.53-1.93-.38-1.28-.57-1.92-.38-1.21-.57-1.81L387.22,299.1c.11.32.22.65.32,1S387.73,300.78,387.84,301.13Zm52.84,42.58-51.9-11.58c-.08.34-.16.69-.24,1l51.7,12.46C440.39,345,440.53,344.35,440.68,343.7Zm-3.19,11.54q.32-1,.62-1.91c.2-.64.39-1.28.58-1.92s.38-1.29.56-1.93L388,335.24l-.3,1.05c-.1.35-.2.69-.31,1s-.24.69-.35,1-.21.65-.33,1l50.15,17.72C437.07,356.46,437.28,355.86,437.48,355.25Zm-24,41,1.3-1.47-40.07-35.06c-.23.27-.46.54-.7.8l-.74.79,38.85,36.41ZM357.57,263.38l1,.55,26.32-46.35-1.77-1Zm20.19-49.53-1.84-.86-1.8-.81-1.82-.79-1.84-.75-19.72,49.54,1,.4,1,.43,1,.44,1,.45,1,.5.95.49,24.7-47.23-1.75-.9Zm-32.1,44.54,1,.31,1,.35,1,.34,18-50.18-1.88-.66-1.91-.62-1.86-.58-1.93-.57-14.5,51.31Zm60.82,145c.49-.46,1-.91,1.46-1.38l1.4-1.37.19-.19c.42-.42.83-.85,1.24-1.28l-38.22-37.08c-.26.27-.51.54-.77.8s-.51.49-.76.73l-.79.75-.79.73L405,404.75C405.5,404.3,406,403.85,406.48,403.39Zm-59-199.26-2-.33-8.23,52.66,1.07.19,1,.19,1.09.21,10.93-52.17-2-.39Zm52.24,23.52-1.58-1.24-1.56-1.18L394.88,224l-1.6-1.12-1.69-1.15L390,220.68l-1.73-1.08-1.7-1-27.1,45.89.92.55.92.59.89.57.91.62.86.61.91.65.83.64.85.67c.28.22.56.43.84.66l.84.73,34.56-40.54c-.52-.44-1-.89-1.56-1.32Zm9.85,8.81-.9-.88c-.47-.46-.93-.91-1.41-1.36l-1.46-1.37-1.49-1.34L369,271.44l.81.71c.27.24.52.5.78.74l.77.73.79.78.73.77,38.53-36.77c-.45-.47-.91-.94-1.37-1.4Zm-29.27,48,.58.9.57.93c.19.32.37.65.56,1s.35.61.52.91l.5.93,47-24.87q-.46-.86-.92-1.72c-.31-.57-.63-1.14-1-1.71s-.7-1.2-1.05-1.79-.69-1.15-1-1.72-.7-1.12-1.05-1.67-.71-1.09-1.07-1.62-.77-1.13-1.16-1.69l-43.72,30.36c.21.3.43.6.64.91S380.07,284.2,380.26,284.49Zm39-37L418,246c-.42-.52-.84-1-1.27-1.57l-41,34c.23.28.45.56.68.85l.65.82c.22.28.45.56.66.84s.44.61.65.91l43.2-31.1c-.4-.56-.81-1.12-1.22-1.67S419.63,248,419.22,247.49Zm-6.42-7.61L373.65,276l.73.81.7.8,40.36-34.73c-.43-.5-.86-1-1.3-1.48Zm-71.35,17.4,1.07.25,12.73-51.77-2-.47Zm30,168.6,1.82-.76,1.81-.8,1.8-.83L354.2,375.24l-1,.44-1,.44-1,.41-1,.4,19.29,49.71Zm-30.9,7.88,2-.24-6.88-52.87-1.08.14-1.06.11,5,53.06Zm40-12.06c.59-.3,1.17-.61,1.75-.93l1.72-.95,1.77-1,1.7-1,1.68-1,1.72-1.1,1.61-1.06,1.64-1.14-30.56-43.65c-.29.21-.58.42-.88.63l-.88.57-.93.59c-.3.19-.6.39-.91.58l-.93.53-.95.55-.94.52-.95.48-1,.5,23.49,47.85Zm16.84-10.6,1.59-1.23c.53-.42,1.05-.84,1.58-1.27l1.52-1.26,1.5-1.28-34.9-40.25-.81.7-.82.68-.86.67-.86.68-.85.62,31.33,43.09Zm-37.24,18.75,1.93-.57,1.86-.6,1.93-.66,1.87-.67-18.42-50-1,.35-1,.35-1,.34c-.35.11-.7.2-1.05.3l-1,.3,14,51.43Zm-28.75-48.78,3.19,53.2,2-.13L332.39,381Zm7.51-.91-1.07.19,8.67,52.6,2-.34,2-.38L339.9,380ZM335.54,202.7l-2-.13-2-.08-1.82,53.27,1.1,0,1.06.08,1.08.08L334,256l5.49-53-2-.18Zm-5,231.75,2-.08-2.29-53.25-1.07,0Zm-21.63-56.08-1-.34-1.05-.36-1-.35-1-.39-1-.4-1-.41-1-.44-1-.44-1-.48-23.48,47.85,1.83.88,1.79.83,1.82.8,1.82.76,1.89.76,1.85.71,1.88.67,1.93.66,1.85.6c.64.2,1.29.39,1.93.58L310,378.67C309.63,378.57,309.27,378.48,308.92,378.37ZM132.86,461.05l-43,31.47q1.56,2.12,3.15,4.22l42.4-32.23Q134.13,462.79,132.86,461.05Zm-11.53-17.22L75.81,471.51c.89,1.46,1.8,2.9,2.71,4.34l45-28.46C122.8,446.21,122.05,445,121.33,443.83Zm4.49,7.08L81.29,480.14c1,1.45,1.91,2.89,2.88,4.31l44-30Q127,452.69,125.82,450.91Zm87.29-150.79,52.49,8.41c.06-.37.13-.73.2-1.1l-52.35-9.35C213.32,298.76,213.21,299.44,213.11,300.12ZM298,373.78l-.94-.52-25.92,46.57,1.73,1Zm-85.87-65.73c-.06.64-.11,1.28-.16,1.92s-.09,1.35-.13,2l53.07,3c0-.37.06-.74.08-1.1s0-.69.08-1,.06-.74.1-1.11L212.33,306C212.25,306.69,212.19,307.37,212.13,308.05ZM143.24,474.23l-40.67,34.38q1.61,1.91,3.26,3.8l40.09-35.06C145,476.32,144.13,475.28,143.24,474.23Zm136.43-115.3-.72-.84-.65-.82-.67-.86-.67-.9-.61-.86c-.2-.29-.41-.56-.61-.85l-.61-.92-.59-.92c-.19-.3-.4-.6-.59-.91s-.36-.62-.54-.93L227.48,377c.33.57.67,1.14,1,1.7s.7,1.14,1.06,1.71.72,1.13,1.09,1.69.75,1.13,1.13,1.69.74,1.08,1.11,1.61.76,1.05,1.14,1.58.82,1.11,1.24,1.66.81,1.07,1.23,1.6l1.21,1.5q.65.79,1.31,1.58ZM138,467.83l-41.84,33c1,1.28,2,2.55,3.07,3.82L140.52,471C139.67,469.92,138.83,468.88,138,467.83ZM358.66,557.7c-1.38.18-2.76.33-4.15.48s-2.73.29-4.1.42l5.05,53.05c1.67-.16,3.34-.33,5-.52s3.39-.37,5.07-.59,3.35-.46,5-.7l-7.78-52.72C361.41,557.33,360,557.52,358.66,557.7ZM436.16,359l-49.84-18.6c-.12.34-.26.66-.39,1s-.27.69-.41,1-.28.66-.42,1l-.44,1c-.15.33-.29.66-.44,1l48.06,22.81c.28-.6.57-1.2.84-1.81s.53-1.2.79-1.81.52-1.21.77-1.82.52-1.27.77-1.91S435.93,359.59,436.16,359ZM540,433c-.68,1.25-1.37,2.49-2.07,3.73l46.43,26.11c.85-1.51,1.7-3,2.53-4.56ZM304.83,612.11c1.67.13,3.35.22,5,.32l3.2-53.19c-1.37-.08-2.75-.16-4.12-.26ZM166.35,498q-1.55-1.4-3.08-2.82c-1-.95-2-1.9-3-2.86s-2-1.89-2.92-2.85l-.42-.41c-.86-.86-1.71-1.75-2.56-2.62s-1.93-2-2.88-3-1.9-2-2.84-3.06l-39.48,35.74c1.14,1.26,2.3,2.5,3.46,3.73s2.33,2.47,3.51,3.68,2.07,2.15,3.13,3.2l.51.5q1.77,1.76,3.56,3.48c1.22,1.18,2.46,2.34,3.7,3.49s2.49,2.3,3.75,3.44,2.53,2.27,3.81,3.38,2.54,2.17,3.82,3.24l34.2-40.83c-1-.88-2.1-1.75-3.13-2.65S167.38,499,166.35,498ZM324.86,381.13l-1.07-.06-1.07-.08-1.11-.08-1.06-.11-1.08-.14-1.07-.14-1-.17-1.07-.19-1.07-.19-1-.23-11.39,52.08,1.94.41,2,.38,2,.34,1.93.3,2,.28,2,.23,2,.2,2,.18,2,.12,2,.1Zm8.93,178.48c-1.37,0-2.74,0-4.12.05l-2.11,0h0l-2.12,0L325,612.94c.87,0,1.73,0,2.59,0s1.72,0,2.59,0c1.68,0,3.36,0,5-.06s3.36-.12,5-.19l-2.29-53.24C336.54,559.51,335.17,559.57,333.79,559.61ZM222,366.35c.28.61.56,1.21.85,1.82s.58,1.2.88,1.8.6,1.21.91,1.81l47.25-24.47-.5-1c-.16-.32-.33-.64-.48-1s-.29-.65-.44-1-.3-.65-.44-1-.28-.65-.42-1L220.4,362.72q.38.91.77,1.82C221.44,365.14,221.7,365.75,222,366.35Zm34.21,43.52,1.61,1.24,1.56,1.16,1.67,1.2,1.64,1.14,1.61,1.06c.57.38,1.15.74,1.73,1.11l1.68,1,27.5-45.64-.9-.57-.93-.59c-.29-.19-.59-.37-.88-.57s-.59-.42-.88-.62l-.91-.65-.85-.63c-.29-.22-.57-.45-.86-.67l-.85-.67-.83-.68-.8-.7-.82-.71-.8-.74-.78-.74-.76-.73c-.26-.26-.51-.53-.77-.8l-.75-.79c-.25-.26-.5-.52-.74-.79s-.46-.54-.7-.8l-40.08,35.05,1.31,1.48c.45.5.9,1,1.36,1.47s.92,1,1.38,1.45.82.85,1.24,1.27l.19.19,1.4,1.37,1.45,1.37,1.48,1.36,1.49,1.33,1.5,1.28,1.52,1.26Zm29.89-138.43.81-.7c.28-.24.55-.49.84-.72s.56-.44.84-.66l.86-.68.84-.64-31.69-42.82L257,226.4l-1.58,1.24-1.54,1.24c-.53.43-1,.88-1.56,1.32l-1.48,1.29-1.5,1.34,35.92,39.32Zm-39.6-35.88-.91.89L245,237c-.46.47-.92.93-1.37,1.41s-.91,1-1.36,1.46L241,241.37l39.77,35.4.73-.81.74-.78.73-.77.78-.77.77-.73-36.6-38.7ZM235.87,247.5c-.4.52-.81,1-1.2,1.57s-.82,1.11-1.22,1.67l-1.12,1.59q-.58.84-1.15,1.68t-1.07,1.64c-.36.55-.71,1.11-1.05,1.67s-.7,1.14-1,1.72-.71,1.19-1.05,1.79l46.18,26.46c.19-.33.37-.66.56-1l.57-.93.58-.9c.19-.3.37-.59.57-.89s.42-.6.63-.91l.61-.86c.22-.3.43-.61.65-.91s.44-.56.66-.84l.65-.83L237.07,246Zm90.61,8.24,1.07,0h0V202.42h0l-2,0-2,0,1.82,53.27Zm-18.81-51.61-1.92.35,10,52.36,1-.19,1.08-.19-8.23-52.66ZM322.16,256l1.07-.08,1.07-.08-2.76-53.22-2,.13-2,.15-2,.18,5.48,53Zm-55.3-36.36-1.73,1.08-1.61,1.06-1.69,1.15L260.22,224l30.93,43.39.86-.61.91-.62.88-.57.93-.6.92-.55.92-.53c.32-.18.63-.37,1-.55l.94-.49-24.71-47.23-1.74.93-1.77,1-1.7,1ZM302.38,261l1-.43,1-.39,1-.4,1-.38,1-.35,1-.35,1-.32-15.39-51-1.87.58-1.9.62-1.88.66-1.86.69-1.89.73-1.84.75-1.82.79-1.8.81,22.22,48.46ZM320,256.18l-6.41-52.92-2,.26,7.32,52.8Zm-105.38,36,51.81,12.05c.08-.35.16-.7.24-1l-51.58-12.92C215,290.92,214.79,291.55,214.64,292.2Zm52.76,44.1c-.1-.35-.2-.7-.3-1.05l-51.25,14.23q.27,1,.56,1.94c.19.64.38,1.28.58,1.92s.41,1.29.62,1.92l50.45-16.88c-.12-.35-.24-.69-.35-1S267.51,336.64,267.41,336.29ZM216.71,284.5l50.85,15.58c.1-.33.21-.65.32-1l-50.59-16.42C217.09,283.29,216.9,283.89,216.71,284.5Zm6.54-16.66c-.29.61-.58,1.22-.86,1.83s-.55,1.19-.81,1.79-.54,1.21-.8,1.82l49,20.73c.14-.33.3-.65.44-1s.29-.65.44-1,.3-.66.46-1,.33-.64.49-1L224.14,266Q223.69,266.94,223.25,267.84Zm-9.44,28.32L266,306.39q.1-.52.21-1l-52-11.11Q214,295.2,213.81,296.16ZM254.61,152c.95-.41,1.89-.83,2.85-1.22l2.88-1.17c1-.39,2-.77,3-1.14s1.94-.72,2.92-1.07,2-.7,2.94-1L252.06,95.87c-1.28.43-2.54.88-3.8,1.34s-2.52.92-3.78,1.39-2.57,1-3.84,1.48-2.49,1-3.73,1.52-2.46,1-3.68,1.58-2.44,1.08-3.65,1.63l22.22,48.45C252.72,152.83,253.67,152.42,254.61,152Zm-11.31,5.42q1.37-.72,2.76-1.42c.95-.47,1.89-.95,2.85-1.4l-23.07-48c-1.23.59-2.46,1.21-3.68,1.82s-2.38,1.21-3.56,1.83-2.37,1.24-3.54,1.88l25.5,46.79C241.47,158.38,242.38,157.9,243.3,157.42ZM209.69,521.81c1.19.69,2.38,1.36,3.58,2l25.91-46.56c-.93-.52-1.85-1-2.77-1.57Zm-45.09-34c1,.94,2,1.86,3,2.79l36.25-39q-1.15-1.07-2.29-2.15Zm-16.55-17.65q1.29,1.53,2.6,3c.87,1,1.75,2,2.64,3s1.83,2,2.76,3,1.86,2,2.8,2.94,1.92,2,2.9,3l37.56-37.74L199,447c-.65-.65-1.28-1.31-1.92-2s-1.45-1.51-2.17-2.27-1.43-1.53-2.14-2.31-1.37-1.53-2-2.3-1.34-1.55-2-2.34-1.38-1.64-2.06-2.47L145.4,467Q146.71,468.59,148.06,470.17ZM128.87,444q1.09,1.72,2.21,3.43t2.29,3.43l44-30q-.9-1.32-1.78-2.66t-1.71-2.64c-.57-.89-1.13-1.78-1.68-2.69s-1.06-1.77-1.58-2.66l-45.93,26.86c.68,1.15,1.35,2.31,2,3.45S128.14,442.88,128.87,444Z"/><path class="cls-2" d="M453.58,449.45l36.92,38.37c1-.92,1.9-1.84,2.84-2.78l-37.55-37.74C455.05,448,454.32,448.74,453.58,449.45Z"/><path class="cls-2" d="M472.28,428.48c-.64.84-1.28,1.68-1.93,2.5s-1.26,1.57-1.9,2.36L509.7,467c.82-1,1.64-2,2.45-3s1.67-2.16,2.5-3.24,1.68-2.24,2.51-3.36l-42.93-31.45Q473.26,427.19,472.28,428.48Z"/><path class="cls-2" d="M476,423.41l43.45,30.72c.76-1.07,1.5-2.16,2.25-3.24l-44-30Q476.9,422.16,476,423.41Z"/><path class="cls-2" d="M482.92,412.92c-.55.9-1.11,1.79-1.67,2.68s-1.14,1.77-1.71,2.65L524,447.44q1.12-1.7,2.21-3.41c.73-1.15,1.45-2.3,2.16-3.47s1.37-2.3,2-3.45L484.5,410.25C484,411.14,483.46,412,482.92,412.92Z"/><path class="cls-2" d="M491.83,396.42c-.45.94-.91,1.88-1.37,2.82s-.95,1.89-1.44,2.83-.94,1.81-1.42,2.7L534.42,430c.63-1.16,1.24-2.33,1.84-3.5s1.25-2.44,1.85-3.67,1.19-2.42,1.77-3.65,1.16-2.44,1.71-3.67l-48.44-22C492.72,394.53,492.28,395.48,491.83,396.42Z"/><path class="cls-2" d="M500,376.17c-.32,1-.65,1.89-1,2.84s-.71,2-1.09,3-.72,1.92-1.09,2.87-.8,2-1.21,3l49.16,20.31c.53-1.29,1.06-2.57,1.57-3.87s.95-2.47,1.41-3.71.95-2.59,1.41-3.9.86-2.44,1.27-3.67.85-2.6,1.26-3.9l-50.72-16C500.65,374.17,500.32,375.18,500,376.17Z"/><path class="cls-2" d="M506.27,351.84c-.2,1.07-.4,2.13-.61,3.19s-.43,2-.65,3l51.89,11.58c.29-1.3.58-2.59.84-3.89s.54-2.75.79-4.13.46-2.6.68-3.9l-52.41-8.88C506.63,349.83,506.46,350.84,506.27,351.84Z"/><path class="cls-2" d="M508.45,336.38c-.1,1.07-.23,2.14-.35,3.21s-.24,2-.37,3l52.68,7.06c.17-1.29.33-2.59.48-3.9s.31-2.75.45-4.13.24-2.59.35-3.9l-53-4.36Q508.6,334.88,508.45,336.38Z"/><path class="cls-2" d="M508.95,330.17l53,3.43c.09-1.38.17-2.75.23-4.13L509.13,327C509.08,328,509,329.11,508.95,330.17Z"/><path class="cls-2" d="M562.46,317.54l-53.14.21c0,.24,0,.47,0,.71,0,.77,0,1.53,0,2.3l53.14.68c0-1,0-2,0-3C562.48,318.15,562.47,317.85,562.46,317.54Z"/><path class="cls-2" d="M475.12,212.26c.6.83,1.18,1.66,1.77,2.5s1.22,1.76,1.81,2.65,1.12,1.69,1.67,2.54,1.11,1.75,1.66,2.62,1.1,1.79,1.64,2.69,1.11,1.86,1.66,2.81,1,1.78,1.5,2.68,1,1.79,1.45,2.69,1,1.87,1.47,2.82.94,1.87,1.4,2.81.91,1.91,1.35,2.87.86,1.88,1.28,2.82.84,1.89,1.24,2.84l49-20.72c-.52-1.23-1.07-2.45-1.61-3.67s-1.09-2.44-1.66-3.64-1.16-2.48-1.75-3.71-1.19-2.43-1.81-3.64-1.26-2.43-1.9-3.64-1.24-2.33-1.87-3.48-1.28-2.32-1.93-3.46-1.42-2.42-2.14-3.63-1.4-2.32-2.12-3.48-1.41-2.27-2.14-3.39-1.44-2.21-2.17-3.3-1.55-2.28-2.34-3.42-1.51-2.16-2.28-3.22-1.64-2.27-2.47-3.39-1.62-2.13-2.45-3.19l-42.08,32.58c.63.82,1.27,1.64,1.89,2.47S474.49,211.38,475.12,212.26Z"/><path class="cls-2" d="M500.51,262.34c.31.94.61,1.89.9,2.84s.61,2,.9,3,.56,2,.83,3,.53,2,.78,3,.5,2,.73,3,.47,2.13.7,3.2l52-11.11c-.29-1.38-.58-2.77-.9-4.14s-.63-2.6-.95-3.89-.66-2.61-1-3.9-.7-2.62-1.07-3.92-.76-2.6-1.16-3.9-.77-2.45-1.16-3.67-.84-2.6-1.29-3.89l-50.29,17.29C499.85,260.33,500.18,261.33,500.51,262.34Z"/><path class="cls-2" d="M507.51,292.71c.15,1.07.3,2.13.43,3.2s.24,2,.34,3l52.84-5.71c-.14-1.3-.29-2.61-.45-3.91s-.36-2.75-.55-4.12-.37-2.61-.58-3.91l-52.49,8.41Q507.3,291.2,507.51,292.71Z"/><path class="cls-2" d="M509.18,311.35c0,1.07.08,2.13.1,3.2l53.13-1.14c0-1.38-.08-2.76-.13-4.13s-.1-2.6-.17-3.9l-53.06,3C509.1,309.34,509.14,310.35,509.18,311.35Z"/><path class="cls-2" d="M503,320.68c0-.74,0-1.48,0-2.22,0-.23,0-.46,0-.69q0-1.54,0-3.07c0-1-.06-2.06-.1-3.09l-53.25,2.08c0,.72.05,1.44.07,2.16s0,1.43,0,2.14c0,.16,0,.31,0,.47,0,.52,0,1,0,1.55,0,.72,0,1.43,0,2.15l53.27,1.61C503,322.74,503,321.71,503,320.68Z"/><path class="cls-2" d="M502.44,332.85c.08-1,.15-2.06.22-3.09s.13-2.05.17-3.08l-53.23-2.5c0,.72-.07,1.43-.12,2.14s-.1,1.44-.15,2.16-.11,1.35-.18,2l53,5.25Q502.33,334.31,502.44,332.85Z"/><path class="cls-2" d="M501.49,341.76c.13-1,.24-1.94.35-2.91l-52.93-6.2c-.08.68-.16,1.35-.25,2s-.19,1.44-.3,2.15l52.7,8C501.22,343.82,501.36,342.79,501.49,341.76Z"/><path class="cls-2" d="M448.51,301.15c.1.72.2,1.43.29,2.15s.16,1.35.23,2l53-5.73q-.16-1.46-.33-2.91c-.13-1-.27-2.06-.42-3.09s-.28-1.94-.43-2.91-.33-2.06-.51-3.09L447.86,297c.12.71.24,1.43.35,2.15S448.42,300.47,448.51,301.15Z"/><path class="cls-2" d="M497.81,275.78q-.37-1.47-.76-2.92c-.26-1-.52-2-.8-2.92s-.57-1.95-.87-2.92l-51,15.63q.31,1,.6,2c.19.68.38,1.36.56,2s.36,1.35.53,2,.33,1.34.49,2,.32,1.43.47,2.15l52.13-11.14c-.22-1-.44-2.06-.67-3.09S498.05,276.75,497.81,275.78Z"/><path class="cls-2" d="M496.68,365.43c.27-1,.54-1.93.79-2.91s.48-1.95.72-2.92.46-1.94.67-2.92.43-1.94.63-2.91.4-2.05.59-3.08.35-1.95.51-2.92L448,338.86q-.17,1-.36,2c-.13.72-.26,1.44-.41,2.16s-.29,1.35-.44,2-.31,1.35-.47,2-.33,1.36-.5,2-.36,1.35-.55,2-.38,1.36-.58,2l51.12,15.14C496.13,367.38,496.41,366.4,496.68,365.43Z"/><path class="cls-2" d="M441.7,274.76c.25.64.49,1.28.73,1.93s.48,1.35.71,2l50.42-17.33q-.5-1.46-1-2.91c-.34-.93-.69-1.86-1-2.78s-.74-1.92-1.13-2.87-.75-1.86-1.13-2.77-.8-1.83-1.2-2.74l-48.73,21.62c.28.63.56,1.27.83,1.91s.53,1.28.79,1.93S441.44,274.09,441.7,274.76Z"/><path class="cls-2" d="M491,382.59c.36-.92.71-1.85,1.05-2.77s.71-1.93,1.05-2.9.64-1.82.95-2.74.64-1.93.94-2.91l-50.85-16q-.32,1-.65,2c-.21.64-.44,1.28-.66,1.92s-.48,1.35-.73,2-.48,1.29-.73,1.93-.54,1.34-.82,2l49.28,20.36C490.19,384.52,490.58,383.56,491,382.59Z"/><path class="cls-2" d="M484.13,239.1c-.46-.91-.94-1.82-1.42-2.72s-.93-1.74-1.4-2.6-1-1.73-1.44-2.58-1.06-1.81-1.6-2.71L432.5,255.81c.38.63.75,1.26,1.11,1.89s.67,1.2,1,1.8.65,1.2,1,1.81.66,1.25,1,1.89.63,1.26.94,1.9l48-23.28Q484.81,240.45,484.13,239.1Z"/><path class="cls-3" d="M157.5,156.21,196,193c.71-.74,1.43-1.47,2.16-2.2l-37.9-37.39C159.34,154.31,158.41,155.25,157.5,156.21Zm-18.24,21.57,42.64,31.86c.62-.83,1.26-1.65,1.89-2.46s1.25-1.59,1.88-2.38,1.32-1.64,2-2.46,1.37-1.64,2.07-2.45l-40.36-34.71q-1.36,1.58-2.68,3.17c-.87,1-1.72,2.11-2.57,3.17s-1.62,2-2.42,3.07S140.06,176.71,139.26,177.78Zm-4.75,6.62,43.71,30.36q.87-1.25,1.77-2.5l-43.2-31.08Q135.63,182.78,134.5,184.4ZM130,191.12c-.72,1.12-1.43,2.26-2.14,3.39l45.21,28.06c.55-.88,1.09-1.75,1.65-2.62s1.12-1.71,1.68-2.56l-44.24-29.57Q131.07,189.46,130,191.12ZM117.9,212.2q-.92,1.81-1.8,3.63L164,239.06q.69-1.41,1.4-2.81c.48-.95,1-1.88,1.47-2.82l-47-24.88C119.15,209.76,118.52,211,117.9,212.2Zm-5.21,11c-.54,1.22-1.08,2.44-1.61,3.67s-1,2.47-1.51,3.7l49.33,19.89c.39-1,.77-1.92,1.17-2.86s.82-1.9,1.24-2.84.85-1.89,1.28-2.82l-48.26-22.38Q113.5,221.36,112.69,223.19Zm-6,14.94q-.71,1.95-1.37,3.91c-.44,1.29-.87,2.59-1.29,3.89l50.58,16.41c.33-1,.66-2,1-3s.7-2,1.06-3,.71-1.92,1.08-2.87l-49.67-19C107.59,235.66,107.12,236.89,106.67,238.13Zm47,27L102.85,249.6q-.59,1.94-1.16,3.9l51.1,14.7C153.08,267.19,153.38,266.18,153.69,265.18ZM99.6,261.32l51.57,12.93q.38-1.52.78-3l-51.35-13.81Q100.09,259.37,99.6,261.32Zm49.53,22.16c.2-1,.4-2,.61-3l-52-11.11q-.41,1.94-.79,3.9c-.25,1.3-.51,2.6-.74,3.9l52.34,9.34C148.74,285.49,148.94,284.49,149.13,283.48ZM423.75,532.91l-21.81-48.63c-.94.42-1.89.83-2.84,1.24l21,49Q421.93,533.72,423.75,532.91Zm-26.44,10c1.26-.39,2.52-.8,3.77-1.22L384.4,491c-1,.32-1.94.64-2.91.94s-2,.6-3,.89L393.41,544C394.72,543.67,396,543.29,397.31,542.89Zm-11.69,3.28c1.3-.33,2.59-.68,3.88-1l-14.06-51.41c-1,.27-2,.54-3,.79s-2,.5-3,.73l12.29,51.87Q383.69,546.66,385.62,546.17Zm116.26-176,51,15.12c.38-1.3.76-2.6,1.12-3.9l-51.23-14.24Q502.33,368.63,501.88,370.14ZM456.93,190.77c.72.73,1.44,1.45,2.15,2.19s1.43,1.52,2.14,2.29,1.41,1.54,2.11,2.32,1.37,1.54,2,2.32,1.39,1.63,2.08,2.45l41-34q-1.33-1.6-2.68-3.17c-.87-1-1.75-2-2.63-3s-1.81-2-2.72-3-1.84-2-2.77-3-1.85-1.9-2.78-2.85-1.95-2-2.94-2.92l-37.23,38.06c.48.47,1,.94,1.45,1.41ZM180,223.36l44.79,28.87q.56-.87,1.13-1.72l-44.3-29.62Q180.82,222.12,180,223.36Zm40.81-44.18,32.34,42.22,1.64-1.24-31.64-42.75C222.39,178,221.61,178.59,220.83,179.18Zm-52.52,65.4q-.63,1.36-1.24,2.72l48.74,21.6q.42-.95.86-1.89c.3-.64.6-1.29.91-1.93l-48-23.28C169.18,242.73,168.74,243.65,168.31,244.58Zm44.36,32.11c.24-.65.48-1.29.73-1.93l-49.79-19.07c-.35.92-.7,1.84-1,2.77s-.69,1.94-1,2.91L212,278.72C212.2,278,212.43,277.36,212.68,276.69Zm-2,6-51-15.63q-.44,1.46-.87,2.92l51.24,14.73C210.28,284,210.48,283.33,210.69,282.65Zm-1.16,4.06L158,272.86q-.39,1.46-.76,2.92l51.71,13Q209.25,287.73,209.53,286.72Zm-1.9,8.24L155.32,284.7c-.19,1-.38,1.93-.55,2.91L207.24,297C207.36,296.3,207.49,295.62,207.63,295Zm-1.33,8.35-52.89-6.61q-.18,1.45-.33,2.91l53,5.73Q206.17,304.32,206.29,303.3Zm-.44,4.18-53.08-4.79c-.09,1-.17,1.93-.24,2.91l53.15,3.91C205.73,308.83,205.79,308.16,205.85,307.49ZM152.1,320.68c0,1,0,2.07.06,3.09s.07,1.94.11,2.91l53.23-2.5c0-.68-.06-1.35-.08-2s0-1.43,0-2.15ZM214.89,453q1.14,1,2.3,1.89l33.46-41.35L249,412.19Zm29.44-45L208.1,447q1.11,1,2.24,2l35.55-39.6C245.36,409,244.84,408.49,244.32,408Zm-6-6-38.85,36.41q1,1.11,2.09,2.19l38.21-37.06Q239.07,402.82,238.35,402Zm145,25.27,24.23,47.28c.89-.46,1.77-.92,2.65-1.39s1.75-.95,2.62-1.43,1.79-1,2.67-1.51,1.73-1,2.59-1.53l-27.44-45.52-1.8,1.07L387,425.34l-1.82,1Zm-9.56,4.4-2,.8L391,482q1.43-.55,2.85-1.14c.92-.38,1.85-.75,2.76-1.15l-20.9-48.81Zm-26.34,7.45,8.63,52.31c1-.16,2-.33,3-.51l-9.52-52.16ZM478.27,228.49q-.78-1.31-1.59-2.59L431.4,254q.56.9,1.1,1.81Zm-99.72-21.23,1.94.91c.64.31,1.28.63,1.92,1l23.81-47.48c-.91-.46-1.83-.91-2.75-1.36s-1.85-.87-2.78-1.29-1.82-.82-2.74-1.22l-21.31,48.64Zm8.19-53.94c-.94-.34-1.88-.67-2.83-1l-17,50.26,2,.7ZM375.8,278.41l41-34-1.32-1.56-40.36,34.73C375.32,277.85,375.57,278.13,375.8,278.41ZM282.21,81.48c1.33-.25,2.66-.5,4-.73s2.75-.47,4.13-.68l-8.23-52.66c-1.69.26-3.36.54-5,.83s-3.26.58-4.88.89-3.39.65-5.07,1L278.06,82.3C279.43,82,280.82,81.75,282.21,81.48ZM211.69,316l53.15,1.14c0-.37,0-.74,0-1.11l-53.11-2.08C211.73,314.61,211.71,315.29,211.69,316Zm55.57-14.85-51.12-14.7c-.18.64-.36,1.29-.53,1.93L267,302.16C267.06,301.82,267.16,301.47,267.26,301.13Zm1.32-4.11-50-18.17q-.35,1-.68,1.92l50.31,17.3C268.35,297.72,268.46,297.36,268.58,297Zm.79-2L220,275.11q-.38.95-.75,1.9L269,296Zm2.74-5.87-47-24.88c-.31.6-.63,1.2-.93,1.8l47.47,24.06C271.77,289.78,271.94,289.45,272.11,289.13Zm165.7-6.44c-.21-.64-.42-1.28-.64-1.92s-.44-1.28-.67-1.92l-50,18.17c.13.35.24.7.36,1s.24.69.35,1Zm-58.76,0,43.72-30.36c-.37-.53-.74-1.07-1.12-1.59l-43.2,31.1Zm-99.76-4.29-41-34c-.43.52-.85,1-1.27,1.56l41.55,33.28Zm123.48-48.2-34.56,40.54.81.7,35.23-39.95Zm-19.29,59.9L431,266c-.3-.6-.62-1.2-.93-1.79l-47,24.87ZM443.38,322l-53.14-1.61c0,.35,0,.69,0,1l53.09,2.49Q443.35,322.93,443.38,322Zm5.18,205.3c-1.22.71-2.45,1.39-3.67,2.08s-2.39,1.32-3.6,2l25.11,47q2.21-1.18,4.4-2.4c1.5-.84,3-1.68,4.49-2.54s2.9-1.7,4.34-2.56l-27.5-45.62Q450.35,526.23,448.56,527.26Zm-18.49,9.67,22.63,48.24q2.33-1.1,4.64-2.23l-23.47-47.83Q432,536,430.07,536.93Zm64.79-44.57c-1,1-2,1.91-3,2.86s-2,1.89-3.07,2.81-2.07,1.86-3.12,2.77L520.52,541c1.28-1.11,2.54-2.25,3.81-3.38s2.51-2.28,3.75-3.44,2.48-2.32,3.71-3.49,2.39-2.31,3.57-3.48l-37.57-37.75C496.81,490.47,495.84,491.42,494.86,492.36Zm-25.4,21.28,31.32,43.08q2-1.46,4-2.94l-32-42.54C471.64,512.05,470.56,512.85,469.46,513.64Zm31.3-27.16L539,523.56q1.77-1.83,3.51-3.68l-38.86-36.41Q502.21,485,500.76,486.48ZM422.57,540.3c-1.26.54-2.53,1.06-3.81,1.58l20.14,49.33c1.55-.63,3.1-1.27,4.64-1.93s3.07-1.32,4.59-2l-21.81-48.61Q424.46,539.5,422.57,540.3Zm89.28-66.06,40.67,34.38q1.68-2,3.33-4L514.58,471C513.68,472.06,512.77,473.15,511.85,474.24Zm-120.69,77c-1.32.36-2.65.72-4,1.06l13.17,51.64c1.63-.41,3.24-.85,4.86-1.29s3.27-.9,4.9-1.37L395.18,550.1C393.85,550.48,392.51,550.85,391.17,551.22ZM264.85,320.36c0-.37,0-.73,0-1.11l-53.15.68c0,.68,0,1.36,0,2ZM529.29,450.9q-1.17,1.78-2.36,3.54l44,30q1.46-2.14,2.88-4.31t2.77-4.28l-45-28.46Q530.44,449.16,529.29,450.9ZM561.13,379c-.34,1.34-.71,2.67-1.08,4l51.35,14.26c.45-1.62.9-3.25,1.32-4.88s.81-3.27,1.21-4.92L562.12,375C561.8,376.35,561.48,377.7,561.13,379Zm2.78-12c-.27,1.34-.57,2.67-.86,4l52,11.61c.36-1.62.72-3.25,1.06-4.88s.67-3.45,1-5.18l-52.39-9.79C564.46,364.17,564.2,365.59,563.91,367Zm1.51-8.25,52.54,8.9c.27-1.63.55-3.26.79-4.89l-52.69-8C565.87,356.08,565.65,357.42,565.42,358.75ZM568.27,334c-.09,1.42-.18,2.83-.3,4.25s-.23,2.67-.36,4-.3,2.83-.46,4.24l52.93,6.19c.2-1.73.4-3.45.57-5.19s.3-3.25.43-4.88.26-3.45.37-5.18Zm-48.61,130.5,42.4,32.23q1.59-2.09,3.15-4.22l-43-31.47Q521,462.79,519.66,464.51Zm38-73.46q-.63,2-1.3,4c-.42,1.26-.86,2.51-1.3,3.76s-.95,2.68-1.44,4l49.93,18.63q.9-2.43,1.76-4.88c.54-1.53,1.08-3.06,1.59-4.6s1.07-3.25,1.58-4.89,1-3.25,1.48-4.89L558.9,387C558.51,388.38,558.11,389.72,557.7,391ZM375,555c-1.36.27-2.73.54-4.11.78s-2.75.47-4.13.7l8.67,52.58c1.68-.27,3.36-.55,5-.85s3.35-.63,5-1,3.28-.67,4.91-1L379,554.18C377.71,554.47,376.37,554.75,375,555ZM547.34,418.16c-.57,1.26-1.17,2.52-1.76,3.77s-1.21,2.5-1.82,3.74-1.26,2.52-1.9,3.77l47.31,24.5q1.18-2.28,2.32-4.59t2.23-4.57c.73-1.53,1.45-3.06,2.15-4.61s1.36-3.06,2-4.6L549,414.39C548.45,415.65,547.9,416.91,547.34,418.16ZM399.18,548.91,415,599.8c1.58-.49,3.15-1,4.72-1.53l-16.67-50.61C401.76,548.08,400.48,548.51,399.18,548.91ZM328.11,381.18l.47,53.29,2,0-1.37-53.29ZM234.48,95.79q1.91-.8,3.83-1.56L218.6,44.71q-2.35.93-4.68,1.91c-1.55.65-3.08,1.31-4.62,2l21.38,48.81C231.95,96.86,233.21,96.32,234.48,95.79ZM197.67,115c1.19-.76,2.4-1.51,3.6-2.25L173.4,67.39c-1.47.91-2.94,1.81-4.4,2.74s-2.74,1.79-4.11,2.69l29.41,44.41C195.43,116.5,196.54,115.76,197.67,115Zm-55.83,49.3-41-34c-1.09,1.31-2.16,2.64-3.23,4l41.57,33.29C140.08,166.49,141,165.41,141.85,164.33ZM184,124.46,152.32,81.65c-1.32,1-2.64,2-3.94,3l32.4,42.27C181.84,126.08,182.91,125.26,184,124.46Zm77.9-38.22L247.39,35c-1.64.46-3.26,1-4.89,1.44l15.38,51C259.22,87,260.55,86.62,261.89,86.24ZM218.94,359l49.84-18.59c-.13-.34-.25-.69-.38-1s-.22-.65-.33-1l-50.45,16.88c.2.61.41,1.21.63,1.81S218.7,358.35,218.94,359Zm61.43.75-.69-.8L239,393.3l1.28,1.49ZM226.94,99.09,204.72,50.66c-1.56.71-3.12,1.43-4.67,2.18l23.06,48C224.38,100.26,225.66,99.67,226.94,99.09ZM295,429.85l1.92.54L311,379l-1-.29ZM322.52,24q-2.52,0-5,.13c-1.73.06-3.46.11-5.18.2l2.76,53.22c1.41-.07,2.83-.11,4.24-.16s2.74-.08,4.12-.1Zm0,410.37,2,.08,1.38-53.29-1.07,0ZM298,373.78l-25.12,47,1.75.93,24.32-47.44ZM134.21,174,91.54,142.13c-1.05,1.41-2.08,2.83-3.11,4.26l43.23,31.12C132.5,176.33,133.35,175.16,134.21,174Zm-33.46,62L50.66,217.77q-.88,2.44-1.72,4.89L99.34,240C99.8,238.65,100.26,237.31,100.75,236ZM138.4,544.29q1.92,1.61,3.87,3.18l33.5-41.4q-1.6-1.29-3.17-2.61ZM295.18,372.18l-27.5,45.64,1.7,1,26.73-46.11Z"/><text class="cls-4" transform="translate(26.2 514.31)">D<tspan class="cls-5" x="72.74" y="0">AI</tspan><tspan class="cls-6" x="172.49" y="0">L</tspan><tspan class="cls-7" x="215.49" y="0">Y </tspan><tspan class="cls-7"><tspan x="0" y="127.57">R</tspan><tspan class="cls-8" x="71.37" y="127.57">H</tspan><tspan class="cls-9" x="149.92" y="127.57">Y</tspan><tspan class="cls-5" x="218.63" y="127.57">THM</tspan></tspan></text><path class="cls-10" d="M325.69,341.52a6.07,6.07,0,0,0-.47-.7"/><path class="cls-11" d="M332.08,343a6.89,6.89,0,0,1-.94,2.48,12,12,0,0,1-1.59,2,14.87,14.87,0,0,1-1.81,1.64,7.76,7.76,0,0,1-2.18,1.13h0l-.34.11a.4.4,0,0,1-.46-.17l-3.33-5.29a10.68,10.68,0,0,1-1.5-2.91,3.22,3.22,0,0,1,.06-1.82,2.36,2.36,0,0,1,1.27-1.45.5.5,0,0,1,.4.92h0a1.8,1.8,0,0,0-.75,2.11,10,10,0,0,0,1.37,2.61l3.33,5.29-.8-.06h0a5.41,5.41,0,0,1,1.23-2.3,17.31,17.31,0,0,1,1.75-1.65c.59-.51,1.18-1,1.72-1.5s1.09-1,1.66-1.6h0a.52.52,0,0,1,.89.44Z"/><path class="cls-10" d="M336.69,342.8c1.38,2.55,1.57,4.65,4.17,5.92"/><path class="cls-10" d="M335,345.77a1.65,1.65,0,0,1-1.52.17,1.34,1.34,0,0,1-.82-1.25,1.18,1.18,0,1,1,2.19.69l.11.34"/><path class="cls-11" d="M334.16,344.44c1.81,5.42,3.72,10.92,5.51,16.49l1.33,4.16.65,2.08a4.86,4.86,0,0,1,.32,2.32,3.52,3.52,0,0,1-1.29,2.06,9.14,9.14,0,0,1-1.91,1.18c-1.25.6-2.54,1.27-2.89,2.4a.5.5,0,0,1-.63.32.51.51,0,0,1-.31-.28,8.43,8.43,0,0,0-3.64-4.05h0l0,0a.44.44,0,0,1-.2-.48c.45-1.92.77-3.88,1-5.83s.5-3.92.7-5.89.37-3.94.51-5.91.3-3.95.4-5.94h0l.36.55a1.14,1.14,0,0,1-.79-.68,1.53,1.53,0,0,1,0-.9,6.15,6.15,0,0,1,.21-.64l.11-.29,0-.07a1.33,1.33,0,0,1,.06-.14A.81.81,0,0,1,334.16,344.44Zm0,1a.33.33,0,0,0,.39-.11c0-.07,0,0,0,0l0,.08-.11.29a5.31,5.31,0,0,0-.18.53.64.64,0,0,0,0,.31s0,0,.13.07l.06,0a.45.45,0,0,1,.3.53h0c-.46,1.92-.78,3.87-1.06,5.83s-.5,3.92-.69,5.89-.36,3.94-.5,5.91-.3,3.95-.42,5.93l-.25-.51h0a9.43,9.43,0,0,1,4.07,4.54l-.94,0a3.86,3.86,0,0,1,1.48-1.9,12.5,12.5,0,0,1,1.93-1.09c1.21-.58,2.46-1.38,2.66-2.51a4,4,0,0,0-.29-1.85l-.62-2-1.22-4C337.24,356.22,335.75,350.88,334.16,345.44Z"/><path class="cls-11" d="M323,341.07q-2.86.78-5.74,1.43c-.93.24-2,.4-2.73.66a2.38,2.38,0,0,0-.84.49,3.39,3.39,0,0,0-.62.85,25.22,25.22,0,0,0-1.07,2.51,20.64,20.64,0,0,1-1,2.64c-.23.42-.51.84-.72,1.28a12.55,12.55,0,0,0-.51,1.36,17.82,17.82,0,0,0-.7,2.82.5.5,0,0,1-1-.11c.06-1,.13-2,.21-3l.14-1.52c0-.51,0-1,.06-1.57a10.22,10.22,0,0,1,.94-2.92,20.59,20.59,0,0,1,1.42-2.83,5.81,5.81,0,0,1,1.25-1.41,4.55,4.55,0,0,1,1.77-.84,26,26,0,0,1,3.07-.39q2.94-.28,5.9-.43a.5.5,0,0,1,.16,1Z"/><path class="cls-11" d="M345.9,339.17c1.06,0,2.13-.27,3.31-.38a7.52,7.52,0,0,1,3.61.53,15.76,15.76,0,0,1,5.83,4,9.66,9.66,0,0,1,1.16,1.49,8.4,8.4,0,0,1,.84,1.75,21.14,21.14,0,0,1,.84,3.62,22.7,22.7,0,0,1,.3,3.45c0,.55,0,1.1-.07,1.64s-.24,1.06-1.24,1.66h0a1,1,0,0,1-1,0c-1.05-.51-1.3-1.12-1.34-1.7a15,15,0,0,1,0-1.72c0-1.13.21-2.21.31-3.26a8.56,8.56,0,0,0-.18-3,6.62,6.62,0,0,0-1.28-2.56,13.87,13.87,0,0,0-4.78-4,5.81,5.81,0,0,0-2.92-.71c-1.05,0-2.21.18-3.39.11a.5.5,0,0,1,0-1Z"/><path class="cls-10" d="M352.17,329.29c.88,3.9-1.4,8-4.71,10.25s-7.45,2.89-11.45,3a45.65,45.65,0,0,1-11.17-1.19c-3.32-.78-5.12-1.75-6.63-5-2.78-5.91-.58-20.29,4.49-24.27a10.61,10.61,0,0,1,3.95-1.64c4.26-1.13,8.77-2.26,13-1.06,3.28.92,6,3.14,8.61,5.37,4.77,4.1,7.83,10.17,6.41,16.62"/><path class="cls-10" d="M323.22,323.62a7.74,7.74,0,0,0-.31,4c.91,3.22,6,2.3,7.32-.12,2.8-5.13-5.83-11.32-8.14-5.67-.82,2-1.14,4,.24,5.62-1.21,0-2.62-2.51-3-3.65a13.37,13.37,0,0,0-.76-2.22,1.76,1.76,0,0,0-1.94-1"/><path class="cls-11" d="M346,327a19,19,0,0,1-5.21-.16,8.35,8.35,0,0,1-2.64-1,7.77,7.77,0,0,1-2.12-2,5.45,5.45,0,0,1-1.1-2.93,3.4,3.4,0,0,1,.43-1.82,3.7,3.7,0,0,1,.56-.77,4.87,4.87,0,0,1,.68-.55,5.33,5.33,0,0,1,3.12-.84,8.4,8.4,0,0,1,2.89.58,9.07,9.07,0,0,1,2.55,1.48,5.12,5.12,0,0,1,1.11,1.28,3.84,3.84,0,0,1,.52,1.82,5.67,5.67,0,0,1-3,5,6.49,6.49,0,0,1-2.68.81,4.08,4.08,0,0,1-2.59-.84,6.72,6.72,0,0,1-2.38-4.66.5.5,0,1,1,1-.12.57.57,0,0,1,0,.11,4.61,4.61,0,0,0,1.77,4.14,3,3,0,0,0,2.14.55,3.17,3.17,0,0,0,1.91-1.07,6.15,6.15,0,0,0,1.16-3.81,1.15,1.15,0,0,0-.15-.58,2.53,2.53,0,0,0-.54-.61,6.49,6.49,0,0,0-1.78-1c-1.3-.53-2.84-.69-3.7-.12a2.53,2.53,0,0,0-.31.23c-.05.09-.17.14-.2.23a1,1,0,0,0-.18.59,3.26,3.26,0,0,0,.58,1.74,5.75,5.75,0,0,0,1.41,1.57,7.54,7.54,0,0,0,2,1,23.71,23.71,0,0,0,4.8.8.5.5,0,0,1,0,1Z"/><path class="cls-10" d="M331.28,329.72a2.83,2.83,0,1,0,1.8-4.26c-1.07.68-3.07,4.19-1.8,4.26"/><path class="cls-11" d="M326.65,331.94a4.61,4.61,0,0,1,2.64-1.8h0a.49.49,0,0,1,.57.65l-1.64,4.09h0a.25.25,0,0,1-.48-.11,6.15,6.15,0,0,1,1.94-4.1h0a.49.49,0,0,1,.82.4v0a8.15,8.15,0,0,0,.38,3.44l-1,0,.73-2.64a.5.5,0,0,1,1,0,7.63,7.63,0,0,0,.89,1.8l-.87.08a5.44,5.44,0,0,0,.39-1.42h0a.5.5,0,0,1,1-.08.59.59,0,0,0,.35.36l-.65.35.24-1v0a.47.47,0,0,1,.82-.18,2.36,2.36,0,0,1,.47,1c.08.31.13.6.19.89s.11.57.18.84a2.17,2.17,0,0,0,.21.58l-.83.22c.06-.23.11-.53.15-.8l.12-.84c0-.28.06-.56.07-.83a3.48,3.48,0,0,0,0-.62.49.49,0,0,1,.77-.61l0,0,.84.8-.83.23a4.44,4.44,0,0,0,.15-1.31v0a.49.49,0,0,1,.83-.38,10.67,10.67,0,0,1,1.36,1.71,4.72,4.72,0,0,0,1.24,1.33l-.72.53-.23-1.73c0-.28-.08-.56-.14-.83a4.23,4.23,0,0,0-.19-.73h0a.5.5,0,0,1,.91-.41,1.59,1.59,0,0,0,1.13.85l-.54.7-1.18-2.65a.5.5,0,0,1,.75-.61l3.33,2.4a.5.5,0,0,1-.59.81l-3.33-2.4.75-.61,1.18,2.65a.5.5,0,0,1-.54.7,2.58,2.58,0,0,1-1.86-1.4l.91-.42a4.9,4.9,0,0,1,.26.94c.06.3.1.59.14.88l.23,1.71v0a.49.49,0,0,1-.72.5,3.38,3.38,0,0,1-.93-.79c-.25-.28-.46-.57-.66-.86a10.4,10.4,0,0,0-1.2-1.53l.83-.4a5.44,5.44,0,0,1-.18,1.61.5.5,0,0,1-.83.23l-.84-.8.79-.58a1.69,1.69,0,0,1,.12.62c0,.17,0,.32,0,.48,0,.31,0,.6-.08.9l-.12.88c0,.3-.09.57-.17.91v0a.47.47,0,0,1-.83.19,2.36,2.36,0,0,1-.47-1c-.08-.31-.13-.6-.19-.89s-.11-.57-.18-.84a2.17,2.17,0,0,0-.21-.58l.84-.23-.24,1a.5.5,0,0,1-.6.36h0a1.59,1.59,0,0,1-1-1l1-.09a6.44,6.44,0,0,1-.46,1.68.5.5,0,0,1-.87.08,8.63,8.63,0,0,1-1-2l1,0-.73,2.64a.5.5,0,0,1-1,0,9.14,9.14,0,0,1-.43-3.86l.82.44h0a5.4,5.4,0,0,0-2.09,3.39l-.48-.11h0l1.16-4.25.59.64h0a3.62,3.62,0,0,0-2.06,1.4.5.5,0,0,1-.82-.58Z"/><path class="cls-10" d="M330,321.78a3,3,0,0,1,4.23-2.27,5.93,5.93,0,0,1,1.91,1.79"/><path class="cls-10" d="M342.34,322.08c2-2.29,5.76-3.27,8.24-5"/><path class="cls-10" d="M335.89,315.7l.57.1.05,1.69a1.83,1.83,0,0,1,1.8-.58c.66.11,1.27.4,1.92.54a4.15,4.15,0,0,0,3-.55"/><path class="cls-10" d="M321.45,319.52a9.35,9.35,0,0,1,1.71-1.79,3.15,3.15,0,0,1,2.32-.66,1.92,1.92,0,0,1,1.63,1.63"/><path class="cls-10" d="M342.23,349.28l9.81-9.21"/><path class="cls-11" d="M350.52,314a11.37,11.37,0,0,1,8.1-3.16,7.71,7.71,0,0,1,4.3,1.38,11.56,11.56,0,0,1,3,3.27,10.37,10.37,0,0,1,1.6,4.32,7.91,7.91,0,0,1-1.08,4.91,8.7,8.7,0,0,1-3.63,3.39,5.26,5.26,0,0,1-4.93-.07.62.62,0,0,1-.12-1l0,0a20.26,20.26,0,0,1,3-2.55,21.1,21.1,0,0,0,2.71-2,5.81,5.81,0,0,0,1.94-2.78A5,5,0,0,0,365,316a6.06,6.06,0,0,0-2.79-2.67,10.19,10.19,0,0,0-3.69-.89,12.16,12.16,0,0,0-7.39,2.32h0a.5.5,0,0,1-.63-.77Z"/><path class="cls-11" d="M317.88,316a15.81,15.81,0,0,0-7.64,1.79,6.62,6.62,0,0,0-2.61,2.64,8.81,8.81,0,0,0-.93,3.49,9.22,9.22,0,0,0,1.85,6.57,7.62,7.62,0,0,0,2.95,2.31,5.77,5.77,0,0,0,3.78.42.5.5,0,1,1,.26,1l-.11,0a14.66,14.66,0,0,1-4.27-.4,10.94,10.94,0,0,1-3.95-1.94,8.3,8.3,0,0,1-2.73-3.72,8.43,8.43,0,0,1-.27-4.63,10.53,10.53,0,0,1,5.46-6.79,21.72,21.72,0,0,1,8.17-1.73.5.5,0,0,1,.08,1Z"/><path class="cls-10" d="M318.3,336.92a3,3,0,0,1-3.07-2,8.8,8.8,0,0,1-.32-3.93l.82-11.59a6.37,6.37,0,0,1,.78-3.15,2.19,2.19,0,0,1,2.84-.85"/><path class="cls-10" d="M347.51,313.42a10.22,10.22,0,0,1,6.41,4.47,22.19,22.19,0,0,1,3,7.4,7.63,7.63,0,0,1,.24,3.67,2.87,2.87,0,0,1-2.58,2.28"/><path class="cls-10" d="M318,316.3a36.65,36.65,0,0,1,.1-8.79,12.33,12.33,0,0,1,4.08-7.6,12.7,12.7,0,0,1,7.22-2.47,20.21,20.21,0,0,1,21.19,17"/><path class="cls-11" d="M350.22,313.65a18.53,18.53,0,0,0-1.08-7.36,19.88,19.88,0,0,0-3.68-6.54,15.14,15.14,0,0,0-6.19-4.17,22.46,22.46,0,0,0-7.4-1.43,23.76,23.76,0,0,0-3.78.2,14.82,14.82,0,0,0-1.84.33,7.21,7.21,0,0,0-1.67.78,28.83,28.83,0,0,0-5.54,5.1,11.9,11.9,0,0,0-2.4,6.91,31.84,31.84,0,0,0,.74,7.5.5.5,0,1,1-1,.19h0a32.66,32.66,0,0,1-.56-7.72,12.93,12.93,0,0,1,2.69-7.27c.88-1,1.77-1.86,2.71-2.76A18,18,0,0,1,324.3,295a8.16,8.16,0,0,1,1.8-.82,15,15,0,0,1,1.92-.34,24.26,24.26,0,0,1,3.86-.18,23,23,0,0,1,7.55,1.5,16.35,16.35,0,0,1,6.39,4.28,22.32,22.32,0,0,1,3.92,6.65,20.94,20.94,0,0,1,1.48,7.63.5.5,0,1,1-1,0v0Z"/><path class="cls-10" d="M321.43,313.74,315,310.15l.58.71-3.84-.42a2.12,2.12,0,0,0,1.39,2.42l-4,.16,6.35,1.15c.49.09,1.12.55.78.91"/><path class="cls-11" d="M350.07,313.31l8.92-5.24a.5.5,0,0,1,.52.85l-2.78,1.77a.5.5,0,0,1-.77-.41l-.13-4.52,1,.13h0a4.14,4.14,0,0,1-3.9,2.48,3.83,3.83,0,0,1-2.2-.93,4,4,0,0,1-1.3-2.09h0l.93.17-3.14,5.61a.5.5,0,0,1-.92-.12l-.83-3.15h1a2.21,2.21,0,0,0,0,1.23,4.65,4.65,0,0,0,.68,1.2,5.55,5.55,0,0,1,.82,1.47,3.23,3.23,0,0,1,0,1.79.5.5,0,0,1-1-.24h0a2.21,2.21,0,0,0,0-1.23,4.64,4.64,0,0,0-.68-1.2,5.55,5.55,0,0,1-.82-1.47,3.22,3.22,0,0,1,0-1.79.5.5,0,0,1,1,0l.83,3.15-.92-.12,3.14-5.61v0a.49.49,0,0,1,.92.19h0a2.84,2.84,0,0,0,2.55,2.58,2.75,2.75,0,0,0,1.89-.56,2.54,2.54,0,0,0,1-1.62h0v0a.5.5,0,0,1,1,.16l.13,4.52-.77-.41,2.78-1.77.52.85-8.92,5.24a.5.5,0,0,1-.51-.86Z"/></svg>