<?xml version="1.0" encoding="utf-8"?>
<!-- Generator: Adobe Illustrator 21.0.0, SVG Export Plug-In . SVG Version: 6.00 Build 0)  -->
<svg version="1.1" xmlns="http://www.w3.org/2000/svg" xmlns:xlink="http://www.w3.org/1999/xlink" x="0px" y="0px"
	 viewBox="0 0 717.243 138.486" style="enable-background:new 0 0 717.243 138.486;" xml:space="preserve">
<g id="Layer_1">
</g>
<g id="Layer_2">
	<polyline style="fill:none;stroke:#FFF8CD;stroke-miterlimit:10;" points="0,7.764 57.791,7.764 71.138,27.764 84.378,7.764 
		717.243,7.764 	"/>
	<g>
		<path style="fill:none;stroke:#FFF8CD;stroke-linecap:round;stroke-linejoin:round;stroke-miterlimit:10;" d="M53.624,63.513
			c1.775-1.396,4.024-2.006,6.207-2.584c6.701-1.773,13.793-3.548,20.465-1.669c5.164,1.454,9.476,4.946,13.543,8.444
			c3.816,3.281,7.745,6.936,9.015,11.806c1.673,6.411-1.767,13.082-6.107,18.089c-3.674,4.238-8.075,7.845-12.953,10.615
			c-11.479,6.519-30.532,7.727-37.232-6.516C42.188,92.402,45.653,69.783,53.624,63.513z"/>
		<path style="fill:none;stroke:#FFF8CD;stroke-linecap:round;stroke-linejoin:round;stroke-miterlimit:10;" d="M47.653,83.86
			c-1.977-2.108-2.535-5.429-1.355-8.067c3.091,0.037,6.182,0.074,9.274,0.111c3.191,3.464,6.627,7.932,5.155,12.406
			c-1.718,5.22-10.198,5.747-13.164,1.12c-2.965-4.627,0.018-11.543,5.204-13.364"/>
		<path style="fill:none;stroke:#FFF8CD;stroke-linecap:round;stroke-linejoin:round;stroke-miterlimit:10;" d="M84.794,82.254
			c-3.685,0.624-7.543,1.237-11.097,0.078c-3.381-1.103-7.538-5.392-5.273-8.668c2.394-3.462,8.455-2.827,11.726-0.982
			c0.809,0.456,1.582,1.033,2.06,1.83c0.475,0.793,0.621,1.742,0.634,2.666c0.03,2.229-0.709,4.507-2.244,6.122
			c-4.551,4.787-10.429,0.865-11.476-4.656"/>
		<path style="fill:none;stroke:#FFF8CD;stroke-linecap:round;stroke-linejoin:round;stroke-miterlimit:10;" d="M64.221,79.881
			c-0.698,3.813-1.396,7.626-2.094,11.439c2.184,2.393,6.931,1.125,7.631-2.038s-3.069-6.316-6.059-5.068
			c-1.465,1.36-0.073,4.357,1.911,4.114"/>
		<path style="fill:none;stroke:#FFF8CD;stroke-linecap:round;stroke-linejoin:round;stroke-miterlimit:10;" d="M57.164,96.561
			c0.642-1.382,1.794-2.519,3.183-3.144c-0.324,2.284-0.647,4.567-0.971,6.851c-0.159-2.282,0.593-4.616,2.055-6.376
			c0.152,1.935,0.727,3.835,1.671,5.53c0.126-1.432,0.253-2.863,0.379-4.295c0.55,0.982,1.23,1.891,2.017,2.696
			c0.185-0.823,0.257-1.671,0.215-2.513c0.248,0.449,0.711,0.773,1.218,0.852c0.035-0.516,0.071-1.032,0.106-1.548
			c0.903,0.616,1.806,1.232,2.708,1.848c0.07-0.836-0.171-1.694-0.667-2.371c0.511,0.33,1.022,0.66,1.534,0.99
			c0.063-0.771,0.01-1.552-0.158-2.308c1.498,0.875,3.1,1.571,4.762,2.068c-0.396-1.107-0.935-2.164-1.597-3.136
			c0.605,0.822,1.618,1.327,2.639,1.315c-0.86-1.255-1.72-2.51-2.58-3.765c1.944,0.923,3.888,1.847,5.832,2.77"/>
		<path style="fill:none;stroke:#FFF8CD;stroke-linecap:round;stroke-linejoin:round;stroke-miterlimit:10;" d="M58.778,79.556
			c-0.077-1.466,0.59-2.951,1.736-3.868s2.742-1.241,4.155-0.843c1.332,0.375,2.42,1.316,3.459,2.23"/>
		<path style="fill:none;stroke:#FFF8CD;stroke-linecap:round;stroke-linejoin:round;stroke-miterlimit:10;" d="M77.915,76.501
			c2.46-4.116,5.393-7.948,8.725-11.396c0.331-0.343,0.676-0.689,1.107-0.894c0.387-0.184,0.82-0.242,1.245-0.298
			c1.312-0.173,2.66-0.344,3.945-0.027c1.285,0.317,2.509,1.237,2.786,2.531"/>
		<path style="fill:none;stroke:#FFF8CD;stroke-linecap:round;stroke-linejoin:round;stroke-miterlimit:10;" d="M88.771,71.563
			c4.057,1.57,8.115,3.14,12.172,4.71c-4.151-2.372-8.301-4.744-12.452-7.116c3.18,0.217,6.345,0.653,9.465,1.304
			c-2.744-0.557-5.377-1.654-7.706-3.208c2.665,0.15,5.33,0.301,7.995,0.451c-3.668-0.648-7.279-1.62-10.776-2.901
			c2.691,0.559,5.57,0.157,8.005-1.116c-4.007-1.064-8.191-1.458-12.326-1.161c2.57,0.072,5.158-0.692,7.277-2.149
			c-2.644-0.059-5.292,0.058-7.921,0.349c1.55-0.295,3.044-0.882,4.38-1.721c-3.267,0.317-6.484,1.149-9.494,2.457
			c2.334-0.095,4.568-1.525,5.632-3.605c-4.103,0.673-8.173,1.546-12.192,2.615c3.359-0.049,6.716-0.237,10.059-0.563
			c-1.51,1.048-3.02,2.096-4.531,3.145c4.325-0.312,8.65-0.623,12.975-0.935c-3.763-0.97-7.943-0.165-11.077,2.133
			c11.395,0.695,22.839,1.397,34.006,3.768c-8.074,0.287-16.161,0.188-24.226-0.295c4.952,0.965,9.706,2.929,13.895,5.742
			c-4.011-0.967-7.937-2.287-11.717-3.94c7.068,2.661,13.42,7.199,18.23,13.023"/>
		<path style="fill:none;stroke:#FFF8CD;stroke-linecap:round;stroke-linejoin:round;stroke-miterlimit:10;" d="M48.257,68.177
			c-5.899,6.34-11.814,12.665-17.747,18.975c3.62-5.702,8.357-10.693,13.863-14.604c-0.749,4.12-1.806,8.185-3.159,12.148
			c0.387-1.631,1.302-3.131,2.575-4.221c-2.241,2.399-4.481,4.798-6.722,7.197c0.381-1.533,1.896-2.704,3.476-2.687
			c-0.39,2.852-1.887,5.538-4.107,7.37c1.455-0.384,2.909-0.769,4.364-1.153c0.121,2.7-0.386,5.427-1.47,7.903
			c0.412-1.089,1.468-1.905,2.626-2.031c-0.311,1.542-0.058,3.192,0.701,4.57"/>
		<path style="fill:none;stroke:#FFF8CD;stroke-linecap:round;stroke-linejoin:round;stroke-miterlimit:10;" d="M66.123,68.472
			c0.305-0.001,0.61-0.003,0.915-0.004c0.187,0.864,0.374,1.729,0.562,2.593c0.434-0.952,1.576-1.38,2.622-1.404
			c1.046-0.024,2.077,0.257,3.122,0.285c1.665,0.044,3.338-0.586,4.559-1.718"/>
		<path style="fill:none;stroke:#FFF8CD;stroke-linecap:round;stroke-linejoin:round;stroke-miterlimit:10;" d="M45.761,77.466
			c0.015-6.802,0.002-13.603-0.041-20.405c-7.888-0.303-15.792-0.205-23.671,0.292c1.652,1.948,2.168,4.589,2.597,7.108
			c1.912,11.237,3.233,22.574,3.956,33.95c0.116,1.82,0.237,3.715,1.142,5.298c0.826,1.446,2.213,2.468,3.56,3.446
			c4.508,3.274,9.384,6.681,14.953,6.864"/>
		<path style="fill:none;stroke:#FFF8CD;stroke-linecap:round;stroke-linejoin:round;stroke-miterlimit:10;" d="M36.057,55.832
			c1.937-2.124,4.44-3.727,7.179-4.598c0.46-0.146,0.96-0.295,1.248-0.683c0.325-0.439,0.274-1.041,0.208-1.584
			c-0.321-2.645-0.642-5.289-0.963-7.934c-0.039-0.32-0.086-0.66-0.297-0.904c-0.278-0.323-0.75-0.377-1.174-0.41
			c-1.058-0.081-2.116-0.162-3.174-0.243c-1.793-0.137-3.751-0.232-5.216,0.81c-1.465,1.042-1.789,3.695-0.163,4.462
			c1.376,0.523,3.023,0.255,4.163-0.677"/>
		<path style="fill:none;stroke:#FFF8CD;stroke-linecap:round;stroke-linejoin:round;stroke-miterlimit:10;" d="M32.936,39.699
			c0.143-1.154-0.754-2.234-1.824-2.691c-1.07-0.456-2.275-0.432-3.438-0.401c-1.386,0.038-4.266-0.467-5.527,0.15
			c-0.529,0.259-0.9,0.756-1.201,1.263c-1.136,1.919-1.649,4.696-1.304,6.916c0.184,1.18,1.977,7.162,2.97,7.648
			c0.922,0.449,2.079-0.055,2.701-0.87c0.622-0.815,0.836-1.86,1.034-2.866c-0.226,1.392,0.982,2.838,2.392,2.863
			s2.668-1.379,2.491-2.778c-0.252,1.955,2.748,3.15,4.154,1.768c1.405-1.383,0.769-4.046-0.947-5.017"/>
		<path style="fill:none;stroke:#FFF8CD;stroke-linecap:round;stroke-linejoin:round;stroke-miterlimit:10;" d="M38.322,38.593
			c-0.972-4.166-2.097-8.297-3.37-12.382c-0.189-0.606-0.403-1.245-0.888-1.654c-1.171-0.989-3.099,0.113-3.544,1.58
			c-0.445,1.467,0.049,3.029,0.369,4.528c0.517,2.424,0.576,4.92,0.632,7.398"/>
		<path style="fill:none;stroke:#FFF8CD;stroke-linecap:round;stroke-linejoin:round;stroke-miterlimit:10;" d="M102.917,96.742
			c2.498-0.508,5.04,1.129,6.372,3.302"/>
		<path style="fill:none;stroke:#FFF8CD;stroke-linecap:round;stroke-linejoin:round;stroke-miterlimit:10;" d="M47.737,112.289
			c0,4.054,0,8.107,0,12.161"/>
		<path style="fill:none;stroke:#FFF8CD;stroke-linecap:round;stroke-linejoin:round;stroke-miterlimit:10;" d="M103.097,97.271
			c-6.711,7.925-12.83,16.352-18.288,25.187c-2.586-2.783-5.668-5.104-9.059-6.818c-2.488,3.417-3.863,7.631-3.868,11.858"/>
		<path style="fill:none;stroke:#FFF8CD;stroke-linecap:round;stroke-linejoin:round;stroke-miterlimit:10;" d="M75.436,114.928
			c2.19-2.701,4.38-5.402,6.57-8.103c2.053-2.533,4.116-5.074,6.501-7.297c3.976-3.705,8.826-6.467,14.041-7.996"/>
		<path style="fill:none;stroke:#FFF8CD;stroke-linecap:round;stroke-linejoin:round;stroke-miterlimit:10;" d="M104.471,97.758
			c-0.393-1.182-0.055-2.467-0.041-3.712c0.014-1.246-0.532-2.718-1.755-2.954"/>
		<path style="fill:none;stroke:#FFF8CD;stroke-linecap:round;stroke-linejoin:round;stroke-miterlimit:10;" d="M65.181,127.478
			c0.007-2.072,0.013-4.143,0.02-6.215c0.001-0.345,0.001-0.7-0.121-1.023c-0.177-0.473-0.585-0.813-0.906-1.203
			c-0.737-0.896-1.026-2.143-0.758-3.272c-2.45,2.124-4.759,4.411-6.907,6.841c-0.1-0.563-0.058-1.149-0.22-1.697
			c-0.205-0.694-0.711-1.251-1.192-1.791c-4.338-4.877-7.806-10.524-10.194-16.599"/>
		<path style="fill:none;stroke:#FFF8CD;stroke-linecap:round;stroke-linejoin:round;stroke-miterlimit:10;" d="M117.448,127.051
			c-0.619-2.854-0.464-5.809-0.571-8.727c-0.172-4.707-1.036-9.389-2.557-13.847c-0.276-0.81-0.582-1.628-1.113-2.299
			c-1.687-2.133-4.962-2.062-7.56-1.257c-2.279,0.707-4.465,1.853-6.105,3.586c-1.64,1.733-2.69,4.097-2.542,6.479
			c0.412,6.655,0.048,12.692,0.147,19.359"/>
	</g>
</g>
</svg>
