<svg id="Layer_1" data-name="Layer 1" xmlns="http://www.w3.org/2000/svg" viewBox="0 0 476.56 126.5"><defs><style>.cls-1{fill:#57caef;}.cls-2{fill:#ee3766;}.cls-3{fill:#ffce06;}.cls-4{fill:#74c044;}.cls-5{fill:#666;}</style></defs><title>yg-beatles-170806-authorship-for_site</title><rect class="cls-1" x="179.85" y="44.23" width="7.39" height="38.14"/><rect class="cls-1" x="172.04" y="44.23" width="7.39" height="3.81"/><rect class="cls-2" x="172.04" y="48.04" width="7.39" height="34.32"/><rect class="cls-1" x="164.22" y="44.23" width="7.39" height="38.14"/><rect class="cls-1" x="156.4" y="44.23" width="7.39" height="28.6"/><rect class="cls-3" x="156.4" y="72.83" width="7.39" height="9.53"/><rect class="cls-1" x="148.58" y="44.23" width="7.38" height="38.14"/><rect class="cls-1" x="140.76" y="44.23" width="7.38" height="7.63"/><rect class="cls-3" x="140.76" y="51.86" width="7.38" height="30.51"/><rect class="cls-2" x="132.94" y="44.23" width="7.38" height="38.14"/><rect class="cls-3" x="125.12" y="44.23" width="7.38" height="38.14"/><rect class="cls-1" x="117.3" y="44.23" width="7.39" height="38.14"/><rect class="cls-1" x="109.48" y="44.23" width="7.39" height="38.14"/><rect class="cls-3" x="101.66" y="44.23" width="7.39" height="38.14"/><rect class="cls-1" x="93.84" y="44.23" width="7.39" height="22.88"/><rect class="cls-3" x="93.84" y="67.11" width="7.39" height="15.25"/><rect class="cls-2" x="86.02" y="44.23" width="7.38" height="38.14"/><rect class="cls-1" x="78.2" y="44.23" width="7.38" height="22.88"/><rect class="cls-3" x="78.2" y="67.11" width="7.38" height="7.63"/><rect class="cls-4" x="78.2" y="74.74" width="7.38" height="7.63"/><rect class="cls-1" x="70.38" y="44.23" width="7.39" height="11.44"/><rect class="cls-3" x="70.38" y="55.67" width="7.39" height="26.7"/><rect class="cls-3" x="62.56" y="44.23" width="7.38" height="38.14"/><rect class="cls-1" x="54.74" y="44.23" width="7.39" height="38.14"/><rect class="cls-1" x="46.92" y="44.23" width="7.38" height="11.44"/><rect class="cls-3" x="46.92" y="55.67" width="7.38" height="26.7"/><rect class="cls-1" x="39.1" y="44.23" width="7.39" height="24.79"/><rect class="cls-3" x="39.1" y="69.02" width="7.39" height="13.35"/><rect class="cls-2" x="31.28" y="44.23" width="7.39" height="38.14"/><rect class="cls-1" x="23.47" y="44.23" width="7.38" height="30.51"/><rect class="cls-3" x="23.47" y="74.74" width="7.38" height="7.63"/><polyline class="cls-1" points="15.64 55.67 23.03 55.67 23.03 44.23 15.64 44.23"/><polyline class="cls-3" points="15.64 55.67 23.03 55.67 23.03 82.37 15.64 82.37"/><rect class="cls-1" x="7.83" y="44.23" width="7.39" height="30.51"/><rect class="cls-3" x="7.83" y="74.74" width="7.39" height="7.63"/><polyline class="cls-1" points="249.8 82.37 242.41 82.37 242.41 44.23 249.8 44.23"/><rect class="cls-1" x="234.59" y="44.23" width="7.38" height="38.14"/><rect class="cls-3" x="226.77" y="44.23" width="7.39" height="38.14"/><rect class="cls-3" x="218.95" y="44.23" width="7.39" height="38.14"/><rect class="cls-2" x="211.13" y="44.23" width="7.39" height="38.14"/><rect class="cls-1" x="203.31" y="44.23" width="7.39" height="7.63"/><rect class="cls-3" x="203.31" y="51.86" width="7.39" height="30.51"/><rect class="cls-3" x="195.49" y="44.23" width="7.38" height="38.14"/><rect class="cls-1" x="187.67" y="44.23" width="7.38" height="7.63"/><rect class="cls-3" x="187.67" y="51.86" width="7.38" height="30.51"/><rect class="cls-3" x="469.18" y="44.23" width="7.38" height="38.14"/><rect class="cls-2" x="461.36" y="44.23" width="7.39" height="38.14"/><rect class="cls-3" x="453.54" y="44.23" width="7.38" height="38.14"/><rect class="cls-3" x="445.72" y="44.23" width="7.39" height="38.14"/><rect class="cls-1" x="437.9" y="44.23" width="7.38" height="9.53"/><rect class="cls-3" x="437.9" y="53.76" width="7.38" height="9.53"/><rect class="cls-2" x="437.9" y="63.3" width="7.38" height="9.53"/><rect class="cls-4" x="437.9" y="72.83" width="7.38" height="9.53"/><rect class="cls-2" x="430.08" y="44.23" width="7.38" height="38.14"/><rect class="cls-1" x="422.26" y="44.23" width="7.38" height="38.14"/><rect class="cls-3" x="414.44" y="44.23" width="7.39" height="38.14"/><rect class="cls-1" x="406.62" y="44.23" width="7.39" height="38.14"/><rect class="cls-2" x="398.8" y="44.23" width="7.39" height="38.14"/><rect class="cls-1" x="390.98" y="44.23" width="7.38" height="38.14"/><rect class="cls-3" x="383.16" y="44.23" width="7.38" height="38.14"/><rect class="cls-1" x="375.34" y="44.23" width="7.38" height="19.07"/><rect class="cls-3" x="375.34" y="63.3" width="7.38" height="19.07"/><rect class="cls-1" x="367.52" y="44.23" width="7.38" height="3.81"/><rect class="cls-3" x="367.52" y="48.04" width="7.38" height="34.32"/><rect class="cls-3" x="359.7" y="44.23" width="7.39" height="38.14"/><rect class="cls-1" x="351.88" y="44.23" width="7.38" height="9.53"/><rect class="cls-3" x="351.88" y="53.76" width="7.38" height="28.6"/><rect class="cls-1" x="344.06" y="44.23" width="7.39" height="13.35"/><rect class="cls-3" x="344.06" y="57.58" width="7.39" height="24.79"/><rect class="cls-2" x="336.24" y="44.23" width="7.39" height="38.14"/><rect class="cls-1" x="328.43" y="44.23" width="7.38" height="13.35"/><rect class="cls-3" x="328.43" y="57.58" width="7.38" height="24.79"/><rect class="cls-1" x="320.61" y="44.23" width="7.38" height="30.51"/><rect class="cls-3" x="320.61" y="74.74" width="7.38" height="7.63"/><rect class="cls-3" x="312.79" y="44.23" width="7.39" height="38.14"/><rect class="cls-1" x="304.97" y="44.23" width="7.38" height="38.14"/><rect class="cls-2" x="297.15" y="44.23" width="7.39" height="38.14"/><rect class="cls-3" x="289.33" y="44.23" width="7.38" height="38.14"/><rect class="cls-1" x="281.51" y="44.23" width="7.39" height="38.14"/><rect class="cls-3" x="273.69" y="44.23" width="7.39" height="38.14"/><polygon class="cls-1" points="272.69 67.11 265.87 67.11 265.87 44.23 273.25 44.23 273.25 67.11 272.69 67.11"/><polygon class="cls-3" points="272.69 67.11 273.25 67.11 273.25 82.37 265.87 82.37 265.87 67.11 272.69 67.11"/><rect class="cls-1" x="258.05" y="44.23" width="7.39" height="7.63"/><rect class="cls-3" x="258.05" y="51.86" width="7.39" height="30.51"/><rect class="cls-1" x="250.23" y="44.23" width="7.39" height="5.72"/><rect class="cls-3" x="250.23" y="49.95" width="7.39" height="32.42"/><rect class="cls-1" y="44.23" width="7.38" height="38.14"/><rect class="cls-1" x="469.18" width="7.39" height="19.07"/><rect class="cls-3" x="469.18" y="19.07" width="7.39" height="19.07"/><rect class="cls-1" x="461.36" width="7.38" height="38.14"/><rect class="cls-3" x="453.54" width="7.39" height="38.14"/><rect class="cls-1" x="445.72" width="7.39" height="3.81"/><rect class="cls-3" x="445.72" y="3.81" width="7.39" height="34.32"/><rect class="cls-3" x="437.9" width="7.39" height="38.14"/><rect class="cls-1" x="430.08" width="7.39" height="34.32"/><rect class="cls-3" x="430.08" y="34.32" width="7.39" height="3.81"/><rect class="cls-1" x="422.26" width="7.39" height="38.14"/><rect class="cls-3" x="414.44" width="7.39" height="38.14"/><rect class="cls-1" x="406.62" width="7.39" height="38.14"/><rect class="cls-2" x="398.8" width="7.39" height="38.14"/><rect class="cls-3" x="390.98" width="7.39" height="38.14"/><rect class="cls-1" x="383.16" width="7.38" height="38.14"/><rect class="cls-2" x="375.34" width="7.39" height="38.14"/><rect class="cls-3" x="367.52" width="7.39" height="38.14"/><rect class="cls-1" x="359.7" width="7.39" height="38.14"/><rect class="cls-3" x="351.88" width="7.39" height="38.14"/><rect class="cls-1" x="344.06" width="7.39" height="38.14"/><rect class="cls-1" x="336.24" width="7.38" height="3.81"/><rect class="cls-3" x="336.24" y="3.81" width="7.38" height="34.32"/><rect class="cls-1" x="328.42" width="7.39" height="11.44"/><rect class="cls-3" x="328.42" y="11.44" width="7.39" height="26.7"/><rect class="cls-1" x="320.6" width="7.39" height="38.14"/><rect class="cls-1" x="312.79" width="7.38" height="3.81"/><rect class="cls-3" x="312.79" y="3.81" width="7.38" height="34.32"/><rect class="cls-1" x="304.97" width="7.39" height="38.14"/><rect class="cls-1" x="297.15" width="7.39" height="3.81"/><rect class="cls-3" x="297.15" y="3.81" width="7.39" height="34.32"/><rect class="cls-1" x="289.33" width="7.38" height="38.14"/><rect class="cls-1" x="281.51" width="7.38" height="19.07"/><rect class="cls-3" x="281.51" y="19.07" width="7.38" height="19.07"/><rect class="cls-1" x="273.69" width="7.39" height="38.14"/><rect class="cls-3" x="265.87" width="7.38" height="38.14"/><rect class="cls-1" x="258.05" width="7.39" height="38.14"/><rect class="cls-1" x="250.23" width="7.38" height="38.14"/><rect class="cls-1" x="242.41" width="7.38" height="38.14"/><rect class="cls-1" x="234.59" width="7.38" height="38.14"/><rect class="cls-1" x="226.77" width="7.39" height="38.14"/><rect class="cls-1" x="218.95" width="7.39" height="38.14"/><rect class="cls-1" x="211.13" width="7.38" height="38.14"/><rect class="cls-1" x="203.31" width="7.39" height="38.14"/><rect class="cls-1" x="195.49" width="7.38" height="38.14"/><rect class="cls-1" x="187.67" width="7.39" height="13.35"/><rect class="cls-3" x="187.67" y="13.35" width="7.39" height="24.79"/><rect class="cls-1" x="179.85" width="7.39" height="38.14"/><rect class="cls-1" x="172.03" width="7.38" height="3.81"/><rect class="cls-3" x="172.03" y="3.81" width="7.38" height="34.32"/><rect class="cls-1" x="164.22" width="7.38" height="38.14"/><rect class="cls-1" x="156.4" width="7.39" height="19.07"/><rect class="cls-3" x="156.4" y="19.07" width="7.39" height="19.07"/><rect class="cls-2" x="148.58" width="7.39" height="38.14"/><rect class="cls-1" x="140.76" width="7.38" height="38.14"/><rect class="cls-1" x="132.94" width="7.39" height="38.14"/><rect class="cls-1" x="125.12" width="7.39" height="19.07"/><rect class="cls-3" x="125.12" y="19.07" width="7.39" height="19.07"/><rect class="cls-1" x="117.3" width="7.38" height="11.44"/><rect class="cls-3" x="117.3" y="11.44" width="7.38" height="26.7"/><rect class="cls-3" x="109.48" width="7.38" height="38.14"/><rect class="cls-1" x="101.66" width="7.38" height="38.14"/><rect class="cls-1" x="93.84" width="7.39" height="19.07"/><rect class="cls-3" x="93.84" y="19.07" width="7.39" height="19.07"/><rect class="cls-1" x="86.02" width="7.39" height="19.07"/><rect class="cls-3" x="86.02" y="19.07" width="7.39" height="19.07"/><rect class="cls-1" x="78.2" width="7.39" height="19.07"/><rect class="cls-3" x="78.2" y="19.07" width="7.39" height="19.07"/><rect class="cls-1" x="70.38" width="7.39" height="19.07"/><rect class="cls-3" x="70.38" y="19.07" width="7.39" height="19.07"/><rect class="cls-1" x="62.56" width="7.39" height="7.63"/><rect class="cls-3" x="62.56" y="7.63" width="7.39" height="30.51"/><rect class="cls-1" x="54.74" width="7.39" height="22.88"/><rect class="cls-3" x="54.74" y="22.88" width="7.39" height="15.25"/><rect class="cls-1" x="46.92" width="7.39" height="38.14"/><rect class="cls-1" x="39.1" width="7.38" height="7.63"/><rect class="cls-3" x="39.1" y="7.63" width="7.38" height="30.51"/><rect class="cls-1" x="31.28" width="7.39" height="38.14"/><rect class="cls-1" x="23.46" width="7.39" height="26.7"/><rect class="cls-3" x="23.46" y="26.7" width="7.39" height="11.44"/><rect class="cls-1" x="15.64" width="7.38" height="38.14"/><rect class="cls-1" x="7.83" width="7.38" height="7.63"/><rect class="cls-3" x="7.83" y="7.63" width="7.38" height="30.51"/><rect class="cls-1" x="0.01" width="7.38" height="11.44"/><rect class="cls-3" x="0.01" y="11.44" width="7.38" height="26.7"/><rect class="cls-1" x="234.81" y="88.36" width="7.39" height="38.14"/><rect class="cls-2" x="226.98" y="88.36" width="7.39" height="38.14"/><rect class="cls-3" x="219.15" y="88.36" width="7.39" height="38.14"/><polyline class="cls-1" points="250.02 126.5 242.63 126.5 242.63 88.36 250.02 88.36"/><rect class="cls-2" x="211.33" y="88.36" width="7.39" height="34.32"/><rect class="cls-5" x="211.33" y="122.68" width="7.39" height="3.81"/><rect class="cls-3" x="203.5" y="88.36" width="7.39" height="38.14"/><rect class="cls-1" x="195.67" y="88.36" width="7.39" height="38.14"/><rect class="cls-1" x="187.85" y="88.36" width="7.39" height="3.81"/><rect class="cls-2" x="187.85" y="92.17" width="7.39" height="32.42"/><rect class="cls-5" x="187.85" y="124.59" width="7.39" height="1.91"/><rect class="cls-1" x="180.02" y="88.36" width="7.39" height="11.44"/><rect class="cls-3" x="180.02" y="99.8" width="7.39" height="26.7"/><rect class="cls-3" x="172.19" y="88.36" width="7.39" height="38.14"/><rect class="cls-1" x="164.37" y="88.36" width="7.39" height="38.14"/><rect class="cls-1" x="156.54" y="88.36" width="7.39" height="38.14"/><rect class="cls-3" x="148.71" y="88.36" width="7.39" height="38.14"/><rect class="cls-3" x="140.89" y="88.36" width="7.39" height="38.14"/><rect class="cls-3" x="133.06" y="88.36" width="7.39" height="38.14"/><rect class="cls-1" x="125.23" y="88.36" width="7.39" height="38.14"/><rect class="cls-3" x="117.41" y="88.36" width="7.39" height="38.14"/><rect class="cls-3" x="109.58" y="88.36" width="7.39" height="38.14"/><rect class="cls-2" x="101.75" y="88.36" width="7.39" height="38.14"/><rect class="cls-1" x="93.93" y="88.36" width="7.39" height="38.14"/><rect class="cls-3" x="86.1" y="88.36" width="7.39" height="38.14"/><rect class="cls-1" x="78.27" y="88.36" width="7.39" height="38.14"/><rect class="cls-1" x="70.45" y="88.36" width="7.39" height="38.14"/><rect class="cls-3" x="62.62" y="88.36" width="7.39" height="38.14"/><rect class="cls-1" x="54.79" y="88.36" width="7.39" height="38.14"/><rect class="cls-1" x="46.97" y="88.36" width="7.39" height="38.14"/><rect class="cls-3" x="39.14" y="88.36" width="7.39" height="38.14"/><rect class="cls-1" x="31.31" y="88.36" width="7.39" height="28.6"/><rect class="cls-5" x="31.31" y="116.96" width="7.39" height="9.53"/><rect class="cls-4" x="23.49" y="88.36" width="7.39" height="38.14"/><rect class="cls-1" x="15.66" y="88.36" width="7.39" height="38.14"/><rect class="cls-1" x="7.83" y="88.36" width="7.39" height="36.23"/><rect class="cls-3" x="7.83" y="124.59" width="7.39" height="1.91"/><rect class="cls-1" y="88.36" width="7.39" height="38.14"/><rect class="cls-2" x="469.17" y="88.36" width="7.39" height="38.14"/><rect class="cls-1" x="461.34" y="88.36" width="7.39" height="38.14"/><rect class="cls-1" x="453.51" y="88.36" width="7.39" height="19.07"/><rect class="cls-3" x="453.51" y="107.43" width="7.39" height="19.07"/><rect class="cls-3" x="437.86" y="88.36" width="7.39" height="38.14"/><rect class="cls-1" x="445.69" y="88.36" width="7.39" height="38.14"/><rect class="cls-1" x="430.04" y="88.36" width="7.39" height="38.14"/><rect class="cls-3" x="422.21" y="88.36" width="7.39" height="38.14"/><rect class="cls-2" x="414.38" y="88.36" width="7.39" height="38.14"/><rect class="cls-3" x="406.56" y="88.36" width="7.39" height="32.23"/><rect class="cls-5" x="406.56" y="120.59" width="7.39" height="5.91"/><rect class="cls-3" x="398.73" y="88.36" width="7.39" height="38.14"/><rect class="cls-3" x="390.9" y="88.36" width="7.39" height="38.14"/><rect class="cls-4" x="383.08" y="88.36" width="7.39" height="38.14"/><rect class="cls-3" x="375.25" y="88.36" width="7.39" height="38.14"/><rect class="cls-2" x="367.42" y="88.36" width="7.39" height="38.14"/><rect class="cls-2" x="359.6" y="88.36" width="7.39" height="38.14"/><rect class="cls-1" x="351.77" y="88.36" width="7.39" height="38.14"/><rect class="cls-1" x="343.94" y="88.36" width="7.39" height="38.14"/><rect class="cls-1" x="336.12" y="88.36" width="7.39" height="38.14"/><rect class="cls-3" x="328.29" y="88.36" width="7.39" height="38.14"/><rect class="cls-3" x="320.46" y="88.36" width="7.39" height="38.14"/><rect class="cls-2" x="312.64" y="88.36" width="7.39" height="38.14"/><rect class="cls-1" x="304.81" y="88.36" width="7.39" height="9.53"/><rect class="cls-3" x="304.81" y="97.89" width="7.39" height="9.53"/><rect class="cls-2" x="304.81" y="107.43" width="7.39" height="9.53"/><rect class="cls-4" x="304.81" y="116.96" width="7.39" height="9.53"/><rect class="cls-3" x="296.98" y="88.36" width="7.39" height="38.14"/><rect class="cls-3" x="289.16" y="88.36" width="7.39" height="38.14"/><rect class="cls-1" x="281.33" y="88.36" width="7.39" height="38.14"/><rect class="cls-1" x="273.5" y="88.36" width="7.39" height="19.07"/><rect class="cls-3" x="273.5" y="107.43" width="7.39" height="19.07"/><rect class="cls-1" x="265.68" y="88.36" width="7.39" height="38.14"/><rect class="cls-1" x="257.85" y="88.36" width="7.39" height="28.6"/><rect class="cls-5" x="257.85" y="116.96" width="7.39" height="9.53"/><rect class="cls-3" x="250.02" y="88.36" width="7.39" height="38.14"/></svg>