<svg id="Layer_1" data-name="Layer 1" xmlns="http://www.w3.org/2000/svg" viewBox="0 0 573.55 620.35"><defs><style>.cls-1{fill:#ed3766;}.cls-2{fill:#59c9ee;}.cls-3{fill:#ffce08;}</style></defs><title>yg-beatles-170807-0049-site_covers</title><path class="cls-1" d="M480.51,254.64h0l-1.45.39L361.73,286.47a150.05,150.05,0,0,1,4.18,51.67A148.14,148.14,0,0,1,362,360.59l140.43,37.65,22.47,6,.51-2c.2-.76.39-1.52.58-2.28s.45-1.82.66-2.74.37-1.53.55-2.29.41-1.83.62-2.75.34-1.54.51-2.3.38-1.83.57-2.74.32-1.54.47-2.32.35-1.83.52-2.74.3-1.55.44-2.33.32-1.83.48-2.74.27-1.56.4-2.34.29-1.84.43-2.76.24-1.55.36-2.33.26-1.85.39-2.77.22-1.56.32-2.34.23-1.86.34-2.78c.09-.77.19-1.55.28-2.32.11-.94.2-1.88.3-2.83.08-.76.17-1.53.24-2.29.09-1,.17-1.91.26-2.86.07-.75.14-1.51.2-2.26.08-1,.14-1.93.21-2.89.05-.75.11-1.49.16-2.24.06-1,.12-2,.17-3,0-.72.09-1.43.12-2.15.05-1,.09-2.1.13-3.15,0-.66.06-1.33.08-2,0-1.16.06-2.33.09-3.49,0-.55,0-1.1,0-1.65q0-2.57,0-5.14v0q0-2.56,0-5.12c0-.57,0-1.13,0-1.7,0-1.15,0-2.29-.08-3.44,0-.68-.06-1.36-.08-2,0-1-.08-2.06-.13-3.09,0-.73-.08-1.47-.12-2.2-.05-1-.1-2-.17-2.93,0-.77-.11-1.53-.17-2.3-.07-.94-.13-1.89-.21-2.83-.06-.78-.14-1.56-.21-2.34s-.16-1.85-.25-2.78-.17-1.6-.25-2.39-.19-1.81-.29-2.72-.2-1.62-.29-2.43-.21-1.79-.33-2.68-.22-1.63-.34-2.44-.24-1.77-.37-2.66-.25-1.64-.38-2.46-.27-1.75-.41-2.63-.28-1.64-.42-2.47-.3-1.74-.45-2.61-.31-1.64-.46-2.47-.33-1.73-.5-2.6-.34-1.65-.5-2.47-.35-1.72-.54-2.58-.37-1.66-.55-2.49-.38-1.7-.57-2.55-.39-1.67-.6-2.5-.4-1.68-.61-2.52-.42-1.67-.64-2.5l-.47-1.79Z"/><path class="cls-1" d="M361.29,363.5v0l-.31-.08a150.29,150.29,0,0,1-37.18,63.9L426,529.6l1.2-1.22,1.62-1.67,1.68-1.77,1.6-1.7,1.65-1.79,1.57-1.72,1.62-1.82,1.54-1.74,1.59-1.85,1.51-1.76,1.56-1.87,1.48-1.78,1.53-1.9,1.45-1.81,1.5-1.93,1.41-1.82,1.48-2,1.37-1.83,1.46-2,1.33-1.83c.49-.68,1-1.37,1.44-2l1.28-1.83c.49-.71,1-1.42,1.44-2.13l1.22-1.8c.48-.73,1-1.46,1.44-2.2l1.16-1.77c.49-.77,1-1.54,1.46-2.31l1.07-1.7c.54-.87,1.07-1.75,1.6-2.62l.86-1.42q1.21-2,2.39-4.08l.38-.67q1-1.72,2-3.46l.81-1.5c.48-.89,1-1.77,1.45-2.66.31-.58.6-1.16.91-1.74.43-.82.86-1.64,1.28-2.46.31-.61.62-1.22.92-1.84.4-.8.81-1.59,1.2-2.39.31-.64.62-1.28.93-1.92s.76-1.56,1.13-2.34.61-1.32.92-2,.72-1.55,1.07-2.32.59-1.33.89-2,.69-1.55,1-2.33.58-1.36.86-2,.66-1.55,1-2.32.56-1.38.84-2.07.63-1.55.94-2.32.54-1.4.81-2.1.6-1.54.89-2.32.53-1.43.79-2.14.57-1.54.84-2.31.51-1.45.76-2.17.54-1.53.8-2.3.49-1.46.73-2.2.51-1.54.76-2.31.47-1.48.7-2.22.48-1.53.71-2.3.45-1.51.67-2.26.45-1.52.67-2.29.43-1.53.64-2.29l.43-1.58Z"/><path class="cls-1" d="M360.94,283.56,476.82,252.5l-.39-1.43c-.19-.67-.38-1.35-.57-2s-.42-1.45-.64-2.17-.4-1.34-.6-2-.45-1.45-.68-2.18-.41-1.32-.63-2-.47-1.44-.71-2.17-.44-1.31-.66-2-.5-1.44-.75-2.16-.45-1.3-.69-1.94-.53-1.44-.79-2.16-.47-1.28-.71-1.92-.55-1.44-.83-2.15-.49-1.27-.74-1.9-.58-1.43-.87-2.15-.51-1.25-.77-1.88-.61-1.43-.91-2.15-.52-1.23-.79-1.85-.64-1.45-1-2.17-.53-1.2-.8-1.8-.68-1.46-1-2.19-.54-1.16-.81-1.74c-.35-.74-.71-1.48-1.07-2.22-.27-.56-.54-1.12-.82-1.68-.37-.76-.76-1.51-1.14-2.27-.27-.54-.54-1.08-.81-1.61-.41-.8-.84-1.6-1.26-2.4l-.76-1.44c-.48-.91-1-1.81-1.48-2.71l-.6-1.1q-2.11-3.8-4.34-7.53l-.58-1c-.55-.92-1.11-1.84-1.68-2.75l-.83-1.32c-.49-.78-1-1.57-1.48-2.35l-.94-1.44c-.48-.73-1-1.46-1.44-2.19l-1-1.52c-.47-.69-.93-1.39-1.41-2.07l-1.08-1.55c-.47-.67-.94-1.34-1.41-2l-1.13-1.56-1.42-1.95-1.18-1.57-1.44-1.91L430,158.77l-1.45-1.87-1.25-1.57-1.47-1.82L424.5,152,423,150.16l-1.33-1.55-1.51-1.75-1.37-1.55-1.53-1.71-1.39-1.53-1.55-1.69-1.43-1.52-1.56-1.64-1.47-1.51-1-1.07-85,85A149.12,149.12,0,0,1,360.94,283.56Z"/><path class="cls-1" d="M361,283.56h0l115.85-31v0L360.94,283.56h0Z"/><path class="cls-1" d="M277,108.72,265.36,152,261,168.36a161.56,161.56,0,0,1,69.56,40.3L408.19,131l24.57-24.61-1.34-1.31-1.67-1.63-1.94-1.85-1.67-1.58-2-1.84-1.66-1.52-2.06-1.84-1.65-1.46-2.13-1.84L415,90.17l-2.22-1.85L411.18,87l-2.31-1.86-1.56-1.25L404.91,82l-1.5-1.16-2.53-1.91-1.42-1.07-2.68-2-1.32-1c-1-.68-1.92-1.35-2.88-2l-1.17-.82c-1-.72-2.08-1.42-3.12-2.12l-1-.66q-1.71-1.14-3.44-2.25l-.7-.46q-2-1.3-4.06-2.57L379,64q-10.57-6.57-21.64-12.26l-.65-.33q-1.87-1-3.76-1.89L351.9,49c-1.12-.55-2.25-1.1-3.38-1.63l-1.35-.63L344,45.29l-1.52-.68-3-1.32-1.7-.73L335,41.36l-1.84-.75-2.73-1.1-2-.76-2.64-1L323.78,37,321.22,36l-2.14-.75-2.51-.87-2.23-.74-2.45-.81-2.31-.73-2.39-.75-2.37-.71L302.45,30,300,29.28l-1.65-.46L277,108.72Z"/><polygon class="cls-1" points="330.54 208.66 330.54 208.66 407.77 131.45 408.19 131.03 330.54 208.66"/><path class="cls-1" d="M320.63,428.42l-7.35-7.33A135.63,135.63,0,0,1,254.64,455v0h0l2.54,9.49,3,11.26,1.88-.54,2.25-.67c.88-.27,1.76-.56,2.63-.85l2.19-.73c.89-.31,1.77-.64,2.66-1,.7-.26,1.41-.51,2.1-.77.91-.35,1.81-.71,2.71-1.08.66-.27,1.33-.53,2-.81.94-.39,1.86-.81,2.79-1.22.62-.27,1.24-.54,1.85-.82,1-.45,2-.92,2.93-1.39l1.64-.79c1.11-.55,2.22-1.13,3.32-1.71l1.18-.61q4.48-2.41,8.8-5.1l1.09-.7c1.06-.67,2.12-1.35,3.17-2,.5-.33,1-.68,1.48-1,.9-.62,1.8-1.23,2.69-1.87.55-.39,1.08-.8,1.63-1.2.82-.6,1.64-1.2,2.45-1.82.57-.43,1.12-.88,1.69-1.33.77-.61,1.54-1.21,2.3-1.83.57-.47,1.13-.95,1.7-1.42.73-.62,1.47-1.23,2.19-1.86s1.13-1,1.7-1.52,1.4-1.25,2.09-1.89,1.12-1.06,1.68-1.6l1.44-1.39-7.78-7.78Z"/><path class="cls-1" d="M267.57,132.08l5.69-21.23-.47-.12q-3-.76-6-1.43l-.86-.19q-3-.67-6.05-1.25l-.78-.15q-3.08-.58-6.17-1.07l-.68-.1q-3.15-.49-6.31-.89l-.54-.07q-3.23-.4-6.47-.7l-.38,0q-3.32-.3-6.65-.51h-.19a220.75,220.75,0,0,0-27.74.08h-.1q-3.39.22-6.77.55l-.26,0q-3.3.33-6.6.75l-.42.05q-3.23.42-6.44.94l-.55.09q-3.15.51-6.29,1.13l-.68.13q-3.08.6-6.14,1.3l-.8.18q-3,.69-6,1.47l-.5.13,5.6,20.9A198.38,198.38,0,0,1,267.57,132.08Z"/><path class="cls-1" d="M267.57,132.08h0l5.69-21.23h0Z"/><path class="cls-1" d="M105.12,208.64h0l1,1,.09.09,16.64,16.64a138.15,138.15,0,0,1,58.28-34l-5.81-21.68-3-11.28-2.13.6c-.8.23-1.6.46-2.39.7-1,.29-1.91.61-2.87.92-.78.25-1.57.5-2.35.77-1,.33-1.91.67-2.86,1-.77.28-1.53.55-2.3.83-1,.36-1.91.75-2.86,1.13-.74.3-1.49.58-2.23.89-1,.4-1.93.83-2.89,1.25-.71.31-1.43.61-2.13.93-1,.45-2,.93-3,1.4-.66.31-1.33.62-2,.94-1.07.53-2.13,1.09-3.19,1.64-.56.29-1.12.56-1.67.86q-2.22,1.19-4.41,2.45l-.37.21q-2.37,1.36-4.69,2.8c-.53.33-1.05.68-1.58,1-1,.64-2,1.28-3,1.95-.62.41-1.23.85-1.85,1.27-.89.61-1.78,1.21-2.66,1.84-.65.46-1.29.95-1.94,1.42-.83.61-1.66,1.21-2.48,1.83-.66.5-1.3,1-2,1.53s-1.58,1.23-2.36,1.87-1.3,1.08-1.95,1.63-1.51,1.26-2.26,1.91-1.29,1.15-1.93,1.72-1.45,1.29-2.16,2-1.27,1.21-1.91,1.81l-1.54,1.49Z"/><path class="cls-1" d="M74.69,283.56l11.93,3.2h0c.27-.94.54-1.88.83-2.81.17-.54.35-1.06.53-1.6.28-.87.56-1.74.86-2.6.22-.64.46-1.26.69-1.89s.54-1.51.83-2.25.53-1.32.79-2,.56-1.42.86-2.12.58-1.32.87-2,.6-1.38.91-2.06.62-1.3.94-2,.64-1.36,1-2,.66-1.28,1-1.92.69-1.34,1-2,.7-1.25,1.05-1.88.73-1.32,1.11-2,.74-1.23,1.11-1.85.77-1.3,1.18-1.94.78-1.21,1.17-1.81.82-1.28,1.24-1.91.81-1.17,1.22-1.76.86-1.26,1.31-1.88.85-1.15,1.28-1.73.9-1.23,1.37-1.83.89-1.13,1.34-1.7.94-1.19,1.42-1.78.93-1.1,1.4-1.66,1-1.16,1.48-1.74,1-1.08,1.45-1.61,1-1.13,1.53-1.69,1-1,1.51-1.57l.76-.79-15.57-15.57-1.38,1.43c-.54.57-1.09,1.13-1.62,1.7s-1.25,1.37-1.87,2.06-1,1.16-1.56,1.74-1.21,1.41-1.8,2.12-1,1.18-1.5,1.78-1.17,1.46-1.75,2.2-1,1.19-1.42,1.8c-.58.76-1.14,1.53-1.71,2.3-.44.6-.89,1.19-1.32,1.79-.58.81-1.13,1.62-1.69,2.44-.4.58-.81,1.15-1.2,1.74-.6.9-1.18,1.82-1.77,2.73-.33.51-.67,1-1,1.53q-1.27,2-2.48,4.12l-.46.81c-.73,1.27-1.44,2.54-2.14,3.83-.3.55-.58,1.11-.87,1.67-.49.94-1,1.88-1.46,2.83-.32.64-.61,1.28-.92,1.92-.42.88-.85,1.76-1.26,2.65-.31.67-.6,1.36-.9,2-.38.86-.77,1.72-1.13,2.59-.29.7-.57,1.41-.86,2.12-.35.86-.69,1.71-1,2.58s-.53,1.45-.8,2.18-.63,1.71-.93,2.58-.5,1.49-.74,2.23-.57,1.72-.83,2.58-.45,1.51-.67,2.27-.36,1.24-.53,1.86l9.13,2.45Z"/><path class="cls-1" d="M105.14,212.9h0l15.57,15.57h0Z"/><path class="cls-1" d="M181.88,451.68l33-123.18L133.3,410.12h0l-.79.79-1.33,1.33h0l-6.25,6.25,1.13,1.09,1.42,1.35c.58.53,1.16,1.06,1.75,1.58l1.45,1.29c.59.52,1.2,1,1.8,1.53s1,.83,1.48,1.24,1.25,1,1.87,1.49,1,.78,1.48,1.17,1.31,1,2,1.46l1.47,1.09c.69.5,1.39,1,2.09,1.46.47.33.94.66,1.41,1,.78.53,1.58,1,2.37,1.54l1.2.78q1.8,1.13,3.63,2.2l.43.24c1.09.63,2.18,1.25,3.28,1.84l1.34.7c.81.43,1.61.85,2.42,1.26l1.57.76c.75.36,1.49.73,2.25,1.08l1.68.75c.73.33,1.46.65,2.19,1l1.76.72c.72.29,1.44.59,2.17.87l1.81.68,2.17.79,1.85.63,2.17.71,1.88.57,1.44.42Z"/><polygon class="cls-1" points="214.91 328.5 214.91 328.5 181.88 451.68 181.89 451.66 214.91 328.5"/><path class="cls-1" d="M85.53,357.41a136.15,136.15,0,0,1,.32-67.75l-9-2.42q-.22.86-.44,1.72c-.17.7-.35,1.4-.51,2.11s-.37,1.66-.54,2.5-.3,1.41-.44,2.11-.31,1.68-.46,2.52-.26,1.4-.37,2.11-.26,1.7-.39,2.56c-.1.7-.21,1.39-.3,2.09-.11.87-.21,1.74-.31,2.61-.08.68-.16,1.36-.23,2-.09.9-.16,1.8-.23,2.71-.05.65-.12,1.3-.16,2-.07,1-.11,2-.16,3,0,.57-.07,1.14-.09,1.71q-.08,2.19-.09,4.38c0,.33,0,.65,0,1,0,1.32,0,2.64,0,4,0,.59.05,1.17.08,1.76,0,1,.07,1.94.13,2.9,0,.66.1,1.31.15,2,.07.89.13,1.79.21,2.68.06.69.14,1.37.22,2.05.09.86.18,1.72.29,2.58.09.7.19,1.39.29,2.09s.23,1.69.36,2.53.24,1.41.36,2.11.28,1.66.44,2.49.28,1.41.43,2.12.34,1.64.52,2.46.33,1.42.5,2.12.27,1.12.41,1.67Z"/><path class="cls-2" d="M349.74,289.68a136,136,0,0,1,.33,67.68l9.06,2.43q.21-.83.41-1.67c.17-.7.34-1.39.49-2.09s.36-1.66.53-2.49.29-1.39.42-2.09.3-1.69.45-2.53c.12-.69.24-1.38.35-2.07.13-.86.25-1.72.37-2.58.09-.68.2-1.36.28-2,.11-.88.2-1.77.29-2.65.07-.66.15-1.32.21-2,.08-.92.15-1.85.21-2.77,0-.63.1-1.26.14-1.88.06-1,.1-2,.14-3,0-.54.05-1.09.07-1.63,0-1.43.05-2.87.05-4.3,0-.12,0-.25,0-.37q0-2.33-.09-4.67c0-.51-.05-1-.08-1.54,0-1-.09-2.09-.16-3.13,0-.62-.1-1.24-.15-1.87-.08-.93-.15-1.87-.24-2.8-.07-.66-.15-1.32-.23-2-.1-.89-.2-1.78-.32-2.67-.09-.68-.2-1.36-.3-2-.13-.87-.25-1.74-.39-2.61-.11-.69-.24-1.38-.37-2.06-.15-.85-.3-1.71-.47-2.56-.14-.69-.29-1.38-.43-2.07-.18-.84-.36-1.69-.55-2.53-.16-.69-.33-1.38-.5-2.07s-.29-1.16-.44-1.74Z"/><polygon class="cls-2" points="349.74 289.68 358.83 287.25 358.83 287.25 349.74 289.68 349.74 289.68"/><polygon class="cls-2" points="349.74 289.68 358.83 287.25 358.83 287.25 349.74 289.68 349.74 289.68"/><polygon class="cls-2" points="349.74 289.68 349.74 289.68 358.83 287.25 358.83 287.24 349.74 289.68"/><path class="cls-2" d="M291.84,251.59l-69,69,124.69-33.44h0l1.44-.39h0l9.08-2.43q-.24-.84-.48-1.67c-.2-.69-.4-1.38-.62-2.06s-.52-1.61-.78-2.42-.44-1.35-.67-2-.58-1.61-.87-2.42c-.24-.65-.48-1.31-.72-2-.31-.81-.64-1.62-1-2.43-.26-.63-.5-1.26-.77-1.89-.35-.83-.72-1.65-1.08-2.48-.26-.59-.52-1.19-.79-1.78-.4-.86-.81-1.72-1.23-2.57-.26-.54-.51-1.09-.78-1.63-.48-1-1-1.9-1.47-2.85-.22-.43-.44-.86-.67-1.29q-2.21-4.11-4.69-8.07c-.25-.4-.51-.78-.76-1.18-.59-.92-1.17-1.84-1.78-2.74-.33-.49-.68-1-1-1.47-.54-.79-1.09-1.59-1.65-2.37-.38-.53-.78-1.05-1.16-1.58-.54-.73-1.07-1.46-1.62-2.17-.42-.54-.85-1.08-1.27-1.62s-1.08-1.37-1.63-2-.91-1.09-1.37-1.63-1.1-1.3-1.66-1.95-1-1.08-1.45-1.62-1.12-1.24-1.69-1.86-1-1.08-1.53-1.61l-1.18-1.22Z"/><polygon class="cls-2" points="358.05 284.35 358.05 284.34 348.97 286.77 348.97 286.78 358.05 284.35"/><polygon class="cls-2" points="321.68 221.76 321.68 221.76 291.84 251.59 321.68 221.76"/><polygon class="cls-2" points="222.83 320.58 222.83 320.58 291.84 251.59 223.13 320.29 222.83 320.58"/><polygon class="cls-2" points="223.13 320.29 291.84 251.59 321.68 221.76 321.68 221.76 223.22 320.19 223.13 320.29"/><path class="cls-2" d="M223.22,320.19l98.46-98.44h0l-6.72,6.72h0Z"/><path class="cls-2" d="M254.54,192.35a138,138,0,0,1,58.27,34l8.88-8.88h0l6.72-6.72L327,209.39c-.57-.55-1.14-1.1-1.72-1.63s-1.35-1.23-2-1.84-1.17-1.06-1.77-1.58-1.39-1.19-2.1-1.78-1.19-1-1.8-1.51-1.44-1.15-2.17-1.72-1.21-1-1.83-1.43-1.49-1.11-2.24-1.66-1.23-.92-1.85-1.36c-.77-.55-1.56-1.09-2.34-1.62-.61-.42-1.22-.85-1.83-1.26-.84-.56-1.7-1.1-2.55-1.65-.57-.37-1.14-.74-1.71-1.1-1.15-.72-2.31-1.41-3.48-2.09L295.65,186c-1.1-.63-2.21-1.25-3.33-1.86-.62-.33-1.25-.65-1.88-1-.87-.45-1.74-.91-2.62-1.35-.68-.34-1.37-.66-2.06-1s-1.66-.81-2.5-1.19-1.44-.64-2.16-1-1.64-.73-2.47-1.08-1.48-.6-2.23-.9-1.64-.67-2.47-1-1.52-.56-2.27-.84-1.65-.61-2.48-.89-1.54-.51-2.31-.77-1.66-.55-2.5-.81-1.56-.47-2.35-.7l-1.81-.52Z"/><polygon class="cls-2" points="321.69 217.49 321.69 217.49 312.81 226.36 312.81 226.36 321.69 217.49"/><path class="cls-2" d="M183.92,191.24a135.66,135.66,0,0,1,67.71.31L266.79,135l-2.56-.64c-.94-.23-1.88-.47-2.82-.68-1.09-.25-2.19-.48-3.29-.71s-1.92-.41-2.88-.6-2.17-.4-3.26-.59-2-.36-2.95-.52-2.14-.32-3.22-.48-2-.3-3-.43-2.13-.25-3.19-.37-2-.24-3.05-.34-2.11-.17-3.16-.26-2.06-.18-3.1-.25-2.09-.1-3.13-.15-2.09-.12-3.14-.15-2.09,0-3.14-.05q-3.06,0-6.13,0c-1.06,0-2.12,0-3.18.05s-2.06.1-3.1.15-2.11.09-3.17.15-2,.16-3.07.24-2.13.16-3.19.26-2,.22-3,.34-2.14.23-3.2.37-2,.29-3,.43-2.14.3-3.21.47-2,.35-3,.52-2.15.37-3.22.58-2,.41-2.95.61-2.15.45-3.22.69-1.94.47-2.9.7l-2.49.62,7.54,28.16Z"/><polygon class="cls-2" points="251.64 191.53 251.65 191.53 252.4 188.72 262.31 151.76 266.8 134.98 266.79 134.98 251.63 191.55 251.63 191.55 251.64 191.53"/><polygon class="cls-2" points="183.92 191.24 176.38 163.11 176.56 163.79 183.92 191.24 183.92 191.24"/><polygon class="cls-2" points="262.29 151.84 262.31 151.76 252.4 188.72 262.29 151.84"/><polygon class="cls-2" points="252.4 188.72 251.65 191.53 251.65 191.53 252.4 188.72"/><polygon class="cls-2" points="251.65 191.53 251.65 191.53 257.72 168.91 262.29 151.84 252.4 188.72 251.65 191.53"/><polygon class="cls-2" points="183.92 191.24 176.56 163.79 178.22 170 183.92 191.24 183.92 191.24"/><polygon class="cls-2" points="178.22 170 183.91 191.24 183.92 191.24 178.22 170"/><polygon class="cls-2" points="251.65 191.53 257.69 169.01 257.72 168.91 251.65 191.53 251.65 191.53"/><path class="cls-2" d="M188,440.72a122.1,122.1,0,0,0,59.7,0L217.81,329.28Z"/><path class="cls-2" d="M214.91,318.46l-17.45-65.08-15.59-58.16-1.44.42-1.87.57-2.17.72-1.85.63-2.15.79-1.82.68c-.72.28-1.43.57-2.14.86l-1.78.73c-.72.31-1.43.63-2.14.94l-1.72.77c-.72.33-1.44.68-2.16,1l-1.65.8c-.74.37-1.47.76-2.2,1.14l-1.55.81c-.77.42-1.53.85-2.29,1.28l-1.4.79c-.84.49-1.68,1-2.51,1.51l-1.12.68q-1.79,1.12-3.54,2.29h0q-1.77,1.18-3.5,2.42l-1,.71c-.82.6-1.64,1.19-2.45,1.81l-1.27,1c-.69.54-1.38,1.08-2.06,1.63-.47.38-.92.77-1.38,1.16-.62.52-1.25,1-1.87,1.58s-1,.85-1.43,1.28-1.16,1-1.74,1.56-1,.91-1.45,1.37l-1.31,1.26Z"/><polygon class="cls-2" points="214.91 318.46 124.94 228.46 124.94 228.46 214.91 318.46 214.91 318.46"/><polygon class="cls-2" points="124.94 228.46 124.93 228.46 214.91 318.46 214.91 318.46 124.94 228.46"/><polygon class="cls-2" points="214.91 318.46 124.93 228.46 124.92 228.47 214.91 318.46 214.91 318.46"/><path class="cls-2" d="M96.8,354.37l.86-.23h0l.08,0-.08-.3,3-.8,110.75-29.69-44.27-11.87-78.39-21q-.19.74-.38,1.49c-.16.66-.33,1.31-.48,2s-.33,1.48-.49,2.22-.29,1.33-.42,2-.28,1.48-.41,2.23-.25,1.34-.36,2-.23,1.5-.34,2.25-.2,1.33-.29,2-.19,1.53-.27,2.3-.16,1.3-.22,2-.14,1.6-.21,2.4c-.05.62-.11,1.24-.15,1.86-.06.88-.1,1.77-.14,2.65,0,.54-.06,1.08-.08,1.61q-.07,2-.09,4c0,.31,0,.62,0,.93,0,1.18,0,2.37,0,3.55,0,.52,0,1,.07,1.56,0,.9.07,1.8.12,2.7,0,.58.09,1.17.13,1.75.06.83.12,1.67.19,2.5.06.61.13,1.22.19,1.83.08.8.17,1.61.27,2.41.08.63.17,1.25.26,1.87.11.78.22,1.57.34,2.35s.21,1.27.32,1.9.26,1.54.41,2.31.26,1.27.39,1.91.31,1.52.48,2.27.3,1.27.45,1.91.24,1,.36,1.47Z"/><polygon class="cls-2" points="88.75 290.44 167.15 311.45 88.75 290.44 88.75 290.44"/><path class="cls-2" d="M212.79,320.58l-90-90-1.05,1.09c-.46.48-.93,1-1.38,1.46s-1,1.13-1.54,1.7-.89,1-1.32,1.48-1,1.18-1.5,1.77-.84,1-1.26,1.5-1,1.23-1.47,1.84-.8,1-1.19,1.51-1,1.29-1.44,1.94c-.37.5-.74,1-1.1,1.49-.49.69-1,1.39-1.45,2.09-.33.47-.66.94-1,1.41-.53.78-1,1.58-1.54,2.37-.26.4-.52.8-.78,1.2q-1.13,1.8-2.2,3.63l-.18.31q-1,1.68-1.91,3.39c-.23.43-.45.87-.68,1.3-.43.82-.87,1.64-1.29,2.46-.26.51-.5,1-.75,1.54-.37.76-.75,1.52-1.1,2.29-.25.55-.49,1.1-.74,1.66-.33.74-.67,1.48-1,2.23-.25.58-.48,1.16-.71,1.74-.3.73-.6,1.46-.89,2.2s-.45,1.19-.67,1.79-.54,1.46-.8,2.19-.42,1.22-.62,1.83-.49,1.46-.73,2.2-.38,1.25-.57,1.87-.29,1-.43,1.46l13.09,3.51Z"/><polygon class="cls-2" points="212.79 320.58 212.79 320.58 199.03 306.82 122.82 230.61 122.82 230.61 212.79 320.58 212.79 320.58 212.79 320.58"/><circle class="cls-2" cx="212.79" cy="320.58" transform="matrix(0.85, -0.53, 0.53, 0.85, -137.56, 161.51)"/><polygon class="cls-2" points="141.91 249.69 122.82 230.61 122.82 230.61 199.03 306.82 141.91 249.69"/><path class="cls-3" d="M355.18,361.87l-5.89-1.58A135.58,135.58,0,0,1,315.41,419l0,0h0l6.25,6.25,1.21-1.25c.5-.53,1-1,1.5-1.58s1.14-1.25,1.71-1.88,1-1.06,1.42-1.59,1.12-1.31,1.68-2,.9-1.06,1.34-1.6,1.1-1.38,1.65-2.08c.42-.53.84-1.05,1.25-1.58.56-.73,1.1-1.47,1.64-2.2.38-.52.77-1,1.14-1.55.57-.79,1.11-1.59,1.66-2.39.33-.48.67-1,1-1.44.62-.92,1.21-1.85,1.81-2.79.24-.38.49-.75.73-1.13q2.48-4,4.7-8.07c.23-.42.44-.85.67-1.28.5-.95,1-1.9,1.48-2.85.27-.54.52-1.08.78-1.63.42-.86.83-1.71,1.23-2.58.27-.59.53-1.19.8-1.79.37-.82.74-1.65,1.09-2.48.27-.63.52-1.26.77-1.9.33-.81.66-1.62,1-2.43.25-.66.49-1.32.73-2s.59-1.6.88-2.4.46-1.36.69-2,.53-1.6.79-2.4.42-1.38.63-2.08.32-1.09.48-1.64Z"/><polygon class="cls-3" points="321.67 425.22 321.67 425.22 315.42 418.97 315.42 418.97 321.67 425.22"/><polygon class="cls-3" points="315.42 418.97 321.67 425.22 321.67 425.22 315.42 418.97 315.42 418.97"/><polygon class="cls-3" points="315.41 418.98 321.67 425.22 321.67 425.22 315.42 418.97 315.41 418.98"/><polygon class="cls-3" points="349.3 360.29 349.3 360.29 355.19 361.87 355.19 361.87 349.3 360.29"/><polygon class="cls-3" points="349.3 360.29 349.3 360.29 355.19 361.87 355.12 361.85 349.3 360.29"/><path class="cls-3" d="M355.12,361.85l-5.81-1.58v0Z"/><polygon class="cls-3" points="355.19 361.87 358.07 362.65 358.07 362.65 355.2 361.87 355.19 361.87"/><polygon class="cls-3" points="355.2 361.87 355.19 361.87 355.19 361.87 355.2 361.87 355.2 361.87"/><polygon class="cls-3" points="355.19 361.87 355.2 361.87 355.13 361.85 355.12 361.85 355.19 361.87"/><polygon class="cls-3" points="349.3 360.27 355.12 361.85 355.13 361.85 349.3 360.27 349.3 360.27"/><polygon class="cls-3" points="358.07 362.65 358.08 362.64 355.2 361.87 358.07 362.65"/><polygon class="cls-3" points="355.2 361.87 358.08 362.64 358.08 362.64 355.2 361.87 355.2 361.87"/><polygon class="cls-3" points="355.13 361.85 355.2 361.87 358.08 362.64 358.08 362.64 355.13 361.85"/><path class="cls-3" d="M349.3,360.27h0l5.83,1.58,2.94.79v0l-8.76-2.35h0Z"/><path class="cls-3" d="M315.25,418.8l.16.16a135.58,135.58,0,0,0,33.89-58.67l-.08,0A135.6,135.6,0,0,1,315.25,418.8Z"/><polygon class="cls-3" points="349.21 360.26 349.21 360.26 349.3 360.29 349.3 360.29 349.21 360.26"/><polygon class="cls-3" points="349.21 360.26 349.21 360.26 349.3 360.29 349.3 360.29 349.21 360.26"/><path class="cls-3" d="M349.21,360.26l.08,0v0l-.08,0Z"/><polygon class="cls-3" points="349.22 360.25 349.3 360.27 349.3 360.27 349.22 360.25 349.22 360.25"/><polygon class="cls-3" points="349.22 360.25 349.3 360.27 349.3 360.27 349.22 360.24 349.22 360.25"/><path class="cls-3" d="M240.15,319l-15.94,4.27,123,33c.1-.4.2-.8.3-1.2.15-.63.3-1.26.45-1.89s.33-1.52.49-2.29.26-1.26.38-1.9.28-1.54.41-2.31.22-1.26.32-1.89c.12-.78.23-1.57.34-2.36.09-.62.18-1.24.26-1.86.1-.81.18-1.62.27-2.43.06-.6.13-1.2.19-1.8.08-.85.14-1.71.2-2.56,0-.56.09-1.13.12-1.69.06-.94.09-1.88.12-2.82,0-.48,0-1,.06-1.44q.05-2,0-4c0-.08,0-.17,0-.25q0-2.13-.09-4.27c0-.46-.05-.92-.07-1.38,0-1-.09-1.92-.16-2.89,0-.56-.09-1.11-.14-1.67-.07-.86-.14-1.73-.23-2.59-.06-.6-.14-1.2-.21-1.8-.09-.82-.18-1.64-.29-2.45-.08-.62-.18-1.24-.27-1.86-.12-.79-.23-1.58-.36-2.38-.11-.63-.22-1.27-.34-1.9s-.28-1.55-.43-2.33-.27-1.28-.41-1.92-.33-1.52-.5-2.28-.31-1.29-.47-1.93-.25-1-.38-1.48Z"/><polygon class="cls-3" points="346.84 290.46 346.84 290.46 240.15 319.05 346.84 290.46"/><polygon class="cls-3" points="224.21 323.32 240.15 319.05 224.21 323.32 224.21 323.32"/><polygon class="cls-3" points="224.21 323.32 224.21 323.32 240.15 319.05 346.84 290.46 346.84 290.46 235.04 320.42 224.21 323.32"/><polygon class="cls-3" points="346.84 290.46 346.84 290.45 235.04 320.42 346.84 290.46"/><polygon class="cls-3" points="224.21 323.32 235.04 320.42 233.21 320.91 224.21 323.32 224.21 323.32"/><polygon class="cls-3" points="233.21 320.91 235.04 320.42 346.84 290.45 346.84 290.45 233.21 320.91"/><polygon class="cls-3" points="224.21 323.32 224.21 323.32 233.21 320.91 229.22 321.98 224.21 323.32"/><polygon class="cls-3" points="233.21 320.91 346.84 290.45 346.84 290.45 229.22 321.98 233.21 320.91"/><polygon class="cls-3" points="229.22 321.98 224.21 323.32 224.21 323.32 229.22 321.98"/><path class="cls-3" d="M224.2,323.32l5-1.34,117.62-31.52v0L224.2,323.32Z"/><path class="cls-3" d="M236.78,388.42l13.81,51.49a120.94,120.94,0,0,0,44-22.87c2.67-2.19,5.24-4.5,7.72-6.92L220.71,328.5Z"/><polygon class="cls-3" points="250.59 439.91 236.78 388.42 250.59 439.91 250.59 439.91"/><polygon class="cls-3" points="223.47 338.77 236.78 388.42 220.71 328.5 220.71 328.5 223.47 338.77"/><polygon class="cls-3" points="223.47 338.77 220.71 328.5 220.71 328.5 223.47 338.77"/><polygon class="cls-3" points="250.59 439.91 250.59 439.91 236.78 388.42 223.47 338.77 250.59 439.91"/><polygon class="cls-3" points="220.71 328.5 250.59 439.91 250.59 439.91 223.47 338.77 220.71 328.5 220.71 328.5"/><path class="cls-3" d="M250.57,439.91h0L220.71,328.5h0Z"/><path class="cls-3" d="M250.56,439.92h0L220.71,328.5h0Z"/><path class="cls-3" d="M220.71,318.46l50.21-50.21,39.77-39.77-1.1-1.07L308.13,226c-.57-.52-1.14-1-1.71-1.55l-1.48-1.32c-.58-.51-1.18-1-1.77-1.5s-1-.85-1.51-1.27-1.22-1-1.83-1.45-1-.81-1.53-1.2-1.27-.95-1.9-1.42-1-.76-1.53-1.13-1.34-.94-2-1.4c-.5-.34-1-.7-1.49-1-.73-.49-1.47-1-2.21-1.44l-1.36-.88q-1.6-1-3.23-2l-1.24-.71c-.94-.54-1.89-1.08-2.84-1.6l-1.54-.8c-.74-.39-1.48-.78-2.23-1.16l-1.69-.82c-.71-.34-1.41-.69-2.13-1l-1.78-.8c-.7-.31-1.39-.63-2.1-.92l-1.84-.76c-.69-.28-1.39-.57-2.08-.84l-1.89-.71-2.09-.76-1.92-.65-2.11-.69-1.94-.59-1.38-.4Z"/><polygon class="cls-3" points="310.69 228.49 270.92 268.25 310.69 228.49 310.69 228.49"/><polygon class="cls-3" points="225.98 313.19 270.92 268.25 220.71 318.46 220.71 318.46 225.98 313.19"/><polygon class="cls-3" points="226.71 312.46 310.69 228.49 310.69 228.49 270.92 268.25 225.98 313.19 226.71 312.46"/><polygon class="cls-3" points="302.57 236.61 310.69 228.49 310.69 228.49 226.71 312.46 302.57 236.61"/><polygon class="cls-3" points="220.71 318.46 253.76 195.25 253.76 195.25 220.71 318.46 220.71 318.46"/><polygon class="cls-3" points="220.71 318.46 253.76 195.25 253.76 195.25 220.71 318.46 220.71 318.46"/><polygon class="cls-3" points="220.71 318.46 220.71 318.46 220.71 318.46 220.71 318.46 253.76 195.25 253.75 195.24 245.43 226.28 220.71 318.46"/><polygon class="cls-3" points="253.75 195.24 253.75 195.24 245.43 226.28 253.75 195.24"/><polygon class="cls-3" points="220.71 318.46 245.43 226.28 228.36 289.94 220.71 318.46 220.71 318.46"/><polygon class="cls-3" points="228.36 289.94 220.71 318.46 220.71 318.46 228.36 289.94"/><polygon class="cls-3" points="245.43 226.28 253.75 195.24 253.75 195.24 228.36 289.94 245.43 226.28"/><polygon class="cls-3" points="228.36 289.94 253.75 195.24 253.75 195.24 220.71 318.46 220.71 318.46 228.36 289.94"/><path class="cls-3" d="M217.81,317.69l33-123.24-1.5-.38-1.91-.47-2.28-.51-1.91-.41-2.3-.43L239,191.9c-.77-.13-1.54-.24-2.31-.35l-1.93-.28c-.77-.1-1.55-.19-2.32-.28l-1.93-.22c-.78-.08-1.57-.14-2.35-.2l-1.91-.16c-.81-.06-1.63-.09-2.44-.13l-1.83-.09c-1,0-1.92,0-2.89-.06s-2,0-3,0-1.73,0-2.59,0c-.67,0-1.34.06-2,.09s-1.5.06-2.25.1l-2.05.15-2.2.17-2.06.22-2.19.24-2,.28-2.2.32-2,.34-2.22.4-2,.4-2.25.48-1.89.45-1.52.38L209,285Z"/><polygon class="cls-3" points="217.81 317.69 217.81 317.69 227 283.43 250.86 194.45 250.85 194.45 217.81 317.69"/><path class="cls-2" d="M252.37,334.3l-29.1-7.8,90,90,1.07-1.1c.47-.49.93-1,1.39-1.47s1-1.14,1.56-1.72.89-1,1.32-1.49,1-1.19,1.52-1.79.84-1,1.25-1.5,1-1.25,1.49-1.88.79-1,1.17-1.5c.5-.65,1-1.32,1.47-2,.36-.49.73-1,1.08-1.47.51-.71,1-1.43,1.49-2.16.31-.46.63-.91.94-1.37.55-.82,1.08-1.66,1.61-2.49.23-.37.48-.73.71-1.1q2.26-3.64,4.28-7.4c.21-.39.4-.79.61-1.18.45-.87.91-1.73,1.34-2.61.24-.49.47-1,.7-1.48.38-.79.76-1.58,1.12-2.38.24-.54.47-1.08.71-1.62.33-.76.67-1.52,1-2.29.24-.57.46-1.14.68-1.71.3-.75.6-1.5.89-2.25.22-.59.43-1.18.64-1.77.27-.75.54-1.49.8-2.24s.4-1.21.6-1.82.48-1.49.71-2.24.37-1.24.55-1.86l.33-1.17Z"/><polygon class="cls-2" points="223.27 326.5 252.37 334.3 223.27 326.5 223.27 326.5"/><polygon class="cls-2" points="252.37 334.3 346.31 359.49 346.31 359.49 252.72 334.39 252.37 334.3"/><polygon class="cls-2" points="346.31 359.49 346.31 359.49 252.72 334.39 346.31 359.49"/><polygon class="cls-2" points="223.27 326.5 223.27 326.5 252.37 334.3 252.72 334.39 223.27 326.5"/><path class="cls-2" d="M223.27,326.5h0l29.45,7.9,93.6,25.09v0l-58.73-15.74Z"/><polygon class="cls-2" points="346.32 359.47 346.32 359.47 287.59 343.73 346.32 359.47"/><polygon class="cls-2" points="223.27 326.5 287.59 343.73 269.63 338.92 223.27 326.5 223.27 326.5"/><polygon class="cls-2" points="287.59 343.73 346.32 359.47 346.32 359.47 269.63 338.92 287.59 343.73"/><polygon class="cls-2" points="223.27 326.5 269.63 338.92 246.72 332.78 223.27 326.5 223.27 326.5"/><polygon class="cls-2" points="246.72 332.78 269.63 338.92 346.32 359.47 346.32 359.47 256.04 335.28 246.72 332.78"/><polygon class="cls-2" points="346.32 359.47 346.32 359.47 256.04 335.28 346.32 359.47"/><polygon class="cls-2" points="223.27 326.5 223.27 326.5 246.72 332.78 241.15 331.29 223.27 326.5"/><polygon class="cls-2" points="246.72 332.78 256.04 335.28 247.17 332.9 241.15 331.29 246.72 332.78"/><polygon class="cls-2" points="247.17 332.9 256.04 335.28 346.32 359.47 346.32 359.47 247.17 332.9"/><polygon class="cls-2" points="223.27 326.5 241.15 331.29 231.31 328.65 223.27 326.5 223.27 326.5"/><polygon class="cls-2" points="231.31 328.65 223.27 326.5 223.27 326.5 231.31 328.65"/><polygon class="cls-2" points="241.15 331.29 247.17 332.9 231.31 328.65 241.15 331.29"/><path class="cls-2" d="M222.83,326.06l.44.44,8,2.16,15.86,4.25,99.16,26.57.08-.3L320,352.09Z"/><path class="cls-3" d="M209.9,327.16l-97.06,26a108.62,108.62,0,0,0,26.58,46.25l72.94-72.94Z"/><polygon class="cls-3" points="179.75 335.24 112.83 353.19 112.83 353.19 209.9 327.16 179.75 335.24"/><polygon class="cls-3" points="112.83 353.19 112.83 353.19 179.75 335.24 112.83 353.19"/><polygon class="cls-3" points="212.35 326.5 212.35 326.5 209.9 327.16 212.35 326.5"/><polygon class="cls-3" points="209.9 327.16 212.35 326.5 212.35 326.5 179.75 335.24 209.9 327.16"/><polygon class="cls-3" points="112.83 353.19 179.75 335.24 212.35 326.5 212.35 326.5 112.83 353.18 112.83 353.19"/><polygon class="cls-3" points="112.83 353.18 212.35 326.5 212.35 326.5 180.8 334.96 112.83 353.18 112.83 353.18"/><polygon class="cls-3" points="180.8 334.96 212.35 326.5 212.35 326.5 206.07 328.18 180.8 334.96"/><polygon class="cls-3" points="212.35 326.5 212.35 326.5 206.07 328.18 212.35 326.5"/><polygon class="cls-3" points="112.83 353.18 180.8 334.96 112.83 353.18 112.83 353.18"/><polygon class="cls-3" points="180.8 334.96 206.07 328.18 112.83 353.18 112.83 353.18 180.8 334.96"/><polygon class="cls-3" points="112.83 353.18 206.07 328.18 212.35 326.5 212.35 326.5 112.83 353.17 112.83 353.18"/><path class="cls-3" d="M112.83,353.17l99.53-26.68.44-.44-100,26.82Z"/><path class="cls-2" d="M304.43,412.24l-1,.92-1.35,1.27c-.52.48-1,1-1.57,1.43l-1.38,1.23c-.54.47-1.08.92-1.63,1.38l-1.41,1.17c-.56.45-1.12.89-1.69,1.34L293,422.09c-.58.44-1.17.87-1.76,1.3l-1.43,1c-.62.44-1.24.86-1.87,1.29-.46.32-.92.64-1.39,1-.68.46-1.38.89-2.07,1.34l-1.25.8c-1,.61-2,1.2-3,1.78l-.78.45c-1,.58-2,1.15-3.07,1.71l-1.3.67c-.74.38-1.47.77-2.22,1.14l-1.5.71c-.69.33-1.38.67-2.08,1l-1.6.7c-.68.3-1.35.6-2,.88l-1.66.67-2,.8-1.71.63-2,.72-1.75.58-2,.65-1.79.53-1.3.38,1.64,6.1.85,3.15,1.48-.42,1.39-.41.46-.14,2.26-.72.8-.26,1-.33c.77-.26,1.53-.54,2.29-.81l.07,0,1.65-.6c.77-.29,1.54-.6,2.31-.91l1.65-.66c.79-.33,1.58-.68,2.36-1l1.54-.68c.83-.38,1.65-.78,2.48-1.17l1.37-.65c.54-.27,1.08-.55,1.61-.83l1.18-.61,1-.51q3.77-2,7.42-4.29l1-.63c.87-.55,1.74-1.11,2.61-1.68l1.28-.88c.75-.51,1.5-1,2.24-1.55l1.39-1c.69-.5,1.37-1,2.05-1.52l1.43-1.13c.65-.51,1.29-1,1.93-1.54l1.45-1.21c.62-.52,1.23-1,1.84-1.56s1-.86,1.44-1.29,1.18-1.06,1.76-1.6L310,420l1.12-1.09Z"/><path class="cls-2" d="M288.24,437l.1-.07.82-.53-1,.63Z"/><path class="cls-2" d="M295.43,432.18l.45-.33.8-.59-1.39,1Z"/><path class="cls-2" d="M302.37,426.84l.27-.23.9-.76-1.45,1.21Z"/><path class="cls-2" d="M279.83,441.79l.92-.48h0l-1,.51Z"/><path class="cls-2" d="M298.93,429.57l.39-.3.85-.67-1.43,1.13Z"/><path class="cls-2" d="M310,420l-1.43,1.36Z"/><path class="cls-2" d="M291.86,434.64l.41-.28.78-.54-1.28.88Z"/><path class="cls-2" d="M259.45,450.39h0l.78-.26Z"/><path class="cls-2" d="M305.75,424l.11-.1,1-.87c-.48.43-1,.86-1.44,1.29Z"/><path class="cls-2" d="M263.54,449h0l.07,0Z"/><path class="cls-2" d="M255.34,451.66h0l1.35-.4Z"/><path class="cls-2" d="M279.69,441.86l.07,0-1.18.61Z"/><path class="cls-2" d="M290.1,435.78c.53-.34,1.06-.67,1.58-1l.08-.06c-.86.57-1.73,1.13-2.61,1.68Z"/><path class="cls-2" d="M301.15,427.82l.69-.55.25-.21c-.64.52-1.28,1-1.93,1.54Z"/><path class="cls-2" d="M308,422l.18-.16.45-.43c-.58.54-1.17,1.07-1.76,1.6Z"/><path class="cls-2" d="M294,433.2l1.21-.84.12-.09c-.74.53-1.49,1-2.24,1.55Z"/><path class="cls-2" d="M280.76,441.31q1.76-.94,3.49-1.94l1-.6c1-.56,1.91-1.13,2.85-1.71l0,0q-3.64,2.27-7.42,4.29Z"/><path class="cls-2" d="M297.61,430.56l.94-.69.18-.14c-.68.52-1.36,1-2.05,1.52Z"/><path class="cls-2" d="M310,420c.38-.36.76-.71,1.13-1.08h0Z"/><path class="cls-2" d="M304.6,425l.44-.37.34-.31c-.61.53-1.22,1-1.84,1.56Z"/><path class="cls-2" d="M291.77,434.7l-.08.06.09-.06.08-.06Z"/><path class="cls-2" d="M289.16,436.39l-.82.53.76-.49,1-.65Z"/><path class="cls-2" d="M293,433.82l-.78.54.77-.53.91-.63Z"/><path class="cls-2" d="M303.54,425.85l-.9.76.92-.77,1-.87Z"/><path class="cls-2" d="M295.29,432.27l-.12.09.14-.09.13-.09Z"/><path class="cls-2" d="M298.73,429.72l-.18.14.19-.14.19-.15Z"/><path class="cls-2" d="M302.1,427.06l-.25.21.27-.21.26-.22Z"/><path class="cls-2" d="M306.82,423l-1,.87,1-.88,1.09-1Z"/><path class="cls-2" d="M311.15,419c-.37.37-.76.72-1.13,1.08l-1.43,1.36-.45.43.46-.42,1.46-1.38,1.1-1.06Z"/><path class="cls-2" d="M305.38,424.29l-.34.31.35-.3.36-.32Z"/><path class="cls-2" d="M296.68,431.25l-.8.59.8-.59.93-.69Z"/><path class="cls-2" d="M300.17,428.6l-.85.67.86-.68,1-.77Z"/><path class="cls-2" d="M279.77,441.82l-.07,0,.06,0,.08,0Z"/><circle class="cls-2" cx="280.76" cy="441.31" transform="translate(-166.05 169.39) rotate(-26.21)"/><path class="cls-2" d="M285.27,438.76l-1,.6Z"/><path class="cls-2" d="M288.18,437l0,0,.06,0,0,0Z"/><polygon class="cls-2" points="304.43 412.24 311.14 418.95 311.14 418.95 304.43 412.24 304.43 412.24"/><polygon class="cls-2" points="304.43 412.24 311.14 418.95 311.14 418.95 304.43 412.24 304.43 412.24"/><path class="cls-2" d="M304.44,412.23h0l6.71,6.71h0l-6-6Z"/><polygon class="cls-2" points="309.64 417.43 305.17 412.96 311.15 418.94 311.15 418.94 309.64 417.43"/><polygon class="cls-2" points="309.64 417.43 311.15 418.94 311.15 418.94 309.67 417.46 309.64 417.43"/><polygon class="cls-2" points="309.67 417.46 311.15 418.94 311.15 418.94 310.52 418.31 309.67 417.46"/><polygon class="cls-2" points="311.14 418.95 311.14 418.95 311.15 418.97 311.15 418.97 311.14 418.95"/><polygon class="cls-2" points="311.15 418.97 311.15 418.97 311.14 418.95 311.14 418.95 311.15 418.97"/><circle class="cls-2" cx="311.15" cy="418.97" transform="translate(-182.61 250) rotate(-34.51)"/><path class="cls-2" d="M311.15,418.94h0Z"/><polygon class="cls-2" points="311.15 418.94 311.16 418.95 311.16 418.95 311.15 418.94 311.15 418.94"/><polygon class="cls-2" points="311.15 418.94 311.16 418.95 311.16 418.95 311.15 418.94 311.15 418.94"/><polygon class="cls-2" points="311.15 418.94 311.16 418.95 311.16 418.95 311.15 418.94 311.15 418.94"/><path class="cls-1" d="M248.44,443.6l-1.27.3-1.84.44-2,.44-1.86.38-2,.37-1.87.32-2.06.3-1.88.26-2.07.24-1.88.2-2.1.17-1.85.14c-.74,0-1.48.07-2.22.11l-1.74.08c-1.2,0-2.41.06-3.61.06h-.35l-1.68,0c-.74,0-1.48,0-2.21,0l-1.88-.09-2.08-.1L208,447l-2-.17-1.92-.21-2-.23-1.92-.27-2-.29-1.9-.33-2-.36-1.88-.38-2-.43-1.87-.44-1.25-.3-2.4,8.88,1.47.38,2,.48,2.2.49,2,.43,2.18.41,2.05.37.16,0,2.1.32,1.94.29c.83.11,1.66.2,2.49.3l1.75.2c.89.09,1.78.16,2.67.23l1.58.13c1,.07,2.07.12,3.1.17l1.16.06c2.23.08,4.47.09,6.7.06l1.65,0,1.63-.08c.88,0,1.76-.08,2.64-.14l1.81-.15c.82-.07,1.63-.13,2.45-.21l1.89-.22c.79-.09,1.58-.18,2.37-.28l1.91-.28c.78-.12,1.56-.23,2.33-.36l1.92-.34,2.31-.43,1.92-.41,2.28-.5,1.92-.47,1.49-.38Z"/><path class="cls-1" d="M208.08,456.45l1.22.1h0l-1.58-.13Z"/><path class="cls-1" d="M203.4,456l1.66.19h0l-1.75-.2Z"/><path class="cls-1" d="M213.27,456.77h.33l-1.16-.06Z"/><path class="cls-1" d="M213.6,456.78c2.16.08,4.32.09,6.49.07h.22C218.07,456.88,215.83,456.87,213.6,456.78Z"/><path class="cls-1" d="M198.8,455.39l.11,0-2.1-.32Z"/><path class="cls-1" d="M200.89,455.7l2.07.25.37,0c-.83-.1-1.66-.19-2.49-.3Z"/><path class="cls-1" d="M209.44,456.57l1.35.07,1.65.09c-1,0-2.07-.1-3.1-.17Z"/><path class="cls-1" d="M205.16,456.2l1.81.16.78.06c-.89-.07-1.78-.14-2.67-.23Z"/><path class="cls-1" d="M209.34,456.56h0Z"/><path class="cls-1" d="M207.76,456.42l-.78-.06.27,0,.83.07Z"/><path class="cls-1" d="M205.08,456.19h0Z"/><path class="cls-1" d="M212.44,456.72l-1.65-.09.68,0,1.79.09Z"/><path class="cls-1" d="M203.33,456l-.37,0H203l.39,0Z"/><path class="cls-1" d="M213.6,456.78h.06c.66,0,1.33,0,2,0q2.12,0,4.24,0h.19C217.92,456.88,215.76,456.86,213.6,456.78Z"/><path class="cls-1" d="M245.14,453.9l-1.92.41Z"/><polygon class="cls-1" points="184.78 452.51 184.78 452.51 187.18 443.63 187.18 443.63 184.78 452.51"/><path class="cls-1" d="M249.35,452.93l-1.92.47Z"/><path class="cls-1" d="M223.59,456.73l-1.63.08Z"/><path class="cls-1" d="M232.38,456l-1.89.22Z"/><path class="cls-1" d="M236.65,455.44l-1.91.28Z"/><path class="cls-1" d="M240.91,454.74l-1.92.34Z"/><path class="cls-1" d="M228,456.43l-1.81.15Z"/><path class="cls-1" d="M249.35,452.93l1.5-.37v0Z"/><path class="cls-1" d="M243.22,454.31l-2.31.43Z"/><path class="cls-1" d="M220.44,456.85l1.52,0-1.65,0Z"/><path class="cls-1" d="M247.42,453.4l-2.28.5Z"/><path class="cls-1" d="M239,455.08c-.78.13-1.55.24-2.33.36C237.43,455.33,238.21,455.21,239,455.08Z"/><path class="cls-1" d="M234.74,455.72c-.79.11-1.58.19-2.37.28C233.16,455.91,234,455.83,234.74,455.72Z"/><path class="cls-1" d="M230.49,456.22c-.82.08-1.63.15-2.45.21C228.86,456.37,229.67,456.3,230.49,456.22Z"/><path class="cls-1" d="M226.23,456.59c-.88.06-1.76.1-2.64.14C224.47,456.68,225.35,456.65,226.23,456.59Z"/><path class="cls-1" d="M220.3,456.85h0Z"/><path class="cls-1" d="M219.9,456.86h0Z"/><path class="cls-1" d="M250.84,452.56l-1.5.37-1.92.47-2.28.5-1.92.41-2.31.43-1.92.34c-.78.13-1.55.24-2.33.36l-1.91.28c-.79.11-1.58.19-2.37.28l-1.89.22c-.82.08-1.63.15-2.45.21l-1.81.15c-.88.06-1.76.1-2.64.14l-1.63.08-1.52,0,1.73,0,1.13,0c1,0,2.09-.08,3.13-.14l1.51-.11c.92-.06,1.83-.13,2.75-.21l1.67-.18c.86-.09,1.72-.18,2.58-.28l1.76-.24c.82-.11,1.65-.23,2.47-.36L241,455c.8-.14,1.6-.27,2.4-.43l1.85-.37,2.34-.5,1.87-.44,1.48-.37Z"/><path class="cls-1" d="M243.42,454.52l1.73-.35.08,0-1.85.37Z"/><path class="cls-1" d="M239.22,455.25l1.59-.27.16,0-1.81.31Z"/><path class="cls-1" d="M230.76,456.31l1.21-.13.38,0-1.67.18Z"/><path class="cls-1" d="M235,455.85l1.44-.2.26,0-1.76.24Z"/><path class="cls-1" d="M222.24,456.83h.12l.95,0-1.13,0Z"/><path class="cls-1" d="M247.59,453.65l1.83-.43h0l-1.87.44Z"/><path class="cls-1" d="M226.51,456.64l.85-.06.59,0-1.51.11Z"/><path class="cls-1" d="M245.38,454.12l2.13-.45h0l-2.34.5Z"/><path class="cls-1" d="M237.16,455.55l1.9-.27.11,0c-.82.13-1.65.24-2.47.36Z"/><path class="cls-1" d="M225.21,456.7l1.08,0h.14c-1,.06-2.09.1-3.13.14Z"/><path class="cls-1" d="M229,456.45l1.52-.12h.14c-.92.08-1.83.15-2.75.21Z"/><path class="cls-1" d="M241.27,454.9l2-.36.08,0c-.8.15-1.6.29-2.4.43Z"/><path class="cls-1" d="M233.06,456.07l1.75-.19.13,0c-.86.11-1.72.19-2.58.28Z"/><path class="cls-1" d="M250.92,452.85l-1.48.37h.05l1.43-.35Z"/><path class="cls-1" d="M220.2,456.85l2,0-1.73,0Z"/><path class="cls-1" d="M245.23,454.15l-.08,0,.16,0,.08,0Z"/><path class="cls-1" d="M241,455l-.16,0,.3-.05.15,0Z"/><path class="cls-1" d="M223.3,456.78l-.95,0,1.88-.08,1,0Z"/><path class="cls-1" d="M247.56,453.66h0Z"/><path class="cls-1" d="M249.44,453.22h0Z"/><path class="cls-1" d="M243.38,454.53l-.08,0h0l.08,0Z"/><path class="cls-1" d="M232.36,456.14l-.38,0,.72-.08.37,0Z"/><path class="cls-1" d="M230.69,456.32h0Z"/><path class="cls-1" d="M234.94,455.86l-.13,0h.06l.13,0Z"/><path class="cls-1" d="M226.44,456.64h0Z"/><path class="cls-1" d="M222.17,456.83l-2,0H220c.68,0,1.37,0,2.05,0h.07Z"/><path class="cls-1" d="M227.94,456.53l-.59,0,1.11-.08.57,0Z"/><path class="cls-1" d="M239.17,455.26l-.11,0h.06l.11,0Z"/><path class="cls-1" d="M236.69,455.62l-.26,0,.47-.06.25,0Z"/><path class="cls-1" d="M187.16,443.62l-2.3,8.55-.09.33h0l2.4-8.88Z"/><polygon class="cls-1" points="184.85 452.19 184.77 452.51 184.77 452.51 184.86 452.18 184.85 452.19"/><polygon class="cls-1" points="184.84 452.26 184.77 452.51 184.77 452.51 184.85 452.19 184.84 452.26"/><polygon class="cls-1" points="184.77 452.51 184.77 452.51 184.84 452.26 184.77 452.51"/><polygon class="cls-1" points="248.44 443.6 250.84 452.55 250.84 452.55 248.44 443.6 248.44 443.6"/><polygon class="cls-1" points="250.84 452.55 250.84 452.55 250.84 452.56 250.84 452.56 250.84 452.55"/><polygon class="cls-1" points="250.84 452.56 250.84 452.56 250.92 452.85 250.92 452.85 250.84 452.56"/><path class="cls-1" d="M248.47,443.6h0l2.4,8.95h0Z"/><polygon class="cls-1" points="248.47 443.6 250.86 452.55 250.86 452.55 248.47 443.6 248.47 443.6"/><circle class="cls-1" cx="250.85" cy="452.55" r="0.01" transform="translate(-265.14 413.98) rotate(-56.73)"/><path class="cls-1" d="M250.86,452.55v0h0l.08.29h0l-.08-.3Z"/><path class="cls-1" d="M250.92,452.85h0Z"/><path class="cls-1" d="M248.48,443.59h0l2.39,8.95h0l-.53-2Z"/><polygon class="cls-1" points="248.48 443.59 250.35 450.57 249.81 448.55 248.48 443.59 248.48 443.59"/><polygon class="cls-1" points="248.48 443.59 248.48 443.59 249.81 448.55 249.8 448.52 248.48 443.59"/><polygon class="cls-1" points="249.8 448.52 248.48 443.59 248.48 443.59 249.8 448.52"/><path class="cls-1" d="M250.86,452.55l.08.3h0l-.08-.3Z"/><path class="cls-1" d="M250.94,452.85h0Z"/><polygon class="cls-1" points="250.88 452.54 250.88 452.54 250.35 450.57 250.88 452.54"/><polygon class="cls-1" points="249.81 448.55 250.35 450.57 250.88 452.54 250.88 452.54 250.56 451.38 249.81 448.55"/><polygon class="cls-1" points="249.8 448.52 249.81 448.55 250.56 451.38 250.56 451.37 249.8 448.52"/><polygon class="cls-1" points="249.8 448.52 250.56 451.37 250.38 450.7 248.48 443.59 248.48 443.59 249.8 448.52"/><polygon class="cls-1" points="250.88 452.54 250.96 452.84 250.96 452.84 250.88 452.54 250.88 452.54"/><polygon class="cls-1" points="250.88 452.54 250.96 452.84 250.96 452.84 250.88 452.54 250.88 452.54"/><circle class="cls-1" cx="250.96" cy="452.84" transform="translate(-249.23 586.48) rotate(-75.96)"/><path class="cls-2" d="M136.64,400.89l-1.13-1.2c-.44-.48-.88-1-1.31-1.45L133.1,397c-.43-.49-.85-1-1.27-1.5l-1-1.25c-.42-.51-.82-1-1.23-1.55s-.66-.84-1-1.27-.8-1.08-1.2-1.62-.62-.84-.92-1.26-.8-1.15-1.19-1.73c-.28-.41-.56-.81-.83-1.22-.43-.64-.84-1.29-1.25-1.95-.22-.35-.46-.7-.68-1.06q-.93-1.5-1.82-3l-.12-.22q-.83-1.45-1.62-2.93c-.19-.36-.37-.73-.56-1.09-.36-.69-.72-1.39-1.07-2.09-.21-.42-.41-.85-.61-1.28-.31-.65-.62-1.3-.92-2-.21-.46-.4-.92-.6-1.37-.28-.63-.56-1.27-.82-1.9-.2-.48-.39-1-.58-1.44s-.5-1.25-.74-1.89-.36-1-.54-1.48-.45-1.25-.67-1.88-.34-1-.5-1.52-.41-1.25-.6-1.88-.31-1-.46-1.56-.23-.74-.33-1.12l-8.47,2.27.28,1c.16.56.33,1.12.5,1.67s.43,1.36.65,2,.36,1.09.54,1.64.48,1.37.73,2c.19.53.38,1.06.58,1.59.26.69.54,1.38.81,2.06.2.51.4,1,.61,1.52.29.71.6,1.4.91,2.1.21.48.41,1,.63,1.44.33.73.69,1.46,1,2.19.21.43.41.87.62,1.3.4.82.83,1.63,1.25,2.44.17.33.34.67.51,1q1.83,3.41,3.87,6.71l.6.94c.49.77,1,1.54,1.49,2.31.27.4.55.79.82,1.19.45.67.91,1.33,1.38,2,.31.43.63.85.94,1.28.45.61.9,1.23,1.36,1.83.34.44.69.88,1,1.32s.9,1.15,1.36,1.72.74.89,1.11,1.33.92,1.1,1.39,1.64l1.17,1.32c.47.53.94,1.05,1.42,1.57l1.23,1.3.92,1,6.08-6.08Z"/><polygon class="cls-2" points="101.45 356.25 101.45 356.25 109.92 353.97 109.92 353.97 101.45 356.25"/><polygon class="cls-2" points="109.92 353.97 101.45 356.24 101.45 356.25 109.92 353.97 109.92 353.97"/><polygon class="cls-2" points="101.45 356.24 101.45 356.24 109.92 353.97 109.92 353.97 101.45 356.24"/><path class="cls-2" d="M117.9,391.41c-.27-.4-.55-.79-.82-1.19C117.35,390.62,117.62,391,117.9,391.41Z"/><path class="cls-2" d="M127.63,403.83l-1.17-1.32Z"/><path class="cls-2" d="M103.42,362.58c-.19-.54-.36-1.09-.54-1.64C103.05,361.49,103.23,362,103.42,362.58Z"/><path class="cls-2" d="M102.22,358.9c-.17-.56-.33-1.11-.5-1.67C101.89,357.78,102,358.34,102.22,358.9Z"/><polygon class="cls-2" points="137.28 401.57 131.2 407.66 131.2 407.66 137.28 401.57 137.28 401.57"/><path class="cls-2" d="M130.28,406.7l-1.23-1.3Z"/><path class="cls-2" d="M111.12,380.26c-.18-.33-.34-.66-.51-1C110.78,379.6,110.94,379.93,111.12,380.26Z"/><path class="cls-2" d="M106.16,369.8c-.21-.51-.41-1-.61-1.52C105.75,368.79,105.95,369.3,106.16,369.8Z"/><path class="cls-2" d="M104.73,366.21c-.2-.53-.39-1.06-.58-1.59C104.34,365.15,104.53,365.69,104.73,366.21Z"/><path class="cls-2" d="M109.36,376.83c-.21-.43-.41-.87-.62-1.3C108.94,376,109.14,376.4,109.36,376.83Z"/><path class="cls-2" d="M120.21,394.68c-.31-.43-.63-.85-.94-1.28C119.58,393.83,119.9,394.25,120.21,394.68Z"/><path class="cls-2" d="M107.7,373.34c-.22-.48-.42-1-.63-1.44C107.28,372.38,107.48,372.87,107.7,373.34Z"/><path class="cls-2" d="M122.6,397.83c-.34-.44-.69-.88-1-1.32C121.9,397,122.25,397.39,122.6,397.83Z"/><path class="cls-2" d="M125.07,400.88c-.37-.44-.74-.88-1.11-1.33C124.33,400,124.7,400.43,125.07,400.88Z"/><path class="cls-2" d="M115.59,387.91,115,387Z"/><path class="cls-2" d="M137.28,401.57l-6.08,6.08.15.16,6.08-6.08Z"/><polygon class="cls-2" points="137.44 401.73 131.36 407.82 131.36 407.82 137.44 401.73 137.44 401.73"/><polygon class="cls-2" points="137.44 401.73 131.36 407.82 131.36 407.82 137.44 401.73 137.44 401.73"/><polygon class="cls-2" points="131.36 407.82 131.36 407.82 137.44 401.74 137.44 401.73 131.36 407.82"/><polygon class="cls-2" points="137.44 401.74 131.36 407.82 131.36 407.82 137.05 402.13 137.44 401.74 137.44 401.74"/><polygon class="cls-2" points="137.05 402.13 137.44 401.74 137.44 401.74 137.05 402.13"/><path class="cls-2" d="M124,399.55c-.46-.57-.91-1.15-1.36-1.72C123,398.4,123.5,399,124,399.55Z"/><path class="cls-2" d="M107.07,371.91c-.31-.7-.62-1.4-.91-2.1C106.45,370.51,106.76,371.21,107.07,371.91Z"/><path class="cls-2" d="M105.54,368.28c-.28-.69-.55-1.37-.81-2.06C105,366.9,105.27,367.59,105.54,368.28Z"/><path class="cls-2" d="M110.61,379.27c-.42-.81-.85-1.62-1.25-2.44C109.76,377.65,110.18,378.46,110.61,379.27Z"/><path class="cls-2" d="M108.74,375.53c-.35-.73-.7-1.45-1-2.19C108,374.08,108.39,374.8,108.74,375.53Z"/><path class="cls-2" d="M126.46,402.52c-.47-.54-.93-1.09-1.39-1.64C125.53,401.42,126,402,126.46,402.52Z"/><path class="cls-2" d="M129.05,405.4c-.48-.52-1-1-1.42-1.57C128.1,404.36,128.57,404.89,129.05,405.4Z"/><path class="cls-2" d="M119.27,393.4c-.47-.66-.92-1.32-1.38-2C118.35,392.07,118.8,392.74,119.27,393.4Z"/><path class="cls-2" d="M131.19,407.67h0l-.92-1C130.58,407,130.88,407.35,131.19,407.67Z"/><path class="cls-2" d="M117.08,390.22c-.51-.76-1-1.53-1.49-2.31C116.08,388.68,116.57,389.45,117.08,390.22Z"/><path class="cls-2" d="M101.44,356.25c.09.33.19.65.29,1l-.28-1Z"/><path class="cls-2" d="M102.87,360.94c-.22-.68-.44-1.36-.65-2C102.43,359.58,102.65,360.26,102.87,360.94Z"/><path class="cls-2" d="M121.57,396.51c-.46-.6-.91-1.22-1.36-1.83C120.66,395.29,121.11,395.9,121.57,396.51Z"/><path class="cls-2" d="M104.15,364.62c-.25-.68-.5-1.36-.73-2C103.65,363.26,103.9,363.94,104.15,364.62Z"/><path class="cls-2" d="M115,387q-2-3.29-3.87-6.71Q112.95,383.68,115,387Z"/><polygon class="cls-2" points="101.45 356.25 101.44 356.25 101.44 356.25 101.45 356.25 101.45 356.25"/><polygon class="cls-2" points="101.44 356.25 101.44 356.25 101.45 356.25 101.45 356.24 101.44 356.25"/><circle class="cls-2" cx="101.44" cy="356.24" r="0.01" transform="translate(-263.95 416.97) rotate(-83.54)"/><path class="cls-2" d="M131.2,407.66h0c-.31-.32-.61-.64-.91-1l-1.23-1.3c-.48-.52-1-1-1.42-1.57l-1.17-1.32c-.47-.54-.93-1.09-1.39-1.64s-.74-.88-1.11-1.33-.91-1.15-1.36-1.72-.69-.88-1-1.32c-.46-.6-.91-1.22-1.36-1.83-.31-.43-.63-.85-.94-1.28-.47-.66-.92-1.32-1.38-2-.27-.4-.55-.79-.82-1.19-.51-.76-1-1.53-1.49-2.31L115,387q-2-3.29-3.87-6.71c-.18-.33-.34-.66-.51-1-.42-.81-.85-1.62-1.25-2.44-.21-.43-.41-.87-.62-1.3-.35-.73-.7-1.45-1-2.19-.22-.48-.42-1-.63-1.44-.31-.7-.62-1.4-.91-2.1-.21-.51-.41-1-.61-1.52-.28-.69-.55-1.37-.81-2.06-.2-.53-.39-1.06-.58-1.59-.25-.68-.5-1.36-.73-2s-.36-1.09-.54-1.64-.44-1.36-.65-2-.33-1.11-.5-1.67c-.09-.32-.2-.65-.29-1l-.07,0c.12.43.24.85.36,1.27s.33,1.12.5,1.67.43,1.36.65,2,.36,1.1.55,1.65.48,1.35.72,2,.39,1.08.59,1.61.53,1.36.8,2c.21.52.41,1,.63,1.56.29.69.59,1.37.89,2,.22.5.43,1,.66,1.49.32.71.66,1.41,1,2.12.22.46.43.92.65,1.37.38.78.79,1.55,1.19,2.31.19.37.38.75.58,1.12q1.82,3.4,3.86,6.69c.23.37.47.73.7,1.09.46.72.92,1.44,1.39,2.16.29.43.58.85.88,1.28.44.64.87,1.27,1.32,1.9.32.45.65.89,1,1.34s.87,1.19,1.31,1.77.71.9,1.06,1.35.88,1.13,1.34,1.69.75.9,1.13,1.35.9,1.08,1.37,1.61l1.19,1.34c.46.52.93,1,1.4,1.55l1.25,1.32.75.77.16-.16Z"/><polygon class="cls-2" points="101.36 356.27 101.36 356.27 101.44 356.25 101.44 356.25 101.36 356.27"/><polygon class="cls-2" points="101.36 356.27 101.36 356.27 101.44 356.25 101.44 356.25 101.36 356.27"/><path class="cls-2" d="M102.22,359.22h0c-.17-.56-.33-1.12-.5-1.67h0C101.89,358.11,102.05,358.66,102.22,359.22Z"/><path class="cls-2" d="M104.73,366.54h0c-.2-.53-.4-1.07-.59-1.61h0C104.34,365.48,104.53,366,104.73,366.54Z"/><path class="cls-2" d="M117.94,391.8v0c-.29-.43-.59-.85-.88-1.28h0C117.36,391,117.65,391.38,117.94,391.8Z"/><path class="cls-2" d="M120.24,395h0c-.33-.45-.66-.89-1-1.34h0C119.59,394.17,119.92,394.61,120.24,395Z"/><path class="cls-2" d="M125.08,401.22h0c-.38-.45-.76-.9-1.13-1.35h0C124.33,400.33,124.71,400.77,125.08,401.22Z"/><path class="cls-2" d="M127.64,404.17h0l-1.19-1.34h0Z"/><path class="cls-2" d="M111.13,380.6h0c-.2-.37-.38-.75-.58-1.12v0C110.75,379.88,110.93,380.24,111.13,380.6Z"/><path class="cls-2" d="M109.36,377.17h0c-.22-.45-.44-.91-.65-1.37v0C108.93,376.27,109.14,376.72,109.36,377.17Z"/><path class="cls-2" d="M107.71,373.68h0c-.23-.49-.44-1-.66-1.49v0C107.28,372.7,107.49,373.19,107.71,373.68Z"/><path class="cls-2" d="M103.42,362.91h0c-.19-.55-.37-1.1-.55-1.65h0C103.06,361.81,103.23,362.36,103.42,362.91Z"/><path class="cls-2" d="M115.66,388.34l0,0c-.23-.36-.47-.72-.7-1.09h0C115.21,387.65,115.44,388,115.66,388.34Z"/><path class="cls-2" d="M106.16,370.14h0c-.22-.52-.42-1-.63-1.56v0C105.75,369.11,106,369.63,106.16,370.14Z"/><path class="cls-2" d="M122.62,398.18h0c-.35-.45-.71-.9-1.06-1.35h0C121.91,397.29,122.27,397.73,122.62,398.18Z"/><polygon class="cls-2" points="101.36 356.26 101.36 356.27 101.44 356.25 101.43 356.24 101.36 356.26"/><path class="cls-2" d="M131.2,407.66l-.16.16.15.16.16-.16Z"/><polygon class="cls-2" points="131.36 407.82 131.2 407.98 131.2 407.98 131.36 407.82 131.36 407.82"/><polygon class="cls-2" points="131.36 407.82 131.2 407.98 131.2 407.98 131.36 407.82 131.36 407.82"/><polygon class="cls-2" points="131.36 407.82 131.2 407.98 131.2 407.98 131.36 407.82 131.36 407.82"/><polygon class="cls-2" points="131.36 407.82 131.2 407.98 131.2 407.98 131.36 407.82 131.36 407.82"/><path class="cls-1" d="M126.85,407.77c-.48-.52-1-1-1.42-1.57s-.83-.92-1.23-1.39-.93-1.09-1.39-1.63-.79-.93-1.17-1.4-.91-1.14-1.36-1.72-.73-.93-1.09-1.4-.9-1.21-1.34-1.81-.68-.91-1-1.38c-.46-.64-.9-1.3-1.35-2-.3-.44-.6-.87-.9-1.31-.49-.74-1-1.49-1.44-2.24-.23-.36-.47-.72-.7-1.09q-2.09-3.37-4-6.86c-.19-.36-.38-.73-.57-1.1-.42-.81-.84-1.61-1.24-2.42-.22-.45-.44-.92-.65-1.37-.35-.73-.7-1.46-1-2.2-.23-.5-.44-1-.66-1.51-.31-.71-.62-1.41-.92-2.13-.22-.53-.43-1.06-.64-1.59-.28-.7-.56-1.39-.83-2.09-.21-.55-.4-1.1-.6-1.65s-.5-1.38-.74-2.08-.38-1.13-.56-1.7-.45-1.38-.66-2.08-.35-1.16-.52-1.74-.26-.87-.39-1.3l-8.83,2.37q.21.73.43,1.46c.18.62.37,1.23.56,1.84s.48,1.48.73,2.22.4,1.21.61,1.81.53,1.48.81,2.21.43,1.18.66,1.77c.29.74.59,1.48.89,2.22.23.57.46,1.14.7,1.71.32.76.66,1.5,1,2.25.24.54.48,1.09.72,1.62.36.78.74,1.55,1.11,2.32.24.5.48,1,.73,1.5.42.84.87,1.68,1.31,2.52.22.42.43.84.65,1.25q.94,1.74,1.94,3.45l.14.25q1.07,1.83,2.2,3.64c.25.4.52.79.77,1.19.51.8,1,1.59,1.55,2.38.32.48.65.94,1,1.42.48.7,1,1.4,1.45,2.09.36.5.73,1,1.1,1.49.48.65,1,1.3,1.44,1.94s.79,1,1.19,1.51,1,1.23,1.46,1.84.84,1,1.26,1.51,1,1.18,1.5,1.77.88,1,1.32,1.49,1,1.14,1.55,1.71.92,1,1.38,1.46l1.06,1.1,6.25-6.25c-.31-.32-.61-.65-.92-1Z"/><path class="cls-1" d="M108.09,398.46c-.33-.47-.66-.94-1-1.42C107.43,397.52,107.77,398,108.09,398.46Z"/><path class="cls-1" d="M110.64,402c-.37-.5-.74-1-1.1-1.49C109.9,401.05,110.28,401.54,110.64,402Z"/><path class="cls-1" d="M102.6,389.84l-.14-.25Z"/><path class="cls-1" d="M105.57,394.67c-.25-.4-.52-.79-.77-1.19C105.05,393.88,105.31,394.27,105.57,394.67Z"/><path class="cls-1" d="M91.94,366.75c-.21-.6-.41-1.2-.61-1.81C91.53,365.55,91.73,366.15,91.94,366.75Z"/><path class="cls-1" d="M93.41,370.73c-.23-.59-.44-1.18-.66-1.77C93,369.56,93.18,370.15,93.41,370.73Z"/><path class="cls-1" d="M95,374.66c-.24-.57-.47-1.14-.7-1.71C94.53,373.52,94.76,374.1,95,374.66Z"/><path class="cls-1" d="M100.52,386.13c-.22-.41-.43-.83-.65-1.25C100.09,385.3,100.3,385.72,100.52,386.13Z"/><path class="cls-1" d="M113.27,405.49c-.4-.5-.8-1-1.19-1.51C112.48,404.49,112.88,405,113.27,405.49Z"/><path class="cls-1" d="M96.72,378.54c-.25-.54-.48-1.08-.72-1.62C96.23,377.46,96.47,378,96.72,378.54Z"/><path class="cls-1" d="M98.56,382.37c-.25-.5-.48-1-.73-1.5C98.07,381.36,98.31,381.87,98.56,382.37Z"/><path class="cls-1" d="M90.6,362.73c-.19-.61-.38-1.23-.56-1.84C90.23,361.5,90.41,362.12,90.6,362.73Z"/><path class="cls-1" d="M115,407.69h0c.32.38.65.76,1,1.14-.42-.5-.85-1-1.26-1.51Z"/><path class="cls-1" d="M117.72,410.87l.55.61.55.61c-.44-.49-.89-1-1.32-1.49Z"/><path class="cls-1" d="M120.51,414l1,1.09.21.21c-.46-.48-.92-1-1.38-1.46Z"/><path class="cls-1" d="M112.09,404c-.49-.64-1-1.29-1.44-1.94C111.12,402.69,111.6,403.34,112.09,404Z"/><path class="cls-1" d="M91.33,364.95c-.25-.74-.49-1.48-.73-2.22C90.84,363.47,91.08,364.21,91.33,364.95Z"/><path class="cls-1" d="M92.75,369c-.27-.74-.55-1.47-.81-2.21C92.2,367.5,92.48,368.23,92.75,369Z"/><path class="cls-1" d="M94.3,373c-.3-.74-.6-1.48-.89-2.22C93.7,371.48,94,372.22,94.3,373Z"/><path class="cls-1" d="M104.8,393.48q-1.13-1.8-2.2-3.64Q103.67,391.67,104.8,393.48Z"/><path class="cls-1" d="M116.75,409.74l.51.6.24.26c-.51-.58-1-1.18-1.5-1.77Z"/><path class="cls-1" d="M97.83,380.86c-.38-.77-.75-1.54-1.11-2.32C97.08,379.32,97.46,380.09,97.83,380.86Z"/><path class="cls-1" d="M119.26,412.59l1,1.06.15.16c-.52-.56-1-1.14-1.55-1.71Z"/><path class="cls-1" d="M121.92,415.44l.89.92h0l-1.06-1.1Z"/><path class="cls-1" d="M99.87,384.88c-.44-.84-.88-1.67-1.31-2.52C99,383.21,99.43,384,99.87,384.88Z"/><path class="cls-1" d="M96,376.92c-.33-.75-.67-1.5-1-2.25C95.32,375.42,95.66,376.17,96,376.92Z"/><path class="cls-1" d="M102.46,389.59q-1-1.71-1.94-3.45Q101.46,387.87,102.46,389.59Z"/><path class="cls-1" d="M89.6,359.42c.14.49.3,1,.44,1.46q-.22-.73-.43-1.46Z"/><path class="cls-1" d="M107.12,397c-.53-.79-1-1.58-1.55-2.38C106.08,395.46,106.59,396.26,107.12,397Z"/><path class="cls-1" d="M109.54,400.55c-.49-.69-1-1.39-1.45-2.09C108.57,399.16,109.05,399.86,109.54,400.55Z"/><path class="cls-1" d="M114.42,407l0,0,.3.35c-.5-.61-1-1.23-1.46-1.84C113.66,406,114,406.47,114.42,407Z"/><path class="cls-1" d="M118.82,412.09l-.55-.61.53.6.46.5Z"/><path class="cls-1" d="M114.74,407.33l-.3-.35.3.38.28.33Z"/><path class="cls-1" d="M113.27,405.49c-.4-.5-.8-1-1.19-1.51s-1-1.29-1.44-1.94c-.37-.5-.74-1-1.1-1.49-.49-.69-1-1.39-1.45-2.09-.33-.47-.66-.94-1-1.42-.53-.79-1-1.58-1.55-2.38-.25-.4-.52-.79-.77-1.19q-1.13-1.8-2.2-3.64l-.14-.25q-1-1.71-1.94-3.45c-.22-.41-.43-.83-.65-1.25-.44-.84-.88-1.67-1.31-2.52-.25-.5-.48-1-.73-1.5-.38-.77-.75-1.54-1.11-2.32-.25-.54-.48-1.08-.72-1.62-.33-.75-.67-1.5-1-2.25-.24-.57-.47-1.14-.7-1.71-.3-.74-.6-1.48-.89-2.22-.23-.59-.44-1.18-.66-1.77s-.55-1.47-.81-2.21-.41-1.2-.61-1.81-.49-1.48-.73-2.22-.38-1.23-.56-1.84-.3-1-.44-1.46h0q.2.71.41,1.42c.19.63.38,1.26.57,1.89s.47,1.46.72,2.18.41,1.23.62,1.84.53,1.47.8,2.2.44,1.19.67,1.78c.29.75.59,1.48.9,2.23.23.57.46,1.14.7,1.7.32.77.67,1.52,1,2.28.24.53.47,1.07.71,1.6.37.8.76,1.6,1.15,2.4.23.47.45,1,.69,1.42.45.9.92,1.79,1.4,2.68.19.36.37.72.57,1.08q2,3.75,4.3,7.37l.62,1c.56.88,1.12,1.76,1.7,2.62.29.43.58.84.87,1.27.51.75,1,1.5,1.56,2.24.33.46.68.92,1,1.38.51.69,1,1.37,1.53,2,.37.48.75,1,1.12,1.43l1.21,1.52C114,406.47,113.66,406,113.27,405.49Z"/><path class="cls-1" d="M120.37,413.8l-.15-.16.15.16.14.14Z"/><path class="cls-1" d="M116,408.84c-.32-.38-.65-.75-1-1.14l.92,1.1.79.93Z"/><path class="cls-1" d="M117.5,410.61l-.24-.26.24.28.22.25Z"/><path class="cls-1" d="M121.75,415.26l-.21-.21.2.21.17.18Z"/><polygon class="cls-1" points="89.62 359.42 89.62 359.42 98.45 357.05 98.45 357.05 89.62 359.42"/><polygon class="cls-1" points="98.45 357.05 89.62 359.42 89.62 359.42 98.45 357.05 98.45 357.05"/><polygon class="cls-1" points="89.62 359.42 89.6 359.42 89.6 359.43 89.62 359.42 89.62 359.42"/><polygon class="cls-1" points="89.62 359.42 89.62 359.42 89.58 359.43 89.58 359.43 89.6 359.43 89.6 359.42 89.62 359.42"/><polygon class="cls-1" points="98.45 357.04 92.53 358.63 89.62 359.41 89.62 359.42 98.45 357.05 98.45 357.04"/><polygon class="cls-1" points="89.58 359.42 89.58 359.43 89.62 359.42 89.62 359.41 89.58 359.42"/><polygon class="cls-1" points="89.62 359.41 92.53 358.63 89.61 359.41 89.62 359.41"/><polygon class="cls-1" points="89.61 359.41 89.58 359.42 89.58 359.42 89.62 359.41 89.61 359.41"/><polygon class="cls-1" points="129.06 410.11 122.81 416.36 122.81 416.36 129.06 410.11 129.06 410.11"/><path class="cls-1" d="M117.73,410.88l.53.59,0,0-.55-.61Z"/><polygon class="cls-1" points="122.81 416.36 122.81 416.36 129.06 410.11 129.06 410.11 122.81 416.36"/><path class="cls-1" d="M115,407.7h0Z"/><path class="cls-1" d="M120.51,414l1,1.06,0,0-1-1.09Z"/><polygon class="cls-1" points="129.06 410.11 122.81 416.36 122.81 416.36 129.06 410.11 129.06 410.11"/><circle class="cls-1" cx="122.81" cy="416.36" transform="translate(-264.94 221.19) rotate(-46.85)"/><path class="cls-1" d="M109.56,400.6c.31.43.63.85.94,1.27l.07.09c-.34-.46-.68-.92-1-1.38Z"/><path class="cls-1" d="M104.81,393.54l.28.43.32.49-.62-1Z"/><circle class="cls-1" cx="122.81" cy="416.36" transform="translate(-264.94 221.19) rotate(-46.85)"/><path class="cls-1" d="M94.42,373.34c.17.41.33.83.51,1.24l0,.09c-.24-.56-.47-1.13-.7-1.7Z"/><path class="cls-1" d="M98.11,381.5l.39.8,0,.07c-.24-.47-.46-.95-.69-1.42Z"/><path class="cls-1" d="M118.26,411.47l.53.6,0,0-.53-.6Z"/><path class="cls-1" d="M90.06,361c.16.53.32,1.06.48,1.59l0,.1c-.2-.63-.39-1.26-.57-1.89Z"/><path class="cls-1" d="M117.72,410.87l-.22-.25h0l.22.25Z"/><path class="cls-1" d="M91.37,365.18c.17.5.33,1,.5,1.49l0,.1c-.21-.61-.42-1.23-.62-1.84Z"/><path class="cls-1" d="M112.1,404c.35.46.72.92,1.08,1.38l0,0c-.38-.48-.76-.95-1.12-1.43Z"/><path class="cls-1" d="M96.17,377.39c.16.36.32.72.48,1.07l0,.08c-.24-.53-.47-1.06-.71-1.6Z"/><path class="cls-1" d="M100.33,385.83l.13.24,0,.06c-.19-.36-.38-.72-.57-1.08Z"/><path class="cls-1" d="M121.52,415l.2.21,0,0-.2-.21Z"/><path class="cls-1" d="M120.51,414l-.14-.14h0l.14.14Z"/><path class="cls-1" d="M92.82,369.27c.17.46.34.92.51,1.38l0,.1c-.23-.59-.45-1.19-.67-1.78Z"/><path class="cls-1" d="M107.13,397.1c.24.35.48.69.72,1l.14.2c-.29-.42-.59-.84-.87-1.27Z"/><path class="cls-1" d="M115,407.69l-.28-.33h0c.39.48.79.95,1.19,1.42l0,0-.92-1.1Z"/><circle class="cls-1" cx="122.81" cy="416.36" transform="translate(-151.95 80.29) rotate(-22.83)"/><path class="cls-1" d="M119.27,412.6l.95,1h0l-1-1.06Z"/><path class="cls-1" d="M116.77,409.77l.48.57h0l-.51-.6Z"/><path class="cls-1" d="M114.44,407l0,0Z"/><path class="cls-1" d="M121.92,415.44h0l.89.92h0Z"/><path class="cls-1" d="M96.73,378.63c.26.57.54,1.14.82,1.7l.3.61c-.39-.8-.78-1.59-1.15-2.4Z"/><path class="cls-1" d="M120.22,413.64l.15.16h0l-.15-.16Z"/><path class="cls-1" d="M108.18,398.62c.45.64.89,1.29,1.34,1.93l0,0c-.53-.74-1-1.49-1.56-2.24Z"/><path class="cls-1" d="M91.95,366.86c.21.6.43,1.2.65,1.79l.11.3c-.27-.73-.54-1.46-.8-2.2Z"/><path class="cls-1" d="M110.67,402.1c.47.63.93,1.26,1.41,1.89l0,0c-.52-.68-1-1.36-1.53-2Z"/><path class="cls-1" d="M121.74,415.26h0l.17.18h0Z"/><path class="cls-1" d="M114.42,407l-1.21-1.52.06.07c.48.61,1,1.23,1.46,1.84v0l-.3-.38Z"/><path class="cls-1" d="M95,374.76c.25.58.51,1.15.76,1.72L96,377c-.34-.76-.68-1.52-1-2.28Z"/><path class="cls-1" d="M116.75,409.74l-.79-.93,0,0,.79.93Z"/><path class="cls-1" d="M98.57,382.44c.29.57.59,1.13.89,1.7l.48.91c-.47-.89-.94-1.78-1.4-2.68Z"/><path class="cls-1" d="M117.26,410.34l.24.28h0l-.24-.28Z"/><path class="cls-1" d="M89.58,359.43l.36,1.23.06.19q-.21-.71-.41-1.42Z"/><path class="cls-1" d="M119.26,412.59l-.46-.5h0l.46.5Z"/><path class="cls-1" d="M100.52,386.19c.32.59.66,1.18,1,1.77q1,1.7,2,3.37c.43.71.85,1.42,1.29,2.13l0,0q-2.27-3.62-4.3-7.37Z"/><path class="cls-1" d="M93.41,370.84c.23.59.47,1.17.7,1.75l.15.38c-.3-.74-.61-1.48-.9-2.23Z"/><path class="cls-1" d="M90.6,362.84c.19.62.4,1.23.6,1.84l.08.24c-.24-.73-.49-1.45-.72-2.18Z"/><path class="cls-1" d="M105.8,395.06c.43.66.85,1.33,1.29,2l0,0c-.58-.87-1.14-1.74-1.7-2.62Z"/><circle class="cls-1" cx="89.58" cy="359.43" transform="translate(-223.79 161.91) rotate(-43.78)"/><circle class="cls-1" cx="89.58" cy="359.42" transform="translate(-280.8 364.62) rotate(-76.81)"/><circle class="cls-1" cx="89.58" cy="359.42" transform="translate(-280.8 364.62) rotate(-76.81)"/><path class="cls-1" d="M95,374.67l0-.09,0,.09,0,.09Z"/><path class="cls-1" d="M96.69,378.55l0-.08,0,.08,0,.08Z"/><ellipse class="cls-1" cx="117.5" cy="410.62" rx="0.01" transform="translate(-262.05 214.76) rotate(-46.74)"/><path class="cls-1" d="M90.57,362.74l0-.1,0,.1,0,.1Z"/><path class="cls-1" d="M90,360.85l-.06-.19.06.2.06.19Z"/><path class="cls-1" d="M118.8,412.08l0,0h0l0,0Z"/><path class="cls-1" d="M91.29,364.92l-.08-.24.08.25.08.24Z"/><path class="cls-1" d="M94.27,373l-.15-.38.15.37.15.37Z"/><path class="cls-1" d="M93.38,370.74l0-.1,0,.1,0,.1Z"/><path class="cls-1" d="M92.71,369l-.11-.3.11.31.11.3Z"/><path class="cls-1" d="M91.91,366.76l0-.1,0,.1,0,.1Z"/><path class="cls-1" d="M96,377l-.21-.47.2.45.21.46Z"/><path class="cls-1" d="M109.55,400.58l0,0v0l0,0Z"/><path class="cls-1" d="M112.09,404l0,0h0l0,0Z"/><path class="cls-1" d="M116,408.81l0,0,0,0,0,0Z"/><path class="cls-1" d="M104.79,393.51l0,0,0,0,0,0Z"/><path class="cls-1" d="M110.56,402l-.07-.09.11.14.06.09Z"/><path class="cls-1" d="M105.41,394.46l-.32-.49.4.63.3.47Z"/><path class="cls-1" d="M108,398.34l-.14-.2.2.29.13.19Z"/><path class="cls-1" d="M97.84,380.94l-.3-.61.27.57.29.6Z"/><path class="cls-1" d="M107.11,397.08l0,0,0,0,0,0Z"/><path class="cls-1" d="M121.74,415.26l0,0h0l0,0Z"/><path class="cls-1" d="M100.49,386.13l0-.06,0,.06,0,.06Z"/><path class="cls-1" d="M99.93,385.05l-.48-.91.43.82.46.88Z"/><path class="cls-1" d="M114.74,407.36v0h0v0Z"/><ellipse class="cls-1" cx="120.37" cy="413.81" rx="0.01" transform="translate(-230.22 163.18) rotate(-38.22)"/><path class="cls-1" d="M101.52,388c.34.61.67,1.22,1,1.83l0,.06c.29.5.6,1,.9,1.49Q102.47,389.66,101.52,388Z"/><path class="cls-1" d="M98.53,382.37l0-.07,0,.07,0,.07Z"/><path class="cls-1" d="M113.21,405.44l0,0,.06.07,0,0Z"/><circle class="cls-1" cx="122.81" cy="416.36" transform="translate(-138.38 69.63) rotate(-20.56)"/><polygon class="cls-1" points="122.81 416.36 122.81 416.36 129.07 410.11 129.06 410.11 122.81 416.36"/><circle class="cls-1" cx="122.81" cy="416.36" transform="translate(-300.29 319.27) rotate(-60.64)"/></svg>