<svg id="Layer_1" data-name="Layer 1" xmlns="http://www.w3.org/2000/svg" viewBox="0 0 730.39 752.48"><defs><style>.cls-1{fill:#fff8ce;}.cls-2,.cls-4,.cls-6{fill:none;stroke-linecap:round;stroke-linejoin:round;stroke-width:2px;}.cls-2{stroke:#ed3766;}.cls-3{fill:#ed3766;}.cls-4{stroke:#fbc810;}.cls-5{fill:#fbc810;}.cls-6{stroke:#51c3f0;}.cls-7{fill:#51c3f0;}</style></defs><title>yg-beatles-170807-self_reference--rebooting</title><path class="cls-1" d="M38.78,504.71a1.53,1.53,0,0,0-.4-1.14,4.13,4.13,0,0,0-1.46-.77,6.39,6.39,0,0,1-1.61-.79,2.84,2.84,0,0,1-.83-.94A2.8,2.8,0,0,1,35,497.9a2.84,2.84,0,0,1,2.07-.77,3.07,3.07,0,0,1,1.56.39,2.66,2.66,0,0,1,1.05,1.09,3.22,3.22,0,0,1,.37,1.53H38.78a2.1,2.1,0,0,0-.44-1.43,1.62,1.62,0,0,0-1.28-.51,1.57,1.57,0,0,0-1.18.43,1.63,1.63,0,0,0-.42,1.19,1.39,1.39,0,0,0,.45,1.05,4,4,0,0,0,1.39.76,4.79,4.79,0,0,1,2.1,1.2A2.69,2.69,0,0,1,40,504.7a2.51,2.51,0,0,1-.79,1.94,3,3,0,0,1-2.14.73,3.46,3.46,0,0,1-1.6-.38,2.88,2.88,0,0,1-1.15-1.07,3,3,0,0,1-.42-1.58H35.2a1.93,1.93,0,0,0,.52,1.44,1.9,1.9,0,0,0,1.4.51,1.67,1.67,0,0,0,1.24-.42A1.57,1.57,0,0,0,38.78,504.71Z"/><path class="cls-1" d="M47.5,498.35H44.88v8.88H43.63v-8.88H41v-1.07H47.5Z"/><path class="cls-1" d="M52,503.2H50.23v4H49v-10h2.79A3,3,0,0,1,54,498a3.05,3.05,0,0,1,.75,2.23,3.09,3.09,0,0,1-.41,1.61,2.56,2.56,0,0,1-1.15,1l1.93,4.23v.08H53.75Zm-1.75-1.07h1.52a1.63,1.63,0,0,0,1.25-.51,1.92,1.92,0,0,0,.47-1.36q0-1.92-1.74-1.92h-1.5Z"/><path class="cls-1" d="M61,504.62H57.68l-.77,2.61H55.62l3.21-10H59.9l3.21,10H61.83Zm-3-1.07h2.71L59.36,499Z"/><path class="cls-1" d="M65.9,504.09,66,505.2l.2-1,1.59-6.95h1l1.54,6.95.2,1,.14-1.15L72,497.27h1.25l-2,10H70.11L68.45,500l-.1-.59-.1.59-1.72,7.25H65.39l-2-10h1.25Z"/><path class="cls-1" d="M74.66,507.23v-10H77.5a2.84,2.84,0,0,1,2,.66,2.64,2.64,0,0,1,.69,2,2.2,2.2,0,0,1-.35,1.23,2.34,2.34,0,0,1-.94.83,1.89,1.89,0,0,1,1.08.84,2.81,2.81,0,0,1,.4,1.53,2.92,2.92,0,0,1-.73,2.11,2.77,2.77,0,0,1-2.1.77Zm1.25-5.71h1.61a1.36,1.36,0,0,0,1-.44,2,2,0,0,0,0-2.36,1.48,1.48,0,0,0-1.11-.37H75.91Zm0,1.05v3.58h1.71a1.44,1.44,0,0,0,1.13-.47,1.91,1.91,0,0,0,.42-1.32q0-1.8-1.52-1.8Z"/><path class="cls-1" d="M87.07,502.62H83.55v3.53h4.1v1.07H82.3v-10h5.28v1.07h-4v3.21h3.52Z"/><path class="cls-1" d="M92.26,503.2H90.51v4H89.25v-10H92a3,3,0,0,1,2.21.76,3.05,3.05,0,0,1,.75,2.23,3.09,3.09,0,0,1-.41,1.61,2.56,2.56,0,0,1-1.15,1l1.93,4.23v.08H94Zm-1.75-1.07H92a1.63,1.63,0,0,0,1.25-.51,1.92,1.92,0,0,0,.47-1.36q0-1.92-1.74-1.92h-1.5Z"/><path class="cls-1" d="M99.69,503.2H97.94v4H96.68v-10h2.79a3,3,0,0,1,2.21.76,3.05,3.05,0,0,1,.75,2.23,3.09,3.09,0,0,1-.41,1.61,2.56,2.56,0,0,1-1.15,1l1.93,4.23v.08h-1.35Zm-1.75-1.07h1.52a1.63,1.63,0,0,0,1.25-.51,1.92,1.92,0,0,0,.47-1.36q0-1.92-1.74-1.92h-1.5Z"/><path class="cls-1" d="M106.37,502.27l2-5h1.42L107,503.51v3.71h-1.25v-3.71l-2.83-6.24h1.42Z"/><path class="cls-1" d="M32,517.83H28.62v4.4H27.37v-10h5.18v1.07H28.62v3.41H32Z"/><path class="cls-1" d="M35.4,522.23H34.15v-10H35.4Z"/><path class="cls-1" d="M42.37,517.62H38.85v3.53h4.1v1.07H37.6v-10h5.28v1.07h-4v3.21h3.52Z"/><path class="cls-1" d="M45.81,521.15h3.9v1.07H44.55v-10h1.26Z"/><path class="cls-1" d="M51.2,522.23v-10h2.37a3.42,3.42,0,0,1,2.71,1.09,4.47,4.47,0,0,1,1,3.07v1.67a4.39,4.39,0,0,1-1,3.05,3.64,3.64,0,0,1-2.84,1.08Zm1.25-8.88v7.81h1a2.33,2.33,0,0,0,1.93-.76,3.57,3.57,0,0,0,.62-2.24v-1.77a3.6,3.6,0,0,0-.61-2.31,2.23,2.23,0,0,0-1.83-.74Z"/><path class="cls-1" d="M63.54,519.71a1.53,1.53,0,0,0-.4-1.14,4.13,4.13,0,0,0-1.46-.77,6.39,6.39,0,0,1-1.61-.79,2.84,2.84,0,0,1-.83-.94,2.8,2.8,0,0,1,.51-3.16,2.84,2.84,0,0,1,2.07-.77,3.07,3.07,0,0,1,1.56.39,2.66,2.66,0,0,1,1.05,1.09,3.22,3.22,0,0,1,.37,1.53H63.54a2.1,2.1,0,0,0-.44-1.43,1.62,1.62,0,0,0-1.28-.51,1.57,1.57,0,0,0-1.18.43,1.63,1.63,0,0,0-.42,1.19,1.39,1.39,0,0,0,.45,1.05,4,4,0,0,0,1.39.76,4.79,4.79,0,0,1,2.1,1.2,2.69,2.69,0,0,1,.63,1.86,2.51,2.51,0,0,1-.79,1.94,3,3,0,0,1-2.14.73,3.46,3.46,0,0,1-1.6-.38,2.88,2.88,0,0,1-1.15-1.07,3,3,0,0,1-.42-1.58H60a1.93,1.93,0,0,0,.52,1.44,1.9,1.9,0,0,0,1.4.51,1.67,1.67,0,0,0,1.24-.42A1.57,1.57,0,0,0,63.54,519.71Z"/><path class="cls-1" d="M74.27,517.83H70.9v4.4H69.65v-10h5.18v1.07H70.9v3.41h3.36Z"/><path class="cls-1" d="M82.85,518.12a5,5,0,0,1-.87,3.14,3,3,0,0,1-2.47,1.1,3,3,0,0,1-2.43-1.07,4.72,4.72,0,0,1-.93-3v-1.87a5,5,0,0,1,.88-3.13,2.94,2.94,0,0,1,2.46-1.13A3,3,0,0,1,82,513.22a4.88,4.88,0,0,1,.9,3.09Zm-1.25-1.74a4.26,4.26,0,0,0-.52-2.35,2,2,0,0,0-3.14,0,4.14,4.14,0,0,0-.54,2.3v1.79a4.22,4.22,0,0,0,.53,2.32,2,2,0,0,0,3.14.06,4.15,4.15,0,0,0,.53-2.26Z"/><path class="cls-1" d="M87.79,518.2H86v4H84.79v-10h2.79a3,3,0,0,1,2.21.76,3.05,3.05,0,0,1,.75,2.23,3.09,3.09,0,0,1-.41,1.61,2.56,2.56,0,0,1-1.15,1l1.93,4.23v.08H89.56ZM86,517.13h1.52a1.63,1.63,0,0,0,1.25-.51,1.92,1.92,0,0,0,.47-1.36q0-1.92-1.74-1.92H86Z"/><path class="cls-1" d="M97,517.62H93.47v3.53h4.1v1.07H92.22v-10H97.5v1.07h-4v3.21H97Z"/><path class="cls-1" d="M102,520.3l2.28-8h1.37l-3.1,10h-1.09l-3.09-10h1.37Z"/><path class="cls-1" d="M111.78,517.62h-3.52v3.53h4.1v1.07H107v-10h5.28v1.07h-4v3.21h3.52Z"/><path class="cls-1" d="M117,518.2h-1.75v4H114v-10h2.79A3,3,0,0,1,119,513a3.05,3.05,0,0,1,.75,2.23,3.09,3.09,0,0,1-.41,1.61,2.56,2.56,0,0,1-1.15,1l1.93,4.23v.08h-1.35Zm-1.75-1.07h1.52a1.63,1.63,0,0,0,1.25-.51,1.92,1.92,0,0,0,.47-1.36q0-1.92-1.74-1.92h-1.5Z"/><path class="cls-1" d="M258,463.93H254.6v4.39h-1.25v-10h5.18v1.07H254.6v3.41H258Z"/><path class="cls-1" d="M261.38,468.33h-1.25v-10h1.25Z"/><path class="cls-1" d="M266.48,462.19l1.87-3.81h1.47l-2.59,4.94,2.65,5H268.4l-1.91-3.88-1.92,3.88h-1.48l2.66-5-2.6-4.94h1.46Z"/><path class="cls-1" d="M272.7,468.33h-1.25v-10h1.25Z"/><path class="cls-1" d="M281.4,468.33h-1.26l-4-7.67v7.67H274.9v-10h1.26l4,7.71v-7.71h1.24Z"/><path class="cls-1" d="M289.79,467.09l-.22.27a3.44,3.44,0,0,1-2.76,1.1,3.16,3.16,0,0,1-2.53-1.07,4.58,4.58,0,0,1-.94-3v-2a4.94,4.94,0,0,1,.84-3.13,3.53,3.53,0,0,1,4.73-.25,3.31,3.31,0,0,1,.88,2.26h-1.25a2.51,2.51,0,0,0-.52-1.45,1.65,1.65,0,0,0-1.34-.52,1.8,1.8,0,0,0-1.57.7,4,4,0,0,0-.52,2.24v2a3.93,3.93,0,0,0,.57,2.31,1.9,1.9,0,0,0,1.65.8,2.18,2.18,0,0,0,1.54-.49l.18-.17v-2.29h-1.82v-1.07h3.07Z"/><path class="cls-1" d="M256.25,480.72h-3.36l-.77,2.6h-1.29l3.21-10h1.07l3.21,10H257Zm-3-1.07h2.71l-1.36-4.53Z"/><path class="cls-1" d="M269.4,483.33h-1.26v-4.6h-4v4.6h-1.25v-10h1.25v4.28h4v-4.28h1.26Z"/><path class="cls-1" d="M278,479.22a5,5,0,0,1-.87,3.14,3.31,3.31,0,0,1-4.9,0,4.72,4.72,0,0,1-.93-3V477.5a5,5,0,0,1,.88-3.13,2.94,2.94,0,0,1,2.46-1.13,3,3,0,0,1,2.45,1.08,4.89,4.89,0,0,1,.9,3.09Zm-1.25-1.74a4.27,4.27,0,0,0-.52-2.35,2,2,0,0,0-3.14,0,4.14,4.14,0,0,0-.54,2.3v1.78a4.21,4.21,0,0,0,.53,2.32,2,2,0,0,0,3.14.06,4.15,4.15,0,0,0,.53-2.26Z"/><path class="cls-1" d="M281.23,482.25h3.9v1.07H280v-10h1.26Z"/><path class="cls-1" d="M291.39,478.73h-3.52v3.53H292v1.07h-5.35v-10h5.28v1.07h-4v3.21h3.52Z"/><path class="cls-1" d="M444.4,230.82a5,5,0,0,1-.87,3.14,3,3,0,0,1-2.47,1.1,3,3,0,0,1-2.43-1.07,4.72,4.72,0,0,1-.93-3v-1.87a5,5,0,0,1,.88-3.13,2.94,2.94,0,0,1,2.46-1.13,3,3,0,0,1,2.45,1.08,4.88,4.88,0,0,1,.9,3.09Zm-1.25-1.74a4.26,4.26,0,0,0-.52-2.35,2,2,0,0,0-3.14,0A4.14,4.14,0,0,0,439,229v1.79a4.22,4.22,0,0,0,.53,2.32,2,2,0,0,0,3.14.06,4.15,4.15,0,0,0,.53-2.26Z"/><path class="cls-1" d="M446.34,234.93V225h2.84a2.84,2.84,0,0,1,2,.66,2.64,2.64,0,0,1,.69,2,2.2,2.2,0,0,1-.35,1.23,2.34,2.34,0,0,1-.94.83,1.89,1.89,0,0,1,1.08.84,2.81,2.81,0,0,1,.4,1.53,2.92,2.92,0,0,1-.73,2.11,2.77,2.77,0,0,1-2.1.77Zm1.25-5.71h1.61a1.36,1.36,0,0,0,1-.44,2,2,0,0,0,0-2.36,1.48,1.48,0,0,0-1.11-.37h-1.59Zm0,1.05v3.58h1.71a1.44,1.44,0,0,0,1.13-.47,1.91,1.91,0,0,0,.42-1.32q0-1.8-1.52-1.8Z"/><path class="cls-1" d="M456,231.21h-2.82v-1H456Z"/><path class="cls-1" d="M458.7,233.85h3.9v1.07h-5.16V225h1.26Z"/><path class="cls-1" d="M468.87,232.32H465.5l-.77,2.61h-1.29l3.21-10h1.07l3.21,10h-1.29Zm-3-1.07h2.71l-1.36-4.53Z"/><path class="cls-1" d="M474.36,231.21h-2.82v-1h2.82Z"/><path class="cls-1" d="M475.77,234.93V225h2.37a3.42,3.42,0,0,1,2.71,1.09,4.47,4.47,0,0,1,1,3.07v1.67a4.39,4.39,0,0,1-1,3.05,3.64,3.64,0,0,1-2.84,1.08ZM477,226v7.81h1a2.33,2.33,0,0,0,1.93-.76,3.57,3.57,0,0,0,.62-2.24v-1.77a3.6,3.6,0,0,0-.61-2.31,2.23,2.23,0,0,0-1.83-.74Z"/><path class="cls-1" d="M485.06,234.93h-1.25V225h1.25Z"/><path class="cls-1" d="M487.1,236.91l-.72-.49a3.3,3.3,0,0,0,.67-1.85v-1.14h1.24v1a3.13,3.13,0,0,1-.34,1.38A3.27,3.27,0,0,1,487.1,236.91Z"/><path class="cls-1" d="M445.17,245.82a5,5,0,0,1-.87,3.14,3,3,0,0,1-2.47,1.1A3,3,0,0,1,439.4,249a4.72,4.72,0,0,1-.93-3v-1.87a5,5,0,0,1,.88-3.13,2.94,2.94,0,0,1,2.46-1.13,3,3,0,0,1,2.45,1.08,4.88,4.88,0,0,1,.9,3.09Zm-1.25-1.74a4.26,4.26,0,0,0-.52-2.35,2,2,0,0,0-3.14,0,4.14,4.14,0,0,0-.54,2.3v1.79a4.22,4.22,0,0,0,.53,2.32,2,2,0,0,0,3.14.06,4.15,4.15,0,0,0,.53-2.26Z"/><path class="cls-1" d="M447.1,249.93V240h2.84a2.84,2.84,0,0,1,2,.66,2.64,2.64,0,0,1,.69,2,2.2,2.2,0,0,1-.35,1.23,2.34,2.34,0,0,1-.94.83,1.89,1.89,0,0,1,1.08.84,2.81,2.81,0,0,1,.4,1.53,2.92,2.92,0,0,1-.73,2.11,2.77,2.77,0,0,1-2.1.77Zm1.25-5.71H450a1.36,1.36,0,0,0,1-.44,2,2,0,0,0,0-2.36,1.48,1.48,0,0,0-1.11-.37h-1.59Zm0,1.05v3.58h1.71a1.44,1.44,0,0,0,1.13-.47,1.91,1.91,0,0,0,.42-1.32q0-1.8-1.52-1.8Z"/><path class="cls-1" d="M456.81,246.21H454v-1h2.82Z"/><path class="cls-1" d="M459.47,248.85h3.9v1.07h-5.16V240h1.26Z"/><path class="cls-1" d="M469.63,247.32h-3.36l-.77,2.61h-1.29l3.21-10h1.07l3.21,10h-1.29Zm-3-1.07h2.71L468,241.72Z"/><path class="cls-1" d="M475.13,246.21h-2.82v-1h2.82Z"/><path class="cls-1" d="M476.53,249.93V240h2.37a3.42,3.42,0,0,1,2.71,1.09,4.47,4.47,0,0,1,1,3.07v1.67a4.39,4.39,0,0,1-1,3.05,3.64,3.64,0,0,1-2.84,1.08Zm1.25-8.88v7.81h1a2.33,2.33,0,0,0,1.93-.76,3.57,3.57,0,0,0,.62-2.24v-1.77a3.6,3.6,0,0,0-.61-2.31,2.23,2.23,0,0,0-1.83-.74Z"/><path class="cls-1" d="M489,247.32h-3.36l-.77,2.61H483.6l3.21-10h1.07l3.21,10h-1.29Zm-3-1.07h2.71l-1.36-4.53Z"/><path class="cls-1" d="M397.84,154.61a1.53,1.53,0,0,0-.4-1.14,4.13,4.13,0,0,0-1.46-.77,6.39,6.39,0,0,1-1.61-.79,2.84,2.84,0,0,1-.83-.94,2.8,2.8,0,0,1,.51-3.16,2.84,2.84,0,0,1,2.07-.77,3.07,3.07,0,0,1,1.56.39,2.66,2.66,0,0,1,1.05,1.09,3.22,3.22,0,0,1,.37,1.53h-1.26a2.1,2.1,0,0,0-.44-1.43,1.62,1.62,0,0,0-1.28-.51,1.57,1.57,0,0,0-1.18.43,1.63,1.63,0,0,0-.42,1.19,1.39,1.39,0,0,0,.45,1.05,4,4,0,0,0,1.39.76,4.79,4.79,0,0,1,2.1,1.2,2.69,2.69,0,0,1,.63,1.86,2.51,2.51,0,0,1-.79,1.94,3,3,0,0,1-2.14.73,3.46,3.46,0,0,1-1.6-.38,2.88,2.88,0,0,1-1.15-1.07,3,3,0,0,1-.42-1.58h1.26a1.93,1.93,0,0,0,.52,1.44,1.9,1.9,0,0,0,1.4.51,1.67,1.67,0,0,0,1.24-.42A1.57,1.57,0,0,0,397.84,154.61Z"/><path class="cls-1" d="M405.39,154.52H402l-.77,2.61H400l3.21-10h1.07l3.21,10h-1.29Zm-3-1.07h2.71l-1.36-4.53Z"/><path class="cls-1" d="M411.06,155.2l2.28-8h1.37l-3.1,10h-1.09l-3.09-10h1.37Z"/><path class="cls-1" d="M422.44,153a5,5,0,0,1-.87,3.14,3,3,0,0,1-2.47,1.1,3,3,0,0,1-2.43-1.07,4.72,4.72,0,0,1-.93-3v-1.87a5,5,0,0,1,.88-3.13,2.94,2.94,0,0,1,2.46-1.13,3,3,0,0,1,2.45,1.08,4.88,4.88,0,0,1,.9,3.09Zm-1.25-1.74a4.26,4.26,0,0,0-.52-2.35,2,2,0,0,0-3.14,0,4.14,4.14,0,0,0-.54,2.3V153a4.22,4.22,0,0,0,.53,2.32,2,2,0,0,0,3.14.06,4.15,4.15,0,0,0,.53-2.26Z"/><path class="cls-1" d="M426.67,152.17l2-5h1.42l-2.83,6.24v3.71H426v-3.71l-2.83-6.24h1.42Z"/><path class="cls-1" d="M393.46,163.24h-2.62v8.88h-1.25v-8.88H387v-1.07h6.48Z"/><path class="cls-1" d="M397.93,168.1h-1.75v4h-1.26v-10h2.79a3,3,0,0,1,2.21.76,3.05,3.05,0,0,1,.75,2.23,3.09,3.09,0,0,1-.41,1.61,2.56,2.56,0,0,1-1.15,1l1.93,4.23v.08H399.7ZM396.18,167h1.52a1.63,1.63,0,0,0,1.25-.51,1.92,1.92,0,0,0,.47-1.36q0-1.92-1.74-1.92h-1.5Z"/><path class="cls-1" d="M408.29,162.17v7.07a3,3,0,0,1-.82,2.21,3,3,0,0,1-5.3-2.21v-7.07h1.24v7a2.25,2.25,0,0,0,.43,1.5,2.18,2.18,0,0,0,2.76,0,2.25,2.25,0,0,0,.43-1.5v-7Z"/><path class="cls-1" d="M414.83,167.73h-3.36v4.4h-1.25v-10h5.18v1.07h-3.93v3.41h3.36Z"/><path class="cls-1" d="M421.56,167.73H418.2v4.4h-1.25v-10h5.18v1.07H418.2v3.41h3.36Z"/><path class="cls-1" d="M424.93,171.05h3.9v1.07h-5.16v-10h1.26Z"/><path class="cls-1" d="M435.09,167.52h-3.52v3.53h4.1v1.07h-5.35v-10h5.28v1.07h-4v3.21h3.52Z"/><path class="cls-1" d="M32,113.27l2-5h1.42l-2.83,6.24v3.71H31.41v-3.71l-2.83-6.24H30Z"/><path class="cls-1" d="M43.07,114.12a5,5,0,0,1-.87,3.14,3.31,3.31,0,0,1-4.9,0,4.72,4.72,0,0,1-.93-3v-1.87a5,5,0,0,1,.88-3.13,2.94,2.94,0,0,1,2.46-1.13,3,3,0,0,1,2.45,1.08,4.89,4.89,0,0,1,.9,3.09Zm-1.25-1.74A4.27,4.27,0,0,0,41.3,110a2,2,0,0,0-3.14,0,4.14,4.14,0,0,0-.54,2.3v1.78a4.21,4.21,0,0,0,.53,2.32,2,2,0,0,0,3.14.06,4.15,4.15,0,0,0,.53-2.26Z"/><path class="cls-1" d="M50.93,108.27v7.08a3,3,0,0,1-.82,2.21,3,3,0,0,1-5.3-2.21v-7.08h1.24v7a2.24,2.24,0,0,0,.43,1.5,2.17,2.17,0,0,0,2.76,0,2.25,2.25,0,0,0,.43-1.5v-7Z"/><path class="cls-1" d="M62.57,118.22H61.31l-4-7.67v7.67H56.07v-10h1.26l4,7.71v-7.71h1.24Z"/><path class="cls-1" d="M69.51,113.62H66v3.53h4.1v1.07H64.74v-10H70v1.07H66v3.21h3.52Z"/><path class="cls-1" d="M74.53,116.3l2.28-8h1.37l-3.1,10H74l-3.09-10h1.37Z"/><path class="cls-1" d="M84.3,113.62H80.78v3.53h4.1v1.07H79.53v-10h5.28v1.07h-4v3.21H84.3Z"/><path class="cls-1" d="M89.49,114.2H87.74v4H86.48v-10h2.79a3,3,0,0,1,2.21.76,3.06,3.06,0,0,1,.75,2.23,3.09,3.09,0,0,1-.41,1.61,2.56,2.56,0,0,1-1.15,1l1.93,4.23v.08H91.26Zm-1.75-1.07h1.52a1.63,1.63,0,0,0,1.25-.51,1.93,1.93,0,0,0,.47-1.36q0-1.92-1.74-1.92h-1.5Z"/><path class="cls-1" d="M103.35,117l-.22.27a3.44,3.44,0,0,1-2.76,1.1,3.16,3.16,0,0,1-2.53-1.07,4.58,4.58,0,0,1-.94-3v-2a4.94,4.94,0,0,1,.84-3.13,3.53,3.53,0,0,1,4.73-.25,3.31,3.31,0,0,1,.88,2.26h-1.25a2.51,2.51,0,0,0-.52-1.45,1.65,1.65,0,0,0-1.34-.52,1.8,1.8,0,0,0-1.57.7,4,4,0,0,0-.52,2.24v2a3.93,3.93,0,0,0,.57,2.31,1.9,1.9,0,0,0,1.65.8,2.18,2.18,0,0,0,1.54-.49l.18-.17v-2.29h-1.82v-1.07h3.07Z"/><path class="cls-1" d="M106.7,118.22h-1.25v-10h1.25Z"/><path class="cls-1" d="M111.73,116.3l2.28-8h1.37l-3.1,10h-1.09l-3.09-10h1.37Z"/><path class="cls-1" d="M121.5,113.62H118v3.53h4.1v1.07h-5.35v-10H122v1.07h-4v3.21h3.52Z"/><path class="cls-1" d="M31.42,123.27l2.6,8.12,2.6-8.12h1.61v10H37v-3.87l.12-3.88-2.6,7.76h-1l-2.59-7.73.12,3.86v3.88H29.8v-10Z"/><path class="cls-1" d="M45.15,128.62H41.63v3.53h4.1v1.07H40.38v-10h5.28v1.07h-4v3.21h3.52Z"/><path class="cls-1" d="M53.13,128.27l2-5h1.42l-2.83,6.24v3.71H52.5v-3.71l-2.83-6.24h1.42Z"/><path class="cls-1" d="M64.16,129.12a5,5,0,0,1-.87,3.14,3.31,3.31,0,0,1-4.9,0,4.72,4.72,0,0,1-.93-3v-1.87a5,5,0,0,1,.88-3.13,2.94,2.94,0,0,1,2.46-1.13,3,3,0,0,1,2.45,1.08,4.89,4.89,0,0,1,.9,3.09Zm-1.25-1.74a4.27,4.27,0,0,0-.52-2.35,2,2,0,0,0-3.14,0,4.14,4.14,0,0,0-.54,2.3v1.78a4.21,4.21,0,0,0,.53,2.32,2,2,0,0,0,3.14.06,4.15,4.15,0,0,0,.53-2.26Z"/><path class="cls-1" d="M72,123.27v7.08a3,3,0,0,1-.82,2.21,3,3,0,0,1-5.3-2.21v-7.08h1.24v7a2.24,2.24,0,0,0,.43,1.5,2.17,2.17,0,0,0,2.76,0,2.25,2.25,0,0,0,.43-1.5v-7Z"/><path class="cls-1" d="M77,129.2H75.21v4H74v-10h2.79A3,3,0,0,1,79,124a3.06,3.06,0,0,1,.75,2.23,3.09,3.09,0,0,1-.41,1.61,2.56,2.56,0,0,1-1.15,1l1.93,4.23v.08H78.73Zm-1.75-1.07h1.52a1.63,1.63,0,0,0,1.25-.51,1.93,1.93,0,0,0,.47-1.36q0-1.92-1.74-1.92h-1.5Z"/><path class="cls-1" d="M86.2,123.27l2.6,8.12,2.6-8.12H93v10H91.76v-3.87l.12-3.88-2.6,7.76h-1l-2.59-7.73.12,3.86v3.88H84.59v-10Z"/><path class="cls-1" d="M101.64,129.12a5,5,0,0,1-.87,3.14,3.31,3.31,0,0,1-4.9,0,4.72,4.72,0,0,1-.93-3v-1.87a5,5,0,0,1,.88-3.13,2.94,2.94,0,0,1,2.46-1.13,3,3,0,0,1,2.45,1.08,4.89,4.89,0,0,1,.9,3.09Zm-1.25-1.74a4.27,4.27,0,0,0-.52-2.35,2,2,0,0,0-3.14,0,4.14,4.14,0,0,0-.54,2.3v1.78a4.21,4.21,0,0,0,.53,2.32,2,2,0,0,0,3.14.06,4.15,4.15,0,0,0,.53-2.26Z"/><path class="cls-1" d="M110.07,133.22h-1.26l-4-7.67v7.67h-1.26v-10h1.26l4,7.71v-7.71h1.24Z"/><path class="cls-1" d="M117,128.62h-3.52v3.53h4.1v1.07h-5.35v-10h5.28v1.07h-4v3.21H117Z"/><path class="cls-1" d="M121.78,128.27l2-5h1.42l-2.83,6.24v3.71h-1.25v-3.71l-2.83-6.24h1.42Z"/><path class="cls-1" d="M171.91,76.16a3.69,3.69,0,0,1-.9,2.45,3,3,0,0,1-2.31.85,2.85,2.85,0,0,1-2.38-1.14,4.91,4.91,0,0,1-.88-3.09v-1.8a4.77,4.77,0,0,1,.91-3.07,3,3,0,0,1,2.47-1.13,2.88,2.88,0,0,1,2.23.86,3.78,3.78,0,0,1,.86,2.47h-1.26a3.08,3.08,0,0,0-.51-1.74,1.61,1.61,0,0,0-1.31-.52,1.78,1.78,0,0,0-1.57.8,4.13,4.13,0,0,0-.55,2.33v1.83a4.36,4.36,0,0,0,.51,2.32,1.65,1.65,0,0,0,1.49.81,1.8,1.8,0,0,0,1.41-.48,3.06,3.06,0,0,0,.53-1.74Z"/><path class="cls-1" d="M178.25,76.72h-3.36l-.77,2.61h-1.29l3.21-10h1.07l3.21,10H179Zm-3-1.07h2.71l-1.36-4.53Z"/><path class="cls-1" d="M184.68,75.3h-1.75v4h-1.26v-10h2.79a3,3,0,0,1,2.21.76,3.05,3.05,0,0,1,.75,2.23A3.09,3.09,0,0,1,187,74a2.56,2.56,0,0,1-1.15,1l1.93,4.23v.08h-1.35Zm-1.75-1.07h1.52a1.63,1.63,0,0,0,1.25-.51,1.92,1.92,0,0,0,.47-1.36q0-1.92-1.74-1.92h-1.5Z"/><path class="cls-1" d="M192.11,75.3h-1.75v4H189.1v-10h2.79a3,3,0,0,1,2.21.76,3.05,3.05,0,0,1,.75,2.23,3.09,3.09,0,0,1-.41,1.61,2.56,2.56,0,0,1-1.15,1l1.93,4.23v.08h-1.35Zm-1.75-1.07h1.52a1.63,1.63,0,0,0,1.25-.51,1.92,1.92,0,0,0,.47-1.36q0-1.92-1.74-1.92h-1.5Z"/><path class="cls-1" d="M198.8,74.37l2-5h1.42l-2.83,6.24v3.71h-1.25V75.61l-2.83-6.24h1.42Z"/><path class="cls-1" d="M212.3,70.44h-2.62v8.88h-1.25V70.44h-2.61V69.37h6.48Z"/><path class="cls-1" d="M220.28,79.32H219v-4.6h-4v4.6h-1.25v-10H215v4.28h4V69.37h1.26Z"/><path class="cls-1" d="M227.21,76.72h-3.36l-.77,2.61h-1.29l3.21-10h1.07l3.21,10H228Zm-3-1.07h2.71l-1.36-4.53Z"/><path class="cls-1" d="M235.57,70.44H233v8.88h-1.25V70.44h-2.61V69.37h6.48Z"/><path class="cls-1" d="M182.28,91.19l.13,1.12.2-1,1.59-6.95h1l1.54,6.95.2,1,.14-1.15,1.22-6.81h1.25l-2,10h-1.13l-1.66-7.25-.1-.59-.1.59-1.72,7.25h-1.13l-2-10H181Z"/><path class="cls-1" d="M195.82,89.72H192.3v3.53h4.1v1.07H191v-10h5.28v1.07h-4v3.21h3.52Z"/><path class="cls-1" d="M199.3,94.32h-1.25v-10h1.25Z"/><path class="cls-1" d="M207.73,93.09l-.22.27a3.44,3.44,0,0,1-2.76,1.1,3.17,3.17,0,0,1-2.53-1.07,4.58,4.58,0,0,1-.94-3v-2a4.93,4.93,0,0,1,.84-3.13,3.53,3.53,0,0,1,4.73-.25,3.3,3.3,0,0,1,.88,2.26h-1.25a2.51,2.51,0,0,0-.52-1.45,1.65,1.65,0,0,0-1.34-.52A1.8,1.8,0,0,0,203,86a4,4,0,0,0-.52,2.24v2a3.93,3.93,0,0,0,.57,2.31,1.9,1.9,0,0,0,1.65.8,2.17,2.17,0,0,0,1.54-.49l.18-.17V90.44h-1.82V89.37h3.07Z"/><path class="cls-1" d="M216.28,94.32H215v-4.6h-4v4.6h-1.25v-10H211v4.28h4V84.37h1.26Z"/><path class="cls-1" d="M224.07,85.44h-2.62v8.88H220.2V85.44h-2.61V84.37h6.48Z"/><path class="cls-1" d="M301,37.26a3.69,3.69,0,0,1-.9,2.45,3,3,0,0,1-2.31.85,2.85,2.85,0,0,1-2.38-1.14,4.91,4.91,0,0,1-.88-3.09v-1.8a4.76,4.76,0,0,1,.91-3.07,3,3,0,0,1,2.47-1.13,2.88,2.88,0,0,1,2.23.86,3.78,3.78,0,0,1,.86,2.47h-1.26a3.07,3.07,0,0,0-.51-1.74,1.6,1.6,0,0,0-1.31-.52,1.79,1.79,0,0,0-1.57.79,4.13,4.13,0,0,0-.55,2.34v1.82a4.37,4.37,0,0,0,.51,2.32,1.65,1.65,0,0,0,1.49.81,1.8,1.8,0,0,0,1.41-.49,3,3,0,0,0,.53-1.74Z"/><path class="cls-1" d="M309.19,36.32a5,5,0,0,1-.87,3.14,3.31,3.31,0,0,1-4.9,0,4.72,4.72,0,0,1-.93-3V34.59a5,5,0,0,1,.88-3.13,2.94,2.94,0,0,1,2.46-1.13,3,3,0,0,1,2.45,1.08,4.89,4.89,0,0,1,.9,3.09Zm-1.25-1.74a4.27,4.27,0,0,0-.52-2.35,2,2,0,0,0-3.14,0,4.14,4.14,0,0,0-.54,2.3v1.78a4.21,4.21,0,0,0,.53,2.32,2,2,0,0,0,3.14.06,4.15,4.15,0,0,0,.53-2.26Z"/><path class="cls-1" d="M312.74,30.47l2.6,8.12,2.6-8.12h1.61v10h-1.25V36.55l.12-3.88-2.6,7.76h-1l-2.59-7.73.12,3.86v3.88h-1.25v-10Z"/><path class="cls-1" d="M326.47,35.82h-3.52v3.53h4.1v1.07H321.7v-10H327v1.07h-4v3.21h3.52Z"/><path class="cls-1" d="M286.92,46.54h-2.62v8.88h-1.25V46.54h-2.61V45.47h6.48Z"/><path class="cls-1" d="M294.68,51.32a5,5,0,0,1-.87,3.14,3.31,3.31,0,0,1-4.9,0,4.72,4.72,0,0,1-.93-3V49.59a5,5,0,0,1,.88-3.13,2.94,2.94,0,0,1,2.46-1.13,3,3,0,0,1,2.45,1.08,4.89,4.89,0,0,1,.9,3.09Zm-1.25-1.74a4.27,4.27,0,0,0-.52-2.35,2,2,0,0,0-3.14,0,4.14,4.14,0,0,0-.54,2.3v1.78a4.21,4.21,0,0,0,.53,2.32,2,2,0,0,0,3.14.06,4.15,4.15,0,0,0,.53-2.26Z"/><path class="cls-1" d="M302.84,54.19l-.22.27a3.44,3.44,0,0,1-2.76,1.1,3.16,3.16,0,0,1-2.53-1.07,4.58,4.58,0,0,1-.94-3v-2a4.94,4.94,0,0,1,.84-3.13,3.53,3.53,0,0,1,4.73-.25,3.31,3.31,0,0,1,.88,2.26h-1.25a2.51,2.51,0,0,0-.52-1.45,1.65,1.65,0,0,0-1.34-.52,1.8,1.8,0,0,0-1.57.7,4,4,0,0,0-.52,2.24v2a3.93,3.93,0,0,0,.57,2.31,1.9,1.9,0,0,0,1.65.8A2.18,2.18,0,0,0,301.4,54l.18-.17V51.54h-1.82V50.47h3.07Z"/><path class="cls-1" d="M309.65,50.82h-3.52v3.53h4.1v1.07h-5.35v-10h5.28v1.07h-4v3.21h3.52Z"/><path class="cls-1" d="M317.79,46.54h-2.62v8.88h-1.25V46.54h-2.61V45.47h6.48Z"/><path class="cls-1" d="M325.77,55.42h-1.26v-4.6h-4v4.6h-1.25v-10h1.25v4.28h4V45.47h1.26Z"/><path class="cls-1" d="M332.71,50.82h-3.52v3.53h4.1v1.07h-5.35v-10h5.28v1.07h-4v3.21h3.52Z"/><path class="cls-1" d="M337.9,51.4h-1.75v4h-1.26v-10h2.79a3,3,0,0,1,2.21.76,3.06,3.06,0,0,1,.75,2.23,3.09,3.09,0,0,1-.41,1.61,2.56,2.56,0,0,1-1.15,1L341,55.34v.08h-1.35Zm-1.75-1.07h1.52a1.63,1.63,0,0,0,1.25-.51,1.93,1.93,0,0,0,.47-1.36q0-1.92-1.74-1.92h-1.5Z"/><path class="cls-1" d="M684.16,660.31a1.53,1.53,0,0,0-.4-1.14,4.13,4.13,0,0,0-1.46-.77,6.39,6.39,0,0,1-1.61-.79,2.84,2.84,0,0,1-.83-.94,2.8,2.8,0,0,1,.51-3.16,2.84,2.84,0,0,1,2.07-.77,3.07,3.07,0,0,1,1.56.39,2.66,2.66,0,0,1,1.05,1.09,3.22,3.22,0,0,1,.37,1.53h-1.26a2.1,2.1,0,0,0-.44-1.43,1.62,1.62,0,0,0-1.28-.51,1.57,1.57,0,0,0-1.18.43,1.63,1.63,0,0,0-.42,1.19,1.39,1.39,0,0,0,.45,1.05,4,4,0,0,0,1.39.76,4.79,4.79,0,0,1,2.1,1.2,2.69,2.69,0,0,1,.63,1.86,2.51,2.51,0,0,1-.79,1.94,3,3,0,0,1-2.14.73,3.46,3.46,0,0,1-1.6-.38,2.88,2.88,0,0,1-1.15-1.07,3,3,0,0,1-.42-1.58h1.26a1.93,1.93,0,0,0,.52,1.44,1.9,1.9,0,0,0,1.4.51,1.67,1.67,0,0,0,1.24-.42A1.57,1.57,0,0,0,684.16,660.31Z"/><path class="cls-1" d="M693.58,662.83h-1.26v-4.6h-4v4.6h-1.25v-10h1.25v4.28h4v-4.28h1.26Z"/><path class="cls-1" d="M700.52,658.23H697v3.53h4.1v1.07h-5.35v-10H701v1.07h-4v3.21h3.52Z"/><path class="cls-1" d="M662.55,676.75h3.9v1.07h-5.16v-10h1.26Z"/><path class="cls-1" d="M674,673.73a5,5,0,0,1-.87,3.14,3,3,0,0,1-2.47,1.1,3,3,0,0,1-2.43-1.07,4.72,4.72,0,0,1-.93-3V672a5,5,0,0,1,.88-3.13,2.94,2.94,0,0,1,2.46-1.13,3,3,0,0,1,2.45,1.08,4.88,4.88,0,0,1,.9,3.09ZM672.72,672a4.26,4.26,0,0,0-.52-2.35,2,2,0,0,0-3.14,0,4.14,4.14,0,0,0-.54,2.3v1.79a4.22,4.22,0,0,0,.53,2.32,2,2,0,0,0,3.14.06,4.15,4.15,0,0,0,.53-2.26Z"/><path class="cls-1" d="M678.6,675.91l2.28-8h1.37l-3.1,10h-1.09l-3.09-10h1.37Z"/><path class="cls-1" d="M688.37,673.23h-3.52v3.53H689v1.07H683.6v-10h5.28v1.07h-4v3.21h3.52Z"/><path class="cls-1" d="M694.9,675.31a1.53,1.53,0,0,0-.4-1.14,4.13,4.13,0,0,0-1.46-.77,6.39,6.39,0,0,1-1.61-.79,2.84,2.84,0,0,1-.83-.94,2.8,2.8,0,0,1,.51-3.16,2.84,2.84,0,0,1,2.07-.77,3.07,3.07,0,0,1,1.56.39,2.66,2.66,0,0,1,1.05,1.09,3.22,3.22,0,0,1,.37,1.53H694.9a2.1,2.1,0,0,0-.44-1.43,1.62,1.62,0,0,0-1.28-.51,1.57,1.57,0,0,0-1.18.43,1.63,1.63,0,0,0-.42,1.19,1.39,1.39,0,0,0,.45,1.05,4,4,0,0,0,1.39.76,4.79,4.79,0,0,1,2.1,1.2,2.69,2.69,0,0,1,.63,1.86,2.51,2.51,0,0,1-.79,1.94,3,3,0,0,1-2.14.73,3.46,3.46,0,0,1-1.6-.38,2.88,2.88,0,0,1-1.15-1.07,3,3,0,0,1-.42-1.58h1.26a1.93,1.93,0,0,0,.52,1.44,1.9,1.9,0,0,0,1.4.51,1.67,1.67,0,0,0,1.24-.42A1.57,1.57,0,0,0,694.9,675.31Z"/><path class="cls-1" d="M703.6,672.87l2-5h1.42l-2.83,6.24v3.71H703v-3.71l-2.83-6.24h1.42Z"/><path class="cls-1" d="M714.63,673.73a5,5,0,0,1-.87,3.14,3,3,0,0,1-2.47,1.1,3,3,0,0,1-2.43-1.07,4.72,4.72,0,0,1-.93-3V672a5,5,0,0,1,.88-3.13,2.94,2.94,0,0,1,2.46-1.13,3,3,0,0,1,2.45,1.08,4.88,4.88,0,0,1,.9,3.09ZM713.38,672a4.26,4.26,0,0,0-.52-2.35,2,2,0,0,0-3.14,0,4.14,4.14,0,0,0-.54,2.3v1.79a4.22,4.22,0,0,0,.53,2.32,2,2,0,0,0,3.14.06,4.15,4.15,0,0,0,.53-2.26Z"/><path class="cls-1" d="M722.5,667.87v7.07a3,3,0,0,1-.82,2.21,3,3,0,0,1-5.3-2.21v-7.07h1.24v7a2.25,2.25,0,0,0,.43,1.5,2.18,2.18,0,0,0,2.76,0,2.25,2.25,0,0,0,.43-1.5v-7Z"/><path class="cls-1" d="M401.14,692.85h-2.62v8.88h-1.25v-8.88h-2.61v-1.07h6.48Z"/><path class="cls-1" d="M409.13,701.73h-1.26v-4.6h-4v4.6h-1.25v-10h1.25v4.28h4v-4.28h1.26Z"/><path class="cls-1" d="M416.07,697.13h-3.52v3.53h4.1v1.07h-5.35v-10h5.28v1.07h-4v3.21h3.52Z"/><path class="cls-1" d="M421.25,697.7H419.5v4h-1.26v-10H421a3,3,0,0,1,2.21.76,3.06,3.06,0,0,1,.75,2.23,3.09,3.09,0,0,1-.41,1.61,2.56,2.56,0,0,1-1.15,1l1.93,4.23v.08H423Zm-1.75-1.07H421a1.63,1.63,0,0,0,1.25-.51,1.93,1.93,0,0,0,.47-1.36q0-1.92-1.74-1.92h-1.5Z"/><path class="cls-1" d="M430.45,697.13h-3.52v3.53H431v1.07h-5.35v-10H431v1.07h-4v3.21h3.52Z"/><path class="cls-1" d="M432.62,694.58l-.68-.49a3.74,3.74,0,0,0,.55-1.86v-1h1.2v.92a3.49,3.49,0,0,1-.3,1.33A3,3,0,0,1,432.62,694.58Z"/><path class="cls-1" d="M439.7,699.21a1.53,1.53,0,0,0-.4-1.14,4.12,4.12,0,0,0-1.46-.77,6.32,6.32,0,0,1-1.61-.79,2.8,2.8,0,0,1-.83-.94,2.8,2.8,0,0,1,.51-3.16,2.84,2.84,0,0,1,2.07-.77,3.09,3.09,0,0,1,1.56.39,2.67,2.67,0,0,1,1.05,1.09,3.21,3.21,0,0,1,.37,1.53H439.7a2.09,2.09,0,0,0-.44-1.43,1.61,1.61,0,0,0-1.28-.51,1.57,1.57,0,0,0-1.18.42,1.63,1.63,0,0,0-.42,1.19,1.39,1.39,0,0,0,.45,1.05,4,4,0,0,0,1.39.76,4.81,4.81,0,0,1,2.1,1.2,2.69,2.69,0,0,1,.63,1.86,2.51,2.51,0,0,1-.79,1.94,3,3,0,0,1-2.14.73,3.46,3.46,0,0,1-1.6-.38,2.88,2.88,0,0,1-1.15-1.07,3,3,0,0,1-.42-1.58h1.26a1.93,1.93,0,0,0,.52,1.44,1.9,1.9,0,0,0,1.4.51,1.68,1.68,0,0,0,1.24-.42A1.58,1.58,0,0,0,439.7,699.21Z"/><path class="cls-1" d="M400.86,714.12H397.5l-.77,2.6h-1.29l3.21-10h1.07l3.21,10h-1.29Zm-3-1.07h2.71l-1.36-4.53Z"/><path class="cls-1" d="M408.74,712.83v3.9h-1.25v-10h3.17a2.88,2.88,0,0,1,2.18.83,3.07,3.07,0,0,1,.79,2.21,3,3,0,0,1-.76,2.21,2.91,2.91,0,0,1-2.13.8Zm0-1.07h1.92a1.62,1.62,0,0,0,1.28-.5,2.09,2.09,0,0,0,.44-1.43,2.15,2.15,0,0,0-.46-1.44,1.56,1.56,0,0,0-1.26-.54h-1.93Z"/><path class="cls-1" d="M416.51,715.66h3.9v1.07h-5.16v-10h1.26Z"/><path class="cls-1" d="M426.68,714.12h-3.36l-.77,2.6h-1.29l3.21-10h1.07l3.21,10h-1.29Zm-3-1.07h2.71L425,708.53Z"/><path class="cls-1" d="M436.27,713.56a3.69,3.69,0,0,1-.9,2.45,3,3,0,0,1-2.31.85,2.85,2.85,0,0,1-2.38-1.14,4.91,4.91,0,0,1-.88-3.09v-1.8a4.76,4.76,0,0,1,.91-3.07,3,3,0,0,1,2.47-1.13,2.88,2.88,0,0,1,2.23.86,3.78,3.78,0,0,1,.86,2.47H435a3.07,3.07,0,0,0-.51-1.74,1.6,1.6,0,0,0-1.31-.52,1.79,1.79,0,0,0-1.57.79,4.13,4.13,0,0,0-.55,2.34v1.82a4.37,4.37,0,0,0,.51,2.32,1.65,1.65,0,0,0,1.49.81,1.8,1.8,0,0,0,1.41-.49,3,3,0,0,0,.53-1.74Z"/><path class="cls-1" d="M442.73,712.13h-3.52v3.53h4.1v1.07H438v-10h5.28v1.07h-4v3.21h3.52Z"/><path class="cls-1" d="M240,543l.13,1.11.2-1,1.59-6.95h1l1.54,6.95.2,1,.14-1.15,1.22-6.81h1.25l-2,10h-1.13l-1.66-7.25-.1-.59-.1.59-1.72,7.25h-1.13l-2-10h1.25Z"/><path class="cls-1" d="M255.28,546.13H254v-4.6h-4v4.6h-1.25v-10H250v4.28h4v-4.28h1.26Z"/><path class="cls-1" d="M262.22,543.52h-3.36l-.77,2.6H256.8l3.21-10h1.07l3.21,10H263Zm-3-1.07h2.71l-1.36-4.53Z"/><path class="cls-1" d="M270.58,537.25H268v8.88h-1.25v-8.88H264.1v-1.07h6.48Z"/><path class="cls-1" d="M237.19,559.89l-.22.27a3.44,3.44,0,0,1-2.76,1.1,3.16,3.16,0,0,1-2.53-1.07,4.58,4.58,0,0,1-.94-3v-2a4.94,4.94,0,0,1,.84-3.13,3.53,3.53,0,0,1,4.73-.25,3.31,3.31,0,0,1,.88,2.26h-1.25a2.51,2.51,0,0,0-.52-1.45,1.65,1.65,0,0,0-1.34-.52,1.8,1.8,0,0,0-1.57.7,4,4,0,0,0-.52,2.24v2a3.93,3.93,0,0,0,.57,2.31,1.9,1.9,0,0,0,1.65.8,2.18,2.18,0,0,0,1.54-.49l.18-.17v-2.29h-1.82v-1.07h3.07Z"/><path class="cls-1" d="M245.7,557a5,5,0,0,1-.87,3.14,3.31,3.31,0,0,1-4.9,0,4.72,4.72,0,0,1-.93-3V555.3a5,5,0,0,1,.88-3.13,2.94,2.94,0,0,1,2.46-1.13,3,3,0,0,1,2.45,1.08,4.89,4.89,0,0,1,.9,3.09Zm-1.25-1.74a4.27,4.27,0,0,0-.52-2.35,2,2,0,0,0-3.14,0,4.14,4.14,0,0,0-.54,2.3V557a4.21,4.21,0,0,0,.53,2.32,2,2,0,0,0,3.14.06,4.15,4.15,0,0,0,.53-2.26Z"/><path class="cls-1" d="M252.41,556.53h-3.52v3.53H253v1.07h-5.35v-10h5.28v1.07h-4v3.21h3.52Z"/><path class="cls-1" d="M258.94,558.61a1.53,1.53,0,0,0-.4-1.14,4.12,4.12,0,0,0-1.46-.77,6.32,6.32,0,0,1-1.61-.79,2.8,2.8,0,0,1-.83-.94,2.8,2.8,0,0,1,.51-3.16,2.84,2.84,0,0,1,2.07-.77,3.09,3.09,0,0,1,1.56.39,2.67,2.67,0,0,1,1.05,1.09,3.21,3.21,0,0,1,.37,1.53h-1.26a2.09,2.09,0,0,0-.44-1.43,1.61,1.61,0,0,0-1.28-.51,1.57,1.57,0,0,0-1.18.42,1.63,1.63,0,0,0-.42,1.19,1.39,1.39,0,0,0,.45,1.05,4,4,0,0,0,1.39.76,4.81,4.81,0,0,1,2.1,1.2,2.69,2.69,0,0,1,.63,1.86,2.51,2.51,0,0,1-.79,1.94,3,3,0,0,1-2.14.73,3.46,3.46,0,0,1-1.6-.38,2.88,2.88,0,0,1-1.15-1.07,3,3,0,0,1-.42-1.58h1.26a1.93,1.93,0,0,0,.52,1.44,1.9,1.9,0,0,0,1.4.51,1.68,1.68,0,0,0,1.24-.42A1.58,1.58,0,0,0,258.94,558.61Z"/><path class="cls-1" d="M271.52,557a5,5,0,0,1-.87,3.14,3.31,3.31,0,0,1-4.9,0,4.72,4.72,0,0,1-.93-3V555.3a5,5,0,0,1,.88-3.13,2.94,2.94,0,0,1,2.46-1.13,3,3,0,0,1,2.45,1.08,4.89,4.89,0,0,1,.9,3.09Zm-1.25-1.74a4.27,4.27,0,0,0-.52-2.35,2,2,0,0,0-3.14,0,4.14,4.14,0,0,0-.54,2.3V557a4.21,4.21,0,0,0,.53,2.32,2,2,0,0,0,3.14.06,4.15,4.15,0,0,0,.53-2.26Z"/><path class="cls-1" d="M280,561.13H278.7l-4-7.67v7.67h-1.26v-10h1.26l4,7.71v-7.71H280Z"/><path class="cls-1" d="M530.07,588.49l2-5h1.42l-2.83,6.24v3.71h-1.25v-3.71l-2.83-6.24H528Z"/><path class="cls-1" d="M539.59,588.84h-3.52v3.53h4.1v1.07h-5.35v-10h5.28v1.07h-4v3.21h3.52Z"/><path class="cls-1" d="M546.12,590.93a1.53,1.53,0,0,0-.4-1.14,4.12,4.12,0,0,0-1.46-.77,6.32,6.32,0,0,1-1.61-.79,2.8,2.8,0,0,1-.83-.94,2.8,2.8,0,0,1,.51-3.16,2.84,2.84,0,0,1,2.07-.77,3.09,3.09,0,0,1,1.56.39,2.67,2.67,0,0,1,1.05,1.09,3.21,3.21,0,0,1,.37,1.53h-1.26a2.09,2.09,0,0,0-.44-1.43,1.61,1.61,0,0,0-1.28-.51,1.57,1.57,0,0,0-1.18.42,1.63,1.63,0,0,0-.42,1.19,1.39,1.39,0,0,0,.45,1.05,4,4,0,0,0,1.39.76,4.81,4.81,0,0,1,2.1,1.2,2.69,2.69,0,0,1,.63,1.86,2.51,2.51,0,0,1-.79,1.94,3,3,0,0,1-2.14.73,3.46,3.46,0,0,1-1.6-.38,2.88,2.88,0,0,1-1.15-1.07,3,3,0,0,1-.42-1.58h1.26a1.93,1.93,0,0,0,.52,1.44,1.9,1.9,0,0,0,1.4.51,1.68,1.68,0,0,0,1.24-.42A1.58,1.58,0,0,0,546.12,590.93Z"/><path class="cls-1" d="M554.84,584.56h-2.62v8.88H551v-8.88h-2.61v-1.07h6.48Z"/><path class="cls-1" d="M561.08,588.84h-3.52v3.53h4.1v1.07h-5.35v-10h5.28v1.07h-4v3.21h3.52Z"/><path class="cls-1" d="M566.27,589.42h-1.75v4h-1.26v-10h2.79a3,3,0,0,1,2.21.76,3.06,3.06,0,0,1,.75,2.23,3.09,3.09,0,0,1-.41,1.61,2.56,2.56,0,0,1-1.15,1l1.93,4.23v.08H568Zm-1.75-1.07H566a1.63,1.63,0,0,0,1.25-.51,1.93,1.93,0,0,0,.47-1.36q0-1.92-1.74-1.92h-1.5Z"/><path class="cls-1" d="M570.7,593.44v-10h2.37a3.42,3.42,0,0,1,2.71,1.09,4.48,4.48,0,0,1,1,3.07v1.67a4.38,4.38,0,0,1-1,3.05,3.64,3.64,0,0,1-2.84,1.08Zm1.25-8.88v7.81h1a2.33,2.33,0,0,0,1.93-.76,3.57,3.57,0,0,0,.62-2.24v-1.76a3.6,3.6,0,0,0-.61-2.31,2.23,2.23,0,0,0-1.83-.73Z"/><path class="cls-1" d="M583.19,590.84h-3.36l-.77,2.6h-1.29l3.21-10H582l3.21,10H584Zm-3-1.07h2.71l-1.36-4.53Z"/><path class="cls-1" d="M588.56,588.49l2-5H592l-2.83,6.24v3.71h-1.25v-3.71l-2.83-6.24h1.42Z"/><path class="cls-1" d="M239.26,615h-2.62v8.88h-1.25V615h-2.61V614h6.48Z"/><path class="cls-1" d="M245.5,619.33H242v3.53h4.1v1.07h-5.35V614H246V615h-4v3.21h3.52Z"/><path class="cls-1" d="M248.94,622.86h3.9v1.07h-5.16V614h1.26Z"/><path class="cls-1" d="M255.59,622.86h3.9v1.07h-5.16V614h1.26Z"/><path class="cls-1" d="M226.82,629l2.6,8.12L232,629h1.61v10h-1.25v-3.87l.12-3.88-2.6,7.76h-1l-2.59-7.73.12,3.86v3.88h-1.25V629Z"/><path class="cls-1" d="M240.55,634.33H237v3.53h4.1v1.07h-5.35V629h5.28V630h-4v3.21h3.52Z"/><path class="cls-1" d="M247.84,635.79l.13,1.11.2-1,1.59-6.95h1l1.54,6.95.2,1,.14-1.15,1.22-6.81h1.25l-2,10h-1.13l-1.66-7.25-.1-.59-.1.59-1.72,7.25h-1.13l-2-10h1.25Z"/><path class="cls-1" d="M263.12,638.93h-1.26v-4.6h-4v4.6H256.6V629h1.25v4.28h4V629h1.26Z"/><path class="cls-1" d="M267.68,634l2-5h1.42l-2.83,6.24v3.71h-1.25v-3.71L264.23,629h1.42Z"/><path class="cls-1" d="M533.51,387.92h-3.36l-.77,2.61h-1.29l3.21-10h1.07l3.21,10H534.3Zm-3-1.07h2.71l-1.36-4.53Z"/><path class="cls-1" d="M538.2,389.45h3.9v1.07h-5.16v-10h1.26Z"/><path class="cls-1" d="M544.85,389.45h3.9v1.07h-5.16v-10h1.26Z"/><path class="cls-1" d="M556,385.57l2-5h1.42l-2.83,6.24v3.71h-1.25v-3.71l-2.83-6.24H554Z"/><path class="cls-1" d="M567.06,386.43a5,5,0,0,1-.87,3.14,3,3,0,0,1-2.47,1.1,3,3,0,0,1-2.43-1.07,4.72,4.72,0,0,1-.93-3V384.7a5,5,0,0,1,.88-3.13,2.94,2.94,0,0,1,2.46-1.13,3,3,0,0,1,2.45,1.08,4.88,4.88,0,0,1,.9,3.09Zm-1.25-1.74a4.26,4.26,0,0,0-.52-2.35,2,2,0,0,0-3.14,0,4.14,4.14,0,0,0-.54,2.3v1.79a4.22,4.22,0,0,0,.53,2.32,2,2,0,0,0,3.14.06,4.15,4.15,0,0,0,.53-2.26Z"/><path class="cls-1" d="M574.93,380.57v7.07a3,3,0,0,1-.82,2.21,3,3,0,0,1-5.3-2.21v-7.07h1.24v7a2.25,2.25,0,0,0,.43,1.5,2.18,2.18,0,0,0,2.76,0,2.25,2.25,0,0,0,.43-1.5v-7Z"/><path class="cls-1" d="M522.48,405.53h-1.26l-4-7.67v7.67H516v-10h1.26l4,7.7v-7.7h1.24Z"/><path class="cls-1" d="M529.41,400.93h-3.52v3.53H530v1.07h-5.35v-10h5.28v1.07h-4v3.21h3.52Z"/><path class="cls-1" d="M536.37,400.93h-3.52v3.53h4.1v1.07H531.6v-10h5.28v1.07h-4v3.21h3.52Z"/><path class="cls-1" d="M538.55,405.53v-10h2.37a3.42,3.42,0,0,1,2.71,1.09,4.47,4.47,0,0,1,1,3.07v1.67a4.39,4.39,0,0,1-1,3.05,3.64,3.64,0,0,1-2.84,1.08Zm1.25-8.88v7.81h1a2.33,2.33,0,0,0,1.93-.76,3.57,3.57,0,0,0,.62-2.24v-1.77a3.6,3.6,0,0,0-.61-2.31,2.23,2.23,0,0,0-1.83-.74Z"/><path class="cls-1" d="M551.05,405.53H549.8v-10h1.25Z"/><path class="cls-1" d="M557.59,403a1.53,1.53,0,0,0-.4-1.14,4.13,4.13,0,0,0-1.46-.77,6.39,6.39,0,0,1-1.61-.79,2.84,2.84,0,0,1-.83-.94,2.8,2.8,0,0,1,.51-3.16,2.84,2.84,0,0,1,2.07-.77,3.07,3.07,0,0,1,1.56.39,2.66,2.66,0,0,1,1.05,1.09,3.22,3.22,0,0,1,.37,1.53h-1.26a2.1,2.1,0,0,0-.44-1.43,1.62,1.62,0,0,0-1.28-.51,1.57,1.57,0,0,0-1.18.43,1.63,1.63,0,0,0-.42,1.19,1.39,1.39,0,0,0,.45,1.05,4,4,0,0,0,1.39.76,4.79,4.79,0,0,1,2.1,1.2,2.69,2.69,0,0,1,.63,1.86,2.51,2.51,0,0,1-.79,1.94,3,3,0,0,1-2.14.73,3.46,3.46,0,0,1-1.6-.38,2.88,2.88,0,0,1-1.15-1.07,3,3,0,0,1-.42-1.58H554a1.93,1.93,0,0,0,.52,1.44,1.9,1.9,0,0,0,1.4.51,1.67,1.67,0,0,0,1.24-.42A1.57,1.57,0,0,0,557.59,403Z"/><path class="cls-1" d="M565,404.45h3.9v1.07H563.7v-10H565Z"/><path class="cls-1" d="M576.38,401.43a5,5,0,0,1-.87,3.14,3,3,0,0,1-2.47,1.1,3,3,0,0,1-2.43-1.07,4.72,4.72,0,0,1-.93-3V399.7a5,5,0,0,1,.88-3.13,2.94,2.94,0,0,1,2.46-1.13,3,3,0,0,1,2.45,1.08,4.88,4.88,0,0,1,.9,3.09Zm-1.25-1.74a4.26,4.26,0,0,0-.52-2.35,2,2,0,0,0-3.14,0,4.14,4.14,0,0,0-.54,2.3v1.79a4.22,4.22,0,0,0,.53,2.32,2,2,0,0,0,3.14.06,4.15,4.15,0,0,0,.53-2.26Z"/><path class="cls-1" d="M581,403.61l2.28-8h1.37l-3.1,10h-1.09l-3.09-10h1.37Z"/><path class="cls-1" d="M590.78,400.93h-3.52v3.53h4.1v1.07H586v-10h5.28v1.07h-4v3.21h3.52Z"/><path class="cls-1" d="M190.43,272.75h3.9v1.07h-5.16v-10h1.26Z"/><path class="cls-1" d="M200.59,271.22h-3.36l-.77,2.61h-1.29l3.21-10h1.07l3.21,10h-1.29Zm-3-1.07h2.71l-1.36-4.53Z"/><path class="cls-1" d="M204,273.83v-10h2.37a3.42,3.42,0,0,1,2.71,1.09,4.47,4.47,0,0,1,1,3.07v1.67a4.39,4.39,0,0,1-1,3.05,3.64,3.64,0,0,1-2.84,1.08Zm1.25-8.88v7.81h1a2.33,2.33,0,0,0,1.93-.76,3.57,3.57,0,0,0,.62-2.24V268a3.6,3.6,0,0,0-.61-2.31,2.23,2.23,0,0,0-1.83-.74Z"/><path class="cls-1" d="M214.3,268.87l2-5h1.42l-2.83,6.24v3.71h-1.25v-3.71l-2.83-6.24h1.42Z"/><path class="cls-1" d="M175.38,278.87,178,287l2.6-8.12h1.61v10h-1.25v-3.88l.12-3.88-2.6,7.76h-1l-2.59-7.73.12,3.86v3.88h-1.25v-10Z"/><path class="cls-1" d="M189.11,286.22h-3.36l-.77,2.61h-1.29l3.21-10H188l3.21,10h-1.29Zm-3-1.07h2.71l-1.36-4.53Z"/><path class="cls-1" d="M192.53,288.83v-10h2.37a3.42,3.42,0,0,1,2.71,1.09,4.47,4.47,0,0,1,1,3.07v1.67a4.39,4.39,0,0,1-1,3.05,3.64,3.64,0,0,1-2.84,1.08Zm1.25-8.88v7.81h1a2.33,2.33,0,0,0,1.93-.76,3.57,3.57,0,0,0,.62-2.24V283a3.6,3.6,0,0,0-.61-2.31,2.23,2.23,0,0,0-1.83-.74Z"/><path class="cls-1" d="M207,284.72a5,5,0,0,1-.87,3.14,3,3,0,0,1-2.47,1.1,3,3,0,0,1-2.43-1.07,4.72,4.72,0,0,1-.93-3V283a5,5,0,0,1,.88-3.13,2.94,2.94,0,0,1,2.46-1.13,3,3,0,0,1,2.45,1.08,4.88,4.88,0,0,1,.9,3.09ZM205.74,283a4.26,4.26,0,0,0-.52-2.35,2,2,0,0,0-3.14,0,4.14,4.14,0,0,0-.54,2.3v1.79a4.22,4.22,0,0,0,.53,2.32,2,2,0,0,0,3.14.06,4.15,4.15,0,0,0,.53-2.26Z"/><path class="cls-1" d="M215.43,288.83h-1.26l-4-7.67v7.67h-1.26v-10h1.26l4,7.7v-7.7h1.24Z"/><path class="cls-1" d="M224.1,288.83h-1.26l-4-7.67v7.67H217.6v-10h1.26l4,7.7v-7.7h1.24Z"/><path class="cls-1" d="M231,286.22h-3.36l-.77,2.61h-1.29l3.21-10h1.07l3.21,10h-1.29Zm-3-1.07h2.71l-1.36-4.53Z"/><path class="cls-1" d="M13,303.85H10.37v8.88H9.12v-8.88H6.51v-1.07H13Z"/><path class="cls-1" d="M21,312.73H19.71v-4.6h-4v4.6H14.46v-10h1.25v4.28h4v-4.28H21Z"/><path class="cls-1" d="M27.91,308.12H24.39v3.53h4.1v1.07H23.14v-10h5.28v1.07h-4v3.21h3.52Z"/><path class="cls-1" d="M37.91,308.33H34.55v4.4H33.3v-10h5.18v1.07H34.55v3.41h3.36Z"/><path class="cls-1" d="M46.5,308.62a5,5,0,0,1-.87,3.14,3,3,0,0,1-2.47,1.1,3,3,0,0,1-2.43-1.07,4.72,4.72,0,0,1-.93-3v-1.87a5,5,0,0,1,.88-3.13,2.94,2.94,0,0,1,2.46-1.13,3,3,0,0,1,2.45,1.08,4.88,4.88,0,0,1,.9,3.09Zm-1.25-1.74a4.26,4.26,0,0,0-.52-2.35,2,2,0,0,0-3.14,0,4.14,4.14,0,0,0-.54,2.3v1.79a4.22,4.22,0,0,0,.53,2.32,2,2,0,0,0,3.14.06,4.15,4.15,0,0,0,.53-2.26Z"/><path class="cls-1" d="M54.91,308.62a5,5,0,0,1-.87,3.14,3,3,0,0,1-2.47,1.1,3,3,0,0,1-2.43-1.07,4.72,4.72,0,0,1-.93-3v-1.87a5,5,0,0,1,.88-3.13,2.94,2.94,0,0,1,2.46-1.13A3,3,0,0,1,54,303.72a4.88,4.88,0,0,1,.9,3.09Zm-1.25-1.74a4.26,4.26,0,0,0-.52-2.35,2,2,0,0,0-3.14,0,4.14,4.14,0,0,0-.54,2.3v1.79a4.22,4.22,0,0,0,.53,2.32,2,2,0,0,0,3.14.06,4.15,4.15,0,0,0,.53-2.26Z"/><path class="cls-1" d="M58.1,311.65H62v1.07H56.84v-10H58.1Z"/><path class="cls-1" d="M73.17,308.62a5,5,0,0,1-.87,3.14,3,3,0,0,1-2.47,1.1,3,3,0,0,1-2.43-1.07,4.72,4.72,0,0,1-.93-3v-1.87a5,5,0,0,1,.88-3.13,2.94,2.94,0,0,1,2.46-1.13,3,3,0,0,1,2.45,1.08,4.88,4.88,0,0,1,.9,3.09Zm-1.25-1.74a4.26,4.26,0,0,0-.52-2.35,2,2,0,0,0-3.14,0,4.14,4.14,0,0,0-.54,2.3v1.79a4.22,4.22,0,0,0,.53,2.32,2,2,0,0,0,3.14.06,4.15,4.15,0,0,0,.53-2.26Z"/><path class="cls-1" d="M81.61,312.73H80.35l-4-7.67v7.67H75.11v-10h1.26l4,7.7v-7.7h1.24Z"/><path class="cls-1" d="M27.09,318.85H24.47v8.88H23.22v-8.88H20.61v-1.07h6.48Z"/><path class="cls-1" d="M35.07,327.73H33.81v-4.6h-4v4.6H28.56v-10h1.25v4.28h4v-4.28h1.26Z"/><path class="cls-1" d="M42,323.12H38.49v3.53h4.1v1.07H37.24v-10h5.28v1.07h-4v3.21H42Z"/><path class="cls-1" d="M53.91,327.73H52.65v-4.6h-4v4.6H47.4v-10h1.25v4.28h4v-4.28h1.26Z"/><path class="cls-1" d="M57.38,327.73H56.13v-10h1.25Z"/><path class="cls-1" d="M60.84,326.65h3.9v1.07H59.58v-10h1.26Z"/><path class="cls-1" d="M67.49,326.65h3.9v1.07H66.23v-10h1.26Z"/><path class="cls-1" d="M388.31,351.62h-1.25v-10h1.25Z"/><path class="cls-1" d="M398.36,349H395l-.77,2.6h-1.29l3.21-10h1.07l3.21,10h-1.29Zm-3-1.07H398l-1.36-4.53Z"/><path class="cls-1" d="M403.39,341.67l2.6,8.12,2.6-8.12h1.61v10H409v-3.87l.12-3.88-2.6,7.76h-1l-2.59-7.73.12,3.86v3.88h-1.25v-10Z"/><path class="cls-1" d="M421.11,342.75h-2.62v8.88h-1.25v-8.88h-2.61v-1.07h6.48Z"/><path class="cls-1" d="M429.09,351.62h-1.26V347h-4v4.6h-1.25v-10h1.25V346h4v-4.28h1.26Z"/><path class="cls-1" d="M436,347h-3.52v3.53h4.1v1.07h-5.35v-10h5.28v1.07h-4V346H436Z"/><path class="cls-1" d="M392.3,363.49l.13,1.11.2-1,1.59-6.95h1l1.54,6.95.2,1,.14-1.15,1.22-6.81h1.25l-2,10h-1.13l-1.66-7.25-.1-.59-.1.59-1.72,7.25h-1.13l-2-10h1.25Z"/><path class="cls-1" d="M405.41,364H402l-.77,2.6H400l3.21-10h1.07l3.21,10h-1.29Zm-3-1.07h2.71l-1.36-4.53Z"/><path class="cls-1" d="M410.09,365.55H414v1.07h-5.16v-10h1.26Z"/><path class="cls-1" d="M418.49,362.6h-1.75v4h-1.26v-10h2.79a3,3,0,0,1,2.21.76,3.06,3.06,0,0,1,.75,2.23,3.09,3.09,0,0,1-.41,1.61,2.56,2.56,0,0,1-1.15,1l1.93,4.23v.08h-1.35Zm-1.75-1.07h1.52a1.63,1.63,0,0,0,1.25-.51,1.93,1.93,0,0,0,.47-1.36q0-1.92-1.74-1.92h-1.5Z"/><path class="cls-1" d="M428.85,356.67v7.08A3,3,0,0,1,428,366a3,3,0,0,1-5.3-2.21v-7.08H424v7a2.24,2.24,0,0,0,.43,1.5,2.17,2.17,0,0,0,2.76,0,2.25,2.25,0,0,0,.43-1.5v-7Z"/><path class="cls-1" d="M435.12,364.11a1.53,1.53,0,0,0-.4-1.14,4.12,4.12,0,0,0-1.46-.77,6.32,6.32,0,0,1-1.61-.79,2.8,2.8,0,0,1-.83-.94,2.8,2.8,0,0,1,.51-3.16,2.84,2.84,0,0,1,2.07-.77,3.09,3.09,0,0,1,1.56.39A2.67,2.67,0,0,1,436,358a3.21,3.21,0,0,1,.37,1.53h-1.26a2.09,2.09,0,0,0-.44-1.43,1.61,1.61,0,0,0-1.28-.51,1.57,1.57,0,0,0-1.18.42,1.63,1.63,0,0,0-.42,1.19,1.39,1.39,0,0,0,.45,1.05,4,4,0,0,0,1.39.76,4.81,4.81,0,0,1,2.1,1.2,2.69,2.69,0,0,1,.63,1.86,2.51,2.51,0,0,1-.79,1.94,3,3,0,0,1-2.14.73,3.46,3.46,0,0,1-1.6-.38,2.88,2.88,0,0,1-1.15-1.07,3,3,0,0,1-.42-1.58h1.26a1.93,1.93,0,0,0,.52,1.44,1.9,1.9,0,0,0,1.4.51,1.68,1.68,0,0,0,1.24-.42A1.58,1.58,0,0,0,435.12,364.11Z"/><path class="cls-1" d="M401.35,428.35h3.9v1.07H400.1v-10h1.26Z"/><path class="cls-1" d="M412.31,419.47v7.07a3,3,0,0,1-.82,2.21,3,3,0,0,1-5.3-2.21v-7.07h1.24v7a2.25,2.25,0,0,0,.43,1.5,2.18,2.18,0,0,0,2.76,0,2.25,2.25,0,0,0,.43-1.5v-7Z"/><path class="cls-1" d="M420.48,426.26a3.69,3.69,0,0,1-.9,2.45,3,3,0,0,1-2.31.85,2.85,2.85,0,0,1-2.38-1.14,4.91,4.91,0,0,1-.88-3.09v-1.8a4.77,4.77,0,0,1,.91-3.07,3,3,0,0,1,2.47-1.13,2.88,2.88,0,0,1,2.23.86,3.78,3.78,0,0,1,.86,2.47h-1.26a3.08,3.08,0,0,0-.51-1.74,1.61,1.61,0,0,0-1.31-.52,1.78,1.78,0,0,0-1.57.8,4.13,4.13,0,0,0-.55,2.33v1.83a4.36,4.36,0,0,0,.51,2.32,1.65,1.65,0,0,0,1.49.81,1.8,1.8,0,0,0,1.41-.48,3.06,3.06,0,0,0,.53-1.74Z"/><path class="cls-1" d="M424.77,424.47l2-5h1.42l-2.83,6.24v3.71h-1.25v-3.71l-2.83-6.24h1.42Z"/><path class="cls-1" d="M434,429.43h-1.25v-10H434Z"/><path class="cls-1" d="M442.72,429.43h-1.26l-4-7.67v7.67h-1.26v-10h1.26l4,7.7v-7.7h1.24Z"/><path class="cls-1" d="M453.64,420.55H451v8.88h-1.25v-8.88h-2.61v-1.07h6.48Z"/><path class="cls-1" d="M461.63,429.43h-1.26v-4.6h-4v4.6h-1.25v-10h1.25v4.28h4v-4.28h1.26Z"/><path class="cls-1" d="M468.56,424.83H465v3.53h4.1v1.07h-5.35v-10h5.28v1.07h-4v3.21h3.52Z"/><path class="cls-1" d="M478.3,426.91a1.53,1.53,0,0,0-.4-1.14,4.13,4.13,0,0,0-1.46-.77,6.39,6.39,0,0,1-1.61-.79,2.84,2.84,0,0,1-.83-.94,2.8,2.8,0,0,1,.51-3.16,2.84,2.84,0,0,1,2.07-.77,3.07,3.07,0,0,1,1.56.39,2.66,2.66,0,0,1,1.05,1.09,3.22,3.22,0,0,1,.37,1.53H478.3a2.1,2.1,0,0,0-.44-1.43,1.62,1.62,0,0,0-1.28-.51,1.57,1.57,0,0,0-1.18.43A1.63,1.63,0,0,0,475,422a1.39,1.39,0,0,0,.45,1.05,4,4,0,0,0,1.39.76,4.79,4.79,0,0,1,2.1,1.2,2.69,2.69,0,0,1,.63,1.86,2.51,2.51,0,0,1-.79,1.94,3,3,0,0,1-2.14.73,3.46,3.46,0,0,1-1.6-.38,2.88,2.88,0,0,1-1.15-1.07,3,3,0,0,1-.42-1.58h1.26a1.93,1.93,0,0,0,.52,1.44,1.9,1.9,0,0,0,1.4.51,1.67,1.67,0,0,0,1.24-.42A1.57,1.57,0,0,0,478.3,426.91Z"/><path class="cls-1" d="M483.43,424.84l-1,1.18v3.4H481.2v-10h1.25v4.8l.82-1.09,2.68-3.72h1.5l-3.23,4.38,3.49,5.57h-1.5Z"/><path class="cls-1" d="M491.42,424.47l2-5h1.42L492,425.71v3.71h-1.25v-3.71L488,419.47h1.42Z"/><path class="cls-1" d="M402.18,441.29l.13,1.12.2-1,1.59-6.95h1l1.54,6.95.2,1,.14-1.15,1.22-6.81h1.25l-2,10h-1.13l-1.66-7.25-.1-.59-.1.59-1.72,7.25h-1.13l-2-10h1.25Z"/><path class="cls-1" d="M412.25,444.43H411v-10h1.25Z"/><path class="cls-1" d="M420.06,435.55h-2.62v8.88h-1.25v-8.88h-2.61v-1.07h6.48Z"/><path class="cls-1" d="M428,444.43h-1.26v-4.6h-4v4.6h-1.25v-10h1.25v4.28h4v-4.28H428Z"/><path class="cls-1" d="M433.42,444.43v-10h2.37a3.42,3.42,0,0,1,2.71,1.09,4.47,4.47,0,0,1,1,3.07v1.67a4.39,4.39,0,0,1-1,3.05,3.64,3.64,0,0,1-2.84,1.08Zm1.25-8.88v7.81h1a2.33,2.33,0,0,0,1.93-.76,3.57,3.57,0,0,0,.62-2.24v-1.77a3.6,3.6,0,0,0-.61-2.31,2.23,2.23,0,0,0-1.83-.74Z"/><path class="cls-1" d="M442.71,444.43h-1.25v-10h1.25Z"/><path class="cls-1" d="M449.67,441.82h-3.36l-.77,2.61h-1.29l3.21-10h1.07l3.21,10h-1.29Zm-3-1.07h2.71L448,436.22Z"/><path class="cls-1" d="M454.71,434.47l2.6,8.12,2.6-8.12h1.61v10h-1.25v-3.88l.12-3.88-2.6,7.76h-1l-2.59-7.73.12,3.86v3.88H453.1v-10Z"/><path class="cls-1" d="M470.15,440.33a5,5,0,0,1-.87,3.14,3,3,0,0,1-2.47,1.1,3,3,0,0,1-2.43-1.07,4.72,4.72,0,0,1-.93-3V438.6a5,5,0,0,1,.88-3.13,2.94,2.94,0,0,1,2.46-1.13,3,3,0,0,1,2.45,1.08,4.88,4.88,0,0,1,.9,3.09Zm-1.25-1.74a4.26,4.26,0,0,0-.52-2.35,2,2,0,0,0-3.14,0,4.14,4.14,0,0,0-.54,2.3v1.79a4.22,4.22,0,0,0,.53,2.32,2,2,0,0,0,3.14.06,4.15,4.15,0,0,0,.53-2.26Z"/><path class="cls-1" d="M478.58,444.43h-1.26l-4-7.67v7.67h-1.26v-10h1.26l4,7.7v-7.7h1.24Z"/><path class="cls-1" d="M480.75,444.43v-10h2.37a3.42,3.42,0,0,1,2.71,1.09,4.47,4.47,0,0,1,1,3.07v1.67a4.39,4.39,0,0,1-1,3.05,3.64,3.64,0,0,1-2.84,1.08Zm1.25-8.88v7.81h1a2.33,2.33,0,0,0,1.93-.76,3.57,3.57,0,0,0,.62-2.24v-1.77a3.6,3.6,0,0,0-.61-2.31,2.23,2.23,0,0,0-1.83-.74Z"/><path class="cls-1" d="M493.09,441.91a1.53,1.53,0,0,0-.4-1.14,4.13,4.13,0,0,0-1.46-.77,6.39,6.39,0,0,1-1.61-.79,2.84,2.84,0,0,1-.83-.94,2.8,2.8,0,0,1,.51-3.16,2.84,2.84,0,0,1,2.07-.77,3.07,3.07,0,0,1,1.56.39,2.66,2.66,0,0,1,1.05,1.09,3.22,3.22,0,0,1,.37,1.53h-1.26a2.1,2.1,0,0,0-.44-1.43,1.62,1.62,0,0,0-1.28-.51,1.57,1.57,0,0,0-1.18.43,1.63,1.63,0,0,0-.42,1.19,1.39,1.39,0,0,0,.45,1.05,4,4,0,0,0,1.39.76,4.79,4.79,0,0,1,2.1,1.2,2.69,2.69,0,0,1,.63,1.86,2.51,2.51,0,0,1-.79,1.94,3,3,0,0,1-2.14.73,3.46,3.46,0,0,1-1.6-.38,2.88,2.88,0,0,1-1.15-1.07,3,3,0,0,1-.42-1.58h1.26A1.93,1.93,0,0,0,490,443a1.9,1.9,0,0,0,1.4.51,1.67,1.67,0,0,0,1.24-.42A1.57,1.57,0,0,0,493.09,441.91Z"/><line class="cls-2" x1="312.77" y1="62.67" x2="396.82" y2="309.32"/><polygon class="cls-3" points="391.63 309.55 399.13 316.11 401.07 306.33 391.63 309.55"/><line class="cls-4" x1="418.2" y1="176.6" x2="437.41" y2="209.92"/><polygon class="cls-5" points="432.36 211.15 441 216.14 441 206.16 432.36 211.15"/><line class="cls-6" x1="297.46" y1="218.31" x2="400.24" y2="328.49"/><polygon class="cls-7" points="395.6 330.83 405.14 333.74 402.89 324.02 395.6 330.83"/><line class="cls-6" x1="172.47" y1="92.87" x2="136.81" y2="108.5"/><polygon class="cls-7" points="136.14 103.34 130.24 111.38 140.15 112.48 136.14 103.34"/><line class="cls-4" x1="297.46" y1="218.31" x2="270.26" y2="442.13"/><polygon class="cls-5" points="265.49 440.08 269.39 449.26 275.38 441.29 265.49 440.08"/><line class="cls-4" x1="297.46" y1="218.31" x2="88.02" y2="483.73"/><polygon class="cls-5" points="85.01 479.5 83.57 489.37 92.84 485.68 85.01 479.5"/><line class="cls-4" x1="297.46" y1="218.31" x2="230.27" y2="264.5"/><polygon class="cls-5" points="228.64 259.57 224.35 268.57 234.29 267.78 228.64 259.57"/><line class="cls-6" x1="297.46" y1="218.31" x2="93.78" y2="293.28"/><polygon class="cls-7" points="93.43 288.1 87.05 295.76 96.87 297.45 93.43 288.1"/><line class="cls-2" x1="297.46" y1="218.31" x2="410.8" y2="674.3"/><polygon class="cls-3" points="405.61 674.09 412.53 681.26 415.29 671.68 405.61 674.09"/><path class="cls-1" d="M285.95,194.79l-.22.27a3.44,3.44,0,0,1-2.76,1.1,3.17,3.17,0,0,1-2.53-1.07,4.58,4.58,0,0,1-.94-3v-2a4.93,4.93,0,0,1,.84-3.13,3.53,3.53,0,0,1,4.73-.25,3.3,3.3,0,0,1,.88,2.26H284.7a2.51,2.51,0,0,0-.52-1.45,1.65,1.65,0,0,0-1.34-.52,1.8,1.8,0,0,0-1.57.7,4,4,0,0,0-.52,2.24v2a3.93,3.93,0,0,0,.57,2.31,1.9,1.9,0,0,0,1.65.8,2.17,2.17,0,0,0,1.54-.49l.18-.17v-2.29h-1.82v-1.07h3.07Z"/><path class="cls-1" d="M289.25,195h3.9V196H288v-10h1.26Z"/><path class="cls-1" d="M299.41,193.42h-3.36l-.77,2.61H294l3.21-10h1.07l3.21,10H300.2Zm-3-1.07h2.71l-1.36-4.53Z"/><path class="cls-1" d="M307.19,193.51a1.53,1.53,0,0,0-.4-1.14,4.13,4.13,0,0,0-1.46-.77,6.39,6.39,0,0,1-1.61-.79,2.84,2.84,0,0,1-.83-.94,2.8,2.8,0,0,1,.51-3.16,2.84,2.84,0,0,1,2.07-.77,3.07,3.07,0,0,1,1.56.39,2.66,2.66,0,0,1,1.05,1.09,3.22,3.22,0,0,1,.37,1.53h-1.26a2.1,2.1,0,0,0-.44-1.43,1.62,1.62,0,0,0-1.28-.51,1.57,1.57,0,0,0-1.18.43,1.63,1.63,0,0,0-.42,1.19,1.39,1.39,0,0,0,.45,1.05,4,4,0,0,0,1.39.76,4.79,4.79,0,0,1,2.1,1.2,2.69,2.69,0,0,1,.63,1.86,2.51,2.51,0,0,1-.79,1.94,3,3,0,0,1-2.14.73,3.46,3.46,0,0,1-1.6-.38,2.88,2.88,0,0,1-1.15-1.07,3,3,0,0,1-.42-1.58h1.26a1.93,1.93,0,0,0,.52,1.44,1.9,1.9,0,0,0,1.4.51,1.67,1.67,0,0,0,1.24-.42A1.57,1.57,0,0,0,307.19,193.51Z"/><path class="cls-1" d="M314.44,193.51a1.53,1.53,0,0,0-.4-1.14,4.13,4.13,0,0,0-1.46-.77,6.39,6.39,0,0,1-1.61-.79,2.84,2.84,0,0,1-.83-.94,2.8,2.8,0,0,1,.51-3.16,2.84,2.84,0,0,1,2.07-.77,3.07,3.07,0,0,1,1.56.39,2.66,2.66,0,0,1,1.05,1.09,3.22,3.22,0,0,1,.37,1.53h-1.26a2.1,2.1,0,0,0-.44-1.43,1.62,1.62,0,0,0-1.28-.51,1.57,1.57,0,0,0-1.18.43,1.63,1.63,0,0,0-.42,1.19,1.39,1.39,0,0,0,.45,1.05,4,4,0,0,0,1.39.76,4.79,4.79,0,0,1,2.1,1.2,2.69,2.69,0,0,1,.63,1.86,2.51,2.51,0,0,1-.79,1.94,3,3,0,0,1-2.14.73,3.46,3.46,0,0,1-1.6-.38,2.88,2.88,0,0,1-1.15-1.07,3,3,0,0,1-.42-1.58h1.26a1.93,1.93,0,0,0,.52,1.44,1.9,1.9,0,0,0,1.4.51,1.67,1.67,0,0,0,1.24-.42A1.57,1.57,0,0,0,314.44,193.51Z"/><path class="cls-1" d="M286.18,206.92a5,5,0,0,1-.87,3.14,3,3,0,0,1-2.47,1.1,3,3,0,0,1-2.43-1.07,4.72,4.72,0,0,1-.93-3v-1.87a5,5,0,0,1,.88-3.13,2.94,2.94,0,0,1,2.46-1.13,3,3,0,0,1,2.45,1.08,4.88,4.88,0,0,1,.9,3.09Zm-1.25-1.74a4.26,4.26,0,0,0-.52-2.35,2,2,0,0,0-3.14,0,4.14,4.14,0,0,0-.54,2.3v1.79a4.22,4.22,0,0,0,.53,2.32,2,2,0,0,0,3.14.06,4.15,4.15,0,0,0,.53-2.26Z"/><path class="cls-1" d="M294.62,211h-1.26l-4-7.67V211h-1.26v-10h1.26l4,7.7v-7.7h1.24Z"/><path class="cls-1" d="M298.09,211h-1.25v-10h1.25Z"/><path class="cls-1" d="M306.76,206.92a5,5,0,0,1-.87,3.14,3,3,0,0,1-2.47,1.1,3,3,0,0,1-2.43-1.07,4.72,4.72,0,0,1-.93-3v-1.87a5,5,0,0,1,.88-3.13,2.94,2.94,0,0,1,2.46-1.13,3,3,0,0,1,2.45,1.08,4.88,4.88,0,0,1,.9,3.09Zm-1.25-1.74a4.26,4.26,0,0,0-.52-2.35,2,2,0,0,0-3.14,0,4.14,4.14,0,0,0-.54,2.3v1.79a4.22,4.22,0,0,0,.53,2.32,2,2,0,0,0,3.14.06,4.15,4.15,0,0,0,.53-2.26Z"/><path class="cls-1" d="M315.19,211h-1.26l-4-7.67V211h-1.26v-10h1.26l4,7.7v-7.7h1.24Z"/><line class="cls-2" x1="556.92" y1="416.97" x2="554.29" y2="567.98"/><polygon class="cls-3" points="549.33 566.43 554.16 575.15 559.3 566.61 549.33 566.43"/><line class="cls-6" x1="556.92" y1="416.97" x2="679.83" y2="638.42"/><polygon class="cls-7" points="674.76 639.56 683.32 644.69 683.49 634.72 674.76 639.56"/><line class="cls-4" x1="419" y1="373.99" x2="429.35" y2="403.77"/><polygon class="cls-5" points="424.16 404.03 431.7 410.55 433.58 400.76 424.16 404.03"/><line class="cls-2" x1="255.24" y1="568.21" x2="251.59" y2="597.89"/><polygon class="cls-3" points="246.82 595.83 250.71 605.01 256.72 597.05 246.82 595.83"/></svg>