<svg id="Layer_1" data-name="Layer 1" xmlns="http://www.w3.org/2000/svg" viewBox="0 0 948.52 889.11"><defs><style>.cls-1,.cls-2,.cls-8{fill:none;stroke:#fff8ce;}.cls-1{stroke-width:0.59px;}.cls-2{stroke-width:1.17px;}.cls-3{fill:#fff8ce;}.cls-4{fill:#51c3f0;}.cls-5{fill:#ffce08;}.cls-6{fill:#1e1e1a;}.cls-7{fill:#ed3766;}.cls-8{stroke-width:0.87px;}.cls-9{fill:#75bf44;}.cls-10{fill:#59c9ee;}</style></defs><title>yg-beatles-1708706-schedule-for_site</title><g id="_Group_" data-name="&lt;Group&gt;"><line class="cls-1" x1="449.77" y1="832.69" x2="449.77" y2="869.8"/><polyline class="cls-1" points="645.36 780.35 645.4 780.42 663.92 812.5"/><polyline class="cls-1" points="788.61 637.11 788.68 637.15 820.75 655.65"/><line class="cls-1" x1="840.95" y1="441.53" x2="878.06" y2="441.53"/><polyline class="cls-1" points="788.61 245.93 788.67 245.9 820.75 227.38"/><polyline class="cls-1" points="605.9 171.05 645.4 102.63 663.92 70.55"/><polyline class="cls-1" points="254.19 102.69 254.15 102.62 235.64 70.55"/><polyline class="cls-1" points="110.95 245.93 110.88 245.9 78.8 227.38"/><line class="cls-1" x1="58.61" y1="441.53" x2="21.5" y2="441.53"/><polyline class="cls-1" points="110.95 637.11 110.88 637.14 78.8 655.65"/><polyline class="cls-1" points="314.04 519.88 246.28 558.98 178.66 598.01"/><polyline class="cls-1" points="254.19 780.35 254.16 780.42 235.64 812.5"/><path class="cls-2" d="M840.95,441.53a390.75,390.75,0,1,0-52.27,195.62A389.54,389.54,0,0,0,840.95,441.53Z"/><polyline class="cls-1" points="449.77 519.72 449.77 597.9 449.77 675.73 449.77 753.94 449.77 832.69"/><polyline class="cls-1" points="488.72 508.99 527.81 576.71 566.81 644.27 605.9 711.99 645.36 780.35"/><polyline class="cls-1" points="517.09 480.37 584.71 519.41 652.44 558.51 720.07 597.55 788.61 637.11"/><polyline class="cls-1" points="527.42 441.53 527.44 441.53 605.43 441.53 683.64 441.53 761.64 441.53 840.95 441.53"/><polyline class="cls-1" points="517.09 402.68 584.71 363.64 652.44 324.53 720.07 285.49 788.61 245.93"/><polyline class="cls-1" points="488.72 374.06 527.81 306.33 566.81 238.77 605.9 171.05 645.36 102.69"/><polyline class="cls-1" points="410.56 373.59 371.46 305.85 332.46 238.3 293.38 170.58 254.19 102.69"/><polyline class="cls-1" points="246.28 324.06 178.66 285.03 110.95 245.93"/><polyline class="cls-1" points="381.66 402.21 314.04 363.17 246.3 324.06"/><polyline class="cls-1" points="371.03 441.53 293.02 441.53 214.82 441.53 136.81 441.53 58.61 441.53"/><polyline class="cls-1" points="381.66 480.84 314.04 519.88 246.3 558.99 178.66 598.01 110.95 637.11"/><polyline class="cls-1" points="332.46 644.74 293.38 712.46 254.19 780.35"/><polyline class="cls-1" points="410.56 509.46 371.46 577.19 332.48 644.74"/><path class="cls-2" d="M457.48,129.21a312.41,312.41,0,0,1-7.71,624.73h-.54a312.41,312.41,0,0,1-6.68-624.76"/><path class="cls-2" d="M441.74,207.42A234.07,234.07,0,0,0,246.3,324.07h0a235,235,0,0,0,0,234.91s0,0,0,0a234.85,234.85,0,0,0,86.17,85.75h0a233.72,233.72,0,0,0,116.76,31h.54a234.21,234.21,0,0,0,7.79-468.28"/><path class="cls-2" d="M371,441.53a77.72,77.72,0,0,0,10.62,39.31,78.75,78.75,0,0,0,28.9,28.62,77.65,77.65,0,0,0,38.68,10.27h.54A77.44,77.44,0,0,0,488.72,509a78.75,78.75,0,0,0,28.36-28.62h0a78.09,78.09,0,0,0,0-77.69h0a78.76,78.76,0,0,0-28.36-28.62,77.45,77.45,0,0,0-38.94-10.72h-.54a77.65,77.65,0,0,0-38.68,10.27,78.75,78.75,0,0,0-28.9,28.62A77.72,77.72,0,0,0,371,441.53Z"/></g><path class="cls-3" d="M504.86,40.34c-.24,1.87-1.47,3.62-4.55,3.22-2.56-.34-3.82-1.95-3.48-4.53l.11-.85,1.83.24-.08.58c-.21,1.6.07,2.79,1.85,3s2.32-.67,2.52-2.19l1.32-10,1.83.24Z"/><path class="cls-3" d="M517.71,31.82l2,.34,3,14.56-2-.34L519.92,42l-5.77-1-2.23,3.85L510,44.56ZM515,39.6l4.63.79-1.19-6.76h0Z"/><path class="cls-3" d="M531.24,34.3l1.91.41,4.75,12.52h0l2.38-11,1.71.37-2.93,13.53-2-.43L532.4,37.34h0L530,48.2l-1.7-.37Z"/><path class="cls-3" d="M558.25,49.89c-.9,3.37-3.3,4.64-6.64,3.76s-5.07-3.05-4.13-6.61l2.27-8.55,1.78.47-2.27,8.55c-.63,2.36.38,4,2.74,4.64s3.83-.37,4.46-2.73l2.27-8.55,1.78.47Z"/><path class="cls-3" d="M571.71,44.68l1.94.61,1,14.83-1.94-.61-.2-4.43-5.59-1.75-2.73,3.52-1.81-.57ZM568,52l4.48,1.4-.27-6.85h0Z"/><path class="cls-3" d="M584.8,49l6.13,2.22c2.44.88,3.48,2.76,2.72,4.84a3.32,3.32,0,0,1-3.46,2.48v0c1.41.84,1.32,2.06,1,3.39s-.94,2.71-.53,3.87l-1.93-.7c-.3-.71.48-2,.69-3.38s.36-2.53-1.32-3.14l-4.23-1.53-2,5.56L580.09,62ZM588,56.9c1.62.59,3.16.67,3.85-1.23a2.19,2.19,0,0,0-1.51-3.06L586,51l-1.64,4.54Z"/><path class="cls-3" d="M603.37,64.8,601.23,70l-1.7-.7,2.15-5.24-1.85-9.6,2,.83L603.19,63l6.25-4.56,1.94.79Z"/><path class="cls-3" d="M275.75,64.15l4.35-1.93c3.9-1.73,6.95-.74,8.75,3.34,1.88,4.24,1.08,7.46-3.15,9.33l-4.35,1.92Zm6.67,10.5,2.8-1.24c1.15-.51,4.12-2.2,2-6.87-1.34-3-3.26-4.35-6.37-3l-2.84,1.26Z"/><path class="cls-3" d="M292.82,56.79l8.9-3.5.57,1.44-7.18,2.82,1.61,4.1,6.7-2.64.57,1.44-6.7,2.64L299,67.56l7.24-2.85.57,1.44-9,3.52Z"/><path class="cls-3" d="M319.08,51.56A3.65,3.65,0,0,0,314.46,50c-3.12,1.07-3.56,4.1-2.62,6.83,1,3,3.21,5,6.34,4,2.29-.79,3.06-2.86,2.48-5.08l1.74-.6c.79,3.38-.56,6.06-3.86,7.2-4.07,1.4-7.09-.93-8.4-4.74s-.21-7.64,3.83-9c2.73-.94,5.49-.25,6.86,2.4Z"/><path class="cls-3" d="M326.5,44.8l9.17-2.72.44,1.49-7.4,2.19L330,50l6.9-2,.44,1.49-6.9,2,1.36,4.59,7.46-2.21.44,1.49-9.23,2.73Z"/><path class="cls-3" d="M342.79,40.11l2.45-.6,7,10.26,1.48-12.35,2.45-.6,3.31,13.45-1.7.42L355,39.49h0l-1.45,12.22L352,52.1l-6.95-10.16h0l2.75,11.19-1.69.42Z"/><path class="cls-3" d="M364.16,35.1l4.93-1a8.33,8.33,0,0,1,3.69-.21,3.29,3.29,0,0,1,2.15,2.53,3.2,3.2,0,0,1-1.42,3.44v0a3.18,3.18,0,0,1,3.23,2.77,3.93,3.93,0,0,1-3.37,4.71l-6.57,1.28Zm2.95,5.49,3.62-.7c2.06-.4,2.75-1.31,2.47-2.73-.37-1.88-1.75-1.89-3.31-1.59l-3.62.7Zm1.21,6.23,4.53-.88A2.37,2.37,0,0,0,374.93,43c-.34-1.77-1.87-2-3.39-1.69l-4.13.8Z"/><path class="cls-3" d="M382.08,31.81l9.45-1.42.23,1.53-7.63,1.15.66,4.35,7.12-1.07.23,1.54L385,39l.71,4.74,7.69-1.16.23,1.53-9.51,1.43Z"/><path class="cls-3" d="M398.7,29.46l6.48-.7c2.58-.28,4.34,1,4.57,3.16a3.32,3.32,0,0,1-2,3.75v0c1.63.14,2.09,1.28,2.37,2.61s.35,2.85,1.22,3.71l-2,.22c-.58-.5-.45-2-.87-3.34s-.79-2.43-2.56-2.24l-4.47.48L402,43l-1.83.2ZM405,35.19c1.72-.18,3.13-.79,2.92-2.79a2.19,2.19,0,0,0-2.7-2.09l-4.55.49.52,4.8Z"/><path class="cls-3" d="M110.1,202l1.15-1.58,13.37.71,0,0-9.08-6.61,1-1.41,11.2,8.15-1.19,1.63-13.24-.69,0,0,9,6.54-1,1.41Z"/><path class="cls-3" d="M124.87,181.9c2.75-3.44,6.87-3,9.81-.64s4.27,6.28,1.51,9.71-6.87,3-9.81.64S122.11,185.34,124.87,181.9ZM135,190c2.11-2.63.73-5.56-1.45-7.31s-5.34-2.46-7.45.17-.73,5.56,1.45,7.31S132.87,192.64,135,190Z"/><path class="cls-3" d="M148,176.47,146.58,178l-13.63-5.46,1.32-1.5L145.9,176l0,0-6.39-10.92,1.27-1.44Z"/><path class="cls-3" d="M145.11,159,151.7,152l1.12,1.07-5.32,5.59,3.19,3,5-5.21,1.12,1.07-5,5.22,3.47,3.3,5.36-5.64,1.13,1.07-6.63,7Z"/><path class="cls-3" d="M156.89,146.77l1.82-1.74,11.2,5.39L165,139l1.82-1.74,9.57,10-1.26,1.21-8-8.33,0,0L172,151.47l-1.14,1.08-11.09-5.34,0,0,8,8.32-1.26,1.21Z"/><path class="cls-3" d="M172.91,131.77l3.8-3.29a8.33,8.33,0,0,1,3.1-2,3.29,3.29,0,0,1,3.13,1.12,3.2,3.2,0,0,1,.48,3.69l0,0a3.17,3.17,0,0,1,4.18.79,3.93,3.93,0,0,1-.57,5.76L182,142.23Zm5.29,3.29,2.78-2.41c1.58-1.37,1.73-2.5.78-3.6-1.26-1.45-2.46-.77-3.66.28l-2.78,2.41Zm4.16,4.79,3.49-3a2.37,2.37,0,0,0,.34-3.58c-1.18-1.36-2.61-.79-3.78.23l-3.18,2.76Z"/><path class="cls-3" d="M186.8,120l7.48-6,1,1.21-6,4.8,2.74,3.45,5.63-4.48,1,1.21-5.63,4.48,3,3.75,6.09-4.84,1,1.21-7.53,6Z"/><path class="cls-3" d="M200,109.65l5.27-3.84c2.1-1.53,4.24-1.33,5.54.45a3.32,3.32,0,0,1,.12,4.25l0,0c1.48-.7,2.45.07,3.36,1.08s1.72,2.3,2.91,2.61l-1.66,1.21c-.75-.15-1.4-1.53-2.42-2.46s-1.9-1.71-3.34-.66L206.19,115l3.48,4.78-1.49,1.08Zm8.35,1.81c1.4-1,2.32-2.24,1.14-3.87a2.19,2.19,0,0,0-3.38-.46l-3.7,2.69,2.84,3.9Z"/><path class="cls-3" d="M37.36,388c.57-4.37,4.33-6.12,8.06-5.63s6.9,3.16,6.33,7.52-4.33,6.12-8.06,5.63S36.79,392.35,37.36,388Zm12.85,1.69c.44-3.35-2.26-5.13-5-5.49s-5.84.66-6.28,4,2.26,5.13,5,5.49S49.77,393,50.21,389.67Z"/><path class="cls-3" d="M45.51,365.4a3.65,3.65,0,0,0-3.59,3.3c-.58,3.25,1.85,5.1,4.69,5.61,3.11.56,6-.35,6.54-3.62.43-2.39-1-4.06-3.23-4.64l.33-1.81c3.34,1,5,3.44,4.41,6.88-.76,4.24-4.26,5.74-8.23,5s-6.78-3.54-6-7.74c.51-2.84,2.46-4.92,5.43-4.82Z"/><path class="cls-3" d="M45.42,352.92l-1,4.51-1.51-.34,2.41-10.81,1.52.34-1,4.51,12,2.67-.4,1.8Z"/><path class="cls-3" d="M48.05,334.23c1.14-4.25,5.1-5.5,8.73-4.52s6.43,4,5.28,8.29-5.09,5.5-8.73,4.52S46.91,338.49,48.05,334.23Zm12.51,3.36c.88-3.26-1.57-5.38-4.26-6.11s-5.88-.11-6.75,3.15,1.57,5.38,4.26,6.11S59.69,340.86,60.57,337.6Z"/><path class="cls-3" d="M52.18,320.94l1.53-4.79a8.33,8.33,0,0,1,1.59-3.34,3.29,3.29,0,0,1,3.25-.67,3.2,3.2,0,0,1,2.33,2.9h0a3.17,3.17,0,0,1,4-1.5,3.93,3.93,0,0,1,2.51,5.22l-2,6.37Zm6.23.05,1.12-3.51c.64-2,.18-3-1.21-3.48-1.83-.58-2.5.63-3,2.14l-1.12,3.51Zm6,1.93,1.4-4.4a2.37,2.37,0,0,0-1.58-3.23c-1.72-.55-2.64.68-3.11,2.16l-1.28,4Z"/><path class="cls-3" d="M57.89,303.63l3.29-9,1.46.53L60,302.44,64.12,304l2.47-6.76,1.46.53-2.47,6.76,4.5,1.65,2.67-7.3,1.46.53-3.31,9Z"/><path class="cls-3" d="M63.81,287.94l2.5-6c1-2.4,2.92-3.34,5-2.5A3.32,3.32,0,0,1,73.59,283h0c.9-1.37,2.12-1.22,3.43-.82s2.67,1.07,3.84.71l-.79,1.9c-.72.27-2-.57-3.35-.84s-2.51-.47-3.2,1.17l-1.73,4.15,5.46,2.27-.71,1.7Zm8.07-2.8c.66-1.6.81-3.13-1-3.9a2.19,2.19,0,0,0-3.13,1.37L66,286.83l4.46,1.85Z"/><path class="cls-3" d="M46.37,481.6c2-.39,2.68-1.78,2.52-3.67-.14-1.54-.83-3-2.63-2.88s-1.75,2.38-2.06,4.64-.88,4.52-3.59,4.76c-2.94.26-4.37-2.51-4.59-5-.27-3.09,1-5.83,4.36-6.13l.15,1.74c-2.32.21-3.15,2.23-3,4.31.15,1.66.83,3.45,2.82,3.27s2-2.4,2.31-4.64.73-4.52,3.26-4.75c2.8-.25,4.26,2.13,4.48,4.64.25,2.82-.89,5.08-3.91,5.47Z"/><path class="cls-3" d="M51.35,490.08l1.24,9.48-1.54.2-1-7.65-4.36.57.93,7.13-1.54.2-.93-7.13-4.75.62,1,7.71-1.54.2-1.25-9.54Z"/><path class="cls-3" d="M53.59,506.11l1,6c.47,2.71-.79,4.45-3.31,4.88s-4.31-.77-4.76-3.49l-.72-4.16-5.58,1-.31-1.82Zm-6.22,2.95.62,3.56c.34,2,1.4,2.83,3,2.55s2.34-1.37,2-3.41l-.62-3.56Z"/><path class="cls-3" d="M55.78,526.11l-1-4.51,1.52-.33,2.33,10.83-1.52.33-1-4.51-12,2.59-.39-1.8Z"/><path class="cls-3" d="M60,537.79,62.4,547l-1.5.39L59,540l-4.26,1.1,1.79,7-1.5.39-1.79-7-4.64,1.19,1.94,7.53-1.5.39-2.4-9.31Z"/><path class="cls-3" d="M64.2,553.53l.74,2.41-9.84,7.6,12.41.76.74,2.41L55,570.79l-.51-1.67,11-3.39v0l-12.28-.74-.46-1.5,9.74-7.53v0l-11,3.39L51,557.61Z"/><path class="cls-3" d="M70.67,573.78l1.71,4.72a8.33,8.33,0,0,1,.77,3.62A3.28,3.28,0,0,1,71,584.64a3.19,3.19,0,0,1-3.62-.88h0a3.18,3.18,0,0,1-2.24,3.62,3.93,3.93,0,0,1-5.17-2.6l-2.28-6.29ZM59.74,579.7,61.31,584a2.37,2.37,0,0,0,3.22,1.6c1.7-.61,1.67-2.15,1.15-3.61l-1.43-4Zm6-2.16L67,581c.71,2,1.72,2.52,3.08,2,1.81-.65,1.6-2,1.06-3.52L69.84,576Z"/><path class="cls-3" d="M76.84,590.3l3.64,8.85-1.44.59-2.93-7.14L72,594.26l2.74,6.66-1.44.59-2.74-6.66-4.43,1.82,3,7.19-1.44.59L64,595.56Z"/><path class="cls-3" d="M83.12,605.22l2.73,5.92c1.09,2.36.47,4.42-1.53,5.34a3.32,3.32,0,0,1-4.2-.72l0,0c.39,1.59-.55,2.39-1.72,3.08s-2.59,1.24-3.13,2.34l-.86-1.87c.29-.71,1.77-1.07,2.89-1.89s2.05-1.52,1.31-3.14l-1.88-4.09-5.37,2.47L70.54,611ZM79.7,613c.72,1.57,1.74,2.72,3.58,1.88a2.19,2.19,0,0,0,1.12-3.23l-1.92-4.16-4.39,2Z"/><path class="cls-3" d="M136.11,691.68l1.27,1.59-7.45,12.87-1.27-1.59,2.32-3.78-3.66-4.58-4.23,1.39-1.19-1.49Zm-7.21,4,2.93,3.67,3.61-5.84,0,0Z"/><path class="cls-3" d="M145.05,716c-2.63,2.3-5.33,2-7.6-.59s-2.5-5.36.28-7.79l6.66-5.82,1.21,1.39L138.94,709c-1.84,1.61-1.93,3.54-.32,5.38s3.38,1.84,5.22.23l6.66-5.82,1.21,1.39Z"/><path class="cls-3" d="M155.1,731.48a5.42,5.42,0,0,1-4.56-1.78c-2.86-3-2.13-7.09.47-9.59,2.91-2.8,7-3.62,10-.46,2.1,2.18,2.78,4.86.81,7.48l-1.28-1.33c1.25-1.72.77-3.59-.65-5.07-2.32-2.42-5.39-1.41-7.53.65s-2.83,5-.69,7.25a4.17,4.17,0,0,0,6.33.07l-3.06-3.19,1.12-1.07,4.21,4.37L155,733.86l-.81-.84Z"/><path class="cls-3" d="M172,743.3c-2.4,2.54-5.12,2.5-7.63.12s-3-5.11-.45-7.78l6.08-6.42,1.34,1.27-6.09,6.42c-1.68,1.77-1.59,3.71.18,5.39s3.54,1.51,5.22-.26l6.09-6.42,1.34,1.27Z"/><path class="cls-3" d="M186.9,750.09c1.13-1.63.7-3.14-.74-4.39-1.17-1-2.71-1.61-3.89-.24s.39,2.93,1.74,4.77,2.5,3.86.72,5.91c-1.93,2.23-4.89,1.23-6.79-.42-2.34-2-3.33-4.89-1.12-7.44l1.32,1.14c-1.53,1.76-.72,3.79.86,5.16,1.26,1.09,3,1.9,4.3.39s-.21-3.13-1.56-4.95-2.62-3.76-1-5.68c1.84-2.12,4.55-1.42,6.45.23,2.14,1.85,2.89,4.28,1,6.65Z"/><path class="cls-3" d="M197.85,755.89,194.25,753l1-1.21,8.65,6.91-1,1.21L199.29,757l-7.67,9.61-1.44-1.15Z"/><path class="cls-3" d="M323.07,833c-.6,1.78-2.14,3.27-5.08,2.29-2.45-.82-3.37-2.64-2.55-5.11l.27-.81,1.75.58-.18.55c-.51,1.53-.47,2.75,1.24,3.32s2.41-.22,2.89-1.67l3.21-9.6,1.75.59Z"/><path class="cls-3" d="M341.54,836.91c-1,3.35-3.4,4.57-6.72,3.61s-5-3.16-4-6.7l2.46-8.49,1.77.51-2.46,8.49c-.68,2.35.29,4,2.64,4.7s3.84-.28,4.52-2.63l2.46-8.49,1.77.51Z"/><path class="cls-3" d="M351,830.27l1.79.44-2.92,11.94,7.12,1.74-.37,1.51-8.91-2.18Z"/><path class="cls-3" d="M367.52,842.44,366.37,848l-1.8-.38,1.15-5.54-3.57-9.1,2.15.45,2.72,7.3,5.31-5.63,2.05.43Z"/><path class="cls-3" d="M533.43,844.18c.36,1.84-.24,3.9-3.28,4.5-2.53.5-4.24-.63-4.74-3.18l-.16-.84,1.81-.36.11.57c.31,1.58,1,2.62,2.72,2.27s2-1.38,1.68-2.88l-2-9.93,1.81-.36Z"/><path class="cls-3" d="M551.42,838.47c.82,3.39-.7,5.65-4.05,6.46s-5.91-.27-6.77-3.86l-2.07-8.6,1.79-.43,2.07,8.6c.57,2.38,2.24,3.35,4.62,2.78s3.2-2.14,2.62-4.52l-2.07-8.6,1.79-.43Z"/><path class="cls-3" d="M556.43,828l1.88-.54,10.13,8.76h0l-3.12-10.79,1.68-.49,3.85,13.3-1.94.56-10-8.66h0L562,840.81l-1.68.49Z"/><path class="cls-3" d="M574,822.71l9.06-3.06.5,1.47-7.31,2.47,1.41,4.17,6.82-2.3.5,1.47-6.82,2.3,1.53,4.54,7.37-2.48.5,1.47-9.11,3.08Z"/><path class="cls-3" d="M716.94,740.45l1.82-1.74L730,744.11l-4.87-11.45,1.82-1.74,9.57,10-1.26,1.21-8-8.33,0,0,4.83,11.32-1.14,1.09-11.09-5.35,0,0,8,8.33-1.26,1.2Z"/><path class="cls-3" d="M735.23,722.88l1.4-1.48L750.4,727l-1.4,1.48-4.06-1.77-4,4.25,2,4-1.31,1.38Zm4.94,6.59,3.23-3.4-6.27-2.77,0,0Z"/><path class="cls-3" d="M754.56,714.24l4.27,3.72-1.21,1.39-4.27-3.72-9.69-1.33,1.44-1.65,7.7,1.2-2.31-7.39,1.37-1.58Z"/><path class="cls-3" d="M857.63,516.93l-.38,2-14.61,2.74.38-2,4.38-.71,1.09-5.76-3.81-2.3L845,509Zm-7.73-2.87-.87,4.61,6.78-1.07v0Z"/><path class="cls-3" d="M854.91,530.39l-1.38,5.91c-.63,2.68-2.46,3.79-5,3.21s-3.67-2.39-3-5.07l1-4.12L841,529l.42-1.79Zm-6.88.28-.82,3.51c-.49,2,.18,3.15,1.79,3.52s2.69-.35,3.16-2.37l.82-3.51Z"/><path class="cls-3" d="M850.76,547.42,849,553.69c-.7,2.5-2.5,3.67-4.63,3.08a3.32,3.32,0,0,1-2.73-3.26h0c-.73,1.47-2,1.47-3.3,1.23s-2.77-.74-3.9-.24l.55-2c.68-.35,2,.33,3.42.43s2.55.17,3-1.55l1.21-4.33-5.7-1.59.5-1.77Zm-7.68,3.75c-.46,1.66-.43,3.2,1.51,3.75a2.19,2.19,0,0,0,2.94-1.73l1.23-4.41-4.65-1.3Z"/><path class="cls-3" d="M845.69,564.77l-.56,1.76-13.2-4.18.56-1.76Z"/><path class="cls-3" d="M842.74,573.89l-.61,1.74-11.61-4.07-2.42,6.92-1.47-.51,3-8.66Z"/><path class="cls-3" d="M836.51,291.07l.87,2.37L828,301.55l12.44.1.87,2.37-13,4.78-.6-1.64,10.81-4v0l-12.31-.09-.54-1.47,9.32-8v0l-10.82,4-.6-1.64Z"/><path class="cls-3" d="M845,315.33l.61,1.94L834,326.58l-.61-1.94,3.53-2.7-1.76-5.59-4.44-.23-.57-1.81Zm-8.17,1.12,1.41,4.48,5.47-4.14v0Z"/><path class="cls-3" d="M848.93,328.5l1.68,6.3c.67,2.51-.28,4.43-2.42,5a3.32,3.32,0,0,1-4-1.42h0c.12,1.64-.94,2.26-2.22,2.74s-2.76.78-3.48,1.77l-.53-2c.41-.65,1.93-.76,3.17-1.37s2.28-1.15,1.82-2.88l-1.16-4.35L836,333.85l-.47-1.78Zm-4.7,7.14c.45,1.67,1.26,3,3.21,2.46a2.19,2.19,0,0,0,1.65-3l-1.18-4.42-4.67,1.25Z"/><path class="cls-3" d="M851.49,356.61a3.65,3.65,0,0,0,2-4.42c-.71-3.22-3.66-4-6.48-3.39-3.09.68-5.37,2.61-4.66,5.85.52,2.37,2.49,3.37,4.76,3l.39,1.8c-3.45.4-6-1.26-6.7-4.67-.92-4.21,1.74-6.93,5.68-7.8s7.61.67,8.53,4.84c.62,2.82-.39,5.48-3.18,6.53Z"/><path class="cls-3" d="M857.37,364.84l.31,1.82-5.87,1,1.23,7.19,5.87-1,.31,1.82L845.58,378l-.31-1.82,6.25-1.07-1.23-7.19L844,369l-.31-1.82Z"/><path class="cls-3" d="M691.5,104l7.33,5.39-.92,1.25-5.85-4.3-2.61,3.55,5.13,3.77-.92,1.25-5.13-3.77-3.76,5.11-1.48-1.09Z"/><path class="cls-3" d="M704.29,113.55l7.48,6-1,1.21-6-4.81L702,119.36l5.63,4.49-1,1.21-5.63-4.49-3,3.75,6.08,4.85-1,1.21-7.52-6Z"/><path class="cls-3" d="M717.32,124.13l3.79,3.3a8.34,8.34,0,0,1,2.44,2.79,3.28,3.28,0,0,1-.67,3.25,3.2,3.2,0,0,1-3.59,1l0,0a3.17,3.17,0,0,1-.2,4.25,3.93,3.93,0,0,1-5.79.24l-5.05-4.39Zm-6.68,10.49,3.49,3a2.37,2.37,0,0,0,3.59-.17c1.18-1.36.41-2.7-.76-3.71L713.79,131Zm4.16-4.79,2.78,2.42c1.58,1.37,2.72,1.36,3.68.27,1.26-1.45.41-2.55-.79-3.59l-2.78-2.42Z"/><path class="cls-3" d="M731,136.25l4.72,4.49c1.88,1.79,2.08,3.92.55,5.53a3.32,3.32,0,0,1-4.16.89l0,0c1,1.33.38,2.42-.46,3.5s-1.95,2.11-2,3.33l-1.49-1.42c0-.77,1.25-1.65,2-2.82s1.34-2.17,0-3.4l-3.26-3.1-4.07,4.29-1.33-1.27Zm-.27,8.54c1.25,1.19,2.63,1.88,4,.42a2.19,2.19,0,0,0-.16-3.41l-3.32-3.15-3.33,3.5Z"/><path class="cls-3" d="M745.43,163.06c-2.52,2.42-5.23,2.26-7.62-.23s-2.75-5.24-.1-7.79l6.37-6.13,1.28,1.33L739,156.37c-1.76,1.7-1.76,3.63-.06,5.39s3.47,1.67,5.23,0l6.37-6.13,1.28,1.33Z"/><path class="cls-3" d="M759.64,165.6l1.35,1.53-6.82,13.21-1.35-1.53,2.13-3.89-3.87-4.4-4.16,1.59-1.26-1.43Zm-7,4.34,3.1,3.52,3.32-6,0,0Z"/><path class="cls-3" d="M768.61,176l4.09,5.07c1.63,2,1.54,4.16-.18,5.55a3.32,3.32,0,0,1-4.24.33l0,0c.77,1.45.06,2.45-.92,3.4s-2.21,1.83-2.46,3l-1.29-1.6c.11-.76,1.45-1.47,2.34-2.53s1.62-2,.5-3.37l-2.82-3.5-4.6,3.71-1.16-1.43Zm-1.4,8.43c1.08,1.34,2.36,2.21,3.93.95a2.19,2.19,0,0,0,.3-3.4l-2.87-3.56-3.76,3Z"/><path class="cls-3" d="M776.29,199.22l-4.55,3.37-1.09-1.48,4.55-3.37,3.4-9.17,1.3,1.76-2.83,7.26,7.71-.66,1.25,1.68Z"/><path class="cls-4" d="M440.92,281.2c.94,0,1.88-.08,2.83-.11l2.74-.07c.91,0,1.82,0,2.74,0h0c.92,0,1.83,0,2.74,0l2.74.07c.94,0,1.88.06,2.81.11s1.83.11,2.74.17l2.76.21c.91.08,1.82.15,2.73.25s1.82.2,2.73.31,1.85.23,2.77.36l2.73.39,2.74.46,2.66.49c.92.18,1.84.35,2.76.55l14.27-68.12c-1.31-.27-2.63-.52-4-.77s-2.54-.47-3.82-.69-2.62-.45-3.94-.65-2.61-.38-3.91-.56-2.63-.35-4-.51-2.62-.31-3.94-.45-2.61-.24-3.91-.35-2.63-.21-4-.3-2.61-.18-3.93-.25-2.69-.11-4-.15-2.62-.08-3.94-.1-2.61,0-3.93,0h0c-1.31,0-2.62,0-3.93,0s-2.62.05-3.93.1-2.7.09-4,.15-2.62.16-3.93.25l4.79,69.39C439.09,281.31,440,281.25,440.92,281.2Zm-11,.94c.91-.11,1.83-.22,2.74-.31s1.82-.17,2.73-.25l-6-69.3c-1.31.11-2.62.22-3.93.35s-2.62.29-3.93.45-2.65.33-4,.51l9.56,68.91ZM317.48,350c.51-.74,1-1.47,1.55-2.2s1.12-1.55,1.69-2.32,1.1-1.45,1.66-2.17,1.1-1.41,1.66-2.11,1.16-1.45,1.76-2.16L272,294.43c-.85,1-1.69,2.07-2.53,3.11s-1.59,2-2.38,3-1.61,2.07-2.39,3.12-1.62,2.21-2.43,3.32-1.5,2.1-2.24,3.16-1.54,2.22-2.29,3.33l58.13,38.87C316.41,351.58,316.94,350.81,317.48,350Zm-11.32,19c.42-.84.86-1.66,1.29-2.49s.84-1.58,1.28-2.37.87-1.58,1.32-2.36,1-1.65,1.46-2.48,1-1.59,1.45-2.37l-59.41-36.89q-1.05,1.69-2.08,3.41c-.71,1.18-1.41,2.36-2.1,3.55s-1.27,2.26-1.9,3.39-1.23,2.27-1.84,3.41-1.25,2.37-1.86,3.57-1.19,2.37-1.77,3.56l62.94,30.54Q305.53,370.25,306.16,369Zm-5.69,12.55c.34-.85.68-1.69,1-2.53s.73-1.68,1.1-2.52l-64-28.35c-.53,1.2-1.06,2.39-1.58,3.6s-1,2.42-1.48,3.63-1,2.51-1.48,3.78l65.33,25Q299.94,382.86,300.47,381.55ZM296.67,392c.29-.89.58-1.78.88-2.66l-66.16-22.76c-.44,1.27-.85,2.54-1.27,3.82s-.77,2.39-1.14,3.6l66.89,20.51C296.13,393.7,296.4,392.87,296.67,392Zm-4.27,16c.2-.94.4-1.89.62-2.83s.43-1.77.65-2.65l-67.86-17c-.32,1.27-.64,2.54-.93,3.81s-.6,2.7-.88,4-.53,2.55-.78,3.83l68.64,13.46Q292.12,409.34,292.4,408Zm-1.91,10.8c.13-.89.26-1.78.4-2.66s.3-1.88.47-2.82L222.49,401c-.24,1.34-.46,2.7-.67,4.05s-.39,2.54-.57,3.82-.38,2.7-.55,4.06l69.4,8.67C290.23,420.69,290.36,419.75,290.49,418.81Zm-51,117.88c.55,1.21,1.11,2.4,1.68,3.6s1.15,2.39,1.74,3.57,1.2,2.4,1.82,3.59,1.19,2.29,1.81,3.43,1.31,2.38,2,3.57l61-34.29c-.46-.83-.93-1.65-1.38-2.49s-.84-1.59-1.25-2.38-.85-1.66-1.26-2.5-.82-1.65-1.21-2.49-.79-1.67-1.17-2.51-.74-1.67-1.1-2.5-.72-1.68-1.07-2.52l-64.66,26.71q.75,1.81,1.53,3.61C238.38,534.29,238.9,535.5,239.44,536.69Zm-13.18-37.34c.33,1.28.68,2.54,1,3.81s.73,2.56,1.1,3.84.76,2.55,1.16,3.82.81,2.55,1.24,3.81.82,2.4,1.24,3.6.91,2.55,1.38,3.82L299,497.6q-.49-1.32-1-2.66c-.29-.83-.59-1.66-.87-2.5s-.58-1.77-.86-2.66-.54-1.77-.81-2.66-.52-1.78-.77-2.68-.49-1.76-.72-2.65-.44-1.78-.66-2.67-.42-1.77-.62-2.66l-68.27,15.23q.43,1.92.88,3.83C225.62,496.8,225.93,498.08,226.26,499.36Zm-3.43-15.54c.25,1.35.5,2.7.77,4l68.52-14.07c-.19-.93-.36-1.87-.54-2.81Zm109.35,67.39c-.63-.68-1.26-1.35-1.88-2s-1.21-1.35-1.81-2-1.18-1.37-1.77-2.07-1.21-1.44-1.81-2.18-1.12-1.38-1.67-2.08l-54.91,43.26q1.19,1.5,2.41,3t2.61,3.13q1.26,1.49,2.55,3c.86,1,1.72,2,2.59,2.92s1.8,2,2.71,2.92Zm-75.49,16.72c.74,1.13,1.49,2.26,2.26,3.37s1.46,2.13,2.21,3.18,1.51,2.09,2.27,3.12l56.41-41.3c-.53-.72-1.06-1.45-1.58-2.18s-1-1.48-1.54-2.22-1-1.56-1.56-2.34-1-1.55-1.51-2.34-1-1.57-1.47-2.36L252.4,561.18c.7,1.14,1.41,2.27,2.12,3.4S256,566.82,256.69,567.93ZM366.39,579l-36,59.73q1.68,1,3.39,2l35-60.33Zm-58.86,44c1.05.82,2.12,1.63,3.18,2.44l42-55.75q-1.12-.84-2.22-1.71Zm28.53-67.78-49.28,49.51q1.38,1.37,2.79,2.72L338,557.14Q337,556.2,336.07,555.24Zm84.31,44.22-12.51,68.45c1.31.24,2.62.45,3.94.67l11.32-68.65ZM380.9,661.34c1.27.39,2.54.76,3.82,1.13l19.52-66.83-2.67-.8Zm10.27-70.14L366,656.15c1.22.47,2.45.94,3.68,1.39l24.08-65.36C392.87,591.86,392,591.53,391.17,591.2ZM383.52,588,355,651.58q1.79.8,3.6,1.57L386,589.1C385.19,588.74,384.35,588.37,383.52,588Zm-5-2.37c-.84-.41-1.68-.83-2.51-1.25l-31.81,62c1.19.61,2.4,1.2,3.6,1.79s2.42,1.17,3.63,1.74L381,586.85Q379.77,586.25,378.51,585.63Zm94.16,14.72-2.73.38c-.92.12-1.85.22-2.77.33l-2.73.28c-.94.09-1.87.18-2.81.25L467,670.93c1.36-.1,2.71-.23,4.06-.36l3.91-.4c1.32-.15,2.64-.29,4-.46s2.62-.36,3.93-.55,2.56-.39,3.83-.59l-11.32-68.65Zm21.55-4.71-2.67.76-2.64.71-2.66.65-2.74.62-2.68.57,13.7,68.23c1.29-.25,2.56-.52,3.84-.8s2.63-.58,3.94-.88,2.55-.61,3.82-.93,2.53-.66,3.79-1,2.56-.71,3.83-1.07,2.55-.74,3.82-1.13l-20.67-66.5Zm7.91-2.54-2.68.91,21.79,66.14q1.92-.64,3.83-1.29c1.24-.43,2.49-.87,3.72-1.32l-24.08-65.36Zm15.29-6.26L547,649.93q1.82-.85,3.62-1.73L520,585.62ZM532.07,579l36,59.73c1.12-.67,2.23-1.37,3.34-2.06l-37-59.12C533.62,578,532.85,578.52,532.07,579Zm-73.2,22.77-2.73.14-2.76.1,1.8,69.53c1.32,0,2.63-.09,3.94-.15s2.63-.12,3.94-.2Zm132.79-86.48c-.41.8-.83,1.6-1.26,2.39L652,550.88c.61-1.13,1.21-2.28,1.81-3.42s1.22-2.39,1.82-3.59l-62.67-31.07C592.5,513.62,592.09,514.45,591.66,515.28Zm3.64-7.5L659,536.68c.54-1.19,1.06-2.39,1.58-3.59l-64.2-27.81C596,506.12,595.68,507,595.3,507.78ZM551.15,317.6l44.34-53.92c-1-.83-2-1.64-3.05-2.45L549,315.88C549.73,316.45,550.45,317,551.15,317.6Zm4.21,3.61c.69.61,1.38,1.23,2.06,1.85l47.09-51.57c-1-.89-2-1.77-3-2.64s-2-1.72-3-2.56l-45.29,53.13C554,320,554.68,320.61,555.36,321.21Zm9.93,9.57,50.55-48.23c-.9-.94-1.81-1.86-2.72-2.78L563.4,328.84C564,329.48,564.67,330.13,565.3,330.78Zm-69.72-43,2.58.8c.88.28,1.77.57,2.64.86l22.37-66c-1.26-.43-2.53-.83-3.8-1.23s-2.46-.77-3.7-1.14-2.54-.76-3.83-1.12-2.56-.7-3.85-1-2.53-.65-3.81-1l-16.62,67.59,2.66.67c.89.24,1.79.47,2.67.72S494.69,287.54,495.58,287.81Zm31.31-63L503.4,290.39q1.29.46,2.57,1c.88.33,1.75.67,2.62,1l2.55,1c.84.35,1.68.72,2.51,1.09l28-63.82c-1.2-.52-2.39-1-3.6-1.55s-2.44-1-3.66-1.49-2.5-1-3.75-1.44S528.13,225.27,526.89,224.82Zm-3.26,74.47c.81.43,1.62.85,2.42,1.29s1.64.91,2.44,1.37,1.58.92,2.37,1.38,1.57.94,2.35,1.42,1.6,1,2.39,1.5,1.5,1,2.24,1.47l2.33,1.58,39.54-57.49q-1.67-1.15-3.35-2.26c-1.07-.71-2.14-1.42-3.22-2.1s-2.28-1.44-3.44-2.14-2.24-1.36-3.37-2-2.25-1.32-3.38-2-2.34-1.32-3.52-2-2.31-1.23-3.47-1.84-2.32-1.2-3.49-1.79l-31.25,62.31ZM754.05,487.9l-69-10.5c-.2,1.33-.42,2.64-.64,4L753.22,493C753.51,491.31,753.79,489.61,754.05,487.9ZM496.14,675.27l13.76,68.57c1.72-.34,3.43-.71,5.14-1.08l-14.92-68.33Q498.13,674.87,496.14,675.27ZM494,207.37c1.37.26,2.74.52,4.1.8s2.65.57,4,.86,2.72.63,4.08,1,2.63.65,3.94,1,2.66.7,4,1.07l19-67.31c-1.71-.48-3.43-.94-5.16-1.39s-3.39-.87-5.09-1.28-3.51-.85-5.27-1.25-3.41-.76-5.13-1.11-3.54-.71-5.32-1-3.39-.63-5.1-.93l-12,68.9C491.4,206.88,492.72,207.12,494,207.37Zm10.62,537.48-12.58-68.8q-2,.36-4.07.68l11.37,69C501.14,745.46,502.9,745.17,504.66,744.85ZM480,677.92c-1.36.17-2.73.32-4.1.47l7.81,69.5c1.77-.2,3.54-.39,5.3-.62s3.5-.48,5.25-.73L484,677.35C482.69,677.55,481.33,677.74,480,677.92Zm-12.36,1.26c-1.35.1-2.71.18-4.07.25l4.19,69.8c1.76-.1,3.53-.2,5.28-.33s3.62-.31,5.43-.48l-6.62-69.62C470.42,678.94,469,679.07,467.62,679.18ZM469.72,204c1.35.12,2.71.22,4.06.36s2.72.3,4.08.46,2.73.34,4.09.53,2.71.37,4.05.58l10.78-69.11c-1.74-.27-3.49-.5-5.24-.74s-3.53-.47-5.3-.68-3.5-.42-5.26-.6-3.5-.32-5.25-.47-3.52-.28-5.29-.4-3.5-.24-5.26-.33l-3.62,69.84c1.36.07,2.71.17,4.06.26S468.36,203.93,469.72,204ZM457.2,749.7c1.77,0,3.52-.12,5.28-.2l-3-69.86c-1.36.06-2.71.12-4.08.15Zm.18-546.38,2.39-69.89q-2.63-.09-5.27-.13c-1.75,0-3.51-.07-5.26-.07v69.93c1.36,0,2.71,0,4.07.05S456,203.28,457.38,203.32Zm-8.15,546.49c.9,0,1.81,0,2.71,0l-.62-69.93-2.09,0h0l-2.1,0c-1.36,0-2.71,0-4.06-.05l-1.81,69.91c1.75,0,3.51.05,5.26.07C447.42,749.78,448.32,749.81,449.23,749.81ZM568.72,535.69l-54.87-43.24c-.28.36-.56.72-.85,1.08l54.14,44.14C567.67,537,568.2,536.35,568.72,535.69ZM524.47,408.17c.19.43.4.85.58,1.28s.34.86.51,1.29l64.75-26.1c-.32-.8-.64-1.6-1-2.4s-.69-1.59-1-2.37-.71-1.58-1.07-2.36-.75-1.61-1.13-2.4l-62.81,30.48c.21.43.4.87.61,1.3S524.28,407.74,524.47,408.17Zm67.73-18.63c-.29-.81-.6-1.6-.9-2.4l-65.2,25c.17.43.35.86.5,1.29ZM600.79,454q.11-1.34.19-2.68c.06-.89.11-1.78.15-2.67l-69.67-3.26c0,.48-.06,1-.09,1.45s-.07,1-.11,1.43-.06.92-.1,1.37l69.41,6.89Q600.69,455.27,600.79,454Zm.38-18.42c0-.84-.06-1.68-.11-2.52s-.11-1.78-.17-2.67-.13-1.69-.21-2.52-.16-1.79-.26-2.68-.18-1.68-.29-2.52l-69.24,8.65c.06.45.13.9.18,1.36s.09,1,.13,1.45.07.91.11,1.36.08,1,.11,1.45,0,.91.05,1.36,0,1,0,1.45l69.75-1.49C601.24,437.37,601.21,436.48,601.17,435.58Zm-2,31.34c.14-.84.28-1.68.41-2.53s.26-1.78.37-2.68.21-1.68.31-2.52L531,451.09c-.05.46-.11.91-.17,1.36s-.11,1-.18,1.46-.16.91-.24,1.37-.16.91-.24,1.37l68.59,12.8C598.89,468.61,599,467.77,599.18,466.92Zm-70.84-48.14c.13.45.26.9.39,1.36s.25.91.36,1.36.21.91.32,1.37.23,1,.33,1.44.19.91.28,1.36.16.91.24,1.37.18,1,.26,1.45.13.91.2,1.37L599.78,420c-.12-.84-.24-1.69-.38-2.52s-.28-1.78-.44-2.67-.32-1.68-.48-2.52-.34-1.69-.51-2.52-.38-1.79-.58-2.68-.4-1.67-.61-2.51-.43-1.69-.66-2.53-.45-1.7-.69-2.54-.49-1.69-.75-2.53-.5-1.59-.75-2.38l-66.39,21.54c.14.43.28.85.42,1.28S528.2,418.32,528.34,418.78Zm69.34,55.87-68.11-15.19c-.1.45-.21.91-.32,1.36l67.85,16.36C597.3,476.34,597.49,475.5,597.68,474.65Zm-4.19,15.15q.42-1.25.81-2.51c.26-.84.51-1.68.76-2.52s.49-1.69.73-2.54l-67.25-18.68c-.13.46-.26.92-.39,1.38s-.26.91-.41,1.36-.31.91-.46,1.36-.28.85-.43,1.28l65.81,23.25C592.94,491.39,593.22,490.6,593.49,489.8ZM562,543.62c.57-.64,1.14-1.28,1.71-1.93l-52.59-46c-.31.35-.6.71-.91,1.05s-.65.69-1,1l51,47.78C560.84,544.91,561.44,544.27,562,543.62ZM488.62,369.25c.42.23.84.48,1.26.72l34.54-60.83-2.32-1.3Zm26.49-65c-.8-.39-1.61-.76-2.41-1.13l-2.36-1.06L508,301l-2.42-1-25.88,65c.44.18.88.34,1.32.52l1.29.57,1.28.58c.43.2.88.39,1.31.59s.85.44,1.28.66l1.25.64,32.42-62-2.3-1.18C516.71,305,515.92,304.64,515.11,304.25ZM473,362.7l1.32.41,1.36.46L477,364l23.61-65.85c-.82-.3-1.64-.59-2.47-.87s-1.67-.55-2.51-.82l-2.44-.76-2.53-.75-19,67.34ZM552.81,553c.64-.6,1.28-1.2,1.91-1.81s1.23-1.19,1.84-1.8l.25-.24c.55-.55,1.09-1.12,1.63-1.68L508.28,498.8c-.34.35-.67.71-1,1s-.67.64-1,1l-1,1-1,1,46.68,52C551.52,554.17,552.17,553.58,552.81,553ZM475.33,291.5l-2.6-.43-10.79,69.11c.47.07.93.17,1.41.25l1.36.24,1.42.27,14.34-68.46c-.87-.18-1.74-.35-2.62-.52Zm68.55,30.86-2.08-1.63c-.68-.52-1.36-1-2-1.55s-1.45-1.07-2.18-1.59-1.4-1-2.1-1.47-1.47-1-2.21-1.5-1.41-.94-2.12-1.4-1.51-1-2.27-1.42l-2.23-1.34-35.57,60.21,1.21.72c.41.25.81.52,1.21.78l1.16.75,1.19.81,1.12.8c.4.29.81.56,1.2.86s.73.56,1.09.84l1.12.88c.36.29.74.57,1.1.86s.74.64,1.11,1l45.34-53.2c-.68-.58-1.36-1.16-2.05-1.73S544.56,322.9,543.88,322.36Zm12.93,11.56-1.18-1.16c-.61-.6-1.23-1.2-1.85-1.79s-1.27-1.2-1.92-1.79-1.3-1.18-2-1.76l-46.23,52.42c.35.31.72.62,1.06.94s.68.65,1,1l1,1,1,1,1,1,50.56-48.25c-.59-.62-1.19-1.23-1.79-1.84Zm-38.41,63c.25.39.51.78.76,1.18s.5.81.75,1.22.49.85.73,1.27.47.8.69,1.2.44.81.66,1.22L583.7,370.4q-.6-1.13-1.21-2.25c-.41-.75-.82-1.5-1.25-2.24s-.92-1.57-1.38-2.35-.91-1.5-1.37-2.25-.92-1.47-1.38-2.2-.93-1.43-1.4-2.13-1-1.48-1.52-2.22l-57.37,39.83c.28.4.56.79.83,1.2S518.14,396.56,518.39,397Zm51.14-48.55q-.77-1-1.56-2c-.55-.69-1.11-1.38-1.67-2.06L512.55,389c.3.36.59.74.89,1.11l.85,1.08c.28.37.59.73.87,1.11s.57.8.86,1.2l56.69-40.81c-.53-.74-1.06-1.47-1.6-2.2S570.06,349.09,569.53,348.4Zm-8.42-10-51.38,47.35c.32.35.64.7,1,1.06s.61.7.92,1.05l53-45.57c-.56-.65-1.13-1.3-1.71-1.94S561.7,339.06,561.1,338.42Zm-93.62,22.84,1.41.33,16.71-67.93L483,293Zm39.31,221.24,2.39-1c.79-.34,1.59-.69,2.38-1s1.57-.72,2.36-1.09L484.19,516l-1.28.58c-.43.19-.85.4-1.28.58l-1.3.54-1.34.53,25.31,65.23Zm-40.54,10.34c.88-.1,1.76-.2,2.63-.31l-9-69.38-1.42.18-1.39.14,6.62,69.63ZM518.68,577c.77-.39,1.53-.8,2.3-1.21l2.26-1.24c.78-.43,1.55-.87,2.32-1.32s1.49-.88,2.24-1.33,1.48-.91,2.21-1.37l2.25-1.45c.71-.46,1.41-.92,2.11-1.39s1.44-1,2.15-1.49l-40.11-57.28c-.39.27-.76.56-1.15.82s-.77.49-1.15.74l-1.21.78c-.4.25-.79.51-1.19.76s-.81.46-1.22.7l-1.24.72-1.23.68-1.24.64-1.29.66,30.82,62.79C517.1,577.81,517.9,577.42,518.68,577Zm22.1-13.91,2.09-1.61c.7-.55,1.38-1.1,2.07-1.66s1.34-1.09,2-1.65,1.32-1.11,2-1.68l-45.79-52.82-1.06.91-1.08.89-1.12.88c-.38.3-.75.6-1.13.89s-.74.54-1.11.81l41.12,56.54Zm-48.87,24.6c.85-.24,1.69-.49,2.53-.75s1.63-.52,2.44-.79l2.54-.86c.82-.29,1.64-.58,2.45-.88l-24.18-65.64-1.34.47-1.36.46c-.44.14-.87.3-1.31.44s-.92.26-1.38.39l-1.36.39,18.44,67.49C490.22,588.19,491.06,588,491.91,587.7Zm-37.73-64,4.19,69.81c.87,0,1.75-.1,2.62-.17l-5.4-69.75Zm9.85-1.2-1.41.25,11.38,69,2.6-.44,2.59-.5-13.76-68.58C465,522.34,464.5,522.41,464,522.5Zm-4.32-232.87c-.87-.06-1.73-.12-2.6-.16s-1.78-.07-2.67-.1L452,359.26c.48,0,1,0,1.45,0s.93.07,1.4.11l1.42.11c.46,0,.93.06,1.4.11l7.21-69.57c-.86-.09-1.72-.16-2.59-.23Zm-6.55,304.11c.87,0,1.75-.06,2.62-.1l-3-69.87-1.41,0Zm-28.38-73.59c-.44-.14-.87-.3-1.3-.44l-1.38-.47c-.44-.15-.89-.3-1.33-.46s-.87-.35-1.31-.52l-1.34-.53-1.3-.54-1.27-.58-1.28-.58-1.3-.63-30.81,62.79,2.4,1.16c.78.37,1.56.73,2.35,1.09s1.59.71,2.39,1,1.59.67,2.39,1l2.48,1,2.43.93c.82.3,1.64.59,2.47.88l2.54.86c.81.27,1.61.53,2.43.79s1.69.51,2.54.76l19.61-67.16C425.71,520.41,425.24,520.29,424.78,520.15Zm-231,108.5-56.39,41.29q2,2.79,4.13,5.54l55.64-42.3Q195.42,630.93,193.75,628.65Zm-15.14-22.6-59.73,36.32c1.16,1.91,2.36,3.8,3.55,5.7l59.09-37.34C180.54,609.17,179.56,607.62,178.61,606.05Zm5.9,9.29-58.43,38.35c1.25,1.9,2.5,3.79,3.78,5.66L187.6,620Q186,617.67,184.51,615.34ZM299.05,417.46l68.88,11c.08-.48.17-1,.26-1.45l-68.7-12.26C299.34,415.68,299.19,416.57,299.05,417.46Zm111.4,96.66-1.23-.68-34,61.11q1.13.63,2.27,1.25ZM297.77,427.87c-.07.84-.15,1.68-.21,2.52s-.12,1.78-.17,2.67L367,436.94c0-.49.07-1,.11-1.45s.06-.91.1-1.36.08-1,.13-1.45L298,425.19C297.93,426.08,297.85,427,297.77,427.87Zm-90.4,218.07L154,691.06q2.12,2.5,4.27,5l52.6-46C209.7,648.68,208.53,647.31,207.37,645.94Zm179-151.3-.94-1.11c-.29-.35-.56-.72-.85-1.08s-.59-.74-.88-1.12l-.88-1.18c-.27-.37-.54-.75-.81-1.13s-.54-.74-.8-1.12-.54-.81-.8-1.21-.52-.8-.77-1.2-.52-.79-.77-1.2-.47-.81-.7-1.22l-60.29,35.25c.44.75.87,1.5,1.32,2.24s.92,1.5,1.39,2.24.95,1.48,1.43,2.22,1,1.49,1.48,2.22,1,1.41,1.46,2.11,1,1.38,1.5,2.07,1.08,1.46,1.63,2.18,1.07,1.4,1.61,2.09,1.05,1.32,1.58,2,1.14,1.38,1.72,2.07Zm-185.9,142.9L145.6,680.8c1.33,1.68,2.68,3.35,4,5l54.17-44.16C202.68,640.29,201.58,638.92,200.49,637.54ZM490.06,755.47c-1.81.23-3.63.43-5.45.63s-3.59.39-5.39.55l6.63,69.62c2.2-.2,4.39-.44,6.57-.68s4.45-.49,6.65-.77,4.39-.6,6.58-.92l-10.21-69.18C493.65,755,491.86,755.24,490.06,755.47ZM591.75,494.7l-65.4-24.4c-.16.44-.34.87-.51,1.3s-.35.91-.54,1.35-.36.86-.55,1.29-.39.86-.58,1.28-.38.86-.58,1.29l63.07,29.93c.37-.79.75-1.58,1.11-2.37s.7-1.58,1-2.38.68-1.59,1-2.39.69-1.67,1-2.51S591.45,495.5,591.75,494.7ZM728,591.88c-.89,1.64-1.8,3.27-2.71,4.9L786.18,631c1.12-2,2.23-4,3.32-6Zm-308.55,235c2.19.17,4.4.29,6.6.42l4.2-69.8c-1.8-.11-3.61-.21-5.4-.34ZM237.69,677.18q-2-1.83-4-3.7c-1.33-1.24-2.67-2.49-4-3.75s-2.56-2.48-3.83-3.74l-.55-.54c-1.13-1.13-2.24-2.29-3.36-3.44q-1.9-2-3.78-4c-1.25-1.33-2.5-2.67-3.72-4l-51.81,46.9c1.49,1.65,3,3.27,4.54,4.9s3.06,3.24,4.61,4.83c1.36,1.41,2.72,2.82,4.1,4.2l.67.65q2.32,2.31,4.68,4.57c1.6,1.55,3.23,3.07,4.86,4.58s3.27,3,4.93,4.51,3.31,3,5,4.43,3.34,2.84,5,4.25l44.87-53.57c-1.37-1.15-2.75-2.3-4.1-3.48S239,678.4,237.69,677.18Zm208-153.42-1.41-.07-1.41-.11-1.45-.11-1.39-.15-1.42-.18-1.41-.18-1.36-.22-1.41-.25-1.41-.25-1.36-.3-14.94,68.34,2.55.54,2.59.5,2.6.44,2.54.4c.86.13,1.72.25,2.59.36s1.74.21,2.62.31l2.59.27c.89.08,1.79.17,2.68.24l2.6.16,2.6.13ZM457.41,758c-1.79,0-3.6.05-5.4.07-.93,0-1.85,0-2.77,0h0c-.93,0-1.86,0-2.79,0L445.82,828c1.14,0,2.27,0,3.4,0s2.26,0,3.4,0c2.2,0,4.4,0,6.6-.08s4.41-.16,6.61-.25l-3-69.86C461,757.84,459.23,757.93,457.41,758ZM310.68,504.37c.36.8.73,1.59,1.11,2.38s.76,1.58,1.15,2.36.79,1.59,1.2,2.37l62-32.11c-.22-.43-.45-.86-.66-1.29s-.43-.84-.63-1.27-.39-.86-.58-1.28-.39-.85-.58-1.28-.37-.86-.55-1.29L308.62,499.6q.5,1.2,1,2.39C310,502.79,310.32,503.58,310.68,504.37Zm44.89,57.12c.7.55,1.4,1.08,2.11,1.62l2.05,1.52c.73.53,1.46,1.06,2.19,1.57s1.43,1,2.15,1.5,1.4.93,2.11,1.39,1.51,1,2.27,1.45,1.47.92,2.21,1.38L406.75,512c-.4-.24-.79-.5-1.19-.75l-1.21-.78c-.38-.25-.78-.48-1.15-.74s-.77-.55-1.16-.82l-1.19-.85-1.12-.82c-.38-.28-.75-.59-1.12-.88l-1.12-.88-1.08-.89c-.36-.3-.7-.61-1.06-.92s-.72-.61-1.07-.93l-1-1-1-1c-.33-.32-.68-.63-1-1s-.67-.7-1-1l-1-1c-.32-.34-.65-.68-1-1s-.61-.7-.92-1.05l-52.59,46c.57.65,1.13,1.29,1.71,1.94s1.19,1.29,1.79,1.93,1.2,1.27,1.81,1.9,1.08,1.12,1.62,1.67l.25.25q.91.91,1.84,1.8t1.9,1.8q1,.9,1.95,1.78t2,1.75c.65.56,1.31,1.12,2,1.67s1.33,1.11,2,1.65S354.88,560.94,355.57,561.48ZM394.8,379.83l1.06-.92c.37-.31.72-.64,1.1-.95s.73-.57,1.1-.86l1.13-.89,1.1-.84-41.58-56.2c-.69.51-1.37,1-2,1.55l-2.08,1.62c-.67.54-1.35,1.08-2,1.63s-1.37,1.15-2.05,1.73-1.3,1.12-1.94,1.69-1.32,1.17-2,1.76l47.13,51.59C394.08,380.44,394.44,380.14,394.8,379.83Zm-52-47.08-1.19,1.17-.71.73c-.6.61-1.21,1.23-1.8,1.85s-1.19,1.28-1.78,1.92-1.18,1.3-1.76,2l52.18,46.45,1-1.06c.32-.35.65-.68,1-1s.64-.68,1-1l1-1,1-1-48-50.78C344.06,331.55,343.45,332.15,342.84,332.75Zm-13.92,15.66c-.53.68-1.06,1.36-1.57,2.06s-1.07,1.46-1.6,2.2-1,1.39-1.47,2.09-1,1.47-1.51,2.21-.95,1.43-1.41,2.15-.93,1.46-1.38,2.2-.92,1.5-1.37,2.25-.93,1.56-1.38,2.35l60.6,34.72c.25-.43.48-.86.74-1.28s.5-.81.75-1.21.5-.78.76-1.18.49-.78.75-1.16.55-.79.83-1.19l.8-1.13c.29-.4.56-.81.86-1.2s.58-.73.86-1.1l.85-1.09-54.52-43.67C330,347.07,329.44,347.74,328.92,348.41Zm118.91,10.81c.47,0,.93,0,1.4,0h0V289.26h0c-.87,0-1.73,0-2.6,0l-2.6.06,2.39,69.9ZM423.14,291.5l-2.52.46,13.14,68.71,1.36-.24c.47-.08.94-.18,1.42-.25l-10.8-69.11Zm19,68,1.41-.11c.47,0,.93-.08,1.41-.11l-3.62-69.84c-.87,0-1.73.11-2.59.16l-2.62.2c-.86.07-1.73.14-2.59.23l7.2,69.57C441.21,359.58,441.68,359.55,442.15,359.51ZM369.58,311.8c-.76.47-1.52.94-2.27,1.42s-1.42.93-2.12,1.4-1.49,1-2.22,1.51-1.4,1-2.09,1.46l40.59,56.94,1.12-.8,1.19-.81,1.16-.74c.41-.26.81-.53,1.22-.78l1.21-.72,1.21-.7c.42-.24.83-.49,1.26-.72s.83-.43,1.24-.65l-32.43-62-2.28,1.22c-.78.43-1.55.86-2.33,1.3s-1.49.86-2.23,1.3Zm46.62,54.34,1.29-.57c.43-.18.87-.34,1.31-.52l1.34-.53,1.32-.49,1.34-.45,1.35-.46,1.33-.41-20.2-67-2.46.76c-.83.27-1.67.53-2.5.81s-1.65.58-2.47.87l-2.44.9-2.48,1-2.42,1c-.8.33-1.6.68-2.39,1l-2.37,1.06,29.16,63.59Zm23.16-6.33-8.41-69.45-2.62.34,9.6,69.29ZM301.07,407.06l68,15.81c.11-.46.2-.91.32-1.37l-67.69-17C301.47,405.39,301.26,406.22,301.07,407.06Zm69.24,57.87c-.14-.46-.26-.92-.39-1.38l-67.25,18.68q.35,1.28.73,2.54c.25.84.5,1.69.76,2.52s.54,1.69.82,2.52l66.2-22.16c-.15-.45-.32-.9-.46-1.36S370.44,465.38,370.3,464.93Zm-66.52-68,66.73,20.44c.13-.43.28-.85.41-1.28l-66.39-21.54C304.28,395.37,304,396.16,303.78,397Zm8.58-21.86c-.39.8-.76,1.6-1.13,2.4s-.72,1.56-1.07,2.35-.7,1.59-1,2.39l64.29,27.2c.18-.43.39-.85.58-1.28s.38-.85.58-1.28.4-.87.61-1.3.43-.84.65-1.26l-62.29-31.58Q312.93,373.92,312.36,375.1ZM300,412.27l68.47,13.42q.13-.68.28-1.37l-68.23-14.57Q300.22,411,300,412.27Zm53.54-189.17c1.24-.54,2.49-1.08,3.74-1.61s2.52-1,3.79-1.54,2.59-1,3.9-1.5,2.55-.95,3.83-1.41,2.57-.92,3.86-1.36l-22.47-66.24c-1.67.56-3.33,1.16-5,1.75s-3.31,1.2-5,1.82-3.37,1.27-5,1.94-3.27,1.32-4.9,2-3.23,1.37-4.84,2.08-3.2,1.41-4.79,2.14l29.16,63.57C351,224.18,352.27,223.64,353.51,223.09Zm-14.84,7.11q1.8-.94,3.63-1.86c1.24-.62,2.48-1.24,3.73-1.84l-30.27-63.05c-1.62.78-3.22,1.58-4.83,2.39s-3.13,1.59-4.68,2.4-3.11,1.63-4.64,2.46l33.47,61.4C336.27,231.46,337.47,230.83,338.67,230.2Zm-44.1,478.17c1.56.9,3.12,1.78,4.7,2.66l34-61.1c-1.22-.68-2.43-1.36-3.63-2.05Zm-59.17-44.6c1.28,1.23,2.58,2.45,3.88,3.66l47.57-51.18q-1.51-1.4-3-2.82Zm-21.72-23.17q1.69,2,3.41,4c1.15,1.31,2.3,2.62,3.47,3.91s2.41,2.61,3.62,3.91,2.44,2.58,3.68,3.86,2.52,2.59,3.81,3.87L281,610.61l-.43-.42c-.85-.85-1.68-1.71-2.52-2.58s-1.91-2-2.84-3-1.88-2-2.81-3-1.8-2-2.69-3-1.76-2-2.64-3.07-1.81-2.15-2.7-3.24L210.2,636.42Q211.92,638.53,213.69,640.61Zm-25.18-34.3q1.43,2.26,2.91,4.49t3,4.51L252.12,576q-1.18-1.74-2.34-3.49T247.54,569c-.74-1.17-1.48-2.34-2.2-3.52s-1.39-2.33-2.08-3.5L183,597.23c.89,1.51,1.77,3,2.68,4.52S187.56,604.8,188.51,606.31Z"/><path class="cls-5" d="M614.61,613.43,663,663.78c1.25-1.21,2.5-2.42,3.73-3.64L617.5,610.61C616.54,611.56,615.58,612.49,614.61,613.43Z"/><path class="cls-5" d="M639.14,585.91c-.84,1.1-1.68,2.2-2.53,3.28s-1.65,2.06-2.49,3.09l54.13,44.14c1.08-1.32,2.16-2.65,3.22-4s2.19-2.83,3.27-4.25,2.21-2.93,3.3-4.41L641.7,582.49Q640.44,584.21,639.14,585.91Z"/><path class="cls-5" d="M644.05,579.25l57,40.31c1-1.41,2-2.83,2.95-4.26L646.34,576Q645.21,577.61,644.05,579.25Z"/><path class="cls-5" d="M653.12,565.48c-.72,1.18-1.46,2.35-2.2,3.52s-1.49,2.32-2.25,3.47L707,610.78q1.46-2.23,2.9-4.48c1-1.51,1.91-3,2.84-4.55s1.8-3,2.68-4.53L655.19,562C654.51,563.15,653.82,564.32,653.12,565.48Z"/><path class="cls-5" d="M664.8,543.84c-.59,1.24-1.19,2.47-1.8,3.7s-1.24,2.49-1.88,3.72-1.24,2.37-1.87,3.55L720.69,588c.82-1.52,1.62-3.05,2.42-4.59s1.63-3.2,2.43-4.81,1.57-3.18,2.33-4.78,1.52-3.2,2.25-4.82L666.54,540.1C666,541.35,665.39,542.59,664.8,543.84Z"/><path class="cls-5" d="M675.51,517.26c-.42,1.25-.85,2.49-1.29,3.72s-.94,2.64-1.43,3.95-.94,2.52-1.43,3.77-1.05,2.62-1.59,3.92l64.51,26.65c.69-1.69,1.39-3.37,2.06-5.07s1.24-3.24,1.85-4.86,1.24-3.4,1.84-5.11,1.12-3.2,1.66-4.81,1.12-3.41,1.66-5.12l-66.55-21C676.38,514.63,675.95,516,675.51,517.26Z"/><path class="cls-5" d="M683.75,485.34c-.26,1.4-.52,2.8-.8,4.19s-.57,2.64-.86,4l68.09,15.19c.38-1.7.76-3.4,1.1-5.11s.7-3.61,1-5.42.61-3.41.9-5.12l-68.78-11.66C684.22,482.69,684,484,683.75,485.34Z"/><path class="cls-5" d="M686.62,465c-.14,1.41-.3,2.81-.46,4.21s-.31,2.64-.48,4l69.13,9.26c.23-1.7.43-3.4.63-5.11s.41-3.61.59-5.42.31-3.4.45-5.11L687,461.09Q686.81,463.07,686.62,465Z"/><path class="cls-5" d="M687.26,456.9l69.59,4.5c.11-1.81.22-3.61.31-5.42L687.5,452.7C687.44,454.1,687.35,455.5,687.26,456.9Z"/><path class="cls-5" d="M757.49,440.32l-69.74.27c0,.31,0,.62,0,.94,0,1,0,2,0,3l69.73.89c0-1.3,0-2.6,0-3.91C757.51,441.12,757.5,440.72,757.49,440.32Z"/><path class="cls-5" d="M642.88,302.17c.78,1.08,1.55,2.18,2.32,3.27s1.6,2.31,2.38,3.47,1.47,2.22,2.2,3.34,1.46,2.29,2.18,3.44,1.45,2.34,2.15,3.53,1.46,2.44,2.17,3.68,1.32,2.34,2,3.51,1.28,2.35,1.91,3.53,1.3,2.46,1.93,3.7,1.23,2.45,1.83,3.69,1.19,2.5,1.78,3.76,1.13,2.46,1.68,3.7,1.1,2.48,1.63,3.73l64.29-27.2c-.68-1.62-1.4-3.22-2.11-4.82s-1.44-3.2-2.17-4.78-1.52-3.26-2.3-4.87-1.57-3.19-2.37-4.77-1.65-3.19-2.49-4.78-1.62-3.05-2.46-4.56-1.67-3-2.54-4.55-1.86-3.18-2.8-4.76-1.84-3-2.78-4.56-1.85-3-2.8-4.45-1.89-2.9-2.85-4.33-2-3-3.07-4.48-2-2.83-3-4.23-2.15-3-3.24-4.45-2.13-2.8-3.21-4.19l-55.22,42.75c.83,1.07,1.67,2.15,2.48,3.24S642,301,642.88,302.17Z"/><path class="cls-5" d="M676.19,367.89c.4,1.24.8,2.48,1.18,3.72s.8,2.64,1.18,4,.73,2.65,1.09,4,.7,2.64,1,4,.66,2.63,1,4,.62,2.79.92,4.2l68.22-14.58c-.38-1.81-.77-3.63-1.18-5.43s-.82-3.41-1.24-5.11-.87-3.42-1.33-5.12-.92-3.44-1.41-5.14-1-3.42-1.52-5.11-1-3.22-1.52-4.82-1.11-3.41-1.69-5.1l-66,22.69C675.33,365.25,675.77,366.57,676.19,367.89Z"/><path class="cls-5" d="M685.38,407.73c.2,1.4.39,2.8.56,4.2s.31,2.63.45,4l69.34-7.49c-.18-1.71-.37-3.42-.58-5.13s-.47-3.61-.73-5.41-.49-3.42-.76-5.13l-68.88,11Q685.11,405.75,685.38,407.73Z"/><path class="cls-5" d="M687.57,432.2c.06,1.4.1,2.8.13,4.2l69.72-1.5c0-1.81-.1-3.62-.17-5.43s-.13-3.41-.22-5.11l-69.63,3.88C687.47,429.56,687.52,430.88,687.57,432.2Z"/><path class="cls-5" d="M679.46,444.44c0-1,0-1.94,0-2.91,0-.3,0-.61,0-.91q0-2-.05-4c0-1.36-.08-2.71-.13-4.06l-69.88,2.73c0,.94.07,1.88.09,2.83s0,1.87,0,2.81c0,.21,0,.41,0,.62,0,.68,0,1.36,0,2,0,.94,0,1.88-.05,2.82l69.9,2.12C679.43,447.15,679.45,445.79,679.46,444.44Z"/><path class="cls-5" d="M678.73,460.41c.11-1.34.2-2.7.28-4.05s.16-2.69.23-4L609.39,449c0,.94-.1,1.88-.16,2.81s-.13,1.89-.2,2.83-.15,1.77-.24,2.66l69.6,6.89Q678.58,462.33,678.73,460.41Z"/><path class="cls-5" d="M677.48,472.11c.17-1.27.32-2.54.46-3.81l-69.46-8.13c-.1.89-.21,1.78-.33,2.66s-.25,1.89-.4,2.83l69.15,10.51C677.12,474.81,677.3,473.46,677.48,472.11Z"/><path class="cls-5" d="M608,418.81c.13.94.27,1.88.38,2.83s.21,1.77.3,2.66l69.53-7.51q-.21-1.92-.44-3.82c-.17-1.36-.35-2.71-.55-4.06s-.37-2.55-.56-3.82-.43-2.71-.67-4.05l-68.86,12.3c.16.94.32,1.88.47,2.82S607.84,417.92,608,418.81Z"/><path class="cls-5" d="M672.65,385.53q-.48-1.92-1-3.83c-.34-1.28-.69-2.56-1.05-3.83s-.75-2.56-1.14-3.83l-66.89,20.51q.41,1.33.79,2.66c.25.89.5,1.78.73,2.67s.47,1.78.69,2.67.44,1.76.64,2.65.42,1.88.62,2.83l68.41-14.62c-.28-1.35-.57-2.71-.88-4S673,386.8,672.65,385.53Z"/><path class="cls-5" d="M671.17,503.16c.35-1.27.7-2.54,1-3.82s.63-2.55.94-3.83.6-2.55.88-3.83.57-2.54.83-3.82.52-2.7.77-4,.46-2.55.67-3.84l-69-11.68q-.22,1.34-.47,2.66c-.17.95-.35,1.89-.54,2.83s-.38,1.77-.58,2.66-.4,1.78-.61,2.66-.43,1.78-.66,2.67-.47,1.77-.72,2.66-.5,1.78-.77,2.68L670.07,507C670.44,505.72,670.81,504.44,671.17,503.16Z"/><path class="cls-5" d="M599,384.18c.32.84.64,1.68,1,2.53s.63,1.77.93,2.66l66.17-22.75q-.66-1.92-1.35-3.82c-.44-1.22-.91-2.43-1.37-3.65s-1-2.52-1.48-3.77-1-2.43-1.49-3.64-1-2.4-1.57-3.6l-64,28.37c.37.83.74,1.66,1.09,2.5s.69,1.69,1,2.53S598.68,383.3,599,384.18Z"/><path class="cls-5" d="M663.67,525.69c.47-1.21.93-2.42,1.38-3.64s.93-2.54,1.38-3.81.84-2.39,1.24-3.6.84-2.54,1.24-3.81l-66.73-21q-.42,1.33-.86,2.65c-.28.84-.58,1.68-.87,2.52s-.63,1.77-1,2.65-.63,1.69-1,2.53-.71,1.76-1.07,2.64l64.66,26.71C662.65,528.21,663.17,527,663.67,525.69Z"/><path class="cls-5" d="M654.7,337.39c-.61-1.2-1.23-2.38-1.86-3.57s-1.22-2.28-1.84-3.41-1.25-2.27-1.9-3.39-1.39-2.37-2.1-3.55L587,359.31c.49.82,1,1.65,1.46,2.48s.88,1.57,1.32,2.36.86,1.58,1.28,2.37.87,1.65,1.29,2.48.83,1.65,1.23,2.49l62.94-30.55Q655.6,339.16,654.7,337.39Z"/><path class="cls-6" d="M633.38,531.33a12.25,12.25,0,1,0-12.25,12.25A12.25,12.25,0,0,0,633.38,531.33Z"/><path class="cls-6" d="M424.46,649.15a12.25,12.25,0,1,0-12.25,12.25A12.25,12.25,0,0,0,424.46,649.15Z"/><path class="cls-6" d="M440.4,621.1a12.25,12.25,0,1,0-12.25,12.25A12.25,12.25,0,0,0,440.4,621.1Z"/><path class="cls-6" d="M322.8,696.77A12.25,12.25,0,1,0,310.55,709,12.25,12.25,0,0,0,322.8,696.77Z"/><path class="cls-6" d="M316.48,651.43a12.25,12.25,0,1,0-12.25,12.25A12.25,12.25,0,0,0,316.48,651.43Z"/><path class="cls-6" d="M376.55,265.86a12.25,12.25,0,1,0-12.25,12.25A12.25,12.25,0,0,0,376.55,265.86Z"/><path class="cls-6" d="M336.89,198.71A12.25,12.25,0,1,0,324.64,211,12.25,12.25,0,0,0,336.89,198.71Z"/><path class="cls-6" d="M589,424.61a12.25,12.25,0,1,0-12.25,12.25A12.25,12.25,0,0,0,589,424.61Z"/><path class="cls-6" d="M266.38,716.63a12.25,12.25,0,1,0-12.25,12.26A12.25,12.25,0,0,0,266.38,716.63Z"/><path class="cls-6" d="M385,346.61a12.25,12.25,0,1,0-12.25,12.25A12.25,12.25,0,0,0,385,346.61Z"/><path class="cls-7" d="M226.08,228.62l50.55,48.23c.93-1,1.88-1.93,2.83-2.89l-49.73-49.07C228.5,226.12,227.28,227.36,226.08,228.62Zm-23.94,28.3,55.95,41.81c.81-1.09,1.65-2.16,2.48-3.23s1.63-2.09,2.46-3.12,1.74-2.16,2.62-3.22,1.8-2.15,2.72-3.21l-53-45.55q-1.78,2.07-3.52,4.16c-1.14,1.37-2.26,2.76-3.38,4.16s-2.13,2.67-3.18,4S203.19,255.51,202.14,256.92Zm-6.24,8.69,57.36,39.83q1.15-1.65,2.32-3.27l-56.69-40.78Q197.37,263.48,195.9,265.61ZM190,274.42c-1,1.47-1.88,3-2.81,4.45l59.33,36.82c.72-1.15,1.43-2.3,2.17-3.44s1.47-2.24,2.21-3.36l-58.05-38.81Q191.39,272.24,190,274.42Zm-15.88,27.66q-1.2,2.37-2.36,4.77l62.8,30.49q.9-1.85,1.83-3.69c.63-1.24,1.28-2.47,1.93-3.7L176.6,297.31C175.76,298.89,174.92,300.48,174.11,302.09Zm-6.84,14.43c-.71,1.6-1.42,3.2-2.11,4.82s-1.33,3.24-2,4.86l64.74,26.09c.51-1.26,1-2.51,1.54-3.76s1.08-2.49,1.63-3.73,1.11-2.47,1.68-3.7l-63.32-29.37Q168.34,314.11,167.27,316.51Zm-7.9,19.6q-.93,2.55-1.8,5.13c-.58,1.69-1.14,3.4-1.69,5.1l66.38,21.54c.43-1.32.86-2.64,1.31-4s.92-2.64,1.39-4,.94-2.52,1.42-3.77L161.2,331.26C160.58,332.87,160,334.49,159.37,336.12Zm61.71,35.49-66.72-20.44q-.78,2.55-1.52,5.11l67.06,19.3C220.28,374.25,220.68,372.93,221.08,371.61Zm-71-5.06,67.68,17q.5-2,1-4l-67.38-18.12Q150.75,364,150.11,366.55Zm65,29.08c.26-1.32.53-2.65.8-4l-68.23-14.58q-.54,2.55-1,5.11c-.33,1.7-.66,3.41-1,5.12l68.68,12.25C214.58,398.26,214.84,396.95,215.1,395.63ZM575.46,722.94l-28.62-63.82c-1.24.55-2.48,1.09-3.73,1.63L570.66,725Q573.07,724,575.46,722.94ZM540.77,736c1.66-.51,3.3-1.05,4.94-1.6L523.83,668c-1.27.42-2.54.84-3.82,1.23s-2.63.79-4,1.17l19.6,67.14C537.37,737.06,539.08,736.56,540.77,736Zm-15.34,4.31c1.71-.43,3.4-.89,5.09-1.35l-18.45-67.47c-1.31.36-2.61.71-3.93,1s-2.63.65-4,1l16.13,68.06Q522.89,741,525.43,740.34ZM678,509.34l66.9,19.84c.5-1.7,1-3.41,1.47-5.12l-67.23-18.68Q678.58,507.36,678,509.34ZM619,274c.94,1,1.89,1.91,2.81,2.88s1.88,2,2.81,3,1.85,2,2.77,3.05,1.8,2,2.68,3,1.83,2.14,2.73,3.22l53.74-44.61q-1.74-2.1-3.52-4.16c-1.14-1.32-2.3-2.63-3.45-3.93s-2.37-2.64-3.57-3.95-2.41-2.61-3.64-3.9-2.42-2.5-3.65-3.74-2.56-2.56-3.85-3.83L616,271c.63.62,1.27,1.23,1.9,1.85ZM255.63,316.73l58.78,37.89q.73-1.14,1.49-2.26l-58.13-38.87Q256.68,315.1,255.63,316.73Zm53.56-58,42.44,55.4c.71-.55,1.43-1.1,2.15-1.63l-41.52-56.09C311.23,257.2,310.21,258,309.19,258.76Zm-68.92,85.82q-.83,1.78-1.62,3.57l64,28.35q.55-1.25,1.13-2.48c.39-.85.79-1.69,1.19-2.53L242,340.95C241.4,342.15,240.83,343.36,240.27,344.58Zm58.21,42.13c.31-.85.63-1.69,1-2.53l-65.33-25c-.46,1.21-.92,2.42-1.37,3.64s-.91,2.54-1.35,3.82l66.16,22.76C297.86,388.48,298.16,387.6,298.48,386.71Zm-2.61,7.82L229,374q-.58,1.91-1.14,3.83l67.24,19.34C295.34,396.31,295.61,395.42,295.88,394.54Zm-1.52,5.33L226.8,381.7q-.51,1.91-1,3.83l67.86,17Q294,401.2,294.35,399.87Zm-2.5,10.81-68.64-13.46c-.25,1.27-.5,2.54-.72,3.82l68.86,12.3C291.51,412.45,291.68,411.56,291.86,410.68Zm-1.75,11L220.71,413q-.24,1.91-.44,3.82l69.53,7.51Q289.95,423,290.11,421.64Zm-.58,5.49-69.65-6.28c-.11,1.27-.22,2.54-.32,3.82l69.74,5.13C289.38,428.9,289.45,428,289.53,427.13ZM219,444.44c0,1.35,0,2.71.08,4.06s.09,2.55.15,3.82L289.06,449c0-.89-.08-1.77-.1-2.66s0-1.88-.05-2.82ZM301.39,618q1.5,1.25,3,2.48l43.91-54.27-2.11-1.74ZM340,559l-47.54,51.16q1.46,1.35,2.94,2.68l46.65-52C341.37,560.3,340.69,559.67,340,559Zm-7.84-7.82L281.2,599q1.36,1.45,2.75,2.87l50.14-48.64Q333.12,552.23,332.18,551.21Zm190.28,33.16,31.8,62c1.17-.6,2.32-1.21,3.47-1.83s2.3-1.24,3.44-1.88,2.35-1.31,3.51-2,2.27-1.33,3.4-2l-36-59.73c-.78.47-1.57.94-2.36,1.4s-1.62.93-2.44,1.39l-2.39,1.31C524.07,583.52,523.27,583.95,522.46,584.37Zm-12.54,5.78c-.87.36-1.74.71-2.61,1l25.2,64.95q1.88-.73,3.74-1.49c1.21-.49,2.42-1,3.63-1.5l-27.43-64.05C511.59,589.46,510.75,589.8,509.91,590.15Zm-34.57,9.78,11.32,68.65c1.31-.21,2.62-.43,3.93-.66l-12.5-68.45ZM647,323.46q-1-1.71-2.08-3.4l-59.42,36.88q.73,1.18,1.45,2.37ZM516.15,295.61c.85.39,1.7.78,2.54,1.19s1.68.83,2.52,1.25l31.25-62.31c-1.2-.6-2.4-1.2-3.61-1.78s-2.43-1.14-3.64-1.7-2.39-1.07-3.59-1.6l-28,63.82Zm10.75-70.78c-1.24-.44-2.47-.88-3.72-1.3l-22.37,66c.87.3,1.74.61,2.6.92ZM512.55,389l53.75-44.62q-.86-1-1.73-2.05l-53,45.57C511.91,388.24,512.24,388.6,512.55,389ZM389.73,130.56c1.75-.33,3.49-.65,5.25-1s3.6-.62,5.42-.9l-10.8-69.1c-2.21.34-4.41.71-6.61,1.09s-4.27.76-6.4,1.17-4.44.85-6.65,1.31l14.35,68.45C386.09,131.25,387.91,130.9,389.73,130.56ZM297.19,438.27l69.74,1.49c0-.49,0-1,0-1.45l-69.69-2.72C297.24,436.48,297.21,437.37,297.19,438.27Zm72.92-19.49L303,399.49c-.24.84-.47,1.69-.7,2.54l67.39,18.12C369.85,419.69,370,419.23,370.11,418.78Zm1.73-5.39-65.59-23.85q-.46,1.25-.89,2.52l66,22.7C371.54,414.31,371.69,413.84,371.85,413.39Zm1-2.65-64.75-26.1q-.5,1.24-1,2.5l65.2,25Zm3.59-7.7-61.72-32.65c-.41.78-.83,1.57-1.23,2.36l62.29,31.58C376,403.89,376.25,403.46,376.48,403Zm217.44-8.46c-.27-.84-.55-1.68-.84-2.52s-.58-1.68-.88-2.52l-65.6,23.85c.17.45.31.92.47,1.37s.31.9.46,1.36Zm-77.11,0,57.37-39.83c-.49-.7-1-1.4-1.48-2.09L516,393.47ZM385.91,389l-53.75-44.61c-.56.68-1.11,1.36-1.67,2.05L385,390.08C385.31,389.71,385.6,389.33,385.91,389Zm162-63.25-45.34,53.2,1.06.92,46.23-52.42Q548.93,326.56,547.95,325.72Zm-25.31,78.6,62.29-31.57c-.4-.79-.81-1.57-1.22-2.35L522,403C522.2,403.46,522.42,403.89,522.63,404.32Zm78.59,41.81L531.5,444c0,.45,0,.91,0,1.36l69.67,3.26Q601.19,447.39,601.23,446.13Zm6.8,269.4c-1.6.93-3.21,1.83-4.82,2.73s-3.14,1.73-4.72,2.58l32.95,61.66q2.9-1.55,5.77-3.16c2-1.1,3.94-2.2,5.89-3.33s3.81-2.23,5.69-3.36l-36.08-59.87Q610.37,714.17,608,715.53Zm-24.27,12.69,29.7,63.3q3.06-1.44,6.09-2.93l-30.8-62.76Q586.26,727,583.75,728.22Zm85-58.49c-1.31,1.27-2.64,2.51-4,3.75s-2.67,2.47-4,3.69-2.72,2.44-4.1,3.64l45.78,52.81c1.68-1.46,3.34-2.95,5-4.43s3.29-3,4.92-4.51,3.26-3,4.86-4.58,3.13-3,4.68-4.57L672.61,666C671.34,667.25,670.07,668.5,668.78,669.73Zm-33.32,27.92,41.09,56.53q2.63-1.91,5.23-3.86l-42-55.82C638.31,695.57,636.89,696.61,635.45,697.65ZM676.53,662l50.15,48.66q2.32-2.4,4.61-4.83l-51-47.78Q678.43,660.05,676.53,662ZM573.91,732.64c-1.66.71-3.32,1.4-5,2.08l26.43,64.73c2-.83,4.07-1.67,6.09-2.54s4-1.74,6-2.64l-28.62-63.79Q576.39,731.58,573.91,732.64Zm117.16-86.69,53.37,45.11q2.21-2.6,4.37-5.25l-54.16-44.16C693.48,643.09,692.28,644.52,691.08,645.95ZM532.71,747c-1.74.47-3.48.94-5.23,1.39l17.28,67.77c2.13-.54,4.25-1.12,6.38-1.7s4.3-1.18,6.43-1.8L538,745.49C536.23,746,534.47,746.49,532.71,747ZM367,444c0-.48,0-1,0-1.45l-69.74.89c0,.89,0,1.78.05,2.67Zm347,171.3q-1.53,2.34-3.1,4.64l57.75,39.38q1.92-2.81,3.78-5.66t3.63-5.62l-59.09-37.34Q715.46,613,714,615.32ZM755.75,521c-.45,1.76-.93,3.5-1.42,5.25L821.72,545c.59-2.13,1.18-4.26,1.73-6.41s1.07-4.3,1.58-6.45l-68-16.39C756.62,517.5,756.2,519.26,755.75,521Zm3.64-15.79c-.36,1.76-.75,3.5-1.13,5.25l68.25,15.23c.47-2.13,1-4.26,1.39-6.41s.88-4.53,1.3-6.8l-68.74-12.84C760.11,501.51,759.76,503.38,759.39,505.22Zm2-10.82,69,11.67c.36-2.14.72-4.27,1-6.42l-69.14-10.51C762,490.9,761.67,492.65,761.38,494.4Zm3.73-32.47c-.12,1.86-.24,3.72-.39,5.57s-.3,3.5-.47,5.25-.39,3.72-.61,5.57l69.45,8.13c.26-2.26.52-4.53.74-6.81s.4-4.27.57-6.41.34-4.52.48-6.8ZM701.32,633.18,757,675.48q2.09-2.75,4.13-5.54l-56.38-41.29Q703,630.93,701.32,633.18Zm49.92-96.4q-.83,2.64-1.71,5.26c-.55,1.65-1.13,3.3-1.71,4.94s-1.25,3.51-1.89,5.25l65.52,24.44q1.19-3.19,2.31-6.4c.71-2,1.41-4,2.09-6s1.4-4.27,2.08-6.41,1.31-4.27,1.94-6.41l-67-19.88C752.3,533.28,751.78,535,751.24,536.78ZM511.53,752c-1.79.36-3.59.7-5.39,1s-3.61.62-5.42.92l11.38,69c2.2-.36,4.41-.72,6.6-1.12s4.4-.83,6.59-1.26,4.3-.88,6.44-1.35l-14.93-68.32C515.05,751.23,513.3,751.6,511.53,752Zm226.11-179.6c-.75,1.66-1.53,3.3-2.31,4.95s-1.58,3.28-2.39,4.91-1.65,3.3-2.5,4.94l62.09,32.15q1.55-3,3-6t2.92-6c1-2,1.9-4,2.82-6s1.78-4,2.66-6l-64.16-27.79C739.1,569.06,738.39,570.72,737.64,572.36ZM543.23,743.93,564,810.72c2.07-.64,4.13-1.32,6.19-2L548.3,742.3C546.62,742.85,544.93,743.41,543.23,743.93ZM450,523.84l.62,69.93c.86,0,1.73,0,2.59,0l-1.8-69.93ZM327.09,149.33q2.5-1,5-2.05l-25.86-65q-3.08,1.22-6.14,2.5c-2,.85-4,1.72-6.06,2.61l28.06,64C323.77,150.74,325.43,150,327.09,149.33ZM278.8,174.59c1.56-1,3.15-2,4.73-3l-36.58-59.57c-1.93,1.19-3.86,2.38-5.77,3.6s-3.6,2.35-5.39,3.53l38.6,58.28C275.85,176.51,277.31,175.53,278.8,174.59Zm-73.26,64.69-53.78-44.64c-1.43,1.72-2.84,3.47-4.24,5.22l54.55,43.69C203.22,242.11,204.37,240.68,205.54,239.27ZM260.85,187l-41.57-56.19c-1.74,1.29-3.46,2.6-5.17,3.92l42.51,55.47C258,189.08,259.43,188,260.85,187ZM363.07,136.8,344,69.5c-2.15.61-4.28,1.25-6.41,1.89l20.19,67C359.56,137.82,361.31,137.3,363.07,136.8ZM306.7,494.71l65.4-24.4c-.17-.45-.33-.91-.49-1.37s-.29-.86-.44-1.29L305,489.81c.27.8.54,1.59.82,2.37S306.39,493.87,306.7,494.71Zm80.61,1c-.31-.35-.61-.7-.91-1.05L333,539.73q.83,1,1.68,2Zm-70.1-342L288,90.11C286,91,284,92,281.93,93l30.26,63C313.85,155.2,315.53,154.43,317.21,153.66Zm89.35,434q1.26.37,2.52.71l18.45-67.49-1.36-.39ZM442.62,55.12q-3.31.06-6.6.16c-2.27.08-4.54.14-6.8.26l3.62,69.84c1.85-.09,3.71-.15,5.57-.21s3.6-.11,5.41-.13Zm.06,538.51c.87,0,1.73.08,2.6.1l1.81-69.93-1.41,0Zm-32.24-79.51-33,61.68,2.3,1.22,31.91-62.26ZM195.52,252l-56-41.83c-1.38,1.84-2.73,3.72-4.07,5.59l56.73,40.83C193.28,255,194.38,253.49,195.52,252ZM151.6,333.29,85.88,309.4q-1.16,3.2-2.26,6.42l66.13,22.75C150.36,336.8,151,335,151.6,333.29ZM201,737.87q2.52,2.11,5.07,4.18l44-54.33q-2.09-1.7-4.16-3.42ZM406.75,512l-36.08,59.9,2.23,1.32L408,512.73C407.57,512.49,407.15,512.26,406.75,512Z"/><path class="cls-6" d="M161.91,623.48a12.25,12.25,0,1,0-12.25,12.25A12.25,12.25,0,0,0,161.91,623.48Z"/><path class="cls-6" d="M537.56,703.34a12.25,12.25,0,1,0-12.25,12.25A12.25,12.25,0,0,0,537.56,703.34Z"/><line class="cls-1" x1="449.77" y1="50.35" x2="449.77" y2="14.1"/><line class="cls-2" x1="449.77" y1="121.5" x2="449.77" y2="58.33"/><line class="cls-2" x1="449.77" y1="199.47" x2="449.77" y2="137.06"/><line class="cls-2" x1="449.77" y1="277.22" x2="449.77" y2="215.65"/><path class="cls-2" d="M441.5,363.67a8.27,8.27,0,0,0,8.27-8.27"/><path class="cls-2" d="M527.81,306.33a156.5,156.5,0,0,1,0,270.38,155.05,155.05,0,0,1-78,21.19h-.54a155.43,155.43,0,0,1-77.78-20.73,156.56,156.56,0,0,1,0-271.34,155.27,155.27,0,0,1,70-20.54h0a8.27,8.27,0,0,0,8.27-8.27"/><path class="cls-2" d="M441.5,207.43a8.27,8.27,0,0,0,8.27-8.27"/><path class="cls-8" d="M441.5,129.2a8.27,8.27,0,0,0,8.27-8.27"/><path class="cls-2" d="M458.05,50.44a8.27,8.27,0,0,0-8.27,8.27"/><path class="cls-8" d="M458.05,129.23a8.27,8.27,0,0,0-8.27,8.27"/><path class="cls-2" d="M458.05,207.46a8.27,8.27,0,0,0-8.27,8.27"/><path class="cls-2" d="M449.77,355.65v-62h0a8.27,8.27,0,0,1,8.27-8.27h0a154.89,154.89,0,0,1,69.75,21"/><path class="cls-3" d="M462.94,81.71,465.22,83a9,9,0,0,0-1.49,4.63v2.8h-3.85V88a7.65,7.65,0,0,1,.88-3.37A8.79,8.79,0,0,1,462.94,81.71Z"/><path class="cls-3" d="M481,83.37v4h-.47a8.26,8.26,0,0,0-5.3,1.71,7,7,0,0,0-2.41,4.62,6.61,6.61,0,0,1,4.92-2A6.23,6.23,0,0,1,482.82,94a9.16,9.16,0,0,1,1.88,6,9,9,0,0,1-1,4.32,7.41,7.41,0,0,1-2.92,3,8.49,8.49,0,0,1-4.27,1.07,7.93,7.93,0,0,1-6.24-2.69,10.43,10.43,0,0,1-2.38-7.17V96.8a15.69,15.69,0,0,1,1.5-7,11,11,0,0,1,4.32-4.72,12.65,12.65,0,0,1,6.52-1.69Zm-4.74,12.26a3.87,3.87,0,0,0-2.13.61,3.68,3.68,0,0,0-1.41,1.62v1.47a6.54,6.54,0,0,0,1,3.8,3.09,3.09,0,0,0,2.69,1.37,3.06,3.06,0,0,0,2.53-1.23,5.78,5.78,0,0,0,0-6.41A3.17,3.17,0,0,0,476.27,95.63Z"/><path class="cls-3" d="M500.74,83.37v4h-.47a8.26,8.26,0,0,0-5.3,1.71,7,7,0,0,0-2.41,4.62,6.61,6.61,0,0,1,4.92-2A6.23,6.23,0,0,1,502.55,94a9.16,9.16,0,0,1,1.88,6,9,9,0,0,1-1,4.32,7.41,7.41,0,0,1-2.92,3,8.49,8.49,0,0,1-4.27,1.07,7.93,7.93,0,0,1-6.24-2.69,10.43,10.43,0,0,1-2.38-7.17V96.8a15.69,15.69,0,0,1,1.5-7,11,11,0,0,1,4.32-4.72,12.65,12.65,0,0,1,6.52-1.69ZM496,95.63a3.87,3.87,0,0,0-2.13.61,3.68,3.68,0,0,0-1.41,1.62v1.47a6.54,6.54,0,0,0,1,3.8,3.09,3.09,0,0,0,2.69,1.37,3.06,3.06,0,0,0,2.53-1.23,5.78,5.78,0,0,0,0-6.41A3.17,3.17,0,0,0,496,95.63Z"/><path class="cls-3" d="M462.94,159.8l2.28,1.33a9,9,0,0,0-1.49,4.63v2.8h-3.85V166a7.64,7.64,0,0,1,.88-3.37A8.77,8.77,0,0,1,462.94,159.8Z"/><path class="cls-3" d="M481,161.46v4h-.47a8.24,8.24,0,0,0-5.3,1.71,7,7,0,0,0-2.41,4.62,6.61,6.61,0,0,1,4.92-2,6.23,6.23,0,0,1,5.07,2.28,9.15,9.15,0,0,1,1.88,6,9,9,0,0,1-1,4.31,7.39,7.39,0,0,1-2.92,3,8.49,8.49,0,0,1-4.27,1.08,7.93,7.93,0,0,1-6.24-2.69,10.42,10.42,0,0,1-2.38-7.17V174.9a15.69,15.69,0,0,1,1.5-7,11,11,0,0,1,4.32-4.72,12.62,12.62,0,0,1,6.52-1.69Zm-4.74,12.26a3.87,3.87,0,0,0-2.13.61,3.69,3.69,0,0,0-1.41,1.62v1.47a6.54,6.54,0,0,0,1,3.8,3.09,3.09,0,0,0,2.69,1.37,3.06,3.06,0,0,0,2.53-1.23,5.78,5.78,0,0,0,0-6.41A3.18,3.18,0,0,0,476.27,173.72Z"/><path class="cls-3" d="M488.3,174.14l1.41-12.43h13.7v4h-9.72l-.6,5.26a7.7,7.7,0,0,1,3.68-.92,7.05,7.05,0,0,1,5.47,2.17,8.66,8.66,0,0,1,2,6.06,8.87,8.87,0,0,1-1,4.24,7.06,7.06,0,0,1-2.86,2.9,9,9,0,0,1-4.4,1,9.51,9.51,0,0,1-4.11-.9,7.29,7.29,0,0,1-3-2.53,6.89,6.89,0,0,1-1.17-3.71h4.8a3.59,3.59,0,0,0,1.07,2.38,3.38,3.38,0,0,0,2.39.85,3,3,0,0,0,2.54-1.18,5.49,5.49,0,0,0,.89-3.35,4.53,4.53,0,0,0-1-3.19,3.75,3.75,0,0,0-2.9-1.11,4.21,4.21,0,0,0-2.8.91l-.47.44Z"/><path class="cls-3" d="M462.94,237.89l2.28,1.33a9,9,0,0,0-1.49,4.63v2.8h-3.85v-2.52a7.64,7.64,0,0,1,.88-3.37A8.77,8.77,0,0,1,462.94,237.89Z"/><path class="cls-3" d="M481,239.55v4h-.47a8.24,8.24,0,0,0-5.3,1.71,7,7,0,0,0-2.41,4.62,6.61,6.61,0,0,1,4.92-2,6.23,6.23,0,0,1,5.07,2.28,9.15,9.15,0,0,1,1.88,6,9,9,0,0,1-1,4.31,7.39,7.39,0,0,1-2.92,3,8.49,8.49,0,0,1-4.27,1.08,7.93,7.93,0,0,1-6.24-2.69,10.42,10.42,0,0,1-2.38-7.17V253a15.69,15.69,0,0,1,1.5-7,11,11,0,0,1,4.32-4.72,12.62,12.62,0,0,1,6.52-1.69Zm-4.74,12.26a3.87,3.87,0,0,0-2.13.61,3.69,3.69,0,0,0-1.41,1.62v1.47a6.54,6.54,0,0,0,1,3.8,3.09,3.09,0,0,0,2.69,1.37,3.06,3.06,0,0,0,2.53-1.23,5.78,5.78,0,0,0,0-6.41A3.18,3.18,0,0,0,476.27,251.81Z"/><path class="cls-3" d="M501.93,255.05h2.77V259h-2.77v5.29h-4.85V259h-10l-.22-3.06L497,239.81h4.9Zm-10.26,0h5.41v-8.63l-.32.55Z"/><path class="cls-3" d="M462.94,316l2.28,1.33a9,9,0,0,0-1.49,4.63v2.8h-3.85v-2.52a7.65,7.65,0,0,1,.88-3.37A8.79,8.79,0,0,1,462.94,316Z"/><path class="cls-3" d="M481,317.65v4h-.47a8.26,8.26,0,0,0-5.3,1.71,7,7,0,0,0-2.41,4.62,6.61,6.61,0,0,1,4.92-2,6.23,6.23,0,0,1,5.07,2.28,9.16,9.16,0,0,1,1.88,6,9,9,0,0,1-1,4.32,7.41,7.41,0,0,1-2.92,3,8.49,8.49,0,0,1-4.27,1.07,7.93,7.93,0,0,1-6.24-2.69,10.43,10.43,0,0,1-2.38-7.17v-1.75a15.69,15.69,0,0,1,1.5-7,11,11,0,0,1,4.32-4.72,12.65,12.65,0,0,1,6.52-1.69Zm-4.74,12.26a3.87,3.87,0,0,0-2.13.61,3.68,3.68,0,0,0-1.41,1.62v1.47a6.54,6.54,0,0,0,1,3.8,3.09,3.09,0,0,0,2.69,1.37,3.06,3.06,0,0,0,2.53-1.23,5.78,5.78,0,0,0,0-6.41A3.17,3.17,0,0,0,476.27,329.9Z"/><path class="cls-3" d="M492.51,328h2.59a3.65,3.65,0,0,0,2.74-.92,3.39,3.39,0,0,0,.89-2.45,3,3,0,0,0-.88-2.3,3.42,3.42,0,0,0-2.43-.82,3.58,3.58,0,0,0-2.33.77,2.44,2.44,0,0,0-.94,2h-4.85a6,6,0,0,1,1-3.43,6.88,6.88,0,0,1,2.89-2.37,9.62,9.62,0,0,1,4.09-.86,9.15,9.15,0,0,1,6.08,1.86,6.33,6.33,0,0,1,2.2,5.11,5.14,5.14,0,0,1-1,3.09,6.64,6.64,0,0,1-2.69,2.17,6.09,6.09,0,0,1,3.08,2.22,6,6,0,0,1,1,3.49,6.43,6.43,0,0,1-2.38,5.22,9.55,9.55,0,0,1-6.29,2,9.05,9.05,0,0,1-6-1.93,6.3,6.3,0,0,1-2.33-5.1h4.85a2.81,2.81,0,0,0,1,2.25,4.31,4.31,0,0,0,5.26,0,3.16,3.16,0,0,0,1-2.43q0-3.66-4-3.66h-2.57Z"/><circle class="cls-9" cx="621.13" cy="531.34" r="7.07"/><circle class="cls-5" cx="428.15" cy="621.11" r="7.06"/><path class="cls-5" d="M317.62,696.77a7.07,7.07,0,1,0-7.07,7.07A7.07,7.07,0,0,0,317.62,696.77Z"/><circle class="cls-7" cx="412.21" cy="649.15" r="7.07"/><circle class="cls-7" cx="304.23" cy="651.43" r="7.07"/><circle class="cls-7" cx="364.3" cy="265.86" r="7.07"/><circle class="cls-7" cx="324.64" cy="198.71" r="7.06"/><circle class="cls-7" cx="576.8" cy="424.62" r="7.07"/><circle class="cls-7" cx="254.13" cy="716.63" r="7.07"/><circle class="cls-7" cx="372.72" cy="346.61" r="7.06"/><circle class="cls-10" cx="149.65" cy="623.48" r="7.07"/><path class="cls-9" d="M532.38,703.34a7.07,7.07,0,1,0-7.07,7.07A7.07,7.07,0,0,0,532.38,703.34Z"/><path class="cls-6" d="M322.73,202.92h-1.62v-6.24l-1.93.6V196l3.38-1.21h.17Z"/><path class="cls-6" d="M328.8,199.55a4.13,4.13,0,0,1-.7,2.59,2.8,2.8,0,0,1-4.09,0,4,4,0,0,1-.72-2.52v-1.5a4.06,4.06,0,0,1,.71-2.59,2.8,2.8,0,0,1,4.08,0,4,4,0,0,1,.72,2.52Zm-1.62-1.65a3,3,0,0,0-.28-1.48A.94.94,0,0,0,326,196a.92.92,0,0,0-.84.44,2.79,2.79,0,0,0-.29,1.38v2a3.13,3.13,0,0,0,.27,1.48.92.92,0,0,0,.87.48.91.91,0,0,0,.86-.46,3,3,0,0,0,.27-1.42Z"/><path class="cls-6" d="M366,261.84v1.33h-.16a2.75,2.75,0,0,0-1.77.57,2.32,2.32,0,0,0-.8,1.54,2.2,2.2,0,0,1,1.64-.66,2.08,2.08,0,0,1,1.69.76,3.05,3.05,0,0,1,.63,2,3,3,0,0,1-.34,1.44,2.49,2.49,0,0,1-1,1,2.83,2.83,0,0,1-1.42.36,2.65,2.65,0,0,1-2.08-.89,3.48,3.48,0,0,1-.79-2.39v-.58a5.24,5.24,0,0,1,.5-2.34,3.68,3.68,0,0,1,1.44-1.57,4.22,4.22,0,0,1,2.17-.56Zm-1.58,4.09a1.29,1.29,0,0,0-.71.21,1.22,1.22,0,0,0-.47.54v.49a2.17,2.17,0,0,0,.32,1.27,1.09,1.09,0,0,0,1.74,0,1.93,1.93,0,0,0,0-2.14A1.06,1.06,0,0,0,364.38,265.92Z"/><path class="cls-6" d="M375.58,350.82H370v-1.11l2.64-2.81a6.55,6.55,0,0,0,.8-1,1.66,1.66,0,0,0,.26-.84,1.24,1.24,0,0,0-.27-.85,1,1,0,0,0-.78-.31,1.07,1.07,0,0,0-.87.38,1.49,1.49,0,0,0-.32,1h-1.62a2.67,2.67,0,0,1,.36-1.36,2.5,2.5,0,0,1,1-1,3,3,0,0,1,1.47-.35,2.9,2.9,0,0,1,2,.6,2.14,2.14,0,0,1,.7,1.71,2.74,2.74,0,0,1-.31,1.23,6.88,6.88,0,0,1-1.07,1.46l-1.85,2h3.5Z"/><path class="cls-6" d="M409.72,649.35l.47-4.14h4.57v1.35h-3.24l-.2,1.75a2.57,2.57,0,0,1,1.23-.31,2.35,2.35,0,0,1,1.82.72,2.89,2.89,0,0,1,.66,2,3,3,0,0,1-.33,1.41,2.35,2.35,0,0,1-1,1,3,3,0,0,1-1.47.35,3.17,3.17,0,0,1-1.37-.3,2.43,2.43,0,0,1-1-.84,2.3,2.3,0,0,1-.39-1.24h1.6a1.2,1.2,0,0,0,.36.79,1.12,1.12,0,0,0,.8.28,1,1,0,0,0,.84-.39,1.83,1.83,0,0,0,.3-1.12,1.5,1.5,0,0,0-.34-1.06,1.25,1.25,0,0,0-1-.37,1.4,1.4,0,0,0-.93.3l-.16.15Z"/><path class="cls-6" d="M305.28,652.38a2,2,0,0,1-1.48.62,2.18,2.18,0,0,1-1.73-.74,2.92,2.92,0,0,1-.65-2,3.12,3.12,0,0,1,.35-1.47,2.57,2.57,0,0,1,1-1,2.71,2.71,0,0,1,1.41-.37,2.6,2.6,0,0,1,1.43.4,2.65,2.65,0,0,1,1,1.16,4.15,4.15,0,0,1,.35,1.73v.6a4.71,4.71,0,0,1-1,3.2,3.84,3.84,0,0,1-2.87,1.24h-.4v-1.35H303A2.07,2.07,0,0,0,305.28,652.38Zm-1.08-.62a1.13,1.13,0,0,0,.67-.2,1.33,1.33,0,0,0,.43-.49v-.67a2.22,2.22,0,0,0-.31-1.28,1,1,0,0,0-.84-.46.94.94,0,0,0-.8.45,1.9,1.9,0,0,0-.31,1.12,1.84,1.84,0,0,0,.3,1.09A1,1,0,0,0,304.2,651.76Z"/><path class="cls-6" d="M253.07,720.84h-1.62v-6.23l-1.93.6v-1.31l3.38-1.21h.17Z"/><path class="cls-6" d="M257.59,720.84H256v-6.23l-1.93.6v-1.31l3.38-1.21h.17Z"/><path class="cls-6" d="M430.21,622.25h.92v1.3h-.92v1.76h-1.62v-1.76h-3.34l-.07-1,3.4-5.37h1.63Zm-3.42,0h1.8v-2.88l-.11.18Z"/><path class="cls-6" d="M313.13,695a1.89,1.89,0,0,1-.3,1.05,2.12,2.12,0,0,1-.82.73,2.37,2.37,0,0,1,.94.79,2,2,0,0,1,.35,1.18,2.14,2.14,0,0,1-.74,1.72,3.52,3.52,0,0,1-4,0,2.13,2.13,0,0,1-.74-1.71,2,2,0,0,1,.35-1.18,2.33,2.33,0,0,1,.93-.79,2.1,2.1,0,0,1-.81-.73A1.91,1.91,0,0,1,308,695a2.12,2.12,0,0,1,.69-1.66,3.19,3.19,0,0,1,3.77,0A2.1,2.1,0,0,1,313.13,695Zm-1.45,3.63a1.18,1.18,0,0,0-.31-.85,1.23,1.23,0,0,0-1.65,0,1.33,1.33,0,0,0,0,1.69,1.27,1.27,0,0,0,1.67,0A1.17,1.17,0,0,0,311.68,698.63Zm-.17-3.55a1.12,1.12,0,0,0-.25-.76,1,1,0,0,0-1.42,0,1.11,1.11,0,0,0-.25.77,1.17,1.17,0,0,0,.25.78.88.88,0,0,0,.71.3.87.87,0,0,0,.71-.3A1.18,1.18,0,0,0,311.52,695.07Z"/><path class="cls-6" d="M620,530.75h.86a1.22,1.22,0,0,0,.91-.31,1.13,1.13,0,0,0,.3-.82,1,1,0,0,0-.29-.77,1.13,1.13,0,0,0-.81-.28,1.19,1.19,0,0,0-.78.26.81.81,0,0,0-.31.66h-1.62a2,2,0,0,1,.34-1.14,2.3,2.3,0,0,1,1-.79,3.2,3.2,0,0,1,1.36-.29,3,3,0,0,1,2,.62,2.11,2.11,0,0,1,.73,1.71,1.71,1.71,0,0,1-.34,1,2.21,2.21,0,0,1-.9.72,1.9,1.9,0,0,1,1.37,1.9,2.15,2.15,0,0,1-.79,1.74,3.19,3.19,0,0,1-2.1.65,3,3,0,0,1-2-.64,2.1,2.1,0,0,1-.78-1.7h1.62a.94.94,0,0,0,.34.75,1.26,1.26,0,0,0,.85.29,1.28,1.28,0,0,0,.9-.3,1.05,1.05,0,0,0,.33-.81q0-1.22-1.34-1.22H620Z"/><path class="cls-6" d="M578,428.82h-1.62v-6.23l-1.93.6v-1.31l3.38-1.21H578Z"/><path class="cls-6" d="M528.13,700.3,525,707.55h-1.71l3.16-6.85h-4.05v-1.3h5.75Z"/><path class="cls-6" d="M147.74,627.69h-1.62v-6.24l-1.93.6v-1.32l3.38-1.21h.17Z"/><path class="cls-6" d="M153.91,627.69h-5.59v-1.11l2.64-2.81a6.55,6.55,0,0,0,.8-1,1.66,1.66,0,0,0,.26-.84,1.24,1.24,0,0,0-.27-.85,1,1,0,0,0-.78-.31,1.07,1.07,0,0,0-.87.38,1.49,1.49,0,0,0-.32,1h-1.62a2.67,2.67,0,0,1,.36-1.36,2.5,2.5,0,0,1,1-1,3,3,0,0,1,1.47-.35,2.9,2.9,0,0,1,2,.6,2.14,2.14,0,0,1,.7,1.71,2.74,2.74,0,0,1-.31,1.23,6.88,6.88,0,0,1-1.07,1.46l-1.85,2h3.5Z"/></svg>