<svg id="Layer_1" data-name="Layer 1" xmlns="http://www.w3.org/2000/svg" viewBox="0 0 573.55 620.35"><defs><style>.cls-1{fill:#51c3f0;}.cls-2{fill:#ffce08;}.cls-3{fill:#ed3766;}</style></defs><title>yg-beatles-170807-0049-site_covers</title><path class="cls-1" d="M276.46,210.91l2-.08,1.93,0,1.92,0h0l1.93,0,1.93,0,2,.08,1.93.12,1.94.15,1.92.17,1.92.22,1.94.25,1.92.27,1.93.32,1.87.34,1.94.38,10-47.83c-.92-.19-1.85-.37-2.78-.54l-2.68-.49c-.92-.16-1.84-.31-2.77-.46s-1.83-.27-2.75-.39l-2.78-.36c-.92-.11-1.84-.22-2.77-.32s-1.83-.17-2.75-.24l-2.77-.21c-.92-.06-1.84-.13-2.76-.17s-1.89-.08-2.83-.11l-2.76-.07c-.92,0-1.84,0-2.76,0h0c-.92,0-1.84,0-2.76,0l-2.76.07c-.95,0-1.9.06-2.84.11s-1.84.11-2.76.17L274.54,211Zm-7.7.66,1.93-.22,1.92-.17-4.19-48.66c-.92.08-1.84.15-2.76.25s-1.84.2-2.76.31l-2.78.36,6.71,48.39Zm-79,47.67c.36-.52.72-1,1.09-1.54s.78-1.09,1.19-1.63.77-1,1.17-1.52l1.16-1.48c.41-.51.82-1,1.23-1.52L157.86,220.2c-.6.72-1.19,1.45-1.78,2.18s-1.12,1.4-1.67,2.11-1.13,1.45-1.68,2.19-1.14,1.55-1.7,2.33-1.05,1.48-1.57,2.22-1.08,1.56-1.61,2.34l40.82,27.29C189,260.33,189.41,259.78,189.78,259.24Zm-8,13.32c.3-.59.6-1.17.91-1.75s.59-1.11.9-1.66.61-1.11.93-1.66.68-1.16,1-1.74.67-1.11,1-1.67l-41.72-25.9q-.74,1.19-1.46,2.39c-.5.83-1,1.66-1.47,2.49s-.89,1.59-1.33,2.38-.87,1.59-1.29,2.4-.88,1.67-1.31,2.51-.84,1.66-1.24,2.5L181,274.31Q181.39,273.43,181.83,272.56Zm-4,8.81c.24-.59.48-1.19.73-1.78s.51-1.18.77-1.77l-44.91-19.91c-.37.84-.75,1.68-1.11,2.53s-.7,1.7-1,2.55-.7,1.77-1,2.65l45.88,17.57Q177.47,282.29,177.84,281.37Zm-2.67,7.36c.2-.62.41-1.25.62-1.87l-46.46-16c-.31.89-.6,1.79-.89,2.68s-.54,1.68-.8,2.53l47,14.4C174.79,289.9,175,289.32,175.17,288.73Zm-3,11.22c.14-.66.28-1.33.43-2s.3-1.24.45-1.86l-47.65-11.95c-.22.89-.45,1.78-.65,2.68s-.42,1.89-.62,2.84-.37,1.79-.54,2.69l48.2,9.45Q172,300.89,172.17,300Zm-1.34,7.58c.09-.62.18-1.25.28-1.87s.21-1.32.33-2l-48.35-8.63c-.17.94-.32,1.89-.47,2.84s-.27,1.78-.4,2.68-.27,1.9-.38,2.85l48.73,6.09C170.65,308.86,170.74,308.2,170.83,307.54ZM135,390.31c.38.85.78,1.69,1.18,2.53s.81,1.68,1.22,2.51.84,1.69,1.28,2.52.84,1.61,1.27,2.41.92,1.67,1.39,2.5l42.8-24.08c-.33-.58-.65-1.16-1-1.75s-.59-1.11-.88-1.67-.6-1.17-.89-1.76-.57-1.16-.85-1.75-.55-1.17-.82-1.76-.52-1.17-.77-1.76-.5-1.18-.75-1.77l-45.4,18.76q.53,1.27,1.07,2.54C134.24,388.62,134.61,389.47,135,390.31Zm-9.26-26.22c.23.9.48,1.78.72,2.67s.51,1.8.77,2.7.53,1.79.81,2.68.57,1.79.87,2.68.58,1.69.87,2.53.64,1.79,1,2.68l46-17.17q-.35-.93-.68-1.87c-.2-.59-.41-1.17-.61-1.76s-.41-1.24-.61-1.87-.38-1.24-.57-1.87-.37-1.25-.54-1.88-.34-1.24-.5-1.86-.31-1.25-.46-1.88-.29-1.24-.43-1.87L124.45,358.7q.3,1.35.62,2.69C125.28,362.29,125.5,363.2,125.73,364.09Zm-2.41-10.91c.18.95.35,1.9.54,2.84L172,346.14c-.13-.66-.26-1.32-.38-2Zm76.78,47.32c-.44-.48-.89-.95-1.32-1.43s-.85-1-1.27-1.43l-1.24-1.45c-.43-.51-.85-1-1.27-1.53s-.79-1-1.17-1.46l-38.55,30.38q.83,1.05,1.69,2.09t1.83,2.2q.89,1,1.79,2.08c.6.69,1.21,1.37,1.82,2s1.26,1.37,1.9,2.05Zm-53,11.74c.52.79,1,1.59,1.58,2.37s1,1.49,1.55,2.23,1.06,1.47,1.59,2.19l39.61-29c-.37-.51-.74-1-1.11-1.53s-.72-1-1.08-1.56-.74-1.09-1.1-1.64-.71-1.09-1.06-1.64-.69-1.1-1-1.66l-42,25.51c.49.8,1,1.59,1.49,2.39S146.59,411.46,147.1,412.24Zm77,7.77L198.85,462q1.18.71,2.38,1.4L225.78,421ZM182.8,450.93c.74.58,1.49,1.15,2.24,1.71l29.48-39.14-1.56-1.2Zm20-47.59-34.6,34.77q1,1,2,1.91l34-35.34ZM262,434.38l-8.79,48.06c.92.17,1.84.32,2.77.47L264,434.71Zm-27.72,43.45c.89.27,1.79.54,2.68.79L250.7,431.7l-1.88-.56Zm7.21-49.25-17.69,45.6c.86.33,1.72.66,2.59,1l16.91-45.9Zm-5.37-2.25-20,44.65,2.53,1.1,19.26-45Zm-3.52-1.66-1.76-.88-22.34,43.56c.84.43,1.68.84,2.53,1.26l2.55,1.22,20.79-44.3ZM298.76,435l-1.92.27-1.95.23-1.92.2-2,.17,3.76,48.7c1-.07,1.9-.16,2.85-.25l2.75-.28c.93-.1,1.85-.2,2.78-.32s1.84-.25,2.76-.38l2.69-.42-7.95-48.2Zm15.13-3.3-1.88.53-1.86.5-1.87.46-1.93.43-1.89.4,9.62,47.91,2.7-.56,2.77-.62,2.68-.65,2.66-.7,2.69-.75c.9-.26,1.79-.52,2.68-.79l-14.51-46.69Zm5.55-1.78-1.88.64L332.86,477l2.69-.91c.87-.3,1.75-.61,2.61-.93l-16.91-45.89Zm10.73-4.4L351,469.82l2.54-1.22L332,424.67ZM340.46,420,365.74,462c.79-.47,1.56-1,2.34-1.44L342.1,419Zm-51.4,16-1.92.1-1.94.07L286.47,485c.92,0,1.84-.07,2.77-.11l2.76-.14Zm93.24-60.72c-.29.56-.58,1.12-.88,1.68l43.23,23.32c.43-.8.85-1.6,1.27-2.4s.86-1.68,1.27-2.52l-44-21.82C382.9,374.11,382.61,374.69,382.3,375.27Zm2.56-5.26L429.6,390.3c.38-.84.75-1.68,1.11-2.52l-45.08-19.53C385.38,368.84,385.13,369.43,384.86,370Zm-31-133.54L385,198.6c-.71-.58-1.43-1.15-2.14-1.72l-30.48,38.38Zm3,2.54,1.45,1.3,33.07-36.21c-.68-.63-1.38-1.24-2.08-1.85s-1.38-1.21-2.08-1.8l-31.8,37.31Zm7,6.72,35.49-33.87c-.63-.66-1.27-1.31-1.91-2l-34.91,34.45Zm-49-30.17,1.81.56,1.86.61,15.71-46.31c-.88-.3-1.77-.58-2.67-.86l-2.6-.8c-.89-.27-1.79-.53-2.69-.79l-2.7-.73-2.67-.67L309.22,214l1.87.47L313,215Zm22-44.23-16.49,46,1.81.67,1.84.71,1.79.73,1.76.76,19.63-44.82c-.84-.37-1.68-.73-2.53-1.09l-2.57-1c-.87-.35-1.75-.68-2.64-1Zm-2.29,52.29,1.7.91,1.72,1,1.66,1,1.65,1c.56.35,1.12.69,1.68,1.05l1.57,1,1.64,1.11,27.76-40.37q-1.17-.8-2.35-1.59c-.75-.5-1.5-1-2.26-1.48s-1.6-1-2.41-1.5-1.58-1-2.37-1.42-1.58-.93-2.38-1.38-1.64-.93-2.47-1.38-1.62-.87-2.43-1.29L354.78,179l-21.94,43.75ZM496.33,356l-48.42-7.37c-.14.93-.3,1.86-.45,2.78l48.29,8.18C496,358.45,496.15,357.25,496.33,356ZM315.24,487.62l9.67,48.15c1.21-.24,2.41-.5,3.61-.76L318,487Zm-1.48-328.55c1,.18,1.92.37,2.88.56l2.79.61c1,.22,1.91.45,2.86.68l2.77.7c.94.24,1.87.49,2.8.75l13.36-47.27c-1.2-.34-2.41-.66-3.62-1s-2.38-.61-3.58-.9-2.46-.6-3.7-.88-2.4-.53-3.6-.78-2.49-.5-3.73-.73-2.38-.44-3.58-.65L311,158.56Zm7.46,377.4-8.84-48.31-2.86.48,8,48.46C318.75,536.9,320,536.7,321.22,536.47Zm-17.33-47-2.88.33,5.49,48.8c1.24-.14,2.49-.27,3.72-.43s2.46-.34,3.69-.51l-7.16-48.58Zm-8.68.89c-.95.07-1.9.12-2.86.18l2.94,49c1.24-.07,2.48-.14,3.71-.23s2.54-.22,3.81-.34l-4.65-48.88C297.18,490.19,296.19,490.29,295.21,490.36Zm1.48-333.63c.95.08,1.9.16,2.85.26s1.91.21,2.86.33l2.87.37c.95.13,1.9.26,2.85.4l7.57-48.52c-1.22-.19-2.45-.35-3.68-.52s-2.48-.33-3.72-.48-2.46-.29-3.7-.42-2.45-.23-3.69-.33-2.47-.2-3.71-.28-2.46-.17-3.69-.23l-2.54,49c1,0,1.9.12,2.85.18Zm-8.79,383.15c1.24,0,2.47-.09,3.71-.14l-2.11-49.06c-1,0-1.91.08-2.86.11ZM288,156.22l1.68-49.07q-1.85-.06-3.7-.09c-1.23,0-2.46,0-3.7,0v49.1c1,0,1.9,0,2.85,0ZM282.29,540l1.9,0-.43-49.1-1.46,0h0l-1.47,0c-1,0-1.91,0-2.85,0l-1.27,49.09c1.23,0,2.46,0,3.7,0Zm83.9-150.35-38.53-30.37c-.2.25-.39.51-.6.76l38,31C365.46,390.53,365.83,390.07,366.2,389.61Zm-31.07-89.54c.13.3.28.6.41.9s.24.61.36.91l45.47-18.33c-.23-.56-.45-1.13-.69-1.69s-.48-1.11-.73-1.67-.5-1.11-.75-1.66-.53-1.13-.8-1.69l-44.1,21.41c.15.3.28.61.42.91ZM382.68,287c-.21-.57-.42-1.13-.63-1.69l-45.78,17.52c.12.3.24.6.35.91Zm6,45.26q.07-.94.13-1.88c0-.62.08-1.25.11-1.87L340,326.2c0,.34,0,.68-.07,1s0,.67-.08,1,0,.64-.07,1L388.56,334Q388.65,333.13,388.72,332.25Zm.27-12.94c0-.59,0-1.18-.08-1.77s-.07-1.25-.12-1.87-.09-1.18-.15-1.77-.11-1.26-.18-1.88-.13-1.18-.2-1.77l-48.62,6.08c0,.32.09.63.12,1s.06.68.09,1,.05.64.07,1,.06.68.08,1,0,.64,0,1,0,.68,0,1l49-1C389,320.57,389,319.94,389,319.31Zm-1.4,22c.1-.59.2-1.18.29-1.77s.18-1.25.26-1.88.15-1.18.22-1.77L339.7,330.2c0,.32-.08.64-.12,1s-.08.68-.13,1-.11.64-.17,1-.11.64-.17,1l48.16,9C387.39,342.5,387.49,341.91,387.59,341.32Zm-49.75-33.8c.09.32.19.64.27,1s.17.64.25,1,.15.64.22,1,.16.67.23,1,.13.64.19,1,.12.64.17,1,.13.68.18,1,.09.64.14,1L388,308.36c-.08-.59-.17-1.18-.27-1.77s-.2-1.25-.31-1.88-.22-1.18-.34-1.77-.24-1.18-.36-1.77-.27-1.26-.41-1.88-.28-1.18-.43-1.76-.3-1.19-.46-1.78-.32-1.19-.49-1.78-.35-1.18-.53-1.77-.35-1.11-.53-1.67l-46.62,15.13c.1.3.2.59.29.9S337.75,307.19,337.84,307.51Zm48.69,39.23-47.83-10.67c-.07.32-.15.64-.22,1l47.64,11.49C386.26,347.93,386.4,347.34,386.53,346.74Zm-2.94,10.64q.29-.88.57-1.76c.18-.59.36-1.18.54-1.77s.35-1.19.51-1.78L338,338.95l-.27,1c-.1.32-.19.64-.29,1s-.22.64-.33,1-.2.6-.3.9L383,359.06C383.21,358.5,383.4,357.94,383.59,357.38ZM361.5,395.17l1.2-1.36-36.93-32.3c-.22.25-.42.5-.64.74l-.68.72,35.8,33.55ZM310,272.73l.88.51,24.25-42.71-1.63-.91Zm18.6-45.64-1.7-.79-1.66-.74-1.67-.72-1.7-.69-18.17,45.65.92.36.9.4.9.41.92.42.9.46.87.45,22.76-43.52-1.61-.83Zm-29.57,41,.93.29,1,.32.93.32,16.58-46.24-1.73-.61-1.76-.57-1.72-.53-1.78-.53L298,267.86Zm56,133.61,1.34-1.27,1.29-1.26.17-.17,1.15-1.18L323.76,363.7c-.24.25-.47.5-.71.74l-.7.67-.72.69-.73.68L353.67,403ZM300.62,218.14l-1.83-.3-7.58,48.53,1,.18,1,.17,1,.19,10.07-48.07-1.84-.36Zm48.14,21.67-1.46-1.14-1.43-1.09-1.53-1.12-1.47-1-1.55-1.06-1.49-1-1.59-1-1.56-.94-25,42.28.85.51.85.55.82.52.84.57.79.56.84.6.77.59.79.62c.26.2.52.4.77.61l.78.67,31.84-37.35L350.17,241Zm9.08,8.11-.83-.81-1.3-1.26-1.35-1.26L353,243.36l-32.46,36.81.75.66.72.69.71.68.72.71.68.71,35.5-33.88-1.26-1.29Zm-27,44.26.53.83.53.85c.18.3.34.6.52.89s.33.56.48.84l.46.85,43.34-22.92q-.42-.79-.85-1.58c-.29-.53-.58-1.05-.88-1.57s-.64-1.1-1-1.65-.64-1.06-1-1.58-.64-1-1-1.54l-1-1.5q-.53-.78-1.06-1.56l-40.29,28c.2.28.4.56.59.84S330.68,291.91,330.86,292.19Zm35.91-34.09-1.1-1.39-1.17-1.44-37.74,31.33c.21.26.42.52.63.78l.59.76c.2.26.41.51.61.78s.4.56.6.84L369,261.09c-.37-.52-.74-1-1.12-1.54S367.14,258.58,366.77,258.09Zm-5.91-7-36.08,33.25.67.74.64.74,37.19-32-1.2-1.36Zm-65.74,16,1,.23,11.73-47.7-1.83-.44Zm27.6,155.35,1.68-.7,1.67-.73,1.66-.77L306.85,375.8l-.9.41-.9.41-.91.38-.94.37L321,423.17Zm-28.47,7.26,1.85-.22-6.34-48.72-1,.13-1,.1,4.65,48.89Zm36.82-11.11,1.61-.85,1.59-.87,1.63-.93,1.57-.93,1.55-1,1.58-1,1.48-1,1.51-1-28.16-40.22-.81.58-.81.52-.85.55-.84.53-.85.49-.87.5-.86.48-.87.45-.9.46,21.64,44.09Zm15.52-9.77,1.47-1.13,1.45-1.17,1.4-1.16,1.38-1.18-32.16-37.09-.74.64-.76.63-.79.62-.79.62-.78.57,28.87,39.7Zm-34.32,17.27,1.77-.53,1.71-.56,1.78-.6,1.72-.62-17-46.09-.94.33-1,.32-.92.31-1,.28-1,.27,12.95,47.39Zm-26.49-44.94,2.94,49,1.84-.12-3.79-49Zm6.92-.84-1,.18,8,48.46,1.83-.31,1.82-.35-9.66-48.16Zm-3-163.52-1.83-.12-1.88-.07-1.68,49.09,1,0,1,.07,1,.08,1,.08,5.06-48.85-1.82-.16Zm-4.6,213.54,1.84-.07-2.11-49.06-1,0Zm-19.93-51.67-.91-.31-1-.33-.93-.32-.92-.36-.94-.37-.92-.38-.89-.41-.9-.41-.92-.44L235.2,419.46l1.69.81,1.65.76,1.68.73,1.68.7,1.74.7,1.71.65,1.73.62,1.78.61,1.7.55,1.78.53L266.1,379ZM102.9,454.88l-39.59,29q1.44,2,2.9,3.89l39.07-29.7Q104.07,456.48,102.9,454.88ZM92.27,439l-41.94,25.5c.82,1.34,1.66,2.67,2.49,4l41.49-26.22C93.63,441.2,92.94,440.11,92.27,439Zm4.14,6.52-41,26.93c.88,1.33,1.76,2.66,2.65,4l40.55-27.65Q97.48,447.17,96.41,445.53Zm80.43-138.94,48.37,7.75c.05-.34.12-.68.18-1l-48.24-8.61C177,305.33,176.94,306,176.84,306.59Zm78.22,67.87-.86-.48-23.88,42.91,1.59.88ZM175.94,313.9c-.05.59-.1,1.18-.15,1.77s-.08,1.25-.12,1.87l48.9,2.73c0-.34.05-.68.08-1s0-.64.07-1,.06-.68.09-1L176.12,312C176.06,312.64,176,313.27,175.94,313.9ZM112.47,467,75,498.7q1.49,1.76,3,3.5l36.94-32.31C114.1,468.94,113.28,468,112.47,467ZM238.18,360.78l-.66-.78-.59-.76-.62-.79-.62-.83-.57-.79c-.19-.26-.38-.52-.56-.79l-.56-.85-.54-.84c-.18-.28-.37-.56-.54-.84s-.33-.57-.49-.85l-42.33,24.75c.31.53.61,1.05.93,1.57s.65,1.05,1,1.57l1,1.56c.34.52.69,1,1,1.56s.68,1,1,1.48.7,1,1.05,1.45.76,1,1.14,1.53.75,1,1.13,1.47L199.5,391q.6.73,1.21,1.45ZM107.64,461.12,69.09,491.5c.93,1.18,1.88,2.35,2.83,3.52l38-31C109.18,463.05,108.4,462.09,107.64,461.12ZM311,543.93c-1.27.16-2.55.3-3.82.44s-2.52.27-3.78.39L308,593.64c1.54-.14,3.08-.31,4.61-.48s3.12-.34,4.67-.54,3.08-.42,4.62-.65l-7.17-48.58C313.49,543.58,312.23,543.77,311,543.93Zm71.41-183.11-45.92-17.13c-.12.31-.24.61-.36.91s-.25.64-.38,1-.26.61-.39.91l-.41.9c-.14.3-.27.61-.41.91l44.29,21c.26-.55.52-1.11.78-1.67s.49-1.11.73-1.67.48-1.11.71-1.68.48-1.17.71-1.76S382.16,361.38,382.37,360.82ZM478,429.06c-.62,1.15-1.26,2.3-1.91,3.44l42.78,24.06c.79-1.39,1.57-2.79,2.33-4.2Zm-216.66,165c1.54.12,3.09.2,4.63.29l3-49c-1.27-.07-2.53-.14-3.79-.24ZM133.76,489q-1.43-1.29-2.84-2.6c-.94-.87-1.87-1.75-2.79-2.64s-1.8-1.74-2.69-2.62l-.39-.38c-.8-.8-1.58-1.61-2.36-2.42s-1.78-1.85-2.65-2.78-1.75-1.87-2.61-2.82L81,505.64c1,1.16,2.12,2.3,3.19,3.44s2.15,2.27,3.24,3.39,1.91,2,2.88,3l.47.46q1.63,1.62,3.28,3.21c1.13,1.09,2.27,2.15,3.41,3.22s2.3,2.12,3.46,3.17,2.33,2.09,3.51,3.11,2.34,2,3.52,3L139.52,494c-1-.81-1.93-1.62-2.88-2.44S134.71,489.81,133.76,489ZM279.81,381.23l-1-.05-1-.07-1-.08-1-.1-1-.13-1-.13-1-.15-1-.18-1-.18-1-.21-10.49,48,1.79.38,1.82.35,1.83.31,1.78.28,1.82.25,1.84.22,1.82.19,1.88.17,1.83.11,1.83.09ZM288,545.69c-1.26,0-2.53,0-3.79,0l-1.95,0h0l-2,0-.43,49.1c.8,0,1.59,0,2.39,0s1.59,0,2.39,0c1.55,0,3.09,0,4.63-.06s3.1-.11,4.64-.18l-2.11-49.06C290.58,545.6,289.31,545.66,288,545.69ZM185,367.61c.25.56.52,1.12.78,1.67s.53,1.11.81,1.66.56,1.12.84,1.67L231,350.06l-.46-.9c-.15-.3-.3-.59-.44-.89s-.27-.6-.41-.9-.28-.6-.41-.9-.26-.6-.39-.91l-45.3,18.71q.35.84.71,1.68C184.52,366.5,184.76,367.06,185,367.61Zm31.52,40.11,1.48,1.14,1.44,1.07L221,411l1.51,1.05,1.48,1,1.59,1,1.55,1L252.47,373l-.83-.53-.85-.55c-.27-.17-.54-.34-.81-.52s-.54-.38-.81-.58l-.84-.6-.79-.58c-.27-.2-.53-.41-.79-.62l-.79-.62-.76-.63-.74-.64-.75-.65-.74-.68-.72-.69-.7-.67-.71-.73-.69-.72-.68-.72c-.22-.24-.43-.49-.64-.74l-36.93,32.3,1.2,1.36c.41.46.83.91,1.25,1.36l1.27,1.34c.38.39.76.79,1.14,1.17l.18.18,1.29,1.26,1.34,1.26,1.37,1.25,1.38,1.23,1.38,1.18,1.4,1.16Zm27.54-127.56.74-.64c.26-.22.51-.45.77-.66s.51-.4.77-.61l.79-.62.77-.59-29.2-39.46-1.44,1.09-1.46,1.14-1.42,1.14c-.49.4-1,.81-1.44,1.22l-1.36,1.19-1.38,1.24,33.1,36.23ZM207.59,247.1l-.84.82-.5.51c-.42.43-.85.86-1.26,1.3s-.84.9-1.25,1.35l-1.24,1.37,36.64,32.62.67-.74.69-.72.68-.71.72-.71.71-.68-33.72-35.66Zm-9.77,11c-.37.48-.74,1-1.11,1.45s-.75,1-1.12,1.54l-1,1.47q-.54.77-1.06,1.55t-1,1.51c-.33.51-.65,1-1,1.54s-.65,1.05-1,1.58-.65,1.09-1,1.65l42.56,24.38c.17-.3.34-.6.52-.9l.52-.85.53-.83c.18-.27.34-.55.53-.82s.39-.56.58-.83l.56-.79c.2-.28.39-.57.6-.84s.4-.51.61-.77l.6-.76L198.92,256.7Zm83.49,7.59,1,0h0v-49.1h0l-1.82,0-1.83,0,1.68,49.09ZM264,218.14l-1.77.32,9.23,48.25,1-.17,1-.18-7.58-48.53Zm13.35,47.76,1-.08,1-.08-2.54-49-1.82.12-1.84.14-1.82.16L276.34,266Zm-51-33.51-1.59,1-1.49,1-1.56,1.06-1.47,1,28.5,40,.79-.56.84-.57.81-.52.86-.55.85-.51.85-.49.88-.51.87-.45-22.77-43.52-1.6.86-1.63.92-1.57.92Zm32.73,38.15.9-.4.92-.36.94-.37.93-.35.94-.32.95-.32.94-.29-14.18-47-1.73.54-1.75.57-1.73.61-1.71.63-1.74.67-1.7.7-1.68.72-1.66.75L258.2,271Zm16.26-4.44-5.9-48.76-1.84.24,6.74,48.65Zm-97.1,33.18L226,310.39c.07-.32.14-.64.22-1l-47.53-11.91C178.54,298.11,178.4,298.7,178.26,299.29Zm48.62,40.63c-.1-.32-.19-.65-.28-1l-47.22,13.12q.25.9.51,1.78c.17.59.35,1.18.54,1.77s.38,1.18.57,1.77l46.48-15.56c-.11-.32-.22-.63-.32-1S227,340.24,226.88,339.92Zm-46.71-47.72L227,306.55c.09-.3.19-.6.29-.9l-46.62-15.13C180.51,291.08,180.34,291.63,180.16,292.19Zm6-15.35c-.27.56-.53,1.12-.8,1.68s-.5,1.1-.75,1.65-.49,1.12-.73,1.68L229.05,301c.13-.3.27-.6.41-.9s.27-.6.41-.9.28-.61.42-.91.31-.59.46-.89L187,275.19Q186.59,276,186.19,276.85Zm-8.7,26.09,48.08,9.42q.09-.48.2-1l-47.91-10.23Q177.66,302.05,177.49,302.94Zm37.6-132.83c.87-.38,1.75-.76,2.63-1.13l2.66-1.08c.91-.36,1.82-.71,2.74-1.05l2.69-1c.9-.32,1.8-.65,2.71-1l-15.78-46.52c-1.18.4-2.34.81-3.5,1.23s-2.33.85-3.48,1.28-2.37.89-3.54,1.36-2.3.93-3.44,1.4-2.27,1-3.4,1.46-2.25,1-3.36,1.5l20.47,44.64C213.35,170.87,214.21,170.49,215.09,170.11Zm-10.42,5,2.55-1.3c.87-.44,1.74-.87,2.62-1.29l-21.25-44.27c-1.14.55-2.26,1.11-3.39,1.68S183,131,181.9,131.59s-2.18,1.14-3.26,1.73l23.5,43.12C203,176,203.82,175.54,204.66,175.1Zm-31,335.76c1.09.63,2.19,1.25,3.3,1.86l23.88-42.9c-.85-.48-1.71-1-2.55-1.44Zm-41.54-31.32c.9.87,1.81,1.72,2.72,2.57l33.4-35.94q-1.06-1-2.11-2ZM116.9,463.28q1.19,1.41,2.4,2.79c.81.92,1.61,1.84,2.43,2.74s1.69,1.83,2.54,2.75,1.71,1.81,2.58,2.71,1.77,1.82,2.67,2.72l34.61-34.77-.3-.29c-.6-.59-1.18-1.2-1.77-1.81s-1.34-1.39-2-2.09-1.32-1.41-2-2.12-1.26-1.41-1.89-2.12-1.24-1.43-1.85-2.15-1.27-1.51-1.9-2.28l-38,31Q115.66,461.82,116.9,463.28ZM99.23,439.19q1,1.59,2,3.16t2.11,3.16l40.51-27.63q-.83-1.22-1.64-2.45T140.67,413c-.52-.82-1-1.64-1.55-2.48s-1-1.63-1.46-2.46L95.35,432.82c.62,1.06,1.24,2.12,1.88,3.18S98.55,438.13,99.23,439.19Z"/><path class="cls-2" d="M398.42,444.19l34,35.35c.88-.85,1.75-1.7,2.62-2.56l-34.6-34.78C399.78,442.88,399.1,443.53,398.42,444.19Z"/><path class="cls-2" d="M415.65,424.87c-.59.77-1.18,1.55-1.78,2.31s-1.16,1.45-1.75,2.17l38,31c.76-.93,1.51-1.86,2.26-2.8s1.54-2,2.3-3,1.55-2.06,2.31-3.1l-39.56-29Q416.56,423.68,415.65,424.87Z"/><path class="cls-2" d="M419.1,420.19l40,28.31c.7-1,1.39-2,2.07-3L420.7,417.88Q419.91,419,419.1,420.19Z"/><path class="cls-2" d="M425.46,410.52c-.51.83-1,1.65-1.54,2.47s-1,1.63-1.58,2.44l41,26.9q1-1.56,2-3.14c.67-1.06,1.34-2.12,2-3.2s1.26-2.12,1.88-3.18l-42.32-24.75C426.44,408.89,426,409.71,425.46,410.52Z"/><path class="cls-2" d="M433.66,395.33c-.41.87-.84,1.73-1.26,2.6s-.87,1.75-1.32,2.61-.87,1.67-1.31,2.49l43.14,23.28c.58-1.07,1.14-2.14,1.7-3.22s1.15-2.25,1.71-3.38,1.1-2.23,1.63-3.36,1.06-2.25,1.58-3.39L434.89,392.7C434.49,393.58,434.08,394.45,433.66,395.33Z"/><path class="cls-2" d="M441.18,376.67c-.29.88-.6,1.75-.9,2.62s-.66,1.85-1,2.77-.66,1.77-1,2.65-.74,1.84-1.12,2.76l45.3,18.71c.49-1.18,1-2.37,1.44-3.56s.87-2.27,1.3-3.42.87-2.39,1.3-3.59.79-2.25,1.17-3.38.79-2.39,1.16-3.6l-46.73-14.73C441.79,374.82,441.49,375.75,441.18,376.67Z"/><path class="cls-2" d="M447,354.25c-.18,1-.36,2-.56,2.94s-.4,1.85-.6,2.78l47.81,10.67c.26-1.19.53-2.39.78-3.59s.49-2.54.73-3.81.43-2.39.63-3.59l-48.29-8.18C447.3,352.39,447.14,353.32,447,354.25Z"/><path class="cls-2" d="M449,340c-.1,1-.21,2-.32,3s-.22,1.85-.34,2.78l48.54,6.5c.16-1.19.3-2.39.44-3.59s.29-2.54.41-3.81.22-2.39.32-3.59l-48.81-4Q449.12,338.62,449,340Z"/><path class="cls-2" d="M449.44,334.28l48.87,3.16c.08-1.27.16-2.54.22-3.81l-48.92-2.29C449.56,332.32,449.5,333.3,449.44,334.28Z"/><path class="cls-2" d="M498.75,322.64l-49,.19c0,.22,0,.44,0,.66,0,.71,0,1.41,0,2.12l49,.62c0-.91,0-1.83,0-2.74C498.76,323.2,498.75,322.92,498.75,322.64Z"/><path class="cls-2" d="M418.27,225.63c.55.76,1.09,1.53,1.63,2.3s1.12,1.62,1.67,2.44,1,1.56,1.54,2.34,1,1.61,1.53,2.42,1,1.65,1.51,2.48,1,1.72,1.53,2.59.92,1.64,1.38,2.47.9,1.65,1.34,2.48.91,1.73,1.35,2.6.86,1.72,1.29,2.59.84,1.76,1.25,2.64.8,1.73,1.18,2.6.77,1.74,1.15,2.62l45.14-19.1c-.48-1.14-1-2.26-1.48-3.39s-1-2.24-1.53-3.36-1.06-2.29-1.61-3.42-1.1-2.24-1.66-3.35-1.16-2.24-1.75-3.36-1.14-2.14-1.73-3.2-1.18-2.14-1.78-3.19-1.31-2.23-2-3.34-1.29-2.14-2-3.2-1.3-2.09-2-3.13-1.33-2-2-3-1.43-2.1-2.15-3.15-1.39-2-2.1-3-1.51-2.09-2.28-3.12-1.5-2-2.25-2.94l-38.78,30c.58.75,1.17,1.51,1.74,2.27S417.69,224.82,418.27,225.63Z"/><path class="cls-2" d="M441.66,271.78c.28.87.56,1.74.83,2.62s.56,1.85.83,2.78.52,1.86.77,2.79.49,1.85.72,2.79.46,1.85.68,2.78.43,2,.64,2.95L494,278.24c-.27-1.27-.54-2.55-.83-3.81s-.58-2.39-.87-3.59-.61-2.4-.93-3.6-.65-2.41-1-3.61-.7-2.4-1.07-3.59-.71-2.26-1.07-3.38-.78-2.39-1.19-3.58L440.75,269C441.06,269.92,441.36,270.85,441.66,271.78Z"/><path class="cls-2" d="M448.12,299.76c.14,1,.27,2,.4,3s.22,1.85.32,2.78l48.69-5.26c-.13-1.2-.26-2.4-.41-3.6s-.33-2.54-.51-3.8-.34-2.4-.53-3.6L447.7,297Q447.92,298.37,448.12,299.76Z"/><path class="cls-2" d="M449.65,316.94c0,1,.07,2,.09,3l49-1.05c0-1.27-.07-2.54-.12-3.81s-.09-2.4-.16-3.59l-48.9,2.73C449.58,315.09,449.62,316,449.65,316.94Z"/><path class="cls-2" d="M444,325.53c0-.68,0-1.36,0-2,0-.21,0-.42,0-.64q0-1.42,0-2.83c0-1-.05-1.9-.09-2.85l-49.06,1.92c0,.66,0,1.32.06,2s0,1.31,0,2c0,.14,0,.29,0,.43,0,.48,0,1,0,1.43,0,.66,0,1.32,0,2l49.08,1.49C443.93,327.43,443.95,326.48,444,325.53Z"/><path class="cls-2" d="M443.45,336.75c.07-.94.14-1.89.2-2.84s.12-1.89.16-2.84l-49.05-2.3c0,.66-.07,1.32-.11,2s-.09,1.33-.14,2-.11,1.25-.17,1.87l48.87,4.84Q443.34,338.09,443.45,336.75Z"/><path class="cls-2" d="M442.57,345c.12-.89.22-1.79.33-2.68l-48.77-5.71c-.07.62-.15,1.25-.23,1.87s-.18,1.33-.28,2l48.56,7.38C442.31,346.86,442.44,345.91,442.57,345Z"/><path class="cls-2" d="M393.75,307.54c.09.66.19,1.32.27,2s.15,1.24.21,1.87l48.82-5.28q-.14-1.35-.31-2.68c-.12-1-.25-1.9-.38-2.85s-.26-1.79-.4-2.68-.3-1.9-.47-2.84l-48.35,8.63c.11.66.22,1.32.33,2S393.67,306.91,393.75,307.54Z"/><path class="cls-2" d="M439.18,284.16q-.34-1.35-.7-2.69c-.24-.9-.48-1.8-.74-2.69s-.53-1.8-.8-2.69l-47,14.4q.29.93.55,1.87c.18.62.35,1.25.52,1.88s.33,1.25.49,1.88.31,1.24.45,1.86.29,1.32.43,2l48-10.27c-.2-.95-.4-1.9-.62-2.84S439.4,285.06,439.18,284.16Z"/><path class="cls-2" d="M438.13,366.76c.25-.89.49-1.78.73-2.68s.45-1.79.66-2.69.42-1.79.62-2.69.4-1.78.58-2.68.37-1.89.54-2.84.32-1.79.47-2.69l-48.43-8.2q-.16.94-.33,1.87c-.12.66-.24,1.33-.38,2s-.27,1.24-.41,1.87-.28,1.25-.43,1.87-.3,1.25-.46,1.88-.33,1.24-.5,1.87-.35,1.25-.54,1.88l47.1,14C437.63,368.56,437.89,367.66,438.13,366.76Z"/><path class="cls-2" d="M387.47,283.22c.23.59.45,1.18.67,1.78s.44,1.24.66,1.87l46.46-16q-.46-1.35-.95-2.68c-.31-.86-.64-1.71-1-2.56s-.68-1.77-1-2.65-.69-1.71-1-2.56-.73-1.69-1.11-2.53l-44.91,19.92c.26.58.52,1.17.77,1.76s.49,1.18.72,1.78S387.23,282.6,387.47,283.22Z"/><path class="cls-2" d="M432.87,382.58c.33-.85.65-1.7,1-2.56s.65-1.78,1-2.67.59-1.68.87-2.53.59-1.78.87-2.68L389.7,357.37q-.29.93-.6,1.86c-.2.59-.4,1.18-.61,1.77s-.44,1.24-.67,1.86-.44,1.19-.67,1.78-.5,1.24-.75,1.85l45.4,18.76C432.15,384.36,432.52,383.47,432.87,382.58Z"/><path class="cls-2" d="M426.57,250.36c-.43-.84-.86-1.67-1.31-2.51s-.86-1.6-1.29-2.4-.88-1.59-1.33-2.38-1-1.67-1.47-2.5L379,265.76c.35.58.69,1.16,1,1.74s.62,1.1.92,1.66.6,1.11.9,1.67.61,1.16.9,1.74.58,1.16.87,1.75l44.19-21.45Q427.2,251.61,426.57,250.36Z"/><path class="cls-3" d="M125.61,174l35.49,33.87c.65-.68,1.32-1.36,2-2l-34.92-34.45C127.3,172.23,126.45,173.1,125.61,174ZM108.8,193.86l39.29,29.35c.57-.76,1.16-1.52,1.74-2.27s1.15-1.46,1.73-2.19,1.22-1.51,1.84-2.26,1.27-1.51,1.91-2.26l-37.19-32q-1.25,1.45-2.47,2.92c-.8,1-1.59,1.94-2.37,2.92s-1.5,1.88-2.23,2.83S109.53,192.87,108.8,193.86Zm-4.38,6.1,40.27,28q.81-1.16,1.63-2.3L106.51,197Q105.45,198.47,104.42,200Zm-4.15,6.19c-.67,1-1.32,2.08-2,3.13L140,235.13c.5-.81,1-1.62,1.52-2.41s1-1.57,1.55-2.36l-40.76-27.25Q101.25,204.62,100.26,206.15ZM89.11,225.57q-.84,1.66-1.66,3.35l44.1,21.41q.63-1.3,1.29-2.59c.44-.87.9-1.73,1.35-2.6L90.86,222.22C90.27,223.33,89.68,224.45,89.11,225.57Zm-4.8,10.13c-.5,1.13-1,2.25-1.48,3.39s-.93,2.27-1.39,3.41l45.46,18.32c.36-.88.71-1.77,1.08-2.64s.76-1.75,1.15-2.62.78-1.74,1.18-2.6L85.84,232.35Q85.06,234,84.31,235.7Zm-5.55,13.77q-.65,1.79-1.27,3.6c-.41,1.19-.8,2.38-1.19,3.58l46.61,15.12c.3-.93.6-1.86.92-2.78s.64-1.86,1-2.78.66-1.77,1-2.64L80,246.06C79.61,247.19,79.18,248.33,78.77,249.47Zm43.33,24.92L75.24,260q-.55,1.79-1.07,3.59l47.09,13.55C121.53,276.25,121.81,275.32,122.09,274.39Zm-49.84-3.55,47.52,11.91q.35-1.4.72-2.79L73.19,267.24Q72.71,269,72.26,270.84Zm45.64,20.42c.18-.93.37-1.86.56-2.78L70.55,278.24q-.38,1.79-.73,3.59c-.23,1.2-.47,2.39-.68,3.6L117.37,294C117.53,293.11,117.72,292.18,117.89,291.26Zm253,229.83-20.1-44.81c-.87.39-1.74.77-2.62,1.14l19.34,45.14Q369.25,521.84,370.93,521.09Zm-24.36,9.19c1.16-.36,2.32-.74,3.47-1.12l-15.37-46.65c-.89.29-1.79.59-2.69.87s-1.85.55-2.78.82L343,531.35C344.18,531,345.38,530.65,346.58,530.28Zm-10.77,3c1.2-.3,2.39-.62,3.58-.95l-13-47.37c-.92.25-1.83.5-2.76.73s-1.85.46-2.77.67l11.33,47.79Q334,533.76,335.8,533.31ZM442.93,371.1l47,13.93c.35-1.2.7-2.39,1-3.6l-47.21-13.12Q443.34,369.71,442.93,371.1ZM401.51,205.83c.66.67,1.32,1.34,2,2s1.32,1.41,2,2.11,1.3,1.42,1.94,2.14,1.26,1.42,1.88,2.14,1.28,1.5,1.91,2.26l37.74-31.33q-1.22-1.47-2.47-2.92c-.8-.93-1.61-1.84-2.43-2.76s-1.66-1.86-2.51-2.77-1.69-1.84-2.55-2.74-1.7-1.75-2.56-2.62-1.8-1.8-2.71-2.69l-34.3,35.07c.44.43.89.86,1.33,1.3Zm-255.16,30,41.27,26.61q.51-.8,1-1.59l-40.82-27.29Q147.09,234.72,146.35,235.86ZM184,195.15l29.8,38.9,1.51-1.15-29.15-39.39C185.4,194.06,184.68,194.6,184,195.15Zm-48.39,60.26q-.58,1.25-1.14,2.51l44.91,19.91q.39-.88.79-1.74c.28-.59.55-1.19.84-1.78l-44.19-21.45C136.36,253.71,136,254.56,135.57,255.41ZM176.45,285c.22-.6.44-1.19.67-1.78l-45.88-17.57c-.32.85-.65,1.7-1,2.55s-.64,1.79-.94,2.68l46.46,16C176,286.24,176.22,285.62,176.45,285Zm-1.83,5.49-47-14.4q-.41,1.34-.8,2.69l47.21,13.58C174.24,291.74,174.42,291.11,174.61,290.49Zm-1.07,3.75-47.44-12.76q-.36,1.34-.7,2.69l47.65,11.95Q173.29,295.17,173.54,294.24Zm-1.75,7.59-48.2-9.45c-.17.89-.35,1.78-.51,2.68l48.35,8.63C171.55,303.07,171.67,302.45,171.79,301.83Zm-1.23,7.7-48.73-6.09q-.17,1.34-.31,2.68l48.82,5.28Q170.45,310.45,170.56,309.52Zm-.4,3.85L121.25,309c-.08.89-.16,1.78-.22,2.68l49,3.6C170,314.62,170.11,314,170.16,313.37Zm-49.53,12.16c0,1,0,1.9.05,2.85s.06,1.79.1,2.68l49-2.3c0-.62-.05-1.24-.07-1.87s0-1.32,0-2Zm57.86,121.9q1.05.88,2.12,1.74l30.83-38.1L210,409.85ZM205.61,406l-33.38,35.92q1,.95,2.06,1.88L207,407.32C206.56,406.88,206.08,406.44,205.61,406Zm-5.5-5.49-35.8,33.55q1,1,1.93,2l35.21-34.15Zm133.61,23.28L356,467.35c.82-.42,1.63-.85,2.44-1.28l2.42-1.32c.82-.46,1.65-.92,2.46-1.39l2.39-1.41L340.46,420l-1.66,1-1.72,1-1.68.92Zm-8.81,4.06-1.84.74,17.7,45.6,2.62-1c.85-.35,1.7-.7,2.55-1.06l-19.26-45Zm-24.27,6.87,7.95,48.2c.92-.15,1.84-.3,2.76-.47l-8.78-48.07ZM421.17,240.58q-.72-1.2-1.46-2.39L378,264.09q.52.83,1,1.67ZM329.28,221l1.79.84,1.77.88L354.78,179c-.84-.42-1.68-.84-2.53-1.25s-1.7-.8-2.56-1.19l-2.52-1.12-19.63,44.82Zm7.55-49.7c-.87-.31-1.74-.62-2.61-.92l-15.71,46.31,1.83.64ZM326.76,286.59l37.74-31.33-1.21-1.44-37.19,32C326.31,286.07,326.54,286.32,326.76,286.59ZM240.51,105.13c1.23-.23,2.45-.46,3.69-.67s2.53-.43,3.8-.63l-7.58-48.52c-1.55.24-3.1.5-4.64.77s-3,.54-4.5.82-3.12.6-4.67.92l10.08,48.06C238,105.62,239.24,105.37,240.51,105.13Zm-65,216.07,49,1c0-.34,0-.68,0-1l-48.94-1.91C175.57,319.94,175.55,320.57,175.54,321.2Zm51.2-13.68L179.64,294c-.17.59-.33,1.18-.49,1.78l47.32,12.72C226.56,308.15,226.65,307.83,226.74,307.51Zm1.22-3.78L181.9,287q-.32.88-.62,1.77l46.35,15.94C227.75,304.37,227.85,304,228,303.73Zm.73-1.86-45.47-18.33q-.35.87-.69,1.75l45.78,17.52Zm2.52-5.41-43.34-22.93c-.29.55-.58,1.1-.86,1.66l43.74,22.17C230.9,297.06,231.05,296.76,231.21,296.46Zm152.68-5.94c-.19-.59-.38-1.18-.59-1.77s-.41-1.18-.62-1.77l-46.06,16.75c.12.32.22.64.33,1s.22.63.32,1Zm-54.14,0,40.29-28-1-1.47-39.81,28.65Zm-91.92-3.95-37.74-31.32c-.39.48-.78,1-1.17,1.44l38.29,30.66Zm113.78-44.41-31.84,37.35.74.64L353,243.36Zm-17.78,55.19,43.74-22.17c-.28-.55-.57-1.1-.86-1.65l-43.34,22.92ZM389,326.72l-49-1.48c0,.32,0,.64,0,1L389,328.49Q389,327.6,389,326.72Zm4.77,189.17c-1.12.65-2.25,1.29-3.39,1.92s-2.2,1.22-3.32,1.81l23.14,43.29q2-1.09,4.05-2.22c1.38-.77,2.76-1.55,4.13-2.34s2.67-1.56,4-2.36l-25.34-42Q395.44,514.93,393.8,515.88Zm-17,8.91,20.86,44.45q2.15-1,4.28-2.05l-21.63-44.07Q378.52,524,376.76,524.79Zm59.7-41.07c-.92.89-1.86,1.76-2.79,2.64s-1.88,1.74-2.83,2.59-1.91,1.71-2.88,2.55l32.15,37.08c1.18-1,2.34-2.07,3.51-3.11s2.31-2.1,3.46-3.17,2.29-2.13,3.41-3.22,2.2-2.13,3.28-3.21L439.15,481.1C438.26,482,437.36,482.86,436.46,483.73Zm-23.4,19.61L441.91,543q1.85-1.34,3.67-2.71l-29.52-39.2C415.07,501.87,414.06,502.6,413.06,503.33Zm28.84-25,35.22,34.17q1.63-1.68,3.24-3.39l-35.81-33.55Q443.23,476.93,441.9,478.3ZM369.85,527.9c-1.16.5-2.33,1-3.51,1.46l18.56,45.45c1.43-.58,2.86-1.17,4.28-1.78s2.83-1.22,4.23-1.85l-20.1-44.79Q371.59,527.16,369.85,527.9ZM452.12,467l37.48,31.67q1.55-1.83,3.07-3.68l-38-31C453.8,465,453,466,452.12,467ZM340.91,538c-1.22.33-2.44.66-3.67,1l12.14,47.58c1.5-.38,3-.78,4.48-1.19s3-.83,4.52-1.27l-13.76-47.14C343.38,537.28,342.15,537.62,340.91,538ZM224.52,325.24c0-.34,0-.68,0-1l-49,.62c0,.63,0,1.25,0,1.87ZM468.18,445.52q-1.08,1.64-2.18,3.26l40.55,27.65q1.35-2,2.66-4t2.55-3.94l-41.49-26.22Q469.24,443.91,468.18,445.52Zm29.35-66.22c-.32,1.23-.66,2.46-1,3.68l47.32,13.14c.41-1.5.83-3,1.21-4.5s.75-3,1.11-4.53l-47.74-11.51C498.14,376.83,497.84,378.07,497.52,379.3Zm2.56-11.09c-.25,1.23-.53,2.46-.8,3.68l47.93,10.69c.33-1.5.67-3,1-4.5s.62-3.18.91-4.77l-48.27-9C500.59,365.61,500.35,366.91,500.08,368.21Zm1.39-7.6,48.42,8.2c.25-1.5.5-3,.73-4.51l-48.55-7.38C501.89,358.15,501.68,359.38,501.48,360.61Zm2.62-22.8c-.08,1.31-.17,2.61-.27,3.91s-.21,2.46-.33,3.69-.27,2.61-.42,3.91L551.84,355c.18-1.59.37-3.18.52-4.78s.28-3,.4-4.5.24-3.18.34-4.77ZM459.31,458.06l39.07,29.7q1.47-1.93,2.9-3.89l-39.59-29Q460.51,456.48,459.31,458.06Zm35-67.69q-.58,1.85-1.2,3.69c-.39,1.16-.79,2.32-1.2,3.47s-.87,2.47-1.33,3.69l46,17.16q.83-2.24,1.63-4.5c.5-1.41,1-2.82,1.47-4.24s1-3,1.46-4.5.92-3,1.36-4.5l-47.08-14C495.11,387.92,494.74,389.15,494.36,390.37ZM326,541.46c-1.26.25-2.52.49-3.78.72s-2.54.44-3.81.65l8,48.45c1.55-.25,3.1-.51,4.64-.78s3.09-.58,4.63-.89,3-.62,4.52-.95l-10.49-48C328.52,541,327.28,541.21,326,541.46ZM484.81,415.35c-.53,1.16-1.07,2.32-1.62,3.47s-1.11,2.3-1.68,3.45-1.16,2.32-1.75,3.47l43.59,22.57q1.09-2.1,2.14-4.23t2.05-4.21c.67-1.41,1.34-2.82,2-4.24s1.25-2.82,1.86-4.24l-45.05-19.52C485.84,413,485.33,414.2,484.81,415.35ZM348.3,535.83l14.58,46.89c1.46-.45,2.9-.93,4.35-1.41l-15.36-46.64C350.68,535.07,349.49,535.46,348.3,535.83ZM282.81,381.28l.43,49.1,1.82,0-1.26-49.11Zm-86.27-263q1.76-.73,3.53-1.44L181.9,71.25q-2.16.86-4.31,1.76c-1.43.6-2.84,1.21-4.25,1.83l19.7,45C194.2,119.3,195.36,118.8,196.53,118.31ZM162.62,136c1.1-.7,2.21-1.39,3.32-2.07L140.26,92.15c-1.36.83-2.71,1.67-4,2.53s-2.53,1.65-3.79,2.48l27.1,40.92C160.55,137.4,161.58,136.71,162.62,136Zm-51.44,45.42L73.42,150.13c-1,1.21-2,2.44-3,3.66l38.3,30.68C109.55,183.46,110.36,182.46,111.18,181.47ZM150,144.73l-29.19-39.45c-1.22.91-2.43,1.83-3.63,2.75L147,147C148,146.23,149,145.47,150,144.73Zm71.77-35.22L208.43,62.26c-1.51.42-3,.88-4.5,1.32l14.17,47C219.33,110.23,220.56,109.86,221.8,109.51ZM182.22,360.83l45.92-17.13c-.12-.32-.23-.64-.35-1s-.2-.6-.31-.91L181,357.39c.19.56.38,1.11.58,1.67S182,360.24,182.22,360.83Zm56.6.69-.64-.74-37.47,31.66,1.18,1.38ZM189.59,121.35,169.12,76.73c-1.44.66-2.87,1.32-4.3,2L186.07,123C187.23,122.43,188.41,121.89,189.59,121.35Zm62.74,304.78,1.77.5,13-47.39-1-.27Zm25.32-374q-2.32,0-4.64.12c-1.59.05-3.19.1-4.77.18l2.54,49c1.3-.07,2.61-.11,3.91-.15s2.53-.07,3.8-.09Zm0,378.13,1.83.07,1.27-49.11-1,0Zm-22.64-55.83-23.15,43.31,1.61.86,22.41-43.72ZM104.14,190.38,64.83,161c-1,1.3-1.92,2.61-2.86,3.92L101.8,193.6C102.57,192.53,103.35,191.45,104.14,190.38Zm-30.83,57.1L27.16,230.71q-.81,2.24-1.59,4.51l46.44,16C72.43,249.95,72.86,248.71,73.31,247.48ZM108,531.57q1.77,1.48,3.56,2.93l30.87-38.15q-1.47-1.19-2.92-2.4ZM252.47,373,227.13,415l1.57.93,24.63-42.49Z"/></svg>